<svg width="50" height="51" viewBox="0 0 50 51" fill="none" xmlns="http://www.w3.org/2000/svg">
<rect y="0.394531" width="50" height="50" rx="10" fill="#E41B23"/>
<path d="M19.645 15.4895C19.3417 15.2562 19.1667 14.9529 19.12 14.5795C19.0967 14.2062 19.2017 13.8795 19.435 13.5995C19.6917 13.2962 20.0067 13.1329 20.38 13.1095C20.7533 13.0629 21.0917 13.1562 21.395 13.3895C25.4083 16.7262 28.29 19.3162 30.04 21.1595C31.8133 22.9795 32.7 24.3562 32.7 25.2895C32.7 26.2229 31.8133 27.6112 30.04 29.4545C28.29 31.2745 25.4083 33.8412 21.395 37.1545C21.0917 37.4112 20.7533 37.5162 20.38 37.4695C20.0067 37.4462 19.6917 37.2829 19.435 36.9795C19.2017 36.6995 19.0967 36.3612 19.12 35.9645C19.1667 35.5912 19.3417 35.2879 19.645 35.0545C21.745 33.3045 23.6 31.7062 25.21 30.2595C26.82 28.7895 28.01 27.6462 28.78 26.8295C29.5733 25.9895 29.97 25.4762 29.97 25.2895C29.97 25.0795 29.5733 24.5662 28.78 23.7495C28.01 22.9095 26.82 21.7662 25.21 20.3195C23.6 18.8495 21.745 17.2395 19.645 15.4895Z" fill="white"/>
</svg>
