<svg width="50" height="51" viewBox="0 0 50 51" fill="none" xmlns="http://www.w3.org/2000/svg">
<rect y="0.394531" width="50" height="50" rx="10" fill="#E41B23"/>
<path d="M30.11 15.5245C26.89 18.0445 24.3583 20.1912 22.515 21.9645C20.695 23.7145 19.7967 24.8112 19.82 25.2545C19.82 25.7212 20.6717 26.7595 22.375 28.3695C24.1017 29.9562 26.4817 31.8812 29.515 34.1445C29.8183 34.3779 29.9933 34.6812 30.04 35.0545C30.11 35.4279 30.0283 35.7545 29.795 36.0345C29.5617 36.3379 29.2583 36.5129 28.885 36.5595C28.5117 36.6295 28.1733 36.5479 27.87 36.3145C24.1367 33.5145 21.4067 31.2512 19.68 29.5245C17.9533 27.7979 17.09 26.3862 17.09 25.2895C17.0667 24.2162 17.9533 22.7462 19.75 20.8795C21.5467 19.0129 24.44 16.5162 28.43 13.3895C28.7333 13.1562 29.0717 13.0629 29.445 13.1095C29.8183 13.1562 30.1217 13.3312 30.355 13.6345C30.5883 13.9145 30.6817 14.2412 30.635 14.6145C30.5883 14.9879 30.4133 15.2912 30.11 15.5245Z" fill="white"/>
</svg>
