<svg width="30" height="37" viewBox="0 0 30 37" fill="none" xmlns="http://www.w3.org/2000/svg">
<path d="M1.17265 16.7454C0.955055 17.0833 0.887082 17.4685 0.968727 17.901C1.38116 19.7899 2.42865 22.6245 2.85033 24.3565L5.8776 24.3565C5.46897 22.6728 4.42696 19.0781 4.02671 17.2389C3.94506 16.8064 3.72118 16.4819 3.35505 16.2655C2.98018 16.0164 2.58511 15.9475 2.16985 16.0588C1.74584 16.1375 1.41344 16.3663 1.17265 16.7454Z" fill="#E41B23"/>
<path d="M18.3818 4.68987C19.7158 5.83528 20.693 7.56559 21.3134 9.88081L25.6072 24.3565L29.1786 24.3565L24.2841 9.0848C23.4453 5.95436 22.0204 3.57513 20.0093 1.94711C17.9981 0.319088 15.635 -0.131155 12.9198 0.59638C10.2046 1.32392 8.35256 2.78128 7.36372 4.96849C6.37488 7.1557 6.27365 9.7167 7.06002 12.6515L12.0142 31.1407C12.4074 32.6081 12.9136 33.7306 13.5328 34.5084C14.7888 36.129 16.4811 36.759 18.6099 36.3983C20.6835 36.0873 22.0697 35.1917 22.7686 33.7112C23.4675 32.2308 23.5243 30.3982 22.9389 28.2134L18.5745 11.9253C18.4609 11.5014 18.221 11.1812 17.8549 10.9648C17.4888 10.7483 17.0981 10.6958 16.6828 10.807C16.2675 10.9183 15.9395 11.1635 15.6987 11.5425C15.4899 11.913 15.4422 12.3103 15.5558 12.7342L19.9202 29.0223C20.1561 29.9027 20.2525 30.6458 20.2094 31.2515C20.1895 31.816 20.0024 32.2681 19.6483 32.6076C19.2942 32.9471 18.789 33.1699 18.1327 33.2758C17.5402 33.3647 17.0493 33.3215 16.66 33.1462C16.2707 32.9709 15.9509 32.6721 15.7008 32.2498C15.4739 31.7864 15.2513 31.147 15.0328 30.3318L10.0787 11.8426C9.51075 9.72307 9.51671 7.9565 10.0966 6.54293C10.7084 5.12079 11.9247 4.16579 13.7455 3.67791C15.5024 3.20715 17.0478 3.54447 18.3818 4.68987Z" fill="#E41B23"/>
</svg>
