<svg width="51" height="51" viewBox="0 0 51 51" fill="none" xmlns="http://www.w3.org/2000/svg">
<path d="M34.4817 48.9167C30.855 50.3745 27.015 51.0145 22.9617 50.8367C18.9439 50.659 15.2994 49.6456 12.0283 47.7967C8.18832 45.5923 5.21943 42.4278 3.12165 38.3034C1.05943 34.1434 0.0283203 29.1656 0.0283203 23.3701C0.0283203 19.6012 1.05943 16.0101 3.12165 12.5967C5.18388 9.14784 7.99277 6.32117 11.5483 4.11673C15.3172 1.77006 19.4594 0.436729 23.975 0.116728C28.4905 -0.238827 33.095 0.490062 37.7883 2.3034C41.5572 3.79673 44.6505 6.60562 47.0683 10.7301C49.4861 14.8545 50.7483 19.4234 50.855 24.4367C50.9972 29.9478 49.6461 34.8901 46.8017 39.2634C43.9572 43.6012 39.8505 46.819 34.4817 48.9167ZM33.255 45.8234C37.9483 44.0101 41.5217 41.219 43.975 37.4501C46.4639 33.6456 47.655 29.3256 47.5483 24.4901C47.4417 20.1523 46.3572 16.2056 44.295 12.6501C42.2683 9.05895 39.6905 6.64117 36.5617 5.39673C33.8239 4.33006 31.0683 3.69006 28.295 3.47673C25.5572 3.22784 22.9261 3.40562 20.4017 4.01006C17.8772 4.61451 15.5128 5.59229 13.3083 6.9434C10.2505 8.8634 7.83277 11.2812 6.05499 14.1967C4.27721 17.1123 3.38832 20.1701 3.38832 23.3701C3.35276 28.5967 4.22388 33.0234 6.00165 36.6501C7.77943 40.2412 10.3394 42.979 13.6817 44.8634C16.4905 46.4634 19.655 47.3345 23.175 47.4767C26.695 47.6545 30.055 47.1034 33.255 45.8234ZM17.7883 38.3034C17.3972 38.5878 16.9883 38.5878 16.5617 38.3034C16.1705 38.019 16.0461 37.6456 16.1883 37.1834C18.8905 28.2945 20.5794 23.3701 21.255 22.4101C21.7528 21.7345 25.735 18.4278 33.2017 12.4901C33.5928 12.1701 34.0017 12.1523 34.4283 12.4367C34.855 12.7212 34.9972 13.1123 34.855 13.6101C31.975 23.2456 30.3217 28.3656 29.895 28.9701C29.4683 29.539 25.4328 32.6501 17.7883 38.3034ZM25.2017 30.1967C27.0861 28.739 28.0817 27.9212 28.1883 27.7434C28.295 27.6012 28.7394 26.3212 29.5217 23.9034C30.1261 21.9834 30.9261 19.4056 31.9217 16.1701C26.2683 20.7212 23.2817 23.2101 22.9617 23.6367C22.4994 24.3123 21.2194 28.0101 19.1217 34.7301C21.6461 32.8456 23.6728 31.3345 25.2017 30.1967ZM26.695 26.9967C26.375 27.3167 25.9839 27.4767 25.5217 27.4767C25.0594 27.4767 24.6683 27.3167 24.3483 26.9967C24.0283 26.6412 23.8683 26.2501 23.8683 25.8234C23.8683 25.3612 24.0283 24.9701 24.3483 24.6501C24.6683 24.2945 25.0594 24.1167 25.5217 24.1167C25.9839 24.1167 26.375 24.2945 26.695 24.6501C27.015 24.9701 27.175 25.3612 27.175 25.8234C27.175 26.2501 27.015 26.6412 26.695 26.9967ZM14.4817 42.5167C11.9928 40.8101 9.94832 38.6056 8.34832 35.9034C6.78388 33.2012 5.87721 30.3567 5.62832 27.3701C5.34388 23.8501 6.03721 20.4723 7.70832 17.2367C9.41499 14.0012 12.0639 11.1034 15.655 8.5434C18.0372 6.83673 20.7394 5.80562 23.7617 5.45006C26.8194 5.05895 29.7705 5.41451 32.615 6.51673C35.815 7.76117 38.4817 9.8234 40.615 12.7034C42.7483 15.5478 44.1883 19.0323 44.935 23.1567C45.2905 25.219 45.1661 27.3878 44.5617 29.6634C43.9928 31.9034 43.015 34.0723 41.6283 36.1701C40.2417 38.2678 38.5705 40.0812 36.615 41.6101C33.2372 44.2767 29.6283 45.699 25.7883 45.8767C21.9839 46.0901 18.215 44.9701 14.4817 42.5167ZM15.655 40.8101C18.9972 43.0145 22.3572 44.0278 25.735 43.8501C29.1128 43.6723 32.295 42.3923 35.2817 40.0101C37.9839 37.8767 40.0461 35.2812 41.4683 32.2234C42.8905 29.1301 43.3705 26.2323 42.9083 23.5301C42.4461 21.0056 41.6994 18.7301 40.6683 16.7034C39.6372 14.6767 38.375 12.9878 36.8817 11.6367C35.4239 10.2501 33.7528 9.20117 31.8683 8.49006C29.3439 7.49451 26.7305 7.15673 24.0283 7.47673C21.3617 7.79673 18.9794 8.72117 16.8817 10.2501C13.575 12.5967 11.1572 15.2278 9.62832 18.1434C8.09943 21.0234 7.45943 24.0456 7.70832 27.2101C7.92165 29.8767 8.73943 32.4367 10.1617 34.8901C11.5839 37.3078 13.415 39.2812 15.655 40.8101Z" fill="#E41B23"/>
</svg>
