<svg width="64" height="64" viewBox="0 0 64 64" fill="none" xmlns="http://www.w3.org/2000/svg">
<path d="M48.8533 26.24L47.3599 25.3333C45.4399 28.4622 43.2888 31.6267 40.9066 34.8267C38.5599 38.0267 36.7821 40.2667 35.5733 41.5467C35.0044 41.0844 34.0799 40.32 32.7999 39.2533C31.5199 38.1867 30.2044 37.1022 28.8533 36C27.5377 34.8622 26.4888 34.0089 25.7066 33.44C29.6177 29.8489 32.6399 26.9689 34.7733 24.8C36.9066 22.5956 38.5244 20.7289 39.6266 19.2L38.2399 18.1867L36.7999 17.2267C34.8799 19.9644 29.9021 24.9956 21.8666 32.32L20.2666 33.76L22.0266 34.9867C23.0577 35.6978 24.3199 36.7111 25.8133 38.0267C27.3066 39.3067 28.6044 40.4622 29.7066 41.4933C30.8088 42.4889 31.9288 43.3778 33.0666 44.16C34.2044 44.9422 35.0755 45.3333 35.6799 45.3333C36.2488 45.3689 36.9777 45.0133 37.8666 44.2667C38.791 43.4844 39.7155 42.5244 40.6399 41.3867C41.5999 40.2489 42.6666 38.8267 43.8399 37.12C45.0488 35.4133 46.1333 33.7956 47.0933 32.2667C48.0888 30.7378 49.1733 29.0311 50.3466 27.1467L48.8533 26.24ZM24.3199 35.4667L22.9866 34.3467C17.9733 40.1778 12.0888 46.88 5.33325 54.4533L6.61325 55.5733L7.89325 56.7467C14.6488 49.1733 20.551 42.4533 25.5999 36.5867L24.3199 35.4667ZM24.9066 41.44L24.0533 40.8C20.9244 44.9244 18.791 49.5289 17.6533 54.6133L17.2799 56.4267L19.0399 55.8933C24.6933 54.1156 28.871 51.0044 31.5733 46.56L30.6666 45.9733L29.7599 45.44C28.6577 47.2178 27.3599 48.7289 25.8666 49.9733C24.3733 51.2178 22.5066 52.2844 20.2666 53.1733C21.4399 49.0844 23.271 45.3867 25.7599 42.08L24.9066 41.44ZM34.1333 11.7333L30.6133 12.48L33.4399 14.7733C36.391 17.1556 43.0044 22.6667 53.2799 31.3067L55.3599 33.0667L56.0533 30.4533C56.9421 27.0044 57.4933 23.3422 57.7066 19.4667C57.9199 15.5556 57.831 12.3022 57.4399 9.70667L57.2266 8L55.5199 8.21333C46.311 9.45778 39.1821 10.6311 34.1333 11.7333ZM38.3999 14.3467C42.4533 13.5644 47.7155 12.7467 54.1866 11.8933C54.5777 16.9067 54.2933 21.9022 53.3333 26.88C46.5777 21.1911 41.5999 17.0133 38.3999 14.3467Z" fill="#E41B23"/>
</svg>
