<svg width="60" height="47" viewBox="0 0 60 47" fill="none" xmlns="http://www.w3.org/2000/svg">
<path d="M5.7436 24.4557C7.57633 24.4641 9.15716 25.1756 10.4861 26.5903C10.6991 26.1739 10.9571 25.7913 11.2601 25.4422C11.5632 25.0932 11.8832 24.806 12.2201 24.5806C12.5683 24.3215 12.939 24.1073 13.3323 23.938C13.7255 23.7687 14.1358 23.6613 14.563 23.6157C15.0351 23.5475 15.5017 23.5524 15.9628 23.6304C17.6609 23.8189 19.0002 24.6376 19.9806 26.0865C20.9722 27.5017 21.3516 29.2382 21.1187 31.2962C20.7301 34.5012 19.6722 37.4656 17.9448 40.1892C16.2175 42.9128 14.0734 45.0862 11.5123 46.7092C11.0517 46.9686 10.602 46.9693 10.1631 46.7113C7.86715 45.2757 5.63732 42.963 3.4736 39.7731C1.29869 36.617 0.215174 33.9539 0.223058 31.7839C0.230768 29.5014 0.728351 27.7185 1.71581 26.4352C2.7482 25.1294 4.0908 24.4695 5.7436 24.4557ZM2.70225 31.7632C2.72725 33.3822 3.61877 35.4947 5.37682 38.1005C7.12367 40.74 8.94826 42.7498 10.8506 44.1298C12.9397 42.6874 14.6683 40.8071 16.0364 38.4887C17.4383 36.1816 18.3002 33.6954 18.6222 31.0302C18.7886 29.6245 18.5845 28.4892 18.0097 27.6243C17.4461 26.7257 16.6583 26.2209 15.6462 26.1101C14.7128 25.9878 13.9037 26.2814 13.2189 26.9908C12.5791 27.6777 12.249 28.6733 12.2285 29.9776C12.1843 30.4499 11.9768 30.7931 11.6061 31.0073C11.2691 31.2327 10.8981 31.2783 10.4932 31.144C10.0994 30.9759 9.84591 30.6671 9.73278 30.2175C9.50651 29.3184 9.01061 28.5546 8.24506 27.9261C7.47952 27.2977 6.6526 26.9673 5.7643 26.9349C4.81987 26.9589 4.08405 27.3704 3.55683 28.1695C3.04081 28.9349 2.75595 30.1328 2.70225 31.7632ZM39.237 1.73663C40.7449 2.49887 41.989 3.60444 42.9695 5.05335C43.9499 6.50227 44.5595 8.10917 44.7984 9.87406C46.7081 8.74673 48.6524 8.19279 50.6313 8.21221C52.6439 8.24283 54.427 8.85284 55.9805 10.0423C58.0968 11.6806 59.2359 13.95 59.3978 16.8506C59.5709 19.7175 58.71 22.8221 56.815 26.1644C54.662 29.9456 51.7771 32.9409 48.16 35.1502C44.5767 37.3708 39.1605 39.4705 31.9114 41.4494C31.5068 41.5399 31.1245 41.5068 30.7644 41.3499C30.4044 41.1931 30.1341 40.9349 29.9537 40.5754C26.559 33.8682 24.3744 28.0867 23.3999 23.2309C22.4366 18.3414 22.7447 13.9672 24.324 10.1081C25.9931 6.09157 28.1982 3.33908 30.9394 1.85067C33.6917 0.328513 36.4576 0.2905 39.237 1.73663ZM53.9776 12.6933C52.728 11.717 51.2377 11.3539 49.5065 11.6039C47.7754 11.854 46.1689 12.6885 44.6869 14.1075C44.4636 15.1197 44.139 16.0984 43.7132 17.0436C43.534 17.4711 43.2309 17.7639 42.8039 17.922C42.3768 18.0801 41.9496 18.0695 41.522 17.8902C41.2295 17.7558 40.9931 17.565 40.8128 17.3179C40.6663 17.082 40.5647 16.8236 40.508 16.5426C40.4963 16.239 40.5577 15.941 40.6921 15.6484C41.6782 13.4656 41.866 11.3178 41.2556 9.20492C40.6789 7.10325 39.496 5.58719 37.7068 4.65673C35.8839 3.71509 34.0344 3.81352 32.1585 4.95203C30.2826 6.09055 28.6949 8.22368 27.3955 11.3514C26.1074 14.5579 25.8771 18.3024 26.7045 22.5849C27.5319 26.8675 29.4007 31.9636 32.3107 37.8733C38.6718 36.0869 43.3913 34.2244 46.469 32.2857C49.5805 30.3582 52.067 27.774 53.9285 24.5329C55.4085 21.8771 56.1188 19.5092 56.0594 17.4292C56.0449 15.3267 55.3509 13.748 53.9776 12.6933ZM15.3757 3.88176C16.1075 4.49903 16.581 5.33032 16.7962 6.37565C18.1785 5.93501 19.399 6.26481 20.4576 7.36505C21.2796 8.16208 21.669 9.13405 21.6258 10.281C21.6164 11.4391 21.1627 12.5248 20.2648 13.5381C19.2881 14.5628 18.193 15.2672 16.9793 15.6514C15.7655 16.0356 14.276 16.1784 12.5106 16.08C12.1395 16.0693 11.5154 16.0309 10.6383 15.9648C10.4584 15.9426 10.2953 15.926 10.1491 15.915C9.72177 15.8482 9.44033 15.6237 9.30482 15.2416C8.66134 13.5673 8.36059 11.7632 8.40257 9.82921C8.4783 7.90642 8.89763 6.41599 9.66056 5.3579C10.5358 4.18721 11.4847 3.47177 12.5075 3.21158C13.5303 2.95139 14.4863 3.17478 15.3757 3.88176ZM11.3321 6.5865C10.8385 7.28437 10.5591 8.35295 10.4938 9.79224C10.4735 11.209 10.6556 12.5804 11.0399 13.9066C11.7708 13.9617 12.3049 13.9889 12.6422 13.9884C14.0703 14.0874 15.262 13.9956 16.2173 13.713C17.1726 13.4305 18.0038 12.9007 18.7109 12.1238C19.2497 11.5158 19.5242 10.9139 19.5346 10.3179C19.5786 9.7332 19.3923 9.2219 18.9756 8.78405C18.7166 8.54833 18.4297 8.39699 18.1148 8.33001C17.8448 8.24048 17.5525 8.27466 17.2379 8.43256C16.9234 8.59046 16.6145 8.84392 16.3115 9.19294C15.9525 9.71071 15.4917 9.80137 14.929 9.46493C14.4112 9.10593 14.3037 8.63949 14.6063 8.06559C14.8081 7.683 14.8412 7.24444 14.7055 6.74993C14.6147 6.23286 14.3949 5.82281 14.0458 5.51977C13.2465 4.88012 12.342 5.23569 11.3321 6.5865Z" fill="#E41B23"/>
</svg>
