<svg width="64" height="64" viewBox="0 0 64 64" fill="none" xmlns="http://www.w3.org/2000/svg">
<path d="M9.40935 38.4346C8.37415 35.0285 8.107 31.5054 8.6079 27.8656C9.10881 24.2257 10.3277 21.0032 12.2645 18.1982C14.5352 14.8922 17.6241 12.4712 21.5312 10.9351C25.4716 9.36561 30.0799 8.81461 35.356 9.28212C38.7956 9.58266 41.9846 10.8015 44.9233 12.9387C47.8619 15.0759 50.1994 17.8308 51.9359 21.2036C53.7725 24.7433 54.6574 28.6169 54.5907 32.8245C54.5239 36.9987 53.4887 41.1061 51.4851 45.1467C50.3831 47.3172 48.7468 49.204 46.5762 50.8069C44.4057 52.4097 41.9012 53.5952 39.0627 54.3633C36.2577 55.1313 33.3691 55.4151 30.3971 55.2148C25.3547 54.8808 20.9635 53.2613 17.2234 50.356C13.4833 47.4508 10.8787 43.477 9.40935 38.4346ZM12.4148 37.533C13.7171 41.9409 15.9712 45.3971 19.1769 47.9016C22.3827 50.4061 26.1895 51.8087 30.5975 52.1092C34.5379 52.3763 38.1945 51.7252 41.5672 50.1557C44.9733 48.5862 47.3443 46.449 48.68 43.7441C50.4833 40.1377 51.4016 36.4978 51.435 32.8245C51.5018 29.1178 50.7337 25.7117 49.1308 22.6061C47.6615 19.7009 45.6746 17.3466 43.1701 15.5434C40.6656 13.7068 37.9774 12.6549 35.1056 12.3877C30.3637 11.9536 26.2897 12.4044 22.8836 13.7401C19.4775 15.0425 16.7893 17.1296 14.8191 20.0014C13.1494 22.4057 12.0975 25.1941 11.6634 28.3665C11.2627 31.5054 11.5131 34.5609 12.4148 37.533ZM46.977 29.0176C47.4445 29.5853 47.5446 31.1047 47.2775 33.5758C47.0103 36.047 46.5929 37.4829 46.0252 37.8836C45.4576 38.2509 42.5857 38.3344 37.4097 38.134C37.6435 41.44 37.6769 43.8276 37.5099 45.2969C37.3763 46.7329 36.9589 47.5844 36.2577 47.8515C35.5898 48.1187 34.037 48.1855 31.5993 48.0519C29.1616 47.9517 27.7423 47.7013 27.3416 47.3005C27.0745 47.0334 26.8741 46.2653 26.7405 44.9964C26.607 43.7274 26.4901 41.4233 26.3899 38.084C21.5813 38.1507 18.7929 38.1841 18.0249 38.1841C17.2568 38.1841 16.7225 37.8168 16.422 37.0822C16.1548 36.3141 15.9879 35.0618 15.9211 33.3254C15.8543 30.6873 16.0379 29.0677 16.4721 28.4666C16.7726 28.0325 17.6074 27.7487 18.9766 27.6151C20.3791 27.4815 22.8502 27.4148 26.3899 27.4148C26.5235 21.5709 26.7906 18.3317 27.1913 17.6973C27.3583 17.3633 27.6255 17.1296 27.9928 16.996C28.3935 16.8624 28.9111 16.7789 29.5456 16.7456C30.1801 16.7122 30.9481 16.7122 31.8497 16.7456C34.1205 16.8123 35.5063 16.9793 36.0072 17.2465C36.5415 17.5136 36.842 18.3317 36.9088 19.7009C36.9756 21.0366 36.9088 23.6246 36.7085 27.4648C40.2482 27.6652 42.7527 27.8656 44.222 28.0659C45.7247 28.2663 46.643 28.5835 46.977 29.0176ZM44.9733 30.5704C44.5058 30.4703 43.8547 30.3701 43.0198 30.2699C41.2834 30.1029 38.7455 29.936 35.4061 29.769C35.1056 29.769 34.8384 29.6521 34.6047 29.4184C34.4043 29.1512 34.3041 28.8674 34.3041 28.5668C34.4711 25.2275 34.5546 22.7063 34.5546 21.0032C34.5546 20.2686 34.5379 19.7009 34.5045 19.3002C34.3709 19.2668 34.2207 19.2501 34.0537 19.2501C33.319 19.1499 32.551 19.0998 31.7496 19.0998C30.8479 19.0664 30.1133 19.0664 29.5456 19.0998C29.412 19.0998 29.2784 19.1165 29.1449 19.1499C29.1449 19.2167 29.1449 19.2835 29.1449 19.3502C29.0781 19.8177 29.0113 20.4689 28.9445 21.3038C28.8443 23.0068 28.7608 25.4445 28.6941 28.6169C28.6941 28.9509 28.5772 29.2347 28.3434 29.4684C28.1097 29.6688 27.8425 29.769 27.542 29.769C24.3362 29.769 21.8985 29.8024 20.2288 29.8692C19.4274 29.936 18.8096 30.0027 18.3755 30.0695C18.3755 30.2365 18.3588 30.4536 18.3254 30.7207C18.2586 31.5221 18.2419 32.3737 18.2753 33.2753C18.3087 34.2771 18.3922 35.0618 18.5258 35.6295C18.5258 35.6963 18.5424 35.7631 18.5758 35.8299C19.8448 35.8299 22.8335 35.7965 27.542 35.7297C27.8425 35.7297 28.1097 35.8466 28.3434 36.0803C28.5772 36.2807 28.6941 36.5479 28.6941 36.8818C28.7942 39.9206 28.8944 42.2247 28.9946 43.7942C29.0614 44.5623 29.1115 45.1467 29.1449 45.5474C29.2784 45.5474 29.412 45.5641 29.5456 45.5975C30.1801 45.6643 30.9481 45.6977 31.8497 45.6977C33.2523 45.7644 34.3375 45.7644 35.1056 45.6977C35.1724 45.3303 35.2225 44.7793 35.2559 44.0447C35.2893 42.4418 35.1891 40.0876 34.9553 36.982C34.9219 36.6146 35.0221 36.3141 35.2559 36.0803C35.523 35.8132 35.8235 35.6963 36.1575 35.7297C39.0627 35.8633 41.2667 35.9301 42.7694 35.9301C43.504 35.9301 44.0717 35.9134 44.4724 35.88C44.5058 35.88 44.5225 35.88 44.5225 35.88C44.5559 35.7464 44.5893 35.6128 44.6227 35.4793C44.7563 34.8782 44.8565 34.1602 44.9233 33.3254C45.0234 32.4572 45.0735 31.7058 45.0735 31.0713C45.0735 30.9044 45.0568 30.7374 45.0234 30.5704C45.0234 30.5704 45.0067 30.5704 44.9733 30.5704Z" fill="#E41B23"/>
</svg>
