<svg width="64" height="64" viewBox="0 0 64 64" fill="none" xmlns="http://www.w3.org/2000/svg">
<path d="M36.3078 19.5005C45.1904 19.6341 49.8655 19.8177 50.333 20.0515C50.7003 20.2185 50.9174 20.3854 50.9842 20.5524C51.0843 20.686 51.1678 21.0199 51.2346 21.5542C51.3014 21.8214 51.3515 22.1887 51.3849 22.6562C51.4517 23.5244 51.5185 24.7099 51.5852 26.2126C51.7188 29.2848 51.8357 32.7911 51.9359 36.7315C52.0695 43.7107 52.0528 48.2022 51.8858 50.2058C51.7522 52.2428 51.3014 53.3948 50.5334 53.662C49.6985 53.9959 42.3019 54.046 28.3434 53.8123C27.8759 53.6787 27.5921 53.5785 27.4919 53.5117C27.3917 53.4449 27.2581 53.3114 27.0912 53.111C26.991 52.944 26.9242 52.7938 26.8908 52.6602C26.8574 52.56 26.824 52.4431 26.7906 52.3096C26.7906 52.2094 26.7739 52.0591 26.7405 51.8587C26.7405 51.5916 26.7405 51.1909 26.7405 50.6566C26.7405 49.9887 26.7572 48.8199 26.7906 47.1503V47.1002C26.8574 45.4305 26.8908 44.2951 26.8908 43.6941C26.8908 43.5939 26.8908 43.4937 26.8908 43.3935C25.2211 43.1931 23.4513 43.2098 21.5813 43.4436C21.5813 43.5104 21.5813 43.5939 21.5813 43.6941C21.5813 44.3619 21.6146 45.4973 21.6814 47.1002V47.2505C21.7148 48.9201 21.7315 50.0722 21.7315 50.7067C21.7315 51.241 21.7148 51.6584 21.6814 51.9589C21.6814 52.1593 21.6647 52.3429 21.6313 52.5099C21.5646 52.7103 21.4811 52.8772 21.3809 53.0108C21.0803 53.5451 20.6128 53.8123 19.9784 53.8123C19.9116 53.8123 19.8281 53.8123 19.7279 53.8123C16.6557 53.7455 14.8358 53.6787 14.2681 53.6119C13.7338 53.5785 13.3498 53.4282 13.116 53.1611C13.0826 53.1277 13.0492 53.0943 13.0158 53.0609C12.6819 52.727 12.4815 51.625 12.4148 49.755C12.348 47.8849 12.348 41.8574 12.4148 31.6724C12.4481 29.2347 12.4648 26.5131 12.4648 23.5077C12.5316 15.7604 12.565 11.8033 12.565 11.6364C12.565 11.2356 12.6819 10.9017 12.9157 10.6346C13.1828 10.334 13.5 10.1504 13.8674 10.0836C15.2031 9.8832 18.0749 9.78302 22.4829 9.78302C26.9242 9.78302 31.0149 9.8832 34.755 10.0836C35.0221 10.0836 35.2726 10.167 35.5063 10.334C35.7401 10.4676 35.907 10.6513 36.0072 10.885C36.1408 11.1188 36.2076 11.3692 36.2076 11.6364C36.2076 12.4378 36.2243 13.3895 36.2577 14.4915C36.2577 14.8254 36.2577 15.3764 36.2577 16.1445C36.2911 17.5804 36.3078 18.6991 36.3078 19.5005ZM48.68 50.6566C48.7468 49.8551 48.7969 48.7198 48.8303 47.2505C48.8971 44.5122 48.8804 41.0393 48.7802 36.8317C48.7134 32.8913 48.6132 29.4017 48.4797 26.3629C48.3795 24.8935 48.296 23.7582 48.2292 22.9567V22.9066C48.1624 22.9066 48.0956 22.9066 48.0288 22.9066C47.194 22.8732 46.0252 22.8399 44.5225 22.8065C41.6507 22.7397 38.3781 22.6729 34.7049 22.6061C34.2708 22.6061 33.9034 22.4558 33.6029 22.1553C33.3023 21.8547 33.1521 21.4874 33.1521 21.0533C33.1521 19.8177 33.1521 18.1982 33.1521 16.1946C33.1187 15.3931 33.102 14.8254 33.102 14.4915C33.102 13.9906 33.102 13.5398 33.102 13.1391C25.722 12.8385 19.9116 12.8051 15.6706 13.0389L15.6205 23.5578C15.5871 26.5632 15.5704 29.2681 15.5704 31.6724C15.537 37.5831 15.5203 42.1913 15.5203 45.4973C15.5203 47.5009 15.537 49.037 15.5704 50.1056C15.5704 50.2392 15.5704 50.3894 15.5704 50.5564C15.6706 50.5564 15.7875 50.5564 15.9211 50.5564C16.5889 50.5898 17.4906 50.6232 18.6259 50.6566C18.5925 50.0555 18.5591 48.9535 18.5258 47.3506V47.2004C18.4924 45.5307 18.4757 44.3619 18.4757 43.6941C18.4757 43.1598 18.4924 42.7423 18.5258 42.4418C18.5258 42.208 18.5424 42.0077 18.5758 41.8407C18.6426 41.6737 18.7094 41.5235 18.7762 41.3899C19.01 40.9558 19.3773 40.6886 19.8782 40.5885C21.1137 40.2879 22.5664 40.1377 24.236 40.1377C25.9057 40.1377 27.4084 40.2879 28.7441 40.5885C29.3452 40.722 29.7292 41.0894 29.8962 41.6904C29.9296 41.7906 29.9463 41.9075 29.9463 42.0411C29.9797 42.1413 29.9964 42.2915 29.9964 42.4919C29.9964 42.759 29.9964 43.1598 29.9964 43.6941C29.9964 44.3285 29.9797 45.4806 29.9463 47.1503C29.9129 48.8533 29.8962 50.0221 29.8962 50.6566C29.8962 50.69 29.8962 50.7067 29.8962 50.7067C38.0776 50.8069 44.3389 50.8235 48.68 50.7568C48.68 50.7234 48.68 50.69 48.68 50.6566ZM27.1913 15.343C27.5921 15.4432 27.8425 15.6937 27.9427 16.0944C28.1765 16.996 28.2933 18.1815 28.2933 19.6508C28.2933 21.1201 28.1598 22.2054 27.8926 22.9066C27.759 23.2406 27.5086 23.4409 27.1413 23.5077C26.44 23.6079 25.7387 23.6747 25.0375 23.7081C24.3362 23.7415 23.6683 23.7582 23.0339 23.7582C22.4328 23.7582 21.8985 23.7248 21.431 23.658C20.9635 23.5578 20.6295 23.4409 20.4292 23.3074C20.2288 23.1738 20.1119 22.9734 20.0785 22.7063C19.7446 20.8029 19.7446 18.6323 20.0785 16.1946C20.1453 15.6937 20.4292 15.4098 20.9301 15.343C23.4012 15.0091 25.4883 15.0091 27.1913 15.343ZM21.9319 17.1964C21.7315 18.866 21.7315 20.3854 21.9319 21.7546C22.2992 21.788 22.75 21.8047 23.2843 21.8047C24.2527 21.8047 25.2378 21.7546 26.2396 21.6544C26.4066 20.3854 26.3732 18.8994 26.1395 17.1964C24.9373 17.0294 23.5348 17.0294 21.9319 17.1964ZM39.0627 35.0285C38.7956 35.0285 38.5618 34.945 38.3614 34.778C38.1945 34.5776 38.0943 34.3606 38.0609 34.1268C37.8605 31.4554 37.7771 29.602 37.8105 28.5668C37.8772 27.4982 38.1277 26.8304 38.5618 26.5632C38.6954 26.463 38.8624 26.413 39.0627 26.413C41.0663 26.413 42.6525 26.4797 43.8213 26.6133C44.3222 26.6467 44.773 26.6968 45.1737 26.7636C45.708 26.8638 45.9752 27.1977 45.9752 27.7654V34.0267C45.9752 34.2938 45.875 34.5276 45.6746 34.7279C45.5076 34.9283 45.2906 35.0285 45.0234 35.0285H39.0627ZM44.0216 33.0749V28.6169C43.8881 28.5835 43.7545 28.5668 43.6209 28.5668C42.5857 28.4333 41.3168 28.3665 39.8141 28.3665C39.8141 28.6002 39.8141 28.8841 39.8141 29.218C39.8141 30.1196 39.8642 31.4053 39.9643 33.0749H44.0216ZM20.88 27.1142C21.7482 26.9472 22.9003 26.8638 24.3362 26.8638C25.8055 26.8638 27.0077 26.9472 27.9427 27.1142C28.477 27.2144 28.7441 27.5316 28.7441 28.0659V34.2771C28.7441 34.4441 28.7107 34.5943 28.644 34.7279C28.5772 34.8615 28.477 34.9784 28.3434 35.0785C28.2098 35.1787 28.0763 35.2288 27.9427 35.2288C26.2396 35.496 24.0023 35.496 21.2306 35.2288C20.7297 35.1954 20.4459 34.9116 20.3791 34.3773C20.0118 31.1715 19.9116 29.0176 20.0785 27.9157C20.1453 27.4481 20.4125 27.181 20.88 27.1142ZM26.7906 28.9175C25.1543 28.7505 23.5348 28.7505 21.9319 28.9175C21.8985 29.8859 21.9987 31.3719 22.2324 33.3755C24.0357 33.5091 25.5551 33.5258 26.7906 33.4256V28.9175ZM38.8624 38.8353C39.6304 38.7017 40.6489 38.6349 41.9178 38.6349C43.1868 38.6349 44.2721 38.7017 45.1737 38.8353C45.6412 38.9021 45.9084 39.1859 45.9752 39.6868C46.1421 41.056 46.1421 43.1931 45.9752 46.0984C45.9752 46.2653 45.9251 46.4156 45.8249 46.5492C45.7247 46.6828 45.6078 46.7996 45.4743 46.8998C45.3407 46.9666 45.1737 47 44.9733 47H39.3633C39.0961 47 38.8624 46.9165 38.662 46.7495C38.495 46.5492 38.3948 46.3321 38.3614 46.0984C38.1611 42.6922 38.0609 40.5885 38.0609 39.787C38.0609 39.2527 38.3281 38.9355 38.8624 38.8353ZM44.1218 40.6886C42.7193 40.5551 41.3669 40.5384 40.0645 40.6386C40.0979 41.5736 40.1647 43.0429 40.2649 45.0465H44.0717C44.1719 43.2098 44.1886 41.7572 44.1218 40.6886ZM33.2022 21.0533C33.2022 20.8529 33.269 20.6693 33.4025 20.5023C33.5695 20.3353 33.7532 20.2519 33.9535 20.2519C34.1873 20.2519 34.3709 20.3353 34.5045 20.5023C34.6715 20.6693 34.755 20.8529 34.755 21.0533C34.755 30.0027 34.8217 40.4215 34.9553 52.3096C34.9553 52.5433 34.8718 52.727 34.7049 52.8605C34.5713 53.0275 34.3876 53.111 34.1539 53.111C33.9535 53.111 33.7699 53.0275 33.6029 52.8605C33.4693 52.727 33.4025 52.5433 33.4025 52.3096C33.269 40.4215 33.2022 30.0027 33.2022 21.0533Z" fill="#E41B23"/>
</svg>
