<svg width="65" height="64" viewBox="0 0 65 64" fill="none" xmlns="http://www.w3.org/2000/svg">
<path d="M27.3107 31.9473C26.5288 31.9473 25.8535 31.6718 25.2848 31.1207C24.7161 30.5695 24.4317 29.9029 24.4317 29.1207C24.4317 28.3384 24.7161 27.6629 25.2848 27.094C25.8535 26.5251 26.5288 26.2407 27.3107 26.2407C28.0926 26.2407 28.768 26.5251 29.3366 27.094C29.9053 27.6629 30.1897 28.3384 30.1897 29.1207C30.1897 29.9029 29.9053 30.5695 29.3366 31.1207C28.768 31.6718 28.0926 31.9473 27.3107 31.9473ZM38.8532 31.9473C38.0535 31.9473 37.3693 31.6718 36.8006 31.1207C36.2319 30.5695 35.9476 29.9029 35.9476 29.1207C35.9476 28.3384 36.2319 27.6629 36.8006 27.094C37.3693 26.5251 38.0535 26.2407 38.8532 26.2407C39.6529 26.2407 40.3282 26.5251 40.8791 27.094C41.43 27.6629 41.7055 28.3384 41.7055 29.1207C41.7055 29.9029 41.43 30.5695 40.8791 31.1207C40.3282 31.6718 39.6529 31.9473 38.8532 31.9473ZM34.1349 50.614C33.7439 50.614 33.3174 50.5784 32.8554 50.5073C31.7535 50.3651 30.7672 50.1784 29.8964 49.9473C29.0256 49.7162 28.1282 49.3607 27.2041 48.8807C26.28 48.4007 25.5158 47.814 24.9116 47.1207C24.3073 46.4273 23.8097 45.5118 23.4188 44.374C23.0278 43.2362 22.8323 41.9207 22.8323 40.4273C22.8323 40.0007 22.9923 39.6273 23.3122 39.3073C23.632 38.9873 24.0052 38.8273 24.4317 38.8273C24.8583 38.8273 25.2315 38.9873 25.5513 39.3073C25.8712 39.6273 26.0312 40.0007 26.0312 40.4273C26.0312 42.6318 26.5643 44.2407 27.6306 45.254C28.6969 46.2673 30.5806 46.9695 33.2819 47.3607C34.8813 47.574 36.2852 47.1829 37.4937 46.1873C39.1286 44.8362 40.0172 42.8984 40.1594 40.374C40.1594 39.9118 40.3282 39.5384 40.6659 39.254C41.0035 38.9695 41.3856 38.8362 41.8121 38.854C42.2386 38.8718 42.6029 39.0407 42.9051 39.3607C43.2072 39.6807 43.3405 40.0718 43.3049 40.534C43.2338 42.1695 42.8606 43.7073 42.1853 45.1473C41.51 46.5873 40.6214 47.7518 39.5196 48.6407C37.9557 49.9562 36.1608 50.614 34.1349 50.614ZM34.4015 58.6673H26.6709H16.9145C16.7012 58.6673 16.4346 58.614 16.1148 58.5073C13.6979 57.6895 12.4894 56.0184 12.4894 53.494V36.8007H11.2099C9.11285 36.8007 7.63783 35.9118 6.78481 34.134C5.8607 32.2851 6.07396 30.5429 7.42458 28.9073C7.74446 28.4807 8.17097 28.0184 8.70411 27.5207C16.3813 19.8051 22.9567 13.2273 28.4303 7.78732C29.1056 7.11176 29.6743 6.59621 30.1363 6.24065C30.9894 5.63621 31.9135 5.33398 32.9087 5.33398C33.9039 5.33398 34.828 5.63621 35.681 6.24065C36.072 6.5251 36.4807 6.88065 36.9072 7.30732C37.6181 8.01843 38.9865 9.36954 41.0124 11.3607C41.3678 10.5073 41.9454 9.81398 42.7451 9.28065C43.5448 8.74732 44.4245 8.48065 45.3842 8.48065H47.4634H48.2631C49.7559 8.48065 50.9644 8.94287 51.8885 9.86732C52.8126 10.7918 53.2746 12.0184 53.2746 13.5473V16.054C53.2746 19.4318 53.2924 21.974 53.3279 23.6807L56.5801 26.934L57.3265 27.6807C58.4639 28.8184 59.1747 29.9207 59.4591 30.9873L59.5124 31.2007C59.5835 31.734 59.5657 32.2851 59.4591 32.854V32.9607C59.4235 33.0318 59.4057 33.1029 59.4057 33.174C58.6238 35.5918 56.9711 36.8007 54.4475 36.8007H53.2746V40.6407V53.7607C53.2746 54.8629 52.9725 55.8318 52.3683 56.6673C51.7641 57.5029 50.9466 58.0984 49.9158 58.454L49.436 58.6673H49.0628H44.9576H34.4015ZM26.6709 55.3073H44.9576H48.7429C48.7785 55.2718 48.814 55.254 48.8496 55.254C49.596 55.0407 49.9692 54.5429 49.9692 53.7607V40.6407V33.4407H54.4475C54.9807 33.4407 55.3628 33.3607 55.5938 33.2007C55.8248 33.0407 56.0292 32.694 56.2069 32.1607V31.7873C56.0647 31.3251 55.656 30.7562 54.9807 30.0807L54.2343 29.334L50.7156 25.814C50.218 25.2807 49.9692 24.6584 49.9692 23.9473V16.054V13.5473C49.9692 12.4095 49.4005 11.8407 48.2631 11.8407H47.4634H45.4375C45.011 11.8407 44.6555 11.9829 44.3712 12.2673C44.0868 12.5518 43.9447 12.9073 43.9447 13.334V14.4007V18.774L40.9591 16.054L40.6392 15.734L38.7732 13.8673L34.5614 9.65398C34.2771 9.36954 34.0105 9.13843 33.7617 8.96065C33.193 8.56954 32.6421 8.56954 32.109 8.96065C31.7891 9.20954 31.3448 9.60065 30.7761 10.134L11.0499 29.8673C10.6234 30.294 10.2858 30.6673 10.037 30.9873C9.57491 31.5207 9.48605 32.0895 9.77039 32.694C10.0192 33.1918 10.499 33.4407 11.2099 33.4407H13.2358H15.8482V53.494C15.8482 54.0629 15.9282 54.4629 16.0881 54.694C16.248 54.9251 16.5946 55.1295 17.1277 55.3073H26.6709Z" fill="#E41B23"/>
</svg>
