<svg width="64" height="64" viewBox="0 0 64 64" fill="none" xmlns="http://www.w3.org/2000/svg">
<path d="M29.9964 17.0461C29.9964 16.278 30.0131 15.51 30.0465 14.7419C30.0465 14.3078 30.1968 13.9405 30.4973 13.64C30.8312 13.3394 31.1986 13.1892 31.5993 13.1892C32.0334 13.1892 32.4007 13.3561 32.7013 13.6901C33.0018 13.9906 33.1521 14.3579 33.1521 14.792C33.1187 15.5601 33.102 16.3114 33.102 17.0461C37.9774 17.0127 42.7861 16.7956 47.528 16.3949C47.9621 16.3615 48.3461 16.4784 48.68 16.7456C49.014 17.0127 49.1976 17.3633 49.231 17.7974C49.2644 18.2316 49.1308 18.6156 48.8303 18.9495C48.5631 19.2835 48.2125 19.4671 47.7784 19.5005C47.5446 19.5339 47.2942 19.5506 47.027 19.5506C47.9621 21.1869 49.231 24.5095 50.8339 29.5185L51.6353 29.5686C51.8357 29.5686 52.0194 29.6187 52.1863 29.7189C52.3867 29.7857 52.5537 29.8859 52.6872 30.0194C52.8208 30.153 52.921 30.32 52.9878 30.5203C53.088 30.7207 53.138 30.9211 53.138 31.1214C53.138 33.5925 52.4368 35.5294 51.0343 36.9319C49.6317 38.3344 47.5947 39.0357 44.9233 39.0357C42.2518 39.0023 40.0812 38.1674 38.4115 36.5312C36.7419 34.8949 35.907 32.8579 35.907 30.4202C35.907 29.9527 36.074 29.5686 36.4079 29.2681C36.7419 28.9675 37.1259 28.834 37.56 28.8674L39.213 28.9175C40.6155 24.5095 41.7509 21.4874 42.6191 19.8511C39.4467 20.0515 36.2577 20.1517 33.0519 20.1517C32.8515 32.4405 32.9684 41.5569 33.4025 47.5009C33.4025 47.768 33.3524 48.0185 33.2523 48.2523C35.3894 48.1855 37.5266 48.0352 39.6638 47.8014C40.0645 47.7347 40.4318 47.8348 40.7658 48.102C41.1331 48.3691 41.3335 48.7198 41.3669 49.1539C41.4003 49.421 41.3669 49.6882 41.2667 49.9553C41.1665 50.2225 40.9995 50.4395 40.7658 50.6065C40.532 50.7735 40.2816 50.8736 40.0144 50.907C34.2374 51.5749 28.3768 51.5749 22.4328 50.907C21.9987 50.8402 21.648 50.6399 21.3809 50.3059C21.1137 49.972 20.9969 49.588 21.0303 49.1539C21.097 48.7198 21.2974 48.3691 21.6313 48.102C21.9653 47.8348 22.3493 47.7347 22.7834 47.8014C25.3547 48.0686 27.8926 48.2189 30.3971 48.2523C30.3303 48.0853 30.2802 47.9183 30.2469 47.7514C29.8127 41.7071 29.6959 32.5073 29.8962 20.1517C26.824 20.1517 23.7852 20.0682 20.7798 19.9012C20.9134 20.2018 21.047 20.5357 21.1805 20.903C21.815 22.5393 22.4829 24.9436 23.1841 28.116L24.0858 28.0659C24.3195 28.0659 24.5366 28.0993 24.7369 28.1661C24.9373 28.2329 25.1043 28.3498 25.2378 28.5167C25.4048 28.6503 25.5217 28.8173 25.5885 29.0176C25.6886 29.218 25.7387 29.4184 25.7387 29.6187C25.7387 32.357 25.0208 34.5276 23.5849 36.1304C22.1489 37.6999 20.0952 38.3845 17.4238 38.1841C12.014 37.7834 9.30917 35.162 9.30917 30.32C9.30917 30.0528 9.37596 29.8024 9.50953 29.5686C9.6431 29.3349 9.81007 29.1512 10.0104 29.0176C10.2442 28.8507 10.4946 28.7672 10.7618 28.7672L11.9639 28.7171C13.7004 24.2758 15.1029 21.2203 16.1715 19.5506C16.0046 19.5506 15.8543 19.5506 15.7207 19.5506C15.5871 19.5172 15.487 19.5005 15.4202 19.5005C14.9861 19.4671 14.6187 19.2835 14.3182 18.9495C14.051 18.6156 13.9342 18.2316 13.9676 17.7974C14.0343 17.3633 14.2347 17.0127 14.5686 16.7456C14.9026 16.4784 15.2866 16.3615 15.7207 16.3949C15.7875 16.3949 15.8877 16.3949 16.0212 16.3949C16.255 16.4283 16.5221 16.4617 16.8227 16.4951C17.7911 16.5619 18.8597 16.6287 20.0285 16.6955C23.301 16.8958 26.6237 17.0127 29.9964 17.0461ZM21.0804 28.2162C20.4125 25.311 19.7947 23.107 19.227 21.6043C18.9599 20.8362 18.7094 20.2686 18.4757 19.9012C18.0416 20.4021 17.524 21.2537 16.9229 22.4558C16.1882 23.9919 15.3033 26.0289 14.2681 28.5668L21.0804 28.2162ZM22.4328 31.422C22.2992 31.422 22.1823 31.3886 22.0822 31.3218L12.565 31.8227C12.7654 32.8579 13.2496 33.6259 14.0176 34.1268C14.8191 34.6277 16.0212 34.945 17.6241 35.0785C20.3624 35.2789 21.9653 34.06 22.4328 31.422ZM48.5798 29.4184C47.5446 26.1792 46.6597 23.7081 45.9251 22.005C45.5243 21.1368 45.1904 20.4856 44.9233 20.0515C44.6227 20.4856 44.2888 21.1368 43.9215 22.005C43.1868 23.6413 42.3353 25.9788 41.3669 29.0176L48.5798 29.4184ZM49.8822 32.574L39.2631 32.0731C39.4968 32.8412 39.8642 33.5091 40.3651 34.0767C40.866 34.611 41.5004 35.0452 42.2685 35.3791C43.0699 35.713 43.9549 35.88 44.9233 35.88C47.7951 35.9134 49.4481 34.8114 49.8822 32.574Z" fill="#E41B23"/>
</svg>
