<svg width="250" height="250" viewBox="0 0 250 250" fill="none" xmlns="http://www.w3.org/2000/svg">
<path d="M96.875 201.167C92.7083 203.528 88.6806 205.681 84.7917 207.625C82.9861 208.458 81.25 209.292 79.5833 210.125C74.4444 212.486 70.3472 214.222 67.2917 215.333C64.2361 216.444 61.25 217.139 58.3333 217.417C55.5556 217.694 53.4722 217.208 52.0833 215.958C49.3056 214.292 47.7778 211.514 47.5 207.625C47.3611 203.736 48.2639 198.806 50.2083 192.833C52.2917 187 55.625 179.153 60.2083 169.292C48.2639 156.097 42.2917 137.208 42.2917 112.625C42.2917 88.5972 49.9306 69.0139 65.2083 53.875C80.625 38.7361 100.556 31.1667 125 31.1667C154.444 31.1667 176.597 38.9444 191.458 54.5C206.458 69.9167 213.056 93.3889 211.25 124.917C210.694 135.889 208.611 146.028 205 155.333C201.528 164.5 196.736 172.486 190.625 179.292C184.514 185.958 177.292 191.514 168.958 195.958C158.403 201.375 146.944 204.431 134.583 205.125C122.222 205.819 110.486 204.083 99.375 199.917C98.6806 200.333 97.8472 200.75 96.875 201.167ZM61.6667 203.458C64.8611 202.347 69.0278 200.611 74.1667 198.25C75.6944 197.556 77.2917 196.792 78.9583 195.958C82.7083 194.014 86.5972 191.931 90.625 189.708C92.0139 189.014 93.2639 188.389 94.375 187.833C94.9306 187.417 95.3472 187.139 95.625 187C97.5694 185.889 99.5139 185.75 101.458 186.583C107.847 189.361 114.583 191.097 121.667 191.792C128.889 192.486 136.042 192.208 143.125 190.958C150.208 189.708 156.806 187.486 162.917 184.292C173.472 178.875 181.806 171.097 187.917 160.958C194.028 150.681 197.5 138.389 198.333 124.083C199.306 105.611 197.083 90.4028 191.667 78.4583C186.389 66.5139 178.194 57.8333 167.083 52.4167C156.111 47 142.083 44.2916 125 44.2916C104.167 44.2916 87.3611 50.6111 74.5833 63.25C61.8056 75.75 55.4167 92.2083 55.4167 112.625C55.4167 120.403 55.9722 127.347 57.0833 133.458C58.1944 139.569 60 145.125 62.5 150.125C65.1389 155.125 68.4722 159.5 72.5 163.25C74.7222 165.472 75.1389 167.972 73.75 170.75C67.9167 183.389 64.0278 193.111 62.0833 199.917C61.6667 201.306 61.3194 202.556 61.0417 203.667C61.3194 203.528 61.5278 203.458 61.6667 203.458ZM146.25 95.125C143.889 95.125 141.875 94.3611 140.208 92.8333C138.681 91.1667 137.917 89.2222 137.917 87C137.917 85.6111 138.264 84.2917 138.958 83.0417C139.792 81.7917 140.833 80.8194 142.083 80.125C143.333 79.2917 144.722 78.875 146.25 78.875C148.472 78.875 150.347 79.7083 151.875 81.375C153.542 82.9028 154.375 84.7778 154.375 87C154.375 88.5278 153.958 89.9167 153.125 91.1667C152.431 92.4167 151.458 93.3889 150.208 94.0833C148.958 94.7778 147.639 95.125 146.25 95.125ZM116.042 92.8333C114.514 94.3611 112.639 95.125 110.417 95.125C108.194 95.125 106.25 94.3611 104.583 92.8333C103.056 91.1667 102.292 89.2222 102.292 87C102.292 84.7778 103.056 82.9028 104.583 81.375C106.25 79.7083 108.194 78.875 110.417 78.875C112.639 78.875 114.514 79.7083 116.042 81.375C117.708 82.9028 118.542 84.7778 118.542 87C118.542 89.2222 117.708 91.1667 116.042 92.8333ZM81.0417 118.042C81.0417 116.653 81.5278 115.472 82.5 114.5C83.4722 113.528 84.5833 113.042 85.8333 113.042C87.2222 113.042 88.4028 113.528 89.375 114.5C90.3472 115.472 90.8333 116.653 90.8333 118.042C90.8333 128.458 93.8194 136.792 99.7917 143.042C105.903 149.153 114.306 152.208 125 152.208C136.25 152.208 145.556 148.944 152.917 142.417C160.278 135.889 163.958 127.764 163.958 118.042C163.958 116.653 164.444 115.472 165.417 114.5C166.389 113.528 167.5 113.042 168.75 113.042C170.139 113.042 171.319 113.528 172.292 114.5C173.264 115.472 173.75 116.653 173.75 118.042C173.75 130.542 169.097 141.028 159.792 149.5C150.625 157.833 139.028 162 125 162C111.528 162 100.833 157.972 92.9167 149.917C85 141.722 81.0417 131.097 81.0417 118.042Z" fill="#E41B23"/>
</svg>
