<svg width="1920" height="350" viewBox="0 0 1920 350" fill="none" xmlns="http://www.w3.org/2000/svg">
<path d="M98.6409 324.48C98.6409 324.434 98.6409 324.387 98.6409 324.341C98.6409 323.553 98.7104 322.857 98.8496 322.254C99.0119 321.628 99.2321 321.06 99.5104 320.55C99.7886 320.04 100.16 319.484 100.623 318.881C100.67 318.834 100.739 318.753 100.832 318.637C100.925 318.521 100.983 318.44 101.006 318.394C101.725 317.536 102.235 316.748 102.536 316.029C102.838 315.31 103.035 314.371 103.127 313.212C103.243 311.079 102.606 309.351 101.215 308.03C99.8234 306.685 98.0033 305.978 95.7542 305.908C93.5283 305.839 91.6735 306.43 90.1895 307.682C88.7056 308.934 87.9521 310.615 87.9289 312.725C87.9289 313.907 88.0448 314.812 88.2767 315.438C88.5086 316.04 88.9723 316.724 89.6679 317.49L89.7026 317.524C90.5837 318.475 91.1981 319.402 91.5459 320.307C91.8937 321.211 92.0676 322.417 92.0676 323.924C92.0676 324.016 92.056 324.098 92.0328 324.167C92.0097 324.283 91.9981 324.364 91.9981 324.411C92.5777 324.828 93.5747 325.048 94.9891 325.071C95.2905 320.017 94.3746 317.165 92.2415 316.516C92.1488 316.493 92.0676 316.458 91.9981 316.411C91.9285 316.342 91.8705 316.272 91.8242 316.203C91.801 316.11 91.7778 316.017 91.7546 315.925C91.7546 315.832 91.7662 315.739 91.7894 315.646C91.8589 315.484 91.9749 315.356 92.1372 315.264C92.2995 315.171 92.4734 315.159 92.6589 315.229C93.6791 315.53 94.4906 316.156 95.0934 317.107C95.7426 315.832 96.6469 315.02 97.8062 314.672C97.9917 314.626 98.1656 314.649 98.3279 314.742C98.4902 314.812 98.5945 314.939 98.6409 315.125C98.7104 315.31 98.6988 315.484 98.6061 315.646C98.5134 315.809 98.3742 315.913 98.1888 315.959C97.6787 316.122 97.2033 316.469 96.7628 317.003C96.3455 317.513 96.0556 318.104 95.8933 318.776C95.8933 318.823 95.8817 318.858 95.8585 318.881C96.3223 320.457 96.4846 322.498 96.3455 325.002C97.041 324.932 97.6555 324.816 98.1888 324.654C98.3511 324.608 98.5018 324.55 98.6409 324.48ZM97.6671 326.463C96.9715 326.602 96.1947 326.671 95.3369 326.671C94.5022 326.694 93.7486 326.648 93.0762 326.532C93.0298 327.112 93.053 327.726 93.1458 328.375C93.1921 328.7 93.2617 328.978 93.3544 329.21C93.3544 329.233 93.3544 329.257 93.3544 329.28C93.7718 329.512 94.3862 329.639 95.1977 329.662C96.0093 329.685 96.7048 329.558 97.2845 329.28C97.4236 329.141 97.5279 328.746 97.5975 328.097C97.6207 327.773 97.6439 327.402 97.6671 326.984C97.6671 326.868 97.6671 326.729 97.6671 326.567V326.463ZM108.692 302.43C107.301 303.242 106.188 304.053 105.353 304.865C105.284 304.934 105.203 304.992 105.11 305.039C105.04 305.062 104.959 305.073 104.866 305.073C104.797 305.05 104.716 305.027 104.623 305.004C104.53 304.958 104.461 304.911 104.414 304.865C104.321 304.772 104.252 304.668 104.206 304.552C104.182 304.436 104.182 304.32 104.206 304.204C104.252 304.088 104.321 303.984 104.414 303.891C105.318 303.01 106.524 302.129 108.031 301.248C108.101 301.201 108.182 301.178 108.275 301.178C108.367 301.155 108.449 301.155 108.518 301.178C108.611 301.201 108.692 301.248 108.762 301.317C108.831 301.364 108.889 301.422 108.936 301.491C109.051 301.654 109.075 301.827 109.005 302.013C108.959 302.198 108.854 302.337 108.692 302.43ZM79.1645 316.238C80.0456 315.797 80.8339 315.38 81.5295 314.985C81.6918 314.893 81.8541 314.881 82.0164 314.951C82.2019 314.997 82.341 315.101 82.4338 315.264C82.5265 315.426 82.5381 315.6 82.4686 315.785C82.4222 315.971 82.3179 316.098 82.1556 316.168C81.46 316.562 80.6601 316.991 79.7558 317.455C79.5935 317.548 79.4196 317.571 79.2341 317.524C79.0718 317.455 78.9443 317.339 78.8515 317.177C78.7588 317.014 78.7356 316.84 78.782 316.655C78.8515 316.469 78.9791 316.33 79.1645 316.238ZM107.023 316.133C107.834 316.226 108.75 316.701 109.77 317.559C109.909 317.675 109.979 317.837 109.979 318.046C110.002 318.232 109.956 318.394 109.84 318.533C109.724 318.672 109.562 318.753 109.353 318.776C109.167 318.776 109.005 318.718 108.866 318.603C108.078 317.93 107.405 317.559 106.849 317.49C106.663 317.466 106.513 317.385 106.397 317.246C106.281 317.107 106.234 316.945 106.258 316.759C106.281 316.551 106.362 316.388 106.501 316.272C106.663 316.156 106.837 316.11 107.023 316.133ZM80.6253 303.995C80.5093 303.949 80.405 303.891 80.3123 303.821C80.2195 303.729 80.1615 303.624 80.1384 303.508C80.1152 303.392 80.1152 303.277 80.1384 303.161C80.1615 303.045 80.2079 302.94 80.2775 302.848C80.3702 302.755 80.4746 302.697 80.5905 302.674C80.7064 302.651 80.8339 302.651 80.9731 302.674C82.6425 303.091 84.0568 303.775 85.2161 304.726C85.3784 304.842 85.4712 304.992 85.4944 305.178C85.5175 305.363 85.4712 305.526 85.3552 305.665C85.2625 305.757 85.1582 305.827 85.0422 305.873C84.9495 305.92 84.8336 305.931 84.6944 305.908C84.5785 305.885 84.4742 305.839 84.3814 305.769C83.3612 304.958 82.1092 304.366 80.6253 303.995ZM102.501 320.376C101.945 321.072 101.562 321.698 101.354 322.254C101.145 322.788 101.041 323.495 101.041 324.376C101.041 325.326 100.704 326.115 100.032 326.741C100.032 326.834 100.032 326.926 100.032 327.019C100.032 327.529 100.009 327.97 99.9625 328.341C99.8002 329.848 99.3249 330.845 98.5365 331.332L98.467 331.366C97.4236 331.9 96.2063 332.12 94.8152 332.027C93.4472 331.958 92.4038 331.61 91.685 330.984C91.3373 330.706 91.0706 330.114 90.8851 329.21C90.6996 328.329 90.6301 327.425 90.6765 326.497C89.7954 325.848 89.4592 324.956 89.6679 323.819C89.6679 323.008 89.6099 322.347 89.494 321.837C89.378 321.304 89.2041 320.852 88.9723 320.481C88.7404 320.086 88.3926 319.634 87.9289 319.124L87.8941 319.089C87.013 318.116 86.3986 317.188 86.0508 316.307C85.7262 315.426 85.5639 314.232 85.5639 312.725C85.5871 309.896 86.5725 307.636 88.5201 305.943C90.491 304.25 92.9255 303.439 95.8238 303.508C98.722 303.601 101.099 304.552 102.953 306.36C104.808 308.169 105.666 310.511 105.527 313.386C105.388 314.823 105.121 316.017 104.727 316.968C104.333 317.895 103.719 318.881 102.884 319.924C102.838 319.947 102.768 320.028 102.675 320.168C102.606 320.26 102.548 320.33 102.501 320.376ZM96.1368 298.639C96.16 299.891 96.16 300.807 96.1368 301.387C96.1368 301.572 96.0672 301.735 95.9281 301.874C95.789 301.99 95.6267 302.048 95.4412 302.048C95.2557 302.048 95.0934 301.978 94.9543 301.839C94.8384 301.7 94.7804 301.538 94.7804 301.352C94.8036 300.772 94.8036 299.88 94.7804 298.674C94.7804 298.489 94.8384 298.338 94.9543 298.222C95.0934 298.083 95.2557 298.002 95.4412 297.979C95.5571 297.979 95.6731 298.013 95.789 298.083C95.9049 298.129 95.9861 298.21 96.0324 298.326C96.102 298.419 96.1368 298.523 96.1368 298.639Z" fill="white" fill-opacity="0.3"/>
<path opacity="0.72" d="M120.952 93.0343C120.912 93.0487 120.872 93.0631 120.833 93.0776C120.159 93.3229 119.542 93.4799 118.983 93.5486C118.397 93.6047 117.843 93.5931 117.32 93.5139C116.798 93.4348 116.206 93.2907 115.546 93.0818C115.492 93.0566 115.401 93.0224 115.273 92.9792C115.145 92.9359 115.058 92.9116 115.011 92.9062C114.054 92.5586 113.221 92.3678 112.512 92.3337C111.804 92.2997 110.94 92.4234 109.919 92.7049C108.059 93.2697 106.781 94.3526 106.083 95.9535C105.366 97.5617 105.328 99.3382 105.969 101.283C106.602 103.208 107.685 104.61 109.217 105.489C110.75 106.369 112.422 106.49 114.233 105.853C115.245 105.485 115.982 105.104 116.445 104.711C116.888 104.325 117.329 103.716 117.767 102.883L117.785 102.842C118.324 101.793 118.926 100.979 119.591 100.4C120.256 99.8214 121.233 99.2975 122.522 98.8284C122.601 98.7995 122.674 98.7842 122.741 98.7824C122.847 98.7661 122.92 98.7508 122.96 98.7363C123.136 98.1108 123.014 97.1896 122.594 95.973C118.178 97.2884 116.024 98.9592 116.133 100.985C116.142 101.072 116.137 101.152 116.119 101.226C116.082 101.307 116.04 101.378 115.995 101.44C115.923 101.488 115.851 101.537 115.779 101.586C115.699 101.615 115.617 101.634 115.53 101.643C115.37 101.634 115.224 101.574 115.095 101.464C114.965 101.354 114.901 101.209 114.902 101.029C114.843 100.063 115.125 99.174 115.751 98.3626C114.458 98.2043 113.483 97.6837 112.825 96.8006C112.727 96.6564 112.693 96.5005 112.722 96.3328C112.731 96.1724 112.807 96.0435 112.951 95.9461C113.088 95.8289 113.241 95.7847 113.408 95.8134C113.576 95.8422 113.709 95.9287 113.806 96.0729C114.103 96.4586 114.549 96.7568 115.142 96.9675C115.708 97.1657 116.304 97.2295 116.929 97.159C116.969 97.1446 117.002 97.1436 117.029 97.1563C118.233 96.269 119.928 95.4952 122.112 94.8348C121.836 94.2616 121.546 93.7723 121.241 93.3668C121.151 93.2424 121.054 93.1316 120.952 93.0343ZM122.95 93.25C123.285 93.8015 123.587 94.4441 123.854 95.1776C124.133 95.8842 124.328 96.543 124.438 97.1541C124.948 97.0133 125.467 96.8023 125.993 96.5209C126.256 96.3802 126.472 96.2341 126.642 96.0827C126.661 96.0754 126.681 96.0682 126.701 96.061C126.769 95.632 126.687 95.0669 126.455 94.3657C126.222 93.6645 125.896 93.1094 125.478 92.7003C125.316 92.6247 124.946 92.6581 124.369 92.8007C124.085 92.8819 123.76 92.9776 123.396 93.0876C123.297 93.1237 123.178 93.167 123.039 93.2175L122.95 93.25ZM98.9679 91.3021C100.095 92.2391 101.135 92.9382 102.089 93.3994C102.17 93.4373 102.245 93.4886 102.313 93.5535C102.355 93.6058 102.39 93.6715 102.419 93.7509C102.421 93.8176 102.426 93.8942 102.435 93.9807C102.424 94.0744 102.406 94.1483 102.381 94.2024C102.331 94.3106 102.263 94.4026 102.178 94.4783C102.087 94.5342 101.987 94.5703 101.881 94.5865C101.767 94.583 101.657 94.556 101.548 94.5055C100.514 94.0065 99.3849 93.2497 98.1624 92.2352C98.1011 92.1901 98.056 92.128 98.0272 92.0487C97.9785 91.9766 97.9532 91.9072 97.9514 91.8405C97.9424 91.7539 97.9567 91.6701 97.9946 91.589C98.0126 91.5151 98.0441 91.4475 98.0892 91.3862C98.1919 91.2365 98.3333 91.1626 98.5136 91.1643C98.6867 91.1462 98.8381 91.1922 98.9679 91.3021ZM119.965 112.254C119.314 111.638 118.712 111.094 118.158 110.622C118.028 110.512 117.968 110.377 117.977 110.216C117.959 110.043 118.005 109.892 118.115 109.762C118.225 109.632 118.37 109.568 118.55 109.57C118.723 109.552 118.865 109.601 118.975 109.718C119.528 110.19 120.144 110.741 120.822 111.37C120.952 111.48 121.026 111.621 121.044 111.794C121.035 111.955 120.975 112.1 120.865 112.23C120.755 112.36 120.614 112.433 120.441 112.452C120.261 112.45 120.102 112.384 119.965 112.254ZM111.205 88.4647C111.032 87.7419 111.153 86.8108 111.569 85.6714C111.625 85.5164 111.742 85.4064 111.921 85.3415C112.072 85.2639 112.225 85.253 112.38 85.3089C112.536 85.3647 112.655 85.4782 112.74 85.6495C112.798 85.8081 112.799 85.9649 112.743 86.1199C112.413 87.0033 112.305 87.6938 112.419 88.1913C112.457 88.3571 112.435 88.5112 112.352 88.6537C112.269 88.7961 112.144 88.8863 111.979 88.9242C111.793 88.9693 111.629 88.9504 111.487 88.8675C111.337 88.7648 111.243 88.6306 111.205 88.4647ZM109.042 114.815C109.038 114.929 109.021 115.036 108.99 115.137C108.94 115.245 108.869 115.327 108.777 115.383C108.685 115.439 108.586 115.475 108.479 115.492C108.373 115.508 108.269 115.501 108.169 115.47C108.06 115.42 107.978 115.348 107.922 115.257C107.866 115.165 107.827 115.056 107.803 114.929C107.641 113.372 107.785 111.95 108.237 110.662C108.286 110.488 108.386 110.361 108.537 110.284C108.689 110.206 108.842 110.195 108.997 110.251C109.105 110.302 109.197 110.369 109.273 110.454C109.341 110.519 109.387 110.614 109.411 110.74C109.427 110.847 109.42 110.95 109.389 111.051C109.013 112.176 108.897 113.431 109.042 114.815ZM116.241 91.0104C117.009 91.2697 117.663 91.402 118.204 91.4073C118.725 91.4198 119.362 91.2889 120.115 91.0146C120.928 90.7188 121.707 90.7609 122.452 91.141C122.531 91.1122 122.61 91.0833 122.69 91.0545C123.126 90.8957 123.51 90.7784 123.841 90.7026C125.181 90.3723 126.181 90.4685 126.843 90.991L126.894 91.0397C127.675 91.7659 128.242 92.7383 128.596 93.9568C128.962 95.1482 128.99 96.1487 128.678 96.9581C128.548 97.3421 128.126 97.7542 127.41 98.1942C126.714 98.6271 125.963 98.968 125.155 99.217C124.874 100.172 124.216 100.738 123.179 100.913C122.485 101.166 121.938 101.421 121.538 101.679C121.118 101.944 120.786 102.233 120.541 102.547C120.276 102.868 119.997 103.306 119.706 103.861L119.687 103.902C119.128 104.958 118.526 105.772 117.881 106.344C117.229 106.896 116.258 107.406 114.969 107.875C112.543 108.736 110.304 108.597 108.25 107.458C106.189 106.3 104.738 104.47 103.895 101.97C103.072 99.4632 103.145 97.1351 104.115 94.9861C105.084 92.837 106.819 91.3746 109.321 90.5987C110.594 90.2703 111.698 90.1266 112.633 90.1678C113.549 90.2162 114.583 90.4349 115.735 90.824C115.769 90.8564 115.86 90.8906 116.008 90.9266C116.109 90.9572 116.187 90.9852 116.241 91.0104ZM99.6339 103.218C100.697 102.809 101.481 102.524 101.983 102.363C102.142 102.305 102.302 102.314 102.465 102.39C102.607 102.473 102.707 102.594 102.765 102.752C102.823 102.911 102.814 103.071 102.738 103.234C102.655 103.376 102.534 103.476 102.376 103.534C101.873 103.694 101.11 103.972 100.086 104.367C99.9272 104.425 99.7803 104.422 99.6451 104.359C99.4828 104.284 99.3629 104.17 99.2853 104.019C99.2493 103.92 99.2429 103.81 99.2663 103.689C99.2699 103.575 99.314 103.481 99.3987 103.405C99.4564 103.317 99.5348 103.254 99.6339 103.218Z" fill="white" fill-opacity="0.3"/>
<path opacity="0.81" d="M337.543 91.0022C337.842 91.713 337.992 92.386 337.995 93.0214C337.974 93.6555 337.807 94.204 337.495 94.6671C337.172 95.1175 336.693 95.446 336.059 95.6525C335.194 95.9307 334.397 95.817 333.668 95.3114C332.927 94.8172 332.39 94.0939 332.056 93.1416C331.457 91.5402 330.606 89.1406 329.503 85.9427C328.389 82.7323 327.727 80.7202 327.518 79.9062C327.282 78.9351 327.366 78.0166 327.771 77.151C328.175 76.2853 328.824 75.6782 329.718 75.3295C330.599 74.9682 331.551 75.0001 332.571 75.4251C333.614 75.8752 335.433 76.7316 338.027 77.9941C338.156 78.0608 338.302 78.1343 338.465 78.2148C339.493 78.7241 340.69 79.3202 342.057 80.003C342.092 80.0169 342.489 80.2174 343.248 80.6048C343.995 80.9795 344.433 81.2002 344.561 81.2669C345.918 81.9132 346.792 82.6062 347.185 83.3459C347.579 84.0617 347.498 84.9084 346.944 85.886C345.953 87.6438 344.296 87.8146 341.973 86.3985C340.719 85.6377 338.249 84.3996 334.564 82.6844C336.112 87.2119 337.105 89.9845 337.543 91.0022ZM329.066 79.5379C329.253 80.3028 329.905 82.2785 331.02 85.465C332.112 88.6502 332.952 91.0253 333.541 92.5902C333.761 93.189 334.056 93.6299 334.425 93.9129C334.793 94.1959 335.173 94.2757 335.563 94.1523C336.501 93.8539 336.671 93.0059 336.073 91.6083C335.584 90.4321 334.377 87.0431 332.453 81.4413C332.339 81.1117 332.414 80.828 332.678 80.5901C332.929 80.3636 333.213 80.3246 333.529 80.4729C338.222 82.6245 341.312 84.1467 342.8 85.0396C343.508 85.4723 344.089 85.7005 344.543 85.7243C344.986 85.7355 345.327 85.5316 345.564 85.1126C345.842 84.6118 345.875 84.2061 345.664 83.8954C345.441 83.5721 344.839 83.169 343.858 82.6861C343.729 82.6195 343.286 82.3925 342.527 82.0052C341.756 81.6292 341.365 81.4349 341.353 81.4223C339.987 80.7395 338.79 80.1434 337.762 79.6341C337.609 79.5662 337.463 79.4926 337.324 79.4134C334.764 78.1647 332.969 77.3216 331.937 76.884C331.351 76.6375 330.807 76.615 330.305 76.8164C329.779 77.0165 329.407 77.3746 329.188 77.8904C328.958 78.3937 328.917 78.9429 329.066 79.5379Z" fill="white" fill-opacity="0.3"/>
<path d="M825.041 97.0171C825.127 96.0707 825.353 95.251 825.718 94.5578C826.108 93.8799 826.607 93.3791 827.214 93.0556C827.827 92.7523 828.538 92.6718 829.348 92.814C830.451 93.0121 831.253 93.5972 831.753 94.5692C832.274 95.5362 832.44 96.6346 832.252 97.8643C831.978 99.9544 831.515 103.059 830.865 107.178C830.219 111.318 829.775 113.891 829.531 114.898C829.227 116.093 828.604 117.044 827.662 117.752C826.72 118.46 825.662 118.745 824.488 118.607C823.319 118.49 822.302 117.905 821.437 116.852C820.562 115.758 819.078 113.773 816.985 110.897C816.884 110.75 816.767 110.586 816.636 110.403C815.812 109.254 814.853 107.912 813.761 106.378C813.731 106.343 813.415 105.895 812.813 105.034C812.216 104.193 811.868 103.7 811.766 103.553C810.664 102.064 810.113 100.803 810.114 99.771C810.099 98.7638 810.677 97.8886 811.846 97.1454C813.942 95.8055 815.845 96.5785 817.554 99.4645C818.479 101.019 820.451 103.796 823.47 107.796C824.405 101.972 824.929 98.3785 825.041 97.0171ZM827.634 114.404C827.872 113.462 828.306 110.935 828.937 106.82C829.592 102.721 830.052 99.6495 830.317 97.605C830.423 96.8256 830.358 96.1752 830.12 95.6538C829.883 95.1324 829.516 94.8259 829.02 94.7345C827.826 94.5161 827.15 95.3407 826.992 97.2081C826.844 98.7719 826.196 103.159 825.047 110.371C824.981 110.796 824.736 111.061 824.311 111.167C823.906 111.268 823.574 111.147 823.316 110.802C819.453 105.744 816.97 102.298 815.868 100.465C815.347 99.5845 814.846 98.9997 814.366 98.7109C813.89 98.4423 813.402 98.4673 812.901 98.7859C812.308 99.1701 812.037 99.5926 812.087 100.053C812.143 100.534 812.565 101.321 813.354 102.415C813.455 102.562 813.806 103.066 814.408 103.926C815.03 104.782 815.344 105.22 815.349 105.24C816.441 106.775 817.399 108.116 818.223 109.266C818.35 109.428 818.466 109.592 818.572 109.759C820.635 112.6 822.102 114.557 822.972 115.631C823.467 116.238 824.046 116.578 824.709 116.649C825.398 116.735 826.01 116.561 826.547 116.126C827.089 115.712 827.451 115.137 827.634 114.404Z" fill="white" fill-opacity="0.3"/>
<path opacity="0.99" d="M1258.53 140.735C1258.54 140.705 1258.55 140.674 1258.56 140.644C1258.73 140.13 1258.94 139.692 1259.16 139.329C1259.41 138.958 1259.68 138.636 1259.98 138.366C1260.27 138.096 1260.64 137.816 1261.08 137.527C1261.12 137.507 1261.18 137.47 1261.27 137.415C1261.36 137.36 1261.41 137.32 1261.44 137.295C1262.1 136.897 1262.61 136.497 1262.97 136.096C1263.32 135.695 1263.66 135.127 1263.99 134.391C1264.54 133.025 1264.51 131.755 1263.9 130.58C1263.3 129.391 1262.27 128.52 1260.82 127.97C1259.38 127.424 1258.04 127.393 1256.79 127.877C1255.54 128.36 1254.67 129.288 1254.18 130.659C1253.91 131.431 1253.79 132.047 1253.8 132.507C1253.81 132.952 1253.96 133.503 1254.24 134.158L1254.26 134.189C1254.62 135.007 1254.81 135.75 1254.84 136.418C1254.86 137.086 1254.7 137.912 1254.36 138.895C1254.34 138.956 1254.32 139.006 1254.29 139.046C1254.24 139.117 1254.22 139.167 1254.21 139.197C1254.49 139.6 1255.09 139.967 1256.01 140.3C1257.34 137.07 1257.39 135.004 1256.14 134.101C1256.09 134.065 1256.04 134.024 1256.01 133.978C1255.98 133.917 1255.95 133.859 1255.94 133.803C1255.94 133.737 1255.95 133.672 1255.96 133.606C1255.98 133.546 1256.01 133.488 1256.04 133.432C1256.12 133.342 1256.23 133.285 1256.35 133.261C1256.48 133.237 1256.6 133.268 1256.7 133.355C1257.3 133.781 1257.69 134.372 1257.87 135.128C1258.58 134.441 1259.35 134.115 1260.19 134.149C1260.32 134.16 1260.42 134.214 1260.51 134.311C1260.6 134.393 1260.64 134.5 1260.63 134.631C1260.63 134.768 1260.59 134.879 1260.49 134.964C1260.39 135.049 1260.28 135.086 1260.15 135.074C1259.78 135.065 1259.39 135.186 1258.98 135.434C1258.59 135.674 1258.27 135.994 1258.02 136.396C1258 136.427 1257.99 136.447 1257.97 136.457C1257.92 137.589 1257.57 138.957 1256.91 140.559C1257.38 140.67 1257.81 140.733 1258.19 140.747C1258.31 140.753 1258.42 140.749 1258.53 140.735ZM1257.45 141.809C1256.96 141.744 1256.44 141.615 1255.88 141.422C1255.33 141.25 1254.85 141.05 1254.44 140.823C1254.27 141.191 1254.15 141.597 1254.07 142.042C1254.02 142.264 1254.01 142.461 1254.02 142.633C1254.01 142.648 1254 142.663 1254 142.678C1254.22 142.923 1254.59 143.145 1255.12 143.342C1255.64 143.54 1256.12 143.613 1256.56 143.561C1256.69 143.502 1256.84 143.268 1257.03 142.86C1257.12 142.654 1257.22 142.417 1257.33 142.15C1257.35 142.074 1257.39 141.983 1257.42 141.877L1257.45 141.809ZM1270.04 128.607C1268.95 128.824 1268.04 129.103 1267.31 129.445C1267.25 129.475 1267.19 129.495 1267.11 129.504C1267.06 129.504 1267.01 129.493 1266.95 129.472C1266.91 129.441 1266.86 129.408 1266.8 129.372C1266.75 129.321 1266.72 129.275 1266.7 129.234C1266.66 129.153 1266.64 129.069 1266.63 128.983C1266.64 128.903 1266.67 128.827 1266.71 128.756C1266.77 128.691 1266.84 128.639 1266.92 128.599C1267.71 128.227 1268.69 127.923 1269.87 127.687C1269.93 127.673 1269.99 127.676 1270.05 127.697C1270.11 127.702 1270.17 127.72 1270.21 127.751C1270.26 127.787 1270.3 127.836 1270.33 127.897C1270.37 127.943 1270.39 127.993 1270.41 128.049C1270.45 128.181 1270.42 128.3 1270.34 128.405C1270.26 128.516 1270.16 128.583 1270.04 128.607ZM1247.67 130.982C1248.35 130.893 1248.95 130.797 1249.5 130.696C1249.62 130.672 1249.73 130.701 1249.82 130.783C1249.93 130.855 1250 130.954 1250.02 131.081C1250.05 131.208 1250.02 131.324 1249.93 131.429C1249.86 131.54 1249.76 131.6 1249.64 131.609C1249.1 131.709 1248.48 131.81 1247.78 131.909C1247.66 131.933 1247.54 131.909 1247.43 131.837C1247.34 131.755 1247.28 131.651 1247.26 131.524C1247.23 131.398 1247.26 131.279 1247.33 131.168C1247.42 131.063 1247.53 131.001 1247.67 130.982ZM1265.87 137.172C1266.38 137.415 1266.87 137.931 1267.34 138.72C1267.41 138.826 1267.42 138.948 1267.37 139.084C1267.34 139.21 1267.28 139.306 1267.17 139.37C1267.06 139.435 1266.94 139.452 1266.8 139.42C1266.68 139.378 1266.58 139.304 1266.52 139.197C1266.15 138.581 1265.8 138.188 1265.45 138.018C1265.34 137.961 1265.26 137.874 1265.21 137.757C1265.17 137.641 1265.17 137.524 1265.23 137.409C1265.29 137.278 1265.38 137.19 1265.5 137.146C1265.63 137.106 1265.75 137.115 1265.87 137.172ZM1251.37 123.323C1251.31 123.267 1251.25 123.206 1251.21 123.139C1251.17 123.058 1251.16 122.977 1251.17 122.896C1251.18 122.815 1251.2 122.74 1251.24 122.669C1251.29 122.599 1251.34 122.541 1251.41 122.496C1251.49 122.457 1251.57 122.442 1251.65 122.453C1251.73 122.464 1251.81 122.493 1251.9 122.539C1252.89 123.186 1253.66 123.95 1254.21 124.831C1254.29 124.943 1254.31 125.062 1254.29 125.188C1254.26 125.315 1254.19 125.41 1254.09 125.475C1254 125.515 1253.92 125.536 1253.83 125.541C1253.76 125.55 1253.69 125.532 1253.6 125.485C1253.53 125.444 1253.47 125.39 1253.43 125.324C1252.94 124.566 1252.26 123.899 1251.37 123.323ZM1261.97 138.925C1261.45 139.253 1261.06 139.576 1260.8 139.892C1260.54 140.193 1260.31 140.631 1260.12 141.206C1259.9 141.826 1259.51 142.265 1258.93 142.522C1258.91 142.583 1258.88 142.643 1258.86 142.704C1258.75 143.036 1258.64 143.319 1258.52 143.55C1258.08 144.497 1257.54 145.041 1256.92 145.181L1256.87 145.188C1256.07 145.302 1255.22 145.172 1254.34 144.799C1253.46 144.446 1252.86 143.985 1252.53 143.415C1252.36 143.156 1252.32 142.71 1252.4 142.078C1252.48 141.462 1252.64 140.856 1252.88 140.262C1252.45 139.64 1252.43 138.982 1252.82 138.288C1253 137.758 1253.11 137.314 1253.15 136.956C1253.2 136.582 1253.19 136.248 1253.12 135.953C1253.05 135.644 1252.93 135.271 1252.74 134.834L1252.73 134.804C1252.37 133.97 1252.18 133.227 1252.15 132.574C1252.13 131.927 1252.3 131.111 1252.64 130.128C1253.29 128.288 1254.44 127.034 1256.09 126.367C1257.75 125.706 1259.52 125.723 1261.4 126.42C1263.27 127.131 1264.61 128.285 1265.41 129.882C1266.21 131.479 1266.25 133.199 1265.51 135.044C1265.1 135.95 1264.66 136.669 1264.18 137.201C1263.72 137.717 1263.1 138.222 1262.32 138.716C1262.28 138.72 1262.22 138.758 1262.13 138.827C1262.06 138.872 1262.01 138.905 1261.97 138.925ZM1262.7 123.313C1262.43 124.136 1262.23 124.733 1262.08 125.106C1262.04 125.227 1261.96 125.317 1261.84 125.377C1261.72 125.421 1261.6 125.423 1261.48 125.381C1261.36 125.339 1261.27 125.257 1261.21 125.135C1261.16 125.019 1261.16 124.9 1261.2 124.779C1261.35 124.406 1261.55 123.823 1261.81 123.031C1261.85 122.91 1261.92 122.825 1262.02 122.776C1262.14 122.716 1262.27 122.7 1262.39 122.726C1262.47 122.752 1262.54 122.801 1262.6 122.872C1262.66 122.929 1262.7 123 1262.7 123.086C1262.72 123.162 1262.72 123.238 1262.7 123.313Z" fill="white" fill-opacity="0.3"/>
<path opacity="0.81" d="M183.12 193.807C183.848 193.263 184.574 192.9 185.299 192.716C186.03 192.559 186.705 192.593 187.323 192.818C187.93 193.059 188.442 193.512 188.859 194.178C189.423 195.088 189.521 196.032 189.15 197.009C188.797 197.997 188.123 198.817 187.129 199.47C185.47 200.611 182.969 202.268 179.628 204.44C176.276 206.628 174.164 207.958 173.294 208.429C172.251 208.976 171.177 209.142 170.072 208.926C168.967 208.71 168.088 208.141 167.435 207.219C166.771 206.314 166.536 205.218 166.731 203.93C166.948 202.61 167.409 200.287 168.113 196.961C168.152 196.795 168.195 196.608 168.24 196.398C168.529 195.078 168.87 193.539 169.261 191.783C169.266 191.738 169.383 191.227 169.609 190.25C169.824 189.289 169.952 188.725 169.992 188.56C170.344 186.825 170.887 185.628 171.62 184.968C172.326 184.314 173.317 184.164 174.593 184.52C176.884 185.151 177.552 186.997 176.595 190.055C176.083 191.706 175.372 194.882 174.461 199.584C179.195 196.523 182.082 194.598 183.12 193.807ZM172.432 206.765C173.252 206.333 175.325 205.025 178.65 202.842C181.98 200.686 184.455 199.049 186.076 197.929C186.698 197.507 187.118 197.045 187.336 196.543C187.554 196.04 187.538 195.584 187.285 195.173C186.677 194.186 185.659 194.233 184.232 195.315C183.027 196.21 179.497 198.555 173.642 202.35C173.298 202.575 172.952 202.57 172.605 202.336C172.274 202.113 172.149 201.8 172.228 201.397C173.35 195.419 174.209 191.453 174.806 189.498C175.099 188.565 175.194 187.836 175.092 187.31C174.978 186.8 174.648 186.469 174.102 186.317C173.45 186.142 172.977 186.22 172.682 186.55C172.376 186.897 172.087 187.7 171.814 188.959C171.775 189.125 171.642 189.697 171.415 190.674C171.205 191.663 171.095 192.166 171.084 192.182C170.692 193.939 170.352 195.477 170.063 196.798C170.029 196.991 169.986 197.179 169.936 197.361C169.238 200.642 168.786 202.935 168.579 204.239C168.465 204.979 168.594 205.608 168.967 206.124C169.346 206.668 169.861 206.992 170.513 207.095C171.154 207.215 171.794 207.105 172.432 206.765Z" fill="white" fill-opacity="0.3"/>
<path opacity="0.82" d="M418.718 188.384C418.704 188.426 418.691 188.469 418.677 188.511C418.443 189.231 418.173 189.845 417.867 190.354C417.533 190.878 417.164 191.331 416.758 191.714C416.353 192.097 415.849 192.495 415.247 192.908C415.191 192.937 415.103 192.99 414.984 193.069C414.865 193.147 414.788 193.204 414.753 193.239C413.842 193.809 413.143 194.378 412.654 194.945C412.166 195.511 411.708 196.31 411.279 197.341C410.54 199.254 410.61 201.021 411.488 202.64C412.359 204.281 413.811 205.466 415.844 206.197C417.856 206.921 419.725 206.931 421.451 206.228C423.177 205.525 424.364 204.214 425.011 202.295C425.362 201.215 425.524 200.355 425.498 199.715C425.465 199.095 425.245 198.333 424.837 197.428L424.815 197.386C424.293 196.257 424.007 195.228 423.958 194.299C423.908 193.37 424.107 192.218 424.554 190.842C424.582 190.757 424.617 190.687 424.658 190.63C424.714 190.531 424.749 190.46 424.762 190.418C424.357 189.865 423.512 189.368 422.228 188.927C420.453 193.453 420.443 196.328 422.198 197.554C422.276 197.603 422.34 197.659 422.389 197.721C422.432 197.806 422.465 197.886 422.486 197.964C422.48 198.055 422.474 198.147 422.467 198.238C422.44 198.323 422.402 198.404 422.353 198.482C422.241 198.61 422.098 198.692 421.922 198.728C421.746 198.765 421.584 198.724 421.435 198.605C420.593 198.027 420.038 197.215 419.77 196.168C418.799 197.14 417.732 197.613 416.571 197.586C416.388 197.573 416.236 197.501 416.115 197.368C415.987 197.256 415.93 197.109 415.943 196.926C415.934 196.736 415.996 196.58 416.129 196.46C416.262 196.339 416.42 196.285 416.603 196.298C417.117 196.301 417.654 196.124 418.215 195.768C418.747 195.426 419.187 194.972 419.535 194.407C419.548 194.364 419.569 194.336 419.597 194.322C419.642 192.745 420.099 190.834 420.969 188.589C420.313 188.446 419.717 188.369 419.182 188.359C419.02 188.354 418.866 188.362 418.718 188.384ZM420.195 186.863C420.872 186.942 421.601 187.109 422.385 187.364C423.154 187.59 423.828 187.856 424.407 188.161C424.622 187.646 424.783 187.078 424.891 186.458C424.945 186.148 424.964 185.873 424.948 185.634C424.955 185.613 424.962 185.591 424.968 185.57C424.656 185.235 424.133 184.936 423.399 184.674C422.665 184.412 421.992 184.322 421.38 184.404C421.212 184.49 421 184.819 420.744 185.391C420.626 185.681 420.495 186.012 420.35 186.387C420.316 186.492 420.274 186.619 420.226 186.768L420.195 186.863ZM403 205.534C404.511 205.206 405.768 204.795 406.771 204.302C406.855 204.259 406.946 204.23 407.044 204.215C407.115 204.215 407.192 204.228 407.277 204.256C407.334 204.298 407.401 204.343 407.479 204.391C407.55 204.461 407.599 204.524 407.628 204.58C407.685 204.693 407.718 204.809 407.726 204.928C407.712 205.041 407.678 205.147 407.622 205.246C407.546 205.338 407.451 205.412 407.339 205.47C406.252 206.006 404.89 206.452 403.252 206.81C403.175 206.831 403.094 206.829 403.01 206.801C402.918 206.795 402.844 206.771 402.787 206.729C402.709 206.68 402.649 206.614 402.606 206.53C402.556 206.467 402.521 206.397 402.499 206.319C402.441 206.137 402.472 205.971 402.59 205.822C402.688 205.667 402.824 205.571 403 205.534ZM434.055 201.687C433.12 201.828 432.276 201.975 431.524 202.129C431.349 202.165 431.197 202.128 431.069 202.016C430.914 201.919 430.818 201.782 430.781 201.607C430.745 201.431 430.786 201.269 430.904 201.12C431.002 200.964 431.135 200.879 431.304 200.864C432.056 200.71 432.913 200.556 433.876 200.401C434.052 200.364 434.218 200.395 434.373 200.492C434.501 200.604 434.583 200.747 434.619 200.923C434.656 201.099 434.625 201.264 434.528 201.42C434.41 201.569 434.252 201.658 434.055 201.687ZM408.589 193.518C407.876 193.193 407.181 192.487 406.504 191.401C406.411 191.254 406.396 191.085 406.458 190.895C406.491 190.719 406.582 190.584 406.729 190.492C406.876 190.399 407.048 190.373 407.246 190.414C407.415 190.469 407.546 190.57 407.639 190.717C408.159 191.565 408.663 192.103 409.15 192.332C409.313 192.408 409.426 192.527 409.491 192.688C409.555 192.849 409.55 193.011 409.473 193.174C409.39 193.357 409.268 193.482 409.107 193.546C408.924 193.604 408.752 193.595 408.589 193.518ZM429.09 212.431C429.182 212.508 429.26 212.592 429.324 212.683C429.381 212.795 429.403 212.908 429.39 213.02C429.376 213.133 429.342 213.239 429.287 213.338C429.231 213.437 429.158 213.518 429.067 213.582C428.954 213.64 428.842 213.662 428.729 213.648C428.617 213.635 428.5 213.597 428.38 213.535C426.98 212.659 425.891 211.615 425.115 210.403C425.001 210.249 424.961 210.084 424.995 209.907C425.029 209.731 425.119 209.597 425.266 209.504C425.378 209.447 425.494 209.414 425.614 209.406C425.712 209.392 425.822 209.415 425.942 209.478C426.041 209.533 426.122 209.607 426.186 209.698C426.877 210.741 427.845 211.652 429.09 212.431ZM413.976 190.986C414.69 190.516 415.225 190.058 415.581 189.611C415.93 189.186 416.235 188.572 416.496 187.767C416.778 186.899 417.319 186.279 418.119 185.907C418.146 185.823 418.174 185.738 418.201 185.653C418.352 185.188 418.504 184.792 418.657 184.467C419.252 183.139 419.982 182.37 420.846 182.159L420.92 182.148C422.03 181.971 423.207 182.131 424.45 182.628C425.678 183.098 426.528 183.725 426.998 184.509C427.233 184.867 427.301 185.486 427.202 186.366C427.11 187.226 426.906 188.072 426.588 188.905C427.2 189.759 427.242 190.674 426.715 191.649C426.474 192.39 426.331 193.011 426.285 193.511C426.233 194.032 426.257 194.496 426.359 194.904C426.454 195.333 426.637 195.849 426.909 196.452L426.931 196.494C427.446 197.644 427.732 198.673 427.788 199.581C427.823 200.482 427.617 201.62 427.17 202.996C426.31 205.572 424.74 207.344 422.459 208.311C420.158 209.272 417.694 209.291 415.069 208.367C412.45 207.423 410.562 205.85 409.405 203.648C408.248 201.447 408.16 199.054 409.14 196.471C409.693 195.199 410.291 194.188 410.933 193.437C411.568 192.707 412.421 191.99 413.492 191.285C413.542 191.278 413.629 191.224 413.755 191.125C413.846 191.061 413.92 191.014 413.976 190.986ZM413.338 212.72C413.689 211.57 413.96 210.734 414.154 210.211C414.209 210.042 414.32 209.914 414.489 209.829C414.65 209.764 414.815 209.759 414.985 209.814C415.154 209.869 415.282 209.981 415.367 210.149C415.432 210.311 415.437 210.476 415.382 210.645C415.189 211.168 414.924 211.983 414.587 213.091C414.532 213.26 414.435 213.38 414.294 213.452C414.126 213.537 413.954 213.563 413.778 213.53C413.672 213.495 413.576 213.429 413.491 213.331C413.399 213.254 413.349 213.156 413.341 213.037C413.305 212.931 413.304 212.826 413.338 212.72Z" fill="white" fill-opacity="0.3"/>
<path opacity="0.82" d="M698.389 151.602C698.023 150.936 697.806 150.291 697.738 149.668C697.693 149.044 697.8 148.488 698.058 148.002C698.329 147.527 698.765 147.155 699.365 146.888C700.185 146.525 700.979 146.555 701.746 146.976C702.524 147.384 703.125 148.038 703.551 148.938C704.304 150.447 705.386 152.713 706.797 155.736C708.221 158.77 709.077 160.676 709.366 161.452C709.699 162.381 709.711 163.29 709.403 164.181C709.095 165.072 708.521 165.734 707.681 166.169C706.853 166.614 705.917 166.681 704.872 166.369C703.803 166.035 701.93 165.382 699.255 164.411C699.122 164.359 698.972 164.302 698.803 164.24C697.742 163.847 696.506 163.385 695.096 162.856C695.06 162.846 694.65 162.691 693.865 162.389C693.094 162.098 692.641 161.927 692.509 161.875C691.112 161.381 690.182 160.791 689.721 160.106C689.261 159.445 689.252 158.606 689.695 157.59C690.486 155.763 692.094 155.425 694.518 156.574C695.827 157.191 698.377 158.151 702.169 159.454C700.184 155.172 698.923 152.555 698.389 151.602ZM707.886 161.973C707.624 161.242 706.781 159.372 705.358 156.361C703.959 153.349 702.89 151.106 702.151 149.632C701.873 149.067 701.539 148.665 701.148 148.425C700.757 148.186 700.377 148.147 700.007 148.308C699.117 148.697 699.038 149.547 699.768 150.856C700.37 151.959 701.903 155.159 704.367 160.456C704.513 160.767 704.469 161.053 704.235 161.314C704.011 161.562 703.737 161.629 703.412 161.516C698.587 159.89 695.399 158.715 693.848 157.993C693.108 157.641 692.515 157.477 692.067 157.501C691.631 157.535 691.318 157.77 691.128 158.206C690.907 158.726 690.917 159.127 691.156 159.41C691.408 159.704 692.04 160.038 693.052 160.41C693.185 160.462 693.644 160.639 694.428 160.941C695.223 161.23 695.627 161.38 695.639 161.392C697.05 161.921 698.286 162.382 699.347 162.775C699.503 162.826 699.654 162.883 699.799 162.947C702.438 163.908 704.286 164.55 705.343 164.873C705.944 165.054 706.48 165.02 706.951 164.771C707.447 164.52 707.775 164.13 707.936 163.602C708.11 163.084 708.094 162.542 707.886 161.973Z" fill="white" fill-opacity="0.3"/>
<path opacity="0.88" d="M1160.27 49.8707C1160.9 52.6143 1160.25 55.4088 1158.32 58.254C1156.99 60.1982 1155.1 61.3711 1152.63 61.7728C1153.02 63.1848 1152.75 64.5196 1151.83 65.7774C1153.14 66.3764 1154.27 67.2396 1155.23 68.367C1155.94 69.2372 1156.49 70.2484 1156.86 71.4004C1157.21 72.5766 1157.35 73.7743 1157.28 74.9938C1157.21 76.2507 1156.93 77.4181 1156.43 78.4959C1155.83 79.8043 1155.05 80.9199 1154.1 81.8427C1155.69 81.6509 1157.27 81.3599 1158.84 80.9699C1160.44 80.5931 1161.81 80.1698 1162.95 79.6997C1164.08 79.2537 1164.84 78.8229 1165.23 78.4071C1165.89 77.7311 1166.19 77.1078 1166.12 76.537C1166.06 75.9663 1165.62 75.5339 1164.81 75.2399C1164.45 75.1384 1164.2 74.9175 1164.04 74.5773C1163.89 74.2746 1163.87 73.9463 1163.97 73.5925C1164.1 73.252 1164.32 72.9959 1164.63 72.8241C1164.96 72.6898 1165.29 72.6854 1165.63 72.8111C1167.46 73.4445 1168.48 74.5007 1168.7 75.9798C1168.91 77.4831 1168.38 78.9053 1167.1 80.2464C1165.92 81.4562 1163.29 82.5548 1159.21 83.5422C1155.16 84.543 1151.6 84.8921 1148.55 84.5895C1148.37 84.5817 1148.19 84.5309 1148.02 84.4373C1147.11 84.4355 1146.17 84.297 1145.22 84.0219C1141.47 82.9481 1139.04 81.0544 1137.96 78.3407C1137.28 76.6074 1137.18 74.6887 1137.65 72.5845C1138.04 70.6867 1139 68.9613 1140.52 67.4082C1142.03 65.8792 1143.68 65.0294 1145.48 64.8589C1146.63 64.772 1147.73 64.7937 1148.76 64.9241C1148.77 64.8999 1148.8 64.8704 1148.86 64.8355C1150.01 63.8965 1150.24 62.8752 1149.56 61.7717C1146.32 61.3005 1143.73 59.6588 1141.78 56.8467C1140.86 55.5479 1140.46 53.9805 1140.56 52.1446C1140.62 50.3196 1141.18 48.6079 1142.22 47.0097C1143.35 45.2667 1144.83 44.0084 1146.68 43.2348C1148.51 42.4853 1150.51 42.3601 1152.66 42.8592C1154.05 43.1902 1155.29 43.7183 1156.37 44.4435C1160.32 46.6614 1163.78 49.0071 1166.76 51.4805C1169.75 53.9539 1171.52 55.9005 1172.09 57.3203C1172.35 57.9365 1172.46 58.5835 1172.43 59.2616C1172.41 59.9396 1172.24 60.5441 1171.95 61.075C1171.67 61.6434 1171.29 62.1155 1170.83 62.4911C1170.38 62.9042 1169.82 63.158 1169.13 63.2525C1168.45 63.3469 1167.74 63.2672 1167 63.0133C1166.84 62.9572 1166.7 62.8649 1166.58 62.7363C1166.45 62.6319 1166.35 62.498 1166.28 62.3346C1166.2 62.1953 1166.15 62.0386 1166.12 61.8645C1166.11 61.7037 1166.14 61.5442 1166.19 61.386C1166.29 61.1555 1166.43 60.9637 1166.61 60.8108C1166.77 60.682 1166.97 60.5853 1167.19 60.5208C1167.43 60.4938 1167.65 60.5217 1167.86 60.6046C1168.55 60.8317 1169.1 60.6637 1169.51 60.1005C1169.93 59.5749 1169.99 58.9785 1169.7 58.3115C1169.38 57.5078 1168.36 56.3095 1166.63 54.7166C1164.88 53.1479 1162.76 51.5325 1160.27 49.8707ZM1150.79 59.0451C1151.85 59.0655 1152.84 58.8729 1153.76 58.4674C1154.68 58.0618 1155.41 57.4568 1155.95 56.6523C1156.83 55.4053 1157.36 54.156 1157.55 52.9043C1157.75 51.6901 1157.64 50.6048 1157.23 49.6485C1156.8 48.7163 1156.14 47.8794 1155.26 47.1379C1154.4 46.4098 1153.32 45.907 1152.02 45.6295C1150.48 45.2799 1149.07 45.3617 1147.77 45.8748C1146.46 46.412 1145.4 47.3055 1144.58 48.5551C1144.11 49.3005 1143.76 50.0888 1143.56 50.9197C1143.35 51.7507 1143.3 52.5454 1143.42 53.3037C1143.51 54.0486 1143.73 54.6942 1144.09 55.2406C1145.63 57.4179 1147.62 58.6635 1150.07 58.9774C1150.32 58.9263 1150.56 58.9488 1150.79 59.0451ZM1153.83 77.2924C1154.36 76.1664 1154.55 74.9146 1154.39 73.5373C1154.23 72.1841 1153.78 71.0657 1153.04 70.182C1151.4 68.2353 1148.97 67.4095 1145.75 67.7047C1144.58 67.8157 1143.48 68.417 1142.43 69.5087C1141.37 70.6246 1140.71 71.85 1140.44 73.1848C1140.08 74.7502 1140.13 76.1049 1140.6 77.2488C1141.34 79.1079 1143.13 80.4502 1145.99 81.2756C1147.73 81.7697 1149.29 81.6382 1150.66 80.8812C1152.01 80.1483 1153.07 78.952 1153.83 77.2924Z" fill="white" fill-opacity="0.3"/>
<path opacity="0.83" d="M-0.375869 126.601C1.61163 125.113 4.09738 124.634 7.08138 125.164C9.12589 125.538 10.7519 126.646 11.9594 128.486C12.9595 127.67 14.1312 127.406 15.4745 127.694C15.4879 126.425 15.778 125.204 16.3449 124.031C16.7893 123.142 17.4092 122.34 18.2047 121.628C19.0245 120.918 19.9395 120.375 20.95 119.999C21.9868 119.601 23.0298 119.411 24.079 119.429C25.3486 119.443 26.5264 119.668 27.6123 120.105C26.8875 118.893 26.0856 117.723 25.2067 116.595C24.33 115.443 23.4969 114.491 22.7075 113.737C21.9423 112.986 21.3225 112.529 20.848 112.365C20.0668 112.077 19.4573 112.06 19.0195 112.315C18.5817 112.57 18.3906 113.079 18.4461 113.841C18.4913 114.163 18.4052 114.448 18.1878 114.698C17.9968 114.926 17.7405 115.062 17.4189 115.108C17.0993 115.128 16.8136 115.042 16.5617 114.849C16.3361 114.634 16.2129 114.367 16.192 114.047C16.0473 112.348 16.5315 111.144 17.6443 110.435C18.7815 109.728 20.1202 109.65 21.6606 110.2C23.0576 110.713 24.8862 112.437 27.1466 115.372C29.4091 118.283 30.9658 121.022 31.8164 123.589C31.8765 123.741 31.8991 123.901 31.8842 124.071C32.2107 124.808 32.4339 125.61 32.5536 126.476C33.0369 129.891 32.3791 132.521 30.5801 134.368C29.4269 135.538 27.9175 136.31 26.0519 136.684C24.3824 137.051 22.6483 136.9 20.8496 136.229C19.0752 135.561 17.7967 134.532 17.0139 133.144C16.5303 132.247 16.1559 131.359 15.8906 130.48C15.8664 130.478 15.8311 130.463 15.7847 130.434C14.6145 129.843 13.707 130.02 13.0622 130.966C13.8453 133.747 13.4521 136.425 11.8827 139C11.166 140.209 10.0493 141.101 8.53264 141.677C7.03807 142.279 5.45937 142.446 3.79654 142.179C1.98819 141.898 0.440554 141.152 -0.846372 139.94C-2.10904 138.729 -2.92547 137.167 -3.29565 135.253C-3.5291 134.011 -3.54745 132.824 -3.35071 131.693C-2.97848 127.717 -2.33067 124.084 -1.40728 120.792C-0.483898 117.5 0.447838 115.37 1.38792 114.401C1.79203 113.973 2.27254 113.648 2.82944 113.428C3.38634 113.208 3.93157 113.121 4.46513 113.168C5.02507 113.192 5.53907 113.323 6.00716 113.559C6.50161 113.774 6.90952 114.139 7.23087 114.656C7.55223 115.173 7.74383 115.776 7.80568 116.466C7.8172 116.614 7.79235 116.758 7.73111 116.899C7.69413 117.043 7.62182 117.171 7.5142 117.284C7.43084 117.398 7.32428 117.499 7.19452 117.586C7.0669 117.648 6.92926 117.684 6.78162 117.696C6.56123 117.701 6.3572 117.659 6.16954 117.569C6.00614 117.482 5.85804 117.359 5.72526 117.2C5.61885 117.02 5.562 116.832 5.55472 116.636C5.48863 115.994 5.1556 115.611 4.55565 115.485C3.98207 115.337 3.47898 115.501 3.04638 115.976C2.5104 116.516 1.91182 117.771 1.25065 119.741C0.613739 121.714 0.0715644 124.001 -0.375869 126.601ZM10.4238 130.955C10.0594 130.092 9.54884 129.363 8.8922 128.768C8.23554 128.173 7.48598 127.802 6.6435 127.655C5.32232 127.393 4.12333 127.41 3.04651 127.707C1.99607 127.981 1.16011 128.458 0.53864 129.137C-0.0585761 129.818 -0.497693 130.647 -0.778711 131.624C-1.05761 132.577 -1.07609 133.627 -0.834153 134.772C-0.562809 136.14 0.0118417 137.253 0.889801 138.112C1.79201 138.973 2.8937 139.509 4.19486 139.721C4.96671 139.837 5.72491 139.83 6.46947 139.7C7.21403 139.57 7.87112 139.322 8.44076 138.956C9.00827 138.615 9.44769 138.201 9.75903 137.715C10.9622 135.694 11.2517 133.642 10.6275 131.559C10.4968 131.377 10.4289 131.175 10.4238 130.955ZM24.0413 121.955C22.9436 121.933 21.8667 122.229 20.8108 122.846C19.7792 123.464 19.0401 124.23 18.5936 125.144C17.6107 127.16 17.8168 129.414 19.2116 131.907C19.7194 132.807 20.6012 133.483 21.8569 133.935C23.1368 134.389 24.3626 134.484 25.5343 134.22C26.9264 133.95 27.9992 133.421 28.7525 132.632C29.987 131.371 30.4246 129.442 30.0653 126.845C29.8373 125.261 29.1731 124.054 28.0726 123.224C26.9963 122.397 25.6526 121.974 24.0413 121.955Z" fill="white" fill-opacity="0.3"/>
<path opacity="0.75" d="M575.739 273.357C575.746 273.316 575.752 273.275 575.759 273.233C575.87 272.533 576.029 271.924 576.238 271.408C576.47 270.874 576.746 270.4 577.065 269.986C577.384 269.572 577.792 269.129 578.29 268.659C578.337 268.624 578.411 268.562 578.509 268.472C578.608 268.382 578.671 268.318 578.698 268.28C579.458 267.618 580.022 266.989 580.391 266.393C580.761 265.796 581.068 264.989 581.314 263.972C581.717 262.092 581.393 260.467 580.343 259.096C579.296 257.705 577.777 256.82 575.788 256.442C573.819 256.066 572.087 256.331 570.592 257.235C569.096 258.139 568.19 259.527 567.872 261.399C567.705 262.451 567.681 263.271 567.799 263.86C567.92 264.428 568.236 265.102 568.747 265.88L568.773 265.915C569.422 266.885 569.838 267.795 570.02 268.648C570.202 269.501 570.186 270.597 569.974 271.937C569.961 272.019 569.939 272.09 569.909 272.148C569.872 272.248 569.85 272.319 569.844 272.36C570.3 272.813 571.156 273.149 572.41 273.369C573.389 268.918 572.977 266.254 571.172 265.376C571.093 265.343 571.025 265.3 570.97 265.249C570.918 265.178 570.876 265.108 570.845 265.039C570.837 264.954 570.83 264.868 570.822 264.782C570.835 264.7 570.859 264.619 570.892 264.54C570.977 264.405 571.098 264.308 571.255 264.249C571.413 264.189 571.569 264.203 571.724 264.291C572.588 264.703 573.222 265.374 573.624 266.303C574.38 265.261 575.298 264.667 576.378 264.521C576.549 264.506 576.701 264.551 576.832 264.657C576.966 264.741 577.041 264.869 577.056 265.041C577.092 265.215 577.057 265.368 576.952 265.5C576.847 265.631 576.708 265.704 576.537 265.719C576.06 265.791 575.589 266.034 575.122 266.446C574.68 266.84 574.339 267.325 574.1 267.9C574.093 267.941 574.078 267.971 574.054 267.988C574.244 269.455 574.101 271.291 573.625 273.498C574.253 273.534 574.816 273.517 575.313 273.448C575.463 273.43 575.606 273.399 575.739 273.357ZM574.594 274.982C573.956 275.008 573.256 274.96 572.494 274.84C571.748 274.743 571.085 274.595 570.504 274.398C570.381 274.906 570.315 275.456 570.306 276.046C570.301 276.341 570.324 276.598 570.374 276.817C570.371 276.838 570.367 276.859 570.364 276.879C570.702 277.144 571.231 277.344 571.949 277.479C572.667 277.614 573.303 277.598 573.858 277.432C574.001 277.328 574.149 276.993 574.302 276.425C574.369 276.14 574.441 275.814 574.521 275.446C574.537 275.343 574.557 275.219 574.58 275.075L574.594 274.982ZM587.778 255.172C586.427 255.697 585.324 256.262 584.467 256.866C584.396 256.918 584.316 256.958 584.227 256.986C584.161 256.997 584.088 256.996 584.005 256.983C583.947 256.952 583.878 256.92 583.799 256.886C583.723 256.832 583.667 256.781 583.633 256.733C583.563 256.638 583.516 256.535 583.491 256.426C583.487 256.319 583.503 256.216 583.54 256.117C583.598 256.02 583.674 255.937 583.77 255.868C584.698 255.212 585.893 254.598 587.357 254.027C587.426 253.996 587.501 253.987 587.583 254C587.669 253.992 587.741 254.004 587.8 254.034C587.879 254.068 587.945 254.12 587.997 254.192C588.052 254.243 588.095 254.303 588.127 254.371C588.207 254.532 588.203 254.69 588.115 254.845C588.048 255.003 587.935 255.112 587.778 255.172ZM559.587 263.288C560.432 263.02 561.191 262.76 561.865 262.508C562.022 262.448 562.168 262.461 562.303 262.546C562.461 262.613 562.57 262.725 562.63 262.883C562.689 263.04 562.675 263.196 562.587 263.351C562.52 263.51 562.409 263.608 562.255 263.647C561.581 263.9 560.81 264.168 559.941 264.453C559.783 264.513 559.626 264.509 559.467 264.442C559.333 264.357 559.236 264.236 559.176 264.079C559.117 263.921 559.12 263.763 559.188 263.605C559.276 263.45 559.409 263.344 559.587 263.288ZM584.365 267.117C585.073 267.314 585.82 267.866 586.607 268.772C586.714 268.894 586.753 269.048 586.723 269.234C586.718 269.402 586.654 269.54 586.531 269.647C586.409 269.755 586.253 269.804 586.064 269.795C585.899 269.769 585.763 269.695 585.656 269.572C585.05 268.863 584.504 268.439 584.019 268.299C583.858 268.252 583.735 268.159 583.652 268.019C583.568 267.879 583.55 267.728 583.597 267.566C583.647 267.384 583.742 267.251 583.882 267.168C584.042 267.087 584.203 267.071 584.365 267.117ZM562.609 252.611C562.512 252.554 562.428 252.487 562.355 252.413C562.286 252.317 562.249 252.216 562.244 252.11C562.24 252.004 562.256 251.9 562.293 251.801C562.33 251.701 562.386 251.615 562.461 251.542C562.557 251.473 562.658 251.436 562.764 251.432C562.87 251.427 562.984 251.445 563.104 251.485C564.529 252.091 565.69 252.899 566.587 253.907C566.715 254.033 566.776 254.18 566.77 254.348C566.765 254.516 566.701 254.654 566.578 254.761C566.483 254.831 566.38 254.878 566.271 254.903C566.182 254.931 566.077 254.925 565.957 254.884C565.857 254.848 565.771 254.792 565.698 254.717C564.905 253.852 563.876 253.15 562.609 252.611ZM579.748 270.253C579.156 270.793 578.728 271.295 578.464 271.76C578.203 272.205 578.011 272.819 577.887 273.602C577.753 274.447 577.343 275.101 576.657 275.562C576.644 275.645 576.631 275.727 576.618 275.81C576.546 276.263 576.464 276.652 576.37 276.975C576.014 278.292 575.451 279.111 574.682 279.433L574.615 279.454C573.612 279.781 572.499 279.805 571.276 279.527C570.069 279.273 569.191 278.817 568.64 278.159C568.37 277.863 568.216 277.3 568.179 276.47C568.138 275.66 568.203 274.847 568.375 274.029C567.683 273.328 567.51 272.487 567.856 271.506C567.97 270.785 568.012 270.189 567.98 269.72C567.952 269.229 567.861 268.803 567.708 268.441C567.557 268.057 567.311 267.607 566.971 267.088L566.945 267.052C566.299 266.062 565.883 265.151 565.698 264.319C565.534 263.49 565.558 262.406 565.77 261.066C566.189 258.555 567.383 256.684 569.352 255.454C571.343 254.227 573.621 253.848 576.187 254.318C578.751 254.809 580.729 255.988 582.124 257.857C583.518 259.726 583.951 261.928 583.422 264.464C583.096 265.723 582.691 266.747 582.207 267.536C581.726 268.305 581.041 269.095 580.152 269.904C580.108 269.919 580.034 269.981 579.932 270.092C579.858 270.164 579.796 270.218 579.748 270.253ZM577.151 250.034C576.996 251.15 576.867 251.964 576.764 252.476C576.738 252.641 576.654 252.776 576.51 252.88C576.37 252.963 576.218 252.992 576.053 252.966C575.888 252.94 575.754 252.855 575.65 252.712C575.566 252.572 575.537 252.419 575.564 252.255C575.666 251.743 575.791 250.949 575.941 249.874C575.967 249.709 576.039 249.583 576.159 249.497C576.302 249.393 576.458 249.343 576.626 249.349C576.729 249.365 576.827 249.412 576.92 249.49C577.017 249.548 577.078 249.632 577.103 249.741C577.151 249.833 577.168 249.931 577.151 250.034Z" fill="white" fill-opacity="0.3"/>
<path opacity="0.76" d="M623.337 197.185C620.816 197.995 618.142 197.615 615.317 196.044C613.385 194.957 612.129 193.275 611.551 190.999C610.259 191.475 608.985 191.335 607.731 190.577C607.276 191.853 606.56 192.984 605.581 193.969C604.824 194.712 603.92 195.305 602.87 195.747C601.797 196.179 600.685 196.409 599.536 196.437C598.352 196.479 597.234 196.308 596.182 195.925C594.906 195.471 593.797 194.834 592.853 194.016C593.164 195.491 593.566 196.949 594.061 198.391C594.545 199.858 595.054 201.108 595.589 202.142C596.1 203.165 596.566 203.842 596.988 204.172C597.676 204.734 598.284 204.962 598.815 204.857C599.345 204.752 599.714 204.305 599.923 203.517C599.989 203.177 600.175 202.919 600.481 202.742C600.753 202.579 601.059 202.53 601.399 202.597C601.728 202.686 601.986 202.872 602.173 203.155C602.326 203.45 602.358 203.763 602.268 204.092C601.824 205.856 600.917 206.902 599.549 207.231C598.156 207.549 596.779 207.163 595.416 206.073C594.186 205.07 592.94 202.696 591.68 198.952C590.408 195.23 589.79 191.927 589.823 189.043C589.815 188.869 589.848 188.699 589.922 188.533C589.849 187.676 589.902 186.79 590.082 185.875C590.781 182.263 592.358 179.839 594.813 178.601C596.383 177.822 598.173 177.567 600.185 177.837C601.996 178.047 603.692 178.802 605.273 180.103C606.831 181.393 607.763 182.874 608.071 184.546C608.247 185.619 608.316 186.645 608.278 187.623C608.302 187.634 608.332 187.662 608.369 187.706C609.344 188.709 610.321 188.845 611.3 188.116C611.476 185.039 612.802 182.474 615.28 180.422C616.422 179.452 617.858 178.94 619.588 178.886C621.304 178.798 622.954 179.177 624.539 180.024C626.265 180.935 627.567 182.225 628.444 183.895C629.297 185.554 629.578 187.413 629.286 189.472C629.09 190.806 628.697 192.01 628.105 193.082C626.349 196.962 624.434 200.402 622.36 203.401C620.285 206.4 618.606 208.225 617.321 208.876C616.765 209.168 616.168 209.328 615.53 209.357C614.891 209.386 614.311 209.284 613.79 209.051C613.233 208.832 612.76 208.522 612.37 208.121C611.946 207.733 611.662 207.223 611.517 206.59C611.372 205.957 611.389 205.282 611.566 204.565C611.605 204.412 611.681 204.275 611.791 204.154C611.879 204.022 611.996 203.918 612.144 203.841C612.268 203.755 612.41 203.69 612.571 203.648C612.721 203.63 612.873 203.64 613.026 203.68C613.25 203.751 613.441 203.865 613.599 204.02C613.733 204.166 613.84 204.341 613.919 204.547C613.964 204.766 613.956 204.975 613.895 205.175C613.739 205.845 613.942 206.348 614.503 206.683C615.03 207.031 615.594 207.041 616.196 206.712C616.924 206.353 617.963 205.295 619.314 203.538C620.642 201.769 621.983 199.652 623.337 197.185ZM613.957 189.043C614.025 190.04 614.287 190.952 614.742 191.78C615.198 192.609 615.825 193.243 616.623 193.684C617.865 194.407 619.08 194.806 620.269 194.881C621.424 194.969 622.433 194.778 623.295 194.309C624.134 193.83 624.865 193.146 625.488 192.258C626.1 191.394 626.483 190.342 626.637 189.103C626.838 187.629 626.645 186.306 626.058 185.135C625.447 183.954 624.522 183.03 623.283 182.365C622.545 181.98 621.778 181.723 620.982 181.596C620.186 181.469 619.437 181.491 618.735 181.662C618.045 181.809 617.458 182.074 616.975 182.456C615.06 184.076 614.055 186.045 613.961 188.363C614.03 188.592 614.028 188.819 613.957 189.043ZM597.098 193.39C598.197 193.794 599.386 193.869 600.665 193.614C601.92 193.349 602.932 192.833 603.699 192.066C605.391 190.374 605.966 188.029 605.424 185.031C605.225 183.947 604.57 182.959 603.461 182.067C602.328 181.165 601.124 180.643 599.851 180.503C598.353 180.291 597.088 180.452 596.054 180.987C594.371 181.829 593.26 183.623 592.72 186.367C592.4 188.044 592.651 189.492 593.473 190.71C594.271 191.919 595.479 192.812 597.098 193.39Z" fill="white" fill-opacity="0.3"/>
<path opacity="0.88" d="M307.821 303.077C305.66 302.061 304.131 300.166 303.233 297.392C302.628 295.487 302.834 293.605 303.852 291.749C302.707 291.268 301.954 290.392 301.592 289.121C300.508 289.683 299.34 289.988 298.088 290.036C297.132 290.06 296.171 289.895 295.207 289.542C294.234 289.166 293.359 288.634 292.584 287.946C291.777 287.245 291.145 286.445 290.687 285.545C290.125 284.461 289.784 283.359 289.665 282.239C288.963 283.402 288.332 284.612 287.771 285.867C287.188 287.132 286.755 288.27 286.472 289.281C286.18 290.27 286.071 291.003 286.146 291.48C286.254 292.273 286.515 292.798 286.929 293.055C287.344 293.312 287.862 293.244 288.485 292.853C288.737 292.669 289.019 292.613 289.329 292.685C289.609 292.745 289.84 292.901 290.024 293.154C290.186 293.415 290.242 293.697 290.192 293.998C290.111 294.287 289.939 294.512 289.677 294.674C288.3 295.564 287.059 295.697 285.954 295.072C284.84 294.425 284.169 293.324 283.94 291.767C283.746 290.349 284.384 288.017 285.856 284.772C287.306 281.536 288.929 278.977 290.725 277.095C290.827 276.976 290.954 276.884 291.105 276.82C291.583 276.21 292.163 275.658 292.845 275.166C295.527 273.213 298.058 272.584 300.439 273.278C301.953 273.729 303.29 274.662 304.451 276.078C305.517 277.33 306.171 278.871 306.414 280.701C306.647 282.51 306.351 284.061 305.526 285.352C304.982 286.168 304.397 286.887 303.77 287.509C303.779 287.531 303.782 287.568 303.779 287.62C303.805 288.881 304.366 289.572 305.46 289.692C307.468 287.771 309.921 286.896 312.817 287.066C314.166 287.129 315.428 287.674 316.602 288.702C317.789 289.7 318.644 290.965 319.168 292.498C319.746 294.161 319.811 295.812 319.363 297.453C318.905 299.071 317.947 300.47 316.488 301.649C315.539 302.408 314.539 302.96 313.489 303.304C309.945 304.783 306.566 305.874 303.354 306.576C300.141 307.278 297.911 307.449 296.664 307.088C296.117 306.938 295.624 306.677 295.186 306.303C294.747 305.929 294.428 305.505 294.226 305.031C293.994 304.545 293.873 304.049 293.862 303.545C293.821 303.028 293.948 302.517 294.241 302.01C294.535 301.504 294.961 301.069 295.519 300.705C295.639 300.628 295.773 300.584 295.921 300.572C296.059 300.539 296.201 300.543 296.345 300.583C296.48 300.602 296.614 300.647 296.746 300.718C296.856 300.798 296.95 300.899 297.026 301.019C297.13 301.204 297.186 301.396 297.195 301.596C297.194 301.774 297.157 301.956 297.082 302.14C296.977 302.312 296.843 302.445 296.68 302.54C296.165 302.885 295.99 303.342 296.154 303.908C296.287 304.462 296.653 304.815 297.252 304.968C297.953 305.179 299.289 305.121 301.261 304.793C303.224 304.443 305.411 303.871 307.821 303.077ZM306.642 291.938C306.074 292.637 305.685 293.4 305.477 294.226C305.268 295.053 305.291 295.857 305.547 296.639C305.921 297.879 306.477 298.89 307.215 299.671C307.923 300.439 308.705 300.933 309.562 301.155C310.41 301.354 311.313 301.353 312.27 301.15C313.205 300.957 314.105 300.498 314.968 299.776C316.007 298.928 316.693 297.937 317.026 296.803C317.35 295.648 317.308 294.47 316.9 293.27C316.651 292.562 316.302 291.921 315.855 291.347C315.408 290.774 314.901 290.328 314.333 290.009C313.787 289.681 313.237 289.495 312.684 289.45C310.424 289.341 308.551 290.021 307.063 291.492C306.967 291.686 306.827 291.834 306.642 291.938ZM292.849 284.437C293.326 285.379 294.064 286.16 295.064 286.778C296.056 287.375 297.04 287.657 298.018 287.623C300.174 287.548 301.995 286.355 303.482 284.045C304.017 283.207 304.193 282.153 304.01 280.882C303.818 279.59 303.345 278.506 302.591 277.63C301.734 276.569 300.8 275.897 299.789 275.614C298.161 275.135 296.325 275.634 294.282 277.112C293.039 278.021 292.314 279.13 292.107 280.44C291.89 281.727 292.138 283.06 292.849 284.437Z" fill="white" fill-opacity="0.3"/>
<path d="M964.853 56.451C963.508 58.706 961.683 60.3937 959.379 61.514C956.679 62.8265 954.034 63.2173 951.443 62.6866C948.841 62.134 946.659 60.5493 944.899 57.9325C943.889 56.4699 943.241 54.8312 942.956 53.0165C942.692 51.1911 942.75 49.4675 943.128 47.8457C943.528 46.2132 944.243 44.6987 945.273 43.3023C946.304 41.906 947.543 40.8557 948.991 40.1514C952.305 38.5403 955.452 38.1768 958.432 39.061C961.413 39.9452 963.73 42.0607 965.384 45.4075C966.708 48.1285 966.922 50.941 966.028 53.8449L974.72 56.8221C975.089 56.9681 975.359 57.2166 975.53 57.5677C975.701 57.9188 975.713 58.2791 975.567 58.6485C975.454 59.0292 975.221 59.3049 974.87 59.4757C974.519 59.6464 974.153 59.6751 973.773 59.5617L964.853 56.451ZM962.985 53.6966C963.972 51.263 963.916 48.9161 962.817 46.6559C961.525 44.0552 959.759 42.4314 957.518 41.7846C955.299 41.1271 952.873 41.4385 950.24 42.7189C948.813 43.4125 947.682 44.5458 946.846 46.1189C946 47.6701 945.599 49.3845 945.644 51.262C945.71 53.1289 946.248 54.8209 947.257 56.338C948.599 58.3172 950.223 59.5084 952.128 59.9114C954.045 60.2818 956.046 59.9602 958.13 58.9466C960.105 57.9863 961.611 56.5079 962.648 54.5114C962.649 54.4022 962.667 54.2988 962.701 54.2009C962.768 54.0052 962.863 53.8371 962.985 53.6966Z" fill="white" fill-opacity="0.3"/>
<path d="M567.421 72.5197C566.221 73.3064 564.921 73.6997 563.521 73.6997C561.881 73.6997 560.488 73.2597 559.341 72.3797C558.194 71.4864 557.501 70.1864 557.261 68.4797C557.114 67.5197 557.187 66.5597 557.481 65.5997C557.787 64.6397 558.227 63.8064 558.801 63.0997C559.388 62.3931 560.101 61.8197 560.941 61.3797C561.781 60.9397 562.641 60.7197 563.521 60.7197C565.534 60.7197 567.168 61.2931 568.421 62.4397C569.674 63.5864 570.307 65.1797 570.321 67.2197C570.321 68.8731 569.754 70.3064 568.621 71.5197L572.181 75.0597C572.328 75.2197 572.401 75.4064 572.401 75.6197C572.401 75.8331 572.321 76.0131 572.161 76.1597C572.014 76.3197 571.834 76.3997 571.621 76.3997C571.408 76.3997 571.221 76.3264 571.061 76.1797L567.421 72.5197ZM567.161 70.7197C568.228 69.7597 568.761 68.5931 568.761 67.2197C568.748 65.6331 568.268 64.4131 567.321 63.5597C566.388 62.7064 565.121 62.2797 563.521 62.2797C562.654 62.2797 561.828 62.5664 561.041 63.1397C560.254 63.6997 559.648 64.4464 559.221 65.3797C558.808 66.3131 558.667 67.2731 558.801 68.2597C558.987 69.5531 559.501 70.5264 560.341 71.1797C561.194 71.8197 562.254 72.1397 563.521 72.1397C564.721 72.1397 565.814 71.7731 566.801 71.0397C566.828 70.9864 566.861 70.9397 566.901 70.8997C566.981 70.8197 567.068 70.7597 567.161 70.7197Z" fill="white" fill-opacity="0.3"/>
<path d="M685.241 305.573C684.88 307.452 684.05 309.062 682.751 310.402C681.229 311.972 679.514 312.897 677.608 313.178C675.688 313.447 673.8 312.904 671.944 311.55C670.889 310.799 670.038 309.838 669.391 308.666C668.757 307.482 668.367 306.287 668.223 305.082C668.091 303.865 668.204 302.65 668.563 301.437C668.921 300.225 669.508 299.198 670.325 298.355C672.194 296.428 674.259 295.396 676.519 295.261C678.78 295.125 680.893 295.998 682.859 297.878C684.441 299.413 685.288 301.285 685.397 303.496L692.09 303.374C692.379 303.382 692.626 303.485 692.83 303.683C693.035 303.881 693.133 304.125 693.125 304.414C693.142 304.703 693.051 304.949 692.853 305.154C692.655 305.358 692.412 305.468 692.123 305.485L685.241 305.573ZM683.276 304.151C683.347 302.239 682.726 300.646 681.411 299.371C679.88 297.912 678.266 297.239 676.571 297.353C674.888 297.455 673.304 298.271 671.819 299.803C671.014 300.633 670.521 301.69 670.34 302.975C670.146 304.248 670.298 305.522 670.795 306.796C671.305 308.058 672.094 309.083 673.163 309.871C674.574 310.893 675.982 311.305 677.387 311.107C678.792 310.884 680.082 310.167 681.258 308.954C682.371 307.805 683.035 306.418 683.249 304.793C683.222 304.718 683.209 304.643 683.207 304.567C683.205 304.417 683.228 304.278 683.276 304.151Z" fill="white" fill-opacity="0.3"/>
<path opacity="0.74" d="M453.64 317.435C452.5 317.59 451.471 317.547 450.553 317.306C449.647 317.03 448.92 316.578 448.373 315.949C447.848 315.309 447.559 314.491 447.507 313.497C447.44 312.141 447.912 311.036 448.923 310.18C449.922 309.302 451.173 308.807 452.675 308.694C455.216 308.448 459.006 308.148 464.044 307.794C469.105 307.428 472.263 307.251 473.518 307.264C475.01 307.298 476.302 307.774 477.394 308.693C478.486 309.611 479.111 310.782 479.269 312.205C479.449 313.616 479.035 314.976 478.028 316.283C476.976 317.614 475.038 319.906 472.214 323.16C472.068 323.319 471.906 323.501 471.727 323.706C470.595 324.992 469.272 326.488 467.76 328.195C467.726 328.241 467.283 328.736 466.431 329.68C465.602 330.613 465.115 331.16 464.969 331.319C463.512 333.025 462.175 334.019 460.956 334.299C459.772 334.591 458.582 334.148 457.386 332.97C455.234 330.862 455.628 328.406 458.568 325.603C460.15 324.088 462.89 321.004 466.788 316.352C459.66 316.835 455.277 317.196 453.64 317.435ZM473.451 309.638C472.275 309.613 469.174 309.789 464.147 310.167C459.131 310.51 455.381 310.804 452.896 311.049C451.948 311.135 451.198 311.389 450.647 311.812C450.097 312.234 449.835 312.75 449.862 313.361C449.93 314.829 451.087 315.403 453.334 315.08C455.219 314.829 460.574 314.398 469.396 313.789C469.916 313.751 470.296 313.968 470.537 314.441C470.767 314.892 470.714 315.316 470.377 315.714C465.461 321.651 462.071 325.52 460.208 327.32C459.311 328.174 458.757 328.925 458.547 329.571C458.36 330.205 458.522 330.774 459.035 331.279C459.65 331.874 460.222 332.078 460.752 331.893C461.304 331.697 462.118 330.984 463.194 329.756C463.34 329.596 463.838 329.044 464.69 328.1C465.531 327.133 465.962 326.643 465.984 326.632C467.497 324.925 468.82 323.429 469.952 322.143C470.108 321.949 470.271 321.767 470.439 321.597C473.229 318.388 475.139 316.124 476.169 314.805C476.751 314.055 476.994 313.279 476.897 312.477C476.812 311.641 476.439 310.966 475.78 310.451C475.143 309.925 474.367 309.654 473.451 309.638Z" fill="white" fill-opacity="0.3"/>
</svg>
