<svg width="20" height="20" viewBox="0 0 20 20" fill="none" xmlns="http://www.w3.org/2000/svg">
<path d="M3.22327 1.549C3.70327 1.229 4.20993 1.189 4.74327 1.429C5.2766 1.669 5.78993 2.14233 6.28327 2.849C6.58993 3.27567 6.8166 3.71567 6.96327 4.169C7.12327 4.62233 7.18327 4.91567 7.14327 5.049C6.98327 5.51567 6.6966 5.87567 6.28327 6.129C5.88327 6.369 5.30993 6.50233 4.56327 6.529L3.56327 6.549L4.02327 7.429C5.34327 9.989 6.80993 11.6957 8.42327 12.549C8.64993 12.669 8.8966 12.6223 9.16327 12.409C9.42993 12.1823 9.6566 11.8957 9.84327 11.549C10.0433 11.2023 10.2366 10.869 10.4233 10.549C10.6233 10.229 10.7633 10.049 10.8433 10.009C11.1233 9.929 11.5099 10.0157 12.0033 10.269C12.5099 10.509 12.9766 10.8423 13.4033 11.269C13.8299 11.6957 14.1566 12.1623 14.3833 12.669C14.6099 13.1623 14.5899 13.609 14.3233 14.009C14.0299 14.4623 13.5099 14.8623 12.7633 15.209C12.0166 15.5423 11.1499 15.7357 10.1633 15.789C9.1766 15.829 8.18993 15.5823 7.20327 15.049C6.2166 14.5023 5.3166 13.8023 4.50327 12.949C3.68993 12.0957 3.0166 11.1623 2.48327 10.149C1.94993 9.13567 1.58993 8.09567 1.40327 7.029C1.28327 6.32233 1.22993 5.66233 1.24327 5.049C1.2566 4.42233 1.42327 3.80233 1.74327 3.189C2.0766 2.57567 2.56993 2.029 3.22327 1.549ZM2.48327 0.529001C0.403265 2.07567 -0.370068 4.32233 0.163265 7.269C0.496599 9.069 1.2366 10.769 2.38327 12.369C3.52993 13.969 4.9366 15.229 6.60327 16.149C7.78993 16.7757 8.96993 17.0757 10.1433 17.049C11.3166 17.0223 12.3699 16.789 13.3033 16.349C14.2499 15.909 14.9366 15.3557 15.3633 14.689C15.7233 14.089 15.8699 13.489 15.8033 12.889C15.7366 12.2757 15.4899 11.6957 15.0633 11.149C14.6499 10.6023 14.1699 10.1357 13.6233 9.749C13.0899 9.349 12.5299 9.06233 11.9433 8.889C11.3566 8.71567 10.8633 8.69567 10.4633 8.829C9.54327 9.13567 8.90326 9.91567 8.54327 11.169C8.0366 10.8223 7.5166 10.3357 6.98327 9.709C6.46327 9.069 5.9966 8.389 5.58327 7.669C7.00993 7.389 7.92327 6.64233 8.32327 5.429C8.60327 4.57567 8.26327 3.47567 7.30327 2.129C7.0366 1.74233 6.72993 1.39567 6.38327 1.089C6.0366 0.769 5.64993 0.502333 5.22327 0.289C4.80993 0.0623331 4.3566 -0.0310002 3.86327 0.00900011C3.38327 0.0356664 2.92327 0.209 2.48327 0.529001ZM3.76327 2.309L3.54327 1.989C3.30327 2.17567 3.18327 2.449 3.18327 2.809C3.1966 3.169 3.30327 3.529 3.50327 3.889C3.70327 4.249 3.94993 4.59567 4.24327 4.929C4.5366 5.249 4.84993 5.46233 5.18327 5.569C5.52993 5.67567 5.84993 5.649 6.14327 5.489L5.92327 5.169L5.72327 4.849C5.6966 4.86233 5.5966 4.809 5.42327 4.689C5.24993 4.569 5.04993 4.41567 4.82327 4.229C4.60993 4.04233 4.3966 3.83567 4.18327 3.609C3.98327 3.369 3.8366 3.14233 3.74327 2.929C3.66327 2.70233 3.66993 2.49567 3.76327 2.309ZM10.9633 11.009L10.6633 10.749C10.5433 10.8957 10.4699 11.069 10.4433 11.269C10.4166 11.4557 10.4366 11.649 10.5033 11.849C10.5699 12.0357 10.6699 12.229 10.8033 12.429C10.9366 12.629 11.0966 12.8157 11.2833 12.989C11.4699 13.1623 11.6699 13.3223 11.8833 13.469C12.0966 13.6023 12.3099 13.709 12.5233 13.789C12.7499 13.8557 12.9766 13.889 13.2033 13.889C13.4299 13.889 13.6299 13.8423 13.8033 13.749L13.6233 13.389L13.4433 13.049C13.1766 13.1823 12.8433 13.1223 12.4433 12.869C12.0566 12.6023 11.7433 12.2957 11.5033 11.949C11.2633 11.589 11.1833 11.3557 11.2633 11.249L10.9633 11.009ZM13.6633 15.849L13.3033 15.989C13.5833 16.749 13.9433 17.3357 14.3833 17.749C14.8366 18.1757 15.3299 18.429 15.8633 18.509C16.5433 19.3757 17.6166 19.7557 19.0833 19.649L19.0233 18.869C18.1566 18.9357 17.4499 18.789 16.9033 18.429C17.3033 18.309 17.6433 18.089 17.9233 17.769C18.2166 17.4623 18.3433 17.1157 18.3033 16.729C18.2766 16.3423 18.0366 16.0157 17.5833 15.749C17.0766 15.4957 16.6499 15.4423 16.3033 15.589C15.9566 15.7223 15.6966 15.9757 15.5233 16.349C15.3633 16.7223 15.3233 17.1157 15.4033 17.529C14.8166 17.1957 14.3566 16.5957 14.0233 15.729L13.6633 15.849ZM16.3033 17.749C16.0499 17.2423 16.0233 16.8357 16.2233 16.529C16.4366 16.2223 16.7633 16.189 17.2033 16.429C17.5499 16.629 17.6433 16.8623 17.4833 17.129C17.3899 17.289 17.2299 17.429 17.0033 17.549C16.7899 17.669 16.5566 17.7357 16.3033 17.749Z" fill="white"/>
</svg>
