<svg width="56" height="266" viewBox="0 0 56 266" fill="none" xmlns="http://www.w3.org/2000/svg">
<path d="M7.32017 243.853C6.35014 240.656 6.09981 237.349 6.56918 233.933C7.03855 230.517 8.18067 227.492 9.99556 224.859C12.1234 221.756 15.0178 219.484 18.6788 218.042C22.3712 216.569 26.6894 216.052 31.6334 216.491C34.8564 216.773 37.8447 217.917 40.5983 219.923C43.3519 221.929 45.5423 224.515 47.1694 227.68C48.8904 231.002 49.7196 234.638 49.6571 238.587C49.5945 242.505 48.6245 246.36 46.747 250.153C45.7144 252.19 44.1811 253.961 42.1472 255.465C40.1133 256.969 37.7664 258.082 35.1067 258.803C32.4782 259.524 29.7716 259.79 26.9866 259.602C22.2617 259.289 18.1469 257.769 14.6423 255.042C11.1377 252.315 8.69698 248.585 7.32017 243.853ZM10.1364 243.006C11.3567 247.144 13.4689 250.388 16.4728 252.738C19.4768 255.089 23.044 256.405 27.1744 256.687C30.8667 256.938 34.2931 256.327 37.4535 254.854C40.6452 253.381 42.8669 251.375 44.1185 248.836C45.8083 245.451 46.6688 242.035 46.7001 238.587C46.7626 235.108 46.0429 231.911 44.541 228.996C43.1642 226.27 41.3023 224.06 38.9555 222.368C36.6087 220.644 34.0897 219.656 31.3987 219.406C26.9554 218.998 23.1378 219.421 19.9461 220.675C16.7544 221.897 14.2355 223.856 12.3893 226.552C10.8248 228.808 9.8391 231.426 9.43232 234.403C9.05683 237.349 9.29151 240.217 10.1364 243.006Z" fill="#E41B23"/>
<path d="M10.1364 243.006C11.3567 247.144 13.4689 250.388 16.4728 252.738C19.4768 255.089 23.044 256.405 27.1744 256.687C30.8667 256.938 34.2931 256.327 37.4535 254.854C40.6452 253.381 42.8669 251.375 44.1185 248.836C45.8083 245.451 46.6688 242.035 46.7001 238.587C46.7626 235.108 46.0429 231.911 44.541 228.996C43.1642 226.27 41.3023 224.06 38.9555 222.368C36.6087 220.644 34.0897 219.656 31.3987 219.406C26.9554 218.998 23.1378 219.421 19.9461 220.675C16.7544 221.897 14.2355 223.856 12.3893 226.552C10.8248 228.808 9.8391 231.426 9.43232 234.403C9.05683 237.349 9.29151 240.217 10.1364 243.006Z" fill="white"/>
<path fill-rule="evenodd" clip-rule="evenodd" d="M18.4167 240.713C17.9672 239.231 17.8512 237.699 18.0687 236.116C18.2862 234.533 18.8155 233.131 19.6565 231.911C20.6426 230.473 21.9839 229.42 23.6805 228.752C25.3916 228.069 27.3927 227.83 29.6838 228.033C31.1774 228.164 32.5622 228.694 33.8383 229.623C35.1143 230.553 36.1294 231.751 36.8834 233.218C37.681 234.758 38.0652 236.443 38.0362 238.273C38.0072 240.088 37.5577 241.875 36.6877 243.632C36.2091 244.576 35.4986 245.397 34.556 246.094C33.6135 246.791 32.5259 247.307 31.2934 247.641C30.0753 247.975 28.821 248.098 27.5304 248.011C25.3408 247.866 23.434 247.162 21.8099 245.898C20.1858 244.634 19.0547 242.906 18.4167 240.713ZM22.6582 244.83C21.2661 243.741 20.2873 242.238 19.7218 240.321C19.3302 239.028 19.2215 237.699 19.3955 236.334C19.584 234.954 20.0408 233.741 20.7658 232.695C21.6214 231.446 22.7887 230.538 24.2677 229.972C25.7468 229.391 27.5159 229.195 29.575 229.384C30.8221 229.5 31.9894 229.957 33.077 230.756C34.1645 231.541 35.0273 232.565 35.6654 233.828C36.3614 235.179 36.6949 236.66 36.6659 238.273C36.6514 239.87 36.2526 241.454 35.4696 243.022C34.8896 244.199 33.86 245.128 32.3809 245.811C30.9163 246.494 29.3285 246.777 27.6174 246.661C25.7033 246.53 24.0502 245.92 22.6582 244.83Z" fill="#E41B23"/>
<path d="M19.7218 240.321C20.2873 242.238 21.2661 243.741 22.6582 244.83C24.0502 245.92 25.7033 246.53 27.6174 246.661C29.3285 246.777 30.9163 246.494 32.3809 245.811C33.86 245.128 34.8896 244.199 35.4696 243.022C36.2526 241.454 36.6514 239.87 36.6659 238.273C36.6949 236.66 36.3614 235.179 35.6654 233.828C35.0273 232.565 34.1645 231.541 33.077 230.756C31.9894 229.957 30.8221 229.5 29.575 229.384C27.5159 229.195 25.7468 229.391 24.2677 229.972C22.7887 230.538 21.6214 231.446 20.7658 232.695C20.0408 233.741 19.584 234.954 19.3955 236.334C19.2215 237.699 19.3302 239.028 19.7218 240.321Z" fill="#E41B23"/>
<line x1="28" y1="2.5" x2="28" y2="216.5" stroke="#E41B23" stroke-width="5" stroke-linecap="round" stroke-dasharray="6 13"/>
</svg>
