<svg width="56" height="332" viewBox="0 0 56 332" fill="none" xmlns="http://www.w3.org/2000/svg">
<path d="M7.32017 309.853C6.35014 306.656 6.09981 303.349 6.56918 299.933C7.03855 296.517 8.18067 293.492 9.99556 290.859C12.1234 287.756 15.0178 285.484 18.6788 284.042C22.3712 282.569 26.6894 282.052 31.6334 282.491C34.8564 282.773 37.8447 283.917 40.5983 285.923C43.3519 287.929 45.5423 290.515 47.1694 293.68C48.8904 297.002 49.7196 300.638 49.6571 304.587C49.5945 308.505 48.6245 312.36 46.747 316.153C45.7144 318.19 44.1811 319.961 42.1472 321.465C40.1133 322.969 37.7664 324.082 35.1067 324.803C32.4782 325.524 29.7716 325.79 26.9866 325.602C22.2617 325.289 18.1469 323.769 14.6423 321.042C11.1377 318.315 8.69698 314.585 7.32017 309.853ZM10.1364 309.006C11.3567 313.144 13.4689 316.388 16.4728 318.738C19.4768 321.089 23.044 322.405 27.1744 322.687C30.8667 322.938 34.2931 322.327 37.4535 320.854C40.6452 319.381 42.8669 317.375 44.1185 314.836C45.8083 311.451 46.6688 308.035 46.7001 304.587C46.7626 301.108 46.0429 297.911 44.541 294.996C43.1642 292.27 41.3023 290.06 38.9555 288.368C36.6087 286.644 34.0897 285.656 31.3987 285.406C26.9554 284.998 23.1378 285.421 19.9461 286.675C16.7544 287.897 14.2355 289.856 12.3893 292.552C10.8248 294.808 9.8391 297.426 9.43232 300.403C9.05683 303.349 9.29151 306.217 10.1364 309.006Z" fill="#E41B23"/>
<path d="M10.1364 309.006C11.3567 313.144 13.4689 316.388 16.4728 318.738C19.4768 321.089 23.044 322.405 27.1744 322.687C30.8667 322.938 34.2931 322.327 37.4535 320.854C40.6452 319.381 42.8669 317.375 44.1185 314.836C45.8083 311.451 46.6688 308.035 46.7001 304.587C46.7626 301.108 46.0429 297.911 44.541 294.996C43.1642 292.27 41.3023 290.06 38.9555 288.368C36.6087 286.644 34.0897 285.656 31.3987 285.406C26.9554 284.998 23.1378 285.421 19.9461 286.675C16.7544 287.897 14.2355 289.856 12.3893 292.552C10.8248 294.808 9.8391 297.426 9.43232 300.403C9.05683 303.349 9.29151 306.217 10.1364 309.006Z" fill="white"/>
<path fill-rule="evenodd" clip-rule="evenodd" d="M18.4166 306.713C17.967 305.231 17.851 303.699 18.0685 302.116C18.2861 300.533 18.8153 299.131 19.6564 297.911C20.6424 296.473 21.9838 295.42 23.6803 294.752C25.3914 294.069 27.3925 293.83 29.6837 294.033C31.1772 294.164 32.5621 294.694 33.8381 295.623C35.1142 296.553 36.1293 297.751 36.8833 299.218C37.6808 300.758 38.0651 302.443 38.0361 304.273C38.0071 306.088 37.5576 307.875 36.6875 309.632C36.209 310.576 35.4985 311.397 34.5559 312.094C33.6134 312.791 32.5258 313.307 31.2932 313.641C30.0752 313.975 28.8209 314.098 27.5303 314.011C25.3407 313.866 23.4338 313.162 21.8097 311.898C20.1857 310.634 19.0546 308.906 18.4166 306.713ZM22.658 310.83C21.266 309.741 20.2872 308.238 19.7216 306.321C19.3301 305.028 19.2214 303.699 19.3954 302.334C19.5839 300.954 20.0407 299.741 20.7657 298.695C21.6212 297.446 22.7885 296.538 24.2676 295.972C25.7467 295.391 27.5158 295.195 29.5749 295.384C30.822 295.5 31.9893 295.957 33.0768 296.756C34.1644 297.541 35.0272 298.565 35.6652 299.828C36.3613 301.179 36.6948 302.66 36.6658 304.273C36.6513 305.87 36.2525 307.454 35.4695 309.022C34.8894 310.199 33.8599 311.128 32.3808 311.811C30.9162 312.494 29.3284 312.777 27.6173 312.661C25.7032 312.53 24.0501 311.92 22.658 310.83Z" fill="#E41B23"/>
<path d="M19.7216 306.321C20.2872 308.238 21.266 309.741 22.658 310.83C24.0501 311.92 25.7032 312.53 27.6173 312.661C29.3284 312.777 30.9162 312.494 32.3808 311.811C33.8599 311.128 34.8894 310.199 35.4695 309.022C36.2525 307.454 36.6513 305.87 36.6658 304.273C36.6948 302.66 36.3613 301.179 35.6652 299.828C35.0272 298.565 34.1644 297.541 33.0768 296.756C31.9893 295.957 30.822 295.5 29.5749 295.384C27.5158 295.195 25.7467 295.391 24.2676 295.972C22.7885 296.538 21.6212 297.446 20.7657 298.695C20.0407 299.741 19.5839 300.954 19.3954 302.334C19.2214 303.699 19.3301 305.028 19.7216 306.321Z" fill="#E41B23"/>
<line x1="28.5" y1="2.5" x2="28.5" y2="279.5" stroke="#E41B23" stroke-width="5" stroke-linecap="round" stroke-dasharray="6 13"/>
</svg>
