<svg width="56" height="145" viewBox="0 0 56 145" fill="none" xmlns="http://www.w3.org/2000/svg">
<path d="M7.32017 122.853C6.35014 119.656 6.09981 116.349 6.56918 112.933C7.03855 109.517 8.18067 106.492 9.99556 103.859C12.1234 100.756 15.0178 98.4841 18.6788 97.0423C22.3712 95.5693 26.6894 95.0521 31.6334 95.4909C34.8564 95.773 37.8447 96.917 40.5983 98.9229C43.3519 100.929 45.5423 103.515 47.1694 106.68C48.8904 110.002 49.7196 113.638 49.6571 117.587C49.5945 121.505 48.6245 125.36 46.747 129.153C45.7144 131.19 44.1811 132.961 42.1472 134.465C40.1133 135.969 37.7664 137.082 35.1067 137.803C32.4782 138.524 29.7716 138.79 26.9866 138.602C22.2617 138.289 18.1469 136.769 14.6423 134.042C11.1377 131.315 8.69698 127.585 7.32017 122.853ZM10.1364 122.006C11.3567 126.144 13.4689 129.388 16.4728 131.738C19.4768 134.089 23.044 135.405 27.1744 135.687C30.8667 135.938 34.2931 135.327 37.4535 133.854C40.6452 132.381 42.8669 130.375 44.1185 127.836C45.8083 124.451 46.6688 121.035 46.7001 117.587C46.7626 114.108 46.0429 110.911 44.541 107.996C43.1642 105.27 41.3023 103.06 38.9555 101.368C36.6087 99.6438 34.0897 98.6565 31.3987 98.4057C26.9554 97.9983 23.1378 98.4214 19.9461 99.6751C16.7544 100.897 14.2355 102.856 12.3893 105.552C10.8248 107.808 9.8391 110.426 9.43232 113.403C9.05683 116.349 9.29151 119.217 10.1364 122.006Z" fill="#E41B23"/>
<path d="M10.1364 122.006C11.3567 126.144 13.4689 129.388 16.4728 131.738C19.4768 134.089 23.044 135.405 27.1744 135.687C30.8667 135.938 34.2931 135.327 37.4535 133.854C40.6452 132.381 42.8669 130.375 44.1185 127.836C45.8083 124.451 46.6688 121.035 46.7001 117.587C46.7626 114.108 46.0429 110.911 44.541 107.996C43.1642 105.27 41.3023 103.06 38.9555 101.368C36.6087 99.6438 34.0897 98.6565 31.3987 98.4057C26.9554 97.9983 23.1378 98.4214 19.9461 99.6751C16.7544 100.897 14.2355 102.856 12.3893 105.552C10.8248 107.808 9.8391 110.426 9.43232 113.403C9.05683 116.349 9.29151 119.217 10.1364 122.006Z" fill="white"/>
<path fill-rule="evenodd" clip-rule="evenodd" d="M18.4166 119.713C17.967 118.231 17.851 116.699 18.0685 115.116C18.2861 113.533 18.8153 112.131 19.6564 110.911C20.6424 109.473 21.9838 108.42 23.6803 107.752C25.3914 107.069 27.3925 106.83 29.6837 107.033C31.1772 107.164 32.5621 107.694 33.8381 108.623C35.1142 109.553 36.1293 110.751 36.8833 112.218C37.6808 113.758 38.0651 115.443 38.0361 117.273C38.0071 119.088 37.5576 120.875 36.6875 122.632C36.209 123.576 35.4985 124.397 34.5559 125.094C33.6134 125.791 32.5258 126.307 31.2932 126.641C30.0752 126.975 28.8209 127.098 27.5303 127.011C25.3407 126.866 23.4338 126.162 21.8097 124.898C20.1857 123.634 19.0546 121.906 18.4166 119.713ZM22.658 123.83C21.266 122.741 20.2872 121.238 19.7216 119.321C19.3301 118.028 19.2214 116.699 19.3954 115.334C19.5839 113.954 20.0407 112.741 20.7657 111.695C21.6212 110.446 22.7885 109.538 24.2676 108.972C25.7467 108.391 27.5158 108.195 29.5749 108.384C30.822 108.5 31.9893 108.957 33.0768 109.756C34.1644 110.541 35.0272 111.565 35.6652 112.828C36.3613 114.179 36.6948 115.66 36.6658 117.273C36.6513 118.87 36.2525 120.454 35.4695 122.022C34.8894 123.199 33.8599 124.128 32.3808 124.811C30.9162 125.494 29.3284 125.777 27.6173 125.661C25.7032 125.53 24.0501 124.92 22.658 123.83Z" fill="#E41B23"/>
<path d="M19.7216 119.321C20.2872 121.238 21.266 122.741 22.658 123.83C24.0501 124.92 25.7032 125.53 27.6173 125.661C29.3284 125.777 30.9162 125.494 32.3808 124.811C33.8599 124.128 34.8894 123.199 35.4695 122.022C36.2525 120.454 36.6513 118.87 36.6658 117.273C36.6948 115.66 36.3613 114.179 35.6652 112.828C35.0272 111.565 34.1644 110.541 33.0768 109.756C31.9893 108.957 30.822 108.5 29.5749 108.384C27.5158 108.195 25.7467 108.391 24.2676 108.972C22.7885 109.538 21.6212 110.446 20.7657 111.695C20.0407 112.741 19.5839 113.954 19.3954 115.334C19.2214 116.699 19.3301 118.028 19.7216 119.321Z" fill="#E41B23"/>
<line x1="28.5" y1="2.5" x2="28.5" y2="92.5" stroke="#E41B23" stroke-width="5" stroke-linecap="round" stroke-dasharray="6 13"/>
</svg>
