<svg width="56" height="407" viewBox="0 0 56 407" fill="none" xmlns="http://www.w3.org/2000/svg">
<path d="M7.32017 384.853C6.35014 381.656 6.09981 378.349 6.56918 374.933C7.03855 371.517 8.18067 368.492 9.99556 365.859C12.1234 362.756 15.0178 360.484 18.6788 359.042C22.3712 357.569 26.6894 357.052 31.6334 357.491C34.8564 357.773 37.8447 358.917 40.5983 360.923C43.3519 362.929 45.5423 365.515 47.1694 368.68C48.8904 372.002 49.7196 375.638 49.6571 379.587C49.5945 383.505 48.6245 387.36 46.747 391.153C45.7144 393.19 44.1811 394.961 42.1472 396.465C40.1133 397.969 37.7664 399.082 35.1067 399.803C32.4782 400.524 29.7716 400.79 26.9866 400.602C22.2617 400.289 18.1469 398.769 14.6423 396.042C11.1377 393.315 8.69698 389.585 7.32017 384.853ZM10.1364 384.006C11.3567 388.144 13.4689 391.388 16.4728 393.738C19.4768 396.089 23.044 397.405 27.1744 397.687C30.8667 397.938 34.2931 397.327 37.4535 395.854C40.6452 394.381 42.8669 392.375 44.1185 389.836C45.8083 386.451 46.6688 383.035 46.7001 379.587C46.7626 376.108 46.0429 372.911 44.541 369.996C43.1642 367.27 41.3023 365.06 38.9555 363.368C36.6087 361.644 34.0897 360.656 31.3987 360.406C26.9554 359.998 23.1378 360.421 19.9461 361.675C16.7544 362.897 14.2355 364.856 12.3893 367.552C10.8248 369.808 9.8391 372.426 9.43232 375.403C9.05683 378.349 9.29151 381.217 10.1364 384.006Z" fill="#E41B23"/>
<path d="M10.1364 384.006C11.3567 388.144 13.4689 391.388 16.4728 393.738C19.4768 396.089 23.044 397.405 27.1744 397.687C30.8667 397.938 34.2931 397.327 37.4535 395.854C40.6452 394.381 42.8669 392.375 44.1185 389.836C45.8083 386.451 46.6688 383.035 46.7001 379.587C46.7626 376.108 46.0429 372.911 44.541 369.996C43.1642 367.27 41.3023 365.06 38.9555 363.368C36.6087 361.644 34.0897 360.656 31.3987 360.406C26.9554 359.998 23.1378 360.421 19.9461 361.675C16.7544 362.897 14.2355 364.856 12.3893 367.552C10.8248 369.808 9.8391 372.426 9.43232 375.403C9.05683 378.349 9.29151 381.217 10.1364 384.006Z" fill="white"/>
<path fill-rule="evenodd" clip-rule="evenodd" d="M18.4166 381.713C17.967 380.231 17.851 378.699 18.0685 377.116C18.2861 375.533 18.8153 374.131 19.6564 372.911C20.6424 371.473 21.9838 370.42 23.6803 369.752C25.3914 369.069 27.3925 368.83 29.6837 369.033C31.1772 369.164 32.5621 369.694 33.8381 370.623C35.1142 371.553 36.1293 372.751 36.8833 374.218C37.6808 375.758 38.0651 377.443 38.0361 379.273C38.0071 381.088 37.5576 382.875 36.6875 384.632C36.209 385.576 35.4985 386.397 34.5559 387.094C33.6134 387.791 32.5258 388.307 31.2932 388.641C30.0752 388.975 28.8209 389.098 27.5303 389.011C25.3407 388.866 23.4338 388.162 21.8097 386.898C20.1857 385.634 19.0546 383.906 18.4166 381.713ZM22.658 385.83C21.266 384.741 20.2872 383.238 19.7216 381.321C19.3301 380.028 19.2214 378.699 19.3954 377.334C19.5839 375.954 20.0407 374.741 20.7657 373.695C21.6212 372.446 22.7885 371.538 24.2676 370.972C25.7467 370.391 27.5158 370.195 29.5749 370.384C30.822 370.5 31.9893 370.957 33.0768 371.756C34.1644 372.541 35.0272 373.565 35.6652 374.828C36.3613 376.179 36.6948 377.66 36.6658 379.273C36.6513 380.87 36.2525 382.454 35.4695 384.022C34.8894 385.199 33.8599 386.128 32.3808 386.811C30.9162 387.494 29.3284 387.777 27.6173 387.661C25.7032 387.53 24.0501 386.92 22.658 385.83Z" fill="#E41B23"/>
<path d="M19.7216 381.321C20.2872 383.238 21.266 384.741 22.658 385.83C24.0501 386.92 25.7032 387.53 27.6173 387.661C29.3284 387.777 30.9162 387.494 32.3808 386.811C33.8599 386.128 34.8894 385.199 35.4695 384.022C36.2525 382.454 36.6513 380.87 36.6658 379.273C36.6948 377.66 36.3613 376.179 35.6652 374.828C35.0272 373.565 34.1644 372.541 33.0768 371.756C31.9893 370.957 30.822 370.5 29.5749 370.384C27.5158 370.195 25.7467 370.391 24.2676 370.972C22.7885 371.538 21.6212 372.446 20.7657 373.695C20.0407 374.741 19.5839 375.954 19.3954 377.334C19.2214 378.699 19.3301 380.028 19.7216 381.321Z" fill="#E41B23"/>
<line x1="27.5" y1="2.5" x2="27.5" y2="354.5" stroke="#E41B23" stroke-width="5" stroke-linecap="round" stroke-dasharray="6 13"/>
</svg>
