<svg width="1174" height="384" viewBox="0 0 1174 384" fill="none" xmlns="http://www.w3.org/2000/svg">
<path fill-rule="evenodd" clip-rule="evenodd" d="M1120.97 373.456C1159.1 375.71 1163.85 317.393 1163.94 297.028C1164.22 236.666 1181.64 101.895 1164.39 51.1287C1145.87 -3.36794 979.062 6.71822 907.915 4.96575C694.062 -0.301136 489.07 3.81382 261.337 3.73856C204.908 3.71954 146.104 -0.887402 90.4552 4.97526C34.4536 10.8744 16.5856 34.783 10.746 69.6294C6.41224 95.4853 3.62178 231.753 2.32383 273.851C1.69781 294.115 0.14977 345.622 18.6486 361.485C45.6953 384.679 116.195 380.796 146.417 380.749C163.357 380.722 221.631 379.674 302.075 380.45C304.72 380.475 376.133 382.72 379.689 381.762C383.449 380.749 478.732 379.924 484.859 379.863C716.064 377.513 995.558 377.081 1099.66 373.315" fill="white"/>
<path d="M1120.97 373.456C1159.1 375.71 1163.85 317.393 1163.94 297.028C1164.22 236.666 1181.64 101.895 1164.39 51.1287C1145.87 -3.36794 979.062 6.71822 907.915 4.96575C694.063 -0.301136 489.07 3.81382 261.337 3.73856C204.908 3.71954 146.104 -0.887402 90.4552 4.97526C34.4536 10.8744 16.5856 34.783 10.746 69.6294C6.41224 95.4853 3.62178 231.753 2.32383 273.851C1.69781 294.115 0.14977 345.622 18.6486 361.485C45.6953 384.679 116.195 380.796 146.417 380.749C163.357 380.722 221.631 379.674 302.075 380.45C304.72 380.475 376.133 382.72 379.689 381.762C383.449 380.749 478.732 379.924 484.859 379.863C716.064 377.513 995.558 377.081 1099.66 373.315" stroke="#E41B23" stroke-width="4" stroke-miterlimit="1.5" stroke-linecap="round" stroke-linejoin="round" stroke-dasharray="6 13"/>
</svg>
