<svg width="1174" height="643" viewBox="0 0 1174 643" fill="none" xmlns="http://www.w3.org/2000/svg">
<path fill-rule="evenodd" clip-rule="evenodd" d="M1120.97 626.633C1159.1 630.423 1163.85 532.359 1163.94 498.113C1164.22 396.61 1181.64 169.981 1164.39 84.6138C1145.87 -7.02662 979.062 9.93405 907.915 6.98715C694.063 -1.86954 489.07 5.05008 261.337 4.92352C204.908 4.89155 146.104 -2.85539 90.4552 7.00314C34.4536 16.923 16.5856 57.1271 10.746 115.724C6.41224 159.203 3.62178 388.347 2.32383 459.139C1.69781 493.214 0.149771 579.828 18.6486 606.503C45.6953 645.504 116.195 638.975 146.417 638.896C163.357 638.851 221.631 637.089 302.075 638.393C304.72 638.436 376.133 642.211 379.689 640.6C383.449 638.896 478.732 637.51 484.859 637.406C716.064 633.456 995.558 632.728 1099.66 626.396" fill="white"/>
<path d="M1120.97 626.633C1159.1 630.423 1163.85 532.359 1163.94 498.113C1164.22 396.61 1181.64 169.981 1164.39 84.6138C1145.87 -7.02662 979.062 9.93405 907.915 6.98715C694.063 -1.86954 489.07 5.05008 261.337 4.92352C204.908 4.89155 146.104 -2.85539 90.4552 7.00314C34.4536 16.923 16.5856 57.1271 10.746 115.724C6.41224 159.203 3.62178 388.347 2.32383 459.139C1.69781 493.214 0.149771 579.828 18.6486 606.503C45.6953 645.504 116.195 638.975 146.417 638.896C163.357 638.851 221.631 637.089 302.075 638.393C304.72 638.436 376.133 642.211 379.689 640.6C383.449 638.896 478.732 637.51 484.859 637.406C716.064 633.456 995.558 632.728 1099.66 626.396" stroke="#E41B23" stroke-width="4" stroke-miterlimit="1.5" stroke-linecap="round" stroke-linejoin="round" stroke-dasharray="6 13"/>
</svg>
