<svg width="298" height="384" viewBox="0 0 298 384" fill="none" xmlns="http://www.w3.org/2000/svg">
<path fill-rule="evenodd" clip-rule="evenodd" d="M284.091 374.411C293.737 376.677 294.938 318.053 294.961 297.581C295.032 236.901 299.438 101.42 295.074 50.3873C290.39 -4.3962 248.188 5.74305 230.189 3.98136C176.086 -1.31325 124.224 2.82337 66.6102 2.74771C52.334 2.72859 37.4571 -1.9026 23.3784 3.99092C9.21048 9.92108 4.69002 33.9555 3.21266 68.9853C2.11626 94.9773 1.4103 231.962 1.08193 274.282C0.92355 294.652 0.531908 346.431 5.21195 362.377C12.0545 385.693 29.8904 381.789 37.5362 381.742C41.8218 381.715 56.5649 380.662 76.9165 381.441C77.5855 381.467 95.6526 383.724 96.5521 382.761C97.5032 381.743 121.609 380.913 123.159 380.851C181.652 378.49 252.362 378.055 278.7 374.27" fill="white"/>
<path d="M284.091 374.411C293.737 376.677 294.938 318.053 294.961 297.581C295.032 236.901 299.438 101.42 295.074 50.3873C290.39 -4.3962 248.188 5.74305 230.189 3.98136C176.086 -1.31325 124.224 2.82337 66.6101 2.74771C52.334 2.72859 37.4571 -1.9026 23.3784 3.99092C9.21048 9.92108 4.69002 33.9555 3.21266 68.9853C2.11626 94.9773 1.4103 231.962 1.08193 274.282C0.92355 294.652 0.531908 346.431 5.21195 362.377C12.0545 385.693 29.8904 381.789 37.5362 381.742C41.8218 381.715 56.5649 380.662 76.9165 381.441C77.5855 381.467 95.6526 383.724 96.5521 382.761C97.5032 381.743 121.609 380.913 123.159 380.851C181.652 378.49 252.362 378.055 278.7 374.27" stroke="#E41B23" stroke-width="2" stroke-miterlimit="1.5" stroke-linecap="round" stroke-linejoin="round" stroke-dasharray="6 13"/>
</svg>
