<svg width="298" height="304" viewBox="0 0 298 304" fill="none" xmlns="http://www.w3.org/2000/svg">
<path fill-rule="evenodd" clip-rule="evenodd" d="M284.091 296.21C293.737 298.001 294.938 251.655 294.961 235.47C295.032 187.498 299.438 80.3899 295.074 40.0444C290.39 -3.2661 248.188 4.74974 230.189 3.35699C176.086 -0.828797 124.224 2.44151 66.6102 2.38169C52.334 2.36658 37.4571 -1.29472 23.3784 3.36455C9.21048 8.05279 4.69002 27.0538 3.21266 54.7476C2.11626 75.2962 1.4103 183.593 1.08193 217.05C0.92355 233.154 0.531908 274.089 5.21195 286.696C12.0545 305.129 29.8904 302.043 37.5362 302.006C41.8218 301.984 56.5649 301.151 76.9165 301.768C77.5855 301.788 95.6526 303.572 96.5521 302.811C97.5032 302.006 121.609 301.35 123.159 301.301C181.652 299.434 252.362 299.091 278.7 296.098" fill="white"/>
<path d="M284.091 296.21C293.737 298.001 294.938 251.655 294.961 235.47C295.032 187.498 299.438 80.3899 295.074 40.0444C290.39 -3.2661 248.188 4.74974 230.189 3.35699C176.086 -0.828797 124.224 2.44151 66.6101 2.38169C52.334 2.36658 37.4571 -1.29472 23.3784 3.36455C9.21048 8.05279 4.69002 27.0538 3.21266 54.7475C2.11626 75.2962 1.4103 183.593 1.08193 217.05C0.92355 233.154 0.531908 274.089 5.21195 286.696C12.0545 305.129 29.8904 302.043 37.5362 302.006C41.8218 301.984 56.5649 301.151 76.9165 301.768C77.5855 301.788 95.6526 303.572 96.5521 302.811C97.5032 302.006 121.609 301.35 123.159 301.301C181.652 299.434 252.362 299.091 278.7 296.098" stroke="#E41B23" stroke-width="2" stroke-miterlimit="1.5" stroke-linecap="round" stroke-linejoin="round" stroke-dasharray="6 13"/>
</svg>
