<svg width="56" height="66" viewBox="0 0 56 66" fill="none" xmlns="http://www.w3.org/2000/svg">
<path d="M55.4903 11.1062C56.1638 12.1381 56.0104 13.4709 55.0301 15.1048C54.0361 16.701 52.0546 18.9759 49.0858 21.9294C51.233 25.4897 52.6025 28.3753 53.1944 30.5863C53.8238 32.7835 53.6534 34.4205 52.6832 35.4973C52.2903 35.9382 51.7897 36.1417 51.1814 36.1077C48.9259 35.9922 45.1886 34.9048 39.9696 32.8457C38.2546 34.9171 36.7617 36.546 35.4908 37.7322C34.2061 38.8808 32.9949 39.7048 31.857 40.2041C30.7431 40.6521 29.7554 40.6285 28.8941 40.1332L28.7403 40.0615C28.3028 39.795 27.9507 39.4124 27.684 38.9135C27.4173 38.4146 27.2172 37.8064 27.0837 37.0888C26.9741 36.3199 26.9174 35.404 26.9137 34.3412C26.9476 33.2647 27.0292 32.0857 27.1587 30.8041C27.2745 29.4849 27.4672 27.9675 27.7366 26.2519C25.0229 25.1113 22.9021 24.138 21.3742 23.3319C19.884 22.5121 18.7748 21.7453 18.0467 21.0312C17.3425 20.2659 17.0432 19.5022 17.1489 18.7401C17.2032 17.4859 18.1684 16.4535 20.0443 15.6431C21.9065 14.795 24.8641 13.9739 28.9169 13.1799C29.2576 9.4377 29.7488 6.57717 30.3907 4.59829C31.0702 2.60572 31.9977 1.35296 33.1731 0.840001C33.2859 0.798959 33.4243 0.76987 33.5883 0.752734C35.0099 0.448163 36.4129 1.08681 37.7974 2.66867C39.2195 4.23686 40.8094 6.85072 42.5671 10.5103C46.6336 9.75382 49.6425 9.42486 51.5939 9.52339C53.5692 9.57065 54.868 10.0983 55.4903 11.1062ZM50.4058 13.2761C48.4339 13.3553 45.5788 13.7559 41.8403 14.4781C41.3995 14.5534 40.9928 14.4886 40.6202 14.2837C40.2477 14.0788 39.9742 13.7952 39.7998 13.433C38.2131 10.0092 36.8351 7.50975 35.6659 5.93466C35.1805 5.30258 34.7634 4.85843 34.4147 4.60223C33.5915 5.96603 32.9825 9.38022 32.5877 14.8448C32.5128 15.8085 31.997 16.3794 31.0401 16.5574C27.2641 17.2933 24.4552 17.9964 22.6134 18.6667C22.2375 18.8035 21.8992 18.9267 21.5985 19.0361C21.8822 19.2308 22.1916 19.4375 22.5265 19.6561C24.2868 20.633 26.9528 21.8761 30.5244 23.3856C31.4336 23.7783 31.8063 24.4514 31.6425 25.4049C31.0046 29.383 30.6894 32.4349 30.6969 34.5605C30.6937 35.3705 30.7178 36.0215 30.7692 36.5136C31.169 36.3255 31.6354 36.028 32.1684 35.6212C33.6785 34.3905 35.5831 32.3138 37.8822 29.3913C38.4698 28.6666 39.2113 28.4818 40.1068 28.837C44.3176 30.582 47.5303 31.69 49.7449 32.161C49.6696 31.7202 49.5362 31.2366 49.3447 30.7104C48.6196 28.7183 47.2108 26.0172 45.1183 22.6072C44.8551 22.2348 44.7558 21.8452 44.8207 21.4386C44.8718 20.9943 45.0511 20.6098 45.3586 20.285C48.0336 17.6938 49.9451 15.636 51.0929 14.1114C51.3115 13.7765 51.5062 13.4928 51.677 13.2603C51.3216 13.2194 50.8978 13.2247 50.4058 13.2761ZM32.96 43.059C33.5856 43.7252 33.6867 44.6462 33.2633 45.8219C32.8262 46.96 31.7741 48.7477 30.1071 51.1848C32.2607 53.1253 33.7016 54.6866 34.4299 55.8688C35.1957 57.0374 35.3515 58.1087 34.8973 59.0828C34.6684 59.5066 34.3336 59.7562 33.8928 59.8315C32.4439 60.0609 29.9251 59.807 26.3366 59.0699C25.3155 61.5274 24.3506 63.262 23.4419 64.2738C22.5844 65.3095 21.6584 65.6892 20.6638 65.4126L20.5306 65.3973C19.8026 65.1515 19.1291 64.3537 18.5102 63.004C17.9425 61.6782 17.3626 59.6757 16.7706 56.9966C13.8588 56.4815 11.8082 55.9934 10.6188 55.5324C9.45332 55.0201 8.81577 54.3795 8.70619 53.6106C8.59315 52.7153 9.05768 51.8864 10.0998 51.1241C11.1419 50.3617 12.9887 49.4128 15.6403 48.2774C15.6225 45.7724 15.7347 43.8586 15.9769 42.536C16.2431 41.1621 16.711 40.2256 17.3807 39.7265C17.4934 39.6854 17.5806 39.6324 17.642 39.5675C18.5681 39.1879 19.5797 39.3943 20.6769 40.1869C21.798 40.9281 23.1842 42.3391 24.8355 44.4198C26.0109 43.9069 27.0377 43.5119 27.9159 43.2348C28.818 42.9064 29.5903 42.6892 30.2328 42.5831C30.8991 42.4257 31.4425 42.3982 31.8628 42.5006C32.3208 42.5893 32.6865 42.7754 32.96 43.059ZM30.0286 45.5307C28.8223 45.842 27.1377 46.4764 24.9748 47.434C24.2743 47.7315 23.7138 47.595 23.2933 47.0244C21.8232 45.0905 20.6216 43.7188 19.6884 42.9091C19.391 42.6768 19.1329 42.4941 18.9142 42.3609C18.5659 43.5092 18.4128 45.7784 18.4548 49.1685C18.4721 49.8007 18.1869 50.2451 17.5991 50.5016C15.2722 51.4762 13.5671 52.2884 12.484 52.938C12.4088 52.9654 12.3405 53.0115 12.279 53.0765C12.3678 53.0867 12.4635 53.1157 12.566 53.1635C13.8169 53.5596 15.6881 53.964 18.1795 54.3768C18.8152 54.4859 19.2049 54.8549 19.3486 55.4837C19.8996 58.05 20.4145 59.991 20.8933 61.3065C21.0575 61.7576 21.2131 62.1266 21.3601 62.4136C21.507 62.2325 21.6471 62.0325 21.7803 61.8137C22.4737 60.7951 23.2832 59.1597 24.2086 56.9073C24.5057 56.2032 25.0422 55.9228 25.818 56.0661C28.4154 56.6532 30.4301 56.9841 31.862 57.0588C31.7834 56.9598 31.7047 56.8607 31.6261 56.7616C30.7988 55.658 29.3682 54.2419 27.3343 52.5133C27.0745 52.2673 26.9206 51.9615 26.8727 51.5958C26.8247 51.2302 26.8981 50.9055 27.0928 50.6218C28.5788 48.506 29.6223 46.8704 30.2234 45.7152C30.2712 45.6126 30.3003 45.5169 30.3105 45.4281C30.2353 45.4554 30.1413 45.4896 30.0286 45.5307ZM16.4893 24.4713C16.8312 24.9428 16.7904 25.5324 16.3668 26.2399C15.9809 26.9337 15.1678 27.9746 13.9277 29.3624C15.6577 32.0104 16.0922 33.7891 15.2313 34.6984C15.0468 34.8932 14.8213 34.9753 14.5547 34.9446C13.5671 34.921 11.918 34.308 9.60747 33.1058C8.6237 34.6132 7.78502 35.6421 7.09144 36.1925C6.43546 36.7292 5.74347 36.8746 5.01548 36.6288C4.53693 36.2496 4.25482 35.6499 4.16914 34.8298C4.12105 33.9959 4.2249 32.7024 4.48069 30.9492C2.7786 30.2491 1.61138 29.6736 0.979022 29.2227C0.346664 28.7718 0.0423701 28.2866 0.0661386 27.7672C0.127496 27.234 0.539165 26.7862 1.30114 26.4237C2.10071 26.0476 3.37531 25.6901 5.12493 25.3513C5.42481 22.4327 6.0497 20.758 6.99962 20.3271L7.16877 20.2655C7.60959 20.1902 8.02997 20.2926 8.42989 20.5727C8.8674 20.8391 9.28446 21.2833 9.68106 21.9051C10.1016 22.4757 10.5529 23.2479 11.035 24.2218C12.7847 23.8829 14.0713 23.7339 14.8949 23.7746C15.7185 23.8154 16.25 24.0476 16.4893 24.4713ZM14.2444 25.6715C13.4482 25.7059 12.2573 25.884 10.6717 26.2057C10.1933 26.2947 9.85318 26.1205 9.65142 25.6831C9.01879 24.2958 8.45974 23.2861 7.97428 22.6541C7.8307 22.4935 7.71959 22.3637 7.64096 22.2646C7.54533 22.4696 7.47534 22.6867 7.43098 22.9157C7.19882 23.6812 7.02657 24.7868 6.91422 26.2324C6.87677 26.7143 6.61884 26.9997 6.14042 27.0887C4.54115 27.3728 3.36563 27.6517 2.61388 27.9253C2.57629 27.939 2.5387 27.9527 2.50112 27.9664C2.5387 27.9527 2.56434 27.9646 2.57802 28.0022C3.32314 28.4121 4.44421 28.9193 5.94122 29.5237C6.38896 29.7013 6.57531 30.0378 6.50027 30.5334C6.22734 32.1226 6.07734 33.3478 6.05025 34.209C6.05371 34.3354 6.05716 34.4618 6.06062 34.5883C6.12211 34.5233 6.1836 34.4584 6.2451 34.3934C6.83614 33.7952 7.58084 32.8005 8.47922 31.4094C8.80714 30.9069 9.20866 30.7821 9.68375 31.0348C11.4303 31.9741 12.7633 32.5957 13.6827 32.8995C13.669 32.862 13.6485 32.8056 13.6211 32.7304C13.3612 32.0162 12.809 31.0253 11.9645 29.7577C11.6876 29.3477 11.7148 28.9547 12.0462 28.5787C13.1531 27.4096 13.9439 26.4832 14.4188 25.7996C14.4803 25.7347 14.523 25.6766 14.5469 25.6253C14.4717 25.6526 14.3709 25.6681 14.2444 25.6715Z" fill="#E41B23"/>
</svg>
