<svg width="100" height="100" viewBox="0 0 100 100" fill="none" xmlns="http://www.w3.org/2000/svg">
<rect width="100" height="100" rx="50" fill="#191919" fill-opacity="0.5"/>
<rect x="0.25" y="0.25" width="99.5" height="99.5" rx="49.75" stroke="black" stroke-opacity="0.2" stroke-width="0.5"/>
<path d="M25.3467 57.8123C24.6356 55.3234 24.2356 52.7678 24.1467 50.1456C24.0578 47.4789 24.3467 44.8567 25.0133 42.2789C25.7244 39.7012 26.7689 37.3012 28.1467 35.0789C29.5244 32.8567 31.3911 30.8789 33.7467 29.1456C36.1022 27.4123 38.8133 26.1234 41.88 25.2789C45.88 24.2123 50.4356 23.9012 55.5467 24.3456C58.5689 24.6123 61.48 25.5901 64.28 27.2789C67.08 28.9678 69.48 31.1234 71.48 33.7456C73.5244 36.3234 75.08 39.4123 76.1467 43.0123C77.2133 46.5678 77.5467 50.2345 77.1467 54.0123C76.7911 58.1012 75.6133 62.1234 73.6133 66.079C72.4133 68.479 70.5022 70.5678 67.88 72.3456C65.2578 74.1678 62.3467 75.479 59.1467 76.279C55.9467 77.1234 52.5022 77.3901 48.8133 77.079C45.1244 76.8123 41.7244 75.879 38.6133 74.2789C32.0356 70.9901 27.6133 65.5012 25.3467 57.8123ZM21.3467 59.0123C22.68 63.5012 24.68 67.3456 27.3467 70.5456C30.0133 73.7456 33.1467 76.2345 36.7467 78.0123C40.3022 79.7901 44.1689 80.8567 48.3467 81.2123C52.5244 81.6123 56.4578 81.3456 60.1467 80.4123C63.88 79.5234 67.3022 77.9901 70.4133 75.8123C73.5244 73.6345 75.8356 71.0123 77.3467 67.9456C79.5689 63.5456 80.9022 59.0345 81.3467 54.4123C81.7467 50.1012 81.3467 45.9012 80.1467 41.8123C78.9467 37.7234 77.1689 34.1678 74.8133 31.1456C72.5022 28.1234 69.68 25.6345 66.3467 23.6789C63.0578 21.6789 59.5689 20.5234 55.88 20.2123C50.3244 19.7234 45.28 20.0789 40.7467 21.2789C37.1467 22.2567 33.9467 23.7678 31.1467 25.8123C28.3911 27.8567 26.2133 30.1901 24.6133 32.8123C23.0578 35.3901 21.88 38.1901 21.08 41.2123C20.28 44.2345 19.9244 47.2567 20.0133 50.2789C20.1022 53.2567 20.5467 56.1678 21.3467 59.0123ZM46.0133 37.4789C45.4356 37.1234 44.8133 36.9456 44.1467 36.9456C43.1244 36.9456 42.2578 37.3012 41.5467 38.0123C40.8356 38.7234 40.48 39.5901 40.48 40.6123V60.3456C40.48 61.0123 40.6356 61.6123 40.9467 62.1456C41.4356 63.0345 42.1689 63.6123 43.1467 63.8789C44.1244 64.1456 45.0578 64.0345 45.9467 63.5456L62.68 53.9456C63.2133 53.6345 63.6356 53.2123 63.9467 52.679C64.48 51.8345 64.6356 50.9234 64.4133 49.9456C64.1911 48.9678 63.6356 48.2123 62.7467 47.6789L46.0133 37.4789ZM44.4133 40.1456L61.1467 50.3456C61.4133 50.5234 61.4578 50.7678 61.28 51.0789C61.2356 51.1678 61.1911 51.2345 61.1467 51.2789L44.4133 60.8123C44.1022 60.9901 43.8578 60.9234 43.68 60.6123C43.6356 60.5234 43.6133 60.4345 43.6133 60.3456V40.6123C43.6133 40.2567 43.7911 40.0789 44.1467 40.0789C44.2356 40.0789 44.3244 40.1012 44.4133 40.1456Z" fill="#E41B23"/>
</svg>
