<svg width="31" height="29" viewBox="0 0 31 29" fill="none" xmlns="http://www.w3.org/2000/svg">
<path d="M12.216 23.96C12.248 23.992 12.264 24.008 12.264 24.008C12.424 23.848 12.616 23.656 12.84 23.432C13.64 22.472 14.728 21.016 16.104 19.064C18.856 15.032 22.664 9 27.528 0.967998C27.688 0.679997 27.912 0.455997 28.2 0.295998C28.52 0.135998 28.84 0.0719976 29.16 0.103997C29.48 0.103997 29.784 0.199998 30.072 0.391999C30.392 0.551999 30.616 0.775999 30.744 1.064C30.904 1.352 30.984 1.672 30.984 2.024C30.984 2.344 30.904 2.648 30.744 2.936C25.048 12.312 20.872 18.84 18.216 22.52C15.592 26.2 13.672 28.04 12.456 28.04C11.304 28.04 9.832 27.08 8.04 25.16C6.248 23.208 3.768 19.944 0.6 15.368C0.28 14.952 0.168 14.488 0.264 13.976C0.36 13.464 0.616 13.064 1.032 12.776C1.48 12.488 1.944 12.392 2.424 12.488C2.936 12.552 3.352 12.808 3.672 13.256C6.392 17.128 8.584 20.04 10.248 21.992C11.048 22.888 11.704 23.544 12.216 23.96Z" fill="white"/>
</svg>
