<svg width="45" height="42" viewBox="0 0 45 42" fill="none" xmlns="http://www.w3.org/2000/svg">
<path d="M37.08 15.525L38.34 16.29C37.35 17.88 36.435 19.32 35.595 20.61C34.785 21.9 33.87 23.265 32.85 24.705C31.86 26.145 30.96 27.345 30.15 28.305C29.37 29.265 28.59 30.075 27.81 30.735C27.06 31.365 26.445 31.665 25.965 31.635C25.455 31.635 24.72 31.305 23.76 30.645C22.8 29.985 21.855 29.235 20.925 28.395C19.995 27.525 18.9 26.55 17.64 25.47C16.38 24.36 15.315 23.505 14.445 22.905L12.96 21.87L14.31 20.655C21.09 14.475 25.29 10.23 26.91 7.92L28.125 8.73L29.295 9.585C28.365 10.875 27 12.45 25.2 14.31C23.4 16.14 20.85 18.57 17.55 21.6C18.21 22.08 19.095 22.8 20.205 23.76C21.345 24.69 22.455 25.605 23.535 26.505C24.615 27.405 25.395 28.05 25.875 28.44C26.895 27.36 28.395 25.47 30.375 22.77C32.385 20.07 34.2 17.4 35.82 14.76L37.08 15.525ZM16.38 23.31L17.46 24.255C13.2 29.205 8.22 34.875 2.52 41.265L1.44 40.275L0.36 39.33C6.06 32.94 11.025 27.285 15.255 22.365L16.38 23.31ZM16.875 28.35L17.595 28.89C15.495 31.68 13.95 34.8 12.96 38.25C14.85 37.5 16.425 36.6 17.685 35.55C18.945 34.5 20.04 33.225 20.97 31.725L21.735 32.175L22.5 32.67C20.22 36.42 16.695 39.045 11.925 40.545L10.44 40.995L10.755 39.465C11.715 35.175 13.515 31.29 16.155 27.81L16.875 28.35ZM24.66 3.285C28.92 2.355 34.935 1.365 42.705 0.314998L44.145 0.134998L44.325 1.575C44.655 3.765 44.73 6.51 44.55 9.81C44.37 13.08 43.905 16.17 43.155 19.08L42.57 21.285L40.815 19.8C32.145 12.51 26.565 7.86 24.075 5.85L21.69 3.915L24.66 3.285ZM28.26 5.49C30.96 7.74 35.16 11.265 40.86 16.065C41.67 11.865 41.91 7.65 41.58 3.42C36.12 4.14 31.68 4.83 28.26 5.49Z" fill="#4C4C4C"/>
</svg>
