<svg width="1920" height="600" viewBox="0 0 1920 600" fill="none" xmlns="http://www.w3.org/2000/svg">
<path d="M98.6409 324.478C98.6409 324.432 98.6409 324.385 98.6409 324.339C98.6409 323.551 98.7104 322.855 98.8496 322.252C99.0119 321.626 99.2321 321.058 99.5104 320.548C99.7886 320.038 100.16 319.482 100.623 318.879C100.67 318.832 100.739 318.751 100.832 318.635C100.925 318.519 100.983 318.438 101.006 318.392C101.725 317.534 102.235 316.746 102.536 316.027C102.838 315.308 103.035 314.369 103.127 313.21C103.243 311.077 102.606 309.349 101.215 308.028C99.8234 306.683 98.0033 305.976 95.7542 305.906C93.5283 305.837 91.6735 306.428 90.1895 307.68C88.7056 308.932 87.9521 310.613 87.9289 312.723C87.9289 313.905 88.0448 314.81 88.2767 315.436C88.5086 316.039 88.9723 316.722 89.6679 317.488L89.7026 317.522C90.5837 318.473 91.1981 319.4 91.5459 320.305C91.8937 321.209 92.0676 322.415 92.0676 323.922C92.0676 324.015 92.056 324.096 92.0328 324.165C92.0097 324.281 91.9981 324.362 91.9981 324.409C92.5777 324.826 93.5747 325.046 94.9891 325.069C95.2905 320.015 94.3746 317.163 92.2415 316.514C92.1488 316.491 92.0676 316.456 91.9981 316.409C91.9285 316.34 91.8705 316.27 91.8242 316.201C91.801 316.108 91.7778 316.015 91.7546 315.923C91.7546 315.83 91.7662 315.737 91.7894 315.644C91.8589 315.482 91.9749 315.355 92.1372 315.262C92.2995 315.169 92.4734 315.157 92.6589 315.227C93.6791 315.528 94.4906 316.154 95.0934 317.105C95.7426 315.83 96.6469 315.018 97.8062 314.671C97.9917 314.624 98.1656 314.647 98.3279 314.74C98.4902 314.81 98.5945 314.937 98.6409 315.123C98.7104 315.308 98.6988 315.482 98.6061 315.644C98.5134 315.807 98.3742 315.911 98.1888 315.957C97.6787 316.12 97.2033 316.467 96.7628 317.001C96.3455 317.511 96.0556 318.102 95.8933 318.774C95.8933 318.821 95.8817 318.856 95.8585 318.879C96.3223 320.455 96.4846 322.496 96.3455 325C97.041 324.93 97.6555 324.814 98.1888 324.652C98.3511 324.606 98.5018 324.548 98.6409 324.478ZM97.6671 326.461C96.9715 326.6 96.1947 326.669 95.3369 326.669C94.5022 326.693 93.7486 326.646 93.0762 326.53C93.0298 327.11 93.053 327.724 93.1458 328.373C93.1921 328.698 93.2617 328.976 93.3544 329.208C93.3544 329.231 93.3544 329.255 93.3544 329.278C93.7718 329.51 94.3862 329.637 95.1977 329.66C96.0093 329.684 96.7048 329.556 97.2845 329.278C97.4236 329.139 97.5279 328.744 97.5975 328.095C97.6207 327.771 97.6439 327.4 97.6671 326.982C97.6671 326.866 97.6671 326.727 97.6671 326.565V326.461ZM108.692 302.428C107.301 303.24 106.188 304.051 105.353 304.863C105.284 304.932 105.203 304.99 105.11 305.037C105.04 305.06 104.959 305.071 104.866 305.071C104.797 305.048 104.716 305.025 104.623 305.002C104.53 304.956 104.461 304.909 104.414 304.863C104.321 304.77 104.252 304.666 104.206 304.55C104.182 304.434 104.182 304.318 104.206 304.202C104.252 304.086 104.321 303.982 104.414 303.889C105.318 303.008 106.524 302.127 108.031 301.246C108.101 301.199 108.182 301.176 108.275 301.176C108.367 301.153 108.449 301.153 108.518 301.176C108.611 301.199 108.692 301.246 108.762 301.315C108.831 301.362 108.889 301.42 108.936 301.489C109.051 301.652 109.075 301.825 109.005 302.011C108.959 302.196 108.854 302.336 108.692 302.428ZM79.1645 316.236C80.0456 315.795 80.8339 315.378 81.5295 314.984C81.6918 314.891 81.8541 314.879 82.0164 314.949C82.2019 314.995 82.341 315.099 82.4338 315.262C82.5265 315.424 82.5381 315.598 82.4686 315.783C82.4222 315.969 82.3179 316.096 82.1556 316.166C81.46 316.56 80.6601 316.989 79.7558 317.453C79.5935 317.546 79.4196 317.569 79.2341 317.522C79.0718 317.453 78.9443 317.337 78.8515 317.175C78.7588 317.012 78.7356 316.838 78.782 316.653C78.8515 316.467 78.9791 316.328 79.1645 316.236ZM107.023 316.131C107.834 316.224 108.75 316.699 109.77 317.557C109.909 317.673 109.979 317.835 109.979 318.044C110.002 318.23 109.956 318.392 109.84 318.531C109.724 318.67 109.562 318.751 109.353 318.774C109.167 318.774 109.005 318.716 108.866 318.601C108.078 317.928 107.405 317.557 106.849 317.488C106.663 317.464 106.513 317.383 106.397 317.244C106.281 317.105 106.234 316.943 106.258 316.757C106.281 316.549 106.362 316.386 106.501 316.27C106.663 316.154 106.837 316.108 107.023 316.131ZM80.6253 303.993C80.5093 303.947 80.405 303.889 80.3123 303.819C80.2195 303.727 80.1615 303.622 80.1384 303.506C80.1152 303.391 80.1152 303.275 80.1384 303.159C80.1615 303.043 80.2079 302.938 80.2775 302.846C80.3702 302.753 80.4746 302.695 80.5905 302.672C80.7064 302.649 80.8339 302.649 80.9731 302.672C82.6425 303.089 84.0568 303.773 85.2161 304.724C85.3784 304.84 85.4712 304.99 85.4944 305.176C85.5175 305.361 85.4712 305.524 85.3552 305.663C85.2625 305.755 85.1582 305.825 85.0422 305.871C84.9495 305.918 84.8336 305.929 84.6944 305.906C84.5785 305.883 84.4742 305.837 84.3814 305.767C83.3612 304.956 82.1092 304.364 80.6253 303.993ZM102.501 320.374C101.945 321.07 101.562 321.696 101.354 322.252C101.145 322.786 101.041 323.493 101.041 324.374C101.041 325.325 100.704 326.113 100.032 326.739C100.032 326.832 100.032 326.924 100.032 327.017C100.032 327.527 100.009 327.968 99.9625 328.339C99.8002 329.846 99.3249 330.843 98.5365 331.33L98.467 331.364C97.4236 331.898 96.2063 332.118 94.8152 332.025C93.4472 331.956 92.4038 331.608 91.685 330.982C91.3373 330.704 91.0706 330.112 90.8851 329.208C90.6996 328.327 90.6301 327.423 90.6765 326.495C89.7954 325.846 89.4592 324.954 89.6679 323.817C89.6679 323.006 89.6099 322.345 89.494 321.835C89.378 321.302 89.2041 320.85 88.9723 320.479C88.7404 320.084 88.3926 319.632 87.9289 319.122L87.8941 319.087C87.013 318.114 86.3986 317.186 86.0508 316.305C85.7262 315.424 85.5639 314.23 85.5639 312.723C85.5871 309.894 86.5725 307.634 88.5201 305.941C90.491 304.248 92.9255 303.437 95.8238 303.506C98.722 303.599 101.099 304.55 102.953 306.358C104.808 308.167 105.666 310.509 105.527 313.384C105.388 314.821 105.121 316.015 104.727 316.966C104.333 317.893 103.719 318.879 102.884 319.922C102.838 319.945 102.768 320.027 102.675 320.166C102.606 320.258 102.548 320.328 102.501 320.374ZM96.1368 298.637C96.16 299.889 96.16 300.805 96.1368 301.385C96.1368 301.57 96.0672 301.733 95.9281 301.872C95.789 301.988 95.6267 302.046 95.4412 302.046C95.2557 302.046 95.0934 301.976 94.9543 301.837C94.8384 301.698 94.7804 301.536 94.7804 301.35C94.8036 300.77 94.8036 299.878 94.7804 298.672C94.7804 298.487 94.8384 298.336 94.9543 298.22C95.0934 298.081 95.2557 298 95.4412 297.977C95.5571 297.977 95.6731 298.011 95.789 298.081C95.9049 298.127 95.9861 298.208 96.0324 298.324C96.102 298.417 96.1368 298.521 96.1368 298.637Z" fill="white" fill-opacity="0.3"/>
<path opacity="0.72" d="M120.952 93.0352C120.912 93.0497 120.872 93.0641 120.833 93.0785C120.159 93.3239 119.542 93.4809 118.983 93.5496C118.397 93.6056 117.843 93.5941 117.32 93.5149C116.798 93.4357 116.206 93.2917 115.546 93.0828C115.492 93.0576 115.401 93.0234 115.273 92.9801C115.145 92.9369 115.058 92.9126 115.011 92.9072C114.054 92.5596 113.221 92.3687 112.512 92.3347C111.804 92.3006 110.94 92.4244 109.919 92.7059C108.059 93.2707 106.781 94.3535 106.083 95.9545C105.366 97.5626 105.328 99.3392 105.969 101.284C106.602 103.209 107.685 104.611 109.217 105.49C110.75 106.37 112.422 106.491 114.233 105.854C115.245 105.486 115.982 105.105 116.445 104.712C116.888 104.326 117.329 103.717 117.767 102.884L117.785 102.843C118.324 101.794 118.926 100.98 119.591 100.401C120.256 99.8224 121.233 99.2984 122.522 98.8294C122.601 98.8005 122.674 98.7852 122.741 98.7833C122.847 98.7671 122.92 98.7517 122.96 98.7373C123.136 98.1117 123.014 97.1906 122.594 95.974C118.178 97.2894 116.024 98.9602 116.133 100.986C116.142 101.073 116.137 101.153 116.119 101.227C116.082 101.308 116.04 101.379 115.995 101.441C115.923 101.489 115.851 101.538 115.779 101.587C115.699 101.616 115.617 101.634 115.53 101.644C115.37 101.635 115.224 101.575 115.095 101.465C114.965 101.355 114.901 101.21 114.902 101.03C114.843 100.064 115.125 99.1749 115.751 98.3636C114.458 98.2053 113.483 97.6846 112.825 96.8015C112.727 96.6574 112.693 96.5014 112.722 96.3338C112.731 96.1733 112.807 96.0444 112.951 95.9471C113.088 95.8298 113.241 95.7856 113.408 95.8144C113.576 95.8432 113.709 95.9297 113.806 96.0739C114.103 96.4596 114.549 96.7578 115.142 96.9685C115.708 97.1666 116.304 97.2304 116.929 97.16C116.969 97.1455 117.002 97.1446 117.029 97.1572C118.233 96.27 119.928 95.4961 122.112 94.8357C121.836 94.2626 121.546 93.7732 121.241 93.3677C121.151 93.2434 121.054 93.1325 120.952 93.0352ZM122.95 93.251C123.285 93.8025 123.587 94.445 123.854 95.1786C124.133 95.8852 124.328 96.544 124.438 97.155C124.948 97.0143 125.467 96.8032 125.993 96.5219C126.256 96.3812 126.472 96.2351 126.642 96.0836C126.661 96.0764 126.681 96.0692 126.701 96.062C126.769 95.6329 126.687 95.0678 126.455 94.3667C126.222 93.6655 125.896 93.1104 125.478 92.7013C125.316 92.6257 124.946 92.6591 124.369 92.8017C124.085 92.8829 123.76 92.9785 123.396 93.0886C123.297 93.1247 123.178 93.168 123.039 93.2185L122.95 93.251ZM98.9679 91.3031C100.095 92.2401 101.135 92.9392 102.089 93.4004C102.17 93.4382 102.245 93.4896 102.313 93.5545C102.355 93.6067 102.39 93.6725 102.419 93.7518C102.421 93.8185 102.426 93.8951 102.435 93.9817C102.424 94.0754 102.406 94.1493 102.381 94.2034C102.331 94.3116 102.263 94.4035 102.178 94.4793C102.087 94.5352 101.987 94.5713 101.881 94.5875C101.767 94.5839 101.657 94.5569 101.548 94.5065C100.514 94.0075 99.3849 93.2507 98.1624 92.2362C98.1011 92.1911 98.056 92.1289 98.0272 92.0496C97.9785 91.9775 97.9532 91.9081 97.9514 91.8414C97.9423 91.7549 97.9567 91.6711 97.9946 91.59C98.0126 91.5161 98.0441 91.4484 98.0892 91.3871C98.1919 91.2375 98.3333 91.1635 98.5136 91.1653C98.6867 91.1472 98.8381 91.1931 98.9679 91.3031ZM119.965 112.255C119.314 111.639 118.712 111.095 118.158 110.623C118.028 110.513 117.968 110.378 117.977 110.217C117.959 110.044 118.005 109.893 118.115 109.763C118.225 109.633 118.37 109.569 118.55 109.571C118.723 109.553 118.865 109.602 118.975 109.719C119.528 110.191 120.144 110.742 120.822 111.371C120.952 111.481 121.026 111.622 121.044 111.795C121.035 111.956 120.975 112.101 120.865 112.231C120.755 112.36 120.614 112.434 120.441 112.453C120.261 112.451 120.102 112.385 119.965 112.255ZM111.205 88.4657C111.032 87.7429 111.153 86.8118 111.569 85.6724C111.625 85.5174 111.742 85.4074 111.921 85.3424C112.072 85.2649 112.225 85.254 112.38 85.3098C112.536 85.3657 112.655 85.4792 112.74 85.6504C112.798 85.809 112.799 85.9659 112.743 86.1209C112.413 87.0043 112.305 87.6948 112.419 88.1923C112.457 88.3581 112.435 88.5122 112.352 88.6546C112.269 88.7971 112.144 88.8872 111.979 88.9252C111.793 88.9703 111.629 88.9514 111.487 88.8685C111.337 88.7658 111.243 88.6315 111.205 88.4657ZM109.042 114.816C109.038 114.93 109.021 115.037 108.99 115.138C108.94 115.246 108.869 115.328 108.777 115.384C108.685 115.44 108.586 115.476 108.479 115.493C108.373 115.509 108.269 115.502 108.169 115.471C108.06 115.421 107.978 115.349 107.922 115.258C107.866 115.166 107.827 115.057 107.803 114.93C107.641 113.373 107.785 111.951 108.237 110.663C108.286 110.489 108.386 110.362 108.537 110.285C108.689 110.207 108.842 110.196 108.997 110.252C109.105 110.303 109.197 110.37 109.273 110.455C109.341 110.52 109.387 110.615 109.411 110.741C109.427 110.848 109.42 110.951 109.389 111.052C109.013 112.177 108.897 113.432 109.042 114.816ZM116.241 91.0114C117.009 91.2707 117.663 91.403 118.204 91.4083C118.725 91.4207 119.362 91.2898 120.115 91.0156C120.928 90.7198 121.707 90.7619 122.452 91.142C122.531 91.1132 122.61 91.0843 122.69 91.0554C123.126 90.8967 123.51 90.7794 123.841 90.7036C125.181 90.3733 126.181 90.4694 126.843 90.992L126.894 91.0407C127.675 91.7669 128.242 92.7393 128.596 93.9577C128.962 95.1492 128.99 96.1496 128.678 96.9591C128.548 97.3431 128.126 97.7551 127.41 98.1952C126.714 98.628 125.963 98.969 125.155 99.218C124.874 100.173 124.216 100.739 123.179 100.914C122.485 101.166 121.938 101.422 121.538 101.68C121.118 101.945 120.786 102.234 120.541 102.548C120.276 102.869 119.997 103.307 119.706 103.862L119.687 103.903C119.128 104.959 118.526 105.773 117.881 106.345C117.229 106.897 116.258 107.407 114.969 107.876C112.543 108.737 110.304 108.598 108.25 107.459C106.189 106.301 104.738 104.471 103.895 101.971C103.072 99.4642 103.145 97.1361 104.115 94.987C105.084 92.838 106.819 91.3756 109.321 90.5997C110.594 90.2712 111.698 90.1276 112.633 90.1688C113.549 90.2172 114.583 90.4359 115.735 90.8249C115.769 90.8574 115.86 90.8916 116.008 90.9276C116.109 90.9582 116.187 90.9861 116.241 91.0114ZM99.6339 103.219C100.697 102.81 101.481 102.525 101.983 102.364C102.142 102.306 102.302 102.315 102.465 102.391C102.607 102.474 102.707 102.595 102.765 102.753C102.823 102.912 102.814 103.072 102.738 103.235C102.655 103.377 102.534 103.477 102.376 103.535C101.873 103.695 101.11 103.973 100.086 104.368C99.9272 104.426 99.7803 104.423 99.6451 104.36C99.4828 104.285 99.3629 104.171 99.2853 104.02C99.2493 103.921 99.2429 103.811 99.2663 103.69C99.2699 103.576 99.314 103.482 99.3987 103.406C99.4564 103.318 99.5348 103.255 99.6339 103.219Z" fill="white" fill-opacity="0.3"/>
<path opacity="0.81" d="M337.543 91.0003C337.842 91.711 337.992 92.3841 337.995 93.0194C337.974 93.6535 337.807 94.2021 337.495 94.6651C337.172 95.1156 336.693 95.444 336.059 95.6505C335.194 95.9287 334.397 95.8151 333.668 95.3095C332.927 94.8152 332.39 94.0919 332.056 93.1396C331.457 91.5382 330.606 89.1386 329.503 85.9408C328.389 82.7304 327.727 80.7182 327.518 79.9043C327.282 78.9331 327.366 78.0147 327.771 77.149C328.175 76.2834 328.824 75.6762 329.718 75.3275C330.599 74.9662 331.551 74.9981 332.571 75.4231C333.614 75.8733 335.433 76.7296 338.027 77.9922C338.156 78.0588 338.302 78.1324 338.465 78.2129C339.493 78.7222 340.69 79.3182 342.057 80.0011C342.092 80.0149 342.489 80.2155 343.248 80.6028C343.995 80.9776 344.433 81.1983 344.561 81.2649C345.918 81.9113 346.792 82.6043 347.185 83.3439C347.579 84.0597 347.498 84.9064 346.944 85.8841C345.953 87.6418 344.296 87.8127 341.973 86.3966C340.719 85.6357 338.249 84.3977 334.564 82.6825C336.112 87.21 337.105 89.9826 337.543 91.0003ZM329.066 79.536C329.253 80.3008 329.905 82.2765 331.02 85.463C332.112 88.6482 332.952 91.0233 333.541 92.5883C333.761 93.1871 334.056 93.628 334.425 93.9109C334.793 94.1939 335.173 94.2737 335.563 94.1504C336.501 93.852 336.671 93.004 336.073 91.6064C335.584 90.4302 334.377 87.0412 332.453 81.4393C332.339 81.1097 332.414 80.826 332.678 80.5882C332.929 80.3617 333.213 80.3226 333.529 80.471C338.222 82.6225 341.312 84.1448 342.8 85.0377C343.508 85.4703 344.089 85.6985 344.543 85.7223C344.986 85.7335 345.327 85.5297 345.564 85.1107C345.842 84.6099 345.875 84.2041 345.664 83.8934C345.441 83.5702 344.839 83.1671 343.858 82.6842C343.729 82.6175 343.286 82.3905 342.527 82.0032C341.756 81.6272 341.365 81.4329 341.353 81.4204C339.987 80.7375 338.79 80.1415 337.762 79.6322C337.609 79.5643 337.463 79.4907 337.324 79.4115C334.764 78.1627 332.969 77.3196 331.937 76.882C331.351 76.6356 330.807 76.613 330.305 76.8144C329.779 77.0146 329.407 77.3726 329.188 77.8885C328.958 78.3918 328.917 78.9409 329.066 79.536Z" fill="white" fill-opacity="0.3"/>
<path d="M825.041 97.0151C825.127 96.0688 825.353 95.249 825.718 94.5559C826.108 93.8779 826.607 93.3772 827.214 93.0537C827.827 92.7504 828.538 92.6699 829.348 92.8121C830.451 93.0102 831.253 93.5952 831.753 94.5673C832.274 95.5343 832.44 96.6326 832.252 97.8624C831.978 99.9524 831.515 103.057 830.865 107.176C830.219 111.316 829.775 113.889 829.531 114.896C829.227 116.091 828.604 117.042 827.662 117.75C826.72 118.458 825.662 118.743 824.488 118.605C823.319 118.488 822.302 117.903 821.437 116.85C820.562 115.756 819.078 113.771 816.985 110.895C816.884 110.748 816.767 110.584 816.636 110.402C815.812 109.252 814.853 107.91 813.761 106.376C813.731 106.341 813.415 105.893 812.813 105.032C812.216 104.191 811.868 103.698 811.766 103.551C810.664 102.062 810.113 100.802 810.114 99.7691C810.099 98.7619 810.677 97.8867 811.846 97.1434C813.942 95.8036 815.845 96.5766 817.554 99.4625C818.479 101.017 820.451 103.794 823.47 107.794C824.405 101.97 824.929 98.3765 825.041 97.0151ZM827.634 114.402C827.872 113.46 828.306 110.933 828.937 106.818C829.592 102.719 830.052 99.6476 830.317 97.603C830.423 96.8237 830.358 96.1733 830.12 95.6519C829.883 95.1304 829.516 94.824 829.02 94.7326C827.826 94.5142 827.15 95.3387 826.992 97.2062C826.844 98.77 826.196 103.158 825.047 110.369C824.981 110.794 824.736 111.06 824.311 111.166C823.906 111.267 823.574 111.145 823.316 110.801C819.453 105.742 816.97 102.296 815.868 100.464C815.347 99.5826 814.846 98.9977 814.366 98.7089C813.89 98.4404 813.402 98.4654 812.901 98.7839C812.308 99.1682 812.037 99.5906 812.087 100.051C812.143 100.532 812.565 101.319 813.354 102.413C813.455 102.56 813.806 103.064 814.408 103.924C815.03 104.78 815.344 105.218 815.349 105.238C816.441 106.773 817.399 108.114 818.223 109.264C818.35 109.426 818.466 109.59 818.572 109.757C820.635 112.598 822.102 114.555 822.972 115.629C823.467 116.236 824.046 116.576 824.709 116.647C825.398 116.733 826.01 116.559 826.547 116.124C827.089 115.71 827.451 115.135 827.634 114.402Z" fill="white" fill-opacity="0.3"/>
<path opacity="0.99" d="M1258.53 140.733C1258.54 140.703 1258.55 140.672 1258.56 140.642C1258.73 140.128 1258.94 139.69 1259.16 139.328C1259.41 138.956 1259.68 138.634 1259.98 138.364C1260.27 138.094 1260.64 137.814 1261.08 137.525C1261.12 137.505 1261.18 137.468 1261.27 137.413C1261.36 137.358 1261.41 137.318 1261.44 137.293C1262.1 136.895 1262.61 136.495 1262.97 136.094C1263.32 135.693 1263.66 135.125 1263.99 134.389C1264.54 133.023 1264.51 131.753 1263.9 130.579C1263.3 129.389 1262.27 128.518 1260.82 127.968C1259.38 127.422 1258.04 127.391 1256.79 127.875C1255.54 128.358 1254.67 129.286 1254.18 130.657C1253.91 131.429 1253.79 132.045 1253.8 132.505C1253.81 132.951 1253.96 133.501 1254.24 134.156L1254.26 134.187C1254.62 135.005 1254.81 135.748 1254.84 136.416C1254.86 137.084 1254.7 137.91 1254.36 138.893C1254.34 138.954 1254.32 139.004 1254.29 139.044C1254.24 139.115 1254.22 139.165 1254.21 139.195C1254.49 139.598 1255.09 139.965 1256.01 140.298C1257.34 137.068 1257.39 135.002 1256.14 134.099C1256.09 134.063 1256.04 134.022 1256.01 133.976C1255.98 133.915 1255.95 133.857 1255.94 133.801C1255.94 133.736 1255.95 133.67 1255.96 133.604C1255.98 133.544 1256.01 133.486 1256.04 133.43C1256.12 133.34 1256.23 133.283 1256.35 133.259C1256.48 133.235 1256.6 133.266 1256.7 133.353C1257.3 133.779 1257.69 134.37 1257.87 135.126C1258.58 134.439 1259.35 134.113 1260.19 134.147C1260.32 134.158 1260.42 134.212 1260.51 134.309C1260.6 134.391 1260.64 134.498 1260.63 134.629C1260.63 134.766 1260.59 134.877 1260.49 134.962C1260.39 135.047 1260.28 135.084 1260.15 135.072C1259.78 135.063 1259.39 135.184 1258.98 135.433C1258.59 135.672 1258.27 135.992 1258.02 136.394C1258 136.425 1257.99 136.445 1257.97 136.455C1257.92 137.587 1257.57 138.955 1256.91 140.558C1257.38 140.668 1257.81 140.731 1258.19 140.745C1258.31 140.751 1258.42 140.747 1258.53 140.733ZM1257.45 141.807C1256.96 141.742 1256.44 141.613 1255.88 141.42C1255.33 141.248 1254.85 141.048 1254.44 140.821C1254.27 141.189 1254.15 141.595 1254.07 142.04C1254.02 142.262 1254.01 142.459 1254.02 142.631C1254.01 142.646 1254 142.661 1254 142.676C1254.22 142.922 1254.59 143.143 1255.12 143.34C1255.64 143.538 1256.12 143.611 1256.56 143.559C1256.69 143.5 1256.84 143.266 1257.03 142.858C1257.12 142.652 1257.22 142.415 1257.33 142.148C1257.35 142.072 1257.39 141.981 1257.42 141.875L1257.45 141.807ZM1270.04 128.605C1268.95 128.822 1268.04 129.102 1267.31 129.443C1267.25 129.473 1267.19 129.493 1267.11 129.502C1267.06 129.502 1267.01 129.491 1266.95 129.47C1266.91 129.439 1266.86 129.406 1266.8 129.37C1266.75 129.319 1266.72 129.273 1266.7 129.233C1266.66 129.151 1266.64 129.067 1266.63 128.981C1266.64 128.901 1266.67 128.825 1266.71 128.755C1266.77 128.689 1266.84 128.637 1266.92 128.597C1267.71 128.225 1268.69 127.922 1269.87 127.685C1269.93 127.671 1269.99 127.674 1270.05 127.695C1270.11 127.7 1270.17 127.719 1270.21 127.749C1270.26 127.785 1270.3 127.834 1270.33 127.895C1270.37 127.941 1270.39 127.991 1270.41 128.047C1270.45 128.179 1270.42 128.298 1270.34 128.403C1270.26 128.514 1270.16 128.581 1270.04 128.605ZM1247.67 130.98C1248.35 130.891 1248.95 130.795 1249.5 130.694C1249.62 130.67 1249.73 130.699 1249.82 130.781C1249.93 130.853 1250 130.952 1250.02 131.079C1250.05 131.206 1250.02 131.322 1249.93 131.427C1249.86 131.538 1249.76 131.598 1249.64 131.607C1249.1 131.707 1248.48 131.808 1247.78 131.907C1247.66 131.931 1247.54 131.907 1247.43 131.835C1247.34 131.753 1247.28 131.649 1247.26 131.522C1247.23 131.396 1247.26 131.277 1247.33 131.166C1247.42 131.061 1247.53 130.999 1247.67 130.98ZM1265.87 137.17C1266.38 137.413 1266.87 137.929 1267.34 138.718C1267.41 138.824 1267.42 138.946 1267.37 139.082C1267.34 139.208 1267.28 139.304 1267.17 139.369C1267.06 139.433 1266.94 139.45 1266.8 139.418C1266.68 139.376 1266.58 139.302 1266.52 139.195C1266.15 138.579 1265.8 138.186 1265.45 138.016C1265.34 137.959 1265.26 137.872 1265.21 137.756C1265.17 137.639 1265.17 137.522 1265.23 137.407C1265.29 137.276 1265.38 137.188 1265.5 137.144C1265.63 137.104 1265.75 137.113 1265.87 137.17ZM1251.37 123.321C1251.31 123.265 1251.25 123.204 1251.21 123.137C1251.17 123.056 1251.16 122.975 1251.17 122.894C1251.18 122.813 1251.2 122.738 1251.24 122.667C1251.29 122.597 1251.34 122.539 1251.41 122.494C1251.49 122.455 1251.57 122.44 1251.65 122.451C1251.73 122.462 1251.81 122.491 1251.9 122.537C1252.89 123.184 1253.66 123.948 1254.21 124.829C1254.29 124.941 1254.31 125.06 1254.29 125.187C1254.26 125.313 1254.19 125.408 1254.09 125.473C1254 125.513 1253.92 125.535 1253.83 125.539C1253.76 125.548 1253.69 125.53 1253.6 125.483C1253.53 125.442 1253.47 125.388 1253.43 125.322C1252.94 124.564 1252.26 123.897 1251.37 123.321ZM1261.97 138.923C1261.45 139.251 1261.06 139.574 1260.8 139.89C1260.54 140.191 1260.31 140.629 1260.12 141.204C1259.9 141.824 1259.51 142.263 1258.93 142.52C1258.91 142.581 1258.88 142.641 1258.86 142.702C1258.75 143.034 1258.64 143.317 1258.52 143.548C1258.08 144.495 1257.54 145.039 1256.92 145.179L1256.87 145.186C1256.07 145.3 1255.22 145.17 1254.34 144.797C1253.46 144.444 1252.86 143.983 1252.53 143.413C1252.36 143.154 1252.32 142.708 1252.4 142.076C1252.48 141.46 1252.64 140.854 1252.88 140.26C1252.45 139.638 1252.43 138.98 1252.82 138.286C1253 137.757 1253.11 137.312 1253.15 136.954C1253.2 136.58 1253.19 136.246 1253.12 135.951C1253.05 135.642 1252.93 135.269 1252.74 134.832L1252.73 134.802C1252.37 133.968 1252.18 133.225 1252.15 132.572C1252.13 131.925 1252.3 131.109 1252.64 130.126C1253.29 128.286 1254.44 127.032 1256.09 126.365C1257.75 125.704 1259.52 125.721 1261.4 126.418C1263.27 127.129 1264.61 128.283 1265.41 129.88C1266.21 131.477 1266.25 133.197 1265.51 135.042C1265.1 135.948 1264.66 136.667 1264.18 137.199C1263.72 137.716 1263.1 138.22 1262.32 138.714C1262.28 138.718 1262.22 138.756 1262.13 138.826C1262.06 138.87 1262.01 138.903 1261.97 138.923ZM1262.7 123.312C1262.43 124.134 1262.23 124.731 1262.08 125.104C1262.04 125.225 1261.96 125.315 1261.84 125.375C1261.72 125.419 1261.6 125.421 1261.48 125.379C1261.36 125.337 1261.27 125.255 1261.21 125.133C1261.16 125.017 1261.16 124.898 1261.2 124.777C1261.35 124.404 1261.55 123.821 1261.81 123.029C1261.85 122.908 1261.92 122.823 1262.02 122.774C1262.14 122.714 1262.27 122.698 1262.39 122.724C1262.47 122.75 1262.54 122.799 1262.6 122.87C1262.66 122.927 1262.7 122.998 1262.7 123.084C1262.72 123.16 1262.72 123.236 1262.7 123.312Z" fill="white" fill-opacity="0.3"/>
<path opacity="0.81" d="M183.12 193.806C183.848 193.262 184.574 192.899 185.299 192.715C186.03 192.558 186.705 192.592 187.323 192.817C187.93 193.058 188.442 193.511 188.859 194.177C189.423 195.087 189.521 196.031 189.15 197.008C188.797 197.996 188.123 198.816 187.129 199.469C185.47 200.61 182.969 202.267 179.628 204.439C176.276 206.627 174.164 207.957 173.294 208.428C172.251 208.975 171.177 209.141 170.072 208.925C168.967 208.709 168.088 208.14 167.435 207.218C166.771 206.313 166.536 205.217 166.731 203.929C166.948 202.609 167.409 200.286 168.113 196.96C168.152 196.795 168.195 196.607 168.24 196.397C168.529 195.077 168.87 193.538 169.261 191.782C169.266 191.737 169.383 191.226 169.609 190.249C169.824 189.288 169.952 188.724 169.992 188.559C170.344 186.824 170.887 185.627 171.62 184.967C172.326 184.313 173.317 184.163 174.593 184.519C176.884 185.15 177.552 186.996 176.595 190.054C176.083 191.705 175.372 194.881 174.461 199.583C179.195 196.522 182.082 194.597 183.12 193.806ZM172.432 206.764C173.252 206.332 175.325 205.024 178.65 202.841C181.98 200.685 184.455 199.048 186.076 197.928C186.698 197.506 187.118 197.044 187.336 196.542C187.554 196.039 187.538 195.583 187.285 195.172C186.677 194.185 185.659 194.232 184.232 195.314C183.027 196.209 179.497 198.554 173.642 202.349C173.298 202.574 172.952 202.569 172.605 202.335C172.274 202.112 172.149 201.799 172.228 201.396C173.35 195.418 174.209 191.452 174.806 189.497C175.099 188.564 175.194 187.835 175.092 187.309C174.978 186.799 174.648 186.468 174.102 186.316C173.45 186.141 172.977 186.219 172.682 186.549C172.376 186.896 172.087 187.699 171.814 188.958C171.775 189.124 171.642 189.696 171.415 190.673C171.205 191.662 171.095 192.165 171.084 192.181C170.692 193.938 170.352 195.476 170.063 196.797C170.029 196.99 169.986 197.178 169.936 197.36C169.238 200.641 168.786 202.934 168.579 204.238C168.465 204.979 168.594 205.607 168.967 206.123C169.346 206.667 169.861 206.991 170.513 207.094C171.154 207.214 171.794 207.104 172.432 206.764Z" fill="white" fill-opacity="0.3"/>
<path opacity="0.82" d="M418.718 188.382C418.704 188.424 418.691 188.467 418.677 188.509C418.443 189.229 418.173 189.843 417.867 190.352C417.533 190.876 417.164 191.329 416.758 191.712C416.353 192.095 415.849 192.493 415.247 192.906C415.191 192.935 415.103 192.988 414.984 193.067C414.865 193.145 414.788 193.202 414.753 193.237C413.842 193.807 413.143 194.376 412.654 194.943C412.166 195.509 411.708 196.308 411.279 197.339C410.54 199.252 410.61 201.019 411.488 202.638C412.359 204.279 413.811 205.464 415.844 206.195C417.856 206.919 419.725 206.929 421.451 206.226C423.177 205.523 424.364 204.212 425.011 202.293C425.362 201.213 425.524 200.353 425.498 199.713C425.465 199.093 425.245 198.331 424.837 197.426L424.815 197.384C424.293 196.255 424.007 195.226 423.958 194.297C423.908 193.368 424.107 192.216 424.554 190.84C424.582 190.755 424.617 190.685 424.658 190.628C424.714 190.529 424.749 190.458 424.762 190.416C424.357 189.863 423.512 189.366 422.228 188.926C420.453 193.451 420.443 196.327 422.198 197.552C422.276 197.601 422.34 197.657 422.389 197.72C422.432 197.804 422.465 197.884 422.486 197.962C422.48 198.053 422.474 198.145 422.467 198.236C422.44 198.321 422.402 198.402 422.353 198.48C422.241 198.608 422.098 198.69 421.922 198.726C421.746 198.763 421.584 198.722 421.435 198.603C420.593 198.025 420.038 197.213 419.77 196.166C418.799 197.138 417.732 197.611 416.571 197.584C416.388 197.572 416.236 197.499 416.115 197.366C415.987 197.254 415.93 197.107 415.943 196.924C415.934 196.734 415.996 196.578 416.129 196.458C416.262 196.337 416.42 196.283 416.603 196.296C417.117 196.299 417.654 196.122 418.215 195.766C418.747 195.424 419.187 194.97 419.535 194.405C419.548 194.362 419.569 194.334 419.597 194.32C419.642 192.743 420.099 190.832 420.969 188.587C420.313 188.444 419.717 188.367 419.182 188.357C419.02 188.352 418.866 188.36 418.718 188.382ZM420.195 186.861C420.872 186.94 421.601 187.107 422.385 187.362C423.154 187.588 423.828 187.854 424.407 188.159C424.622 187.644 424.783 187.076 424.891 186.456C424.945 186.146 424.964 185.871 424.948 185.632C424.955 185.611 424.962 185.589 424.968 185.568C424.656 185.233 424.133 184.934 423.399 184.672C422.665 184.41 421.992 184.32 421.38 184.402C421.212 184.488 421 184.817 420.744 185.389C420.626 185.679 420.495 186.01 420.35 186.385C420.316 186.49 420.274 186.617 420.226 186.766L420.195 186.861ZM403 205.532C404.511 205.204 405.768 204.793 406.771 204.3C406.855 204.257 406.946 204.228 407.044 204.213C407.115 204.213 407.192 204.226 407.277 204.254C407.334 204.296 407.401 204.341 407.479 204.39C407.55 204.459 407.599 204.522 407.628 204.578C407.685 204.691 407.718 204.807 407.726 204.926C407.712 205.039 407.678 205.145 407.622 205.244C407.546 205.336 407.451 205.41 407.339 205.468C406.252 206.004 404.89 206.451 403.252 206.808C403.175 206.83 403.094 206.827 403.01 206.799C402.918 206.793 402.844 206.769 402.787 206.727C402.709 206.678 402.649 206.612 402.606 206.528C402.556 206.465 402.521 206.395 402.499 206.317C402.441 206.135 402.472 205.969 402.59 205.82C402.688 205.665 402.824 205.569 403 205.532ZM434.055 201.685C433.12 201.826 432.276 201.973 431.524 202.127C431.349 202.164 431.197 202.126 431.069 202.014C430.914 201.917 430.818 201.78 430.781 201.605C430.745 201.429 430.786 201.267 430.904 201.118C431.002 200.962 431.135 200.877 431.304 200.862C432.056 200.708 432.913 200.554 433.876 200.399C434.052 200.362 434.218 200.393 434.373 200.49C434.501 200.602 434.583 200.745 434.619 200.921C434.656 201.097 434.625 201.262 434.528 201.418C434.41 201.567 434.252 201.656 434.055 201.685ZM408.589 193.516C407.876 193.191 407.181 192.485 406.504 191.399C406.411 191.252 406.396 191.083 406.458 190.893C406.491 190.717 406.582 190.582 406.729 190.49C406.876 190.397 407.048 190.371 407.246 190.412C407.415 190.467 407.546 190.568 407.639 190.715C408.159 191.563 408.663 192.101 409.15 192.33C409.313 192.406 409.426 192.525 409.491 192.686C409.555 192.847 409.55 193.009 409.473 193.172C409.39 193.355 409.268 193.48 409.107 193.544C408.924 193.602 408.752 193.593 408.589 193.516ZM429.09 212.429C429.182 212.506 429.26 212.59 429.324 212.681C429.381 212.793 429.403 212.906 429.39 213.018C429.376 213.131 429.342 213.237 429.287 213.336C429.231 213.435 429.158 213.516 429.067 213.581C428.954 213.638 428.842 213.66 428.729 213.646C428.617 213.633 428.5 213.595 428.38 213.533C426.98 212.657 425.891 211.613 425.115 210.401C425.001 210.247 424.961 210.082 424.995 209.905C425.029 209.729 425.119 209.595 425.266 209.502C425.378 209.445 425.494 209.412 425.614 209.404C425.712 209.39 425.822 209.413 425.942 209.476C426.041 209.531 426.122 209.605 426.186 209.696C426.877 210.739 427.845 211.651 429.09 212.429ZM413.976 190.984C414.69 190.514 415.225 190.056 415.581 189.609C415.93 189.185 416.235 188.57 416.496 187.765C416.778 186.897 417.319 186.277 418.119 185.905C418.146 185.821 418.174 185.736 418.201 185.651C418.352 185.186 418.504 184.79 418.657 184.465C419.252 183.137 419.982 182.368 420.846 182.157L420.92 182.146C422.03 181.969 423.207 182.129 424.45 182.626C425.678 183.096 426.528 183.723 426.998 184.508C427.233 184.865 427.301 185.484 427.202 186.364C427.11 187.224 426.906 188.07 426.588 188.903C427.2 189.757 427.242 190.672 426.715 191.647C426.474 192.388 426.331 193.009 426.285 193.509C426.233 194.03 426.257 194.494 426.359 194.902C426.454 195.331 426.637 195.847 426.909 196.45L426.931 196.492C427.446 197.642 427.732 198.671 427.788 199.579C427.823 200.48 427.617 201.618 427.17 202.994C426.31 205.57 424.74 207.342 422.459 208.309C420.158 209.27 417.694 209.289 415.069 208.365C412.45 207.421 410.562 205.848 409.405 203.646C408.248 201.445 408.16 199.052 409.14 196.469C409.693 195.197 410.291 194.186 410.933 193.435C411.568 192.705 412.421 191.988 413.492 191.283C413.542 191.276 413.629 191.222 413.755 191.123C413.846 191.059 413.92 191.012 413.976 190.984ZM413.338 212.718C413.689 211.568 413.96 210.732 414.154 210.209C414.209 210.04 414.32 209.912 414.489 209.827C414.65 209.762 414.815 209.757 414.985 209.812C415.154 209.867 415.282 209.979 415.367 210.147C415.432 210.309 415.437 210.474 415.382 210.644C415.189 211.166 414.924 211.981 414.587 213.089C414.532 213.258 414.435 213.378 414.294 213.45C414.126 213.536 413.954 213.561 413.778 213.528C413.672 213.493 413.576 213.427 413.491 213.329C413.399 213.252 413.349 213.154 413.341 213.035C413.305 212.929 413.304 212.824 413.338 212.718Z" fill="white" fill-opacity="0.3"/>
<path opacity="0.82" d="M698.389 151.6C698.023 150.934 697.806 150.289 697.738 149.666C697.693 149.042 697.8 148.487 698.058 148C698.329 147.525 698.765 147.153 699.365 146.886C700.185 146.523 700.979 146.553 701.746 146.974C702.524 147.382 703.125 148.036 703.551 148.936C704.304 150.445 705.386 152.711 706.797 155.734C708.221 158.768 709.077 160.674 709.366 161.45C709.699 162.379 709.711 163.288 709.403 164.179C709.095 165.07 708.521 165.732 707.681 166.167C706.853 166.612 705.917 166.679 704.872 166.367C703.803 166.033 701.93 165.38 699.255 164.41C699.122 164.357 698.972 164.3 698.803 164.238C697.742 163.845 696.506 163.383 695.096 162.854C695.06 162.844 694.65 162.689 693.865 162.387C693.094 162.096 692.641 161.925 692.509 161.873C691.112 161.379 690.182 160.789 689.721 160.104C689.261 159.443 689.252 158.604 689.695 157.588C690.486 155.761 692.094 155.423 694.518 156.572C695.827 157.189 698.377 158.149 702.169 159.452C700.184 155.17 698.923 152.553 698.389 151.6ZM707.886 161.971C707.624 161.24 706.781 159.37 705.358 156.359C703.959 153.347 702.89 151.104 702.151 149.63C701.873 149.065 701.539 148.663 701.148 148.423C700.757 148.184 700.377 148.145 700.007 148.306C699.117 148.695 699.038 149.545 699.768 150.854C700.37 151.957 701.903 155.157 704.367 160.454C704.513 160.765 704.469 161.051 704.235 161.312C704.011 161.56 703.737 161.627 703.412 161.514C698.587 159.888 695.399 158.713 693.848 157.991C693.108 157.639 692.515 157.475 692.067 157.499C691.631 157.533 691.318 157.769 691.128 158.204C690.907 158.724 690.917 159.125 691.156 159.408C691.408 159.702 692.04 160.036 693.052 160.408C693.185 160.46 693.644 160.637 694.428 160.939C695.223 161.228 695.627 161.379 695.639 161.39C697.05 161.919 698.286 162.38 699.347 162.773C699.503 162.824 699.654 162.881 699.799 162.945C702.438 163.906 704.286 164.548 705.343 164.871C705.944 165.052 706.48 165.018 706.951 164.769C707.447 164.518 707.775 164.129 707.936 163.6C708.11 163.083 708.094 162.54 707.886 161.971Z" fill="white" fill-opacity="0.3"/>
<path opacity="0.88" d="M1160.27 49.8697C1160.9 52.6134 1160.25 55.4078 1158.32 58.253C1156.99 60.1972 1155.1 61.3702 1152.63 61.7718C1153.02 63.1838 1152.75 64.5186 1151.83 65.7764C1153.14 66.3754 1154.27 67.2386 1155.23 68.366C1155.94 69.2363 1156.49 70.2474 1156.86 71.3994C1157.21 72.5756 1157.35 73.7734 1157.28 74.9928C1157.21 76.2498 1156.93 77.4171 1156.43 78.4949C1155.83 79.8033 1155.05 80.9189 1154.1 81.8417C1155.69 81.6499 1157.27 81.359 1158.84 80.9689C1160.44 80.5922 1161.81 80.1688 1162.95 79.6987C1164.08 79.2528 1164.84 78.8219 1165.23 78.4061C1165.89 77.7302 1166.19 77.1068 1166.12 76.536C1166.06 75.9653 1165.62 75.5329 1164.81 75.2389C1164.45 75.1374 1164.2 74.9165 1164.04 74.5763C1163.89 74.2736 1163.87 73.9454 1163.97 73.5915C1164.1 73.2511 1164.32 72.9949 1164.63 72.8231C1164.96 72.6888 1165.29 72.6844 1165.63 72.8101C1167.46 73.4435 1168.48 74.4997 1168.7 75.9788C1168.91 77.4821 1168.38 78.9043 1167.1 80.2455C1165.92 81.4552 1163.29 82.5538 1159.21 83.5413C1155.16 84.542 1151.6 84.8912 1148.55 84.5885C1148.37 84.5807 1148.19 84.5299 1148.02 84.4363C1147.11 84.4345 1146.17 84.296 1145.22 84.0209C1141.47 82.9472 1139.04 81.0534 1137.96 78.3397C1137.28 76.6064 1137.18 74.6877 1137.65 72.5835C1138.04 70.6858 1139 68.9603 1140.52 67.4072C1142.03 65.8782 1143.68 65.0284 1145.48 64.8579C1146.63 64.771 1147.73 64.7928 1148.76 64.9231C1148.77 64.899 1148.8 64.8694 1148.86 64.8346C1150.01 63.8955 1150.24 62.8742 1149.56 61.7707C1146.32 61.2995 1143.73 59.6578 1141.78 56.8458C1140.86 55.5469 1140.46 53.9795 1140.56 52.1437C1140.62 50.3186 1141.18 48.6069 1142.22 47.0087C1143.35 45.2657 1144.83 44.0074 1146.68 43.2338C1148.51 42.4843 1150.51 42.3592 1152.66 42.8583C1154.05 43.1892 1155.29 43.7173 1156.37 44.4426C1160.32 46.6605 1163.78 49.0061 1166.76 51.4795C1169.75 53.9529 1171.52 55.8995 1172.09 57.3193C1172.35 57.9355 1172.46 58.5826 1172.43 59.2606C1172.41 59.9387 1172.24 60.5431 1171.95 61.074C1171.67 61.6425 1171.29 62.1145 1170.83 62.4901C1170.38 62.9032 1169.82 63.157 1169.13 63.2515C1168.45 63.3459 1167.74 63.2662 1167 63.0123C1166.84 62.9562 1166.7 62.8639 1166.58 62.7354C1166.45 62.631 1166.35 62.4971 1166.28 62.3337C1166.2 62.1944 1166.15 62.0376 1166.12 61.8635C1166.11 61.7027 1166.14 61.5432 1166.19 61.385C1166.29 61.1545 1166.43 60.9627 1166.61 60.8098C1166.77 60.681 1166.97 60.5843 1167.19 60.5198C1167.43 60.4928 1167.65 60.5207 1167.86 60.6036C1168.55 60.8307 1169.1 60.6627 1169.51 60.0995C1169.93 59.5739 1169.99 58.9775 1169.7 58.3105C1169.38 57.5068 1168.36 56.3085 1166.63 54.7156C1164.88 53.1469 1162.76 51.5316 1160.27 49.8697ZM1150.79 59.0441C1151.85 59.0645 1152.84 58.872 1153.76 58.4664C1154.68 58.0609 1155.41 57.4558 1155.95 56.6514C1156.83 55.4044 1157.36 54.155 1157.55 52.9033C1157.75 51.6891 1157.64 50.6038 1157.23 49.6475C1156.8 48.7153 1156.14 47.8785 1155.26 47.137C1154.4 46.4088 1153.32 45.906 1152.02 45.6286C1150.48 45.279 1149.07 45.3607 1147.77 45.8738C1146.46 46.411 1145.4 47.3045 1144.58 48.5541C1144.11 49.2996 1143.76 50.0878 1143.56 50.9188C1143.35 51.7497 1143.3 52.5444 1143.42 53.3027C1143.51 54.0476 1143.73 54.6933 1144.09 55.2396C1145.63 57.4169 1147.62 58.6625 1150.07 58.9764C1150.32 58.9253 1150.56 58.9478 1150.79 59.0441ZM1153.83 77.2914C1154.36 76.1654 1154.55 74.9137 1154.39 73.5363C1154.23 72.1831 1153.78 71.0647 1153.04 70.181C1151.4 68.2343 1148.97 67.4085 1145.75 67.7037C1144.58 67.8147 1143.48 68.416 1142.43 69.5078C1141.37 70.6236 1140.71 71.849 1140.44 73.1838C1140.08 74.7493 1140.13 76.1039 1140.6 77.2478C1141.34 79.1069 1143.13 80.4492 1145.99 81.2746C1147.73 81.7687 1149.29 81.6373 1150.66 80.8802C1152.01 80.1473 1153.07 78.951 1153.83 77.2914Z" fill="white" fill-opacity="0.3"/>
<path opacity="0.83" d="M-0.375869 126.599C1.61163 125.111 4.09738 124.632 7.08138 125.162C9.12589 125.536 10.7519 126.644 11.9594 128.484C12.9595 127.668 14.1312 127.404 15.4745 127.692C15.4879 126.423 15.778 125.202 16.3449 124.029C16.7893 123.14 17.4092 122.338 18.2047 121.626C19.0245 120.916 19.9395 120.373 20.95 119.997C21.9868 119.599 23.0298 119.409 24.079 119.427C25.3486 119.441 26.5264 119.666 27.6123 120.103C26.8875 118.891 26.0856 117.721 25.2067 116.593C24.33 115.441 23.4969 114.489 22.7075 113.735C21.9423 112.984 21.3225 112.527 20.848 112.363C20.0668 112.075 19.4573 112.058 19.0195 112.313C18.5817 112.568 18.3906 113.077 18.4461 113.839C18.4913 114.161 18.4052 114.446 18.1878 114.696C17.9968 114.924 17.7405 115.06 17.4189 115.106C17.0993 115.126 16.8136 115.04 16.5617 114.847C16.3361 114.632 16.2129 114.365 16.192 114.045C16.0473 112.346 16.5315 111.142 17.6443 110.433C18.7815 109.726 20.1202 109.648 21.6606 110.198C23.0576 110.711 24.8862 112.435 27.1466 115.37C29.4091 118.281 30.9658 121.02 31.8164 123.587C31.8765 123.739 31.8991 123.899 31.8842 124.069C32.2107 124.806 32.4339 125.608 32.5536 126.474C33.0369 129.889 32.3791 132.519 30.5801 134.366C29.4269 135.536 27.9175 136.308 26.0519 136.682C24.3824 137.049 22.6483 136.898 20.8496 136.227C19.0752 135.559 17.7967 134.53 17.0139 133.142C16.5303 132.245 16.1559 131.357 15.8906 130.478C15.8664 130.476 15.8311 130.461 15.7847 130.432C14.6145 129.841 13.707 130.018 13.0622 130.964C13.8453 133.745 13.4521 136.423 11.8827 138.998C11.166 140.207 10.0493 141.099 8.53264 141.675C7.03807 142.277 5.45937 142.444 3.79654 142.177C1.98819 141.896 0.440554 141.15 -0.846372 139.938C-2.10904 138.727 -2.92547 137.165 -3.29565 135.251C-3.5291 134.009 -3.54745 132.822 -3.35071 131.691C-2.97848 127.715 -2.33067 124.082 -1.40728 120.79C-0.483898 117.498 0.447838 115.368 1.38792 114.4C1.79203 113.971 2.27254 113.646 2.82944 113.426C3.38634 113.206 3.93157 113.119 4.46513 113.166C5.02507 113.19 5.53907 113.321 6.00716 113.557C6.50161 113.772 6.90952 114.137 7.23087 114.654C7.55223 115.171 7.74383 115.774 7.80568 116.464C7.8172 116.612 7.79235 116.756 7.73111 116.897C7.69413 117.041 7.62182 117.169 7.5142 117.282C7.43084 117.396 7.32428 117.497 7.19452 117.584C7.0669 117.646 6.92926 117.683 6.78162 117.694C6.56123 117.699 6.3572 117.657 6.16954 117.567C6.00614 117.48 5.85804 117.357 5.72526 117.198C5.61885 117.018 5.562 116.83 5.55472 116.634C5.48863 115.992 5.1556 115.609 4.55565 115.483C3.98207 115.335 3.47898 115.499 3.04638 115.974C2.5104 116.514 1.91182 117.769 1.25065 119.74C0.613739 121.712 0.0715644 123.999 -0.375869 126.599ZM10.4238 130.953C10.0594 130.09 9.54884 129.361 8.8922 128.766C8.23554 128.171 7.48598 127.8 6.6435 127.653C5.32232 127.391 4.12333 127.408 3.04651 127.705C1.99607 127.979 1.16011 128.456 0.53864 129.135C-0.0585761 129.816 -0.497693 130.645 -0.778711 131.622C-1.05761 132.575 -1.07609 133.625 -0.834153 134.77C-0.562809 136.138 0.0118417 137.251 0.889801 138.11C1.79201 138.971 2.8937 139.507 4.19486 139.719C4.96671 139.835 5.72491 139.828 6.46947 139.698C7.21403 139.568 7.87112 139.32 8.44076 138.954C9.00827 138.613 9.44769 138.199 9.75903 137.713C10.9622 135.692 11.2517 133.64 10.6275 131.557C10.4968 131.375 10.4289 131.173 10.4238 130.953ZM24.0413 121.953C22.9436 121.931 21.8667 122.227 20.8108 122.844C19.7792 123.462 19.0401 124.229 18.5936 125.143C17.6107 127.158 17.8168 129.412 19.2116 131.905C19.7194 132.805 20.6012 133.481 21.8569 133.933C23.1368 134.387 24.3626 134.482 25.5343 134.218C26.9264 133.948 27.9992 133.419 28.7525 132.63C29.987 131.369 30.4246 129.44 30.0653 126.843C29.8373 125.259 29.1731 124.052 28.0726 123.223C26.9963 122.395 25.6526 121.972 24.0413 121.953Z" fill="white" fill-opacity="0.3"/>
<path opacity="0.89" d="M164.407 528.028C165.186 528.787 165.753 529.578 166.106 530.402C166.428 531.237 166.514 532.041 166.365 532.815C166.193 533.578 165.753 534.268 165.043 534.886C164.072 535.725 162.974 536.016 161.749 535.761C160.514 535.528 159.418 534.885 158.459 533.832C156.798 532.082 154.37 529.435 151.175 525.89C147.958 522.334 145.989 520.086 145.269 519.144C144.426 518.013 144.029 516.774 144.078 515.426C144.126 514.079 144.635 512.932 145.602 511.987C146.548 511.031 147.801 510.549 149.361 510.538C150.964 510.548 153.798 510.657 157.864 510.867C158.067 510.882 158.297 510.897 158.554 510.912C160.17 511.007 162.054 511.121 164.205 511.254C164.258 511.253 164.884 511.294 166.083 511.379C167.261 511.454 167.951 511.499 168.154 511.515C170.272 511.607 171.79 512.025 172.708 512.769C173.614 513.481 173.977 514.625 173.796 516.201C173.478 519.03 171.42 520.165 167.622 519.607C165.574 519.31 161.683 519.064 155.951 518.868C160.458 523.895 163.277 526.948 164.407 528.028ZM147.076 517.812C147.741 518.702 149.676 520.909 152.882 524.433C156.055 527.968 158.456 530.589 160.084 532.297C160.7 532.953 161.326 533.364 161.961 533.528C162.596 533.692 163.132 533.587 163.571 533.212C164.625 532.307 164.379 531.111 162.832 529.626C161.547 528.368 158.112 524.632 152.525 518.417C152.195 518.052 152.135 517.642 152.347 517.187C152.549 516.755 152.896 516.547 153.388 516.566C160.67 516.773 165.522 517.046 167.946 517.386C169.105 517.558 169.986 517.534 170.589 517.314C171.17 517.084 171.5 516.632 171.577 515.957C171.662 515.153 171.482 514.608 171.036 514.321C170.568 514.024 169.564 513.832 168.023 513.746C167.82 513.73 167.118 513.68 165.92 513.595C164.71 513.532 164.095 513.496 164.074 513.485C161.922 513.352 160.039 513.238 158.423 513.143C158.188 513.139 157.958 513.124 157.733 513.098C153.72 512.887 150.923 512.782 149.342 512.782C148.445 512.785 147.726 513.056 147.185 513.594C146.612 514.144 146.326 514.814 146.326 515.605C146.305 516.386 146.555 517.121 147.076 517.812Z" fill="white" fill-opacity="0.3"/>
<path opacity="0.74" d="M967.639 389.434C966.499 389.589 965.47 389.546 964.553 389.305C963.647 389.029 962.92 388.577 962.372 387.948C961.848 387.308 961.559 386.49 961.506 385.496C961.439 384.14 961.911 383.035 962.922 382.179C963.921 381.301 965.172 380.806 966.675 380.693C969.216 380.448 973.006 380.147 978.044 379.793C983.105 379.427 986.262 379.25 987.517 379.263C989.009 379.297 990.301 379.773 991.394 380.692C992.486 381.61 993.11 382.781 993.268 384.204C993.448 385.615 993.035 386.975 992.028 388.282C990.975 389.613 989.037 391.905 986.214 395.159C986.068 395.318 985.905 395.5 985.726 395.705C984.594 396.991 983.272 398.487 981.759 400.194C981.725 400.24 981.283 400.735 980.431 401.679C979.602 402.612 979.114 403.159 978.968 403.318C977.512 405.024 976.175 406.018 974.956 406.298C973.771 406.59 972.581 406.147 971.386 404.969C969.233 402.861 969.627 400.405 972.567 397.602C974.149 396.087 976.89 393.003 980.788 388.351C973.659 388.834 969.277 389.195 967.639 389.434ZM987.45 381.637C986.275 381.612 983.173 381.788 978.147 382.166C973.131 382.509 969.381 382.803 966.896 383.048C965.947 383.134 965.197 383.388 964.647 383.811C964.096 384.233 963.834 384.749 963.862 385.36C963.929 386.828 965.087 387.402 967.333 387.08C969.219 386.828 974.573 386.397 983.396 385.788C983.916 385.75 984.296 385.967 984.537 386.44C984.766 386.891 984.713 387.315 984.377 387.713C979.46 393.65 976.07 397.519 974.208 399.319C973.31 400.173 972.756 400.924 972.547 401.57C972.359 402.204 972.522 402.773 973.034 403.278C973.649 403.873 974.221 404.077 974.751 403.892C975.304 403.696 976.118 402.984 977.193 401.755C977.339 401.595 977.838 401.043 978.69 400.099C979.53 399.132 979.961 398.642 979.984 398.631C981.497 396.924 982.819 395.428 983.951 394.142C984.108 393.949 984.27 393.766 984.439 393.596C987.229 390.387 989.139 388.123 990.168 386.804C990.75 386.054 990.993 385.278 990.897 384.476C990.811 383.64 990.439 382.965 989.779 382.45C989.142 381.924 988.366 381.653 987.45 381.637Z" fill="white" fill-opacity="0.3"/>
<path opacity="0.72" d="M1018.53 232.456C1018.49 232.426 1018.45 232.396 1018.4 232.365C1017.7 231.851 1017.12 231.335 1016.67 230.816C1016.21 230.262 1015.84 229.694 1015.57 229.111C1015.29 228.528 1015.03 227.832 1014.79 227.022C1014.78 226.951 1014.76 226.835 1014.71 226.676C1014.67 226.517 1014.63 226.412 1014.61 226.361C1014.31 225.156 1013.93 224.184 1013.48 223.444C1013.03 222.704 1012.32 221.915 1011.34 221.075C1009.5 219.579 1007.53 219.025 1005.44 219.412C1003.32 219.784 1001.5 220.957 999.968 222.931C998.453 224.885 997.774 226.936 997.93 229.085C998.087 231.235 999.104 233.008 1000.98 234.406C1002.05 235.177 1002.93 235.663 1003.65 235.863C1004.34 236.049 1005.26 236.078 1006.4 235.953L1006.45 235.944C1007.88 235.773 1009.11 235.827 1010.15 236.104C1011.19 236.382 1012.39 237.013 1013.74 237.996C1013.82 238.056 1013.89 238.12 1013.94 238.186C1014.03 238.282 1014.09 238.346 1014.13 238.376C1014.89 238.128 1015.73 237.376 1016.68 236.121C1012.34 232.553 1009.18 231.514 1007.2 233.006C1007.12 233.075 1007.04 233.125 1006.95 233.157C1006.84 233.174 1006.74 233.181 1006.65 233.177C1006.55 233.137 1006.45 233.098 1006.35 233.058C1006.27 232.997 1006.19 232.926 1006.13 232.845C1006.03 232.677 1005.99 232.489 1006.01 232.283C1006.03 232.077 1006.14 231.913 1006.32 231.792C1007.26 231.073 1008.35 230.752 1009.59 230.831C1008.87 229.416 1008.73 228.075 1009.18 226.807C1009.26 226.61 1009.39 226.469 1009.58 226.384C1009.75 226.283 1009.93 226.273 1010.13 226.352C1010.34 226.411 1010.49 226.534 1010.57 226.724C1010.66 226.913 1010.66 227.106 1010.58 227.303C1010.4 227.867 1010.4 228.52 1010.59 229.264C1010.78 229.972 1011.12 230.618 1011.61 231.202C1011.66 231.232 1011.68 231.265 1011.69 231.301C1013.4 231.914 1015.34 233.099 1017.5 234.858C1017.89 234.188 1018.19 233.56 1018.39 232.976C1018.45 232.799 1018.5 232.626 1018.53 232.456ZM1019.67 234.624C1019.35 235.339 1018.9 236.082 1018.34 236.853C1017.82 237.617 1017.28 238.264 1016.74 238.792C1017.23 239.212 1017.8 239.592 1018.44 239.932C1018.76 240.102 1019.06 240.221 1019.33 240.289C1019.35 240.304 1019.37 240.32 1019.39 240.335C1019.87 240.111 1020.39 239.643 1020.94 238.929C1021.49 238.215 1021.83 237.508 1021.95 236.805C1021.92 236.59 1021.63 236.239 1021.1 235.753C1020.82 235.52 1020.5 235.257 1020.14 234.964C1020.04 234.889 1019.91 234.798 1019.77 234.692L1019.67 234.624ZM1005.29 209.044C1005.11 210.822 1005.11 212.351 1005.29 213.63C1005.31 213.738 1005.31 213.849 1005.29 213.962C1005.27 214.04 1005.22 214.12 1005.16 214.204C1005.1 214.251 1005.02 214.309 1004.94 214.377C1004.84 214.43 1004.75 214.462 1004.68 214.474C1004.54 214.496 1004.4 214.491 1004.26 214.457C1004.14 214.402 1004.04 214.326 1003.95 214.23C1003.88 214.113 1003.83 213.982 1003.81 213.838C1003.61 212.451 1003.6 210.794 1003.79 208.866C1003.8 208.773 1003.83 208.685 1003.89 208.602C1003.93 208.503 1003.98 208.43 1004.05 208.383C1004.13 208.315 1004.22 208.272 1004.33 208.255C1004.42 208.223 1004.51 208.209 1004.6 208.212C1004.82 208.214 1004.99 208.307 1005.12 208.49C1005.25 208.653 1005.31 208.837 1005.29 209.044ZM998.42 244.568C998.6 243.489 998.739 242.509 998.839 241.627C998.862 241.421 998.957 241.268 999.125 241.168C999.288 241.031 999.473 240.974 999.679 240.997C999.885 241.02 1000.05 241.123 1000.17 241.306C1000.31 241.469 1000.35 241.646 1000.31 241.837C1000.21 242.719 1000.07 243.717 999.899 244.831C999.877 245.038 999.784 245.209 999.621 245.345C999.453 245.446 999.266 245.484 999.059 245.462C998.853 245.439 998.682 245.347 998.545 245.184C998.424 245 998.383 244.795 998.42 244.568ZM1016.5 219.483C1017.12 218.815 1018.14 218.303 1019.58 217.946C1019.77 217.897 1019.96 217.94 1020.15 218.077C1020.33 218.177 1020.45 218.324 1020.5 218.519C1020.54 218.714 1020.51 218.913 1020.4 219.115C1020.28 219.282 1020.12 219.39 1019.92 219.439C1018.8 219.708 1018.03 220.07 1017.61 220.524C1017.47 220.676 1017.29 220.758 1017.09 220.771C1016.89 220.785 1016.72 220.721 1016.57 220.579C1016.39 220.422 1016.3 220.243 1016.29 220.042C1016.29 219.821 1016.36 219.635 1016.5 219.483ZM988.38 235.269C988.262 235.343 988.142 235.399 988.019 235.437C987.876 235.459 987.744 235.443 987.625 235.389C987.506 235.334 987.401 235.258 987.312 235.162C987.223 235.065 987.16 234.955 987.122 234.833C987.099 234.689 987.115 234.557 987.17 234.438C987.225 234.319 987.308 234.204 987.42 234.094C988.884 232.868 990.421 232.044 992.031 231.623C992.241 231.553 992.437 231.568 992.618 231.668C992.8 231.768 992.916 231.916 992.965 232.111C992.988 232.254 992.982 232.394 992.948 232.528C992.929 232.641 992.864 232.753 992.752 232.863C992.656 232.952 992.546 233.015 992.423 233.053C991.029 233.44 989.681 234.178 988.38 235.269ZM1017.36 226.312C1017.62 227.265 1017.94 228.017 1018.3 228.568C1018.64 229.103 1019.21 229.658 1020 230.233C1020.86 230.853 1021.34 231.669 1021.47 232.682C1021.55 232.742 1021.63 232.803 1021.72 232.863C1022.18 233.196 1022.56 233.504 1022.86 233.788C1024.11 234.917 1024.69 235.994 1024.61 237.02L1024.6 237.105C1024.4 238.39 1023.8 239.627 1022.81 240.816C1021.86 241.999 1020.86 242.709 1019.83 242.946C1019.35 243.076 1018.65 242.93 1017.72 242.507C1016.8 242.099 1015.95 241.571 1015.14 240.924C1013.99 241.292 1012.97 241.011 1012.08 240.083C1011.35 239.553 1010.72 239.174 1010.19 238.946C1009.63 238.702 1009.11 238.563 1008.63 238.529C1008.12 238.48 1007.49 238.497 1006.73 238.581L1006.68 238.59C1005.23 238.745 1003.99 238.692 1002.98 238.43C1001.97 238.146 1000.79 237.513 999.441 236.53C996.916 234.663 995.529 232.303 995.28 229.45C995.046 226.576 995.905 223.86 997.859 221.303C999.833 218.761 1002.24 217.247 1005.07 216.761C1007.91 216.275 1010.57 217.033 1013.06 219.034C1014.26 220.096 1015.16 221.115 1015.75 222.089C1016.33 223.048 1016.81 224.243 1017.21 225.673C1017.2 225.73 1017.22 225.845 1017.29 226.019C1017.33 226.142 1017.35 226.24 1017.36 226.312ZM993.69 217.845C994.83 218.641 995.652 219.239 996.158 219.638C996.324 219.759 996.425 219.927 996.459 220.143C996.472 220.343 996.418 220.527 996.297 220.693C996.176 220.86 996.008 220.96 995.792 220.995C995.592 221.008 995.408 220.954 995.241 220.833C994.736 220.434 993.934 219.852 992.837 219.086C992.67 218.965 992.572 218.814 992.544 218.635C992.51 218.419 992.543 218.22 992.643 218.039C992.719 217.934 992.826 217.853 992.964 217.794C993.081 217.72 993.207 217.701 993.341 217.735C993.47 217.733 993.586 217.769 993.69 217.845Z" fill="white" fill-opacity="0.3"/>
<path opacity="0.75" d="M519.739 377.357C519.745 377.316 519.752 377.275 519.758 377.233C519.869 376.533 520.029 375.924 520.238 375.408C520.47 374.874 520.746 374.4 521.065 373.986C521.384 373.572 521.792 373.129 522.289 372.659C522.337 372.624 522.41 372.562 522.509 372.472C522.608 372.382 522.671 372.318 522.698 372.28C523.458 371.618 524.022 370.989 524.391 370.393C524.76 369.796 525.068 368.989 525.314 367.972C525.717 366.092 525.393 364.467 524.343 363.096C523.295 361.705 521.777 360.82 519.788 360.442C517.819 360.066 516.087 360.331 514.591 361.235C513.096 362.139 512.19 363.527 511.872 365.399C511.705 366.451 511.681 367.271 511.799 367.86C511.92 368.428 512.236 369.102 512.747 369.88L512.773 369.915C513.422 370.885 513.838 371.795 514.02 372.648C514.201 373.501 514.186 374.597 513.974 375.937C513.961 376.019 513.939 376.09 513.909 376.148C513.872 376.248 513.85 376.319 513.844 376.36C514.3 376.813 515.156 377.149 516.409 377.369C517.389 372.918 516.976 370.254 515.172 369.376C515.093 369.343 515.025 369.3 514.97 369.249C514.918 369.178 514.876 369.108 514.845 369.039C514.837 368.954 514.83 368.868 514.822 368.782C514.835 368.7 514.859 368.619 514.892 368.54C514.977 368.405 515.098 368.308 515.255 368.249C515.413 368.189 515.569 368.203 515.724 368.291C516.588 368.703 517.222 369.374 517.624 370.303C518.38 369.261 519.298 368.667 520.378 368.521C520.549 368.506 520.7 368.551 520.832 368.657C520.966 368.741 521.041 368.869 521.056 369.041C521.092 369.215 521.057 369.368 520.952 369.5C520.846 369.631 520.708 369.704 520.537 369.719C520.06 369.791 519.589 370.034 519.122 370.446C518.679 370.84 518.339 371.325 518.1 371.9C518.093 371.941 518.078 371.971 518.054 371.988C518.244 373.455 518.101 375.291 517.625 377.498C518.253 377.534 518.816 377.517 519.313 377.448C519.463 377.43 519.605 377.399 519.739 377.357ZM518.594 378.982C517.956 379.008 517.256 378.96 516.493 378.84C515.748 378.743 515.085 378.595 514.503 378.398C514.381 378.906 514.315 379.456 514.306 380.046C514.301 380.341 514.324 380.598 514.374 380.817C514.37 380.838 514.367 380.859 514.364 380.879C514.702 381.144 515.231 381.344 515.949 381.479C516.667 381.614 517.303 381.598 517.857 381.432C518.001 381.328 518.149 380.993 518.302 380.425C518.368 380.14 518.441 379.814 518.521 379.446C518.537 379.343 518.557 379.219 518.579 379.075L518.594 378.982ZM531.778 359.172C530.427 359.697 529.324 360.262 528.467 360.866C528.396 360.918 528.315 360.958 528.226 360.986C528.161 360.997 528.088 360.996 528.005 360.983C527.947 360.952 527.878 360.92 527.799 360.886C527.723 360.832 527.667 360.781 527.633 360.733C527.563 360.638 527.516 360.535 527.491 360.426C527.487 360.319 527.503 360.216 527.54 360.117C527.598 360.02 527.674 359.937 527.77 359.868C528.698 359.212 529.893 358.598 531.357 358.027C531.425 357.996 531.501 357.987 531.583 358C531.669 357.992 531.741 358.004 531.8 358.034C531.879 358.068 531.945 358.12 531.997 358.192C532.052 358.243 532.095 358.303 532.127 358.371C532.207 358.532 532.203 358.69 532.115 358.845C532.048 359.003 531.935 359.112 531.778 359.172ZM503.586 367.288C504.432 367.02 505.191 366.76 505.865 366.508C506.022 366.448 506.168 366.461 506.303 366.546C506.461 366.613 506.57 366.725 506.63 366.883C506.689 367.04 506.675 367.196 506.587 367.351C506.52 367.51 506.409 367.608 506.255 367.647C505.581 367.9 504.81 368.168 503.941 368.453C503.783 368.513 503.626 368.509 503.467 368.442C503.333 368.357 503.236 368.236 503.176 368.079C503.116 367.921 503.12 367.763 503.188 367.605C503.276 367.45 503.409 367.344 503.586 367.288ZM528.365 371.117C529.073 371.314 529.82 371.866 530.606 372.772C530.714 372.894 530.753 373.048 530.723 373.234C530.718 373.402 530.654 373.54 530.531 373.647C530.408 373.755 530.253 373.804 530.064 373.795C529.899 373.769 529.763 373.695 529.656 373.572C529.05 372.863 528.504 372.439 528.019 372.299C527.858 372.252 527.735 372.159 527.652 372.019C527.568 371.879 527.55 371.728 527.597 371.566C527.647 371.384 527.741 371.251 527.881 371.168C528.042 371.087 528.203 371.071 528.365 371.117ZM506.609 356.611C506.512 356.554 506.427 356.487 506.355 356.413C506.285 356.317 506.249 356.216 506.244 356.11C506.24 356.004 506.256 355.9 506.293 355.801C506.33 355.701 506.386 355.615 506.461 355.542C506.556 355.473 506.657 355.436 506.764 355.432C506.87 355.427 506.983 355.445 507.104 355.485C508.529 356.091 509.69 356.899 510.587 357.907C510.715 358.033 510.776 358.18 510.77 358.348C510.765 358.516 510.701 358.654 510.578 358.761C510.483 358.831 510.38 358.878 510.27 358.903C510.181 358.931 510.077 358.925 509.956 358.884C509.857 358.848 509.77 358.792 509.698 358.717C508.905 357.852 507.875 357.15 506.609 356.611ZM523.748 374.253C523.156 374.793 522.728 375.295 522.464 375.76C522.203 376.205 522.011 376.819 521.887 377.602C521.753 378.447 521.343 379.101 520.657 379.562C520.644 379.645 520.631 379.727 520.618 379.81C520.546 380.263 520.464 380.652 520.37 380.975C520.014 382.292 519.451 383.111 518.682 383.433L518.615 383.454C517.612 383.781 516.499 383.805 515.276 383.527C514.069 383.273 513.191 382.817 512.64 382.159C512.37 381.863 512.216 381.3 512.179 380.47C512.138 379.66 512.203 378.847 512.375 378.029C511.683 377.328 511.51 376.487 511.856 375.506C511.97 374.785 512.011 374.189 511.98 373.72C511.952 373.229 511.861 372.803 511.707 372.441C511.557 372.057 511.311 371.607 510.971 371.088L510.945 371.052C510.299 370.062 509.883 369.151 509.698 368.319C509.534 367.49 509.557 366.406 509.77 365.066C510.188 362.555 511.383 360.684 513.352 359.454C515.342 358.227 517.621 357.848 520.187 358.318C522.751 358.809 524.729 359.988 526.124 361.857C527.518 363.726 527.951 365.928 527.422 368.464C527.096 369.723 526.691 370.747 526.207 371.536C525.726 372.305 525.041 373.095 524.152 373.904C524.108 373.919 524.034 373.981 523.932 374.092C523.857 374.164 523.796 374.218 523.748 374.253ZM521.151 354.034C520.995 355.15 520.867 355.964 520.764 356.476C520.738 356.641 520.653 356.776 520.51 356.88C520.37 356.963 520.218 356.992 520.053 356.966C519.888 356.94 519.754 356.855 519.649 356.712C519.566 356.572 519.537 356.419 519.563 356.255C519.666 355.743 519.791 354.949 519.94 353.874C519.967 353.709 520.039 353.583 520.159 353.497C520.302 353.393 520.458 353.343 520.626 353.349C520.729 353.365 520.827 353.412 520.92 353.49C521.017 353.548 521.078 353.632 521.102 353.741C521.151 353.833 521.167 353.931 521.151 354.034Z" fill="white" fill-opacity="0.3"/>
<path opacity="0.76" d="M623.336 197.184C620.815 197.994 618.142 197.614 615.316 196.043C613.384 194.956 612.129 193.274 611.55 190.998C610.258 191.475 608.985 191.334 607.73 190.576C607.276 191.852 606.559 192.983 605.58 193.968C604.823 194.711 603.92 195.304 602.87 195.746C601.797 196.178 600.685 196.408 599.535 196.436C598.351 196.478 597.234 196.307 596.182 195.924C594.906 195.47 593.796 194.833 592.853 194.015C593.163 195.49 593.566 196.948 594.06 198.39C594.545 199.857 595.054 201.107 595.588 202.141C596.099 203.164 596.566 203.841 596.987 204.171C597.675 204.733 598.284 204.961 598.814 204.856C599.344 204.751 599.713 204.304 599.922 203.516C599.988 203.176 600.175 202.918 600.48 202.741C600.752 202.578 601.058 202.529 601.398 202.596C601.728 202.685 601.986 202.871 602.173 203.154C602.326 203.449 602.357 203.762 602.267 204.091C601.823 205.855 600.917 206.901 599.548 207.23C598.156 207.548 596.778 207.162 595.416 206.072C594.185 205.069 592.94 202.695 591.679 198.951C590.408 195.229 589.789 191.926 589.823 189.042C589.815 188.868 589.848 188.698 589.922 188.532C589.849 187.675 589.902 186.789 590.082 185.874C590.78 182.262 592.357 179.838 594.813 178.6C596.382 177.821 598.173 177.566 600.184 177.836C601.996 178.046 603.692 178.801 605.273 180.102C606.83 181.392 607.763 182.873 608.07 184.545C608.246 185.618 608.315 186.644 608.278 187.622C608.302 187.633 608.332 187.661 608.369 187.705C609.344 188.708 610.32 188.844 611.299 188.115C611.475 185.038 612.802 182.473 615.279 180.421C616.421 179.451 617.857 178.939 619.587 178.885C621.304 178.797 622.954 179.176 624.538 180.023C626.264 180.934 627.566 182.224 628.443 183.894C629.296 185.553 629.577 187.412 629.286 189.471C629.09 190.805 628.696 192.009 628.105 193.081C626.349 196.961 624.434 200.401 622.359 203.4C620.285 206.399 618.605 208.224 617.321 208.875C616.764 209.167 616.167 209.327 615.529 209.356C614.891 209.385 614.311 209.283 613.789 209.05C613.233 208.831 612.76 208.521 612.37 208.12C611.946 207.732 611.661 207.222 611.516 206.589C611.372 205.956 611.388 205.281 611.565 204.564C611.605 204.411 611.68 204.274 611.791 204.153C611.878 204.021 611.995 203.917 612.143 203.841C612.267 203.754 612.41 203.689 612.57 203.647C612.721 203.629 612.872 203.639 613.025 203.679C613.249 203.75 613.44 203.864 613.599 204.019C613.733 204.165 613.84 204.34 613.919 204.546C613.963 204.765 613.955 204.974 613.894 205.175C613.738 205.844 613.941 206.347 614.502 206.682C615.03 207.03 615.594 207.04 616.195 206.711C616.923 206.352 617.963 205.295 619.314 203.537C620.641 201.768 621.982 199.651 623.336 197.184ZM613.956 189.042C614.024 190.039 614.286 190.951 614.742 191.779C615.197 192.608 615.824 193.242 616.623 193.683C617.864 194.406 619.08 194.805 620.269 194.88C621.424 194.968 622.432 194.777 623.295 194.308C624.134 193.829 624.864 193.145 625.487 192.257C626.099 191.393 626.482 190.341 626.636 189.102C626.838 187.628 626.645 186.305 626.057 185.134C625.446 183.953 624.522 183.029 623.283 182.364C622.545 181.979 621.778 181.722 620.981 181.595C620.185 181.468 619.436 181.49 618.735 181.661C618.044 181.808 617.457 182.073 616.974 182.455C615.059 184.075 614.055 186.044 613.961 188.362C614.029 188.591 614.028 188.818 613.956 189.042ZM597.097 193.389C598.196 193.793 599.385 193.868 600.664 193.613C601.92 193.348 602.931 192.832 603.699 192.065C605.39 190.373 605.965 188.028 605.424 185.03C605.224 183.946 604.57 182.958 603.46 182.066C602.327 181.164 601.124 180.642 599.85 180.502C598.353 180.29 597.087 180.451 596.053 180.986C594.37 181.828 593.259 183.622 592.72 186.366C592.399 188.043 592.65 189.491 593.472 190.709C594.27 191.918 595.479 192.811 597.097 193.389Z" fill="white" fill-opacity="0.3"/>
<path opacity="0.88" d="M1167.9 340.275C1165.74 339.259 1164.21 337.364 1163.32 334.59C1162.71 332.685 1162.92 330.804 1163.93 328.947C1162.79 328.466 1162.04 327.59 1161.67 326.319C1160.59 326.881 1159.42 327.186 1158.17 327.234C1157.21 327.258 1156.25 327.094 1155.29 326.74C1154.32 326.364 1153.44 325.832 1152.67 325.144C1151.86 324.443 1151.23 323.643 1150.77 322.744C1150.21 321.659 1149.87 320.557 1149.75 319.438C1149.05 320.6 1148.41 321.81 1147.85 323.066C1147.27 324.33 1146.84 325.468 1146.55 326.479C1146.26 327.468 1146.15 328.201 1146.23 328.678C1146.34 329.472 1146.6 329.997 1147.01 330.253C1147.43 330.51 1147.94 330.443 1148.57 330.051C1148.82 329.868 1149.1 329.812 1149.41 329.883C1149.69 329.943 1149.92 330.099 1150.11 330.352C1150.27 330.614 1150.32 330.895 1150.27 331.196C1150.19 331.485 1150.02 331.711 1149.76 331.873C1148.38 332.763 1147.14 332.895 1146.04 332.27C1144.92 331.624 1144.25 330.522 1144.02 328.965C1143.83 327.547 1144.47 325.215 1145.94 321.97C1147.39 318.734 1149.01 316.176 1150.81 314.294C1150.91 314.174 1151.04 314.082 1151.19 314.018C1151.67 313.408 1152.25 312.857 1152.93 312.364C1155.61 310.411 1158.14 309.782 1160.52 310.476C1162.04 310.927 1163.37 311.86 1164.53 313.276C1165.6 314.528 1166.25 316.069 1166.5 317.9C1166.73 319.709 1166.43 321.259 1165.61 322.551C1165.06 323.367 1164.48 324.086 1163.85 324.708C1163.86 324.729 1163.86 324.766 1163.86 324.818C1163.89 326.079 1164.45 326.77 1165.54 326.891C1167.55 324.97 1170 324.094 1172.9 324.264C1174.25 324.327 1175.51 324.873 1176.68 325.901C1177.87 326.898 1178.73 328.163 1179.25 329.696C1179.83 331.359 1179.89 333.01 1179.44 334.651C1178.99 336.27 1178.03 337.669 1176.57 338.847C1175.62 339.607 1174.62 340.158 1173.57 340.502C1170.03 341.981 1166.65 343.072 1163.44 343.774C1160.22 344.476 1157.99 344.647 1156.75 344.286C1156.2 344.136 1155.71 343.875 1155.27 343.501C1154.83 343.128 1154.51 342.704 1154.31 342.229C1154.08 341.743 1153.96 341.247 1153.94 340.743C1153.9 340.226 1154.03 339.715 1154.32 339.208C1154.62 338.702 1155.04 338.267 1155.6 337.903C1155.72 337.826 1155.86 337.782 1156 337.771C1156.14 337.737 1156.28 337.741 1156.43 337.781C1156.56 337.8 1156.7 337.845 1156.83 337.916C1156.94 337.997 1157.03 338.097 1157.11 338.217C1157.21 338.402 1157.27 338.594 1157.28 338.794C1157.28 338.973 1157.24 339.154 1157.16 339.338C1157.06 339.51 1156.93 339.643 1156.76 339.738C1156.25 340.084 1156.07 340.54 1156.24 341.106C1156.37 341.66 1156.74 342.013 1157.33 342.166C1158.04 342.378 1159.37 342.319 1161.34 341.991C1163.31 341.641 1165.49 341.069 1167.9 340.275ZM1166.72 329.136C1166.16 329.835 1165.77 330.598 1165.56 331.425C1165.35 332.251 1165.37 333.055 1165.63 333.837C1166 335.078 1166.56 336.088 1167.3 336.869C1168.01 337.637 1168.79 338.132 1169.64 338.353C1170.49 338.553 1171.4 338.551 1172.35 338.348C1173.29 338.155 1174.19 337.697 1175.05 336.974C1176.09 336.126 1176.78 335.135 1177.11 334.002C1177.43 332.846 1177.39 331.669 1176.98 330.468C1176.73 329.76 1176.38 329.119 1175.94 328.546C1175.49 327.972 1174.98 327.526 1174.42 327.207C1173.87 326.88 1173.32 326.693 1172.77 326.648C1170.51 326.539 1168.63 327.22 1167.15 328.69C1167.05 328.884 1166.91 329.032 1166.72 329.136ZM1152.93 321.635C1153.41 322.577 1154.15 323.358 1155.15 323.976C1156.14 324.573 1157.12 324.855 1158.1 324.822C1160.26 324.746 1162.08 323.553 1163.56 321.243C1164.1 320.405 1164.28 319.351 1164.09 318.08C1163.9 316.788 1163.43 315.704 1162.67 314.828C1161.82 313.768 1160.88 313.096 1159.87 312.812C1158.24 312.333 1156.41 312.833 1154.36 314.311C1153.12 315.22 1152.4 316.329 1152.19 317.638C1151.97 318.926 1152.22 320.258 1152.93 321.635Z" fill="white" fill-opacity="0.3"/>
</svg>
