<svg width="203" height="1902" viewBox="0 0 203 1902" fill="none" xmlns="http://www.w3.org/2000/svg">
<path fill-rule="evenodd" clip-rule="evenodd" d="M154.861 2.63046C155.209 1.87867 154.882 0.987118 154.13 0.639122C153.378 0.291126 152.487 0.618467 152.139 1.37026C151.724 2.26565 151.309 3.16986 150.894 4.08277C150.55 4.8367 150.883 5.72621 151.637 6.06954C152.391 6.41287 153.28 6.08001 153.624 5.32607C154.037 4.41869 154.449 3.52011 154.861 2.63046ZM148.313 17.3814C148.638 16.6195 148.284 15.7381 147.522 15.4128C146.76 15.0875 145.879 15.4414 145.554 16.2033C144.762 18.0567 143.969 19.939 143.174 21.8493C142.856 22.6142 143.218 23.4922 143.983 23.8104C144.748 24.1285 145.626 23.7664 145.944 23.0015C146.736 21.0996 147.525 19.2259 148.313 17.3814ZM140.99 35.2223C141.295 34.4519 140.918 33.5804 140.147 33.2758C139.377 32.9711 138.505 33.3486 138.201 34.119C137.457 35.9989 136.713 37.9015 135.968 39.8259C135.668 40.5985 136.052 41.4672 136.825 41.7664C137.597 42.0655 138.466 41.6817 138.765 40.9092C139.508 38.9912 140.25 37.0954 140.99 35.2223ZM134.081 53.2676C134.369 52.491 133.973 51.6277 133.197 51.3393C132.42 51.0509 131.557 51.4467 131.268 52.2233C130.571 54.1005 129.874 55.9954 129.176 57.9076C128.892 58.6858 129.293 59.5469 130.071 59.8308C130.849 60.1148 131.71 59.714 131.994 58.9358C132.69 57.0289 133.386 55.1393 134.081 53.2676ZM127.54 71.3705C127.815 70.5891 127.404 69.7326 126.623 69.4576C125.841 69.1825 124.985 69.5931 124.71 70.3745C124.037 72.285 123.365 74.2104 122.693 76.1501C122.422 76.9328 122.836 77.7873 123.619 78.0585C124.402 78.3298 125.256 77.9151 125.527 77.1323C126.198 75.1972 126.869 73.2764 127.54 71.3705ZM121.27 89.6168C121.534 88.8314 121.111 87.9811 120.325 87.7174C119.54 87.4538 118.69 87.8767 118.426 88.6621C117.777 90.5958 117.128 92.542 116.48 94.5001C116.22 95.2865 116.646 96.1351 117.433 96.3955C118.219 96.6558 119.068 96.2293 119.328 95.4428C119.975 93.4887 120.622 91.5465 121.27 89.6168ZM115.243 107.965C115.496 107.176 115.063 106.331 114.274 106.077C113.485 105.824 112.64 106.257 112.387 107.046C111.764 108.981 111.142 110.927 110.522 112.882C110.271 113.671 110.708 114.515 111.497 114.765C112.287 115.016 113.13 114.579 113.381 113.79C114.001 111.838 114.621 109.896 115.243 107.965ZM109.433 126.388C109.678 125.597 109.235 124.757 108.443 124.512C107.652 124.267 106.812 124.711 106.567 125.502C105.97 127.435 105.373 129.376 104.777 131.325C104.535 132.118 104.981 132.956 105.773 133.198C106.566 133.44 107.404 132.994 107.646 132.202C108.241 130.256 108.837 128.318 109.433 126.388ZM103.823 144.872C104.06 144.078 103.608 143.243 102.814 143.006C102.02 142.77 101.185 143.222 100.948 144.016C100.372 145.949 99.7971 147.89 99.2235 149.837C98.9893 150.631 99.4437 151.465 100.238 151.699C101.033 151.934 101.867 151.479 102.101 150.685C102.674 148.741 103.248 146.803 103.823 144.872ZM98.4038 163.385C98.6328 162.589 98.1731 161.758 97.3769 161.529C96.5808 161.3 95.7497 161.759 95.5207 162.555C94.9614 164.5 94.4036 166.45 93.8473 168.404C93.6206 169.201 94.0827 170.031 94.8795 170.258C95.6763 170.484 96.5061 170.022 96.7328 169.226C97.2883 167.273 97.8453 165.326 98.4038 163.385ZM93.1531 181.953C93.375 181.155 92.9079 180.328 92.1097 180.106C91.3115 179.884 90.4846 180.351 90.2627 181.15C89.7198 183.103 89.1785 185.06 88.6389 187.022C88.4192 187.82 88.8886 188.646 89.6874 188.866C90.4862 189.085 91.3118 188.616 91.5315 187.817C92.0703 185.858 92.6109 183.904 93.1531 181.953ZM88.0634 200.571C88.2785 199.771 87.8043 198.948 87.0043 198.733C86.2042 198.518 85.3813 198.992 85.1663 199.792C84.6392 201.753 84.1141 203.716 83.5909 205.683C83.3779 206.484 83.8543 207.305 84.6548 207.518C85.4554 207.731 86.2771 207.255 86.49 206.454C87.0126 204.49 87.537 202.529 88.0634 200.571ZM83.1292 219.234C83.3377 218.432 82.8567 217.613 82.0549 217.404C81.2531 217.196 80.4342 217.677 80.2257 218.479C79.7143 220.445 79.2051 222.415 78.698 224.386C78.4916 225.188 78.9746 226.006 79.7769 226.212C80.5792 226.419 81.3969 225.936 81.6034 225.133C82.1098 223.165 82.6185 221.198 83.1292 219.234ZM78.347 237.937C78.5489 237.134 78.0614 236.319 77.2579 236.117C76.4545 235.915 75.6395 236.403 75.4375 237.206C74.9416 239.178 74.4481 241.152 73.957 243.127C73.7571 243.931 74.2467 244.745 75.0507 244.944C75.8546 245.144 76.6684 244.655 76.8683 243.851C77.3588 241.879 77.8517 239.907 78.347 237.937ZM73.715 256.68C73.9105 255.875 73.4164 255.064 72.6114 254.869C71.8064 254.673 70.9953 255.167 70.7998 255.972C70.3195 257.949 69.8418 259.927 69.3668 261.905C69.1733 262.71 69.6695 263.52 70.475 263.713C71.2805 263.907 72.0904 263.411 72.2839 262.605C72.7583 260.63 73.2354 258.655 73.715 256.68ZM69.2335 275.46C69.4225 274.654 68.9219 273.847 68.1154 273.658C67.3088 273.468 66.5017 273.969 66.3126 274.776C65.8482 276.757 65.3866 278.738 64.9279 280.718C64.741 281.525 65.2437 282.331 66.0507 282.518C66.8578 282.705 67.6636 282.202 67.8505 281.395C68.3086 279.418 68.7696 277.439 69.2335 275.46ZM64.9044 294.276C65.0868 293.468 64.5796 292.665 63.7715 292.483C62.9635 292.3 62.1605 292.807 61.9781 293.615C61.5299 295.601 61.0848 297.584 60.643 299.566C60.4627 300.374 60.972 301.176 61.7805 301.356C62.5891 301.536 63.3907 301.027 63.571 300.219C64.0123 298.24 64.4568 296.259 64.9044 294.276ZM60.7317 313.127C60.9073 312.317 60.3934 311.518 59.5838 311.343C58.7742 311.167 57.9755 311.681 57.7999 312.491C57.3687 314.479 56.9408 316.464 56.5165 318.447C56.3431 319.257 56.8593 320.054 57.6693 320.227C58.4794 320.401 59.2767 319.885 59.4501 319.075C59.8738 317.095 60.3011 315.112 60.7317 313.127ZM56.7217 332.011C56.8902 331.2 56.3692 330.406 55.5581 330.238C54.747 330.069 53.9529 330.59 53.7844 331.401C53.3711 333.391 52.9615 335.378 52.5557 337.359C52.3896 338.171 52.9128 338.964 53.7244 339.13C54.536 339.296 55.3286 338.773 55.4948 337.961C55.8999 335.982 56.3089 333.999 56.7217 332.011ZM52.8833 350.928C53.0442 350.116 52.5159 349.327 51.7032 349.166C50.8906 349.005 50.1014 349.533 49.9404 350.346C49.5462 352.337 49.1561 354.323 48.7702 356.303C48.6118 357.116 49.1425 357.904 49.9557 358.062C50.7688 358.221 51.5564 357.69 51.7149 356.877C52.1001 354.899 52.4896 352.916 52.8833 350.928ZM49.2287 369.876C49.3815 369.061 48.8453 368.277 48.031 368.125C47.2168 367.972 46.4329 368.508 46.2801 369.322C45.9043 371.326 45.5331 373.322 45.1666 375.312C45.0166 376.127 45.5554 376.909 46.3701 377.059C47.1848 377.209 47.9669 376.67 48.117 375.855C48.4828 373.869 48.8534 371.876 49.2287 369.876ZM45.7744 388.848C45.9182 388.032 45.3735 387.254 44.5576 387.111C43.7418 386.967 42.9638 387.512 42.8199 388.327C42.4637 390.348 42.1128 392.36 41.7672 394.363C41.6264 395.179 42.174 395.955 42.9904 396.096C43.8067 396.237 44.5827 395.689 44.7235 394.873C45.0685 392.873 45.4188 390.865 45.7744 388.848ZM42.5386 407.862C42.6726 407.044 42.1184 406.273 41.3008 406.139C40.4833 406.005 39.712 406.559 39.5781 407.377C39.2447 409.412 38.9173 411.437 38.5961 413.452C38.4656 414.27 39.023 415.039 39.8411 415.169C40.6592 415.3 41.4282 414.742 41.5586 413.924C41.8792 411.914 42.2059 409.893 42.5386 407.862ZM39.5435 426.96C39.666 426.14 39.1011 425.377 38.2818 425.254C37.4625 425.132 36.699 425.697 36.5765 426.516C36.2728 428.546 35.976 430.564 35.6862 432.569C35.5676 433.388 36.1362 434.149 36.9561 434.268C37.776 434.386 38.5368 433.818 38.6553 432.998C38.9445 430.998 39.2405 428.985 39.5435 426.96ZM36.8382 446.081C36.9474 445.26 36.3702 444.506 35.549 444.396C34.7278 444.287 33.9735 444.864 33.8643 445.686C33.5961 447.703 33.3356 449.706 33.083 451.692C32.9785 452.514 33.56 453.265 34.3818 453.369C35.2036 453.474 35.9546 452.892 36.059 452.07C36.3109 450.09 36.5706 448.093 36.8382 446.081ZM34.4808 465.192C34.5739 464.369 33.982 463.626 33.1588 463.533C32.3356 463.44 31.5929 464.032 31.4998 464.855C31.2679 466.906 31.0455 468.937 30.8328 470.947C30.7456 471.771 31.3428 472.509 32.1666 472.597C32.9905 472.684 33.729 472.087 33.8162 471.263C34.0281 469.26 34.2497 467.236 34.4808 465.192ZM32.5405 484.388C32.6132 483.562 32.0031 482.835 31.1778 482.762C30.3526 482.689 29.6247 483.299 29.5521 484.125C29.3706 486.186 29.2007 488.221 29.0428 490.23C28.9778 491.056 29.5947 491.778 30.4206 491.843C31.2464 491.908 31.9686 491.291 32.0335 490.465C32.1908 488.466 32.3598 486.44 32.5405 484.388ZM31.151 503.609C31.1963 502.782 30.5624 502.075 29.7352 502.029C28.908 501.984 28.2007 502.618 28.1555 503.445C28.1006 504.447 28.0493 505.44 28.0014 506.426C27.9525 507.433 27.9061 508.44 27.8621 509.447C27.8259 510.274 28.4674 510.974 29.2951 511.011C30.1227 511.047 30.823 510.405 30.8592 509.578C30.903 508.576 30.9492 507.574 30.9979 506.571C31.0454 505.592 31.0965 504.605 31.151 503.609ZM30.4243 522.583C30.4436 521.755 29.7878 521.068 28.9596 521.049C28.1314 521.03 27.4444 521.686 27.4252 522.514C27.3785 524.521 27.3414 526.527 27.3135 528.532C27.3019 529.36 27.9641 530.041 28.7924 530.053C29.6208 530.064 30.3016 529.402 30.3132 528.574C30.3409 526.578 30.378 524.581 30.4243 522.583ZM30.2617 541.59C30.2568 540.761 29.5812 540.094 28.7528 540.099C27.9244 540.104 27.2568 540.779 27.2617 541.607C27.2737 543.618 27.2947 545.627 27.3247 547.634C27.337 548.462 28.0186 549.124 28.8469 549.112C29.6752 549.099 30.3367 548.418 30.3243 547.589C30.2945 545.591 30.2736 543.591 30.2617 541.59ZM30.6435 560.589C30.6153 559.761 29.9212 559.113 29.0933 559.141C28.2653 559.169 27.617 559.864 27.6453 560.691C27.7138 562.703 27.7911 564.712 27.8771 566.72C27.9125 567.548 28.6121 568.19 29.4398 568.154C30.2675 568.119 30.9097 567.419 30.8743 566.592C30.7888 564.592 30.7118 562.592 30.6435 560.589ZM31.5499 579.569C31.4993 578.742 30.7879 578.113 29.961 578.164C29.1341 578.214 28.5049 578.926 28.5555 579.753C28.6786 581.763 28.8101 583.771 28.9499 585.778C29.0074 586.604 29.724 587.227 30.5505 587.17C31.3769 587.112 32.0002 586.396 31.9426 585.569C31.8035 583.571 31.6725 581.571 31.5499 579.569ZM32.9612 598.533C32.8891 597.708 32.1616 597.098 31.3363 597.17C30.511 597.242 29.9005 597.969 29.9726 598.795C30.1477 600.797 30.3307 602.797 30.5215 604.796C30.6002 605.62 31.3326 606.225 32.1573 606.146C32.9819 606.067 33.5866 605.335 33.5079 604.51C33.3179 602.52 33.1356 600.528 32.9612 598.533ZM34.8552 617.457C34.7626 616.634 34.0201 616.042 33.1968 616.134C32.3736 616.227 31.7814 616.97 31.8741 617.793C32.0987 619.788 32.3309 621.781 32.5705 623.773C32.6694 624.595 33.4164 625.182 34.2389 625.083C35.0614 624.984 35.648 624.237 35.549 623.414C35.3103 621.431 35.079 619.445 34.8552 617.457ZM37.2089 636.327C37.0967 635.506 36.3403 634.932 35.5195 635.044C34.6987 635.156 34.1243 635.913 34.2365 636.734C34.5087 638.724 34.7881 640.713 35.0744 642.7C35.1925 643.52 35.953 644.089 36.773 643.971C37.593 643.852 38.1619 643.092 38.0437 642.272C37.7584 640.292 37.4801 638.311 37.2089 636.327ZM39.999 655.136C39.8683 654.318 39.0992 653.761 38.2811 653.891C37.4631 654.022 36.9059 654.791 37.0366 655.609C37.354 657.595 37.678 659.579 38.0087 661.56C38.1451 662.377 38.918 662.929 39.7352 662.792C40.5523 662.656 41.1041 661.883 40.9678 661.066C40.6382 659.092 40.3153 657.115 39.999 655.136ZM43.2022 673.877C43.0539 673.062 42.2731 672.521 41.458 672.669C40.6429 672.818 40.1024 673.599 40.2506 674.414C40.6107 676.394 40.9771 678.372 41.3498 680.347C41.5033 681.161 42.2877 681.696 43.1018 681.543C43.9159 681.389 44.4513 680.605 44.2978 679.791C43.9264 677.822 43.5611 675.85 43.2022 673.877ZM46.7971 692.556C46.6324 691.744 45.8407 691.219 45.0288 691.384C44.2169 691.549 43.6923 692.341 43.857 693.153C44.2567 695.123 44.6623 697.091 45.0737 699.056C45.2434 699.867 46.0383 700.387 46.8492 700.217C47.66 700.047 48.1798 699.252 48.0101 698.441C47.6 696.482 47.1956 694.52 46.7971 692.556ZM50.7604 711.168C50.5802 710.359 49.7787 709.85 48.9701 710.03C48.1615 710.21 47.6521 711.012 47.8322 711.82C48.2686 713.779 48.7104 715.734 49.1574 717.687C49.3423 718.495 50.1468 718.999 50.9543 718.814C51.7619 718.63 52.2666 717.825 52.0818 717.018C51.636 715.07 51.1955 713.12 50.7604 711.168ZM55.0674 729.702C54.8727 728.897 54.0621 728.402 53.2569 728.597C52.4517 728.791 51.9567 729.602 52.1514 730.407C52.6231 732.359 53.0999 734.308 53.5815 736.254C53.7805 737.058 54.5937 737.548 55.3979 737.349C56.2021 737.15 56.6927 736.337 56.4936 735.533C56.0133 733.592 55.5379 731.648 55.0674 729.702ZM59.6945 748.157C59.4864 747.355 58.6677 746.874 57.8658 747.082C57.064 747.29 56.5826 748.109 56.7908 748.911C57.2957 750.856 57.8051 752.799 58.319 754.738C58.5311 755.539 59.3523 756.016 60.1531 755.804C60.9539 755.592 61.4311 754.771 61.2189 753.97C60.7063 752.035 60.1982 750.098 59.6945 748.157ZM64.6186 766.532C64.398 765.733 63.5719 765.265 62.7734 765.485C61.9748 765.706 61.5063 766.532 61.7269 767.331C62.2627 769.27 62.8026 771.207 63.3465 773.14C63.5708 773.938 64.3991 774.402 65.1966 774.178C65.9941 773.954 66.4587 773.125 66.2344 772.328C65.6918 770.399 65.1532 768.467 64.6186 766.532ZM69.8163 784.827C69.5843 784.031 68.7515 783.575 67.9562 783.807C67.1609 784.039 66.7044 784.872 66.9364 785.667C67.501 787.602 68.0691 789.533 68.6408 791.461C68.8763 792.255 69.7111 792.708 70.5053 792.473C71.2996 792.237 71.7525 791.402 71.517 790.608C70.9466 788.684 70.3796 786.757 69.8163 784.827ZM75.2725 803.068C75.0299 802.276 74.1912 801.831 73.399 802.073C72.6069 802.316 72.1614 803.155 72.404 803.947C72.9924 805.868 73.5841 807.787 74.1787 809.702C74.4243 810.493 75.2649 810.935 76.056 810.689C76.8472 810.444 77.2894 809.603 77.0437 808.812C76.4503 806.901 75.8598 804.986 75.2725 803.068ZM80.9596 821.243C80.7076 820.453 79.8635 820.018 79.0743 820.27C78.2852 820.522 77.8498 821.366 78.1019 822.155C78.7115 824.064 79.3237 825.968 79.9384 827.87C80.1932 828.658 81.0388 829.09 81.8271 828.835C82.6153 828.58 83.0477 827.735 82.7929 826.947C82.1792 825.049 81.5681 823.147 80.9596 821.243ZM86.8536 839.349C86.593 838.563 85.7443 838.136 84.9579 838.397C84.1715 838.658 83.7453 839.506 84.0059 840.293C84.6369 842.197 85.27 844.097 85.905 845.993C86.1681 846.779 87.0182 847.202 87.8037 846.939C88.5893 846.676 89.0128 845.826 88.7498 845.04C88.1157 843.147 87.4836 841.25 86.8536 839.349ZM92.9312 857.392C92.6631 856.608 91.8103 856.19 91.0265 856.458C90.2426 856.727 89.8245 857.579 90.0927 858.363C90.7428 860.264 91.3945 862.16 92.0477 864.053C92.3179 864.836 93.1719 865.252 93.955 864.981C94.7381 864.711 95.1538 863.857 94.8835 863.074C94.2312 861.184 93.5804 859.29 92.9312 857.392ZM99.1687 875.378C98.8941 874.596 98.0379 874.185 97.2563 874.46C96.4747 874.734 96.0637 875.59 96.3383 876.372C97.0053 878.27 97.6733 880.164 98.3422 882.054C98.6187 882.835 99.4758 883.244 100.257 882.968C101.038 882.691 101.447 881.834 101.17 881.053C100.502 879.166 99.8349 877.274 99.1687 875.378ZM105.542 893.312C105.262 892.532 104.403 892.127 103.623 892.407C102.844 892.687 102.439 893.546 102.719 894.326C103.4 896.223 104.082 898.116 104.764 900.004C105.046 900.784 105.905 901.187 106.685 900.905C107.464 900.624 107.867 899.764 107.586 898.985C106.904 897.098 106.223 895.207 105.542 893.312ZM112.026 911.203C111.742 910.425 110.88 910.025 110.102 910.309C109.324 910.594 108.924 911.455 109.208 912.233C109.902 914.131 110.595 916.023 111.288 917.911C111.573 918.689 112.435 919.088 113.213 918.803C113.991 918.517 114.39 917.655 114.104 916.878C113.412 914.991 112.719 913.1 112.026 911.203ZM118.599 929.073C118.311 928.296 117.449 927.899 116.672 928.187C115.895 928.474 115.498 929.337 115.785 930.114C116.487 932.009 117.187 933.9 117.886 935.785C118.175 936.561 119.038 936.958 119.814 936.669C120.591 936.381 120.987 935.518 120.699 934.741C120 932.857 119.3 930.968 118.599 929.073ZM125.236 946.941C124.947 946.165 124.083 945.77 123.307 946.059C122.531 946.349 122.136 947.212 122.425 947.989C122.799 948.993 123.173 949.995 123.547 950.996L124.531 953.636C124.821 954.412 125.685 954.806 126.461 954.517C127.237 954.227 127.631 953.363 127.342 952.587C126.642 950.71 125.94 948.828 125.236 946.941ZM131.901 964.799C131.611 964.023 130.747 963.628 129.971 963.918C129.195 964.208 128.8 965.072 129.09 965.848L129.996 968.275L131.191 971.477C131.48 972.253 132.344 972.648 133.121 972.358C133.897 972.068 134.291 971.204 134.002 970.428C133.304 968.557 132.603 966.681 131.901 964.799ZM138.558 982.66C138.269 981.883 137.406 981.488 136.629 981.776C135.853 982.065 135.457 982.929 135.746 983.705C136.444 985.584 137.139 987.456 137.831 989.323C138.119 990.1 138.982 990.496 139.759 990.208C140.536 989.92 140.932 989.057 140.644 988.28C139.952 986.413 139.256 984.539 138.558 982.66ZM145.17 1000.54C144.884 999.761 144.022 999.362 143.245 999.648C142.467 999.934 142.068 1000.8 142.354 1001.57C143.045 1003.45 143.731 1005.32 144.413 1007.19C144.697 1007.97 145.559 1008.37 146.337 1008.08C147.115 1007.8 147.515 1006.94 147.231 1006.16C146.548 1004.29 145.861 1002.42 145.17 1000.54ZM151.693 1018.45C151.412 1017.67 150.553 1017.27 149.774 1017.55C148.994 1017.83 148.59 1018.69 148.871 1019.47C149.55 1021.35 150.223 1023.23 150.891 1025.1C151.17 1025.88 152.028 1026.28 152.808 1026C153.588 1025.73 153.995 1024.87 153.716 1024.09C153.047 1022.22 152.373 1020.34 151.693 1018.45ZM158.077 1036.42C157.803 1035.63 156.947 1035.22 156.165 1035.49C155.383 1035.77 154.971 1036.62 155.245 1037.41C155.907 1039.3 156.562 1041.18 157.211 1043.06C157.482 1043.84 158.336 1044.26 159.119 1043.99C159.902 1043.72 160.317 1042.86 160.046 1042.08C159.397 1040.2 158.74 1038.31 158.077 1036.42ZM164.258 1054.45C163.995 1053.66 163.144 1053.24 162.359 1053.5C161.573 1053.77 161.15 1054.62 161.413 1055.4C162.053 1057.31 162.684 1059.21 163.308 1061.1C163.567 1061.89 164.415 1062.32 165.202 1062.06C165.988 1061.8 166.416 1060.95 166.157 1060.16C165.532 1058.27 164.899 1056.36 164.258 1054.45ZM170.161 1072.57C169.912 1071.78 169.069 1071.34 168.279 1071.59C167.489 1071.84 167.051 1072.68 167.3 1073.47C167.91 1075.41 168.509 1077.33 169.099 1079.24C169.343 1080.03 170.182 1080.48 170.974 1080.23C171.766 1079.99 172.21 1079.15 171.966 1078.36C171.374 1076.44 170.773 1074.51 170.161 1072.57ZM175.698 1090.83C175.467 1090.03 174.635 1089.57 173.839 1089.8C173.044 1090.03 172.586 1090.87 172.816 1091.66C173.383 1093.62 173.938 1095.56 174.48 1097.49C174.703 1098.29 175.531 1098.76 176.329 1098.53C177.127 1098.31 177.592 1097.48 177.368 1096.68C176.824 1094.74 176.267 1092.79 175.698 1090.83ZM180.758 1109.29C180.552 1108.48 179.734 1108 178.932 1108.21C178.129 1108.41 177.646 1109.23 177.852 1110.03C178.355 1111.99 178.843 1113.93 179.316 1115.87C179.513 1116.67 180.325 1117.17 181.129 1116.97C181.934 1116.77 182.427 1115.96 182.23 1115.15C181.754 1113.21 181.264 1111.25 180.758 1109.29ZM185.16 1127.91C184.987 1127.1 184.19 1126.58 183.38 1126.75C182.569 1126.93 182.053 1127.72 182.227 1128.53C182.646 1130.49 183.047 1132.43 183.429 1134.36C183.591 1135.17 184.38 1135.7 185.193 1135.54C186.005 1135.38 186.533 1134.59 186.372 1133.77C185.986 1131.83 185.582 1129.88 185.16 1127.91ZM188.686 1146.68C188.556 1145.86 187.787 1145.31 186.969 1145.44C186.151 1145.57 185.593 1146.33 185.723 1147.15C185.878 1148.12 186.027 1149.09 186.171 1150.06C186.316 1151.03 186.46 1152 186.603 1152.97C186.724 1153.79 187.486 1154.36 188.305 1154.24C189.125 1154.12 189.692 1153.36 189.571 1152.54C189.428 1151.56 189.284 1150.59 189.138 1149.62C188.993 1148.64 188.842 1147.66 188.686 1146.68ZM191.371 1165.13C191.257 1164.31 190.5 1163.74 189.679 1163.85C188.859 1163.96 188.286 1164.72 188.399 1165.54C188.668 1167.48 188.932 1169.42 189.19 1171.34C189.301 1172.16 190.056 1172.74 190.877 1172.63C191.698 1172.52 192.274 1171.77 192.164 1170.94C191.905 1169.01 191.64 1167.07 191.371 1165.13ZM193.794 1183.56C193.692 1182.73 192.943 1182.15 192.121 1182.25C191.299 1182.36 190.715 1183.1 190.817 1183.93C191.059 1185.87 191.295 1187.82 191.525 1189.75C191.623 1190.57 192.37 1191.16 193.192 1191.06C194.015 1190.97 194.602 1190.22 194.504 1189.4C194.273 1187.46 194.036 1185.51 193.794 1183.56ZM195.939 1202.04C195.85 1201.22 195.111 1200.62 194.287 1200.71C193.464 1200.8 192.868 1201.54 192.956 1202.36C193.165 1204.3 193.368 1206.24 193.565 1208.17C193.649 1208.99 194.385 1209.59 195.21 1209.51C196.034 1209.43 196.634 1208.69 196.55 1207.87C196.352 1205.93 196.149 1203.99 195.939 1202.04ZM197.761 1220.54C197.687 1219.72 196.959 1219.11 196.134 1219.18C195.309 1219.25 194.699 1219.98 194.772 1220.81C194.946 1222.76 195.113 1224.71 195.273 1226.65C195.341 1227.47 196.066 1228.09 196.891 1228.02C197.717 1227.95 198.331 1227.23 198.263 1226.4C198.102 1224.45 197.935 1222.5 197.761 1220.54ZM199.219 1239.09C199.162 1238.26 198.447 1237.64 197.62 1237.7C196.794 1237.75 196.169 1238.47 196.225 1239.29C196.358 1241.25 196.484 1243.2 196.602 1245.14C196.652 1245.97 197.363 1246.6 198.19 1246.55C199.017 1246.5 199.646 1245.78 199.596 1244.96C199.478 1243.01 199.352 1241.05 199.219 1239.09ZM200.267 1257.67C200.231 1256.84 199.53 1256.2 198.702 1256.24C197.874 1256.28 197.234 1256.98 197.27 1257.81C197.357 1259.76 197.437 1261.7 197.508 1263.65C197.539 1264.47 198.235 1265.12 199.062 1265.09C199.89 1265.06 200.537 1264.36 200.506 1263.54C200.434 1261.59 200.355 1259.63 200.267 1257.67ZM200.863 1276.27C200.847 1275.44 200.163 1274.78 199.335 1274.8C198.507 1274.81 197.848 1275.5 197.864 1276.33C197.901 1278.28 197.93 1280.23 197.951 1282.18C197.959 1283.01 198.638 1283.67 199.466 1283.66C200.295 1283.65 200.959 1282.97 200.95 1282.15C200.93 1280.19 200.901 1278.23 200.863 1276.27ZM200.964 1294.88C200.971 1294.05 200.306 1293.37 199.477 1293.37C198.649 1293.36 197.972 1294.02 197.964 1294.85C197.948 1296.81 197.922 1298.76 197.888 1300.71C197.873 1301.54 198.533 1302.22 199.361 1302.24C200.189 1302.25 200.872 1301.59 200.887 1300.76C200.922 1298.8 200.948 1296.84 200.964 1294.88ZM200.532 1313.49C200.564 1312.67 199.919 1311.97 199.091 1311.94C198.263 1311.91 197.566 1312.55 197.535 1313.38C197.46 1315.33 197.377 1317.28 197.283 1319.22C197.244 1320.05 197.882 1320.75 198.71 1320.79C199.537 1320.83 200.24 1320.19 200.28 1319.37C200.374 1317.41 200.458 1315.45 200.532 1313.49ZM199.535 1332.08C199.592 1331.26 198.969 1330.54 198.143 1330.48C197.316 1330.43 196.6 1331.05 196.542 1331.88C196.407 1333.82 196.263 1335.77 196.108 1337.71C196.042 1338.54 196.658 1339.26 197.484 1339.32C198.31 1339.39 199.033 1338.77 199.098 1337.95C199.254 1335.99 199.399 1334.04 199.535 1332.08ZM197.947 1350.64C198.031 1349.81 197.431 1349.08 196.607 1348.99C195.783 1348.91 195.047 1349.51 194.963 1350.33C194.765 1352.27 194.557 1354.21 194.339 1356.15C194.246 1356.97 194.839 1357.71 195.662 1357.81C196.485 1357.9 197.227 1357.31 197.32 1356.48C197.539 1354.53 197.748 1352.59 197.947 1350.64ZM195.752 1369.13C195.863 1368.31 195.288 1367.55 194.467 1367.44C193.646 1367.33 192.89 1367.91 192.779 1368.73C192.518 1370.66 192.246 1372.58 191.964 1374.52C191.844 1375.33 192.411 1376.1 193.231 1376.22C194.05 1376.34 194.812 1375.77 194.932 1374.95C195.216 1373.01 195.489 1371.07 195.752 1369.13ZM192.943 1387.54C193.082 1386.72 192.532 1385.95 191.716 1385.81C190.899 1385.67 190.124 1386.22 189.986 1387.03C189.66 1388.95 189.324 1390.87 188.977 1392.79C188.83 1393.61 189.372 1394.39 190.187 1394.54C191.002 1394.68 191.783 1394.14 191.93 1393.33C192.278 1391.39 192.616 1389.46 192.943 1387.54ZM189.525 1405.84C189.69 1405.03 189.167 1404.23 188.355 1404.07C187.543 1403.9 186.751 1404.43 186.585 1405.24C186.196 1407.15 185.796 1409.06 185.385 1410.97C185.211 1411.78 185.727 1412.58 186.537 1412.75C187.346 1412.93 188.144 1412.41 188.318 1411.6C188.731 1409.68 189.133 1407.76 189.525 1405.84ZM185.506 1424.02C185.698 1423.21 185.2 1422.41 184.394 1422.21C183.588 1422.02 182.779 1422.52 182.588 1423.33C182.137 1425.22 181.676 1427.11 181.204 1429.01C181.004 1429.81 181.494 1430.63 182.298 1430.83C183.102 1431.03 183.915 1430.54 184.115 1429.73C184.59 1427.83 185.053 1425.92 185.506 1424.02ZM180.907 1442.07C181.124 1441.27 180.652 1440.45 179.852 1440.23C179.053 1440.01 178.229 1440.48 178.012 1441.28C177.503 1443.16 176.984 1445.03 176.455 1446.91C176.23 1447.71 176.694 1448.54 177.491 1448.76C178.289 1448.99 179.117 1448.52 179.342 1447.72C179.874 1445.84 180.396 1443.95 180.907 1442.07ZM175.76 1459.95C176.001 1459.16 175.554 1458.32 174.762 1458.08C173.969 1457.84 173.131 1458.28 172.89 1459.08C172.323 1460.94 171.746 1462.81 171.158 1464.68C170.91 1465.47 171.349 1466.31 172.14 1466.56C172.93 1466.81 173.772 1466.37 174.02 1465.58C174.611 1463.7 175.191 1461.82 175.76 1459.95ZM170.086 1477.68C170.35 1476.9 169.927 1476.05 169.141 1475.79C168.356 1475.52 167.506 1475.94 167.242 1476.73C166.625 1478.57 165.997 1480.41 165.358 1482.26C165.088 1483.05 165.504 1483.9 166.287 1484.17C167.07 1484.44 167.924 1484.03 168.194 1483.24C168.835 1481.39 169.466 1479.53 170.086 1477.68ZM163.928 1495.24C164.212 1494.47 163.812 1493.6 163.034 1493.32C162.256 1493.04 161.395 1493.44 161.11 1494.21C160.774 1495.13 160.435 1496.06 160.093 1496.98C159.973 1497.3 159.972 1497.64 160.069 1497.95C159.89 1498.45 159.71 1498.94 159.531 1499.44C159.247 1500.21 159.648 1501.07 160.426 1501.36C161.205 1501.64 162.066 1501.24 162.349 1500.46C162.705 1499.48 163.06 1498.5 163.413 1497.5C163.523 1497.19 163.525 1496.87 163.438 1496.58C163.602 1496.13 163.765 1495.69 163.928 1495.24ZM157.48 1513.06C157.794 1512.29 157.426 1511.42 156.659 1511.1C155.893 1510.79 155.017 1511.16 154.703 1511.92C153.911 1513.86 153.115 1515.76 152.315 1517.62C151.988 1518.38 152.34 1519.27 153.101 1519.59C153.863 1519.92 154.745 1519.57 155.071 1518.81C155.878 1516.93 156.681 1515.01 157.48 1513.06ZM149.536 1531.11C149.888 1530.36 149.566 1529.46 148.816 1529.11C148.067 1528.76 147.173 1529.08 146.821 1529.83C145.932 1531.72 145.043 1533.58 144.154 1535.41C143.792 1536.15 144.102 1537.05 144.847 1537.41C145.593 1537.77 146.49 1537.46 146.852 1536.72C147.746 1534.88 148.641 1533.01 149.536 1531.11ZM140.823 1548.79C141.199 1548.05 140.907 1547.15 140.169 1546.77C139.431 1546.39 138.527 1546.68 138.151 1547.42C137.201 1549.28 136.257 1551.12 135.32 1552.94C134.94 1553.67 135.229 1554.58 135.966 1554.96C136.702 1555.34 137.607 1555.05 137.986 1554.31C138.924 1552.49 139.871 1550.65 140.823 1548.79ZM131.849 1566.27C132.224 1565.53 131.929 1564.62 131.19 1564.25C130.451 1563.88 129.548 1564.17 129.173 1564.91C128.231 1566.77 127.301 1568.62 126.387 1570.47C126.02 1571.22 126.325 1572.12 127.068 1572.48C127.81 1572.85 128.71 1572.54 129.077 1571.8C129.985 1569.96 130.91 1568.12 131.849 1566.27ZM123.37 1583.91C123.707 1583.15 123.366 1582.27 122.609 1581.93C121.852 1581.59 120.966 1581.93 120.629 1582.69C119.785 1584.59 118.963 1586.5 118.164 1588.43C117.847 1589.19 118.21 1590.07 118.976 1590.39C119.741 1590.7 120.619 1590.34 120.936 1589.58C121.724 1587.67 122.536 1585.78 123.37 1583.91ZM116.241 1602.06C116.505 1601.28 116.083 1600.43 115.298 1600.16C114.512 1599.9 113.662 1600.32 113.398 1601.11C112.74 1603.06 112.109 1605.05 111.508 1607.07C111.271 1607.87 111.723 1608.7 112.517 1608.94C113.311 1609.17 114.147 1608.72 114.383 1607.93C114.974 1605.94 115.594 1603.99 116.241 1602.06ZM111.081 1620.85C111.255 1620.04 110.739 1619.24 109.929 1619.07C109.119 1618.89 108.321 1619.41 108.148 1620.22C107.718 1622.22 107.316 1624.27 106.945 1626.36C106.8 1627.17 107.344 1627.95 108.159 1628.1C108.975 1628.24 109.754 1627.7 109.899 1626.88C110.264 1624.83 110.658 1622.82 111.081 1620.85ZM108.04 1640.08C108.127 1639.26 107.53 1638.52 106.706 1638.43C105.882 1638.34 105.144 1638.94 105.057 1639.77C104.842 1641.8 104.655 1643.87 104.495 1645.99C104.433 1646.82 105.052 1647.54 105.878 1647.6C106.704 1647.66 107.424 1647.04 107.486 1646.22C107.644 1644.13 107.829 1642.08 108.04 1640.08ZM106.876 1659.56C106.891 1658.73 106.231 1658.05 105.403 1658.03C104.574 1658.02 103.891 1658.68 103.876 1659.51C103.858 1660.55 103.845 1661.6 103.839 1662.67C103.834 1663.65 103.841 1664.66 103.862 1665.69C103.878 1666.52 104.563 1667.18 105.392 1667.16C106.22 1667.15 106.878 1666.46 106.861 1665.63C106.841 1664.63 106.834 1663.64 106.839 1662.68C106.845 1661.63 106.857 1660.59 106.876 1659.56ZM107.68 1678.7C107.599 1677.88 106.865 1677.28 106.041 1677.36C105.216 1677.44 104.614 1678.17 104.695 1679C104.889 1680.97 105.114 1683 105.37 1685.08C105.471 1685.9 106.22 1686.49 107.042 1686.39C107.864 1686.28 108.449 1685.54 108.348 1684.71C108.095 1682.66 107.872 1680.65 107.68 1678.7ZM110.233 1697.71C110.098 1696.89 109.326 1696.34 108.509 1696.47C107.692 1696.61 107.138 1697.38 107.273 1698.2C107.599 1700.18 107.946 1702.19 108.314 1704.23C108.461 1705.04 109.241 1705.58 110.057 1705.44C110.872 1705.29 111.414 1704.51 111.267 1703.69C110.901 1701.67 110.557 1699.67 110.233 1697.71ZM113.79 1716.64C113.621 1715.82 112.826 1715.3 112.015 1715.47C111.204 1715.64 110.684 1716.44 110.853 1717.25C111.264 1719.21 111.689 1721.2 112.13 1723.2C112.308 1724.01 113.108 1724.52 113.917 1724.34C114.726 1724.16 115.238 1723.36 115.059 1722.55C114.621 1720.56 114.198 1718.59 113.79 1716.64ZM118.027 1735.38C117.832 1734.58 117.021 1734.08 116.216 1734.28C115.411 1734.47 114.916 1735.28 115.111 1736.09C115.588 1738.06 116.078 1740.04 116.579 1742.03C116.781 1742.83 117.596 1743.32 118.399 1743.12C119.202 1742.92 119.69 1742.1 119.488 1741.3C118.989 1739.31 118.502 1737.34 118.027 1735.38ZM122.811 1754.03C122.594 1753.23 121.771 1752.75 120.971 1752.97C120.171 1753.18 119.698 1754.01 119.915 1754.81C120.444 1756.77 120.983 1758.73 121.532 1760.7C121.754 1761.5 122.582 1761.96 123.38 1761.74C124.178 1761.52 124.644 1760.69 124.422 1759.89C123.875 1757.93 123.338 1755.98 122.811 1754.03ZM128.06 1772.55C127.825 1771.76 126.99 1771.3 126.196 1771.54C125.401 1771.77 124.948 1772.61 125.183 1773.4C125.76 1775.35 126.345 1777.3 126.937 1779.25C127.178 1780.04 128.016 1780.49 128.809 1780.25C129.601 1780.01 130.049 1779.17 129.808 1778.38C129.217 1776.44 128.635 1774.49 128.06 1772.55ZM133.737 1790.95C133.484 1790.16 132.639 1789.73 131.85 1789.98C131.062 1790.24 130.627 1791.08 130.881 1791.87C131.503 1793.81 132.132 1795.74 132.768 1797.67C133.026 1798.46 133.874 1798.89 134.661 1798.63C135.448 1798.37 135.876 1797.52 135.617 1796.74C134.984 1794.81 134.357 1792.88 133.737 1790.95ZM139.833 1809.21C139.562 1808.43 138.707 1808.02 137.925 1808.29C137.142 1808.56 136.728 1809.41 136.999 1810.2C137.669 1812.13 138.344 1814.05 139.024 1815.96C139.301 1816.74 140.159 1817.15 140.94 1816.87C141.72 1816.59 142.128 1815.74 141.85 1814.96C141.173 1813.05 140.501 1811.14 139.833 1809.21ZM146.365 1827.31C146.074 1826.53 145.209 1826.14 144.434 1826.43C143.658 1826.72 143.266 1827.59 143.557 1828.36C144.279 1830.29 145.005 1832.2 145.734 1834.09C146.033 1834.86 146.901 1835.24 147.674 1834.95C148.447 1834.65 148.832 1833.78 148.533 1833.01C147.807 1831.12 147.084 1829.22 146.365 1827.31ZM153.397 1845.24C153.083 1844.47 152.207 1844.11 151.44 1844.42C150.674 1844.74 150.307 1845.61 150.621 1846.38C151.399 1848.27 152.179 1850.15 152.96 1852C153.283 1852.76 154.163 1853.12 154.926 1852.79C155.689 1852.47 156.046 1851.59 155.723 1850.83C154.946 1848.99 154.171 1847.13 153.397 1845.24ZM161.017 1862.9C160.674 1862.15 159.784 1861.82 159.03 1862.16C158.276 1862.5 157.944 1863.39 158.287 1864.15C159.146 1866.03 160.005 1867.88 160.864 1869.7C161.219 1870.45 162.113 1870.77 162.862 1870.41C163.61 1870.06 163.93 1869.16 163.575 1868.41C162.723 1866.61 161.87 1864.78 161.017 1862.9ZM169.425 1880.17C169.04 1879.44 168.133 1879.15 167.4 1879.54C166.666 1879.92 166.383 1880.83 166.768 1881.56C167.741 1883.42 168.712 1885.22 169.677 1886.95C170.08 1887.67 170.994 1887.93 171.717 1887.53C172.441 1887.13 172.701 1886.22 172.299 1885.49C171.346 1883.78 170.387 1882 169.425 1880.17ZM179.067 1896.7C178.609 1896.01 177.678 1895.82 176.988 1896.28C176.297 1896.74 176.109 1897.67 176.567 1898.36C177.138 1899.22 177.706 1900.05 178.272 1900.86C178.747 1901.54 179.683 1901.7 180.361 1901.23C181.039 1900.75 181.204 1899.82 180.728 1899.14C180.178 1898.35 179.624 1897.54 179.067 1896.7Z" fill="#E41B23"/>
<rect width="64" height="64" transform="translate(0 605.889) rotate(-20)" fill="#F7F7F6"/>
<path d="M32.4322 628.098C34.7837 629.361 36.8484 631.239 38.6262 633.733C40.4253 636.181 41.6381 638.785 42.2647 641.546C42.8478 641.069 43.2335 640.777 43.4218 640.671C44.4027 639.936 45.4384 639.351 46.5288 638.916C46.6625 638.867 46.8022 638.835 46.948 638.82C52.9898 638.059 57.4959 636.665 60.4661 634.638C61.8237 633.69 62.63 632.734 62.8848 631.771C63.161 630.762 62.8721 629.657 62.0181 628.454C61.9938 628.387 61.9467 628.31 61.8768 628.222C61.4243 628.538 60.8806 628.811 60.2458 629.042C59.9785 629.14 59.7081 629.124 59.4347 628.997C59.1947 628.857 59.026 628.654 58.9287 628.387C58.8314 628.119 58.8299 627.855 58.9239 627.594C59.0515 627.32 59.2488 627.135 59.5161 627.038C61.454 626.332 62.4849 625.162 62.609 623.528C62.5969 623.495 62.6014 623.455 62.6226 623.41C62.5039 622.356 61.8687 621.546 60.7173 620.982C60.5806 620.918 60.4606 620.848 60.3573 620.772C59.9018 621.392 59.4037 621.895 58.8631 622.281C58.6202 622.445 58.3574 622.503 58.0749 622.454C57.7924 622.406 57.5691 622.26 57.405 622.017C57.3351 621.929 57.2819 621.835 57.2454 621.734C57.2089 621.634 57.1891 621.528 57.1861 621.416C57.183 621.303 57.2027 621.201 57.2452 621.11C57.2877 621.019 57.3302 620.928 57.3727 620.837C57.4486 620.733 57.5306 620.647 57.6187 620.577C58.4691 620.003 59.1963 619.038 59.8004 617.683C60.1768 616.638 60.181 615.558 59.8132 614.443C59.4331 613.295 58.763 612.442 57.803 611.883C56.6363 611.172 55.3285 611.062 53.8796 611.552C52.4186 612.008 50.8075 613.143 49.0461 614.957C48.9368 615.072 48.8047 615.177 48.6498 615.271C48.7807 616.359 48.8661 617.425 48.9059 618.47C49.729 618.132 50.8011 617.44 52.1222 616.391C52.7266 615.868 53.1305 615.419 53.3339 615.042C53.3551 614.996 53.3931 614.945 53.4478 614.887L53.4295 614.837C53.4295 614.837 53.3961 614.849 53.3293 614.873C53.2837 614.852 53.2503 614.864 53.229 614.91C53.0954 614.959 52.9557 614.99 52.8099 615.006C52.6975 615.009 52.579 614.995 52.4544 614.965C52.3177 614.901 52.1977 614.831 52.0944 614.755C51.9789 614.646 51.8969 614.524 51.8483 614.391C51.7176 614.136 51.6993 613.878 51.7933 613.616C51.8874 613.355 52.062 613.159 52.3172 613.028C52.8608 612.755 53.4334 612.717 54.035 612.914C54.6243 613.078 55.0558 613.431 55.3294 613.975C55.8795 615.175 55.2359 616.525 53.3986 618.027C50.7898 620.111 48.8353 621.031 47.5351 620.785C47.4227 620.788 47.327 620.785 47.248 620.776C46.7984 620.788 46.4065 620.647 46.0723 620.353C45.7593 620.012 45.5906 619.601 45.5661 619.118C45.5596 617.645 45.4331 616.101 45.1866 614.488C44.9613 612.83 44.6251 611.231 44.1782 609.691C43.7646 608.139 43.2888 606.779 42.7507 605.613C41.7629 603.627 40.716 602.362 39.6101 601.818C38.4921 601.241 37.236 601.377 35.842 602.225C35.4107 602.495 35.1876 602.974 35.1726 603.66C36.4453 603.311 37.5298 603.484 38.4261 604.179C39.0703 604.701 39.4942 605.398 39.698 606.27C40.0205 607.78 39.9358 609.002 39.4439 609.938C38.9855 610.862 38.123 611.403 36.8563 611.561C37.6137 614.993 37.8135 617.986 37.4558 620.537L37.424 620.606C37.4058 620.764 37.3648 620.911 37.3011 621.048C36.1566 623.621 34.5336 625.971 32.4322 628.098ZM28.9551 626.81C29.8359 626.111 30.7864 625.084 31.8066 623.729C32.8269 622.373 33.6239 621.081 34.1977 619.85C34.516 617.502 34.1414 614.29 33.0739 610.213C32.3531 607.297 31.9516 605.363 31.8693 604.409C31.738 602.073 32.4741 600.405 34.0778 599.405C36.4558 597.934 38.6414 597.649 40.6344 598.551C42.6608 599.44 44.3655 601.317 45.7485 604.181C46.6908 606.146 47.4418 608.522 48.0016 611.307C50.0333 609.508 52.0394 608.419 54.0199 608.038C56.0338 607.646 57.8762 607.978 59.5473 609.035C60.5651 609.648 61.3977 610.48 62.045 611.531C62.7258 612.57 63.1559 613.699 63.3355 614.921C63.5151 616.142 63.4183 617.331 63.045 618.488C65.9982 620.365 66.7478 623.308 65.294 627.318C66.0143 628.57 66.3685 629.803 66.3567 631.018C66.3449 632.233 65.999 633.362 65.3188 634.404C64.6508 635.479 63.6654 636.462 62.3625 637.353C58.9731 639.684 54.0448 641.269 47.5778 642.11C46.8093 642.389 46.0834 642.786 45.4001 643.3C45.2908 643.415 45.0159 643.648 44.5756 643.997C44.1352 644.347 43.8877 644.55 43.833 644.608C43.4473 644.9 43.0829 645.146 42.7397 645.346C42.7217 646.337 42.6066 647.268 42.3942 648.14C42.1455 649.327 41.599 650.321 40.7547 651.12C39.9226 651.953 38.477 652.971 36.4177 654.174C36.0199 654.433 35.7435 654.609 35.5886 654.703C35.1239 654.986 34.72 655.227 34.3768 655.428C33.9789 655.686 33.5537 655.765 33.101 655.665C32.6605 655.599 32.3111 655.366 32.0528 654.968C31.7945 654.571 31.7154 654.145 31.8155 653.693C31.9156 653.24 32.1479 652.891 32.5123 652.644C32.9223 652.42 33.3703 652.143 33.8563 651.815C34.0112 651.721 34.3103 651.555 34.7538 651.318C35.8046 650.67 36.611 650.131 37.1728 649.7C37.7802 649.289 38.2419 648.894 38.5577 648.514C38.8856 648.168 39.0891 647.791 39.1679 647.384C39.4804 646.06 39.48 644.603 39.1666 643.014C38.8867 641.414 38.3668 639.881 37.6069 638.417C36.8471 636.953 35.9384 635.6 34.8809 634.358C33.8568 633.104 32.6764 632.096 31.3395 631.334C30.024 630.526 28.7237 630.072 27.4387 629.972C26.7066 629.936 25.9412 630.12 25.1424 630.524C24.377 630.917 23.15 631.704 21.4614 632.886C21.1637 633.108 20.9268 633.288 20.7507 633.428C20.3862 633.674 19.9671 633.77 19.4932 633.716C19.0527 633.649 18.7093 633.433 18.4632 633.069C18.2049 632.671 18.109 632.252 18.1757 631.811C18.2303 631.338 18.4565 630.971 18.8543 630.713C18.9971 630.585 19.2173 630.411 19.5149 630.189C21.5892 628.715 23.1321 627.756 24.1435 627.312C25.1762 626.823 26.3624 626.599 27.702 626.641C28.0969 626.687 28.5146 626.743 28.9551 626.81ZM36.3454 609.534C37.041 609.47 37.4844 609.232 37.6757 608.822C37.9003 608.4 37.8925 607.703 37.6523 606.731C37.5853 606.339 37.3969 606.029 37.087 605.801C36.7193 605.519 36.1847 605.506 35.483 605.761C35.6291 606.578 35.915 607.779 36.3407 609.365C36.3317 609.444 36.3332 609.5 36.3454 609.534Z" fill="#E41B23"/>
<rect width="64" height="64" transform="translate(120 1473.89) rotate(-20)" fill="#F7F7F6"/>
<path d="M158.157 1513.07C153.942 1515.62 151.228 1516.74 150.016 1516.43C147.998 1515.88 146.528 1514.75 145.604 1513.04C144.701 1511.29 144.89 1509.78 146.172 1508.52C147.171 1507.62 147.795 1506.38 148.044 1504.77C148.292 1503.17 148.088 1501.88 147.432 1500.91L143.94 1495.99C142.147 1493.35 141.162 1490.65 140.985 1487.87C140.841 1485.09 141.532 1482.57 143.056 1480.31C142.925 1480.05 142.766 1479.77 142.577 1479.46C142.222 1478.8 141.968 1478.15 141.816 1477.53C141.056 1474.81 141.811 1472.84 144.083 1471.59C146.522 1470.29 148.72 1470.25 150.677 1471.46C151.558 1472.01 152.287 1472.77 152.864 1473.73C156.011 1472.81 158.92 1472.85 161.59 1473.85C164.282 1474.8 166.549 1476.66 168.39 1479.43L171.75 1484.45C172.817 1486.03 174.706 1486.44 177.419 1485.68C178.379 1485.41 179.377 1485.5 180.413 1485.95C181.47 1486.36 182.342 1486.99 183.029 1487.84C183.737 1488.64 184.246 1489.57 184.556 1490.63C184.887 1491.65 184.895 1492.55 184.579 1493.35C184.054 1494.71 178.715 1498.96 168.562 1506.1C165.218 1508.45 162.397 1510.37 160.098 1511.85C160.201 1511.93 160.294 1512.02 160.376 1512.15C160.491 1512.26 160.648 1512.43 160.845 1512.66C161.319 1513.13 161.819 1513.51 162.345 1513.81C163.806 1514.61 165.308 1514.63 166.851 1513.88C168.804 1512.9 169.897 1511.54 170.131 1509.79C170.198 1509.35 170.196 1508.87 170.126 1508.37C170.077 1508.24 170.039 1508.08 170.012 1507.9C170 1507.87 169.975 1507.8 169.939 1507.7C169.851 1507.35 169.887 1507.04 170.048 1506.75C170.242 1506.45 170.496 1506.27 170.809 1506.19C171.143 1506.07 171.453 1506.09 171.738 1506.25C172.069 1506.43 172.273 1506.68 172.349 1506.99C172.386 1507.09 172.405 1507.2 172.408 1507.31C172.494 1507.55 172.556 1507.77 172.595 1507.98C172.705 1508.7 172.719 1509.41 172.637 1510.12C172.304 1512.74 170.738 1514.73 167.941 1516.09C165.599 1517.24 163.332 1517.2 161.138 1515.95C159.962 1515.32 159.029 1514.53 158.34 1513.57C158.245 1513.41 158.185 1513.25 158.157 1513.07ZM144.755 1478.27C145.763 1477.3 146.927 1476.44 148.245 1475.7C148.977 1475.32 149.715 1474.95 150.459 1474.61C150.122 1474.2 149.746 1473.84 149.333 1473.54C148.212 1472.85 146.859 1472.93 145.273 1473.77C144.177 1474.4 143.811 1475.42 144.176 1476.84C144.313 1477.32 144.506 1477.8 144.755 1478.27ZM181.476 1492.15C181.643 1491.67 181.309 1490.96 180.473 1490.02C179.671 1489.06 178.963 1488.68 178.349 1488.86C174.109 1490.1 170.998 1489.25 169.017 1486.3L165.607 1481.3C163.79 1478.59 161.547 1477 158.88 1476.54C156.246 1476.06 153.245 1476.75 149.877 1478.62C146.83 1480.34 145.031 1482.62 144.479 1485.47C143.949 1488.27 144.674 1491.15 146.655 1494.1L150.197 1498.99C151.313 1500.71 151.69 1502.78 151.329 1505.22C150.99 1507.62 150.007 1509.54 148.383 1511.01C148.386 1511.12 148.436 1511.31 148.533 1511.58C148.652 1511.8 148.93 1512.09 149.367 1512.46C149.826 1512.79 150.311 1513.03 150.821 1513.18C150.742 1513.17 150.753 1513.15 150.853 1513.11C151.12 1513.02 151.498 1512.86 151.987 1512.64C152.953 1512.18 154.244 1511.46 155.86 1510.5C158.782 1508.75 162.384 1506.38 166.666 1503.39C170.517 1500.66 173.979 1498.11 177.053 1495.75C178.495 1494.62 179.634 1493.69 180.469 1492.97C180.876 1492.63 181.189 1492.35 181.408 1492.12L181.476 1492.15Z" fill="#E41B23"/>
<rect width="64" height="64" transform="translate(94.8894 102) rotate(20)" fill="#F7F7F6"/>
<path d="M91.4418 137.965C94.808 136.617 98.4957 136.881 102.505 138.756C105.248 140.057 107.123 142.234 108.13 145.288C109.85 144.513 111.603 144.584 113.389 145.499C113.887 143.713 114.758 142.1 116.001 140.66C116.964 139.573 118.142 138.677 119.533 137.973C120.958 137.281 122.454 136.861 124.022 136.712C125.635 136.543 127.178 136.669 128.651 137.092C130.437 137.59 132.013 138.353 133.38 139.381C132.816 137.397 132.127 135.443 131.313 133.52C130.512 131.564 129.697 129.905 128.868 128.544C128.072 127.195 127.371 126.315 126.763 125.905C125.77 125.203 124.917 124.949 124.203 125.143C123.489 125.337 123.027 125.983 122.817 127.079C122.759 127.55 122.53 127.921 122.129 128.191C121.773 128.44 121.36 128.535 120.889 128.478C120.431 128.386 120.06 128.157 119.778 127.789C119.541 127.4 119.468 126.977 119.559 126.518C119.997 124.067 121.135 122.551 122.973 121.971C124.845 121.404 126.763 121.799 128.728 123.158C130.505 124.41 132.433 127.533 134.512 132.528C136.604 137.489 137.764 141.941 137.994 145.884C138.021 146.121 137.992 146.357 137.907 146.59C138.089 147.754 138.101 148.969 137.943 150.236C137.334 155.236 135.411 158.698 132.175 160.623C130.106 161.837 127.685 162.356 124.912 162.179C122.418 162.066 120.029 161.197 117.745 159.571C115.495 157.957 114.08 156.023 113.5 153.769C113.157 152.32 112.965 150.925 112.923 149.586C112.889 149.574 112.845 149.539 112.791 149.481C111.363 148.205 110.016 148.112 108.749 149.202C108.802 153.421 107.235 157.051 104.048 160.091C102.58 161.524 100.668 162.36 98.3104 162.6C95.9743 162.885 93.684 162.524 91.4394 161.518C88.9944 160.439 87.0932 158.801 85.736 156.604C84.4122 154.42 83.851 151.907 84.0523 149.067C84.1926 147.226 84.6153 145.545 85.3205 144.023C87.3483 138.556 89.6356 133.675 92.1825 129.38C94.7294 125.086 96.849 122.433 98.5413 121.422C99.2735 120.97 100.074 120.693 100.943 120.593C101.812 120.493 102.614 120.577 103.349 120.845C104.129 121.091 104.805 121.469 105.376 121.98C105.992 122.469 106.43 123.139 106.688 123.99C106.946 124.84 106.988 125.764 106.814 126.76C106.775 126.973 106.685 127.167 106.545 127.343C106.439 127.532 106.289 127.685 106.094 127.803C105.933 127.934 105.745 128.036 105.529 128.109C105.326 128.148 105.117 128.148 104.905 128.108C104.592 128.032 104.32 127.896 104.089 127.698C103.892 127.513 103.729 127.283 103.602 127.01C103.52 126.715 103.511 126.428 103.575 126.149C103.724 125.219 103.399 124.552 102.6 124.148C101.847 123.722 101.076 123.763 100.286 124.27C99.3255 124.829 98.0067 126.373 96.3291 128.903C94.685 131.445 93.0559 134.466 91.4418 137.965ZM105.031 148.189C104.843 146.834 104.398 145.613 103.697 144.525C102.996 143.438 102.079 142.631 100.946 142.105C99.1809 141.236 97.483 140.807 95.8517 140.819C94.266 140.809 92.9066 141.165 91.7733 141.888C90.6734 142.623 89.7405 143.627 88.9747 144.899C88.2209 146.138 87.7983 147.612 87.7066 149.319C87.5724 151.351 87.9622 153.139 88.8761 154.682C89.8234 156.238 91.1748 157.411 92.9304 158.201C93.9752 158.657 95.0475 158.934 96.1471 159.031C97.2467 159.129 98.2674 159.027 99.2092 158.727C100.139 158.46 100.915 158.042 101.538 157.474C103.999 155.078 105.183 152.293 105.09 149.119C104.975 148.812 104.955 148.502 105.031 148.189ZM127.643 140.641C126.103 140.194 124.472 140.206 122.749 140.676C121.06 141.159 119.728 141.96 118.752 143.081C116.604 145.553 116.043 148.811 117.068 152.854C117.444 154.315 118.433 155.602 120.033 156.714C121.667 157.839 123.361 158.436 125.113 158.507C127.179 158.653 128.892 158.312 130.254 157.483C132.471 156.171 133.818 153.615 134.293 149.815C134.57 147.495 134.089 145.541 132.85 143.955C131.645 142.381 129.909 141.277 127.643 140.641Z" fill="#E41B23"/>
</svg>
