<svg width="19" height="19" viewBox="0 0 19 19" fill="none" xmlns="http://www.w3.org/2000/svg">
<path d="M8.44 18.5C6.74667 18.5 5.25333 18.0933 3.96 17.28C2.68 16.4667 1.7 15.3533 1.02 13.94C0.34 12.5133 0 10.9067 0 9.12C0 7.41333 0.386666 5.86667 1.16 4.48C1.94667 3.09333 3.03333 2 4.42 1.2C5.82 0.4 7.38667 0 9.12 0C11.92 0 14.14 0.813333 15.78 2.44C17.42 4.05333 18.24 6.28 18.24 9.12C18.24 10.9733 17.8133 12.6133 16.96 14.04C16.12 15.4667 14.96 16.5667 13.48 17.34C12 18.1133 10.32 18.5 8.44 18.5ZM8.44 16.94C10.88 16.94 12.86 16.2267 14.38 14.8C15.9133 13.36 16.68 11.4667 16.68 9.12C16.68 6.72 16.0133 4.86 14.68 3.54C13.3467 2.22 11.4933 1.56 9.12 1.56C7.66667 1.56 6.36 1.89333 5.2 2.56C4.05333 3.21333 3.16 4.11333 2.52 5.26C1.88 6.40667 1.56 7.69333 1.56 9.12C1.56 11.44 2.18 13.3267 3.42 14.78C4.67333 16.22 6.34667 16.94 8.44 16.94ZM8.48 9.42C8.62667 9.43333 8.75333 9.44 8.86 9.44V5.14C8.86 5.00667 8.89333 4.88 8.96 4.76C9.04 4.64 9.14 4.54667 9.26 4.48C9.38 4.4 9.50667 4.36 9.64 4.36C9.74667 4.36 9.84667 4.38 9.94 4.42C10.0467 4.46 10.1333 4.52 10.2 4.6C10.2667 4.66667 10.32 4.74667 10.36 4.84C10.4 4.93333 10.42 5.03333 10.42 5.14V9.86C10.42 10.34 10.24 10.66 9.88 10.82C9.53333 10.98 9.01333 11.0267 8.32 10.96C7.44 10.88 6.14667 10.6067 4.44 10.14C4.22667 10.0867 4.06667 9.96667 3.96 9.78C3.85333 9.58 3.82667 9.38 3.88 9.18C3.94667 8.96667 4.07333 8.80667 4.26 8.7C4.44667 8.59333 4.64667 8.57333 4.86 8.64C6.47333 9.08 7.68 9.34 8.48 9.42Z" fill="black"/>
</svg>
