<svg width="70" height="70" viewBox="0 0 70 70" fill="none" xmlns="http://www.w3.org/2000/svg">
<path d="M11.5837 20.4524L11.838 19.4181C16.3541 20.5269 20.6945 22.1819 24.8593 24.3832C29.0159 26.5545 32.691 29.0319 35.8846 31.8155C39.0701 34.569 41.862 37.4763 44.2603 40.5374C46.6887 43.5905 48.6612 46.6851 50.1779 49.8214L49.1444 50.2916L48.1561 50.7496C46.7478 47.7775 44.8796 44.832 42.5516 41.9132C40.2456 38.9562 37.546 36.1529 34.4528 33.5035C31.3816 30.8159 27.8399 28.4155 23.8275 26.3022C19.8152 24.1888 15.6532 22.5987 11.3416 21.5318L11.5837 20.4524ZM46.3229 46.0717L46.7875 47.4449C39.953 49.8236 34.0997 49.0732 29.2276 45.1935L28.3671 44.5061L28.7687 43.4807L29.9194 40.5636C29.8212 40.5577 29.5398 40.6492 29.0751 40.8382C28.6024 40.997 27.9883 41.0489 27.2327 40.9937C26.4992 40.9004 25.9698 40.6074 25.6446 40.1149C24.1247 37.6879 22.4546 35.3013 20.6343 32.9549C18.8139 30.6085 16.703 28.2595 14.3015 25.9078C11.892 23.526 9.67169 21.8504 7.64058 20.881L3.15631 18.7492L8.07016 18.1571C18.8154 16.7916 26.4134 16.9619 30.8641 18.6679L31.4115 18.9077L31.6465 19.4244L33.2647 22.759C34.0893 21.9905 34.903 21.2411 35.7057 20.5107L36.2522 20.0261L37.0249 20.2055C42.8198 21.5192 47.0017 23.8447 49.5707 27.1821L50.2541 28.1101L49.5217 28.9827L47.3696 31.5883L50.9796 31.5389L52.4284 31.5372L52.4752 32.9739C52.5519 38.4284 50.4745 42.3345 46.2431 44.6921L45.5983 43.3673L44.9534 42.0425C46.3754 41.3395 47.4573 40.3893 48.1993 39.1921C48.9333 37.9648 49.3673 36.3993 49.5013 34.4954L44.193 34.5168L41.0579 34.5356L43.0659 32.1135L46.4727 28.0605C45.4133 26.9917 44.1678 26.0694 42.7361 25.2936C41.3044 24.5178 39.4289 23.8287 37.1097 23.2263C36.2249 24.0109 35.125 25.0142 33.8099 26.2361L32.3266 27.5514L31.5159 25.788L29.2771 21.2188C25.6887 20.0868 20.1387 19.8671 12.6269 20.5594C15.2564 22.5601 17.8956 25.138 20.5445 28.293C23.1935 31.4479 25.606 34.6823 27.7822 37.9962C28.776 37.8587 30.1663 37.5184 31.9531 36.9752L34.8587 36.1L33.7289 38.9149L31.8708 43.519C33.794 44.8072 35.8369 45.5803 37.9994 45.8382C40.184 46.058 42.7996 45.6632 45.8463 44.6535L46.3229 46.0717ZM50.5758 53.2897L50.6739 52.3938C51.3393 52.4732 51.9964 52.281 52.6451 51.8174C53.3319 51.3757 54.1064 50.5401 54.9686 49.3107C55.7949 48.1875 56.7899 47.4539 57.9538 47.1099C59.1257 46.7958 60.1568 46.8577 61.047 47.2955C61.9754 47.7553 62.5643 48.451 62.8139 49.3825L61.9125 49.624L61.0561 49.8535C61.0078 49.6732 60.8763 49.483 60.6616 49.2829C60.4851 49.1047 60.2224 48.9658 59.8736 48.866C59.5629 48.7882 59.2152 48.7525 58.8304 48.759C58.4838 48.7875 58.0902 48.9413 57.6497 49.2203C57.2392 49.4913 56.8459 49.8866 56.4698 50.406C55.4515 51.7739 54.4908 52.756 53.5877 53.3522C52.7228 53.9705 51.6861 54.2482 50.4777 54.1856L50.5758 53.2897Z" fill="#E41B23"/>
</svg>
