<svg width="428" height="397" viewBox="0 0 428 397" fill="none" xmlns="http://www.w3.org/2000/svg">
<path d="M426.5 1.5C426.004 34.142 389.981 144.031 371.056 170.631C360.388 185.626 346.198 198.683 328.444 204.509C308.093 211.186 277.897 214.662 260.853 199.039C247.293 186.609 242.15 161.4 254.894 146.387C262.764 137.117 274.86 132.847 286.078 129.408C291.384 127.781 303.061 122.143 308.608 126.142C323.633 136.975 323.465 167.252 323.465 183.284C323.465 229.9 282.478 265.285 248.282 291.446C212.774 318.611 173.621 342.753 131.468 357.976C89.2898 373.207 45.2991 383.549 2 395.036" stroke="#E41B23" stroke-width="3" stroke-linecap="round" stroke-dasharray="6 13"/>
</svg>
