<svg width="20" height="20" viewBox="0 0 20 20" fill="none" xmlns="http://www.w3.org/2000/svg">
<path d="M18.16 2.38462V2.34462L18.14 2.30462C18.0867 1.94462 17.9267 1.63795 17.66 1.38462C17.4067 1.11795 17.1 0.957949 16.74 0.904616L11.08 0.0246155C10.7333 -0.028718 10.38 0.00461532 10.02 0.124615C9.67333 0.231282 9.37333 0.411282 9.12 0.664616C7.66667 1.90462 6.68667 2.77795 6.18 3.28462C4.71333 4.73795 2.78 6.77795 0.38 9.40462C0.126667 9.64462 0 9.95128 0 10.3246C0 10.6846 0.126667 10.9913 0.38 11.2446C2.42 13.2713 3.80667 14.6513 4.54 15.3846C5.36667 16.2113 6.45333 17.3046 7.8 18.6646C8.05333 18.9179 8.36 19.0446 8.72 19.0446C9.08 19.0446 9.39333 18.9113 9.66 18.6446C10.94 17.2579 11.9733 16.1713 12.76 15.3846C13.9067 14.238 15.7733 12.4246 18.36 9.94462C18.6133 9.69128 18.8 9.38462 18.92 9.02462C19.04 8.66462 19.0733 8.30462 19.02 7.94462L19 7.92462V7.88462C18.68 6.64462 18.4667 5.67128 18.36 4.96462C18.28 4.47128 18.2133 3.61128 18.16 2.38462ZM16.54 2.56462C16.62 3.83128 16.7 4.71795 16.78 5.22462C16.8733 5.90462 17.0867 6.91795 17.42 8.26462C17.3267 8.58462 17.26 8.76462 17.22 8.80462C14.6467 11.2713 12.78 13.0846 11.62 14.2446C10.9133 14.9513 9.94667 15.9646 8.72 17.2846C7.41333 15.978 6.4 14.9646 5.68 14.2446C4.97333 13.5379 3.66 12.2246 1.74 10.3046C4.06 7.78462 5.92 5.82462 7.32 4.42462C7.8 3.94462 8.76 3.09128 10.2 1.86462L10.22 1.84462L10.24 1.82461C10.2667 1.79795 10.36 1.75795 10.52 1.70462C10.6933 1.63795 10.8 1.61128 10.84 1.62462L16.46 2.48462L16.54 2.56462ZM12.8 6.24462C12.5467 5.99128 12.42 5.69128 12.42 5.34462C12.42 4.98462 12.5467 4.67795 12.8 4.42462C13.0533 4.17128 13.3533 4.04462 13.7 4.04462C14.06 4.04462 14.3667 4.17128 14.62 4.42462C14.8733 4.67795 15 4.98462 15 5.34462C15 5.69128 14.8733 5.99128 14.62 6.24462C14.3667 6.49795 14.06 6.62462 13.7 6.62462C13.3533 6.62462 13.0533 6.49795 12.8 6.24462Z" fill="#E41B23"/>
</svg>
