<svg width="23" height="23" viewBox="0 0 23 23" fill="none" xmlns="http://www.w3.org/2000/svg">
<path fill-rule="evenodd" clip-rule="evenodd" d="M21.5199 3.11408V3.06742L21.4966 3.02075C21.4344 2.60075 21.2477 2.24297 20.9366 1.94742C20.641 1.6363 20.2833 1.44964 19.8633 1.38742L13.2599 0.360749C12.8555 0.298527 12.4433 0.337416 12.0233 0.477416C11.6188 0.601861 11.2688 0.811861 10.9733 1.10742C9.2777 2.55408 8.13436 3.57297 7.54325 4.16408C5.83214 5.85964 3.57659 8.23964 0.776585 11.3041C0.48103 11.5841 0.333252 11.9419 0.333252 12.3774C0.333252 12.7974 0.48103 13.1552 0.776585 13.4507C3.15659 15.8152 4.77436 17.4252 5.62992 18.2808C6.59436 19.2452 7.86214 20.5207 9.43325 22.1074C9.72881 22.403 10.0866 22.5508 10.5066 22.5508C10.9266 22.5508 11.2921 22.3952 11.6033 22.0841C13.0966 20.4663 14.3021 19.1985 15.2199 18.2808C16.5577 16.943 18.7355 14.8274 21.7533 11.9341C22.0488 11.6385 22.2666 11.2808 22.4066 10.8608C22.5466 10.4408 22.5855 10.0208 22.5233 9.60075L22.4999 9.57742V9.53075C22.1266 8.08408 21.8777 6.94853 21.7533 6.12408C21.6599 5.54853 21.5821 4.54519 21.5199 3.11408ZM14.8233 6.56742C14.8233 6.97186 14.971 7.32186 15.2666 7.61742C15.5621 7.91297 15.9121 8.06075 16.3166 8.06075C16.7366 8.06075 17.0944 7.91297 17.3899 7.61742C17.6855 7.32186 17.8333 6.97186 17.8333 6.56742C17.8333 6.14742 17.6855 5.78964 17.3899 5.49408C17.0944 5.19853 16.7366 5.05075 16.3166 5.05075C15.9121 5.05075 15.5621 5.19853 15.2666 5.49408C14.971 5.78964 14.8233 6.14742 14.8233 6.56742Z" fill="white"/>
</svg>
