<svg width="14" height="18" viewBox="0 0 14 18" fill="none" xmlns="http://www.w3.org/2000/svg">
<path d="M6.98 0.559999C8.94 0.559999 10.4733 1.11333 11.58 2.22C12.6867 3.32667 13.24 4.88667 13.24 6.9C13.24 8.67333 12.7533 10.4 11.78 12.08C10.82 13.7467 9.36 15.48 7.4 17.28C7.28 17.3867 7.13333 17.44 6.96 17.44C6.8 17.44 6.66 17.38 6.54 17.26C6.5 17.22 6.22667 16.9533 5.72 16.46C5.21333 15.9667 4.89333 15.6533 4.76 15.52C4.10667 14.8667 3.56667 14.3067 3.14 13.84C2.1 12.6933 1.33333 11.6133 0.84 10.6C0.36 9.57333 0.12 8.5 0.12 7.38C0.12 5.26 0.706667 3.59333 1.88 2.38C3.06667 1.16667 4.76667 0.559999 6.98 0.559999ZM5.64 14.64C5.77333 14.76 6.22667 15.1933 7 15.94C8.66667 14.3533 9.91333 12.8267 10.74 11.36C11.58 9.89333 12 8.40667 12 6.9C12 5.23333 11.5667 3.97333 10.7 3.12C9.83333 2.25333 8.59333 1.82 6.98 1.82C5.12667 1.82 3.72667 2.3 2.78 3.26C1.84667 4.22 1.38 5.59333 1.38 7.38C1.38 8.32667 1.59333 9.24 2.02 10.12C2.44667 11 3.12667 11.96 4.06 13C4.47333 13.4533 5 14 5.64 14.64ZM7.9 7.42C7.54 7.78 7.1 7.96 6.58 7.96C6.06 7.96 5.61333 7.78 5.24 7.42C4.88 7.04667 4.7 6.6 4.7 6.08C4.7 5.56 4.88 5.12 5.24 4.76C5.61333 4.38667 6.06 4.2 6.58 4.2C7.1 4.2 7.54 4.38667 7.9 4.76C8.27333 5.12 8.46 5.56 8.46 6.08C8.46 6.6 8.27333 7.04667 7.9 7.42Z" fill="#E41B23"/>
</svg>
