<svg width="56" height="56" viewBox="0 0 56 56" fill="none" xmlns="http://www.w3.org/2000/svg">
<path d="M34.7175 40.6001C36.6462 40.289 38.5127 39.5268 40.317 38.3136C42.1214 37.0693 43.6612 35.576 44.9367 33.8339C46.2433 32.0607 47.1921 30.0231 47.7832 27.721C48.4053 25.3879 48.5142 23.0858 48.1098 20.8149C47.6743 18.3884 46.6944 16.1019 45.17 13.9554C43.6768 11.8089 41.5614 10.1912 38.8238 9.10241C36.0862 7.98249 33.1154 7.57808 29.9111 7.88917C26.738 8.20025 23.876 9.27351 21.3251 11.1089C19.5208 12.3844 17.9965 13.9709 16.7521 15.8686C15.7566 17.3929 15.15 19.2128 14.9322 21.3282C14.7145 23.4436 14.8545 25.559 15.3522 27.6744C15.8811 29.7587 16.8143 31.7963 18.152 33.7873C19.4897 35.7782 21.1073 37.3648 23.005 38.5469C26.3958 40.6623 30.3 41.3467 34.7175 40.6001ZM35.2308 43.4932C30.0667 44.3332 25.4781 43.5088 21.4651 41.0201C19.2253 39.6202 17.3276 37.7848 15.7722 35.5138C14.2167 33.2118 13.1279 30.8319 12.5058 28.3743C11.9147 25.9167 11.7591 23.428 12.0391 20.9082C12.3191 18.3884 13.0657 16.1797 14.279 14.282C15.7411 12.0733 17.5143 10.2223 19.5986 8.7291C22.585 6.6137 25.9137 5.36935 29.5845 4.99604C33.2865 4.59163 36.7395 5.05826 39.9437 6.39594C43.1791 7.70251 45.7144 9.66237 47.5498 12.2755C49.3231 14.7953 50.4585 17.4551 50.9563 20.2549C51.454 22.9614 51.3607 25.6679 50.6763 28.3743C49.9919 31.0808 48.8875 33.4606 47.3632 35.5138C45.8389 37.567 44.0034 39.3091 41.8569 40.7401C39.7415 42.1711 37.5328 43.0888 35.2308 43.4932ZM41.5303 30.5208C41.9658 29.1832 42.2458 27.8455 42.3702 26.5078C42.5258 25.1701 42.4636 23.8013 42.1836 22.4014C41.9036 21.0015 41.3903 19.7572 40.6437 18.6684C39.9282 17.5796 38.8394 16.6463 37.3773 15.8686C35.9151 15.0598 34.1419 14.5465 32.0577 14.3287C29.9734 14.1109 27.9824 14.5931 26.0848 15.7753C24.2182 16.9263 22.8339 18.6684 21.9317 21.0015C21.0296 23.3036 21.0607 26.15 22.0251 29.5409C22.3984 30.7853 23.0983 31.9207 24.1249 32.9473C25.1515 33.9428 26.3336 34.6894 27.6713 35.1872C29.009 35.6849 30.44 35.996 31.9643 36.1204C33.4887 36.2449 34.9197 36.0738 36.2573 35.6071C38.9638 34.7361 40.7215 33.0407 41.5303 30.5208ZM43.6301 31.2208C43.1013 32.8384 42.2458 34.1917 41.0637 35.2805C39.8815 36.3693 38.5127 37.1626 36.9573 37.6603C35.7129 38.0647 34.3753 38.298 32.9443 38.3603C31.5444 38.3914 30.16 38.2358 28.7912 37.8936C27.4535 37.5203 26.1781 37.007 24.9648 36.3537C23.7827 35.6694 22.7406 34.7983 21.8384 33.7406C20.9362 32.6518 20.2985 31.4541 19.9252 30.1475C18.8675 26.29 18.852 22.9925 19.8785 20.2549C20.9362 17.4862 22.6161 15.3708 24.9182 13.9087C27.2513 12.4466 29.7089 11.8555 32.291 12.1355C34.3442 12.3533 36.1485 12.8199 37.7039 13.5354C39.2593 14.2509 40.4881 15.1375 41.3903 16.1952C42.2925 17.2218 43.008 18.3573 43.5368 19.6016C44.0968 20.846 44.4234 22.1526 44.5167 23.5214C44.6101 24.8901 44.579 26.2123 44.4234 27.4877C44.2679 28.7632 44.0034 30.0075 43.6301 31.2208ZM34.5775 26.4611C35.0441 26.1812 35.3863 25.7923 35.6041 25.2946C35.8218 24.7657 35.9151 24.2835 35.884 23.848C35.8529 23.4125 35.8374 23.0236 35.8374 22.6814C35.8374 22.3392 35.9151 22.1681 36.0707 22.1681C37.6572 22.1992 38.7461 22.5881 39.3371 23.3347C39.9593 24.0813 40.2704 25.2323 40.2704 26.7878C40.2704 28.3121 39.7882 29.6342 38.8238 30.7542C37.8906 31.843 36.6773 32.3874 35.1841 32.3874C33.7842 32.3874 32.4932 31.7185 31.311 30.3809C30.1289 29.0432 29.7556 27.8921 30.1911 26.9278C30.4089 26.7411 30.6422 26.7256 30.8911 26.8811C31.1399 27.0055 31.6221 27.0678 32.3376 27.0678C33.0842 27.0678 33.8309 26.8656 34.5775 26.4611ZM21.2784 40.8801L20.0185 40.1335C19.9874 40.1646 18.8364 41.2223 16.5655 43.3066C14.3256 45.3909 13.0502 46.5574 12.7391 46.8063C12.1169 47.3352 11.6658 47.6151 11.3858 47.6463C11.137 47.7085 10.7325 47.5685 10.1726 47.2263C9.48819 46.7597 9.06822 46.2464 8.91268 45.6864C8.78824 45.1264 8.91268 44.6909 9.28599 44.3798C9.3482 44.3176 9.98593 43.6488 11.1992 42.3733C12.4124 41.129 13.5635 39.9468 14.6523 38.8269C15.7722 37.6759 16.3477 37.1004 16.3788 37.1004L15.8188 35.7471L15.2122 34.3939C14.7767 34.6117 14.1079 35.1405 13.2057 35.9804C12.3347 36.7893 11.4947 37.6292 10.6859 38.5003C9.90816 39.3402 9.13044 40.1801 8.35272 41.0201C7.60611 41.86 7.21725 42.2955 7.18614 42.3266C6.43953 43.1044 6.03511 43.9754 5.9729 44.9398C5.94179 45.9353 6.15955 46.8219 6.62618 47.5996C7.09281 48.4084 7.71499 49.0928 8.49271 49.6528C10.4526 51.0216 12.4902 50.8194 14.6056 49.0462C15.6944 48.144 17.1876 46.8219 19.0853 45.0798C21.014 43.3688 22.1495 42.2333 22.4917 41.6734L21.2784 40.8801Z" fill="#E41B23"/>
</svg>
