<svg width="19" height="25" viewBox="0 0 19 25" fill="none" xmlns="http://www.w3.org/2000/svg">
<path d="M11.0005 3.24376C10.9649 3.29709 10.9294 3.35932 10.8938 3.43043C10.3249 4.51487 9.56046 6.07932 8.60046 8.12376C8.44046 8.47932 8.1738 8.64821 7.80046 8.63043C6.69824 8.55932 5.47157 8.89709 4.12046 9.64376C3.62269 9.91043 3.19602 10.1949 2.84046 10.4971C2.50268 10.7993 2.3338 11.0215 2.3338 11.1638C2.26268 11.7504 2.72491 12.5771 3.72046 13.6438C4.7338 14.7104 5.92491 15.5993 7.2938 16.3104C8.53824 16.9504 9.88046 17.3949 11.3205 17.6438C12.7605 17.8749 13.8716 17.8482 14.6538 17.5638C14.7427 17.4393 14.8049 17.1815 14.8405 16.7904C14.8938 16.3993 14.8938 15.9193 14.8405 15.3504C14.6982 13.8215 14.2805 12.6038 13.5871 11.6971C13.356 11.3949 13.3471 11.0749 13.5605 10.7371C14.7694 8.83487 15.6582 7.34154 16.2271 6.25709C16.2627 6.16821 16.3071 6.08821 16.3605 6.01709C16.2894 6.01709 16.2182 6.01709 16.1471 6.01709C15.3294 5.98154 14.4138 5.71487 13.4005 5.21709C12.3338 4.68376 11.5782 4.08821 11.1338 3.43043C11.0805 3.35932 11.036 3.29709 11.0005 3.24376ZM12.0671 1.77709C11.7294 2.07932 11.7027 2.43487 11.9871 2.84376C12.3427 3.35932 12.9649 3.83932 13.8538 4.28376C14.7249 4.71043 15.5071 4.94154 16.2005 4.97709C16.6627 4.99487 16.8938 4.89709 16.8938 4.68376C16.8938 4.6482 16.8938 4.61265 16.8938 4.57709C16.876 4.47043 16.8671 4.39932 16.8671 4.36376C16.8316 4.20376 16.7871 4.05265 16.7338 3.91043C16.4671 3.28821 15.8894 2.73709 15.0005 2.25709C14.1827 1.81265 13.4182 1.61709 12.7071 1.67043C12.476 1.68821 12.2627 1.72376 12.0671 1.77709ZM15.5605 18.9771C15.5071 19.0127 15.4538 19.0393 15.4005 19.0571C14.3516 19.466 12.9827 19.5549 11.2938 19.3238C9.62268 19.0749 8.04046 18.5593 6.54713 17.7771C4.82268 16.906 3.38268 15.8127 2.22713 14.4971C1.08935 13.1638 0.573796 11.9993 0.680462 11.0038C0.733796 10.4349 1.10713 9.83932 1.80046 9.21709C2.51157 8.59487 3.3738 8.07932 4.38713 7.67043C5.41824 7.24376 6.39602 7.00376 7.32046 6.95043C7.99602 5.51043 8.55602 4.35487 9.00046 3.48376C9.44491 2.59487 9.82713 1.90154 10.1471 1.40376C10.4671 0.905983 10.7249 0.603761 10.9205 0.497094C11.4005 0.212649 11.9516 0.0526491 12.5738 0.017094C13.6049 -0.0717948 14.6805 0.185983 15.8005 0.790427C17.0271 1.46598 17.8538 2.29265 18.2805 3.27043C18.3694 3.51932 18.4405 3.77709 18.4938 4.04376L18.5738 4.44376C18.6449 4.85265 18.4227 5.57265 17.9071 6.60376C17.4094 7.63487 16.5205 9.15487 15.2405 11.1638C16.0227 12.4438 16.4582 13.9282 16.5471 15.6171C16.636 17.306 16.3071 18.426 15.5605 18.9771ZM6.20046 16.6571C6.30713 16.4438 6.46713 16.3104 6.68046 16.2571C6.91157 16.186 7.12491 16.2038 7.32046 16.3104C7.5338 16.4171 7.66713 16.586 7.72046 16.8171C7.79157 17.0304 7.7738 17.2438 7.66713 17.4571C6.63602 19.306 5.36491 21.4038 3.8538 23.7504C3.72935 23.946 3.55157 24.0704 3.32046 24.1238C3.10713 24.1771 2.90268 24.1415 2.70713 24.0171C2.51157 23.8927 2.38713 23.7149 2.3338 23.4838C2.29824 23.2704 2.34268 23.066 2.46713 22.8704C3.96046 20.5415 5.20491 18.4704 6.20046 16.6571Z" fill="#E41B23"/>
</svg>
