<svg width="30" height="37" viewBox="0 0 30 37" fill="none" xmlns="http://www.w3.org/2000/svg">
<path d="M1.17289 16.7454C0.9553 17.0833 0.887326 17.4685 0.968971 17.901C1.3814 19.7899 2.4289 22.6245 2.85057 24.3565L5.87784 24.3565C5.46921 22.6728 4.4272 19.0781 4.02695 17.2389C3.94531 16.8064 3.72142 16.4819 3.35529 16.2655C2.98043 16.0164 2.58536 15.9475 2.17009 16.0588C1.74609 16.1375 1.41369 16.3663 1.17289 16.7454Z" fill="#E41B23"/>
<path d="M18.3821 4.68987C19.7161 5.83528 20.6933 7.56559 21.3136 9.88081L25.6074 24.3565L29.1789 24.3565L24.2844 9.0848C23.4456 5.95436 22.0206 3.57513 20.0095 1.94711C17.9984 0.319088 15.6352 -0.131155 12.92 0.59638C10.2048 1.32392 8.3528 2.78128 7.36396 4.96849C6.37513 7.1557 6.27389 9.7167 7.06027 12.6515L12.0144 31.1407C12.4076 32.6081 12.9138 33.7306 13.5331 34.5084C14.789 36.129 16.4814 36.759 18.6101 36.3983C20.6837 36.0873 22.07 35.1916 22.7689 33.7112C23.4678 32.2308 23.5245 30.3982 22.9391 28.2134L18.5747 11.9253C18.4611 11.5014 18.2213 11.1812 17.8551 10.9648C17.489 10.7483 17.0983 10.6958 16.6831 10.807C16.2678 10.9183 15.9398 11.1635 15.699 11.5425C15.4901 11.913 15.4425 12.3103 15.5561 12.7342L19.9204 29.0223C20.1564 29.9027 20.2527 30.6458 20.2096 31.2515C20.1897 31.816 20.0027 32.268 19.6486 32.6076C19.2945 32.9471 18.7893 33.1699 18.1329 33.2758C17.5405 33.3647 17.0496 33.3215 16.6602 33.1462C16.2709 32.9709 15.9512 32.6721 15.7011 32.2498C15.4742 31.7864 15.2515 31.147 15.0331 30.3318L10.0789 11.8426C9.51099 9.72307 9.51696 7.9565 10.0968 6.54293C10.7086 5.12079 11.9249 4.16579 13.7457 3.67791C15.5026 3.20715 17.0481 3.54447 18.3821 4.68987Z" fill="#E41B23"/>
</svg>
