<svg width="27" height="36" viewBox="0 0 27 36" fill="none" xmlns="http://www.w3.org/2000/svg">
<path d="M8.3586 11.6407C7.21193 10.174 6.74526 8.52071 6.95859 6.68071C7.19859 4.84071 8.0386 3.36071 9.4786 2.24071C10.5986 1.36071 11.7453 0.774042 12.9186 0.480709C14.0919 0.187376 15.2653 0.227376 16.4386 0.60071C17.6119 0.947375 18.6786 1.65404 19.6386 2.72071C21.0786 4.45404 21.6386 6.36071 21.3186 8.44071C21.0253 10.5207 20.0253 12.2274 18.3186 13.5607C16.8786 14.654 15.1586 15.0007 13.1586 14.6007C11.1586 14.174 9.5586 13.1874 8.3586 11.6407ZM10.3186 10.0807C11.1186 11.094 12.1853 11.7607 13.5186 12.0807C14.8786 12.4007 15.9719 12.2407 16.7986 11.6007C17.9453 10.694 18.6253 9.54738 18.8386 8.16071C19.0519 6.74738 18.6919 5.49404 17.7586 4.40071C16.8253 3.33404 15.7586 2.80071 14.5586 2.80071C13.3853 2.77404 12.2119 3.24071 11.0386 4.20071C10.1053 4.92071 9.57193 5.85404 9.43859 7.00071C9.30526 8.14738 9.5986 9.17404 10.3186 10.0807ZM2.11859 34.7207C1.79859 34.7207 1.51859 34.614 1.27859 34.4007C1.06526 34.214 0.931927 33.974 0.878594 33.6807C0.451927 30.8807 0.451927 28.2007 0.878594 25.6407C1.27859 23.2407 2.74526 21.134 5.2786 19.3207C7.81193 17.5074 10.6253 16.6007 13.7186 16.6007C15.2653 16.6007 16.7986 16.894 18.3186 17.4807C19.8386 18.0407 21.1719 18.8007 22.3186 19.7607C23.4919 20.694 24.4653 21.774 25.2386 23.0007C26.0119 24.2274 26.4786 25.4674 26.6386 26.7207C26.9853 29.4674 26.9853 31.9207 26.6386 34.0807C26.5853 34.4007 26.4386 34.654 26.1986 34.8407C25.9586 35.054 25.6919 35.1607 25.3986 35.1607L2.11859 34.7207ZM24.3186 32.6407C24.4786 30.9607 24.4253 29.0807 24.1586 27.0007C23.9186 25.054 22.7319 23.254 20.5986 21.6007C18.4919 19.9207 16.1986 19.0807 13.7186 19.0807C11.2386 19.0807 8.9586 19.8007 6.8786 21.2407C4.82526 22.6807 3.65193 24.2807 3.35859 26.0407C3.03859 28.014 2.99859 30.0807 3.23859 32.2407L24.3186 32.6407Z" fill="white"/>
</svg>
