<svg width="36" height="40" viewBox="0 0 36 40" fill="none" xmlns="http://www.w3.org/2000/svg">
<path d="M22.8667 30.48C22.8667 30.4267 22.8667 30.3733 22.8667 30.32C22.8667 29.4133 22.9467 28.6133 23.1067 27.92C23.2933 27.2 23.5467 26.5467 23.8667 25.96C24.1867 25.3733 24.6133 24.7333 25.1467 24.04C25.2 23.9867 25.28 23.8933 25.3867 23.76C25.4933 23.6267 25.56 23.5333 25.5867 23.48C26.4133 22.4933 27 21.5867 27.3467 20.76C27.6933 19.9333 27.92 18.8533 28.0267 17.52C28.16 15.0667 27.4267 13.08 25.8267 11.56C24.2267 10.0133 22.1333 9.2 19.5467 9.12C16.9867 9.04 14.8533 9.72 13.1467 11.16C11.44 12.6 10.5733 14.5333 10.5467 16.96C10.5467 18.32 10.68 19.36 10.9467 20.08C11.2133 20.7733 11.7467 21.56 12.5467 22.44L12.5867 22.48C13.6 23.5733 14.3067 24.64 14.7067 25.68C15.1067 26.72 15.3067 28.1067 15.3067 29.84C15.3067 29.9467 15.2933 30.04 15.2667 30.12C15.24 30.2533 15.2267 30.3467 15.2267 30.4C15.8933 30.88 17.04 31.1333 18.6667 31.16C19.0133 25.3467 17.96 22.0667 15.5067 21.32C15.4 21.2933 15.3067 21.2533 15.2267 21.2C15.1467 21.12 15.08 21.04 15.0267 20.96C15 20.8533 14.9733 20.7467 14.9467 20.64C14.9467 20.5333 14.96 20.4267 14.9867 20.32C15.0667 20.1333 15.2 19.9867 15.3867 19.88C15.5733 19.7733 15.7733 19.76 15.9867 19.84C17.16 20.1867 18.0933 20.9067 18.7867 22C19.5333 20.5333 20.5733 19.6 21.9067 19.2C22.12 19.1467 22.32 19.1733 22.5067 19.28C22.6933 19.36 22.8133 19.5067 22.8667 19.72C22.9467 19.9333 22.9333 20.1333 22.8267 20.32C22.72 20.5067 22.56 20.6267 22.3467 20.68C21.76 20.8667 21.2133 21.2667 20.7067 21.88C20.2267 22.4667 19.8933 23.1467 19.7067 23.92C19.7067 23.9733 19.6933 24.0133 19.6667 24.04C20.2 25.8533 20.3867 28.2 20.2267 31.08C21.0267 31 21.7333 30.8667 22.3467 30.68C22.5333 30.6267 22.7067 30.56 22.8667 30.48ZM21.7467 32.76C20.9467 32.92 20.0533 33 19.0667 33C18.1067 33.0267 17.24 32.9733 16.4667 32.84C16.4133 33.5067 16.44 34.2133 16.5467 34.96C16.6 35.3333 16.68 35.6533 16.7867 35.92C16.7867 35.9467 16.7867 35.9733 16.7867 36C17.2667 36.2667 17.9733 36.4133 18.9067 36.44C19.84 36.4667 20.64 36.32 21.3067 36C21.4667 35.84 21.5867 35.3867 21.6667 34.64C21.6933 34.2667 21.72 33.84 21.7467 33.36C21.7467 33.2267 21.7467 33.0667 21.7467 32.88V32.76ZM34.4267 5.12C32.8267 6.05333 31.5467 6.98667 30.5867 7.92C30.5067 8 30.4133 8.06667 30.3067 8.12C30.2267 8.14667 30.1333 8.16 30.0267 8.16C29.9467 8.13333 29.8533 8.10667 29.7467 8.08C29.64 8.02667 29.56 7.97333 29.5067 7.92C29.4 7.81333 29.32 7.69333 29.2667 7.56C29.24 7.42667 29.24 7.29333 29.2667 7.16C29.32 7.02667 29.4 6.90667 29.5067 6.8C30.5467 5.78667 31.9333 4.77333 33.6667 3.76C33.7467 3.70667 33.84 3.68 33.9467 3.68C34.0533 3.65333 34.1467 3.65333 34.2267 3.68C34.3333 3.70667 34.4267 3.76 34.5067 3.84C34.5867 3.89333 34.6533 3.96 34.7067 4.04C34.84 4.22667 34.8667 4.42667 34.7867 4.64C34.7333 4.85333 34.6133 5.01333 34.4267 5.12ZM0.466667 21C1.48 20.4933 2.38667 20.0133 3.18667 19.56C3.37333 19.4533 3.56 19.44 3.74667 19.52C3.96 19.5733 4.12 19.6933 4.22667 19.88C4.33333 20.0667 4.34667 20.2667 4.26667 20.48C4.21333 20.6933 4.09333 20.84 3.90667 20.92C3.10667 21.3733 2.18667 21.8667 1.14667 22.4C0.96 22.5067 0.76 22.5333 0.546667 22.48C0.36 22.4 0.213333 22.2667 0.106667 22.08C-6.70552e-08 21.8933 -0.0266667 21.6933 0.0266667 21.48C0.106667 21.2667 0.253333 21.1067 0.466667 21ZM32.5067 20.88C33.44 20.9867 34.4933 21.5333 35.6667 22.52C35.8267 22.6533 35.9067 22.84 35.9067 23.08C35.9333 23.2933 35.88 23.48 35.7467 23.64C35.6133 23.8 35.4267 23.8933 35.1867 23.92C34.9733 23.92 34.7867 23.8533 34.6267 23.72C33.72 22.9467 32.9467 22.52 32.3067 22.44C32.0933 22.4133 31.92 22.32 31.7867 22.16C31.6533 22 31.6 21.8133 31.6267 21.6C31.6533 21.36 31.7467 21.1733 31.9067 21.04C32.0933 20.9067 32.2933 20.8533 32.5067 20.88ZM2.14667 6.92C2.01333 6.86667 1.89333 6.8 1.78667 6.72C1.68 6.61333 1.61333 6.49333 1.58667 6.36C1.56 6.22667 1.56 6.09333 1.58667 5.96C1.61333 5.82667 1.66667 5.70667 1.74667 5.6C1.85333 5.49333 1.97333 5.42667 2.10667 5.4C2.24 5.37333 2.38667 5.37333 2.54667 5.4C4.46667 5.88 6.09333 6.66667 7.42667 7.76C7.61333 7.89333 7.72 8.06667 7.74667 8.28C7.77333 8.49333 7.72 8.68 7.58667 8.84C7.48 8.94667 7.36 9.02667 7.22667 9.08C7.12 9.13333 6.98667 9.14667 6.82667 9.12C6.69333 9.09333 6.57333 9.04 6.46667 8.96C5.29333 8.02667 3.85333 7.34667 2.14667 6.92ZM27.3067 25.76C26.6667 26.56 26.2267 27.28 25.9867 27.92C25.7467 28.5333 25.6267 29.3467 25.6267 30.36C25.6267 31.4533 25.24 32.36 24.4667 33.08C24.4667 33.1867 24.4667 33.2933 24.4667 33.4C24.4667 33.9867 24.44 34.4933 24.3867 34.92C24.2 36.6533 23.6533 37.8 22.7467 38.36L22.6667 38.4C21.4667 39.0133 20.0667 39.2667 18.4667 39.16C16.8933 39.08 15.6933 38.68 14.8667 37.96C14.4667 37.64 14.16 36.96 13.9467 35.92C13.7333 34.9067 13.6533 33.8667 13.7067 32.8C12.6933 32.0533 12.3067 31.0267 12.5467 29.72C12.5467 28.7867 12.48 28.0267 12.3467 27.44C12.2133 26.8267 12.0133 26.3067 11.7467 25.88C11.48 25.4267 11.08 24.9067 10.5467 24.32L10.5067 24.28C9.49334 23.16 8.78667 22.0933 8.38667 21.08C8.01333 20.0667 7.82667 18.6933 7.82667 16.96C7.85333 13.7067 8.98667 11.1067 11.2267 9.16C13.4933 7.21333 16.2933 6.28 19.6267 6.36C22.96 6.46667 25.6933 7.56 27.8267 9.64C29.96 11.72 30.9467 14.4133 30.7867 17.72C30.6267 19.3733 30.32 20.7467 29.8667 21.84C29.4133 22.9067 28.7067 24.04 27.7467 25.24C27.6933 25.2667 27.6133 25.36 27.5067 25.52C27.4267 25.6267 27.36 25.7067 27.3067 25.76ZM19.9867 0.76C20.0133 2.2 20.0133 3.25333 19.9867 3.92C19.9867 4.13333 19.9067 4.32 19.7467 4.48C19.5867 4.61333 19.4 4.68 19.1867 4.68C18.9733 4.68 18.7867 4.6 18.6267 4.44C18.4933 4.28 18.4267 4.09333 18.4267 3.88C18.4533 3.21333 18.4533 2.18667 18.4267 0.799999C18.4267 0.586666 18.4933 0.413332 18.6267 0.279999C18.7867 0.119999 18.9733 0.0266663 19.1867 0C19.32 0 19.4533 0.0399995 19.5867 0.119998C19.72 0.173333 19.8133 0.266666 19.8667 0.4C19.9467 0.506667 19.9867 0.626667 19.9867 0.76Z" fill="white"/>
</svg>
