<svg width="24" height="24" viewBox="0 0 24 24" fill="none" xmlns="http://www.w3.org/2000/svg">
<path d="M1.176 14.896C0.680001 13.264 0.552001 11.576 0.792001 9.832C1.032 8.088 1.616 6.544 2.544 5.2C3.632 3.616 5.112 2.456 6.984 1.72C8.872 0.967999 11.08 0.704 13.608 0.927999C15.256 1.072 16.784 1.656 18.192 2.68C19.6 3.704 20.72 5.024 21.552 6.64C22.432 8.336 22.856 10.192 22.824 12.208C22.792 14.208 22.296 16.176 21.336 18.112C20.552 19.696 19.216 20.928 17.328 21.808C15.44 22.704 13.408 23.08 11.232 22.936C8.816 22.776 6.712 22 4.92 20.608C3.128 19.216 1.88 17.312 1.176 14.896ZM2.616 14.464C3.24 16.576 4.32 18.232 5.856 19.432C7.392 20.632 9.216 21.304 11.328 21.448C13.216 21.576 14.968 21.264 16.584 20.512C18.216 19.76 19.352 18.736 19.992 17.44C20.856 15.712 21.296 13.968 21.312 12.208C21.344 10.432 20.976 8.8 20.208 7.312C19.504 5.92 18.552 4.792 17.352 3.928C16.152 3.048 14.864 2.544 13.488 2.416C11.216 2.208 9.264 2.424 7.632 3.064C6 3.688 4.712 4.688 3.768 6.064C2.968 7.216 2.464 8.552 2.256 10.072C2.064 11.576 2.184 13.04 2.616 14.464ZM19.176 10.384C19.4 10.656 19.448 11.384 19.32 12.568C19.192 13.752 18.992 14.44 18.72 14.632C18.448 14.808 17.072 14.848 14.592 14.752C14.704 16.336 14.72 17.48 14.64 18.184C14.576 18.872 14.376 19.28 14.04 19.408C13.72 19.536 12.976 19.568 11.808 19.504C10.64 19.456 9.96 19.336 9.768 19.144C9.64 19.016 9.544 18.648 9.48 18.04C9.416 17.432 9.36 16.328 9.312 14.728C7.008 14.76 5.672 14.776 5.304 14.776C4.936 14.776 4.68 14.6 4.536 14.248C4.408 13.88 4.328 13.28 4.296 12.448C4.264 11.184 4.352 10.408 4.56 10.12C4.704 9.912 5.104 9.776 5.76 9.712C6.432 9.648 7.616 9.616 9.312 9.616C9.376 6.816 9.504 5.264 9.696 4.96C9.824 4.736 10.048 4.6 10.368 4.552C10.704 4.488 11.224 4.472 11.928 4.504C13.016 4.536 13.68 4.616 13.92 4.744C14.176 4.872 14.32 5.264 14.352 5.92C14.384 6.56 14.352 7.8 14.256 9.64C15.952 9.736 17.152 9.832 17.856 9.928C18.576 10.024 19.016 10.176 19.176 10.384ZM18.216 11.128C17.992 11.08 17.68 11.032 17.28 10.984C16.448 10.904 15.232 10.824 13.632 10.744C13.488 10.744 13.36 10.688 13.248 10.576C13.152 10.448 13.104 10.312 13.104 10.168C13.184 8.568 13.224 7.36 13.224 6.544C13.224 6.192 13.216 5.92 13.2 5.728C13.136 5.712 13.064 5.704 12.984 5.704C12.632 5.656 12.264 5.632 11.88 5.632C11.448 5.616 11.096 5.616 10.824 5.632C10.76 5.632 10.696 5.64 10.632 5.656C10.632 5.688 10.632 5.72 10.632 5.752C10.6 5.976 10.568 6.288 10.536 6.688C10.488 7.504 10.448 8.672 10.416 10.192C10.416 10.352 10.36 10.488 10.248 10.6C10.136 10.696 10.008 10.744 9.864 10.744C8.328 10.744 7.16 10.76 6.36 10.792C5.976 10.824 5.68 10.856 5.472 10.888C5.472 10.968 5.464 11.072 5.448 11.2C5.416 11.584 5.408 11.992 5.424 12.424C5.44 12.904 5.48 13.28 5.544 13.552C5.544 13.584 5.552 13.616 5.568 13.648C6.176 13.648 7.608 13.632 9.864 13.6C10.008 13.6 10.136 13.656 10.248 13.768C10.36 13.864 10.416 13.992 10.416 14.152C10.464 15.608 10.512 16.712 10.56 17.464C10.592 17.832 10.616 18.112 10.632 18.304C10.696 18.304 10.76 18.312 10.824 18.328C11.128 18.36 11.496 18.376 11.928 18.376C12.6 18.408 13.12 18.408 13.488 18.376C13.52 18.2 13.544 17.936 13.56 17.584C13.576 16.816 13.528 15.688 13.416 14.2C13.4 14.024 13.448 13.88 13.56 13.768C13.688 13.64 13.832 13.584 13.992 13.6C15.384 13.664 16.44 13.696 17.16 13.696C17.512 13.696 17.784 13.688 17.976 13.672C17.992 13.672 18 13.672 18 13.672C18.016 13.608 18.032 13.544 18.048 13.48C18.112 13.192 18.16 12.848 18.192 12.448C18.24 12.032 18.264 11.672 18.264 11.368C18.264 11.288 18.256 11.208 18.24 11.128C18.24 11.128 18.232 11.128 18.216 11.128Z" fill="#E41B23"/>
</svg>
