<svg width="21" height="41" viewBox="0 0 21 41" fill="none" xmlns="http://www.w3.org/2000/svg">
<path d="M7.08049 18.2L7.24049 16.68L4.32049 16.32L3.52049 10.72L7.72049 10.16L9.80049 9.88L9.72049 10L12.3605 10.16L16.5605 10.48L15.7205 16.32L12.8005 16.68L12.9605 18.2L13.1605 19.76L17.2805 19.28L18.4805 19.16L18.6405 17.96L19.8805 9.24L20.1205 7.6L18.4405 7.48L14.8005 7.2C14.8005 7.14667 14.8138 6.97333 14.8405 6.68C14.8938 6.36 14.9338 5.97333 14.9605 5.52C15.0138 5.04 15.0272 4.65333 15.0005 4.36C14.9205 3.45333 14.6138 2.66667 14.0805 2C13.5738 1.30667 12.9605 0.8 12.2405 0.480001C11.5472 0.16 10.8138 0 10.0405 0C9.26716 0 8.52049 0.12 7.80049 0.36C7.10716 0.6 6.44049 1.05333 5.80049 1.72C5.16049 2.38667 4.76049 3.22667 4.60049 4.24C4.44049 5.25333 4.53382 6.30667 4.88049 7.4L1.56049 7.84L0.000488281 8.04L0.200488 9.6L1.40049 17.96L1.56049 19.16L2.76049 19.28L6.88049 19.76L7.08049 18.2ZM10.2405 9.2L8.64049 7.52C7.84049 6.66667 7.52049 5.74667 7.68049 4.76C7.86715 3.66667 8.65382 3.12 10.0405 3.12C10.5472 3.12 10.9605 3.25333 11.2805 3.52C11.6272 3.78667 11.8272 4.16 11.8805 4.64C11.9872 5.84 11.7605 6.88 11.2005 7.76L10.2405 9.2ZM2.48049 32.24C2.21382 32.7733 1.98716 33.4133 1.80049 34.16C1.64049 34.9333 1.62715 35.7867 1.76049 36.72C1.89382 37.6533 2.25382 38.3733 2.84049 38.88C3.18715 39.1467 4.14716 39.4 5.72049 39.64C7.29382 39.88 8.98715 40.0267 10.8005 40.08C12.6138 40.16 14.3072 40.04 15.8805 39.72C17.4538 39.4267 18.3872 38.9467 18.6805 38.28C18.8672 37.8267 19.0138 37.2267 19.1205 36.48C19.2272 35.76 19.2405 34.9733 19.1605 34.12C19.0805 33.2667 18.8672 32.5733 18.5205 32.04C18.0938 31.4267 16.6405 30.9733 14.1605 30.68C11.7072 30.3867 9.24049 30.3867 6.76049 30.68C4.28049 30.9467 2.85382 31.4667 2.48049 32.24ZM5.08049 34.2C6.41382 34.04 8.36049 33.9733 10.9205 34C13.5072 34.0267 15.1738 34.0933 15.9205 34.2C15.9472 34.8933 15.9338 35.64 15.8805 36.44C14.0405 36.6 12.0405 36.6533 9.88049 36.6C7.74715 36.5733 6.10716 36.4933 4.96049 36.36C4.88049 35.8533 4.92049 35.1333 5.08049 34.2ZM14.7605 18.2L13.2005 18.12L13.1205 19.56L12.2805 30.96L13.8405 31.04L15.4005 31.16L16.2405 19.8L16.3205 18.32L14.7605 18.2ZM7.04049 31.04L8.60049 30.88L7.28049 19.72L7.24049 18.16L5.68049 18.2L4.12049 18.28L4.16049 19.88V19.96V20L5.48049 31.24L7.04049 31.04Z" fill="white"/>
</svg>
