<svg width="9" height="15" viewBox="0 0 9 15" fill="none" xmlns="http://www.w3.org/2000/svg">
<path d="M0.94 2.34C0.766667 2.20667 0.666667 2.03333 0.64 1.82C0.626667 1.60667 0.686667 1.42 0.82 1.26C0.966667 1.08667 1.14667 0.993333 1.36 0.98C1.57333 0.953332 1.76667 1.00667 1.94 1.14C4.23333 3.04667 5.88 4.52667 6.88 5.58C7.89333 6.62 8.4 7.40667 8.4 7.94C8.4 8.47333 7.89333 9.26667 6.88 10.32C5.88 11.36 4.23333 12.8267 1.94 14.72C1.76667 14.8667 1.57333 14.9267 1.36 14.9C1.14667 14.8867 0.966667 14.7933 0.82 14.62C0.686667 14.46 0.626667 14.2667 0.64 14.04C0.666667 13.8267 0.766667 13.6533 0.94 13.52C2.14 12.52 3.2 11.6067 4.12 10.78C5.04 9.94 5.72 9.28667 6.16 8.82C6.61333 8.34 6.84 8.04667 6.84 7.94C6.84 7.82 6.61333 7.52667 6.16 7.06C5.72 6.58 5.04 5.92667 4.12 5.1C3.2 4.26 2.14 3.34 0.94 2.34Z" fill="white"/>
</svg>
