<svg width="17" height="17" viewBox="0 0 17 17" fill="none" xmlns="http://www.w3.org/2000/svg">
<path d="M3.35268 1.45685C3.75268 1.19018 4.1749 1.15685 4.61935 1.35685C5.06379 1.55685 5.49157 1.95129 5.90268 2.54018C6.15824 2.89574 6.34712 3.26241 6.46935 3.64018C6.60268 4.01796 6.65268 4.26241 6.61935 4.37352C6.48601 4.76241 6.24712 5.06241 5.90268 5.27352C5.56935 5.47352 5.09157 5.58463 4.46935 5.60685L3.63601 5.62352L4.01935 6.35685C5.11935 8.49018 6.34157 9.91241 7.68601 10.6235C7.8749 10.7235 8.08046 10.6846 8.30268 10.5068C8.5249 10.318 8.71379 10.0791 8.86935 9.79018C9.03601 9.50129 9.19713 9.22352 9.35268 8.95685C9.51935 8.69018 9.63601 8.54018 9.70268 8.50685C9.93601 8.44018 10.2582 8.51241 10.6693 8.72352C11.0916 8.92352 11.4805 9.20129 11.836 9.55685C12.1916 9.91241 12.4638 10.3013 12.6527 10.7235C12.8416 11.1346 12.8249 11.5068 12.6027 11.8402C12.3582 12.218 11.9249 12.5513 11.3027 12.8402C10.6805 13.118 9.95824 13.2791 9.13601 13.3235C8.31379 13.3569 7.49157 13.1513 6.66935 12.7069C5.84712 12.2513 5.09712 11.668 4.41935 10.9568C3.74157 10.2457 3.18046 9.46796 2.73601 8.62352C2.29157 7.77907 1.99157 6.91241 1.83601 6.02352C1.73601 5.43463 1.69157 4.88463 1.70268 4.37352C1.71379 3.85129 1.85268 3.33463 2.11935 2.82352C2.39712 2.3124 2.80824 1.85685 3.35268 1.45685ZM2.73601 0.606849C1.00268 1.89574 0.358236 3.76796 0.80268 6.22352C1.08046 7.72352 1.69712 9.14018 2.65268 10.4735C3.60824 11.8068 4.78046 12.8569 6.16935 13.6235C7.15824 14.1457 8.14157 14.3957 9.11935 14.3735C10.0971 14.3513 10.9749 14.1569 11.7527 13.7902C12.5416 13.4235 13.1138 12.9624 13.4693 12.4068C13.7693 11.9068 13.8916 11.4068 13.836 10.9068C13.7805 10.3957 13.5749 9.91241 13.2193 9.45685C12.8749 9.00129 12.4749 8.61241 12.0193 8.29018C11.5749 7.95685 11.1082 7.71796 10.6193 7.57352C10.1305 7.42907 9.71935 7.41241 9.38601 7.52352C8.61935 7.77907 8.08601 8.42907 7.78601 9.47352C7.36379 9.18463 6.93046 8.77907 6.48601 8.25685C6.05268 7.72352 5.66379 7.15685 5.31935 6.55685C6.50824 6.32352 7.26935 5.70129 7.60268 4.69018C7.83601 3.97907 7.55268 3.0624 6.75268 1.94018C6.53046 1.61796 6.2749 1.32907 5.98601 1.07352C5.69712 0.806849 5.3749 0.584627 5.01935 0.406849C4.6749 0.21796 4.29712 0.140182 3.88601 0.173516C3.48601 0.195738 3.10268 0.340182 2.73601 0.606849ZM3.80268 2.09018L3.61935 1.82352C3.41935 1.97907 3.31935 2.20685 3.31935 2.50685C3.33046 2.80685 3.41935 3.10685 3.58601 3.40685C3.75268 3.70685 3.95824 3.99574 4.20268 4.27352C4.44712 4.54018 4.70824 4.71796 4.98601 4.80685C5.2749 4.89574 5.54157 4.87352 5.78601 4.74018L5.60268 4.47352L5.43601 4.20685C5.41379 4.21796 5.33046 4.17352 5.18601 4.07352C5.04157 3.97352 4.8749 3.84574 4.68601 3.69018C4.50824 3.53463 4.33046 3.36241 4.15268 3.17352C3.98601 2.97352 3.86379 2.78463 3.78601 2.60685C3.71935 2.41796 3.7249 2.24574 3.80268 2.09018ZM9.80268 9.34018L9.55268 9.12352C9.45268 9.24574 9.39157 9.39018 9.36935 9.55685C9.34713 9.71241 9.36379 9.87352 9.41935 10.0402C9.4749 10.1957 9.55824 10.3568 9.66935 10.5235C9.78046 10.6902 9.91379 10.8457 10.0693 10.9902C10.2249 11.1346 10.3916 11.268 10.5693 11.3902C10.7471 11.5013 10.9249 11.5902 11.1027 11.6568C11.2916 11.7124 11.4805 11.7402 11.6693 11.7402C11.8582 11.7402 12.0249 11.7013 12.1693 11.6235L12.0193 11.3235L11.8693 11.0402C11.6471 11.1513 11.3693 11.1013 11.036 10.8902C10.7138 10.668 10.4527 10.4124 10.2527 10.1235C10.0527 9.82352 9.98601 9.62907 10.0527 9.54018L9.80268 9.34018ZM12.0527 13.3735L11.7527 13.4902C11.986 14.1235 12.286 14.6124 12.6527 14.9569C13.0305 15.3124 13.4416 15.5235 13.886 15.5902C14.4527 16.3124 15.3471 16.6291 16.5693 16.5402L16.5193 15.8902C15.7971 15.9457 15.2082 15.8235 14.7527 15.5235C15.086 15.4235 15.3693 15.2402 15.6027 14.9735C15.8471 14.718 15.9527 14.4291 15.9193 14.1069C15.8971 13.7846 15.6971 13.5124 15.3193 13.2902C14.8971 13.0791 14.5416 13.0346 14.2527 13.1568C13.9638 13.268 13.7471 13.4791 13.6027 13.7902C13.4693 14.1013 13.436 14.4291 13.5027 14.7735C13.0138 14.4957 12.6305 13.9957 12.3527 13.2735L12.0527 13.3735ZM14.2527 14.9569C14.0416 14.5346 14.0193 14.1957 14.186 13.9402C14.3638 13.6846 14.636 13.6569 15.0027 13.8569C15.2916 14.0235 15.3693 14.218 15.236 14.4402C15.1582 14.5735 15.0249 14.6902 14.836 14.7902C14.6582 14.8902 14.4638 14.9457 14.2527 14.9569Z" fill="white"/>
</svg>
