<svg width="9" height="15" viewBox="0 0 9 15" fill="none" xmlns="http://www.w3.org/2000/svg">
<path d="M7.92 2.36C6.08 3.8 4.63333 5.02667 3.58 6.04C2.54 7.04 2.02667 7.66667 2.04 7.92C2.04 8.18667 2.52667 8.78 3.5 9.7C4.48667 10.6067 5.84667 11.7067 7.58 13C7.75333 13.1333 7.85333 13.3067 7.88 13.52C7.92 13.7333 7.87333 13.92 7.74 14.08C7.60667 14.2533 7.43333 14.3533 7.22 14.38C7.00667 14.42 6.81333 14.3733 6.64 14.24C4.50667 12.64 2.94667 11.3467 1.96 10.36C0.973334 9.37333 0.48 8.56667 0.48 7.94C0.466667 7.32667 0.973334 6.48667 2 5.42C3.02667 4.35333 4.68 2.92667 6.96 1.14C7.13333 1.00667 7.32667 0.953332 7.54 0.98C7.75333 1.00667 7.92667 1.10667 8.06 1.28C8.19333 1.44 8.24667 1.62667 8.22 1.84C8.19333 2.05333 8.09333 2.22667 7.92 2.36Z" fill="white"/>
</svg>
