<svg width="33" height="27" viewBox="0 0 33 27" fill="none" xmlns="http://www.w3.org/2000/svg">
<path d="M28.4455 11.7526C26.0232 14.1748 23.7343 16.4081 21.5788 18.4526C19.4232 20.4748 18.1343 21.6303 17.7121 21.9192C17.4455 22.1192 16.7788 22.0637 15.7121 21.7525C14.6677 21.4414 12.8343 20.7859 10.2121 19.7859C10.0566 19.7192 9.90101 19.6637 9.74546 19.6192L3.51212 17.2192C3.44545 17.197 3.37879 17.1637 3.31212 17.1192C3.26768 17.0526 3.23434 16.9859 3.21212 16.9192C3.1899 16.8525 3.17879 16.7748 3.17879 16.6859C3.17879 16.597 3.20101 16.5192 3.24545 16.4525C3.86768 15.4303 3.75657 14.4303 2.91212 13.4525C2.4899 13.5192 2.22323 13.6303 2.11212 13.7859C2.02323 14.7414 2.14545 15.7081 2.47879 16.6859C2.83434 17.6637 3.31212 18.3081 3.91212 18.6192C4.80101 19.1303 7.20101 20.1748 11.1121 21.7525C13.001 22.5081 14.5566 23.097 15.7788 23.5192C16.4455 23.7414 16.9788 23.897 17.3788 23.9859C17.5566 24.0303 17.701 24.0637 17.8121 24.0859C18.101 23.8859 18.901 23.1414 20.2121 21.8525C21.5455 20.5414 22.9677 19.097 24.4788 17.5192C26.1455 15.7859 27.5343 14.2859 28.6455 13.0192C28.9343 12.7081 29.1899 12.4303 29.4121 12.1859L28.5121 11.7859C28.4899 11.7859 28.4677 11.7748 28.4455 11.7526ZM27.8788 10.8526L27.7121 6.35255L17.0121 16.3859C16.8121 16.5859 16.5899 16.6303 16.3455 16.5192C16.2343 16.497 16.0899 16.4525 15.9121 16.3859C15.5343 16.2525 15.1455 16.1192 14.7455 15.9859C13.4343 15.5414 12.1566 15.1525 10.9121 14.8192C10.1121 14.5748 9.34546 14.3637 8.61212 14.1859C6.85657 13.7637 5.37879 13.5192 4.17879 13.4525C4.77879 14.4303 4.85657 15.4303 4.41212 16.4525L10.1455 18.6525C10.2788 18.697 10.4232 18.7525 10.5788 18.8192C12.5566 19.5748 14.0899 20.1303 15.1788 20.4859C15.8455 20.7081 16.3677 20.8637 16.7455 20.9526C16.9455 20.997 17.0899 21.0192 17.1788 21.0192H17.2121C17.5232 20.7525 18.2121 20.1303 19.2788 19.1526C20.3677 18.1526 21.6899 16.9081 23.2455 15.4192C24.801 13.9081 26.3455 12.3859 27.8788 10.8526ZM28.3121 4.01922C21.601 2.61922 17.8121 1.97477 16.9455 2.08588C16.7232 2.13033 15.8677 2.64144 14.3788 3.61922C13.0899 4.46366 11.4232 5.60811 9.37879 7.05255C7.93434 8.097 6.36768 9.24144 4.67879 10.4859C4.16768 10.8637 3.66768 11.2414 3.17879 11.6192C3.02323 11.7303 2.87879 11.8303 2.74545 11.9192L2.71212 11.9526C2.64545 12.0414 2.5899 12.1303 2.54545 12.2192C3.81212 11.9748 5.93434 12.2081 8.91212 12.9192C9.66768 13.097 10.4566 13.3081 11.2788 13.5525C12.5232 13.9081 13.8121 14.3081 15.1455 14.7525C15.5677 14.8859 15.9677 15.0192 16.3455 15.1525C16.3677 15.1525 16.3899 15.1637 16.4121 15.1859L28.3121 4.01922ZM32.0455 11.9192C32.0232 12.0748 31.9677 12.2303 31.8788 12.3859C31.7899 12.5192 31.6677 12.6859 31.5121 12.8859C31.2232 13.2637 30.7899 13.7748 30.2121 14.4192C29.0788 15.6859 27.6677 17.197 25.9788 18.9525C21.6677 23.4859 19.1343 25.8637 18.3788 26.0859C17.9566 26.2414 17.1121 26.1192 15.8455 25.7192C14.601 25.3414 12.7566 24.6525 10.3121 23.6525C6.33434 22.0525 3.86768 20.9859 2.91212 20.4525C2.33434 20.1637 1.82323 19.7081 1.37879 19.0859C0.956566 18.4637 0.634343 17.7748 0.412121 17.0192C0.189899 16.2414 0.0565657 15.4525 0.0121212 14.6525C-0.0323232 13.8525 0.0454547 13.0859 0.245455 12.3525C0.467677 11.597 0.789899 10.9859 1.21212 10.5192C1.25657 10.4526 1.30101 10.397 1.34545 10.3526H1.37879L1.41212 10.3192L1.51212 10.2525C1.64545 10.1414 1.7899 10.0303 1.94545 9.91922C2.43434 9.56366 2.93434 9.19699 3.44545 8.81922C5.13434 7.57477 6.71212 6.43033 8.17879 5.38588C12.9788 1.94144 15.801 0.152548 16.6455 0.0192155C17.8677 -0.136339 22.5232 0.65255 30.6121 2.38588C31.0121 2.45255 31.2677 2.68588 31.3788 3.08588C31.5121 3.46366 31.4343 3.79699 31.1455 4.08588L29.7788 5.58588L29.9455 10.1526L31.3121 10.7192C31.4677 10.7637 31.6121 10.8526 31.7455 10.9859C31.8788 11.097 31.9677 11.2414 32.0121 11.4192C32.0788 11.5748 32.0899 11.7414 32.0455 11.9192ZM30.8455 12.7526H30.8788C30.9677 12.7748 31.0566 12.7748 31.1455 12.7526C31.0566 12.7748 30.9566 12.7748 30.8455 12.7526Z" fill="white"/>
</svg>
