<svg width="35" height="26" viewBox="0 0 35 26" fill="none" xmlns="http://www.w3.org/2000/svg">
<path fill-rule="evenodd" clip-rule="evenodd" d="M7.17993 21.7302C7.17993 22.4778 7.22462 23.1168 7.16885 23.7467C7.09691 24.5595 6.69696 25.0163 5.89085 25.1111C4.92785 25.2336 3.9564 25.2766 2.98633 25.2397C2.16479 25.1993 1.79734 24.6997 1.76647 23.871C1.74158 23.2085 1.71855 22.5451 1.71954 21.8823C1.71954 21.5035 1.60565 21.2386 1.20297 21.1803C0.314959 21.0517 0.0916466 20.4227 0.0672493 19.6609C0.0433499 18.9153 0.045213 18.1687 0.0382424 17.4226C0.0257948 16.0963 0.0257963 14.7699 0.00090111 13.4438C-0.0239941 12.2012 0.46669 11.2435 1.50532 10.5596C1.70672 10.427 1.88634 10.2615 2.07903 10.1087C2.27172 9.956 3.91933 8.3549 4.16667 7.5C4.414 6.6451 5.62684 4.18019 5.85351 3.32031C6.32216 1.54192 7.51701 0.813124 9.28582 0.654666C14.3071 0.204686 19.331 -0.069172 24.3753 0.0152227C25.2444 0.0296619 25.8959 0.277869 26.3464 1.0414C27.2081 2.5025 28.1042 3.94344 28.954 5.41139C29.8038 6.87933 31.7552 9.21239 32.1469 9.46134C32.5387 9.71029 32.8658 9.96509 33.231 10.141C34.1148 10.5664 34.4624 11.2986 34.5465 12.2236C34.7387 14.3388 34.7197 16.4442 34.3167 18.5379C34.1352 19.4802 33.742 20.2568 32.82 20.6884C32.7101 20.7398 32.6142 20.9678 32.6252 21.1049C32.6714 21.6821 32.7834 22.2541 32.8292 22.8314C32.9399 24.2256 32.3476 24.887 30.9675 24.9454C30.1184 24.9812 29.2693 25.0239 28.4198 25.046C27.0732 25.0807 26.6284 24.6559 26.5775 23.3004C26.5511 22.9281 26.5516 22.5543 26.5789 22.182C26.6276 21.7291 26.5191 21.5695 26.0179 21.598C24.5903 21.6793 23.159 21.7302 21.7292 21.7342C17.0846 21.7466 12.44 21.7334 7.79546 21.7301L7.17993 21.7302ZM15.1107 20.251L15.1091 20.1725C12.2085 20.1725 9.30722 20.195 6.4078 20.1629C4.9828 20.147 3.5588 20.0295 2.13442 19.9548C1.74021 19.9341 1.59693 19.7474 1.57204 19.3242C1.46536 17.4842 1.35483 15.6429 1.15306 13.8121C1.03729 12.7621 1.36491 12.0466 2.23724 11.4714C3.09998 10.9021 3.91057 10.2515 4.72116 9.60759C4.96546 9.42199 5.15827 9.17703 5.2813 8.89597C5.82812 7.46699 6.33648 6.02332 6.85468 4.58338C6.95978 4.31325 7.04836 4.03699 7.11993 3.75611C7.3898 2.56849 8.18383 2.10617 9.34145 1.98991C14.1434 1.48882 18.9688 1.24711 23.7967 1.26583C24.5314 1.27143 25.0402 1.47296 25.4012 2.1475C26.1923 3.62303 27.0393 5.06858 27.8564 6.5303C28.24 7.21654 28.6174 7.90688 28.9799 8.60394C29.5883 9.77551 30.6733 10.4352 31.7667 10.9954C32.6707 11.4588 32.9548 12.0857 32.9034 13.0103C32.8104 14.6819 32.7627 16.3565 32.6468 18.0266C32.5774 19.0256 32.3907 19.2868 31.4073 19.4372C29.6507 19.7057 27.881 19.9732 26.1091 20.0408C22.4457 20.1806 18.7771 20.1888 15.1107 20.251ZM30.9599 22.9041C30.9683 23.231 30.8121 23.3288 30.5077 23.3332C30.249 23.3369 29.9905 23.3609 29.7321 23.3848C29.6199 23.3952 29.5077 23.4056 29.3955 23.4143C29.3751 23.4171 29.3542 23.4189 29.3338 23.4197C27.8687 23.506 27.7351 23.3728 27.896 21.8878C27.9118 21.7416 28.0951 21.5155 28.226 21.4959C28.687 21.4274 29.1511 21.3798 29.6154 21.3323C29.9316 21.3 30.2479 21.2676 30.5632 21.2285C30.8767 21.1897 30.9679 21.3229 30.9629 21.6033C30.9552 22.0369 30.9484 22.4708 30.9599 22.9041ZM3.14355 23.7035C3.08036 23.6483 3.03186 23.5782 3.00239 23.4996C2.90409 23.0492 2.83413 22.5926 2.76849 22.1642C2.74669 22.0219 2.72537 21.8828 2.70365 21.748C2.90842 21.748 3.11163 21.7475 3.31362 21.7471C4.03433 21.7455 4.7395 21.7439 5.44499 21.763C5.5305 21.7653 5.67812 21.9759 5.68148 22.093C5.70334 22.5061 5.68203 22.9204 5.61788 23.3291C5.58751 23.4954 5.37329 23.7369 5.22193 23.7532C4.60482 23.8147 3.98435 23.8358 3.36449 23.8161C3.28266 23.7974 3.20675 23.7587 3.14355 23.7035Z" fill="white"/>
<path d="M15.6193 10.911C13.8179 10.964 12.0166 11.0376 10.2148 11.0604C9.41097 11.0707 8.6045 10.9961 7.8015 10.9308C6.76262 10.8463 6.07751 9.68167 6.46525 8.67316C7.03486 7.1919 7.4562 5.65325 7.93992 4.13888C8.01837 3.86751 8.16821 3.62217 8.3738 3.42844C8.57939 3.23472 8.8332 3.09971 9.10875 3.03751C9.88642 2.82488 10.6791 2.67138 11.4799 2.57833C13.912 2.35576 16.3469 2.14489 18.7858 2.02042C20.2303 1.94685 21.6836 2.04954 23.133 2.06448C24.068 2.07407 24.7844 2.48969 25.2283 3.28709C26.0721 4.80296 26.9292 6.31957 27.2085 8.07294C27.2385 8.21223 27.2937 8.34487 27.3714 8.4643C27.9977 9.52321 27.6771 10.2596 26.4735 10.3906C24.9923 10.5518 23.5064 10.6971 22.0186 10.765C19.8876 10.8622 17.7531 10.883 15.6206 10.9364L15.6193 10.911ZM25.7392 8.94652C25.1192 7.35522 24.5805 5.92647 24.0059 4.51243C23.5616 3.41903 23.4934 3.40036 22.3255 3.45973C18.9758 3.63026 15.6253 3.78474 12.2768 3.97494C11.3695 4.0266 10.4675 4.17809 9.56421 4.29298C9.35604 4.30757 9.15854 4.39058 9.00245 4.52908C8.84637 4.66758 8.74046 4.85381 8.70121 5.05876C8.40421 6.1778 8.05543 7.28352 7.77748 8.40716C7.46716 9.66138 7.57832 9.5196 8.63001 9.49508C12.5232 9.40409 16.4156 9.27986 20.3081 9.1575C22.0656 9.10198 23.8213 9.0217 25.7392 8.94652Z" fill="white"/>
<path d="M28.2389 16.1686C27.3113 16.1592 26.6968 15.7148 26.4769 14.8944C26.2664 14.1102 26.7052 12.9774 27.3856 12.6118C27.5709 12.5216 27.7729 12.4707 27.9788 12.4625C28.7407 12.4114 29.4085 12.6942 29.9953 13.1441C30.549 13.5688 30.6529 14.3492 30.302 15.0055C29.9239 15.7123 29.0991 16.1775 28.2389 16.1686Z" fill="white"/>
<path d="M7.54691 14.7906C7.5489 15.9296 6.58223 16.8991 5.45945 16.8844C5.23169 16.8829 5.00654 16.8358 4.79729 16.7458C4.58805 16.6558 4.39895 16.5248 4.24116 16.3606C4.08336 16.1963 3.96007 16.0021 3.87856 15.7894C3.79705 15.5767 3.75897 15.3499 3.76658 15.1222C3.78238 13.8836 4.62957 13.0747 5.91752 13.0684C6.87723 13.064 7.54517 13.7702 7.54691 14.7906Z" fill="white"/>
</svg>
