<svg width="32" height="31" viewBox="0 0 32 31" fill="none" xmlns="http://www.w3.org/2000/svg">
<path d="M12.9597 9.025C14.1152 8.15833 15.4819 7.725 17.0597 7.725C17.5485 7.725 17.8819 7.73611 18.0597 7.75833C18.2597 7.75833 18.5041 7.80278 18.793 7.89167C19.1041 7.95833 19.4708 8.08056 19.893 8.25833C20.293 8.41389 20.5263 8.69167 20.593 9.09167C20.6819 9.49167 20.6152 9.84722 20.393 10.1583C20.1708 10.4694 19.893 10.5806 19.5596 10.4917C19.4041 10.4472 19.2485 10.4028 19.093 10.3583C18.9374 10.3139 18.8041 10.2806 18.693 10.2583C18.6041 10.2139 18.5041 10.1806 18.393 10.1583C18.2819 10.1139 18.1708 10.0917 18.0597 10.0917C17.9485 10.0694 17.8263 10.0472 17.693 10.025C17.5597 10.0028 17.4152 9.99167 17.2596 9.99167C16.2597 9.99167 15.4041 10.2472 14.693 10.7583C14.1152 11.1583 13.6708 11.7028 13.3596 12.3917H17.6263C18.0263 12.3917 18.2708 12.5472 18.3597 12.8583C18.4708 13.1694 18.4374 13.4806 18.2597 13.7917C18.0819 14.1028 17.8708 14.2583 17.6263 14.2583H12.8597C12.8374 14.525 12.8263 14.7917 12.8263 15.0583C12.8263 15.2806 12.8374 15.4917 12.8597 15.6917H17.6263C17.9152 15.6917 18.1485 15.8361 18.3263 16.125C18.5041 16.3917 18.5708 16.6806 18.5263 16.9917C18.5041 17.3028 18.3596 17.4917 18.093 17.5583C17.5152 17.6917 15.9152 17.6917 13.293 17.5583C13.6041 18.2917 14.0596 18.8694 14.6596 19.2917C15.3708 19.8028 16.193 20.0583 17.1263 20.0583C17.4596 20.0583 17.893 19.9472 18.4263 19.725C18.9819 19.5028 19.3596 19.4472 19.5596 19.5583C19.8485 19.7361 20.0596 20.1028 20.193 20.6583C20.3263 21.2139 20.2263 21.5917 19.893 21.7917C19.1597 22.1472 18.1708 22.325 16.9263 22.325C15.3708 22.325 14.0152 21.8694 12.8597 20.9583C11.7708 20.1139 11.0263 18.9806 10.6263 17.5583H8.25965C8.14854 17.5583 8.04854 17.5028 7.95965 17.3917C7.87076 17.2583 7.8152 17.1139 7.79298 16.9583C7.77076 16.7806 7.75965 16.6028 7.75965 16.425C7.78187 16.2472 7.83743 16.0917 7.92632 15.9583C8.01521 15.8028 8.12632 15.7139 8.25965 15.6917C8.77076 15.5583 9.44854 15.5583 10.293 15.6917C10.2708 15.425 10.2597 15.2139 10.2597 15.0583C10.2597 14.7917 10.2708 14.525 10.293 14.2583H8.25965C7.94854 14.2583 7.72632 14.1472 7.59298 13.925C7.45965 13.6806 7.43743 13.425 7.52632 13.1583C7.63743 12.8694 7.8152 12.6806 8.05965 12.5917C8.57076 12.4361 9.43743 12.3694 10.6596 12.3917C11.1041 10.9694 11.8708 9.84722 12.9597 9.025ZM0.126316 15.9917C-0.140351 13.9028 0.0152046 11.9361 0.592982 10.0917C1.17076 8.225 2.07076 6.61389 3.29298 5.25833C4.5152 3.90278 6.03743 2.78056 7.85965 1.89167C9.68187 1.00278 11.7041 0.413889 13.9263 0.125C16.7485 -0.208333 19.3819 0.125 21.8263 1.125C24.293 2.125 26.3263 3.70278 27.9263 5.85833C29.5263 7.99167 30.5041 10.4917 30.8596 13.3583C31.4374 18.0028 30.5485 21.8472 28.193 24.8917C25.8374 27.9139 22.3152 29.7139 17.6263 30.2917C14.5597 30.6694 11.7596 30.3028 9.22632 29.1917C6.69298 28.1028 4.63743 26.4139 3.05965 24.125C1.48187 21.8139 0.504094 19.1028 0.126316 15.9917ZM2.69298 15.6917C3.20409 19.7139 4.79298 22.8361 7.45965 25.0583C10.1263 27.3028 13.4152 28.1917 17.3263 27.725C21.2819 27.2361 24.2152 25.7583 26.1263 23.2917C28.0374 20.825 28.7485 17.625 28.2596 13.6917C27.9708 11.2917 27.1596 9.20278 25.8263 7.425C24.5152 5.64722 22.8485 4.34722 20.8263 3.525C18.8041 2.70278 16.6152 2.43611 14.2596 2.725C10.4152 3.19167 7.4152 4.60278 5.25965 6.95833C3.12632 9.31389 2.27076 12.225 2.69298 15.6917Z" fill="white"/>
</svg>
