<svg width="31" height="30" viewBox="0 0 31 30" fill="none" xmlns="http://www.w3.org/2000/svg">
<path d="M2.45788 5.05235C2.33876 5.05385 2.21962 5.05162 2.1005 5.04951C1.87612 5.04162 1.65147 5.04527 1.42746 5.06042C0.590356 5.13018 0.249418 5.47906 0.211079 6.30455C0.153571 7.55043 0.103896 8.81732 0.0558479 10.0426L0.00233194 11.3988C-0.00127788 11.488 -0.000663097 11.5777 0.00394254 11.6658C0.0641891 12.8077 0.493022 13.278 1.64244 13.4634C1.7404 13.4791 1.83984 13.4902 1.9398 13.5007C2.27974 13.538 2.6015 13.574 2.89465 13.7998C2.90224 13.9527 2.91123 14.1063 2.91957 14.2598C2.94085 14.6265 2.96301 15.0058 2.96637 15.3782C2.98205 17.1151 2.99598 18.852 3.00818 20.5889C3.02262 22.5091 3.0383 24.4291 3.05523 26.3491C3.05541 26.9485 3.08736 27.5475 3.15095 28.1435C3.24767 28.9684 3.48555 29.204 4.30759 29.2901L4.60636 29.3216C5.39801 29.4194 6.19408 29.4771 6.99155 29.4945C7.82796 29.4983 8.66196 29.5002 9.49355 29.5003C11.6745 29.5003 13.8318 29.4869 15.9335 29.46C17.0625 29.4456 18.2094 29.4056 19.3186 29.3668C20.1339 29.3383 20.9771 29.3088 21.8063 29.2899C22.6099 29.2714 23.4278 29.2667 24.2189 29.2621C24.808 29.2587 25.4173 29.2551 26.0168 29.2459C26.6996 29.2356 27.0749 28.9197 27.1962 28.2512C27.228 28.0487 27.2442 27.844 27.2445 27.6391C27.2473 27.5417 27.2499 27.4444 27.2561 27.3475C27.3059 26.5723 27.3573 25.7971 27.4102 25.0224C27.5242 23.3241 27.6421 21.5682 27.737 19.8397C27.7673 19.2855 27.8256 18.7199 27.8818 18.1735C28.0486 16.5534 28.2474 13.0861 28.2474 13.0861C28.2474 13.0861 28.5922 13.0612 28.7614 13.0531C29.012 13.0407 29.2711 13.0282 29.5256 12.9909C30.2072 12.8915 30.5971 12.4641 30.6532 11.756C30.6623 11.5894 30.6588 11.4223 30.6429 11.2563L30.6409 11.2277C30.5298 9.65303 30.4168 8.07862 30.3037 6.48571L30.2072 5.13341C30.2051 5.10412 30.193 5.07645 30.1728 5.05503C30.1528 5.0336 30.1259 5.01977 30.0968 5.01581C30.0211 5.00562 29.9483 4.99439 29.8776 4.98332C29.7266 4.95995 29.5841 4.93794 29.4379 4.92899C28.968 4.9003 28.4981 4.87286 28.028 4.84666C27.1957 4.79904 26.3351 4.74994 25.49 4.69088C25.3466 4.67138 25.207 4.63109 25.0753 4.57127C25.0453 4.55959 25.015 4.5478 24.9845 4.53624C25.0226 4.45318 25.0601 4.37398 25.0966 4.29777C25.205 4.08175 25.299 3.8588 25.3779 3.63041C25.496 3.28338 25.5428 2.91609 25.5157 2.55057C25.4885 2.18504 25.3878 1.82879 25.2198 1.50298C25.0412 1.17782 24.7988 0.891897 24.5072 0.662354C24.2155 0.43281 23.8805 0.264332 23.5223 0.16694C22.9312 -0.0108802 22.3064 -0.0472562 21.6986 0.0607532C19.9634 0.36526 18.4 1.15719 16.9187 2.48215C16.732 2.64926 16.5453 2.82382 16.3491 3.00859C16.2869 3.0674 16.2221 3.12794 16.1553 3.19036C16.109 3.11576 16.065 3.04516 16.0227 2.97715C15.8882 2.76005 15.7719 2.57264 15.6483 2.38713C15.2633 1.79562 14.7356 1.31019 14.1139 0.975387C12.4121 0.0700732 10.5926 -0.00936732 8.70608 0.739155C8.16775 0.962254 7.7064 1.3376 7.37869 1.81905C6.68486 2.79113 6.71285 3.59996 7.47253 4.52343C7.57643 4.64376 7.68688 4.75826 7.80339 4.86646C7.83974 4.90189 7.87946 4.94105 7.9234 4.98357L6.88662 4.99674C5.31934 5.01638 3.88862 5.0352 2.45788 5.05235ZM5.01449 14.9842C4.99831 14.697 4.97243 14.4123 4.94517 14.1122C4.93621 14.0146 4.92727 13.9154 4.9184 13.8146C4.95213 13.8083 4.98449 13.8021 5.01574 13.796C5.11936 13.7717 5.22507 13.7574 5.33142 13.7529C7.93423 13.7493 10.5373 13.7493 13.2349 13.7495H14.7899C14.7893 14.4646 14.7829 15.1717 14.7768 15.8568C14.7621 17.5171 14.7482 19.0852 14.8096 20.6712C14.8709 22.2608 14.6527 23.8076 14.7949 25.4495C14.8526 26.1149 14.7412 26.9636 14.7949 27.6488C14.651 27.7033 14.8342 27.6372 14.6809 27.6488C11.769 27.6703 8.89978 27.6795 5.48775 27.6861C5.38139 27.6812 5.27429 27.6659 5.17096 27.6402C5.13175 27.6319 5.09081 27.6234 5.04749 27.6153C5.04114 27.5497 5.0344 27.4852 5.02768 27.4212C5.00425 27.2332 4.9912 27.0441 4.9886 26.8548C4.99947 25.0799 5.01192 23.3051 5.02594 21.5304C5.03855 19.8183 5.05048 18.1061 5.06168 16.394C5.06442 15.9161 5.03939 15.4361 5.01449 14.9842ZM12.5585 6.82753C12.7861 6.82567 13.0139 6.81835 13.241 6.81101C13.6801 6.79708 14.1328 6.78254 14.5668 6.81101C14.7097 7.70712 14.7741 10.2839 14.6828 11.5291C14.0496 11.6851 13.3812 11.6747 12.7337 11.6637C12.3879 11.6584 12.03 11.6524 11.6777 11.6715C10.7181 11.7234 9.7385 11.7306 8.79111 11.7377L8.02821 11.7441C7.13969 11.7525 6.22081 11.7612 5.32122 11.72C5.07637 11.7089 4.82642 11.7047 4.58481 11.7009C3.80646 11.6884 3.00247 11.6752 2.16897 11.4246L1.96046 6.90336C2.41367 6.8594 2.87038 6.86701 3.32187 6.926C3.55091 6.94763 3.78776 6.97018 4.02141 6.97652C4.70503 6.99492 5.41444 7.00459 6.1903 7.00584C6.87741 7.00671 7.61656 7.00474 8.36044 6.98174C8.72465 6.97042 9.09385 6.94842 9.45073 6.92728C9.76105 6.90875 10.0819 6.88993 10.3967 6.87749C11.125 6.85001 11.8522 6.83325 12.5585 6.82753ZM9.50087 4.83348L8.71158 3.73174C8.77382 3.05235 9.10331 2.6582 9.77648 2.45677C10.7723 2.15836 11.6908 2.15311 12.5824 2.43959C13.5939 2.76474 14.2396 3.44674 14.7183 4.70654L9.50087 4.83348ZM17.1386 4.5519C18.2776 3.22279 19.8344 2.31919 21.5545 1.98911C22.1746 1.86166 22.8796 1.82001 23.4238 2.46806C23.5435 3.68174 23.543 3.72102 23.1972 4.50199C23.1618 4.50796 23.1257 4.51446 23.089 4.5213C22.9576 4.54939 22.824 4.5665 22.6897 4.57242C20.9428 4.59729 19.1048 4.61638 17.2252 4.62907C17.2064 4.61487 17.1886 4.59946 17.1719 4.58286C17.1611 4.57254 17.1498 4.56197 17.1386 4.5519ZM16.5583 20.6041C16.6017 19.0163 16.5917 17.4612 16.5812 15.8147C16.5768 15.1368 16.5725 14.4544 16.572 13.7657C17.8417 13.6136 25.4687 13.2646 26.7395 13.2987C26.7146 13.4157 26.6889 13.5326 26.6631 13.6491C26.5833 14.0089 26.5013 14.3808 26.4536 14.7534C26.2802 16.1212 26.1454 17.2701 26.0508 18.4321C25.9411 19.7801 25.8557 21.1519 25.7731 22.4788C25.7488 22.8687 25.7243 23.2589 25.6995 23.6489C25.6643 24.2024 25.6308 24.7559 25.5992 25.3096C25.5618 25.9437 25.5245 26.577 25.4833 27.2104C25.472 27.2802 25.4499 27.3479 25.4177 27.4109C25.4081 27.4334 25.3982 27.4564 25.3883 27.4806H16.2005C16.2378 26.7992 16.2786 26.1226 16.3192 25.4495C16.4152 23.8591 16.5144 22.2144 16.5583 20.6041ZM28.4547 6.1807C28.4636 6.19379 28.4696 6.20876 28.4721 6.22448C28.438 7.67241 28.4022 9.12039 28.3652 10.6106L28.3559 10.9862C28.2891 10.9994 28.2238 11.0132 28.1593 11.0268C27.9728 11.0711 27.7834 11.1023 27.5926 11.1201C23.9827 11.3649 20.3546 11.4947 16.807 11.5055C16.6263 10.5062 16.5712 7.93987 16.7075 6.81174C17.4469 6.64699 18.2261 6.62982 18.9815 6.61279C19.1864 6.60831 19.3912 6.60386 19.5956 6.5964C20.0633 6.57986 20.5406 6.57709 21.0022 6.57448C21.5019 6.57162 22.0188 6.56865 22.5274 6.54801C23.5527 6.5066 24.5578 6.43049 25.583 6.34905C26.2579 6.29583 26.9323 6.23068 27.5843 6.16764C27.8479 6.14228 28.1075 6.11746 28.3633 6.09309C28.3795 6.10813 28.3934 6.12081 28.4058 6.13188C28.4233 6.14679 28.4396 6.16331 28.4547 6.1807Z" fill="white"/>
</svg>
