<svg width="27" height="30" viewBox="0 0 27 30" fill="none" xmlns="http://www.w3.org/2000/svg">
<path d="M8.4723 0.0982418C9.6966 0.283031 10.8167 0.7714 11.8326 1.56335C12.8485 2.3553 13.643 3.34524 14.2161 4.53316C15.2841 3.29244 16.5084 2.44769 17.889 1.99892C19.2956 1.55015 20.6762 1.56335 22.0307 2.03852C23.8802 2.69848 25.1957 4.03159 25.9771 6.03787C26.7586 8.01774 26.8758 10.4068 26.3288 13.205C25.7036 16.3728 24.3882 19.1578 22.3824 21.5601C20.4027 23.9623 17.1205 26.7078 12.5359 29.7964C12.2754 29.9547 12.0019 30.0207 11.7154 29.9943C11.4288 29.9679 11.1814 29.8492 10.973 29.638C7.06567 25.7046 4.21332 22.1408 2.41595 18.9466C0.618574 15.7261 -0.175915 12.5715 0.0324766 9.48285C0.266916 6.26225 1.1656 3.80721 2.72853 2.11772C4.29146 0.401823 6.20605 -0.271335 8.4723 0.0982418ZM21.2493 4.37477C20.1552 3.9788 19.0351 4.07119 17.889 4.65195C16.7428 5.23272 15.8181 6.19625 15.1148 7.54257C15.1929 8.30812 15.1929 9.07367 15.1148 9.83922C15.0887 10.1824 14.9454 10.4596 14.685 10.6708C14.4245 10.882 14.1249 10.9744 13.7863 10.948C13.5518 10.9216 13.3434 10.8424 13.1611 10.7104C13.0048 10.5784 12.8746 10.42 12.7704 10.2352C12.6922 10.024 12.6662 9.79963 12.6922 9.56204C12.8746 7.79335 12.5099 6.23585 11.5982 4.88954C10.7125 3.54322 9.54031 2.75128 8.08157 2.51369C6.59679 2.27611 5.33342 2.77767 4.29146 4.01839C3.24951 5.25911 2.63736 7.1334 2.45502 9.64124C2.29873 12.2019 3.00205 14.8945 4.56498 17.7191C6.12791 20.5437 8.60255 23.6983 11.9889 27.1829C16.0004 24.4375 18.8528 22.022 20.5459 19.9366C22.2652 17.8511 23.3983 15.4489 23.9453 12.7298C24.3621 10.5124 24.31 8.6777 23.789 7.22579C23.2941 5.74748 22.4475 4.79714 21.2493 4.37477Z" fill="white"/>
</svg>
