<svg width="34" height="35" viewBox="0 0 34 35" fill="none" xmlns="http://www.w3.org/2000/svg">
<path d="M32.2113 14.5539C32.011 14.3675 31.8037 14.1746 31.606 13.98C29.954 12.3533 28.3023 10.7259 26.6511 9.09801C23.8232 6.31124 20.9944 3.52601 18.1646 0.74228C17.1449 -0.260038 16.7011 -0.251203 15.6655 0.792731L14.9333 1.53085C11.3322 5.16018 7.60861 8.91321 3.93364 12.591C3.15299 13.3721 2.33684 14.1444 1.54749 14.8905C1.1655 15.2515 0.784293 15.6136 0.403872 15.9768C0.239867 16.1335 -0.259332 16.6121 0.17023 17.1266C0.457894 17.4712 0.841725 17.4502 1.31095 17.0646C1.61671 16.8129 1.9222 16.5515 2.21774 16.2978C2.40841 16.1342 2.59949 15.9715 2.79099 15.8092C2.87472 15.7379 2.9619 15.6735 3.09427 15.5751L3.13765 15.5428C3.13765 15.8465 3.13959 16.1414 3.14097 16.4287C3.14456 17.2148 3.14788 17.9574 3.1342 18.6954C3.10795 20.099 3.07838 21.5025 3.0455 22.9062C3.00488 24.7372 2.9626 26.6306 2.93289 28.4928C2.91382 29.6757 2.90291 30.9322 2.99506 32.1555C3.09455 33.4759 3.58545 33.9544 4.94074 34.051C5.76394 34.11 6.60095 34.1767 7.41047 34.2415C9.01169 34.3698 10.6674 34.5018 12.2992 34.579C16.1971 34.7634 20.1564 34.9034 24.0673 34.9952C24.2055 34.9983 24.3453 34.9999 24.4867 35C25.6303 34.9909 26.7722 34.9059 27.9052 34.7455C29.6036 34.5184 30.2186 33.9066 30.436 32.2276C30.709 30.1218 30.8929 27.9041 30.9984 25.4475C31.0915 23.2747 31.1265 21.1417 31.1633 18.8837C31.1774 18.0304 31.1926 17.1702 31.2088 16.303C31.3529 16.4431 31.4774 16.5641 31.6084 16.6808C32.1283 17.1442 32.6876 17.1842 33.0674 16.7848C33.1531 16.6975 33.2208 16.5931 33.2664 16.4783C33.3121 16.3633 33.3348 16.24 33.3333 16.1158C33.3129 15.7708 33.1608 15.4483 32.9102 15.219C32.6819 14.992 32.4426 14.7686 32.2113 14.5539ZM13.0199 21.1651L19.5342 20.5303L19.7386 33.2801L12.7654 33.0036L13.0199 21.1651ZM21.4619 22.3568C21.4601 21.7108 21.4264 21.0559 21.394 20.4227C21.3857 20.2612 21.3775 20.0996 21.3696 19.9381C21.3477 19.4845 21.2266 19.165 20.9996 18.961C20.7687 18.7537 20.4342 18.6722 19.9772 18.7148C17.3328 18.9558 14.9087 19.1617 12.5663 19.3441C11.573 19.4215 11.2383 19.7936 11.2391 20.819C11.2432 25.2004 11.2421 28.5617 11.2352 31.7174C11.2296 31.9938 11.2102 32.2697 11.1772 32.544C11.167 32.6446 11.1563 32.7478 11.1465 32.8544L4.56326 32.432C4.55138 32.327 4.53839 32.2248 4.52541 32.1244C4.48485 31.8574 4.46177 31.5877 4.45632 31.3174C4.46295 30.1393 4.47636 28.9415 4.48934 27.783C4.50468 26.4006 4.52057 24.9713 4.52527 23.5653C4.52983 22.2409 4.52637 20.8946 4.52319 19.5925C4.51933 18.0183 4.51532 16.3905 4.52499 14.7897C4.52453 14.5023 4.62299 14.2241 4.80283 14.0045C7.77495 11.0608 10.8131 8.0853 13.7515 5.20789L15.1227 3.86484C15.5616 3.43487 16.0035 3.00833 16.4547 2.57252L17.0129 2.03294C17.4098 2.42514 17.8055 2.81532 18.1999 3.20354C19.1127 4.10253 20.0565 5.03235 20.9725 5.95144C22.1389 7.12197 23.3036 8.29414 24.4665 9.46801C25.9489 10.9622 27.4815 12.5069 28.9947 14.0205C29.306 14.3321 29.448 14.5812 29.3608 15.0786C29.3093 15.4794 29.3105 15.8854 29.3647 16.2859C29.3933 16.5447 29.4071 16.8051 29.4061 17.0656L29.3913 17.6641C29.3312 20.0785 29.2692 22.5748 29.1555 25.0268C29.0877 26.4912 28.9759 27.9792 28.8691 29.4181C28.8206 30.0668 28.7724 30.7158 28.7272 31.3647L28.7251 31.3942C28.721 31.4546 28.7168 31.5153 28.7094 31.5755C28.551 32.8654 28.4416 32.9811 27.247 33.1228C25.3285 33.3517 23.3946 33.4136 21.4661 33.308L21.4669 30.4741C21.4681 27.8089 21.4693 25.0533 21.4621 22.3568H21.4619Z" fill="white"/>
</svg>
