<svg width="27" height="28" viewBox="0 0 27 28" fill="none" xmlns="http://www.w3.org/2000/svg">
<path d="M7.7613 6.076C8.31367 6.076 8.82002 5.89187 9.28033 5.52362C9.75906 5.13696 9.99842 4.75029 9.99842 4.36363C9.99842 2.8538 9.25271 2.09889 7.7613 2.09889C7.0248 2.09889 6.54607 2.27381 6.32512 2.62364C6.12258 2.95507 6.02131 3.53507 6.02131 4.36363C6.02131 4.84236 6.18702 5.24743 6.51845 5.57886C6.86829 5.91029 7.28257 6.076 7.7613 6.076ZM7.7613 8.17503C6.71178 8.17503 5.80957 7.80678 5.05465 7.07027C4.31815 6.31536 3.9499 5.41315 3.9499 4.36363C3.9499 3.97697 3.97752 3.60872 4.03276 3.25888C4.08799 2.90904 4.19847 2.53158 4.36418 2.12651C4.5299 1.72143 4.74164 1.37159 4.99942 1.07699C5.2756 0.763979 5.64385 0.506203 6.10417 0.303665C6.58289 0.101127 7.13527 -0.0001418 7.7613 -0.0001418C8.51621 -0.0001418 9.17906 0.137952 9.74985 0.41414C10.3206 0.690328 10.7717 1.04937 11.1032 1.49127C11.4346 1.91476 11.674 2.37508 11.8213 2.87221C11.987 3.35094 12.0698 3.84808 12.0698 4.36363C12.0698 5.44997 11.6187 6.36139 10.7165 7.09789C9.8143 7.81598 8.82922 8.17503 7.7613 8.17503ZM12.8155 19.9683C12.834 20.134 12.8616 20.3641 12.8984 20.6587C13.1378 22.1686 13.2298 23.3562 13.1746 24.2216C13.1193 25.087 12.834 25.7498 12.3184 26.2101C11.8581 26.6152 10.9375 26.9006 9.55652 27.0663C8.19399 27.232 6.82226 27.232 5.44132 27.0663C4.07879 26.9006 3.19499 26.5968 2.78991 26.1549C2.38483 25.713 2.17309 24.9028 2.15468 23.7244C2.13626 22.5644 2.20991 21.3952 2.37563 20.2168C2.39404 20.0511 2.40325 19.9222 2.40325 19.8302L1.02231 19.7197L0.000409541 19.6368L0.0556472 18.6426C0.110885 17.1511 0.248979 15.715 0.469929 14.334C0.709293 12.9347 1.52865 11.6826 2.928 10.5779C4.34577 9.47311 5.99369 8.92074 7.87177 8.92074C8.84764 8.92074 9.76826 9.10486 10.6337 9.47311C11.5175 9.84136 12.2632 10.3201 12.8708 10.9093C13.4784 11.4801 13.9663 12.1153 14.3346 12.815C14.7212 13.4963 14.9606 14.1867 15.0527 14.8864C15.2552 16.4331 15.2552 17.8324 15.0527 19.0845L14.9146 19.9683H14.0308H12.8155ZM10.5784 19.0568L10.4127 17.8692H11.6279H13.0917C13.1101 17.6851 13.1101 17.2892 13.0917 16.6816C13.0733 16.074 13.0365 15.5585 12.9813 15.135C12.8708 14.1959 12.3276 13.2753 11.3517 12.3731C10.3759 11.4709 9.21589 11.0198 7.87177 11.0198C6.49083 11.0198 5.28481 11.4248 4.25371 12.235C3.24102 13.0267 2.67023 13.8369 2.54134 14.6655C2.37563 15.6413 2.25595 16.6632 2.1823 17.7311L3.64609 17.814L4.72323 17.8969L4.58513 18.974C4.27212 21.92 4.19847 23.8257 4.36418 24.6911C5.02703 24.82 6.06734 24.8936 7.48511 24.912C8.92129 24.9304 10.0537 24.8476 10.8822 24.6635C10.919 24.5346 10.9375 24.2492 10.9375 23.8073C10.9559 23.3838 10.9375 22.7301 10.8822 21.8463C10.827 20.9625 10.7257 20.0327 10.5784 19.0568ZM21.1564 15.1074C21.5615 15.1074 21.9298 14.9601 22.2612 14.6655C22.5926 14.3708 22.7583 14.0578 22.7583 13.7264C22.7583 13.3213 22.6018 12.9623 22.2888 12.6493C21.9942 12.3179 21.6167 12.1521 21.1564 12.1521C20.7145 12.1521 20.3647 12.2994 20.1069 12.594C19.8675 12.8702 19.7479 13.2477 19.7479 13.7264C19.7479 14.1131 19.886 14.4445 20.1621 14.7207C20.4383 14.9785 20.7698 15.1074 21.1564 15.1074ZM21.1564 17.2064C20.1806 17.2064 19.352 16.8657 18.6707 16.1845C18.0079 15.5032 17.6765 14.6839 17.6765 13.7264C17.6765 12.769 17.9803 11.922 18.5879 11.1855C19.2139 10.449 20.0701 10.0807 21.1564 10.0807C22.2059 10.0807 23.0805 10.449 23.7802 11.1855C24.4983 11.9036 24.8573 12.7505 24.8573 13.7264C24.8573 14.7207 24.4707 15.5493 23.6974 16.2121C22.9424 16.875 22.0955 17.2064 21.1564 17.2064ZM23.9183 22.454C23.9183 22.0673 23.6605 21.6162 23.145 21.1006C22.6478 20.5851 21.9574 20.2813 21.0736 20.1892C20.3187 20.1156 19.6742 20.3641 19.1403 20.9349C18.6247 21.4873 18.3669 21.9936 18.3669 22.454V24.3597C19.0482 24.5254 20.0425 24.6174 21.3498 24.6358C22.657 24.6727 23.5316 24.6358 23.9735 24.5254C24.0104 24.1571 24.0104 23.7428 23.9735 23.2825C23.9367 22.8222 23.9183 22.546 23.9183 22.454ZM26.0173 22.454C26.0173 22.4908 26.0173 22.6013 26.0173 22.7854C26.0357 22.9695 26.0542 23.1628 26.0726 23.3654C26.091 23.5679 26.091 23.8349 26.0726 24.1663C26.0726 24.5162 26.045 24.8476 25.9897 25.1606C25.8977 25.805 25.3361 26.2838 24.305 26.5968C23.2923 26.9098 22.1875 27.0387 20.9907 26.9834C19.8123 26.9466 18.726 26.7441 17.7317 26.3758C16.7558 26.026 16.2679 25.5749 16.2679 25.0225V22.454C16.2679 22.0121 16.3784 21.5333 16.5993 21.0178C16.8387 20.4838 17.1609 19.9867 17.566 19.5264C17.9711 19.0476 18.4958 18.6794 19.1403 18.4216C19.8031 18.1454 20.5212 18.0442 21.2945 18.1178C22.6755 18.2651 23.8078 18.7807 24.6916 19.6645C25.5754 20.5298 26.0173 21.4597 26.0173 22.454Z" fill="white"/>
</svg>
