<svg width="33" height="32" viewBox="0 0 33 32" fill="none" xmlns="http://www.w3.org/2000/svg">
<path d="M32.5198 9.6C32.6753 10.2667 32.342 10.9333 31.5198 11.6C30.6975 12.2444 29.2309 13.0556 27.1198 14.0333C27.5642 16.3 27.7309 18.0667 27.6198 19.3333C27.5309 20.6 27.1309 21.4222 26.4198 21.8C26.1309 21.9556 25.8309 21.9667 25.5198 21.8333C24.3642 21.3444 22.6198 20.0667 20.2864 18C18.9975 18.7556 17.9086 19.3222 17.0198 19.7C16.1309 20.0556 15.342 20.2556 14.6531 20.3C13.9864 20.3222 13.4753 20.1222 13.1198 19.7L13.0531 19.6333C12.8753 19.4111 12.7642 19.1444 12.7198 18.8333C12.6753 18.5222 12.6864 18.1667 12.7531 17.7667C12.842 17.3444 12.9864 16.8556 13.1864 16.3C13.4086 15.7444 13.6753 15.1444 13.9864 14.5C14.2975 13.8333 14.6864 13.0778 15.1531 12.2333C13.9531 11.1222 13.0309 10.2111 12.3864 9.5C11.7642 8.78889 11.3309 8.17778 11.0864 7.66667C10.8642 7.13333 10.8531 6.67778 11.0531 6.3C11.3198 5.65556 12.0198 5.3 13.1531 5.23333C14.2864 5.14444 15.9864 5.27778 18.2531 5.63333C19.142 3.74444 19.942 2.34444 20.6531 1.43333C21.3864 0.522221 22.1086 0.0444439 22.8198 0C22.8864 0 22.9642 0.011111 23.0531 0.0333329C23.8531 0.144444 24.4642 0.744444 24.8864 1.83333C25.3309 2.92222 25.6642 4.58889 25.8864 6.83333C28.1531 7.21111 29.7864 7.61111 30.7864 8.03333C31.8086 8.43333 32.3864 8.95556 32.5198 9.6ZM29.4531 9.76667C28.4086 9.43333 26.842 9.1 24.7531 8.76667C24.5086 8.72222 24.3086 8.61111 24.1531 8.43333C23.9975 8.25556 23.9086 8.05556 23.8864 7.83333C23.7086 5.74445 23.4642 4.17778 23.1531 3.13333C23.0198 2.71111 22.8864 2.4 22.7531 2.2C22.0642 2.75556 21.0975 4.42222 19.8531 7.2C19.6309 7.68889 19.2531 7.88889 18.7198 7.8C16.6086 7.46667 15.0086 7.3 13.9198 7.3C13.6975 7.3 13.4975 7.3 13.3198 7.3C13.4309 7.45556 13.5531 7.62222 13.6864 7.8C14.4198 8.64445 15.5753 9.8 17.1531 11.2667C17.5531 11.6444 17.6198 12.0667 17.3531 12.5333C16.2642 14.4889 15.5198 16.0222 15.1198 17.1333C14.9642 17.5556 14.8531 17.9 14.7864 18.1667C15.0309 18.1444 15.3309 18.0778 15.6864 17.9667C16.7086 17.6111 18.0975 16.8889 19.8531 15.8C20.2975 15.5333 20.7198 15.5778 21.1198 15.9333C22.9864 17.6444 24.4531 18.8333 25.5198 19.5C25.5642 19.2556 25.5864 18.9778 25.5864 18.6667C25.5864 17.4889 25.3642 15.8111 24.9198 13.6333C24.8531 13.3889 24.8753 13.1667 24.9864 12.9667C25.0975 12.7444 25.2642 12.5778 25.4864 12.4667C27.3753 11.6222 28.7642 10.9111 29.6531 10.3333C29.8309 10.2 29.9864 10.0889 30.1198 10C29.942 9.91111 29.7198 9.83333 29.4531 9.76667ZM14.6864 22C14.8864 22.4667 14.7642 22.9667 14.3198 23.5C13.8753 24.0111 12.9864 24.7444 11.6531 25.7C12.4086 27.1222 12.8642 28.2111 13.0198 28.9667C13.1975 29.7222 13.0753 30.3111 12.6531 30.7333C12.4531 30.9111 12.2309 30.9778 11.9864 30.9333C11.1864 30.7778 9.91975 30.1667 8.18642 29.1C7.18642 30.1889 6.35309 30.9111 5.68642 31.2667C5.04198 31.6444 4.48642 31.6667 4.01975 31.3333L3.95309 31.3C3.61975 31.0333 3.41975 30.4889 3.35309 29.6667C3.30864 28.8667 3.38642 27.7111 3.58642 26.2C2.1642 25.3778 1.18642 24.7333 0.653087 24.2667C0.141975 23.7778 -0.0691358 23.3222 0.0197531 22.9C0.130864 22.4111 0.530865 22.0667 1.21975 21.8667C1.90864 21.6667 3.05309 21.5222 4.65309 21.4333C5.11975 20.1222 5.54198 19.1444 5.91975 18.5C6.31975 17.8333 6.74198 17.4333 7.18642 17.3C7.25309 17.3 7.30864 17.2889 7.35309 17.2667C7.90864 17.2444 8.39753 17.5444 8.81975 18.1667C9.2642 18.7667 9.71975 19.7667 10.1864 21.1667C10.8975 21.1222 11.5086 21.1111 12.0198 21.1333C12.5531 21.1333 12.9975 21.1667 13.3531 21.2333C13.7309 21.2778 14.0198 21.3667 14.2198 21.5C14.442 21.6333 14.5975 21.8 14.6864 22ZM12.6864 22.7333C11.9975 22.6667 10.9975 22.6778 9.68642 22.7667C9.2642 22.7889 8.99753 22.6111 8.88642 22.2333C8.48642 20.9444 8.11975 20 7.78642 19.4C7.67531 19.2222 7.57531 19.0778 7.48642 18.9667C7.08642 19.5 6.57531 20.6556 5.95309 22.4333C5.84198 22.7667 5.60864 22.9444 5.25309 22.9667C3.85309 23.0333 2.80864 23.1333 2.11975 23.2667C2.07531 23.2667 2.03086 23.2778 1.98642 23.3C2.03086 23.3222 2.07531 23.3556 2.11975 23.4C2.69753 23.8444 3.59753 24.4111 4.81975 25.1C5.13086 25.2778 5.2642 25.5444 5.21975 25.9C5.01975 27.3444 4.91975 28.4556 4.91975 29.2333C4.91975 29.5 4.93086 29.7222 4.95309 29.9C5.0642 29.8333 5.17531 29.7556 5.28642 29.6667C5.84198 29.2667 6.57531 28.5667 7.48642 27.5667C7.77531 27.2556 8.10864 27.2111 8.48642 27.4333C9.73086 28.2333 10.7198 28.7889 11.4531 29.1C11.4309 29.0333 11.4086 28.9667 11.3864 28.9C11.1642 28.1667 10.6864 27.1556 9.95309 25.8667C9.8642 25.6889 9.84198 25.5 9.88642 25.3C9.93086 25.1 10.0309 24.9444 10.1864 24.8333C11.3642 24.0111 12.2198 23.3556 12.7531 22.8667C12.7975 22.8222 12.8309 22.7778 12.8531 22.7333C12.8086 22.7333 12.7531 22.7333 12.6864 22.7333ZM9.61975 9.16667C9.70864 9.47778 9.57531 9.77778 9.21975 10.0667C8.88642 10.3556 8.2642 10.7444 7.35309 11.2333C7.75309 12.9444 7.64198 13.9556 7.01975 14.2667C6.88642 14.3333 6.75309 14.3333 6.61975 14.2667C6.10864 14.0667 5.3642 13.4333 4.38642 12.3667C3.58642 12.9667 2.95309 13.3444 2.48642 13.5C2.04198 13.6556 1.65309 13.6 1.31975 13.3333C1.14198 13.0444 1.10864 12.6778 1.21975 12.2333C1.35309 11.7889 1.65309 11.1333 2.11975 10.2667C1.3642 9.57778 0.864198 9.05556 0.619753 8.7C0.375309 8.34444 0.308642 8.03333 0.419753 7.76667C0.553086 7.5 0.853087 7.34445 1.31975 7.3C1.80864 7.25556 2.54198 7.31111 3.51975 7.46667C4.23086 6 4.87531 5.24445 5.45309 5.2H5.55309C5.79753 5.24445 5.99753 5.37778 6.15309 5.6C6.33086 5.82222 6.4642 6.13333 6.55309 6.53333C6.6642 6.91111 6.75309 7.4 6.81975 8C7.79753 8.15556 8.49753 8.32222 8.91975 8.5C9.34198 8.67778 9.57531 8.9 9.61975 9.16667ZM8.21975 9.36667C7.79753 9.23333 7.14198 9.1 6.25309 8.96667C5.98642 8.92222 5.84198 8.76667 5.81975 8.5C5.75309 7.65556 5.65309 7.02222 5.51975 6.6C5.47531 6.48889 5.44198 6.4 5.41975 6.33333C5.33086 6.42222 5.25309 6.52222 5.18642 6.63333C4.91975 6.98889 4.61975 7.53333 4.28642 8.26667C4.17531 8.51111 3.98642 8.61111 3.71975 8.56667C2.83086 8.41111 2.1642 8.33333 1.71975 8.33333C1.69753 8.33333 1.67531 8.33333 1.65309 8.33333C1.67531 8.33333 1.68642 8.34444 1.68642 8.36667C1.99753 8.72222 2.48642 9.2 3.15309 9.8C3.35309 9.97778 3.38642 10.1889 3.25309 10.4333C2.80864 11.2111 2.49753 11.8222 2.31975 12.2667C2.29753 12.3333 2.27531 12.4 2.25309 12.4667C2.29753 12.4444 2.34198 12.4222 2.38642 12.4C2.80864 12.2 3.38642 11.8222 4.11975 11.2667C4.38642 11.0667 4.61975 11.0778 4.81975 11.3C5.55309 12.1222 6.13086 12.7 6.55309 13.0333C6.55309 13.0111 6.55309 12.9778 6.55309 12.9333C6.55309 12.5111 6.45309 11.8889 6.25309 11.0667C6.18642 10.8 6.27531 10.6 6.51975 10.4667C7.31975 10.0667 7.90864 9.73333 8.28642 9.46667C8.33086 9.44444 8.3642 9.42222 8.38642 9.4C8.34198 9.4 8.28642 9.38889 8.21975 9.36667Z" fill="white"/>
</svg>
