<svg width="1586" height="3937" viewBox="0 0 1586 3937" fill="none" xmlns="http://www.w3.org/2000/svg">
<path d="M-49.9999 1C-33.9999 42.6666 83.5186 147.146 160.5 184.999C251 229.5 370.402 244.707 388.5 158.5C395.218 126.5 372.5 106.955 359 100C330.854 85.5 284.203 92.0552 246 133C152.399 233.317 240.398 331.632 187.5 565.5C140.001 775.5 132.5 876.5 204 1190C262.156 1444.99 179.5 1537.5 166.5 1708.5C159.547 1799.95 165.878 1848.69 214 1938.5C323.877 2143.57 692.848 1916.94 939 1986C1201.59 2059.67 1357.87 2032.86 1493 2313C1613.1 2561.99 1472.5 2809.62 1441.5 3019C1421.44 3154.48 1577.17 3369.85 1548 3584C1533.31 3691.81 1535 3702.5 1499.5 3758C1458.64 3821.88 1398.81 3820 1424 3894.5C1449.19 3969 1527.13 3931 1507.5 3878.5C1487.87 3826 1372.1 3769.6 1268.5 3862" stroke="#E41B23" stroke-width="2" stroke-linecap="round" stroke-dasharray="6 13"/>
<rect width="64" height="64" transform="translate(1491.89 2700) rotate(20)" fill="#F7F7F6"/>
<path d="M1506.06 2749.18L1509.49 2739.76C1506.96 2739.41 1504.49 2738.92 1502.07 2738.31C1501.21 2738.07 1500.41 2737.83 1499.66 2737.6C1499.49 2737.54 1499.36 2737.49 1499.26 2737.45L1494.83 2748.22C1497.53 2748.29 1501.27 2748.61 1506.06 2749.18ZM1508.23 2749.46C1511.95 2749.94 1515.62 2750.5 1519.25 2751.14L1523.26 2740.91L1515.92 2732.22C1512.91 2731.85 1509.91 2731.36 1506.91 2730.76L1511.84 2738.29C1512.03 2738.58 1512.07 2738.9 1511.95 2739.23C1511.93 2739.27 1511.93 2739.29 1511.93 2739.29L1508.23 2749.46ZM1521.33 2751.5C1524.59 2752.12 1527.29 2752.69 1529.45 2753.21C1530.58 2750.22 1531.65 2747.64 1532.66 2745.47C1533.05 2744.63 1533.44 2743.86 1533.84 2743.17C1533.61 2743.17 1533.37 2743.16 1533.12 2743.14C1531.96 2743.09 1530.83 2743.02 1529.73 2742.93C1528.84 2742.87 1528 2742.79 1527.21 2742.69C1526.36 2742.61 1525.61 2742.5 1524.94 2742.37L1521.33 2751.5ZM1525.45 2740.35C1526.05 2740.45 1526.72 2740.54 1527.45 2740.62C1528.21 2740.71 1529.03 2740.8 1529.9 2740.89C1530.79 2740.95 1531.72 2741 1532.68 2741.05C1531.77 2740.23 1530.89 2739.38 1530.04 2738.5C1528.69 2737.1 1527.43 2735.64 1526.24 2734.11C1525.93 2733.73 1525.63 2733.35 1525.34 2732.99C1523.22 2732.9 1521.08 2732.76 1518.91 2732.58L1525.27 2740.05C1525.35 2740.16 1525.4 2740.26 1525.45 2740.35ZM1504.01 2730.16C1503.53 2730.02 1503.03 2729.9 1502.5 2729.78C1499.37 2729.02 1496.48 2728.19 1493.81 2727.3L1499.77 2735.43C1499.9 2735.48 1500.07 2735.54 1500.27 2735.61C1500.98 2735.83 1501.77 2736.06 1502.63 2736.3C1504.64 2736.8 1506.72 2737.22 1508.87 2737.55L1504.01 2730.16ZM1514.87 2728.72C1515.15 2728.67 1515.42 2728.71 1515.67 2728.84C1519.25 2729.31 1522.8 2729.58 1526.33 2729.66C1526.89 2729.67 1527.33 2729.93 1527.64 2730.42C1527.72 2730.52 1527.81 2730.67 1527.93 2730.86C1528.22 2731.23 1528.54 2731.65 1528.89 2732.12C1529.97 2733.54 1531.14 2734.89 1532.41 2736.18C1534.03 2737.87 1535.7 2739.35 1537.44 2740.62C1537.75 2740.89 1537.95 2741.23 1538.03 2741.63C1538.14 2742.05 1538.08 2742.45 1537.83 2742.81C1537.15 2743.96 1536.42 2745.33 1535.66 2746.9C1534.61 2749.17 1533.41 2752.14 1532.08 2755.81C1531.92 2756.25 1531.63 2756.56 1531.22 2756.75C1530.85 2756.95 1530.44 2756.98 1530.01 2756.82C1525.62 2755.56 1518.82 2754.3 1509.6 2753.02C1500.37 2751.75 1494.68 2751.28 1492.51 2751.63C1491.74 2751.76 1491.18 2751.48 1490.83 2750.79L1484.09 2738.74C1483.83 2738.31 1483.79 2737.86 1483.96 2737.39C1485.09 2734.28 1486.25 2731.08 1487.46 2727.77C1487.82 2726.77 1488.2 2725.77 1488.6 2724.78C1488.71 2724.48 1488.81 2724.21 1488.89 2723.98L1488.99 2723.73C1489.16 2723.26 1489.45 2722.93 1489.86 2722.74C1490.3 2722.56 1490.75 2722.57 1491.21 2722.78C1491.31 2722.81 1491.47 2722.87 1491.71 2722.96C1495.01 2724.27 1498.87 2725.47 1503.28 2726.55C1507.14 2727.5 1511 2728.22 1514.87 2728.72ZM1492.84 2747.6L1497.58 2735.99L1491.22 2727.26C1491 2727.86 1490.8 2728.42 1490.62 2728.92C1489.51 2731.96 1488.43 2734.91 1487.39 2737.79L1492.84 2747.6ZM1515.99 2741.39C1516.77 2741.22 1517.58 2741.28 1518.41 2741.59C1518.98 2741.79 1519.47 2742.07 1519.87 2742.4C1520.23 2742.68 1520.23 2742.99 1519.88 2743.32C1519.7 2743.51 1519.5 2743.54 1519.29 2743.38C1518.7 2743.02 1518.31 2742.8 1518.11 2742.73C1517.61 2742.54 1517.12 2742.5 1516.63 2742.59C1516.26 2742.68 1515.92 2742.86 1515.64 2743.13L1517.89 2743.95C1518.23 2744.07 1518.3 2744.27 1518.13 2744.55C1517.99 2744.84 1517.8 2744.94 1517.56 2744.85L1515.01 2743.92C1514.97 2744.02 1514.93 2744.14 1514.88 2744.28C1514.84 2744.38 1514.81 2744.48 1514.77 2744.58L1517.33 2745.51C1517.49 2745.57 1517.6 2745.7 1517.64 2745.9C1517.69 2746.07 1517.67 2746.24 1517.57 2746.39C1517.52 2746.52 1517.42 2746.56 1517.25 2746.5C1516.92 2746.46 1516.07 2746.15 1514.69 2745.57C1514.73 2746 1514.87 2746.37 1515.13 2746.69C1515.4 2747.1 1515.79 2747.39 1516.29 2747.57C1516.46 2747.63 1516.64 2747.66 1516.83 2747.65C1517.05 2747.66 1517.22 2747.66 1517.33 2747.67C1517.45 2747.67 1517.56 2747.71 1517.69 2747.79C1517.74 2747.85 1517.77 2747.92 1517.78 2748C1517.82 2748.09 1517.84 2748.19 1517.84 2748.3C1517.85 2748.38 1517.84 2748.47 1517.8 2748.57C1517.8 2748.69 1517.77 2748.77 1517.71 2748.82C1517.65 2748.88 1517.58 2748.91 1517.5 2748.92C1517.04 2748.94 1516.48 2748.83 1515.81 2748.59C1514.97 2748.28 1514.33 2747.8 1513.89 2747.15C1513.43 2746.53 1513.23 2745.83 1513.29 2745.06L1511.99 2744.58C1511.75 2744.5 1511.74 2744.29 1511.94 2743.94C1512.04 2743.75 1512.17 2743.67 1512.31 2743.68C1512.63 2743.76 1512.99 2743.89 1513.42 2744.08C1513.45 2743.98 1513.49 2743.88 1513.53 2743.78C1513.57 2743.65 1513.62 2743.53 1513.65 2743.43L1512.55 2743.03C1512.28 2742.93 1512.19 2742.77 1512.28 2742.53C1512.36 2742.3 1512.52 2742.19 1512.74 2742.19C1513.05 2742.19 1513.53 2742.33 1514.18 2742.6C1514.67 2741.99 1515.27 2741.58 1515.99 2741.39Z" fill="#E41B23"/>
<rect width="64" height="64" transform="translate(135 1689.11) rotate(-10)" fill="#F7F7F6"/>
<path d="M147.978 1696.68L148.371 1695.53C153.402 1697.24 158.179 1699.56 162.702 1702.48C167.218 1705.37 171.156 1708.55 174.515 1712.04C177.867 1715.49 180.757 1719.08 183.182 1722.81C185.643 1726.52 187.581 1730.24 188.995 1733.97L187.772 1734.4L186.601 1734.82C185.293 1731.3 183.46 1727.76 181.1 1724.2C178.769 1720.61 175.974 1717.14 172.716 1713.82C169.487 1710.45 165.694 1707.37 161.336 1704.56C156.978 1701.76 152.398 1699.53 147.595 1697.89L147.978 1696.68ZM184.98 1729.31L185.372 1730.92C177.353 1732.95 170.763 1731.51 165.603 1726.61L164.691 1725.74L165.251 1724.61L166.851 1721.41C166.74 1721.39 166.411 1721.47 165.863 1721.64C165.309 1721.77 164.604 1721.77 163.75 1721.63C162.924 1721.45 162.35 1721.06 162.029 1720.47C160.54 1717.56 158.876 1714.67 157.037 1711.82C155.199 1708.97 153.029 1706.08 150.529 1703.16C148.023 1700.21 145.662 1698.08 143.446 1696.78L138.552 1693.9L144.206 1693.72C156.577 1693.23 165.211 1694.18 170.108 1696.57L170.708 1696.9L170.924 1697.51L172.434 1701.47C173.449 1700.68 174.451 1699.9 175.437 1699.15L176.108 1698.65L176.97 1698.94C183.437 1701.01 187.967 1704.07 190.559 1708.13L191.245 1709.25L190.324 1710.17L187.614 1712.93L191.729 1713.23L193.379 1713.37L193.289 1715.01C193.05 1718.16 192.25 1720.79 190.891 1722.91C189.525 1724.99 187.57 1726.6 185.026 1727.73L184.424 1726.16L183.822 1724.59C185.511 1723.93 186.837 1722.96 187.801 1721.67C188.759 1720.34 189.409 1718.6 189.752 1716.45L183.706 1715.94L180.134 1715.65L182.662 1713.1L186.944 1708.82C185.845 1707.5 184.518 1706.32 182.966 1705.3C181.413 1704.27 179.346 1703.3 176.765 1702.38C175.68 1703.19 174.327 1704.22 172.708 1705.48L170.888 1706.83L170.141 1704.74L168.047 1699.32C164.074 1697.67 157.777 1696.87 149.155 1696.91C151.95 1699.45 154.698 1702.65 157.4 1706.5C160.101 1710.36 162.526 1714.28 164.674 1718.27C165.819 1718.21 167.436 1717.96 169.524 1717.52L172.92 1716.82L171.353 1719.91L168.779 1724.97C170.84 1726.62 173.089 1727.71 175.526 1728.22C177.991 1728.69 181.009 1728.5 184.578 1727.65L184.98 1729.31ZM189.103 1737.95L189.304 1736.94C190.054 1737.1 190.821 1736.95 191.606 1736.48C192.432 1736.05 193.397 1735.18 194.501 1733.86C195.554 1732.66 196.76 1731.93 198.119 1731.65C199.485 1731.41 200.652 1731.59 201.622 1732.17C202.634 1732.79 203.235 1733.64 203.426 1734.72L202.376 1734.91L201.378 1735.09C201.341 1734.88 201.21 1734.65 200.986 1734.4C200.802 1734.18 200.517 1733.99 200.13 1733.84C199.784 1733.72 199.392 1733.65 198.953 1733.62C198.555 1733.62 198.092 1733.75 197.563 1734.03C197.068 1734.29 196.581 1734.7 196.101 1735.26C194.805 1736.71 193.614 1737.74 192.526 1738.33C191.48 1738.94 190.272 1739.16 188.902 1738.96L189.103 1737.95Z" fill="#E41B23"/>
<rect width="64" height="64" transform="translate(187.889 365) rotate(20)" fill="#F7F7F6"/>
<path d="M225.793 411.658C220.825 413.974 216.162 416.079 211.802 417.974C207.455 419.834 204.884 420.866 204.092 421.07C203.581 421.225 202.609 420.776 201.176 419.725C199.776 418.685 197.378 416.696 193.983 413.758C193.785 413.573 193.582 413.404 193.372 413.252L185.314 406.233C185.226 406.163 185.144 406.076 185.068 405.973C185.037 405.848 185.024 405.73 185.027 405.617C185.03 405.505 185.056 405.382 185.104 405.248C185.153 405.115 185.229 405.01 185.332 404.934C186.827 403.738 187.207 402.173 186.473 400.241C185.802 400.11 185.34 400.131 185.088 400.304C184.431 401.692 184.086 403.213 184.052 404.865C184.052 406.53 184.417 407.76 185.149 408.556C186.206 409.811 189.243 412.695 194.26 417.207C196.686 419.377 198.703 421.114 200.309 422.417C201.19 423.116 201.907 423.642 202.459 423.995C202.702 424.159 202.901 424.288 203.056 424.382C203.6 424.239 205.21 423.558 207.887 422.338C210.609 421.096 213.538 419.703 216.673 418.157C220.128 416.463 223.037 414.968 225.4 413.672C226.005 413.362 226.541 413.084 227.009 412.838L225.875 411.744C225.841 411.732 225.814 411.703 225.793 411.658ZM225.433 409.994L227.645 403.137L206.067 412.367C205.657 412.559 205.299 412.504 204.992 412.203C204.837 412.109 204.644 411.963 204.413 411.765C203.918 411.358 203.407 410.945 202.878 410.525C201.15 409.14 199.442 407.856 197.753 406.674C196.684 405.868 195.647 405.131 194.642 404.463C192.233 402.867 190.145 401.691 188.377 400.934C188.744 402.733 188.314 404.279 187.086 405.572L194.503 412.018C194.679 412.157 194.866 412.32 195.063 412.505C197.623 414.724 199.624 416.398 201.067 417.528C201.948 418.227 202.648 418.747 203.167 419.087C203.444 419.264 203.649 419.376 203.782 419.425L203.832 419.443C204.446 419.212 205.822 418.654 207.961 417.767C210.145 416.86 212.814 415.712 215.968 414.325C219.134 412.904 222.289 411.461 225.433 409.994ZM229.824 399.958C220.5 394.18 215.156 391.138 213.792 390.831C213.434 390.776 211.868 391.076 209.094 391.731C206.694 392.296 203.562 393.104 199.698 394.157C196.955 394.937 193.973 395.801 190.753 396.747C189.777 397.036 188.819 397.33 187.877 397.631C187.582 397.712 187.311 397.784 187.061 397.844L186.993 397.876C186.844 397.973 186.712 398.077 186.597 398.186C188.635 398.512 191.698 400.024 195.786 402.723C196.825 403.403 197.895 404.152 198.998 404.97C200.674 406.185 202.393 407.492 204.154 408.89C204.716 409.322 205.245 409.741 205.74 410.148C205.773 410.16 205.8 410.189 205.822 410.235L229.824 399.958ZM231.114 413.878C230.996 414.1 230.827 414.304 230.608 414.489C230.402 414.641 230.127 414.824 229.783 415.04C229.142 415.45 228.211 415.981 226.99 416.634C224.593 417.918 221.644 419.418 218.144 421.133C209.181 425.59 204.071 427.779 202.814 427.699C202.094 427.702 200.891 427.056 199.206 425.762C197.541 424.513 195.145 422.467 192.017 419.626C186.912 415.044 183.787 412.09 182.642 410.766C181.932 410.015 181.413 409.05 181.085 407.872C180.79 406.705 180.683 405.493 180.762 404.235C180.854 402.944 181.085 401.685 181.456 400.458C181.827 399.231 182.364 398.121 183.066 397.128C183.813 396.113 184.632 395.371 185.522 394.9C185.625 394.825 185.723 394.765 185.814 394.723L185.864 394.741L185.932 394.709L186.119 394.664C186.38 394.57 186.658 394.482 186.953 394.4C187.883 394.133 188.835 393.855 189.81 393.567C193.031 392.62 196.029 391.763 198.806 390.995C207.907 388.443 213.13 387.298 214.472 387.559C216.395 387.994 222.963 391.728 234.176 398.761C234.741 399.08 234.998 399.57 234.946 400.233C234.939 400.873 234.64 401.332 234.048 401.608L231.172 403.116L228.924 410.073L230.668 411.673C230.878 411.825 231.046 412.037 231.174 412.311C231.314 412.551 231.368 412.817 231.338 413.108C231.353 413.379 231.278 413.635 231.114 413.878ZM228.854 414.475L228.904 414.493C229.026 414.575 229.159 414.624 229.305 414.639C229.159 414.624 229.009 414.569 228.854 414.475Z" fill="#E41B23"/>
<rect width="64" height="64" transform="translate(151.889 988) rotate(20)" fill="#F7F7F6"/>
<path d="M148.441 1023.96C151.808 1022.62 155.495 1022.88 159.505 1024.76C162.247 1026.06 164.122 1028.23 165.13 1031.29C166.85 1030.51 168.602 1030.58 170.388 1031.5C170.887 1029.71 171.758 1028.1 173.001 1026.66C173.964 1025.57 175.141 1024.68 176.533 1023.97C177.958 1023.28 179.454 1022.86 181.021 1022.71C182.634 1022.54 184.178 1022.67 185.651 1023.09C187.437 1023.59 189.013 1024.35 190.38 1025.38C189.815 1023.4 189.126 1021.44 188.313 1019.52C187.511 1017.56 186.696 1015.9 185.867 1014.54C185.072 1013.19 184.37 1012.32 183.763 1011.9C182.77 1011.2 181.916 1010.95 181.202 1011.14C180.489 1011.34 180.027 1011.98 179.817 1013.08C179.759 1013.55 179.529 1013.92 179.128 1014.19C178.773 1014.44 178.36 1014.54 177.889 1014.48C177.43 1014.39 177.06 1014.16 176.777 1013.79C176.54 1013.4 176.468 1012.98 176.559 1012.52C176.997 1010.07 178.135 1008.55 179.973 1007.97C181.844 1007.4 183.763 1007.8 185.728 1009.16C187.504 1010.41 189.432 1013.53 191.512 1018.53C193.603 1023.49 194.764 1027.94 194.994 1031.88C195.021 1032.12 194.992 1032.36 194.907 1032.59C195.089 1033.75 195.101 1034.97 194.942 1036.24C194.333 1041.24 192.411 1044.7 189.175 1046.62C187.106 1047.84 184.685 1048.36 181.911 1048.18C179.418 1048.07 177.029 1047.2 174.745 1045.57C172.494 1043.96 171.079 1042.02 170.5 1039.77C170.157 1038.32 169.964 1036.93 169.922 1035.59C169.889 1035.57 169.845 1035.54 169.79 1035.48C168.363 1034.2 167.016 1034.11 165.749 1035.2C165.802 1039.42 164.235 1043.05 161.048 1046.09C159.58 1047.52 157.667 1048.36 155.31 1048.6C152.974 1048.88 150.684 1048.52 148.439 1047.52C145.994 1046.44 144.093 1044.8 142.736 1042.6C141.412 1040.42 140.851 1037.91 141.052 1035.07C141.192 1033.23 141.615 1031.54 142.32 1030.02C144.348 1024.56 146.635 1019.68 149.182 1015.38C151.729 1011.09 153.849 1008.43 155.541 1007.42C156.273 1006.97 157.074 1006.69 157.942 1006.59C158.811 1006.49 159.613 1006.58 160.348 1006.84C161.129 1007.09 161.805 1007.47 162.376 1007.98C162.992 1008.47 163.429 1009.14 163.687 1009.99C163.945 1010.84 163.988 1011.76 163.814 1012.76C163.775 1012.97 163.685 1013.17 163.545 1013.34C163.439 1013.53 163.288 1013.68 163.094 1013.8C162.933 1013.93 162.744 1014.04 162.529 1014.11C162.325 1014.15 162.117 1014.15 161.904 1014.11C161.592 1014.03 161.32 1013.9 161.089 1013.7C160.892 1013.51 160.729 1013.28 160.602 1013.01C160.52 1012.72 160.511 1012.43 160.575 1012.15C160.724 1011.22 160.399 1010.55 159.6 1010.15C158.847 1009.72 158.075 1009.76 157.285 1010.27C156.325 1010.83 155.006 1012.37 153.329 1014.9C151.685 1017.45 150.056 1020.47 148.441 1023.96ZM162.031 1034.19C161.843 1032.83 161.398 1031.61 160.697 1030.53C159.995 1029.44 159.078 1028.63 157.945 1028.1C156.181 1027.24 154.483 1026.81 152.851 1026.82C151.266 1026.81 149.906 1027.17 148.773 1027.89C147.673 1028.62 146.74 1029.63 145.974 1030.9C145.221 1032.14 144.798 1033.61 144.706 1035.32C144.572 1037.35 144.962 1039.14 145.876 1040.68C146.823 1042.24 148.174 1043.41 149.93 1044.2C150.975 1044.66 152.047 1044.93 153.147 1045.03C154.246 1045.13 155.267 1045.03 156.209 1044.73C157.138 1044.46 157.915 1044.04 158.538 1043.47C160.999 1041.08 162.183 1038.29 162.09 1035.12C161.974 1034.81 161.955 1034.5 162.031 1034.19ZM184.643 1026.64C183.103 1026.19 181.471 1026.21 179.749 1026.68C178.06 1027.16 176.727 1027.96 175.752 1029.08C173.604 1031.55 173.042 1034.81 174.068 1038.85C174.444 1040.32 175.432 1041.6 177.033 1042.71C178.667 1043.84 180.36 1044.44 182.113 1044.51C184.179 1044.65 185.892 1044.31 187.253 1043.48C189.471 1042.17 190.818 1039.62 191.293 1035.82C191.57 1033.49 191.089 1031.54 189.85 1029.96C188.644 1028.38 186.909 1027.28 184.643 1026.64Z" fill="#E41B23"/>
<rect width="64" height="64" transform="translate(1407 3073.56) rotate(-15)" fill="#F7F7F6"/>
<path d="M1425.3 3107.56C1426.83 3106.56 1428.55 3106.28 1430.43 3106.73C1430.38 3106.27 1430.39 3105.81 1430.45 3105.35C1430.51 3104.89 1430.62 3104.48 1430.78 3104.1C1430.93 3103.7 1431.12 3103.31 1431.35 3102.95C1431.59 3102.6 1431.87 3102.28 1432.2 3102.01C1432.56 3101.69 1432.95 3101.44 1433.38 3101.25C1434.9 3100.48 1436.47 3100.42 1438.09 3101.09C1439.69 3101.73 1440.97 3102.97 1441.9 3104.82C1443.34 3107.71 1444.09 3110.77 1444.14 3113.99C1444.19 3117.22 1443.6 3120.21 1442.35 3122.98C1442.11 3123.45 1441.73 3123.7 1441.22 3123.72C1438.52 3123.78 1435.38 3123.08 1431.82 3121.6C1428.27 3120.16 1425.9 3118.53 1424.71 3116.72C1423.47 3114.8 1422.9 3113.04 1423.02 3111.43C1423.17 3109.77 1423.93 3108.48 1425.3 3107.56ZM1426.77 3115.33C1427.69 3116.67 1429.59 3117.95 1432.49 3119.16C1435.4 3120.4 1438.03 3121.08 1440.38 3121.19C1441.33 3118.83 1441.74 3116.31 1441.61 3113.62C1441.51 3110.93 1440.87 3108.37 1439.67 3105.97C1439.04 3104.71 1438.24 3103.87 1437.29 3103.46C1436.32 3103.02 1435.39 3103.03 1434.48 3103.5C1433.63 3103.91 1433.12 3104.6 1432.94 3105.57C1432.78 3106.49 1433.05 3107.51 1433.75 3108.61C1433.97 3109.03 1433.99 3109.43 1433.8 3109.81C1433.64 3110.18 1433.35 3110.42 1432.94 3110.54C1432.52 3110.61 1432.14 3110.49 1431.8 3110.18C1431.11 3109.55 1430.28 3109.19 1429.3 3109.08C1428.31 3108.98 1427.44 3109.16 1426.68 3109.62C1425.9 3110.16 1425.51 3110.91 1425.51 3111.86C1425.5 3112.79 1425.92 3113.94 1426.77 3115.33ZM1440.79 3070.17C1442.47 3069.98 1444.11 3070.22 1445.73 3070.89C1447.35 3071.56 1448.74 3072.57 1449.91 3073.91C1450.88 3071.92 1452.2 3070.39 1453.87 3069.31C1455.56 3068.23 1457.39 3067.76 1459.34 3067.9C1462.01 3068.11 1464.21 3069.38 1465.94 3071.71C1467.66 3074.01 1468.65 3077.08 1468.9 3080.91C1469.18 3085.25 1468.42 3089.34 1466.61 3093.18C1464.84 3097 1461.47 3101.73 1456.5 3107.37C1456.21 3107.67 1455.87 3107.85 1455.49 3107.92C1455.1 3107.98 1454.73 3107.92 1454.38 3107.72C1447.86 3103.98 1442.86 3100.35 1439.37 3096.83C1435.88 3093.27 1433.73 3089.45 1432.93 3085.36C1432.12 3081.09 1432.45 3077.58 1433.92 3074.83C1435.38 3072.04 1437.67 3070.49 1440.79 3070.17ZM1459.13 3071.22C1457.54 3071.09 1456.1 3071.61 1454.79 3072.77C1453.48 3073.93 1452.6 3075.51 1452.14 3077.51C1452.51 3078.48 1452.78 3079.47 1452.94 3080.5C1453.03 3080.95 1452.94 3081.36 1452.67 3081.73C1452.4 3082.1 1452.03 3082.32 1451.58 3082.41C1451.26 3082.46 1450.96 3082.43 1450.67 3082.32C1450.42 3082.2 1450.19 3082.04 1449.99 3081.84C1449.81 3081.59 1449.7 3081.31 1449.65 3080.99C1449.28 3078.62 1448.25 3076.73 1446.58 3075.3C1444.94 3073.86 1443.12 3073.24 1441.12 3073.45C1439.08 3073.66 1437.58 3074.76 1436.64 3076.75C1435.7 3078.73 1435.55 3081.38 1436.18 3084.71C1436.87 3088.1 1438.73 3091.35 1441.78 3094.47C1444.83 3097.6 1449.19 3100.83 1454.87 3104.16C1459.2 3099.17 1462.12 3095.02 1463.62 3091.71C1465.16 3088.39 1465.82 3084.87 1465.59 3081.14C1465.37 3078.1 1464.66 3075.74 1463.47 3074.03C1462.3 3072.28 1460.85 3071.34 1459.13 3071.22ZM1422.04 3085.08C1422.99 3085.19 1423.84 3085.62 1424.59 3086.38C1425.51 3085.25 1426.71 3084.86 1428.2 3085.19C1429.32 3085.41 1430.18 3086.01 1430.77 3086.99C1431.4 3087.96 1431.62 3089.12 1431.43 3090.46C1431.17 3091.85 1430.65 3093.04 1429.84 3094.03C1429.04 3095.02 1427.88 3095.95 1426.35 3096.84C1426.03 3097.04 1425.49 3097.35 1424.72 3097.78C1424.56 3097.86 1424.41 3097.93 1424.28 3098C1423.89 3098.18 1423.53 3098.15 1423.21 3097.9C1421.75 3096.86 1420.51 3095.52 1419.48 3093.88C1418.49 3092.23 1418.02 3090.76 1418.07 3089.45C1418.16 3087.99 1418.56 3086.87 1419.27 3086.09C1419.98 3085.31 1420.9 3084.98 1422.04 3085.08ZM1420.14 3089.56C1420.12 3090.41 1420.47 3091.46 1421.21 3092.7C1421.97 3093.89 1422.87 3094.94 1423.92 3095.83C1424.56 3095.48 1425.03 3095.21 1425.31 3095.02C1426.55 3094.32 1427.5 3093.59 1428.14 3092.83C1428.78 3092.07 1429.19 3091.17 1429.35 3090.13C1429.47 3089.32 1429.37 3088.67 1429.05 3088.17C1428.76 3087.65 1428.33 3087.33 1427.74 3087.19C1427.39 3087.14 1427.07 3087.17 1426.77 3087.29C1426.49 3087.36 1426.27 3087.55 1426.09 3087.86C1425.92 3088.16 1425.8 3088.54 1425.74 3089C1425.72 3089.63 1425.39 3089.96 1424.73 3089.99C1424.1 3089.97 1423.75 3089.64 1423.69 3089C1423.65 3088.56 1423.44 3088.18 1423.05 3087.84C1422.69 3087.46 1422.28 3087.24 1421.82 3087.18C1420.81 3087.08 1420.25 3087.88 1420.14 3089.56Z" fill="#E41B23"/>
<rect width="64" height="64" transform="translate(1513 3491.93) rotate(-8.02244)" fill="#F7F7F6"/>
<path d="M1557.53 3532.08C1557.52 3532.01 1557.51 3531.94 1557.5 3531.87C1557.33 3530.68 1557.29 3529.6 1557.37 3528.66C1557.48 3527.67 1557.69 3526.76 1558.01 3525.93C1558.32 3525.1 1558.77 3524.17 1559.34 3523.16C1559.4 3523.08 1559.49 3522.94 1559.6 3522.74C1559.72 3522.55 1559.79 3522.41 1559.82 3522.34C1560.72 3520.88 1561.33 3519.57 1561.63 3518.42C1561.94 3517.26 1562.04 3515.79 1561.93 3514.01C1561.65 3510.75 1560.31 3508.26 1557.92 3506.55C1555.52 3504.81 1552.6 3504.12 1549.17 3504.5C1545.78 3504.87 1543.09 3506.17 1541.1 3508.38C1539.11 3510.6 1538.33 3513.32 1538.75 3516.53C1539 3518.32 1539.37 3519.67 1539.86 3520.57C1540.34 3521.44 1541.19 3522.38 1542.41 3523.39L1542.47 3523.43C1544.01 3524.69 1545.14 3525.97 1545.86 3527.26C1546.58 3528.56 1547.11 3530.36 1547.43 3532.65C1547.45 3532.79 1547.45 3532.91 1547.43 3533.02C1547.42 3533.2 1547.42 3533.33 1547.43 3533.4C1548.4 3533.91 1549.96 3534.03 1552.11 3533.76C1551.49 3526.02 1549.48 3521.89 1546.11 3521.36C1545.96 3521.34 1545.83 3521.31 1545.71 3521.25C1545.59 3521.16 1545.49 3521.07 1545.41 3520.97C1545.35 3520.84 1545.3 3520.7 1545.24 3520.57C1545.22 3520.43 1545.22 3520.28 1545.23 3520.14C1545.3 3519.87 1545.45 3519.66 1545.68 3519.48C1545.91 3519.31 1546.17 3519.25 1546.46 3519.32C1548.08 3519.56 1549.44 3520.33 1550.56 3521.65C1551.28 3519.57 1552.48 3518.15 1554.16 3517.37C1554.43 3517.26 1554.7 3517.26 1554.97 3517.36C1555.23 3517.43 1555.42 3517.61 1555.53 3517.88C1555.67 3518.14 1555.69 3518.41 1555.58 3518.68C1555.48 3518.94 1555.29 3519.13 1555.02 3519.24C1554.28 3519.6 1553.63 3520.23 1553.08 3521.13C1552.55 3522 1552.24 3522.95 1552.14 3524.01C1552.15 3524.08 1552.14 3524.14 1552.11 3524.18C1553.15 3526.47 1553.83 3529.54 1554.15 3533.37C1555.2 3533.11 1556.1 3532.81 1556.88 3532.44C1557.12 3532.34 1557.33 3532.22 1557.53 3532.08ZM1556.47 3535.3C1555.45 3535.66 1554.28 3535.93 1552.98 3536.12C1551.72 3536.33 1550.56 3536.42 1549.52 3536.39C1549.57 3537.28 1549.74 3538.21 1550.02 3539.17C1550.16 3539.66 1550.32 3540.07 1550.51 3540.4C1550.52 3540.43 1550.52 3540.47 1550.53 3540.5C1551.21 3540.77 1552.17 3540.83 1553.41 3540.69C1554.65 3540.55 1555.68 3540.21 1556.5 3539.66C1556.68 3539.42 1556.75 3538.8 1556.72 3537.8C1556.68 3537.3 1556.64 3536.73 1556.59 3536.09C1556.56 3535.92 1556.53 3535.71 1556.5 3535.46L1556.47 3535.3ZM1568.07 3496.45C1566.13 3497.98 1564.62 3499.45 1563.52 3500.86C1563.43 3500.98 1563.32 3501.09 1563.19 3501.18C1563.09 3501.23 1562.97 3501.26 1562.83 3501.28C1562.72 3501.26 1562.59 3501.24 1562.44 3501.23C1562.29 3501.18 1562.18 3501.12 1562.1 3501.06C1561.94 3500.94 1561.81 3500.8 1561.71 3500.63C1561.65 3500.46 1561.63 3500.28 1561.64 3500.1C1561.68 3499.92 1561.77 3499.74 1561.89 3499.58C1563.07 3498.05 1564.72 3496.46 1566.82 3494.8C1566.91 3494.71 1567.03 3494.66 1567.17 3494.64C1567.31 3494.58 1567.43 3494.57 1567.54 3494.59C1567.69 3494.6 1567.82 3494.65 1567.94 3494.75C1568.05 3494.8 1568.16 3494.88 1568.24 3494.97C1568.45 3495.19 1568.52 3495.45 1568.46 3495.75C1568.43 3496.04 1568.3 3496.27 1568.07 3496.45ZM1526.19 3523.74C1527.43 3522.88 1528.54 3522.08 1529.51 3521.33C1529.74 3521.15 1529.98 3521.1 1530.24 3521.17C1530.54 3521.2 1530.77 3521.33 1530.95 3521.56C1531.12 3521.78 1531.18 3522.05 1531.11 3522.34C1531.08 3522.63 1530.95 3522.85 1530.72 3522.99C1529.74 3523.74 1528.62 3524.56 1527.35 3525.46C1527.12 3525.63 1526.86 3525.71 1526.57 3525.67C1526.31 3525.6 1526.09 3525.46 1525.92 3525.23C1525.74 3525 1525.67 3524.74 1525.7 3524.45C1525.76 3524.15 1525.93 3523.92 1526.19 3523.74ZM1568.47 3517.62C1569.72 3517.58 1571.21 3518.11 1572.95 3519.19C1573.18 3519.34 1573.32 3519.57 1573.37 3519.89C1573.44 3520.16 1573.41 3520.42 1573.26 3520.66C1573.11 3520.89 1572.89 3521.05 1572.57 3521.13C1572.29 3521.17 1572.03 3521.12 1571.8 3520.97C1570.46 3520.12 1569.36 3519.7 1568.5 3519.71C1568.21 3519.72 1567.96 3519.63 1567.76 3519.44C1567.55 3519.25 1567.45 3519.02 1567.44 3518.73C1567.43 3518.41 1567.52 3518.14 1567.71 3517.94C1567.93 3517.73 1568.18 3517.62 1568.47 3517.62ZM1525.79 3504.83C1525.6 3504.79 1525.43 3504.72 1525.28 3504.64C1525.11 3504.52 1525 3504.37 1524.94 3504.2C1524.88 3504.03 1524.86 3503.85 1524.87 3503.67C1524.88 3503.49 1524.93 3503.32 1525.01 3503.17C1525.14 3503 1525.28 3502.89 1525.45 3502.83C1525.62 3502.77 1525.82 3502.75 1526.03 3502.75C1528.66 3503.03 1530.95 3503.76 1532.92 3504.96C1533.19 3505.1 1533.36 3505.31 1533.43 3505.59C1533.51 3505.86 1533.47 3506.12 1533.33 3506.36C1533.21 3506.52 1533.06 3506.64 1532.9 3506.74C1532.77 3506.83 1532.59 3506.87 1532.38 3506.87C1532.2 3506.86 1532.03 3506.81 1531.87 3506.72C1530.15 3505.71 1528.12 3505.08 1525.79 3504.83ZM1562.51 3525.03C1561.82 3526.2 1561.37 3527.23 1561.17 3528.12C1560.97 3528.98 1560.96 3530.07 1561.15 3531.41C1561.35 3532.86 1561.01 3534.12 1560.12 3535.22C1560.14 3535.36 1560.16 3535.5 1560.18 3535.64C1560.29 3536.42 1560.35 3537.09 1560.36 3537.66C1560.44 3539.99 1559.93 3541.6 1558.84 3542.51L1558.74 3542.58C1557.27 3543.61 1555.47 3544.21 1553.33 3544.36C1551.24 3544.55 1549.58 3544.24 1548.36 3543.45C1547.77 3543.1 1547.24 3542.26 1546.76 3540.93C1546.29 3539.63 1545.99 3538.27 1545.87 3536.85C1544.39 3536.05 1543.69 3534.77 1543.76 3533C1543.59 3531.77 1543.36 3530.78 1543.07 3530.03C1542.78 3529.24 1542.42 3528.59 1541.99 3528.08C1541.55 3527.53 1540.93 3526.92 1540.12 3526.24L1540.06 3526.2C1538.51 3524.91 1537.38 3523.63 1536.66 3522.37C1535.98 3521.1 1535.48 3519.32 1535.16 3517.03C1534.59 3512.73 1535.6 3509.09 1538.19 3506.1C1540.82 3503.11 1544.35 3501.36 1548.76 3500.84C1553.18 3500.36 1557 3501.3 1560.2 3503.65C1563.4 3506 1565.21 3509.37 1565.61 3513.76C1565.71 3515.98 1565.56 3517.85 1565.16 3519.37C1564.76 3520.87 1564.04 3522.49 1563 3524.26C1562.93 3524.3 1562.84 3524.44 1562.73 3524.67C1562.65 3524.83 1562.57 3524.95 1562.51 3525.03ZM1548.2 3493.38C1548.5 3495.28 1548.69 3496.67 1548.78 3497.55C1548.82 3497.83 1548.75 3498.1 1548.57 3498.34C1548.38 3498.54 1548.15 3498.67 1547.87 3498.71C1547.59 3498.74 1547.33 3498.67 1547.08 3498.49C1546.88 3498.31 1546.76 3498.07 1546.72 3497.79C1546.63 3496.91 1546.44 3495.55 1546.14 3493.72C1546.1 3493.44 1546.16 3493.2 1546.31 3493C1546.49 3492.76 1546.72 3492.6 1547 3492.53C1547.17 3492.5 1547.36 3492.53 1547.55 3492.61C1547.73 3492.66 1547.87 3492.76 1547.97 3492.93C1548.1 3493.05 1548.17 3493.2 1548.2 3493.38Z" fill="#E41B23"/>
</svg>
