<svg width="21" height="20" viewBox="0 0 21 20" fill="none" xmlns="http://www.w3.org/2000/svg">
<path d="M8.0694 2.54912C8.68155 2.64152 9.2416 2.8857 9.74955 3.28167C10.2575 3.67765 10.6548 4.17262 10.9413 4.76658C11.4753 4.14622 12.0874 3.72385 12.7777 3.49946C13.4811 3.27508 14.1714 3.28167 14.8486 3.51926C15.7734 3.84924 16.4311 4.5158 16.8218 5.51893C17.2126 6.50887 17.2712 7.70339 16.9977 9.10251C16.6851 10.6864 16.0273 12.0789 15.0245 13.28C14.0346 14.4812 12.3935 15.8539 10.1012 17.3982C9.97097 17.4774 9.83421 17.5104 9.69095 17.4972C9.54768 17.484 9.42394 17.4246 9.31975 17.319C7.36609 15.3523 5.93991 13.5704 5.04122 11.9733C4.14254 10.363 3.74529 8.78573 3.84949 7.24142C3.96671 5.63113 4.41605 4.4036 5.19752 3.55886C5.97898 2.70091 6.93628 2.36433 8.0694 2.54912ZM14.4579 4.68739C13.9109 4.4894 13.3508 4.5356 12.7777 4.82598C12.2047 5.11636 11.7423 5.59813 11.3906 6.27128C11.4297 6.65406 11.4297 7.03684 11.3906 7.41961C11.3776 7.5912 11.306 7.72979 11.1757 7.83538C11.0455 7.94098 10.8957 7.98718 10.7264 7.97398C10.6092 7.96078 10.505 7.92118 10.4138 7.85519C10.3357 7.78919 10.2705 7.70999 10.2184 7.6176C10.1794 7.51201 10.1663 7.39981 10.1794 7.28102C10.2705 6.39668 10.0882 5.61793 9.63234 4.94477C9.18951 4.27161 8.60341 3.87564 7.87404 3.75685C7.13165 3.63805 6.49996 3.88884 5.97898 4.5092C5.45801 5.12956 5.15193 6.0667 5.06076 7.32062C4.98262 8.60094 5.33427 9.94725 6.11574 11.3596C6.89721 12.7719 8.13453 14.3492 9.8277 16.0915C11.8335 14.7187 13.2596 13.511 14.1062 12.4683C14.9658 11.4256 15.5324 10.2244 15.8059 8.86492C16.0143 7.75619 15.9883 6.83885 15.7278 6.11289C15.4803 5.37374 15.057 4.89857 14.4579 4.68739Z" fill="#E41B23"/>
</svg>
