<svg width="21" height="20" viewBox="0 0 21 20" fill="none" xmlns="http://www.w3.org/2000/svg">
<path d="M12.1508 7.6665C12.1953 6.78873 12.2508 6.14428 12.3175 5.73317C12.3508 5.49984 12.3841 5.28317 12.4175 5.08317C12.4508 4.92761 12.5341 4.8165 12.6675 4.74984C12.8008 4.67206 12.9397 4.65539 13.0841 4.69984C13.3619 4.77762 13.7286 5.08317 14.1841 5.6165C14.6397 6.13873 15.2675 6.96095 16.0675 8.08317C16.1675 8.2165 16.2675 8.36095 16.3675 8.5165C16.3897 8.54984 16.5897 8.83873 16.9675 9.38317C17.3453 9.92762 17.7119 10.4554 18.0675 10.9665C18.4341 11.4776 18.6564 11.7832 18.7341 11.8832C18.823 12.0054 18.8508 12.1443 18.8175 12.2998C18.7952 12.4554 18.7175 12.5721 18.5841 12.6498C17.8952 13.0832 16.9619 13.8554 15.7841 14.9665C14.6064 16.0665 13.5841 17.1276 12.7175 18.1498C12.5619 18.3387 12.3675 18.3887 12.1341 18.2998C11.9119 18.2221 11.8008 18.0609 11.8008 17.8165V14.5498C10.0897 14.7721 8.55636 14.8776 7.20081 14.8665C5.85636 14.8443 4.86192 14.6998 4.21747 14.4332C3.4508 14.1221 2.92858 12.8721 2.6508 10.6832C2.37303 8.49428 2.33969 5.64984 2.5508 2.14984C2.56192 2.0165 2.61747 1.90539 2.71747 1.8165C2.81747 1.7165 2.93969 1.6665 3.08414 1.6665H9.61747C9.78414 1.6665 9.91747 1.72761 10.0175 1.84984C10.1286 1.97206 10.1675 2.1165 10.1341 2.28317C9.73414 4.52761 9.48414 6.22761 9.38414 7.38317C9.33969 7.9165 9.32858 8.3165 9.35081 8.58317H12.0675C12.0897 8.4165 12.1175 8.11095 12.1508 7.6665ZM13.1841 7.73317C13.1508 8.24428 13.1175 8.59984 13.0841 8.79984C12.973 9.34428 12.7175 9.6165 12.3175 9.6165H9.01747C8.85081 9.6165 8.71747 9.57761 8.61747 9.49984C8.51747 9.42206 8.44525 9.32206 8.40081 9.19984C8.35636 9.0665 8.32303 8.89984 8.30081 8.69984C8.27858 8.37761 8.29525 7.91095 8.35081 7.29984C8.43969 6.22206 8.65636 4.68873 9.00081 2.69984H3.56747C3.41192 5.62206 3.43414 8.10539 3.63414 10.1498C3.84525 12.1832 4.16747 13.2887 4.60081 13.4665C5.16747 13.7109 6.14525 13.8332 7.53414 13.8332C8.93414 13.8221 10.5064 13.6887 12.2508 13.4332C12.4064 13.4109 12.5453 13.4554 12.6675 13.5665C12.7897 13.6665 12.8508 13.7943 12.8508 13.9498V16.4332C13.6286 15.5887 14.4508 14.7665 15.3175 13.9665C16.1841 13.1665 16.9397 12.5387 17.5841 12.0832C17.3953 11.8165 17.1397 11.4554 16.8175 10.9998C16.4953 10.5332 16.2008 10.1109 15.9341 9.73317C15.6786 9.35539 15.5397 9.14984 15.5175 9.1165C15.4064 8.96095 15.3064 8.8165 15.2175 8.68317C14.4175 7.56095 13.7786 6.72761 13.3008 6.18317C13.2675 6.44984 13.2286 6.9665 13.1841 7.73317Z" fill="white"/>
</svg>
