<svg width="11" height="10" viewBox="0 0 11 10" fill="none" xmlns="http://www.w3.org/2000/svg">
<path d="M4.072 8.32C4.08267 8.33067 4.088 8.336 4.088 8.336C4.14133 8.28267 4.20533 8.21867 4.28 8.144C4.54667 7.824 4.90933 7.33867 5.368 6.688C6.28533 5.344 7.55467 3.33333 9.176 0.655999C9.22933 0.559999 9.304 0.485332 9.4 0.431999C9.50667 0.378666 9.61333 0.357333 9.72 0.367999C9.82667 0.367999 9.928 0.399999 10.024 0.464C10.1307 0.517333 10.2053 0.592 10.248 0.688C10.3013 0.784 10.328 0.890666 10.328 1.008C10.328 1.11467 10.3013 1.216 10.248 1.312C8.34933 4.43733 6.95733 6.61333 6.072 7.84C5.19733 9.06667 4.55733 9.68 4.152 9.68C3.768 9.68 3.27733 9.36 2.68 8.72C2.08267 8.06933 1.256 6.98133 0.2 5.456C0.0933335 5.31733 0.0560002 5.16267 0.0880001 4.992C0.12 4.82133 0.205333 4.688 0.344 4.592C0.493333 4.496 0.648 4.464 0.808 4.496C0.978667 4.51733 1.11733 4.60267 1.224 4.752C2.13067 6.04267 2.86133 7.01333 3.416 7.664C3.68267 7.96267 3.90133 8.18133 4.072 8.32Z" fill="#E41B23"/>
</svg>
