<svg width="48" height="49" viewBox="0 0 48 49" fill="none" xmlns="http://www.w3.org/2000/svg">
<path fill-rule="evenodd" clip-rule="evenodd" d="M22.88 40.38C27.76 40.38 31.72 38.9533 34.76 36.1C37.8267 33.22 39.36 29.4333 39.36 24.74C39.36 19.94 38.0267 16.22 35.36 13.58C32.6933 10.94 28.9867 9.62 24.24 9.62C21.3333 9.62 18.72 10.2867 16.4 11.62C14.1067 12.9267 12.32 14.7267 11.04 17.02C9.76 19.3133 9.12 21.8867 9.12 24.74C9.12 29.38 10.36 33.1533 12.84 36.06C15.3467 38.94 18.6933 40.38 22.88 40.38ZM23.72 25.38C23.5067 25.38 23.2533 25.3667 22.96 25.34C21.36 25.18 18.9467 24.66 15.72 23.78C15.2933 23.6467 14.8933 23.6867 14.52 23.9C14.1467 24.1133 13.8933 24.4333 13.76 24.86C13.6533 25.26 13.7067 25.66 13.92 26.06C14.1333 26.4333 14.4533 26.6733 14.88 26.78C18.2933 27.7133 20.88 28.26 22.64 28.42C24.0267 28.5533 25.0667 28.46 25.76 28.14C26.48 27.82 26.84 27.18 26.84 26.22V16.78C26.84 16.5667 26.8 16.3667 26.72 16.18C26.64 15.9933 26.5333 15.8333 26.4 15.7C26.2667 15.54 26.0933 15.42 25.88 15.34C25.6933 15.26 25.4933 15.22 25.28 15.22C25.0133 15.22 24.76 15.3 24.52 15.46C24.28 15.5933 24.08 15.78 23.92 16.02C23.7867 16.26 23.72 16.5133 23.72 16.78V25.38Z" fill="white"/>
<path fill-rule="evenodd" clip-rule="evenodd" d="M13.92 41.06C16.5067 42.6867 19.4933 43.5 22.88 43.5C26.64 43.5 30 42.7267 32.96 41.18C35.92 39.6333 38.24 37.4333 39.92 34.58C41.6267 31.7267 42.48 28.4467 42.48 24.74C42.48 19.06 40.84 14.6067 37.56 11.38C34.28 8.12667 29.84 6.5 24.24 6.5C20.7733 6.5 17.64 7.3 14.84 8.9C12.0667 10.5 9.89333 12.6867 8.32 15.46C6.77333 18.2333 6 21.3267 6 24.74C6 28.3133 6.68 31.5267 8.04 34.38C9.4 37.2067 11.36 39.4333 13.92 41.06ZM34.76 36.1C31.72 38.9533 27.76 40.38 22.88 40.38C18.6933 40.38 15.3467 38.94 12.84 36.06C10.36 33.1533 9.12 29.38 9.12 24.74C9.12 21.8867 9.76 19.3133 11.04 17.02C12.32 14.7267 14.1067 12.9267 16.4 11.62C18.72 10.2867 21.3333 9.62 24.24 9.62C28.9867 9.62 32.6933 10.94 35.36 13.58C38.0267 16.22 39.36 19.94 39.36 24.74C39.36 29.4333 37.8267 33.22 34.76 36.1Z" fill="white"/>
</svg>
