<svg width="53" height="51" viewBox="0 0 53 51" fill="none" xmlns="http://www.w3.org/2000/svg">
<path d="M26.7837 50.5588C22.8772 50.6883 19.0499 49.9763 15.3018 48.423C11.5871 46.8818 8.50903 44.6831 6.06755 41.8269C3.21309 38.442 1.50555 34.453 0.944931 29.8598C0.42988 25.2454 1.16345 20.2151 3.14565 14.7691C4.43469 11.2275 6.63185 8.20561 9.73713 5.70344C12.8546 3.16787 16.4608 1.47237 20.5559 0.616941C24.9001 -0.29917 29.2486 -0.13537 33.6013 1.10834C37.9661 2.31864 42.0436 4.57838 45.8337 7.88757C48.8645 10.5799 50.8106 14.2774 51.6719 18.98C52.5333 23.6826 52.1567 28.4077 50.5423 33.1552C48.791 38.3826 45.831 42.5646 41.6624 45.7014C37.5059 48.8047 32.5463 50.4238 26.7837 50.5588ZM26.689 47.2325C31.7195 47.1337 36.0319 45.7331 39.6264 43.0306C43.2664 40.3068 45.8632 36.6548 47.4168 32.0743C48.8002 27.9617 49.1309 23.8821 48.4092 19.8357C47.733 15.768 46.1376 12.6143 43.623 10.3748C41.4151 8.4361 39.0447 6.89224 36.5115 5.74323C34.024 4.57298 31.4908 3.84014 28.9118 3.54472C26.3329 3.24931 23.7766 3.35943 21.243 3.87509C17.713 4.63348 14.6141 6.07852 11.9463 8.21021C9.27859 10.3419 7.39748 12.9113 6.30302 15.9183C4.48198 20.8176 3.78655 25.2752 4.21672 29.2912C4.65905 33.2738 6.12829 36.722 8.62443 39.6359C10.7167 42.1001 13.3924 44.001 16.6514 45.3386C19.8983 46.7095 23.2442 47.3408 26.689 47.2325ZM14.7271 34.8761C14.2623 35.0096 13.8781 34.8698 13.5744 34.4566C13.3042 34.0555 13.3149 33.6621 13.6066 33.2764C19.1861 25.8478 22.4574 21.798 23.4205 21.1269C24.1193 20.6624 28.9924 18.9171 38.0396 15.8912C38.5165 15.7242 38.9068 15.8474 39.2105 16.2606C39.5141 16.6738 39.514 17.09 39.2101 17.5091C33.2083 25.5785 29.9035 29.8243 29.2958 30.2464C28.7003 30.635 23.8441 32.1783 14.7271 34.8761ZM24.466 29.7938C26.7354 29.0685 27.9506 28.6405 28.1116 28.51C28.2605 28.4128 29.1159 27.362 30.6779 25.3576C31.9026 23.7601 33.536 21.6114 35.5781 18.9115C28.7092 21.2545 25.0514 22.5718 24.6047 22.8633C23.9393 23.3401 21.4718 26.377 17.2022 31.9743C20.2189 31.0669 22.6402 30.3401 24.466 29.7938ZM26.9637 27.2976C26.5536 27.4888 26.1313 27.5054 25.697 27.3473C25.2626 27.1892 24.9498 26.9051 24.7586 26.495C24.5795 26.0514 24.5629 25.6292 24.7088 25.2282C24.8669 24.7939 25.151 24.4811 25.5612 24.2898C25.9835 24.0652 26.4118 24.0319 26.8462 24.19C27.2805 24.348 27.5872 24.6489 27.7663 25.0924C27.9576 25.5026 27.9742 25.9248 27.8161 26.3592C27.6702 26.7601 27.386 27.0729 26.9637 27.2976ZM10.1788 37.7044C8.42372 35.2494 7.25653 32.4787 6.67724 29.3922C6.13136 26.3178 6.25223 23.3348 7.03985 20.4432C7.97647 17.0382 9.78326 14.1012 12.4602 11.6323C15.1706 9.17564 18.6508 7.35859 22.9009 6.18121C25.7232 5.39223 28.6151 5.34752 31.5767 6.04707C34.5838 6.72537 37.2354 8.06882 39.5313 10.0774C42.1127 12.3413 43.9132 15.1912 44.9329 18.6272C45.9647 22.0297 46.1261 25.7965 45.4171 29.9276C45.0459 31.9871 44.1871 33.9826 42.8408 35.9142C41.5401 37.8245 39.8795 39.5282 37.859 41.0252C35.8385 42.5222 33.648 43.6546 31.2874 44.4225C27.2013 45.773 23.3236 45.8752 19.6544 44.7289C16.0064 43.6281 12.8479 41.2866 10.1788 37.7044ZM11.8651 36.502C14.2518 39.7166 17.0626 41.818 20.2974 42.8062C23.5323 43.7944 26.9604 43.68 30.5817 42.4629C33.8506 41.3825 36.6762 39.6488 39.0585 37.2618C41.4529 34.8415 42.8951 32.2826 43.3849 29.5853C43.814 27.055 43.8907 24.6613 43.6149 22.4042C43.3391 20.1471 42.7307 18.1283 41.7895 16.3479C40.8939 14.5463 39.6823 12.9891 38.1547 11.6764C36.123 9.87745 33.7828 8.66623 31.1341 8.04272C28.5188 7.43136 25.9641 7.48529 23.4699 8.2045C19.56 9.27869 16.3882 10.9242 13.9543 13.141C11.5326 15.3244 9.89756 17.9455 9.04913 21.0042C8.33755 23.583 8.23043 26.2683 8.7278 29.0601C9.23732 31.8185 10.2831 34.2991 11.8651 36.502Z" fill="#E41B23"/>
</svg>
