<svg width="48" height="49" viewBox="0 0 48 49" fill="none" xmlns="http://www.w3.org/2000/svg">
<path fill-rule="evenodd" clip-rule="evenodd" d="M8.56044 25.3007C9.17377 30.1274 11.0804 33.874 14.2804 36.5407C17.4804 39.234 21.4271 40.3007 26.1204 39.7407C30.8671 39.154 34.3871 37.3807 36.6804 34.4207C38.9738 31.4607 39.8271 27.6207 39.2404 22.9007C38.8938 20.0207 37.9204 17.514 36.3204 15.3807C34.7471 13.2474 32.7471 11.6874 30.3204 10.7007C27.8938 9.71404 25.2671 9.39404 22.4404 9.7407C17.8271 10.3007 14.2271 11.994 11.6404 14.8207C9.08044 17.6474 8.05377 21.1407 8.56044 25.3007ZM25.8004 15.7407C23.9071 15.7407 22.2671 16.2607 20.8804 17.3007C19.5738 18.2874 18.6538 19.634 18.1204 21.3407C16.6538 21.314 15.6138 21.394 15.0004 21.5807C14.7071 21.6874 14.4938 21.914 14.3604 22.2607C14.2538 22.5807 14.2804 22.8874 14.4404 23.1807C14.6004 23.4474 14.8671 23.5807 15.2404 23.5807H17.6804C17.6538 23.9007 17.6404 24.2207 17.6404 24.5407C17.6404 24.7274 17.6538 24.9807 17.6804 25.3007C16.6671 25.1407 15.8538 25.1407 15.2404 25.3007C15.0804 25.3274 14.9471 25.434 14.8404 25.6207C14.7338 25.7807 14.6671 25.9674 14.6404 26.1807C14.6404 26.394 14.6538 26.6074 14.6804 26.8207C14.7071 27.0074 14.7738 27.1807 14.8804 27.3407C14.9871 27.474 15.1071 27.5407 15.2404 27.5407H18.0804C18.5604 29.2474 19.4538 30.6074 20.7604 31.6207C22.1471 32.714 23.7738 33.2607 25.6404 33.2607C27.1338 33.2607 28.3204 33.0474 29.2004 32.6207C29.6004 32.3807 29.7204 31.9274 29.5604 31.2607C29.4004 30.594 29.1471 30.154 28.8004 29.9407C28.5604 29.8074 28.1071 29.874 27.4404 30.1407C26.8004 30.4074 26.2804 30.5407 25.8804 30.5407C24.7604 30.5407 23.7738 30.234 22.9204 29.6207C22.2004 29.114 21.6538 28.4207 21.2804 27.5407C24.4271 27.7007 26.3471 27.7007 27.0404 27.5407C27.3604 27.4607 27.5338 27.234 27.5604 26.8607C27.6138 26.4874 27.5338 26.1407 27.3204 25.8207C27.1071 25.474 26.8271 25.3007 26.4804 25.3007H20.7604C20.7338 25.0607 20.7204 24.8074 20.7204 24.5407C20.7204 24.2207 20.7338 23.9007 20.7604 23.5807H26.4804C26.7738 23.5807 27.0271 23.394 27.2404 23.0207C27.4538 22.6474 27.4938 22.274 27.3604 21.9007C27.2538 21.5274 26.9604 21.3407 26.4804 21.3407H21.3604C21.7338 20.514 22.2671 19.8607 22.9604 19.3807C23.8138 18.7674 24.8404 18.4607 26.0404 18.4607C26.2271 18.4607 26.4004 18.474 26.5604 18.5007C26.7204 18.5274 26.8671 18.554 27.0004 18.5807C27.1338 18.5807 27.2671 18.6074 27.4004 18.6607C27.5338 18.6874 27.6538 18.7274 27.7604 18.7807C27.8938 18.8074 28.0538 18.8474 28.2404 18.9007L28.8004 19.0607C29.2004 19.1674 29.5338 19.034 29.8004 18.6607C30.0671 18.2874 30.1471 17.8607 30.0404 17.3807C29.9604 16.9007 29.6804 16.5674 29.2004 16.3807C28.6938 16.1674 28.2538 16.0207 27.8804 15.9407C27.5338 15.834 27.2404 15.7807 27.0004 15.7807C26.7871 15.754 26.3871 15.7407 25.8004 15.7407Z" fill="white"/>
<path fill-rule="evenodd" clip-rule="evenodd" d="M6.04044 18.5807C5.3471 20.794 5.16044 23.154 5.48044 25.6607C5.93377 29.394 7.1071 32.6474 9.00044 35.4207C10.8938 38.1674 13.3604 40.194 16.4004 41.5007C19.4404 42.834 22.8004 43.274 26.4804 42.8207C32.1071 42.1274 36.3338 39.9674 39.1604 36.3407C41.9871 32.6874 43.0538 28.074 42.3604 22.5007C41.9338 19.0607 40.7604 16.0607 38.8404 13.5007C36.9204 10.914 34.4804 9.0207 31.5204 7.8207C28.5871 6.6207 25.4271 6.2207 22.0404 6.6207C19.3738 6.96737 16.9471 7.67404 14.7604 8.7407C12.5738 9.80737 10.7471 11.154 9.28044 12.7807C7.81377 14.4074 6.73377 16.3407 6.04044 18.5807ZM14.2804 36.5407C11.0804 33.874 9.17377 30.1274 8.56044 25.3007C8.05377 21.1407 9.08044 17.6474 11.6404 14.8207C14.2271 11.994 17.8271 10.3007 22.4404 9.7407C25.2671 9.39404 27.8938 9.71404 30.3204 10.7007C32.7471 11.6874 34.7471 13.2474 36.3204 15.3807C37.9204 17.514 38.8938 20.0207 39.2404 22.9007C39.8271 27.6207 38.9738 31.4607 36.6804 34.4207C34.3871 37.3807 30.8671 39.154 26.1204 39.7407C21.4271 40.3007 17.4804 39.234 14.2804 36.5407Z" fill="white"/>
</svg>
