<svg width="53" height="44" viewBox="0 0 53 44" fill="none" xmlns="http://www.w3.org/2000/svg">
<path d="M47.6984 29.5749L48.0763 28.5861C49.8262 29.2356 51.318 30.1115 52.5517 31.2139L51.8638 31.975L51.176 32.7362C50.2189 31.8737 48.9504 31.1436 47.3706 30.5456L47.6984 29.5749ZM40.0362 5.40457L39.2751 4.71675C39.8764 4.08169 40.388 3.46033 40.8101 2.85266C41.2534 2.19942 41.5267 1.70267 41.6299 1.36242L41.853 0.883909L42.7918 1.28006L43.7624 1.60784C43.2282 3.05092 42.2399 4.54576 40.7974 6.09239L40.0362 5.40457ZM49.9905 14.6652L50.4374 15.5809C48.6727 16.4502 47.157 16.964 45.8903 17.1224L45.7442 16.0972L45.6482 15.0537C46.6689 14.9471 47.9674 14.5123 49.5437 13.7494L49.9905 14.6652ZM7.66328 25.9278L6.61525 25.8552C6.44549 27.0521 6.79078 28.7805 7.65112 31.0403C8.51146 33.3001 9.51134 34.9037 10.6508 35.8512L11.3386 35.09L11.958 34.297C11.4628 33.8718 10.9355 33.0989 10.3762 31.9781C9.85037 30.8452 9.4202 29.7153 9.08571 28.5884C8.73907 27.4281 8.59757 26.5715 8.6612 26.0187L7.66328 25.9278ZM27.9476 35.9691L29.5834 35.9413C29.6203 37.7062 29.1211 39.1933 28.0856 40.4026C27.0956 41.6332 25.8352 42.4324 24.3043 42.8005C22.494 43.2323 20.7275 43.005 19.0048 42.1185C17.3034 41.1865 16.2048 39.6755 15.7091 37.5857L17.3357 37.2207L18.9121 36.8739C19.1798 38.0252 19.7587 38.8361 20.6489 39.3066C21.5391 39.7772 22.5036 39.8802 23.5424 39.6156C24.4142 39.4119 25.1006 39.0107 25.6016 38.4121C26.0905 37.7801 26.3166 36.9978 26.2799 36.0653L27.9476 35.9691ZM29.7391 7.67678L29.5929 6.65159C30.5893 6.47815 31.7028 7.09448 32.9335 8.50058C34.152 9.87327 35.2355 11.6546 36.1839 13.8445C37.1535 15.9888 37.985 18.2213 38.6783 20.5419C39.3928 22.8169 39.8157 24.9144 39.9469 26.8342C40.0781 28.754 39.843 30.0314 39.2417 30.6665L38.4806 29.9786L37.7194 29.2908C38.2114 28.7712 37.9693 26.7026 36.9931 23.085C36.0048 19.4339 34.7446 15.9197 33.2126 12.5422C31.714 9.15253 30.5562 7.53073 29.7391 7.67678ZM24.7909 8.73992L25.9031 9.9243C17.3816 17.9069 11.7087 23.3203 8.88451 26.1644C8.57779 26.4652 8.15714 26.7129 7.62256 26.9075C7.08798 27.1021 6.59135 27.245 6.13269 27.3362C5.69527 27.3819 5.24114 27.4337 4.77032 27.4916C4.28733 27.516 4.04583 27.5282 4.04583 27.5282C4.02483 28.4061 4.16332 29.3584 4.46132 30.3851C4.75932 31.4117 5.11653 32.3412 5.53294 33.1734C5.98276 33.9934 6.41281 34.7072 6.82308 35.3146C7.26676 35.9099 7.64964 36.3381 7.97172 36.5992C8.30276 36.3652 8.68238 36.0568 9.11059 35.6739C9.5722 35.2789 9.90779 35.0054 10.1173 34.8534C10.3147 34.6681 10.6352 34.4568 11.0786 34.2198C11.522 33.9827 11.9245 33.893 12.286 33.9506C16.2471 33.6061 24.1268 33.0084 35.925 32.1574L36.0212 33.8251L36.1492 35.4244C24.676 36.2328 16.8693 36.8229 12.729 37.1947C12.6955 37.2069 12.4921 37.3755 12.1185 37.7007C11.745 38.0258 11.3654 38.3343 10.9797 38.626C10.5939 38.9177 10.1186 39.2232 9.55372 39.5423C9.02221 39.8493 8.57115 40.0134 8.20056 40.0348L8.03197 40.0394L7.91349 40.0258C6.54952 39.9168 5.22634 39.0363 3.94394 37.3841C2.69494 35.7198 1.78154 33.782 1.20372 31.5708C0.613741 29.3261 0.544831 27.4214 0.99699 25.8569L1.13813 25.465L1.41598 25.1368C1.65588 24.8603 1.95351 24.6385 2.30887 24.4713C2.69765 24.2919 3.08796 24.1688 3.4798 24.1019C3.87165 24.0349 4.25287 23.9908 4.62347 23.9694C4.9819 23.9146 5.34642 23.8765 5.71701 23.8551C6.12102 23.8216 6.44604 23.779 6.69208 23.7273C9.65905 20.7555 15.3213 15.3649 23.6788 7.55554L24.7909 8.73992ZM38.2901 32.8858C38.758 33.1317 39.1438 33.2561 39.4476 33.2591C39.7847 33.2499 40.0687 33.1465 40.2995 32.949C40.5638 32.7393 40.7793 32.396 40.9463 31.919C41.4532 30.7129 41.5179 28.7596 41.1405 26.0592C40.7842 23.3132 39.837 19.931 38.2987 15.9125C36.2406 10.5698 33.8915 7.13028 31.2512 5.59398C29.4344 4.55258 28.1252 4.80206 27.3237 6.34241C27.2812 6.43356 27.2387 6.5247 27.1962 6.61585C26.7621 7.60627 26.7717 9.40004 27.2251 11.9972C27.7119 14.5821 28.4493 17.2839 29.4374 20.1026C30.4589 22.9092 31.7857 25.5668 33.4177 28.0755C35.0497 30.5842 36.6738 32.1876 38.2901 32.8858ZM36.9559 35.9254C34.8262 34.96 32.7843 33.0925 30.8302 30.3226C28.864 27.5194 27.3093 24.5475 26.1662 21.4068C25.0109 18.2327 24.2232 15.133 23.8031 12.1075C23.4165 9.06992 23.557 6.80526 24.2249 5.31354C25.9613 1.35185 28.5613 0.386609 32.0249 2.41782C34.8262 4.0847 37.3985 7.04572 39.7418 11.3009C40.3922 12.4641 40.9242 13.6137 41.3376 14.7497C44.6178 23.2422 45.5051 29.3705 43.9995 33.1347C43.3226 34.7054 42.3265 35.7112 41.0113 36.152C39.7083 36.6263 38.3565 36.5508 36.9559 35.9254Z" fill="#E41B23"/>
</svg>
