<svg width="13" height="17" viewBox="0 0 13 17" fill="none" xmlns="http://www.w3.org/2000/svg">
<path d="M10.75 4.33333C10.9278 4.27778 11.1111 4.25556 11.3 4.26667C11.7556 4.3 12.1111 4.51667 12.3667 4.91667C12.6222 5.30556 12.7333 5.81667 12.7 6.45C12.6889 6.50556 12.6889 6.75 12.7 7.18333C12.7222 8.06111 12.7167 8.78889 12.6833 9.36667C12.6056 10.7333 12.3611 11.6889 11.95 12.2333C11.7167 12.5556 11.5278 13.0444 11.3833 13.7C11.3167 13.9667 11.2556 14.2833 11.2 14.65C11.2 14.6611 11.1833 14.7889 11.15 15.0333C11.1167 15.2778 11.0944 15.4278 11.0833 15.4833C11.0389 15.7833 10.9889 15.9833 10.9333 16.0833C10.8889 16.1944 10.7944 16.2833 10.65 16.35C9.71667 16.7833 8.35556 16.95 6.56667 16.85C5.58889 16.8056 4.84444 16.6889 4.33333 16.5C3.82222 16.3111 3.56667 16.0278 3.56667 15.65C3.56667 15.4944 3.56667 15.3278 3.56667 15.15C3.55556 14.8278 3.53889 14.5111 3.51667 14.2C3.45 13.4 3.35 12.7722 3.21667 12.3167C2.27222 11.9056 1.53889 11.3333 1.01667 10.6C0.883334 10.4 0.744445 10.1722 0.6 9.91667C0.555556 9.82778 0.505556 9.71667 0.45 9.58333C0.438889 9.57222 0.416667 9.52778 0.383334 9.45C0.35 9.38333 0.327778 9.33333 0.316667 9.3C0.305556 9.27778 0.294445 9.25556 0.283334 9.23333C0.15 8.96667 0.0777781 8.69444 0.066667 8.41667C0.066667 8.13889 0.116667 7.88889 0.216667 7.66667C0.316667 7.44444 0.455556 7.25 0.633334 7.08333C0.811111 6.91667 1.00556 6.80556 1.21667 6.75C1.43889 6.68333 1.66667 6.68333 1.9 6.75C2.14444 6.81667 2.37222 6.96111 2.58333 7.18333C2.70556 7.30556 2.91667 7.55556 3.21667 7.93333C3.21667 7.88889 3.21667 7.84444 3.21667 7.8C3.22778 7.35556 3.23333 6.63889 3.23333 5.65C3.22222 5.53889 3.21667 5.37222 3.21667 5.15C3.21667 4.45 3.21667 3.96111 3.21667 3.68333C3.21667 3.22778 3.36111 2.85 3.65 2.55C3.95 2.23889 4.31667 2.07222 4.75 2.05C4.93889 2.05 5.11667 2.07222 5.28333 2.11667C5.32778 1.73889 5.50556 1.41667 5.81667 1.15C6.13889 0.883333 6.51111 0.738889 6.93333 0.716666C7.25556 0.694444 7.54445 0.744444 7.8 0.866666C8.05556 0.977777 8.26111 1.16111 8.41667 1.41667C8.57222 1.67222 8.65556 1.97222 8.66667 2.31667C8.84445 2.25 9.03333 2.22222 9.23333 2.23333C9.65556 2.23333 10.0111 2.36667 10.3 2.63333C10.6 2.9 10.75 3.23889 10.75 3.65V4.33333ZM9.71667 5.68333V3.65C9.71667 3.53889 9.66667 3.45 9.56667 3.38333C9.47778 3.31667 9.36111 3.27778 9.21667 3.26667C8.87222 3.26667 8.68889 3.42778 8.66667 3.75V6.26667C8.66667 6.41111 8.61667 6.53889 8.51667 6.65C8.41667 6.75 8.29444 6.8 8.15 6.8C8.00556 6.8 7.88333 6.75 7.78333 6.65C7.68333 6.53889 7.63333 6.41111 7.63333 6.26667V2.36667C7.63333 1.93333 7.42778 1.72778 7.01667 1.75C6.81667 1.76111 6.65 1.82222 6.51667 1.93333C6.38333 2.03333 6.31667 2.14444 6.31667 2.26667V4.21667C6.31667 4.21667 6.31667 4.22222 6.31667 4.23333V6.76667C6.31667 6.91111 6.26667 7.03333 6.16667 7.13333C6.06667 7.23333 5.94444 7.28333 5.8 7.28333C5.65556 7.28333 5.53333 7.23333 5.43333 7.13333C5.33333 7.03333 5.28333 6.91111 5.28333 6.76667V3.68333C5.28333 3.27222 5.11667 3.07778 4.78333 3.1C4.62778 3.1 4.5 3.15556 4.4 3.26667C4.3 3.37778 4.25 3.51667 4.25 3.68333C4.25 3.96111 4.25556 4.45 4.26667 5.15C4.26667 5.36111 4.26667 5.52778 4.26667 5.65C4.27778 6.63889 4.27778 7.36667 4.26667 7.83333C4.25556 8.15556 4.23889 8.40556 4.21667 8.58333C4.20556 8.69444 4.18889 8.78889 4.16667 8.86667C4.15556 8.93333 4.12778 8.99444 4.08333 9.05C3.97222 9.23889 3.80556 9.32778 3.58333 9.31667C3.19444 9.28333 2.83889 9.08333 2.51667 8.71667C2.50556 8.70556 2.47222 8.66667 2.41667 8.6C2.36111 8.52222 2.3 8.44444 2.23333 8.36667C2.16667 8.27778 2.09444 8.18889 2.01667 8.1C1.93889 8.01111 1.87778 7.94444 1.83333 7.9C1.65556 7.71111 1.47222 7.71667 1.28333 7.91667C1.06111 8.13889 1.03889 8.42222 1.21667 8.76667C1.22778 8.78889 1.23889 8.81667 1.25 8.85C1.27222 8.88333 1.29444 8.93333 1.31667 9C1.35 9.06667 1.37222 9.11111 1.38333 9.13333C1.43889 9.25556 1.48889 9.35556 1.53333 9.43333C1.64444 9.65556 1.76111 9.84444 1.88333 10C2.30556 10.6111 2.95 11.0889 3.81667 11.4333C3.96111 11.5 4.06111 11.6 4.11667 11.7333C4.32778 12.3 4.47222 13.0944 4.55 14.1167C4.57222 14.4389 4.58889 14.7778 4.6 15.1333C4.61111 15.2556 4.61667 15.3722 4.61667 15.4833C4.69444 15.5167 4.81111 15.5556 4.96667 15.6C5.4 15.7111 5.95 15.7833 6.61667 15.8167C8.08333 15.8944 9.22222 15.7833 10.0333 15.4833C10.0444 15.4389 10.0556 15.3833 10.0667 15.3167C10.0667 15.2722 10.0833 15.1278 10.1167 14.8833C10.15 14.65 10.1722 14.5222 10.1833 14.5C10.2389 14.1 10.3 13.7556 10.3667 13.4667C10.5444 12.6667 10.7944 12.05 11.1167 11.6167C11.3944 11.2278 11.5722 10.4556 11.65 9.3C11.6833 8.75556 11.6889 8.06111 11.6667 7.21667C11.6556 6.75 11.65 6.47778 11.65 6.4C11.6944 5.68889 11.55 5.32222 11.2167 5.3C11.0944 5.28889 10.9833 5.32778 10.8833 5.41667C10.7944 5.49444 10.75 5.58889 10.75 5.7V7.28333C10.75 7.38333 10.7278 7.47222 10.6833 7.55C10.6389 7.62778 10.5722 7.68889 10.4833 7.73333C10.4056 7.77778 10.3222 7.8 10.2333 7.8C10.0889 7.8 9.96667 7.75 9.86667 7.65C9.76667 7.55 9.71667 7.42778 9.71667 7.28333V5.7C9.70556 5.7 9.7 5.7 9.7 5.7C9.7 5.7 9.70556 5.69444 9.71667 5.68333ZM8.4 8.75C8.76667 8.71667 9.06667 8.83889 9.3 9.11667C9.54444 9.38333 9.67778 9.76111 9.7 10.25C9.71111 10.7056 9.53333 11.2111 9.16667 11.7667C8.81111 12.3222 8.38333 12.7778 7.88333 13.1333C7.77222 13.2222 7.65556 13.2278 7.53333 13.15C7.48889 13.1278 7.44444 13.1056 7.4 13.0833C7.12222 12.9278 6.93333 12.8167 6.83333 12.75C6.31111 12.4389 5.91111 12.1111 5.63333 11.7667C5.36667 11.4222 5.2 11.0056 5.13333 10.5167C5.06667 10.0722 5.13889 9.68333 5.35 9.35C5.57222 9.01667 5.87222 8.81111 6.25 8.73333C6.78333 8.63333 7.19444 8.78889 7.48333 9.2C7.73889 8.93333 8.04445 8.78333 8.4 8.75ZM9.05 10.2667C9.02778 9.65556 8.82778 9.36667 8.45 9.4C8.28333 9.41111 8.12778 9.48333 7.98333 9.61667C7.85 9.75 7.77222 9.9 7.75 10.0667C7.73889 10.1889 7.67778 10.2778 7.56667 10.3333C7.46667 10.3778 7.36667 10.3722 7.26667 10.3167C7.16667 10.2611 7.11111 10.1722 7.1 10.05C7.08889 9.79444 7.01667 9.61111 6.88333 9.5C6.75 9.37778 6.58333 9.33889 6.38333 9.38333C6.17222 9.42778 6.00556 9.54444 5.88333 9.73333C5.77222 9.92222 5.73333 10.1556 5.76667 10.4333C5.82222 10.8 5.96111 11.1222 6.18333 11.4C6.40556 11.6667 6.73333 11.9333 7.16667 12.2C7.26667 12.2556 7.43333 12.35 7.66667 12.4833C8.04444 12.1833 8.36667 11.8167 8.63333 11.3833C8.91111 10.95 9.05 10.5778 9.05 10.2667Z" fill="white"/>
</svg>
