<svg width="24" height="24" viewBox="0 0 24 24" fill="none" xmlns="http://www.w3.org/2000/svg">
<path d="M9.99065 7.63623C10.8114 7.02069 11.782 6.71292 12.9026 6.71292C13.2498 6.71292 13.4866 6.72082 13.6128 6.7366C13.7549 6.7366 13.9285 6.76817 14.1337 6.8313C14.3546 6.87865 14.6151 6.96545 14.9149 7.09172C15.199 7.2022 15.3648 7.39949 15.4121 7.68358C15.4752 7.96767 15.4279 8.2202 15.2701 8.44116C15.1122 8.66213 14.9149 8.74104 14.6782 8.67791C14.5677 8.64634 14.4572 8.61478 14.3468 8.58321C14.2363 8.55165 14.1416 8.52797 14.0627 8.51219C13.9995 8.48062 13.9285 8.45695 13.8496 8.44116C13.7707 8.4096 13.6918 8.39382 13.6128 8.39382C13.5339 8.37803 13.4471 8.36225 13.3524 8.34647C13.2577 8.33068 13.1551 8.32279 13.0447 8.32279C12.3344 8.32279 11.7268 8.5043 11.2217 8.86731C10.8114 9.1514 10.4957 9.53808 10.2747 10.0274H13.3051C13.5892 10.0274 13.7628 10.1378 13.8259 10.3588C13.9048 10.5798 13.8812 10.8007 13.7549 11.0217C13.6286 11.2426 13.4787 11.3531 13.3051 11.3531H9.91962C9.90384 11.5425 9.89595 11.7319 9.89595 11.9213C9.89595 12.0791 9.90384 12.2291 9.91962 12.3711H13.3051C13.5103 12.3711 13.676 12.4737 13.8022 12.6789C13.9285 12.8683 13.9759 13.0735 13.9443 13.2944C13.9285 13.5154 13.8259 13.6496 13.6365 13.6969C13.2262 13.7916 12.0898 13.7916 10.2274 13.6969C10.4484 14.2177 10.7719 14.6281 11.198 14.928C11.7031 15.291 12.2871 15.4725 12.95 15.4725C13.1867 15.4725 13.4945 15.3936 13.8733 15.2358C14.2678 15.0779 14.5362 15.0385 14.6782 15.1174C14.8834 15.2436 15.0333 15.5041 15.128 15.8986C15.2227 16.2932 15.1517 16.5615 14.9149 16.7036C14.3941 16.9561 13.6918 17.0824 12.8079 17.0824C11.7031 17.0824 10.7403 16.7588 9.91962 16.1117C9.14626 15.512 8.61753 14.707 8.33343 13.6969H6.65254C6.57363 13.6969 6.5026 13.6575 6.43947 13.5785C6.37634 13.4838 6.33688 13.3812 6.3211 13.2708C6.30531 13.1445 6.29742 13.0182 6.29742 12.892C6.31321 12.7657 6.35266 12.6552 6.4158 12.5605C6.47893 12.45 6.55784 12.3869 6.65254 12.3711C7.01555 12.2764 7.49693 12.2764 8.09669 12.3711C8.0809 12.1817 8.07301 12.0318 8.07301 11.9213C8.07301 11.7319 8.0809 11.5425 8.09669 11.3531H6.65254C6.43158 11.3531 6.27375 11.2742 6.17905 11.1164C6.08435 10.9428 6.06857 10.7613 6.1317 10.5719C6.21062 10.3667 6.33688 10.2325 6.51049 10.1694C6.8735 10.0589 7.48904 10.0116 8.35711 10.0274C8.67277 9.01724 9.21728 8.2202 9.99065 7.63623ZM0.875957 12.5842C0.686561 11.1006 0.797042 9.70381 1.2074 8.39382C1.61776 7.06804 2.25697 5.92377 3.12504 4.96101C3.9931 3.99825 5.07424 3.2012 6.36845 2.56988C7.66265 1.93856 9.09891 1.52031 10.6772 1.31513C12.6817 1.07839 14.5519 1.31513 16.2881 2.02537C18.04 2.7356 19.4841 3.8562 20.6205 5.38715C21.7569 6.90232 22.4513 8.67791 22.7039 10.7139C23.1142 14.0126 22.4829 16.743 20.8099 18.9053C19.1369 21.0518 16.6353 22.3302 13.3051 22.7406C11.127 23.0089 9.13836 22.7485 7.3391 21.9593C5.53984 21.1859 4.07991 19.9864 2.95931 18.3608C1.83872 16.7194 1.14427 14.7938 0.875957 12.5842ZM2.6989 12.3711C3.0619 15.2279 4.19039 17.4454 6.08435 19.0237C7.97831 20.6178 10.3142 21.2491 13.092 20.9176C15.9014 20.5704 17.9847 19.5208 19.3421 17.7689C20.6994 16.017 21.2045 13.7443 20.8573 10.9507C20.6521 9.2461 20.076 7.76249 19.129 6.49985C18.1978 5.23721 17.0141 4.31391 15.5778 3.72993C14.1416 3.14596 12.587 2.95657 10.914 3.16175C8.18349 3.49319 6.05279 4.49541 4.52183 6.16841C3.00666 7.84141 2.39902 9.90898 2.6989 12.3711Z" fill="#E41B23"/>
</svg>
