<svg width="17" height="21" viewBox="0 0 17 21" fill="none" xmlns="http://www.w3.org/2000/svg">
<path d="M8.81359 0.906996C11.1337 0.906996 12.9487 1.56199 14.2587 2.87198C15.5687 4.18197 16.2237 6.02858 16.2237 8.41182C16.2237 10.511 15.6476 12.5549 14.4955 14.5435C13.3591 16.5164 11.6309 18.5682 9.31075 20.6989C9.1687 20.8252 8.99509 20.8883 8.78991 20.8883C8.60051 20.8883 8.43479 20.8173 8.29275 20.6752C8.2454 20.6279 7.92185 20.3122 7.32209 19.7282C6.72234 19.1443 6.34354 18.7734 6.18571 18.6155C5.41235 17.8422 4.77313 17.1793 4.26808 16.6269C3.037 15.2695 2.12948 13.9911 1.54551 12.7916C0.977319 11.5763 0.693225 10.3058 0.693225 8.98001C0.693225 6.47051 1.38768 4.49763 2.77658 3.06138C4.18127 1.62512 6.1936 0.906996 8.81359 0.906996ZM7.22739 17.5739C7.38522 17.7159 7.92185 18.2289 8.83726 19.1127C10.8101 17.2345 12.2858 15.4274 13.2644 13.6912C14.2587 11.9551 14.7559 10.1953 14.7559 8.41182C14.7559 6.43894 14.2429 4.94745 13.217 3.93733C12.1911 2.91144 10.7233 2.39849 8.81359 2.39849C6.61975 2.39849 4.96253 2.96668 3.84194 4.10306C2.73713 5.23943 2.18472 6.86508 2.18472 8.98001C2.18472 10.1006 2.43725 11.1817 2.9423 12.2234C3.44736 13.2651 4.25229 14.4015 5.35711 15.6325C5.84638 16.1692 6.46981 16.8163 7.22739 17.5739ZM9.90261 9.02736C9.47647 9.4535 8.95563 9.66657 8.3401 9.66657C7.72456 9.66657 7.19583 9.4535 6.7539 9.02736C6.32776 8.58543 6.11469 8.0567 6.11469 7.44116C6.11469 6.82563 6.32776 6.30479 6.7539 5.87865C7.19583 5.43672 7.72456 5.21576 8.3401 5.21576C8.95563 5.21576 9.47647 5.43672 9.90261 5.87865C10.3445 6.30479 10.5655 6.82563 10.5655 7.44116C10.5655 8.0567 10.3445 8.58543 9.90261 9.02736Z" fill="#E41B23"/>
</svg>
