<svg width="22" height="22" viewBox="0 0 22 22" fill="none" xmlns="http://www.w3.org/2000/svg">
<path d="M10.0323 22.001C8.02788 22.001 6.26019 21.5196 4.72923 20.5568C3.21406 19.5941 2.05401 18.2762 1.24908 16.6032C0.444146 14.9144 0.0416789 13.0126 0.0416789 10.8976C0.0416789 8.87742 0.499386 7.04659 1.4148 5.40516C2.346 3.76372 3.63231 2.46951 5.27375 1.52253C6.93096 0.575553 8.78547 0.102063 10.8373 0.102063C14.1517 0.102063 16.7796 1.06483 18.7209 2.99036C20.6622 4.9001 21.6328 7.53586 21.6328 10.8976C21.6328 13.0915 21.1278 15.0328 20.1177 16.7216C19.1233 18.4104 17.7502 19.7125 15.9983 20.6279C14.2464 21.5433 12.2577 22.001 10.0323 22.001ZM10.0323 20.1544C12.9206 20.1544 15.2644 19.31 17.0637 17.6212C18.8787 15.9166 19.7862 13.6755 19.7862 10.8976C19.7862 8.0567 18.9971 5.85497 17.4188 4.29245C15.8405 2.72993 13.6466 1.94868 10.8373 1.94868C9.11691 1.94868 7.57018 2.34325 6.19705 3.1324C4.83971 3.90577 3.78225 4.97112 3.02467 6.32846C2.26708 7.6858 1.88829 9.20886 1.88829 10.8976C1.88829 13.6439 2.6222 15.8772 4.09002 17.5975C5.57362 19.3021 7.55439 20.1544 10.0323 20.1544ZM10.0797 11.2528C10.2533 11.2685 10.4032 11.2764 10.5295 11.2764V6.18641C10.5295 6.02858 10.5689 5.87865 10.6479 5.7366C10.7426 5.59455 10.8609 5.48407 11.003 5.40516C11.145 5.31046 11.295 5.26311 11.4528 5.26311C11.5791 5.26311 11.6974 5.28678 11.8079 5.33413C11.9342 5.38148 12.0368 5.4525 12.1157 5.5472C12.1946 5.62612 12.2577 5.72082 12.3051 5.8313C12.3524 5.94178 12.3761 6.06015 12.3761 6.18641V11.7736C12.3761 12.3418 12.163 12.7206 11.7369 12.91C11.3265 13.0994 10.711 13.1546 9.89028 13.0757C8.8486 12.981 7.31765 12.6574 5.29742 12.105C5.04489 12.0419 4.8555 11.8999 4.72923 11.6789C4.60297 11.4422 4.5714 11.2054 4.63454 10.9687C4.71345 10.7161 4.86339 10.5267 5.08435 10.4005C5.30531 10.2742 5.54206 10.2505 5.79459 10.3295C7.70433 10.8503 9.13269 11.1581 10.0797 11.2528Z" fill="#E41B23"/>
</svg>
