<svg width="90" height="90" viewBox="0 0 90 90" fill="none" xmlns="http://www.w3.org/2000/svg">
<path d="M42.1592 54.6384C42.0515 54.6704 41.5359 54.771 40.6126 54.9401C39.6892 55.1091 39.0848 55.2068 38.7994 55.2331C37.1391 55.5275 35.8007 55.6617 34.7841 55.6356C33.7675 55.6095 32.9388 55.3868 32.2979 54.9674C31.7881 54.6733 31.4283 54.2525 31.2185 53.7049C30.5426 52.1816 30.8957 46.704 32.278 37.272C33.7243 27.6216 35.1028 22.3376 36.4134 21.4199C37.5202 20.6449 38.5616 20.8923 39.5376 22.1622C39.9046 22.6865 40.3067 23.4467 40.7438 24.4428C41.3615 26.0069 42.0929 28.2293 42.9381 31.1099C43.7628 33.9615 44.5089 36.8247 45.1763 39.6995C47.055 39.0352 48.2492 38.633 48.7589 38.4931C50.7162 37.8171 52.2061 37.4033 53.2285 37.2516C54.0149 37.135 54.6557 37.1204 55.1509 37.2077C56.3307 37.4668 56.9337 38.173 56.9601 39.3265C56.9456 39.5537 56.573 41.5942 55.8424 45.448C55.1206 49.2522 54.4496 52.6953 53.8296 55.7771C52.5372 61.8039 51.479 66.2127 50.655 69.0033C49.8806 71.8026 49.1293 73.4572 48.4012 73.967C47.7605 74.4157 47.1561 74.5134 46.588 74.26C46.0404 74.0358 45.5961 73.5873 45.2552 72.9145C44.9668 72.3786 44.7016 71.5659 44.4597 70.4765C44.0779 68.8775 43.6639 66.5196 43.2178 63.4029C43.1799 63.0388 43.1464 62.65 43.1172 62.2364L42.3561 56.1283C42.2832 55.5282 42.2176 55.0316 42.1592 54.6384ZM34.2331 52.2451C34.8681 52.4082 36.2124 52.3133 38.2659 51.9606C38.5018 51.9256 39.0815 51.8236 40.0048 51.6545C40.9281 51.4854 41.4437 51.3849 41.5515 51.3528C42.1311 51.2508 42.5884 51.191 42.9234 51.1735C43.8205 51.153 44.473 51.434 44.8809 52.0165C45.0645 52.2786 45.2 52.5961 45.2874 52.9689C45.3748 53.3417 45.4944 54.2563 45.646 55.7127L46.4071 61.8208C46.4655 62.214 46.5136 62.5927 46.5515 62.9568C46.8402 65.2288 47.1186 67.0522 47.3868 68.427C47.5702 67.8211 47.7667 67.1409 47.9763 66.3865C48.7012 63.5784 49.5571 59.8105 50.5439 55.0829C51.3444 51.267 52.2845 46.4417 53.3644 40.6072C52.5401 40.7937 51.359 41.1216 49.8211 41.5908C49.6551 41.6636 49.4206 41.7627 49.1177 41.888C48.8235 41.9638 48.5104 42.0745 48.1783 42.2202C47.855 42.3163 47.5565 42.4169 47.2827 42.5218C46.9885 42.5975 46.7438 42.6821 46.5487 42.7753C46.3331 42.8394 46.2254 42.8715 46.2254 42.8715C45.6574 43.0521 45.2118 43.1906 44.8884 43.2867C44.6729 43.3508 44.4865 43.3946 44.3292 43.4179C44.1719 43.4412 44.0292 43.4543 43.901 43.4573C43.5456 43.4457 43.2223 43.3248 42.931 43.0947C42.4999 42.789 42.2682 42.3652 42.2361 41.8234C42.2244 41.7448 42.0831 41.1709 41.8121 40.102C41.5701 39.0126 41.2539 37.6931 40.8634 36.1436C40.4524 34.5649 40.0707 33.1828 39.7181 31.9973C39.0099 29.4982 38.3732 27.5351 37.8079 26.1079C37.6536 26.6934 37.4862 27.3531 37.3057 28.0872C36.7148 30.7147 36.1472 33.9334 35.603 37.7435C35.2975 39.9106 35.0211 42.0574 34.7738 44.1838C34.5352 46.2607 34.3782 48.0201 34.3026 49.4619C34.2067 50.8747 34.1835 51.8024 34.2331 52.2451Z" fill="#E41B23"/>
</svg>
