<svg width="18" height="21" viewBox="0 0 18 21" fill="none" xmlns="http://www.w3.org/2000/svg">
<path d="M5.66104 0.315643C6.47909 0.439116 7.22752 0.765435 7.90633 1.2946C8.58514 1.82377 9.11601 2.48523 9.49893 3.27898C10.2125 2.44995 11.0306 1.88551 11.9531 1.58564C12.893 1.28578 13.8155 1.2946 14.7205 1.6121C15.9563 2.05307 16.8353 2.94384 17.3575 4.28439C17.8796 5.60731 17.9579 7.20363 17.5924 9.07335C17.1747 11.19 16.2957 13.0509 14.9555 14.6561C13.6327 16.2612 11.4396 18.0956 8.37628 20.1594C8.20222 20.2652 8.01947 20.3093 7.82801 20.2917C7.63655 20.274 7.4712 20.1947 7.33196 20.0536C4.72115 17.4254 2.81526 15.0441 1.61429 12.9098C0.41332 10.7579 -0.117543 8.65002 0.0217003 6.58627C0.178349 4.43432 0.778834 2.79391 1.82316 1.66502C2.86748 0.518491 4.14677 0.0686991 5.66104 0.315643ZM14.1984 3.17314C13.4674 2.90856 12.7189 2.9703 11.9531 3.35835C11.1872 3.74641 10.5694 4.39022 10.0994 5.28981C10.1516 5.80134 10.1516 6.31286 10.0994 6.82439C10.082 7.0537 9.98628 7.2389 9.81222 7.38002C9.63817 7.52113 9.43801 7.58286 9.21174 7.56522C9.05509 7.54759 8.91584 7.49467 8.79401 7.40648C8.68957 7.31828 8.60255 7.21245 8.53293 7.08897C8.48071 6.94786 8.46331 6.79793 8.48071 6.63918C8.60255 5.45738 8.35887 4.41668 7.74969 3.5171C7.1579 2.61752 6.37466 2.08835 5.39996 1.9296C4.40785 1.77085 3.56369 2.10599 2.86748 2.93502C2.17126 3.76405 1.76224 5.01641 1.6404 6.6921C1.53597 8.40307 2.00591 10.2022 3.05023 12.0896C4.09456 13.977 5.74807 16.0848 8.01077 18.4131C10.6912 16.5787 12.5971 14.9647 13.7284 13.5713C14.8772 12.1778 15.6343 10.5727 15.9998 8.75585C16.2783 7.27418 16.2435 6.04828 15.8954 5.07814C15.5647 4.09036 14.999 3.45536 14.1984 3.17314Z" fill="white"/>
</svg>
