<svg width="48" height="49" viewBox="0 0 48 49" fill="none" xmlns="http://www.w3.org/2000/svg">
<path fill-rule="evenodd" clip-rule="evenodd" d="M21.2012 37.1967C21.4959 37.4668 22.498 38.4423 24.2073 40.1232C27.8913 36.5513 30.6468 33.1145 32.4741 29.8128C34.3308 26.5111 35.2591 23.1643 35.2591 19.7725C35.2591 16.0205 34.3013 13.184 32.3857 11.263C30.47 9.31201 27.7292 8.33649 24.1631 8.33649C20.0666 8.33649 16.9721 9.41706 14.8796 11.5782C12.8166 13.7393 11.7851 16.831 11.7851 20.8531C11.7851 22.9842 12.2566 25.0403 13.1997 27.0213C14.1428 29.0024 15.6458 31.1635 17.7088 33.5047C18.6225 34.5253 19.7866 35.7559 21.2012 37.1967ZM23.279 22.1588C24.4284 22.1588 25.4009 21.7536 26.1966 20.9431C27.0218 20.1027 27.4344 19.0972 27.4344 17.9265C27.4344 16.7559 27.0218 15.7654 26.1966 14.955C25.4009 14.1145 24.4284 13.6943 23.279 13.6943C22.1296 13.6943 21.1423 14.1145 20.3171 14.955C19.5213 15.7654 19.1235 16.7559 19.1235 17.9265C19.1235 19.0972 19.5213 20.1027 20.3171 20.9431C21.1423 21.7536 22.1296 22.1588 23.279 22.1588Z" fill="white"/>
<path fill-rule="evenodd" clip-rule="evenodd" d="M34.3308 9.23697C31.8847 6.74566 28.4954 5.5 24.1631 5.5C19.2708 5.5 15.5132 6.86572 12.8902 9.59716C10.2967 12.3286 9 16.0806 9 20.8531C9 23.3744 9.53049 25.7907 10.5915 28.1019C11.6819 30.3831 13.3765 32.8144 15.6753 35.3957C16.6184 36.4463 17.812 37.707 19.2561 39.1777C19.5508 39.4779 20.2581 40.1833 21.378 41.2938C22.498 42.4044 23.1021 43.0047 23.1905 43.0948C23.4558 43.3649 23.7652 43.5 24.1189 43.5C24.502 43.5 24.8262 43.3799 25.0915 43.1398C29.4238 39.0877 32.6509 35.1856 34.7729 31.4337C36.9243 27.6517 38 23.7646 38 19.7725C38 15.2401 36.7769 11.7283 34.3308 9.23697ZM24.2073 40.1232C22.498 38.4423 21.4959 37.4668 21.2012 37.1967C19.7866 35.7559 18.6225 34.5253 17.7088 33.5047C15.6458 31.1635 14.1428 29.0024 13.1997 27.0213C12.2566 25.0403 11.7851 22.9842 11.7851 20.8531C11.7851 16.831 12.8166 13.7393 14.8796 11.5782C16.9721 9.41706 20.0666 8.33649 24.1631 8.33649C27.7292 8.33649 30.47 9.31201 32.3857 11.263C34.3013 13.184 35.2591 16.0205 35.2591 19.7725C35.2591 23.1643 34.3308 26.5111 32.4741 29.8128C30.6468 33.1145 27.8913 36.5513 24.2073 40.1232Z" fill="white"/>
</svg>
