<svg width="24" height="24" viewBox="0 0 24 24" fill="none" xmlns="http://www.w3.org/2000/svg">
<path d="M5.74 10.72C5.63333 11.88 5.58667 13.3467 5.6 15.12C5.61333 16.88 5.69333 17.9933 5.84 18.46C5.90667 18.4867 5.99333 18.5133 6.1 18.54C6.43333 18.6333 6.89333 18.7133 7.48 18.78C8.64 18.9 10.06 18.9467 11.74 18.92C13.1933 18.9067 14.5733 18.8333 15.88 18.7C17.1867 18.5667 17.8933 18.4467 18 18.34C18.08 18.2733 18.14 17.8133 18.18 16.96C18.22 16.1067 18.2133 15.08 18.16 13.88C18.12 12.7733 18.04 11.6133 17.92 10.4C16.0533 11.84 14.6533 12.8733 13.72 13.5C12.8 14.1267 12.2 14.4467 11.92 14.46C11.6133 14.46 10.9867 14.1733 10.04 13.6C9.09333 13.0133 7.66 12.0533 5.74 10.72ZM5.94 9.34C5.96667 9.35333 5.98667 9.36667 6 9.38C7.09333 10.1533 8.08667 10.84 8.98 11.44C9.88667 12.04 10.58 12.4867 11.06 12.78C11.54 13.06 11.8133 13.2 11.88 13.2C11.9467 13.2 12.2067 13.0467 12.66 12.74C13.1267 12.42 13.7933 11.94 14.66 11.3C15.5267 10.6467 16.5 9.91333 17.58 9.1C16.9533 8.52667 16.0467 7.84 14.86 7.04C14.1533 6.54667 13.46 6.10667 12.78 5.72C12.1 5.32 11.7133 5.12 11.62 5.12C11.54 5.12 11.3533 5.2 11.06 5.36C10.7667 5.52 10.3933 5.74667 9.94 6.04C9.48667 6.33333 9.04 6.64667 8.6 6.98C8.16 7.3 7.74 7.63333 7.34 7.98C6.94 8.31333 6.61333 8.6 6.36 8.84C6.12 9.08 5.98 9.24667 5.94 9.34ZM4.44 8.88C4.57333 8.45333 5.13333 7.80667 6.12 6.94C7.12 6.07333 8.17333 5.29333 9.28 4.6C10.4 3.90667 11.18 3.56 11.62 3.56C12.02 3.56 12.82 3.92 14.02 4.64C15.2333 5.34667 16.3867 6.14 17.48 7.02C18.5733 7.88667 19.18 8.51333 19.3 8.9C19.3533 9.1 19.4267 9.72 19.52 10.76C19.6133 11.8 19.68 12.82 19.72 13.82C19.8 15.4867 19.7933 16.7667 19.7 17.66C19.6067 18.5533 19.4067 19.1533 19.1 19.46C18.46 20.0867 16.0133 20.4267 11.76 20.48C10.32 20.4933 9.10667 20.4667 8.12 20.4C7.14667 20.3467 6.34 20.22 5.7 20.02C5.06 19.8333 4.65333 19.58 4.48 19.26C4.17333 18.5667 4.02 16.8733 4.02 14.18C4.03333 11.4733 4.17333 9.70667 4.44 8.88Z" fill="#E41B23"/>
</svg>
