<svg width="11" height="18" viewBox="0 0 11 18" fill="none" xmlns="http://www.w3.org/2000/svg">
<path d="M1.328 2.008C1.12 1.848 1 1.64 0.968 1.384C0.952001 1.128 1.024 0.904 1.184 0.711999C1.36 0.503999 1.576 0.391999 1.832 0.375999C2.088 0.343999 2.32 0.407999 2.528 0.568C5.28 2.856 7.256 4.632 8.456 5.896C9.672 7.144 10.28 8.088 10.28 8.728C10.28 9.368 9.672 10.32 8.456 11.584C7.256 12.832 5.28 14.592 2.528 16.864C2.32 17.04 2.088 17.112 1.832 17.08C1.576 17.064 1.36 16.952 1.184 16.744C1.024 16.552 0.952001 16.32 0.968 16.048C1 15.792 1.12 15.584 1.328 15.424C2.768 14.224 4.04 13.128 5.144 12.136C6.248 11.128 7.064 10.344 7.592 9.784C8.136 9.208 8.408 8.856 8.408 8.728C8.408 8.584 8.136 8.232 7.592 7.672C7.064 7.096 6.248 6.312 5.144 5.32C4.04 4.312 2.768 3.208 1.328 2.008Z" fill="#E41B23"/>
</svg>
