<svg width="1920" height="600" viewBox="0 0 1920 600" fill="none" xmlns="http://www.w3.org/2000/svg">
<path d="M98.6409 324.48C98.6409 324.434 98.6409 324.387 98.6409 324.341C98.6409 323.553 98.7104 322.857 98.8496 322.254C99.0119 321.628 99.2321 321.06 99.5104 320.55C99.7886 320.04 100.16 319.484 100.623 318.881C100.67 318.834 100.739 318.753 100.832 318.637C100.925 318.521 100.983 318.44 101.006 318.394C101.725 317.536 102.235 316.748 102.536 316.029C102.838 315.31 103.035 314.371 103.127 313.212C103.243 311.079 102.606 309.351 101.215 308.03C99.8234 306.685 98.0033 305.978 95.7542 305.908C93.5283 305.839 91.6735 306.43 90.1895 307.682C88.7056 308.934 87.9521 310.615 87.9289 312.725C87.9289 313.907 88.0448 314.812 88.2767 315.438C88.5086 316.04 88.9723 316.724 89.6679 317.49L89.7026 317.524C90.5837 318.475 91.1981 319.402 91.5459 320.307C91.8937 321.211 92.0676 322.417 92.0676 323.924C92.0676 324.016 92.056 324.098 92.0328 324.167C92.0097 324.283 91.9981 324.364 91.9981 324.411C92.5777 324.828 93.5747 325.048 94.9891 325.071C95.2905 320.017 94.3746 317.165 92.2415 316.516C92.1488 316.493 92.0676 316.458 91.9981 316.411C91.9285 316.342 91.8705 316.272 91.8242 316.203C91.801 316.11 91.7778 316.017 91.7546 315.925C91.7546 315.832 91.7662 315.739 91.7894 315.646C91.8589 315.484 91.9749 315.356 92.1372 315.264C92.2995 315.171 92.4734 315.159 92.6589 315.229C93.6791 315.53 94.4906 316.156 95.0934 317.107C95.7426 315.832 96.6469 315.02 97.8062 314.672C97.9917 314.626 98.1656 314.649 98.3279 314.742C98.4902 314.812 98.5945 314.939 98.6409 315.125C98.7104 315.31 98.6988 315.484 98.6061 315.646C98.5134 315.809 98.3742 315.913 98.1888 315.959C97.6787 316.122 97.2033 316.469 96.7628 317.003C96.3455 317.513 96.0556 318.104 95.8933 318.776C95.8933 318.823 95.8817 318.858 95.8585 318.881C96.3223 320.457 96.4846 322.498 96.3455 325.002C97.041 324.932 97.6555 324.816 98.1888 324.654C98.3511 324.608 98.5018 324.55 98.6409 324.48ZM97.6671 326.463C96.9715 326.602 96.1947 326.671 95.3369 326.671C94.5022 326.694 93.7486 326.648 93.0762 326.532C93.0298 327.112 93.053 327.726 93.1458 328.375C93.1921 328.7 93.2617 328.978 93.3544 329.21C93.3544 329.233 93.3544 329.257 93.3544 329.28C93.7718 329.512 94.3862 329.639 95.1977 329.662C96.0093 329.685 96.7048 329.558 97.2845 329.28C97.4236 329.141 97.5279 328.746 97.5975 328.097C97.6207 327.773 97.6439 327.402 97.6671 326.984C97.6671 326.868 97.6671 326.729 97.6671 326.567V326.463ZM108.692 302.43C107.301 303.242 106.188 304.053 105.353 304.865C105.284 304.934 105.203 304.992 105.11 305.039C105.04 305.062 104.959 305.073 104.866 305.073C104.797 305.05 104.716 305.027 104.623 305.004C104.53 304.958 104.461 304.911 104.414 304.865C104.321 304.772 104.252 304.668 104.206 304.552C104.182 304.436 104.182 304.32 104.206 304.204C104.252 304.088 104.321 303.984 104.414 303.891C105.318 303.01 106.524 302.129 108.031 301.248C108.101 301.201 108.182 301.178 108.275 301.178C108.367 301.155 108.449 301.155 108.518 301.178C108.611 301.201 108.692 301.248 108.762 301.317C108.831 301.364 108.889 301.422 108.936 301.491C109.051 301.654 109.075 301.827 109.005 302.013C108.959 302.198 108.854 302.337 108.692 302.43ZM79.1645 316.238C80.0456 315.797 80.8339 315.38 81.5295 314.985C81.6918 314.893 81.8541 314.881 82.0164 314.951C82.2019 314.997 82.341 315.101 82.4338 315.264C82.5265 315.426 82.5381 315.6 82.4686 315.785C82.4222 315.971 82.3179 316.098 82.1556 316.168C81.46 316.562 80.6601 316.991 79.7558 317.455C79.5935 317.548 79.4196 317.571 79.2341 317.524C79.0718 317.455 78.9443 317.339 78.8515 317.177C78.7588 317.014 78.7356 316.84 78.782 316.655C78.8515 316.469 78.9791 316.33 79.1645 316.238ZM107.023 316.133C107.834 316.226 108.75 316.701 109.77 317.559C109.909 317.675 109.979 317.837 109.979 318.046C110.002 318.232 109.956 318.394 109.84 318.533C109.724 318.672 109.562 318.753 109.353 318.776C109.167 318.776 109.005 318.718 108.866 318.603C108.078 317.93 107.405 317.559 106.849 317.49C106.663 317.466 106.513 317.385 106.397 317.246C106.281 317.107 106.234 316.945 106.258 316.759C106.281 316.551 106.362 316.388 106.501 316.272C106.663 316.156 106.837 316.11 107.023 316.133ZM80.6253 303.995C80.5093 303.949 80.405 303.891 80.3123 303.821C80.2195 303.729 80.1615 303.624 80.1384 303.508C80.1152 303.392 80.1152 303.277 80.1384 303.161C80.1615 303.045 80.2079 302.94 80.2775 302.848C80.3702 302.755 80.4746 302.697 80.5905 302.674C80.7064 302.651 80.8339 302.651 80.9731 302.674C82.6425 303.091 84.0568 303.775 85.2161 304.726C85.3784 304.842 85.4712 304.992 85.4944 305.178C85.5175 305.363 85.4712 305.526 85.3552 305.665C85.2625 305.757 85.1582 305.827 85.0422 305.873C84.9495 305.92 84.8336 305.931 84.6944 305.908C84.5785 305.885 84.4742 305.839 84.3814 305.769C83.3612 304.958 82.1092 304.366 80.6253 303.995ZM102.501 320.376C101.945 321.072 101.562 321.698 101.354 322.254C101.145 322.788 101.041 323.495 101.041 324.376C101.041 325.326 100.704 326.115 100.032 326.741C100.032 326.834 100.032 326.926 100.032 327.019C100.032 327.529 100.009 327.97 99.9625 328.341C99.8002 329.848 99.3249 330.845 98.5365 331.332L98.467 331.366C97.4236 331.9 96.2063 332.12 94.8152 332.027C93.4472 331.958 92.4038 331.61 91.685 330.984C91.3373 330.706 91.0706 330.114 90.8851 329.21C90.6996 328.329 90.6301 327.425 90.6765 326.497C89.7954 325.848 89.4592 324.956 89.6679 323.819C89.6679 323.008 89.6099 322.347 89.494 321.837C89.378 321.304 89.2041 320.852 88.9723 320.481C88.7404 320.086 88.3926 319.634 87.9289 319.124L87.8941 319.089C87.013 318.116 86.3986 317.188 86.0508 316.307C85.7262 315.426 85.5639 314.232 85.5639 312.725C85.5871 309.896 86.5725 307.636 88.5201 305.943C90.491 304.25 92.9255 303.439 95.8238 303.508C98.722 303.601 101.099 304.552 102.953 306.36C104.808 308.169 105.666 310.511 105.527 313.386C105.388 314.823 105.121 316.017 104.727 316.968C104.333 317.895 103.719 318.881 102.884 319.924C102.838 319.947 102.768 320.028 102.675 320.168C102.606 320.26 102.548 320.33 102.501 320.376ZM96.1368 298.639C96.16 299.891 96.16 300.807 96.1368 301.387C96.1368 301.572 96.0672 301.735 95.9281 301.874C95.789 301.99 95.6267 302.048 95.4412 302.048C95.2557 302.048 95.0934 301.978 94.9543 301.839C94.8384 301.7 94.7804 301.538 94.7804 301.352C94.8036 300.772 94.8036 299.88 94.7804 298.674C94.7804 298.489 94.8384 298.338 94.9543 298.222C95.0934 298.083 95.2557 298.002 95.4412 297.979C95.5571 297.979 95.6731 298.013 95.789 298.083C95.9049 298.129 95.9861 298.21 96.0324 298.326C96.102 298.419 96.1368 298.523 96.1368 298.639Z" fill="white" fill-opacity="0.3"/>
<path opacity="0.72" d="M120.952 93.0343C120.912 93.0487 120.872 93.0631 120.833 93.0776C120.159 93.3229 119.542 93.4799 118.983 93.5486C118.397 93.6047 117.843 93.5931 117.32 93.5139C116.798 93.4348 116.206 93.2907 115.546 93.0818C115.492 93.0566 115.401 93.0224 115.273 92.9792C115.145 92.9359 115.058 92.9116 115.011 92.9062C114.054 92.5586 113.221 92.3678 112.512 92.3337C111.804 92.2997 110.94 92.4234 109.919 92.7049C108.059 93.2697 106.781 94.3526 106.083 95.9535C105.366 97.5617 105.328 99.3382 105.969 101.283C106.602 103.208 107.685 104.61 109.217 105.489C110.75 106.369 112.422 106.49 114.233 105.853C115.245 105.485 115.982 105.104 116.445 104.711C116.888 104.325 117.329 103.716 117.767 102.883L117.785 102.842C118.324 101.793 118.926 100.979 119.591 100.4C120.256 99.8214 121.233 99.2975 122.522 98.8284C122.601 98.7995 122.674 98.7842 122.741 98.7824C122.847 98.7661 122.92 98.7508 122.96 98.7363C123.136 98.1108 123.014 97.1896 122.594 95.973C118.178 97.2884 116.024 98.9592 116.133 100.985C116.142 101.072 116.137 101.152 116.119 101.226C116.082 101.307 116.04 101.378 115.995 101.44C115.923 101.488 115.851 101.537 115.779 101.586C115.699 101.615 115.617 101.634 115.53 101.643C115.37 101.634 115.224 101.574 115.095 101.464C114.965 101.354 114.901 101.209 114.902 101.029C114.843 100.063 115.125 99.174 115.751 98.3626C114.458 98.2043 113.483 97.6837 112.825 96.8006C112.727 96.6564 112.693 96.5005 112.722 96.3328C112.731 96.1724 112.807 96.0435 112.951 95.9461C113.088 95.8289 113.241 95.7847 113.408 95.8134C113.576 95.8422 113.709 95.9287 113.806 96.0729C114.103 96.4586 114.549 96.7568 115.142 96.9675C115.708 97.1657 116.304 97.2295 116.929 97.159C116.969 97.1446 117.002 97.1436 117.029 97.1563C118.233 96.269 119.928 95.4952 122.112 94.8348C121.836 94.2616 121.546 93.7723 121.241 93.3668C121.151 93.2424 121.054 93.1316 120.952 93.0343ZM122.95 93.25C123.285 93.8015 123.587 94.4441 123.854 95.1776C124.133 95.8842 124.328 96.543 124.438 97.1541C124.948 97.0133 125.467 96.8023 125.993 96.5209C126.256 96.3802 126.472 96.2341 126.642 96.0827C126.661 96.0754 126.681 96.0682 126.701 96.061C126.769 95.632 126.687 95.0669 126.455 94.3657C126.222 93.6645 125.896 93.1094 125.478 92.7003C125.316 92.6247 124.946 92.6581 124.369 92.8007C124.085 92.8819 123.76 92.9776 123.396 93.0876C123.297 93.1237 123.178 93.167 123.039 93.2175L122.95 93.25ZM98.9679 91.3021C100.095 92.2391 101.135 92.9382 102.089 93.3994C102.17 93.4373 102.245 93.4886 102.313 93.5535C102.355 93.6058 102.39 93.6715 102.419 93.7509C102.421 93.8176 102.426 93.8942 102.435 93.9807C102.424 94.0744 102.406 94.1483 102.381 94.2024C102.331 94.3106 102.263 94.4026 102.178 94.4783C102.087 94.5342 101.987 94.5703 101.881 94.5865C101.767 94.583 101.657 94.556 101.548 94.5055C100.514 94.0065 99.3849 93.2497 98.1624 92.2352C98.1011 92.1901 98.056 92.128 98.0272 92.0487C97.9785 91.9766 97.9532 91.9072 97.9514 91.8405C97.9424 91.7539 97.9567 91.6701 97.9946 91.589C98.0126 91.5151 98.0441 91.4475 98.0892 91.3862C98.1919 91.2365 98.3333 91.1626 98.5136 91.1643C98.6867 91.1462 98.8381 91.1922 98.9679 91.3021ZM119.965 112.254C119.314 111.638 118.712 111.094 118.158 110.622C118.028 110.512 117.968 110.377 117.977 110.216C117.959 110.043 118.005 109.892 118.115 109.762C118.225 109.632 118.37 109.568 118.55 109.57C118.723 109.552 118.865 109.601 118.975 109.718C119.528 110.19 120.144 110.741 120.822 111.37C120.952 111.48 121.026 111.621 121.044 111.794C121.035 111.955 120.975 112.1 120.865 112.23C120.755 112.36 120.614 112.433 120.441 112.452C120.261 112.45 120.102 112.384 119.965 112.254ZM111.205 88.4647C111.032 87.7419 111.153 86.8108 111.569 85.6714C111.625 85.5164 111.742 85.4064 111.921 85.3415C112.072 85.2639 112.225 85.253 112.38 85.3089C112.536 85.3647 112.655 85.4782 112.74 85.6495C112.798 85.8081 112.799 85.9649 112.743 86.1199C112.413 87.0033 112.305 87.6938 112.419 88.1913C112.457 88.3571 112.435 88.5112 112.352 88.6537C112.269 88.7961 112.144 88.8863 111.979 88.9242C111.793 88.9693 111.629 88.9504 111.487 88.8675C111.337 88.7648 111.243 88.6306 111.205 88.4647ZM109.042 114.815C109.038 114.929 109.021 115.036 108.99 115.137C108.94 115.245 108.869 115.327 108.777 115.383C108.685 115.439 108.586 115.475 108.479 115.492C108.373 115.508 108.269 115.501 108.169 115.47C108.06 115.42 107.978 115.348 107.922 115.257C107.866 115.165 107.827 115.056 107.803 114.929C107.641 113.372 107.785 111.95 108.237 110.662C108.286 110.488 108.386 110.361 108.537 110.284C108.689 110.206 108.842 110.195 108.997 110.251C109.105 110.302 109.197 110.369 109.273 110.454C109.341 110.519 109.387 110.614 109.411 110.74C109.427 110.847 109.42 110.95 109.389 111.051C109.013 112.176 108.897 113.431 109.042 114.815ZM116.241 91.0104C117.009 91.2697 117.663 91.402 118.204 91.4073C118.725 91.4198 119.362 91.2889 120.115 91.0146C120.928 90.7188 121.707 90.7609 122.452 91.141C122.531 91.1122 122.61 91.0833 122.69 91.0545C123.126 90.8957 123.51 90.7784 123.841 90.7026C125.181 90.3723 126.181 90.4685 126.843 90.991L126.894 91.0397C127.675 91.7659 128.242 92.7383 128.596 93.9568C128.962 95.1482 128.99 96.1487 128.678 96.9581C128.548 97.3421 128.126 97.7542 127.41 98.1942C126.714 98.6271 125.963 98.968 125.155 99.217C124.874 100.172 124.216 100.738 123.179 100.913C122.485 101.166 121.938 101.421 121.538 101.679C121.118 101.944 120.786 102.233 120.541 102.547C120.276 102.868 119.997 103.306 119.706 103.861L119.687 103.902C119.128 104.958 118.526 105.772 117.881 106.344C117.229 106.896 116.258 107.406 114.969 107.875C112.543 108.736 110.304 108.597 108.25 107.458C106.189 106.3 104.738 104.47 103.895 101.97C103.072 99.4632 103.145 97.1351 104.115 94.9861C105.084 92.837 106.819 91.3746 109.321 90.5987C110.594 90.2703 111.698 90.1266 112.633 90.1678C113.549 90.2162 114.583 90.4349 115.735 90.824C115.769 90.8564 115.86 90.8906 116.008 90.9266C116.109 90.9572 116.187 90.9852 116.241 91.0104ZM99.6339 103.218C100.697 102.809 101.481 102.524 101.983 102.363C102.142 102.305 102.302 102.314 102.465 102.39C102.607 102.473 102.707 102.594 102.765 102.752C102.823 102.911 102.814 103.071 102.738 103.234C102.655 103.376 102.534 103.476 102.376 103.534C101.873 103.694 101.11 103.972 100.086 104.367C99.9272 104.425 99.7803 104.422 99.6451 104.359C99.4828 104.284 99.3629 104.17 99.2853 104.019C99.2493 103.92 99.2429 103.81 99.2663 103.689C99.2699 103.575 99.314 103.481 99.3987 103.405C99.4564 103.317 99.5348 103.254 99.6339 103.218Z" fill="white" fill-opacity="0.3"/>
<path opacity="0.81" d="M337.543 91.0022C337.842 91.713 337.992 92.386 337.995 93.0214C337.974 93.6555 337.807 94.204 337.495 94.6671C337.172 95.1175 336.693 95.446 336.059 95.6525C335.194 95.9307 334.397 95.817 333.668 95.3114C332.927 94.8172 332.39 94.0939 332.056 93.1416C331.457 91.5402 330.606 89.1406 329.503 85.9427C328.389 82.7323 327.727 80.7202 327.518 79.9062C327.282 78.9351 327.366 78.0166 327.771 77.151C328.175 76.2853 328.824 75.6782 329.718 75.3295C330.599 74.9682 331.551 75.0001 332.571 75.4251C333.614 75.8752 335.433 76.7316 338.027 77.9941C338.156 78.0608 338.302 78.1343 338.465 78.2148C339.493 78.7241 340.69 79.3202 342.057 80.003C342.092 80.0169 342.489 80.2174 343.248 80.6048C343.995 80.9795 344.433 81.2002 344.561 81.2669C345.918 81.9132 346.792 82.6062 347.185 83.3459C347.579 84.0617 347.498 84.9084 346.944 85.886C345.953 87.6438 344.296 87.8146 341.973 86.3985C340.719 85.6377 338.249 84.3996 334.564 82.6844C336.112 87.2119 337.105 89.9845 337.543 91.0022ZM329.066 79.5379C329.253 80.3028 329.905 82.2785 331.02 85.465C332.112 88.6502 332.952 91.0253 333.541 92.5902C333.761 93.189 334.056 93.6299 334.425 93.9129C334.793 94.1959 335.173 94.2757 335.563 94.1523C336.501 93.8539 336.671 93.0059 336.073 91.6083C335.584 90.4321 334.377 87.0431 332.453 81.4413C332.339 81.1117 332.414 80.828 332.678 80.5901C332.929 80.3636 333.213 80.3246 333.529 80.4729C338.222 82.6245 341.312 84.1467 342.8 85.0396C343.508 85.4723 344.089 85.7005 344.543 85.7243C344.986 85.7355 345.327 85.5316 345.564 85.1126C345.842 84.6118 345.875 84.2061 345.664 83.8954C345.441 83.5721 344.839 83.169 343.858 82.6861C343.729 82.6195 343.286 82.3925 342.527 82.0052C341.756 81.6292 341.365 81.4349 341.353 81.4223C339.987 80.7395 338.79 80.1434 337.762 79.6341C337.609 79.5662 337.463 79.4926 337.324 79.4134C334.764 78.1647 332.969 77.3216 331.937 76.884C331.351 76.6375 330.807 76.615 330.305 76.8164C329.779 77.0165 329.407 77.3746 329.188 77.8904C328.958 78.3937 328.917 78.9429 329.066 79.5379Z" fill="white" fill-opacity="0.3"/>
<path d="M825.041 97.0171C825.127 96.0707 825.353 95.251 825.718 94.5578C826.108 93.8799 826.607 93.3791 827.214 93.0556C827.827 92.7523 828.538 92.6718 829.348 92.814C830.451 93.0121 831.253 93.5972 831.753 94.5692C832.274 95.5362 832.44 96.6346 832.252 97.8643C831.978 99.9544 831.515 103.059 830.865 107.178C830.219 111.318 829.775 113.891 829.531 114.898C829.227 116.093 828.604 117.044 827.662 117.752C826.72 118.46 825.662 118.745 824.488 118.607C823.319 118.49 822.302 117.905 821.437 116.852C820.562 115.758 819.078 113.773 816.985 110.897C816.884 110.75 816.767 110.586 816.636 110.403C815.812 109.254 814.853 107.912 813.761 106.378C813.731 106.343 813.415 105.895 812.813 105.034C812.216 104.193 811.868 103.7 811.766 103.553C810.664 102.064 810.113 100.803 810.114 99.771C810.099 98.7638 810.677 97.8886 811.846 97.1454C813.942 95.8055 815.845 96.5785 817.554 99.4645C818.479 101.019 820.451 103.796 823.47 107.796C824.405 101.972 824.929 98.3785 825.041 97.0171ZM827.634 114.404C827.872 113.462 828.306 110.935 828.937 106.82C829.592 102.721 830.052 99.6495 830.317 97.605C830.423 96.8256 830.358 96.1752 830.12 95.6538C829.883 95.1324 829.516 94.8259 829.02 94.7345C827.826 94.5161 827.15 95.3407 826.992 97.2081C826.844 98.7719 826.196 103.159 825.047 110.371C824.981 110.796 824.736 111.061 824.311 111.167C823.906 111.268 823.574 111.147 823.316 110.802C819.453 105.744 816.97 102.298 815.868 100.465C815.347 99.5845 814.846 98.9997 814.366 98.7109C813.89 98.4423 813.402 98.4673 812.901 98.7859C812.308 99.1701 812.037 99.5926 812.087 100.053C812.143 100.534 812.565 101.321 813.354 102.415C813.455 102.562 813.806 103.066 814.408 103.926C815.03 104.782 815.344 105.22 815.349 105.24C816.441 106.775 817.399 108.116 818.223 109.266C818.35 109.428 818.466 109.592 818.572 109.759C820.635 112.6 822.102 114.557 822.972 115.631C823.467 116.238 824.046 116.578 824.709 116.649C825.398 116.735 826.01 116.561 826.547 116.126C827.089 115.712 827.451 115.137 827.634 114.404Z" fill="white" fill-opacity="0.3"/>
<path opacity="0.99" d="M1258.53 140.735C1258.54 140.705 1258.55 140.674 1258.56 140.644C1258.73 140.13 1258.94 139.692 1259.16 139.329C1259.41 138.958 1259.68 138.636 1259.98 138.366C1260.27 138.096 1260.64 137.816 1261.08 137.527C1261.12 137.507 1261.18 137.47 1261.27 137.415C1261.36 137.36 1261.41 137.32 1261.44 137.295C1262.1 136.897 1262.61 136.497 1262.97 136.096C1263.32 135.695 1263.66 135.127 1263.99 134.391C1264.54 133.025 1264.51 131.755 1263.9 130.58C1263.3 129.391 1262.27 128.52 1260.82 127.97C1259.38 127.424 1258.04 127.393 1256.79 127.877C1255.54 128.36 1254.67 129.288 1254.18 130.659C1253.91 131.431 1253.79 132.047 1253.8 132.507C1253.81 132.952 1253.96 133.503 1254.24 134.158L1254.26 134.189C1254.62 135.007 1254.81 135.75 1254.84 136.418C1254.86 137.086 1254.7 137.912 1254.36 138.895C1254.34 138.956 1254.32 139.006 1254.29 139.046C1254.24 139.117 1254.22 139.167 1254.21 139.197C1254.49 139.6 1255.09 139.967 1256.01 140.3C1257.34 137.07 1257.39 135.004 1256.14 134.101C1256.09 134.065 1256.04 134.024 1256.01 133.978C1255.98 133.917 1255.95 133.859 1255.94 133.803C1255.94 133.737 1255.95 133.672 1255.96 133.606C1255.98 133.546 1256.01 133.488 1256.04 133.432C1256.12 133.342 1256.23 133.285 1256.35 133.261C1256.48 133.237 1256.6 133.268 1256.7 133.355C1257.3 133.781 1257.69 134.372 1257.87 135.128C1258.58 134.441 1259.35 134.115 1260.19 134.149C1260.32 134.16 1260.42 134.214 1260.51 134.311C1260.6 134.393 1260.64 134.5 1260.63 134.631C1260.63 134.768 1260.59 134.879 1260.49 134.964C1260.39 135.049 1260.28 135.086 1260.15 135.074C1259.78 135.065 1259.39 135.186 1258.98 135.434C1258.59 135.674 1258.27 135.994 1258.02 136.396C1258 136.427 1257.99 136.447 1257.97 136.457C1257.92 137.589 1257.57 138.957 1256.91 140.559C1257.38 140.67 1257.81 140.733 1258.19 140.747C1258.31 140.753 1258.42 140.749 1258.53 140.735ZM1257.45 141.809C1256.96 141.744 1256.44 141.615 1255.88 141.422C1255.33 141.25 1254.85 141.05 1254.44 140.823C1254.27 141.191 1254.15 141.597 1254.07 142.042C1254.02 142.264 1254.01 142.461 1254.02 142.633C1254.01 142.648 1254 142.663 1254 142.678C1254.22 142.923 1254.59 143.145 1255.12 143.342C1255.64 143.54 1256.12 143.613 1256.56 143.561C1256.69 143.502 1256.84 143.268 1257.03 142.86C1257.12 142.654 1257.22 142.417 1257.33 142.15C1257.35 142.074 1257.39 141.983 1257.42 141.877L1257.45 141.809ZM1270.04 128.607C1268.95 128.824 1268.04 129.103 1267.31 129.445C1267.25 129.475 1267.19 129.495 1267.11 129.504C1267.06 129.504 1267.01 129.493 1266.95 129.472C1266.91 129.441 1266.86 129.408 1266.8 129.372C1266.75 129.321 1266.72 129.275 1266.7 129.234C1266.66 129.153 1266.64 129.069 1266.63 128.983C1266.64 128.903 1266.67 128.827 1266.71 128.756C1266.77 128.691 1266.84 128.639 1266.92 128.599C1267.71 128.227 1268.69 127.923 1269.87 127.687C1269.93 127.673 1269.99 127.676 1270.05 127.697C1270.11 127.702 1270.17 127.72 1270.21 127.751C1270.26 127.787 1270.3 127.836 1270.33 127.897C1270.37 127.943 1270.39 127.993 1270.41 128.049C1270.45 128.181 1270.42 128.3 1270.34 128.405C1270.26 128.516 1270.16 128.583 1270.04 128.607ZM1247.67 130.982C1248.35 130.893 1248.95 130.797 1249.5 130.696C1249.62 130.672 1249.73 130.701 1249.82 130.783C1249.93 130.855 1250 130.954 1250.02 131.081C1250.05 131.208 1250.02 131.324 1249.93 131.429C1249.86 131.54 1249.76 131.6 1249.64 131.609C1249.1 131.709 1248.48 131.81 1247.78 131.909C1247.66 131.933 1247.54 131.909 1247.43 131.837C1247.34 131.755 1247.28 131.651 1247.26 131.524C1247.23 131.398 1247.26 131.279 1247.33 131.168C1247.42 131.063 1247.53 131.001 1247.67 130.982ZM1265.87 137.172C1266.38 137.415 1266.87 137.931 1267.34 138.72C1267.41 138.826 1267.42 138.948 1267.37 139.084C1267.34 139.21 1267.28 139.306 1267.17 139.37C1267.06 139.435 1266.94 139.452 1266.8 139.42C1266.68 139.378 1266.58 139.304 1266.52 139.197C1266.15 138.581 1265.8 138.188 1265.45 138.018C1265.34 137.961 1265.26 137.874 1265.21 137.757C1265.17 137.641 1265.17 137.524 1265.23 137.409C1265.29 137.278 1265.38 137.19 1265.5 137.146C1265.63 137.106 1265.75 137.115 1265.87 137.172ZM1251.37 123.323C1251.31 123.267 1251.25 123.206 1251.21 123.139C1251.17 123.058 1251.16 122.977 1251.17 122.896C1251.18 122.815 1251.2 122.74 1251.24 122.669C1251.29 122.599 1251.34 122.541 1251.41 122.496C1251.49 122.457 1251.57 122.442 1251.65 122.453C1251.73 122.464 1251.81 122.493 1251.9 122.539C1252.89 123.186 1253.66 123.95 1254.21 124.831C1254.29 124.943 1254.31 125.062 1254.29 125.188C1254.26 125.315 1254.19 125.41 1254.09 125.475C1254 125.515 1253.92 125.536 1253.83 125.541C1253.76 125.55 1253.69 125.532 1253.6 125.485C1253.53 125.444 1253.47 125.39 1253.43 125.324C1252.94 124.566 1252.26 123.899 1251.37 123.323ZM1261.97 138.925C1261.45 139.253 1261.06 139.576 1260.8 139.892C1260.54 140.193 1260.31 140.631 1260.12 141.206C1259.9 141.826 1259.51 142.265 1258.93 142.522C1258.91 142.583 1258.88 142.643 1258.86 142.704C1258.75 143.036 1258.64 143.319 1258.52 143.55C1258.08 144.497 1257.54 145.041 1256.92 145.181L1256.87 145.188C1256.07 145.302 1255.22 145.172 1254.34 144.799C1253.46 144.446 1252.86 143.985 1252.53 143.415C1252.36 143.156 1252.32 142.71 1252.4 142.078C1252.48 141.462 1252.64 140.856 1252.88 140.262C1252.45 139.64 1252.43 138.982 1252.82 138.288C1253 137.758 1253.11 137.314 1253.15 136.956C1253.2 136.582 1253.19 136.248 1253.12 135.953C1253.05 135.644 1252.93 135.271 1252.74 134.834L1252.73 134.804C1252.37 133.97 1252.18 133.227 1252.15 132.574C1252.13 131.927 1252.3 131.111 1252.64 130.128C1253.29 128.288 1254.44 127.034 1256.09 126.367C1257.75 125.706 1259.52 125.723 1261.4 126.42C1263.27 127.131 1264.61 128.285 1265.41 129.882C1266.21 131.479 1266.25 133.199 1265.51 135.044C1265.1 135.95 1264.66 136.669 1264.18 137.201C1263.72 137.717 1263.1 138.222 1262.32 138.716C1262.28 138.72 1262.22 138.758 1262.13 138.827C1262.06 138.872 1262.01 138.905 1261.97 138.925ZM1262.7 123.313C1262.43 124.136 1262.23 124.733 1262.08 125.106C1262.04 125.227 1261.96 125.317 1261.84 125.377C1261.72 125.421 1261.6 125.423 1261.48 125.381C1261.36 125.339 1261.27 125.257 1261.21 125.135C1261.16 125.019 1261.16 124.9 1261.2 124.779C1261.35 124.406 1261.55 123.823 1261.81 123.031C1261.85 122.91 1261.92 122.825 1262.02 122.776C1262.14 122.716 1262.27 122.7 1262.39 122.726C1262.47 122.752 1262.54 122.801 1262.6 122.872C1262.66 122.929 1262.7 123 1262.7 123.086C1262.72 123.162 1262.72 123.238 1262.7 123.313Z" fill="white" fill-opacity="0.3"/>
<path opacity="0.81" d="M183.12 193.807C183.848 193.263 184.574 192.9 185.299 192.716C186.03 192.559 186.705 192.593 187.323 192.818C187.93 193.059 188.442 193.512 188.859 194.178C189.423 195.088 189.521 196.032 189.15 197.009C188.797 197.997 188.123 198.817 187.129 199.47C185.47 200.611 182.969 202.268 179.628 204.44C176.276 206.628 174.164 207.958 173.294 208.429C172.251 208.976 171.177 209.142 170.072 208.926C168.967 208.71 168.088 208.141 167.435 207.219C166.771 206.314 166.536 205.218 166.731 203.93C166.948 202.61 167.409 200.287 168.113 196.961C168.152 196.795 168.195 196.608 168.24 196.398C168.529 195.078 168.87 193.539 169.261 191.783C169.266 191.738 169.383 191.227 169.609 190.25C169.824 189.289 169.952 188.725 169.992 188.56C170.344 186.825 170.887 185.628 171.62 184.968C172.326 184.314 173.317 184.164 174.593 184.52C176.884 185.151 177.552 186.997 176.595 190.055C176.083 191.706 175.372 194.882 174.461 199.584C179.195 196.523 182.082 194.598 183.12 193.807ZM172.432 206.765C173.252 206.333 175.325 205.025 178.65 202.842C181.98 200.686 184.455 199.049 186.076 197.929C186.698 197.507 187.118 197.045 187.336 196.543C187.554 196.04 187.538 195.584 187.285 195.173C186.677 194.186 185.659 194.233 184.232 195.315C183.027 196.21 179.497 198.555 173.642 202.35C173.298 202.575 172.952 202.57 172.605 202.336C172.274 202.113 172.149 201.8 172.228 201.397C173.35 195.419 174.209 191.453 174.806 189.498C175.099 188.565 175.194 187.836 175.092 187.31C174.978 186.8 174.648 186.469 174.102 186.317C173.45 186.142 172.977 186.22 172.682 186.55C172.376 186.897 172.087 187.7 171.814 188.959C171.775 189.125 171.642 189.697 171.415 190.674C171.205 191.663 171.095 192.166 171.084 192.182C170.692 193.939 170.352 195.477 170.063 196.798C170.029 196.991 169.986 197.179 169.936 197.361C169.238 200.642 168.786 202.935 168.579 204.239C168.465 204.979 168.594 205.608 168.967 206.124C169.346 206.668 169.861 206.992 170.513 207.095C171.154 207.215 171.794 207.105 172.432 206.765Z" fill="white" fill-opacity="0.3"/>
<path opacity="0.82" d="M418.718 188.384C418.704 188.426 418.691 188.469 418.677 188.511C418.443 189.231 418.173 189.845 417.867 190.354C417.533 190.878 417.164 191.331 416.758 191.714C416.353 192.097 415.849 192.495 415.247 192.908C415.191 192.937 415.103 192.99 414.984 193.069C414.865 193.147 414.788 193.204 414.753 193.239C413.842 193.809 413.143 194.378 412.654 194.945C412.166 195.511 411.708 196.31 411.279 197.341C410.54 199.254 410.61 201.021 411.488 202.64C412.359 204.281 413.811 205.466 415.844 206.197C417.856 206.921 419.725 206.931 421.451 206.228C423.177 205.525 424.364 204.214 425.011 202.295C425.362 201.215 425.524 200.355 425.498 199.715C425.465 199.095 425.245 198.333 424.837 197.428L424.815 197.386C424.293 196.257 424.007 195.228 423.958 194.299C423.908 193.37 424.107 192.218 424.554 190.842C424.582 190.757 424.617 190.687 424.658 190.63C424.714 190.531 424.749 190.46 424.762 190.418C424.357 189.865 423.512 189.368 422.228 188.927C420.453 193.453 420.443 196.328 422.198 197.554C422.276 197.603 422.34 197.659 422.389 197.721C422.432 197.806 422.465 197.886 422.486 197.964C422.48 198.055 422.474 198.147 422.467 198.238C422.44 198.323 422.402 198.404 422.353 198.482C422.241 198.61 422.098 198.692 421.922 198.728C421.746 198.765 421.584 198.724 421.435 198.605C420.593 198.027 420.038 197.215 419.77 196.168C418.799 197.14 417.732 197.613 416.571 197.586C416.388 197.573 416.236 197.501 416.115 197.368C415.987 197.256 415.93 197.109 415.943 196.926C415.934 196.736 415.996 196.58 416.129 196.46C416.262 196.339 416.42 196.285 416.603 196.298C417.117 196.301 417.654 196.124 418.215 195.768C418.747 195.426 419.187 194.972 419.535 194.407C419.548 194.364 419.569 194.336 419.597 194.322C419.642 192.745 420.099 190.834 420.969 188.589C420.313 188.446 419.717 188.369 419.182 188.359C419.02 188.354 418.866 188.362 418.718 188.384ZM420.195 186.863C420.872 186.942 421.601 187.109 422.385 187.364C423.154 187.59 423.828 187.856 424.407 188.161C424.622 187.646 424.783 187.078 424.891 186.458C424.945 186.148 424.964 185.873 424.948 185.634C424.955 185.613 424.962 185.591 424.968 185.57C424.656 185.235 424.133 184.936 423.399 184.674C422.665 184.412 421.992 184.322 421.38 184.404C421.212 184.49 421 184.819 420.744 185.391C420.626 185.681 420.495 186.012 420.35 186.387C420.316 186.492 420.274 186.619 420.226 186.768L420.195 186.863ZM403 205.534C404.511 205.206 405.768 204.795 406.771 204.302C406.855 204.259 406.946 204.23 407.044 204.215C407.115 204.215 407.192 204.228 407.277 204.256C407.334 204.298 407.401 204.343 407.479 204.391C407.55 204.461 407.599 204.524 407.628 204.58C407.685 204.693 407.718 204.809 407.726 204.928C407.712 205.041 407.678 205.147 407.622 205.246C407.546 205.338 407.451 205.412 407.339 205.47C406.252 206.006 404.89 206.452 403.252 206.81C403.175 206.831 403.094 206.829 403.01 206.801C402.918 206.795 402.844 206.771 402.787 206.729C402.709 206.68 402.649 206.614 402.606 206.53C402.556 206.467 402.521 206.397 402.499 206.319C402.441 206.137 402.472 205.971 402.59 205.822C402.688 205.667 402.824 205.571 403 205.534ZM434.055 201.687C433.12 201.828 432.276 201.975 431.524 202.129C431.349 202.165 431.197 202.128 431.069 202.016C430.914 201.919 430.818 201.782 430.781 201.607C430.745 201.431 430.786 201.269 430.904 201.12C431.002 200.964 431.135 200.879 431.304 200.864C432.056 200.71 432.913 200.556 433.876 200.401C434.052 200.364 434.218 200.395 434.373 200.492C434.501 200.604 434.583 200.747 434.619 200.923C434.656 201.099 434.625 201.264 434.528 201.42C434.41 201.569 434.252 201.658 434.055 201.687ZM408.589 193.518C407.876 193.193 407.181 192.487 406.504 191.401C406.411 191.254 406.396 191.085 406.458 190.895C406.491 190.719 406.582 190.584 406.729 190.492C406.876 190.399 407.048 190.373 407.246 190.414C407.415 190.469 407.546 190.57 407.639 190.717C408.159 191.565 408.663 192.103 409.15 192.332C409.313 192.408 409.426 192.527 409.491 192.688C409.555 192.849 409.55 193.011 409.473 193.174C409.39 193.357 409.268 193.482 409.107 193.546C408.924 193.604 408.752 193.595 408.589 193.518ZM429.09 212.431C429.182 212.508 429.26 212.592 429.324 212.683C429.381 212.795 429.403 212.908 429.39 213.02C429.376 213.133 429.342 213.239 429.287 213.338C429.231 213.437 429.158 213.518 429.067 213.582C428.954 213.64 428.842 213.662 428.729 213.648C428.617 213.635 428.5 213.597 428.38 213.535C426.98 212.659 425.891 211.615 425.115 210.403C425.001 210.249 424.961 210.084 424.995 209.907C425.029 209.731 425.119 209.597 425.266 209.504C425.378 209.447 425.494 209.414 425.614 209.406C425.712 209.392 425.822 209.415 425.942 209.478C426.041 209.533 426.122 209.607 426.186 209.698C426.877 210.741 427.845 211.652 429.09 212.431ZM413.976 190.986C414.69 190.516 415.225 190.058 415.581 189.611C415.93 189.186 416.235 188.572 416.496 187.767C416.778 186.899 417.319 186.279 418.119 185.907C418.146 185.823 418.174 185.738 418.201 185.653C418.352 185.188 418.504 184.792 418.657 184.467C419.252 183.139 419.982 182.37 420.846 182.159L420.92 182.148C422.03 181.971 423.207 182.131 424.45 182.628C425.678 183.098 426.528 183.725 426.998 184.509C427.233 184.867 427.301 185.486 427.202 186.366C427.11 187.226 426.906 188.072 426.588 188.905C427.2 189.759 427.242 190.674 426.715 191.649C426.474 192.39 426.331 193.011 426.285 193.511C426.233 194.032 426.257 194.496 426.359 194.904C426.454 195.333 426.637 195.849 426.909 196.452L426.931 196.494C427.446 197.644 427.732 198.673 427.788 199.581C427.823 200.482 427.617 201.62 427.17 202.996C426.31 205.572 424.74 207.344 422.459 208.311C420.158 209.272 417.694 209.291 415.069 208.367C412.45 207.423 410.562 205.85 409.405 203.648C408.248 201.447 408.16 199.054 409.14 196.471C409.693 195.199 410.291 194.188 410.933 193.437C411.568 192.707 412.421 191.99 413.492 191.285C413.542 191.278 413.629 191.224 413.755 191.125C413.846 191.061 413.92 191.014 413.976 190.986ZM413.338 212.72C413.689 211.57 413.96 210.734 414.154 210.211C414.209 210.042 414.32 209.914 414.489 209.829C414.65 209.764 414.815 209.759 414.985 209.814C415.154 209.869 415.282 209.981 415.367 210.149C415.432 210.311 415.437 210.476 415.382 210.645C415.189 211.168 414.924 211.983 414.587 213.091C414.532 213.26 414.435 213.38 414.294 213.452C414.126 213.537 413.954 213.563 413.778 213.53C413.672 213.495 413.576 213.429 413.491 213.331C413.399 213.254 413.349 213.156 413.341 213.037C413.305 212.931 413.304 212.826 413.338 212.72Z" fill="white" fill-opacity="0.3"/>
<path opacity="0.82" d="M698.389 151.602C698.023 150.936 697.806 150.291 697.738 149.668C697.693 149.044 697.8 148.488 698.058 148.002C698.329 147.527 698.765 147.155 699.365 146.888C700.185 146.525 700.979 146.555 701.746 146.976C702.524 147.384 703.125 148.038 703.551 148.938C704.304 150.447 705.386 152.713 706.797 155.736C708.221 158.77 709.077 160.676 709.366 161.452C709.699 162.381 709.711 163.29 709.403 164.181C709.095 165.072 708.521 165.734 707.681 166.169C706.853 166.614 705.917 166.681 704.872 166.369C703.803 166.035 701.93 165.382 699.255 164.411C699.122 164.359 698.972 164.302 698.803 164.24C697.742 163.847 696.506 163.385 695.096 162.856C695.06 162.846 694.65 162.691 693.865 162.389C693.094 162.098 692.641 161.927 692.509 161.875C691.112 161.381 690.182 160.791 689.721 160.106C689.261 159.445 689.252 158.606 689.695 157.59C690.486 155.763 692.094 155.425 694.518 156.574C695.827 157.191 698.377 158.151 702.169 159.454C700.184 155.172 698.923 152.555 698.389 151.602ZM707.886 161.973C707.624 161.242 706.781 159.372 705.358 156.361C703.959 153.349 702.89 151.106 702.151 149.632C701.873 149.067 701.539 148.665 701.148 148.425C700.757 148.186 700.377 148.147 700.007 148.308C699.117 148.697 699.038 149.547 699.768 150.856C700.37 151.959 701.903 155.159 704.367 160.456C704.513 160.767 704.469 161.053 704.235 161.314C704.011 161.562 703.737 161.629 703.412 161.516C698.587 159.89 695.399 158.715 693.848 157.993C693.108 157.641 692.515 157.477 692.067 157.501C691.631 157.535 691.318 157.77 691.128 158.206C690.907 158.726 690.917 159.127 691.156 159.41C691.408 159.704 692.04 160.038 693.052 160.41C693.185 160.462 693.644 160.639 694.428 160.941C695.223 161.23 695.627 161.38 695.639 161.392C697.05 161.921 698.286 162.382 699.347 162.775C699.503 162.826 699.654 162.883 699.799 162.947C702.438 163.908 704.286 164.55 705.343 164.873C705.944 165.054 706.48 165.02 706.951 164.771C707.447 164.52 707.775 164.13 707.936 163.602C708.11 163.084 708.094 162.542 707.886 161.973Z" fill="white" fill-opacity="0.3"/>
<path opacity="0.88" d="M1160.27 49.8712C1160.9 52.6148 1160.25 55.4093 1158.32 58.2545C1156.99 60.1987 1155.1 61.3716 1152.63 61.7733C1153.02 63.1852 1152.75 64.5201 1151.83 65.7779C1153.14 66.3769 1154.27 67.2401 1155.23 68.3674C1155.94 69.2377 1156.49 70.2489 1156.86 71.4009C1157.21 72.577 1157.35 73.7748 1157.28 74.9943C1157.21 76.2512 1156.93 77.4186 1156.43 78.4964C1155.83 79.8048 1155.05 80.9204 1154.1 81.8432C1155.69 81.6514 1157.27 81.3604 1158.84 80.9703C1160.44 80.5936 1161.81 80.1702 1162.95 79.7002C1164.08 79.2542 1164.84 78.8234 1165.23 78.4076C1165.89 77.7316 1166.19 77.1083 1166.12 76.5375C1166.06 75.9667 1165.62 75.5344 1164.81 75.2403C1164.45 75.1388 1164.2 74.918 1164.04 74.5778C1163.89 74.2751 1163.87 73.9468 1163.97 73.593C1164.1 73.2525 1164.32 72.9964 1164.63 72.8246C1164.96 72.6903 1165.29 72.6859 1165.63 72.8115C1167.46 73.4449 1168.48 74.5012 1168.7 75.9803C1168.91 77.4835 1168.38 78.9057 1167.1 80.2469C1165.92 81.4567 1163.29 82.5553 1159.21 83.5427C1155.16 84.5435 1151.6 84.8926 1148.55 84.59C1148.37 84.5822 1148.19 84.5314 1148.02 84.4378C1147.11 84.436 1146.17 84.2975 1145.22 84.0224C1141.47 82.9486 1139.04 81.0549 1137.96 78.3412C1137.28 76.6079 1137.18 74.6892 1137.65 72.585C1138.04 70.6872 1139 68.9618 1140.52 67.4087C1142.03 65.8797 1143.68 65.0299 1145.48 64.8593C1146.63 64.7725 1147.73 64.7942 1148.76 64.9246C1148.77 64.9004 1148.8 64.8709 1148.86 64.836C1150.01 63.897 1150.24 62.8757 1149.56 61.7722C1146.32 61.3009 1143.73 59.6593 1141.78 56.8472C1140.86 55.5483 1140.46 53.981 1140.56 52.1451C1140.62 50.32 1141.18 48.6084 1142.22 47.0102C1143.35 45.2671 1144.83 44.0088 1146.68 43.2353C1148.51 42.4858 1150.51 42.3606 1152.66 42.8597C1154.05 43.1907 1155.29 43.7188 1156.37 44.444C1160.32 46.6619 1163.78 49.0076 1166.76 51.481C1169.75 53.9544 1171.52 55.901 1172.09 57.3208C1172.35 57.9369 1172.46 58.584 1172.43 59.2621C1172.41 59.9401 1172.24 60.5446 1171.95 61.0755C1171.67 61.6439 1171.29 62.1159 1170.83 62.4916C1170.38 62.9047 1169.82 63.1585 1169.13 63.2529C1168.45 63.3474 1167.74 63.2677 1167 63.0138C1166.84 62.9577 1166.7 62.8653 1166.58 62.7368C1166.45 62.6324 1166.35 62.4985 1166.28 62.3351C1166.2 62.1958 1166.15 62.0391 1166.12 61.8649C1166.11 61.7042 1166.14 61.5447 1166.19 61.3865C1166.29 61.1559 1166.43 60.9642 1166.61 60.8113C1166.77 60.6825 1166.97 60.5858 1167.19 60.5213C1167.43 60.4943 1167.65 60.5222 1167.86 60.6051C1168.55 60.8322 1169.1 60.6642 1169.51 60.101C1169.93 59.5753 1169.99 58.979 1169.7 58.312C1169.38 57.5083 1168.36 56.31 1166.63 54.7171C1164.88 53.1483 1162.76 51.533 1160.27 49.8712ZM1150.79 59.0456C1151.85 59.066 1152.84 58.8734 1153.76 58.4679C1154.68 58.0623 1155.41 57.4573 1155.95 56.6528C1156.83 55.4058 1157.36 54.1565 1157.55 52.9048C1157.75 51.6906 1157.64 50.6053 1157.23 49.649C1156.8 48.7168 1156.14 47.8799 1155.26 47.1384C1154.4 46.4103 1153.32 45.9075 1152.02 45.63C1150.48 45.2804 1149.07 45.3622 1147.77 45.8753C1146.46 46.4125 1145.4 47.3059 1144.58 48.5556C1144.11 49.301 1143.76 50.0893 1143.56 50.9202C1143.35 51.7512 1143.3 52.5458 1143.42 53.3042C1143.51 54.0491 1143.73 54.6947 1144.09 55.2411C1145.63 57.4184 1147.62 58.664 1150.07 58.9779C1150.32 58.9267 1150.56 58.9493 1150.79 59.0456ZM1153.83 77.2929C1154.36 76.1668 1154.55 74.9151 1154.39 73.5378C1154.23 72.1846 1153.78 71.0662 1153.04 70.1825C1151.4 68.2358 1148.97 67.41 1145.75 67.7052C1144.58 67.8162 1143.48 68.4175 1142.43 69.5092C1141.37 70.6251 1140.71 71.8505 1140.44 73.1853C1140.08 74.7507 1140.13 76.1054 1140.6 77.2493C1141.34 79.1084 1143.13 80.4507 1145.99 81.2761C1147.73 81.7702 1149.29 81.6387 1150.66 80.8817C1152.01 80.1488 1153.07 78.9525 1153.83 77.2929Z" fill="white" fill-opacity="0.3"/>
<path opacity="0.83" d="M-0.375869 126.601C1.61163 125.113 4.09738 124.634 7.08138 125.164C9.12589 125.538 10.7519 126.646 11.9594 128.486C12.9595 127.67 14.1312 127.406 15.4745 127.694C15.4879 126.425 15.778 125.204 16.3449 124.031C16.7893 123.142 17.4092 122.34 18.2047 121.628C19.0245 120.918 19.9395 120.375 20.95 119.999C21.9868 119.601 23.0298 119.411 24.079 119.429C25.3486 119.443 26.5264 119.668 27.6123 120.105C26.8875 118.893 26.0856 117.723 25.2067 116.595C24.33 115.443 23.4969 114.491 22.7075 113.737C21.9423 112.986 21.3225 112.529 20.848 112.365C20.0668 112.077 19.4573 112.06 19.0195 112.315C18.5817 112.57 18.3906 113.079 18.4461 113.841C18.4913 114.163 18.4052 114.448 18.1878 114.698C17.9968 114.926 17.7405 115.062 17.4189 115.108C17.0993 115.128 16.8136 115.042 16.5617 114.849C16.3361 114.634 16.2129 114.367 16.192 114.047C16.0473 112.348 16.5315 111.144 17.6443 110.435C18.7815 109.728 20.1202 109.65 21.6606 110.2C23.0576 110.713 24.8862 112.437 27.1466 115.372C29.4091 118.283 30.9658 121.022 31.8164 123.589C31.8765 123.741 31.8991 123.901 31.8842 124.071C32.2107 124.808 32.4339 125.61 32.5536 126.476C33.0369 129.891 32.3791 132.521 30.5801 134.368C29.4269 135.538 27.9175 136.31 26.0519 136.684C24.3824 137.051 22.6483 136.9 20.8496 136.229C19.0752 135.561 17.7967 134.532 17.0139 133.144C16.5303 132.247 16.1559 131.359 15.8906 130.48C15.8664 130.478 15.8311 130.463 15.7847 130.434C14.6145 129.843 13.707 130.02 13.0622 130.966C13.8453 133.747 13.4521 136.425 11.8827 139C11.166 140.209 10.0493 141.101 8.53264 141.677C7.03808 142.279 5.45937 142.446 3.79654 142.179C1.98819 141.898 0.440554 141.152 -0.846372 139.94C-2.10904 138.729 -2.92547 137.167 -3.29565 135.253C-3.5291 134.011 -3.54745 132.824 -3.35071 131.693C-2.97848 127.717 -2.33067 124.084 -1.40728 120.792C-0.483898 117.5 0.447838 115.37 1.38792 114.401C1.79203 113.973 2.27253 113.648 2.82944 113.428C3.38634 113.208 3.93157 113.121 4.46513 113.168C5.02507 113.192 5.53907 113.323 6.00716 113.559C6.50161 113.774 6.90952 114.139 7.23087 114.656C7.55223 115.173 7.74383 115.776 7.80568 116.466C7.8172 116.614 7.79235 116.758 7.73111 116.899C7.69413 117.043 7.62182 117.171 7.5142 117.284C7.43084 117.398 7.32428 117.499 7.19452 117.586C7.0669 117.648 6.92926 117.684 6.78162 117.696C6.56123 117.701 6.3572 117.659 6.16954 117.569C6.00614 117.482 5.85804 117.359 5.72526 117.2C5.61885 117.02 5.562 116.832 5.55472 116.636C5.48863 115.994 5.1556 115.611 4.55565 115.485C3.98207 115.337 3.47898 115.501 3.04638 115.976C2.5104 116.516 1.91182 117.771 1.25065 119.741C0.613739 121.714 0.0715645 124.001 -0.375869 126.601ZM10.4238 130.955C10.0594 130.092 9.54884 129.363 8.8922 128.768C8.23554 128.173 7.48598 127.802 6.6435 127.655C5.32232 127.393 4.12333 127.41 3.04651 127.707C1.99607 127.981 1.16011 128.458 0.53864 129.137C-0.058576 129.818 -0.497693 130.647 -0.778711 131.624C-1.05761 132.577 -1.07609 133.627 -0.834153 134.772C-0.562809 136.14 0.0118418 137.253 0.889801 138.112C1.79201 138.973 2.8937 139.509 4.19486 139.721C4.96671 139.837 5.72491 139.83 6.46947 139.7C7.21403 139.57 7.87112 139.322 8.44076 138.956C9.00827 138.615 9.44769 138.201 9.75903 137.715C10.9622 135.694 11.2517 133.642 10.6275 131.559C10.4968 131.377 10.4289 131.175 10.4238 130.955ZM24.0413 121.955C22.9436 121.933 21.8667 122.229 20.8108 122.846C19.7792 123.464 19.0401 124.23 18.5936 125.144C17.6107 127.16 17.8168 129.414 19.2116 131.907C19.7194 132.807 20.6012 133.483 21.8569 133.935C23.1368 134.389 24.3626 134.484 25.5343 134.22C26.9264 133.95 27.9992 133.421 28.7525 132.632C29.987 131.371 30.4246 129.442 30.0653 126.845C29.8373 125.261 29.1731 124.054 28.0726 123.224C26.9963 122.397 25.6526 121.974 24.0413 121.955Z" fill="white" fill-opacity="0.3"/>
<path opacity="0.89" d="M164.407 528.027C165.186 528.785 165.753 529.577 166.106 530.4C166.428 531.236 166.514 532.04 166.365 532.813C166.193 533.576 165.753 534.267 165.043 534.885C164.072 535.723 162.974 536.015 161.749 535.76C160.514 535.527 159.418 534.883 158.459 533.831C156.798 532.081 154.37 529.434 151.175 525.888C147.958 522.333 145.989 520.084 145.269 519.142C144.426 518.011 144.029 516.772 144.078 515.425C144.126 514.077 144.635 512.931 145.602 511.985C146.549 511.03 147.801 510.547 149.361 510.537C150.964 510.546 153.798 510.656 157.864 510.865C158.067 510.881 158.298 510.896 158.554 510.91C160.17 511.005 162.054 511.119 164.205 511.253C164.258 511.251 164.885 511.293 166.083 511.378C167.261 511.452 167.951 511.498 168.155 511.513C170.273 511.605 171.79 512.023 172.708 512.767C173.615 513.48 173.977 514.624 173.796 516.199C173.478 519.029 171.42 520.164 167.622 519.605C165.574 519.309 161.683 519.062 155.951 518.866C160.458 523.893 163.277 526.947 164.407 528.027ZM147.076 517.811C147.741 518.701 149.677 520.908 152.882 524.431C156.056 527.966 158.456 530.588 160.084 532.296C160.7 532.952 161.326 533.362 161.961 533.527C162.596 533.691 163.132 533.585 163.571 533.21C164.625 532.305 164.379 531.11 162.832 529.624C161.547 528.367 158.112 524.63 152.525 518.415C152.195 518.05 152.135 517.64 152.347 517.186C152.549 516.753 152.896 516.546 153.388 516.565C160.67 516.772 165.522 517.045 167.946 517.385C169.105 517.556 169.986 517.532 170.589 517.313C171.17 517.083 171.5 516.631 171.577 515.955C171.662 515.152 171.482 514.606 171.036 514.319C170.568 514.022 169.564 513.831 168.023 513.745C167.82 513.729 167.119 513.679 165.92 513.594C164.711 513.531 164.095 513.494 164.074 513.484C161.922 513.35 160.039 513.236 158.423 513.142C158.188 513.137 157.958 513.122 157.733 513.096C153.72 512.885 150.924 512.78 149.342 512.781C148.445 512.784 147.726 513.055 147.185 513.593C146.612 514.143 146.326 514.813 146.326 515.604C146.305 516.384 146.555 517.12 147.076 517.811Z" fill="white" fill-opacity="0.3"/>
<path opacity="0.74" d="M967.639 389.435C966.499 389.59 965.47 389.547 964.553 389.306C963.647 389.03 962.92 388.578 962.372 387.949C961.848 387.309 961.559 386.491 961.506 385.497C961.439 384.141 961.911 383.036 962.922 382.18C963.921 381.302 965.172 380.807 966.675 380.694C969.216 380.448 973.006 380.148 978.044 379.794C983.105 379.428 986.262 379.251 987.517 379.264C989.009 379.298 990.301 379.774 991.394 380.693C992.486 381.611 993.11 382.782 993.268 384.205C993.448 385.616 993.035 386.976 992.028 388.283C990.975 389.614 989.037 391.906 986.214 395.16C986.068 395.319 985.905 395.501 985.726 395.706C984.594 396.992 983.272 398.488 981.759 400.195C981.725 400.241 981.283 400.736 980.431 401.68C979.602 402.613 979.114 403.16 978.968 403.319C977.512 405.025 976.175 406.019 974.956 406.299C973.771 406.591 972.581 406.148 971.386 404.97C969.233 402.862 969.627 400.406 972.567 397.603C974.149 396.088 976.89 393.004 980.788 388.352C973.659 388.835 969.277 389.196 967.639 389.435ZM987.45 381.638C986.275 381.613 983.173 381.789 978.147 382.167C973.131 382.51 969.381 382.804 966.896 383.049C965.947 383.135 965.197 383.389 964.647 383.812C964.096 384.234 963.834 384.75 963.862 385.361C963.929 386.829 965.087 387.403 967.333 387.08C969.219 386.829 974.573 386.398 983.396 385.789C983.916 385.751 984.296 385.968 984.537 386.441C984.766 386.892 984.713 387.316 984.377 387.714C979.46 393.651 976.07 397.52 974.208 399.32C973.31 400.174 972.756 400.925 972.547 401.571C972.359 402.205 972.522 402.774 973.034 403.279C973.649 403.874 974.221 404.078 974.751 403.893C975.304 403.697 976.118 402.984 977.193 401.756C977.339 401.596 977.838 401.044 978.69 400.1C979.53 399.133 979.961 398.643 979.984 398.632C981.497 396.925 982.819 395.429 983.951 394.143C984.108 393.949 984.27 393.767 984.439 393.597C987.229 390.388 989.139 388.124 990.168 386.805C990.75 386.055 990.993 385.279 990.897 384.477C990.811 383.641 990.439 382.966 989.779 382.451C989.142 381.925 988.366 381.654 987.45 381.638Z" fill="white" fill-opacity="0.3"/>
<path opacity="0.72" d="M1018.53 232.456C1018.49 232.426 1018.45 232.396 1018.4 232.365C1017.7 231.851 1017.12 231.335 1016.67 230.816C1016.21 230.262 1015.84 229.694 1015.57 229.111C1015.29 228.528 1015.03 227.832 1014.79 227.022C1014.78 226.951 1014.76 226.835 1014.71 226.676C1014.67 226.517 1014.63 226.412 1014.61 226.361C1014.31 225.156 1013.93 224.184 1013.48 223.444C1013.03 222.704 1012.32 221.915 1011.34 221.075C1009.5 219.579 1007.53 219.025 1005.44 219.412C1003.32 219.784 1001.5 220.957 999.968 222.931C998.453 224.885 997.774 226.936 997.93 229.085C998.087 231.235 999.104 233.008 1000.98 234.406C1002.05 235.177 1002.93 235.663 1003.65 235.863C1004.34 236.049 1005.26 236.078 1006.4 235.953L1006.45 235.944C1007.88 235.773 1009.11 235.827 1010.15 236.104C1011.19 236.382 1012.39 237.013 1013.74 237.996C1013.82 238.056 1013.89 238.12 1013.94 238.186C1014.03 238.282 1014.09 238.346 1014.13 238.376C1014.89 238.128 1015.73 237.376 1016.68 236.121C1012.34 232.553 1009.18 231.514 1007.2 233.006C1007.12 233.075 1007.04 233.125 1006.95 233.157C1006.84 233.174 1006.74 233.181 1006.65 233.177C1006.55 233.137 1006.45 233.098 1006.35 233.058C1006.27 232.997 1006.19 232.926 1006.13 232.845C1006.03 232.677 1005.99 232.489 1006.01 232.283C1006.03 232.077 1006.14 231.913 1006.32 231.792C1007.26 231.073 1008.35 230.752 1009.59 230.831C1008.87 229.416 1008.73 228.075 1009.18 226.807C1009.26 226.61 1009.39 226.469 1009.58 226.384C1009.75 226.283 1009.93 226.273 1010.13 226.352C1010.34 226.411 1010.49 226.534 1010.57 226.724C1010.66 226.913 1010.66 227.106 1010.58 227.303C1010.4 227.867 1010.4 228.52 1010.59 229.264C1010.78 229.972 1011.12 230.618 1011.61 231.202C1011.66 231.232 1011.68 231.265 1011.69 231.301C1013.4 231.914 1015.34 233.099 1017.5 234.858C1017.89 234.188 1018.19 233.56 1018.39 232.976C1018.45 232.799 1018.5 232.626 1018.53 232.456ZM1019.67 234.624C1019.35 235.339 1018.9 236.082 1018.34 236.853C1017.82 237.617 1017.28 238.264 1016.74 238.792C1017.23 239.212 1017.8 239.592 1018.44 239.932C1018.76 240.102 1019.06 240.221 1019.33 240.289C1019.35 240.304 1019.37 240.32 1019.39 240.335C1019.87 240.111 1020.39 239.643 1020.94 238.929C1021.49 238.215 1021.83 237.508 1021.95 236.805C1021.92 236.59 1021.63 236.239 1021.1 235.753C1020.82 235.52 1020.5 235.257 1020.14 234.964C1020.04 234.889 1019.91 234.798 1019.77 234.692L1019.67 234.624ZM1005.29 209.044C1005.11 210.822 1005.11 212.351 1005.29 213.63C1005.31 213.738 1005.31 213.849 1005.29 213.962C1005.27 214.04 1005.22 214.12 1005.16 214.204C1005.1 214.251 1005.02 214.309 1004.94 214.377C1004.84 214.43 1004.75 214.462 1004.68 214.474C1004.54 214.496 1004.4 214.491 1004.26 214.457C1004.14 214.402 1004.04 214.326 1003.95 214.23C1003.88 214.113 1003.83 213.982 1003.81 213.838C1003.61 212.451 1003.6 210.794 1003.79 208.866C1003.8 208.773 1003.83 208.685 1003.89 208.602C1003.93 208.503 1003.98 208.43 1004.05 208.383C1004.13 208.315 1004.22 208.272 1004.33 208.255C1004.42 208.223 1004.51 208.209 1004.6 208.212C1004.82 208.214 1004.99 208.307 1005.12 208.49C1005.25 208.653 1005.31 208.837 1005.29 209.044ZM998.42 244.568C998.6 243.489 998.739 242.509 998.839 241.627C998.862 241.421 998.957 241.268 999.125 241.168C999.288 241.031 999.473 240.974 999.679 240.997C999.885 241.02 1000.05 241.123 1000.17 241.306C1000.31 241.469 1000.35 241.646 1000.31 241.837C1000.21 242.719 1000.07 243.717 999.899 244.831C999.877 245.038 999.784 245.209 999.621 245.345C999.453 245.446 999.266 245.484 999.059 245.462C998.853 245.439 998.682 245.347 998.545 245.184C998.424 245 998.383 244.795 998.42 244.568ZM1016.5 219.483C1017.12 218.815 1018.14 218.303 1019.58 217.946C1019.77 217.897 1019.96 217.94 1020.15 218.077C1020.33 218.177 1020.45 218.324 1020.5 218.519C1020.54 218.714 1020.51 218.913 1020.4 219.115C1020.28 219.282 1020.12 219.39 1019.92 219.439C1018.8 219.708 1018.03 220.07 1017.61 220.524C1017.47 220.676 1017.29 220.758 1017.09 220.771C1016.89 220.785 1016.72 220.721 1016.57 220.579C1016.39 220.422 1016.3 220.243 1016.29 220.042C1016.29 219.821 1016.36 219.635 1016.5 219.483ZM988.38 235.269C988.262 235.343 988.142 235.399 988.019 235.437C987.876 235.459 987.744 235.443 987.625 235.389C987.506 235.334 987.401 235.258 987.312 235.162C987.223 235.065 987.16 234.955 987.122 234.833C987.099 234.689 987.115 234.557 987.17 234.438C987.225 234.319 987.308 234.204 987.42 234.094C988.884 232.868 990.421 232.044 992.031 231.623C992.241 231.553 992.437 231.568 992.618 231.668C992.8 231.768 992.916 231.916 992.965 232.111C992.988 232.254 992.982 232.394 992.948 232.528C992.929 232.641 992.864 232.753 992.752 232.863C992.656 232.952 992.546 233.015 992.423 233.053C991.029 233.44 989.681 234.178 988.38 235.269ZM1017.36 226.312C1017.62 227.265 1017.94 228.017 1018.3 228.568C1018.64 229.103 1019.21 229.658 1020 230.233C1020.86 230.853 1021.34 231.669 1021.47 232.682C1021.55 232.742 1021.63 232.803 1021.72 232.863C1022.18 233.196 1022.56 233.504 1022.86 233.788C1024.11 234.917 1024.69 235.994 1024.61 237.02L1024.6 237.105C1024.4 238.39 1023.8 239.627 1022.81 240.816C1021.86 241.999 1020.86 242.709 1019.83 242.946C1019.35 243.076 1018.65 242.93 1017.72 242.507C1016.8 242.099 1015.95 241.571 1015.14 240.924C1013.99 241.292 1012.97 241.011 1012.08 240.083C1011.35 239.553 1010.72 239.174 1010.19 238.946C1009.63 238.702 1009.11 238.563 1008.63 238.529C1008.12 238.48 1007.49 238.497 1006.73 238.581L1006.68 238.59C1005.23 238.745 1003.99 238.692 1002.98 238.43C1001.97 238.146 1000.79 237.513 999.441 236.53C996.916 234.663 995.529 232.303 995.28 229.45C995.046 226.576 995.905 223.86 997.859 221.303C999.833 218.761 1002.24 217.247 1005.07 216.761C1007.91 216.275 1010.57 217.033 1013.06 219.034C1014.26 220.096 1015.16 221.115 1015.75 222.089C1016.33 223.048 1016.81 224.243 1017.21 225.673C1017.2 225.73 1017.22 225.845 1017.29 226.019C1017.33 226.142 1017.35 226.24 1017.36 226.312ZM993.69 217.845C994.83 218.641 995.652 219.239 996.158 219.638C996.324 219.759 996.425 219.927 996.459 220.143C996.472 220.343 996.418 220.527 996.297 220.693C996.176 220.86 996.008 220.96 995.792 220.995C995.592 221.008 995.408 220.954 995.241 220.833C994.736 220.434 993.934 219.852 992.837 219.086C992.67 218.965 992.572 218.814 992.544 218.635C992.51 218.419 992.543 218.22 992.643 218.039C992.719 217.934 992.826 217.853 992.964 217.794C993.081 217.72 993.207 217.701 993.341 217.735C993.47 217.733 993.586 217.769 993.69 217.845Z" fill="white" fill-opacity="0.3"/>
<path opacity="0.75" d="M519.739 377.357C519.745 377.316 519.752 377.275 519.758 377.233C519.869 376.533 520.029 375.924 520.238 375.408C520.47 374.874 520.746 374.4 521.065 373.986C521.384 373.572 521.792 373.129 522.289 372.659C522.337 372.624 522.41 372.562 522.509 372.472C522.608 372.382 522.671 372.318 522.698 372.28C523.458 371.618 524.022 370.989 524.391 370.393C524.76 369.796 525.068 368.989 525.314 367.972C525.717 366.092 525.393 364.467 524.343 363.096C523.295 361.705 521.777 360.82 519.788 360.442C517.819 360.066 516.087 360.331 514.591 361.235C513.096 362.139 512.19 363.527 511.872 365.399C511.705 366.451 511.681 367.271 511.799 367.86C511.92 368.428 512.236 369.102 512.747 369.88L512.773 369.915C513.422 370.885 513.838 371.795 514.02 372.648C514.201 373.501 514.186 374.597 513.974 375.937C513.961 376.019 513.939 376.09 513.909 376.148C513.872 376.248 513.85 376.319 513.844 376.36C514.3 376.813 515.156 377.149 516.409 377.369C517.389 372.918 516.976 370.254 515.172 369.376C515.093 369.343 515.025 369.3 514.97 369.249C514.918 369.178 514.876 369.108 514.845 369.039C514.837 368.954 514.83 368.868 514.822 368.782C514.835 368.7 514.859 368.619 514.892 368.54C514.977 368.405 515.098 368.308 515.255 368.249C515.413 368.189 515.569 368.203 515.724 368.291C516.588 368.703 517.222 369.374 517.624 370.303C518.38 369.261 519.298 368.667 520.378 368.521C520.549 368.506 520.7 368.551 520.832 368.657C520.966 368.741 521.041 368.869 521.056 369.041C521.092 369.215 521.057 369.368 520.952 369.5C520.846 369.631 520.708 369.704 520.537 369.719C520.06 369.791 519.589 370.034 519.122 370.446C518.679 370.84 518.339 371.325 518.1 371.9C518.093 371.941 518.078 371.971 518.054 371.988C518.244 373.455 518.101 375.291 517.625 377.498C518.253 377.534 518.816 377.517 519.313 377.448C519.463 377.43 519.605 377.399 519.739 377.357ZM518.594 378.982C517.956 379.008 517.256 378.96 516.493 378.84C515.748 378.743 515.085 378.595 514.503 378.398C514.381 378.906 514.315 379.456 514.306 380.046C514.301 380.341 514.324 380.598 514.374 380.817C514.37 380.838 514.367 380.859 514.364 380.879C514.702 381.144 515.231 381.344 515.949 381.479C516.667 381.614 517.303 381.598 517.857 381.432C518.001 381.328 518.149 380.993 518.302 380.425C518.368 380.14 518.441 379.814 518.521 379.446C518.537 379.343 518.557 379.219 518.579 379.075L518.594 378.982ZM531.778 359.172C530.427 359.697 529.324 360.262 528.467 360.866C528.396 360.918 528.315 360.958 528.226 360.986C528.161 360.997 528.088 360.996 528.005 360.983C527.947 360.952 527.878 360.92 527.799 360.886C527.723 360.832 527.667 360.781 527.633 360.733C527.563 360.638 527.516 360.535 527.491 360.426C527.487 360.319 527.503 360.216 527.54 360.117C527.598 360.02 527.674 359.937 527.77 359.868C528.698 359.212 529.893 358.598 531.357 358.027C531.425 357.996 531.501 357.987 531.583 358C531.669 357.992 531.741 358.004 531.8 358.034C531.879 358.068 531.945 358.12 531.997 358.192C532.052 358.243 532.095 358.303 532.127 358.371C532.207 358.532 532.203 358.69 532.115 358.845C532.048 359.003 531.935 359.112 531.778 359.172ZM503.586 367.288C504.432 367.02 505.191 366.76 505.865 366.508C506.022 366.448 506.168 366.461 506.303 366.546C506.461 366.613 506.57 366.725 506.63 366.883C506.689 367.04 506.675 367.196 506.587 367.351C506.52 367.51 506.409 367.608 506.255 367.647C505.581 367.9 504.81 368.168 503.941 368.453C503.783 368.513 503.626 368.509 503.467 368.442C503.333 368.357 503.236 368.236 503.176 368.079C503.116 367.921 503.12 367.763 503.188 367.605C503.276 367.45 503.409 367.344 503.586 367.288ZM528.365 371.117C529.073 371.314 529.82 371.866 530.606 372.772C530.714 372.894 530.753 373.048 530.723 373.234C530.718 373.402 530.654 373.54 530.531 373.647C530.408 373.755 530.253 373.804 530.064 373.795C529.899 373.769 529.763 373.695 529.656 373.572C529.05 372.863 528.504 372.439 528.019 372.299C527.858 372.252 527.735 372.159 527.652 372.019C527.568 371.879 527.55 371.728 527.597 371.566C527.647 371.384 527.741 371.251 527.881 371.168C528.042 371.087 528.203 371.071 528.365 371.117ZM506.609 356.611C506.512 356.554 506.427 356.487 506.355 356.413C506.285 356.317 506.249 356.216 506.244 356.11C506.24 356.004 506.256 355.9 506.293 355.801C506.33 355.701 506.386 355.615 506.461 355.542C506.556 355.473 506.657 355.436 506.764 355.432C506.87 355.427 506.983 355.445 507.104 355.485C508.529 356.091 509.69 356.899 510.587 357.907C510.715 358.033 510.776 358.18 510.77 358.348C510.765 358.516 510.701 358.654 510.578 358.761C510.483 358.831 510.38 358.878 510.27 358.903C510.181 358.931 510.077 358.925 509.956 358.884C509.857 358.848 509.77 358.792 509.698 358.717C508.905 357.852 507.875 357.15 506.609 356.611ZM523.748 374.253C523.156 374.793 522.728 375.295 522.464 375.76C522.203 376.205 522.011 376.819 521.887 377.602C521.753 378.447 521.343 379.101 520.657 379.562C520.644 379.645 520.631 379.727 520.618 379.81C520.546 380.263 520.464 380.652 520.37 380.975C520.014 382.292 519.451 383.111 518.682 383.433L518.615 383.454C517.612 383.781 516.499 383.805 515.276 383.527C514.069 383.273 513.191 382.817 512.64 382.159C512.37 381.863 512.216 381.3 512.179 380.47C512.138 379.66 512.203 378.847 512.375 378.029C511.683 377.328 511.51 376.487 511.856 375.506C511.97 374.785 512.011 374.189 511.98 373.72C511.952 373.229 511.861 372.803 511.707 372.441C511.557 372.057 511.311 371.607 510.971 371.088L510.945 371.052C510.299 370.062 509.883 369.151 509.698 368.319C509.534 367.49 509.557 366.406 509.77 365.066C510.188 362.555 511.383 360.684 513.352 359.454C515.342 358.227 517.621 357.848 520.187 358.318C522.751 358.809 524.729 359.988 526.124 361.857C527.518 363.726 527.951 365.928 527.422 368.464C527.096 369.723 526.691 370.747 526.207 371.536C525.726 372.305 525.041 373.095 524.152 373.904C524.108 373.919 524.034 373.981 523.932 374.092C523.857 374.164 523.796 374.218 523.748 374.253ZM521.151 354.034C520.995 355.15 520.867 355.964 520.764 356.476C520.738 356.641 520.653 356.776 520.51 356.88C520.37 356.963 520.218 356.992 520.053 356.966C519.888 356.94 519.754 356.855 519.649 356.712C519.566 356.572 519.537 356.419 519.563 356.255C519.666 355.743 519.791 354.949 519.94 353.874C519.967 353.709 520.039 353.583 520.159 353.497C520.302 353.393 520.458 353.343 520.626 353.349C520.729 353.365 520.827 353.412 520.92 353.49C521.017 353.548 521.078 353.632 521.102 353.741C521.151 353.833 521.167 353.931 521.151 354.034Z" fill="white" fill-opacity="0.3"/>
<path opacity="0.76" d="M623.336 197.185C620.815 197.995 618.142 197.615 615.316 196.044C613.384 194.957 612.129 193.275 611.551 190.999C610.258 191.475 608.985 191.335 607.73 190.577C607.276 191.853 606.559 192.984 605.58 193.969C604.823 194.712 603.92 195.305 602.87 195.747C601.797 196.179 600.685 196.409 599.536 196.437C598.352 196.479 597.234 196.308 596.182 195.925C594.906 195.471 593.796 194.834 592.853 194.016C593.163 195.491 593.566 196.949 594.06 198.391C594.545 199.858 595.054 201.108 595.589 202.142C596.099 203.165 596.566 203.842 596.987 204.172C597.675 204.734 598.284 204.962 598.814 204.857C599.344 204.752 599.714 204.305 599.922 203.517C599.989 203.177 600.175 202.919 600.481 202.742C600.752 202.579 601.058 202.53 601.398 202.597C601.728 202.686 601.986 202.872 602.173 203.155C602.326 203.45 602.357 203.763 602.267 204.092C601.823 205.856 600.917 206.902 599.548 207.231C598.156 207.549 596.778 207.163 595.416 206.073C594.185 205.07 592.94 202.696 591.679 198.952C590.408 195.23 589.789 191.927 589.823 189.043C589.815 188.869 589.848 188.699 589.922 188.533C589.849 187.676 589.902 186.79 590.082 185.875C590.78 182.263 592.357 179.839 594.813 178.601C596.382 177.822 598.173 177.567 600.184 177.837C601.996 178.047 603.692 178.802 605.273 180.103C606.831 181.393 607.763 182.874 608.07 184.546C608.246 185.619 608.316 186.645 608.278 187.623C608.302 187.634 608.332 187.662 608.369 187.706C609.344 188.709 610.321 188.845 611.299 188.116C611.475 185.039 612.802 182.474 615.279 180.422C616.421 179.452 617.857 178.94 619.587 178.886C621.304 178.798 622.954 179.177 624.538 180.024C626.265 180.935 627.566 182.225 628.443 183.895C629.296 185.554 629.577 187.413 629.286 189.472C629.09 190.806 628.696 192.01 628.105 193.082C626.349 196.962 624.434 200.402 622.359 203.401C620.285 206.4 618.606 208.225 617.321 208.876C616.765 209.168 616.167 209.328 615.529 209.357C614.891 209.386 614.311 209.284 613.789 209.051C613.233 208.832 612.76 208.522 612.37 208.121C611.946 207.733 611.661 207.223 611.517 206.59C611.372 205.957 611.388 205.282 611.565 204.565C611.605 204.412 611.68 204.275 611.791 204.154C611.878 204.022 611.996 203.918 612.143 203.841C612.267 203.755 612.41 203.69 612.571 203.648C612.721 203.63 612.872 203.64 613.025 203.68C613.249 203.751 613.441 203.865 613.599 204.02C613.733 204.166 613.84 204.341 613.919 204.547C613.963 204.766 613.955 204.975 613.895 205.175C613.739 205.845 613.941 206.348 614.503 206.683C615.03 207.031 615.594 207.041 616.195 206.712C616.923 206.353 617.963 205.295 619.314 203.538C620.641 201.769 621.982 199.652 623.336 197.185ZM613.956 189.043C614.024 190.04 614.286 190.952 614.742 191.78C615.197 192.609 615.824 193.243 616.623 193.684C617.865 194.407 619.08 194.806 620.269 194.881C621.424 194.969 622.432 194.778 623.295 194.309C624.134 193.83 624.864 193.146 625.487 192.258C626.1 191.394 626.483 190.342 626.636 189.103C626.838 187.629 626.645 186.306 626.058 185.135C625.447 183.954 624.522 183.03 623.283 182.365C622.545 181.98 621.778 181.723 620.982 181.596C620.185 181.469 619.437 181.491 618.735 181.662C618.044 181.809 617.457 182.074 616.975 182.456C615.059 184.076 614.055 186.045 613.961 188.363C614.029 188.592 614.028 188.819 613.956 189.043ZM597.097 193.39C598.196 193.794 599.386 193.869 600.665 193.614C601.92 193.349 602.931 192.833 603.699 192.066C605.39 190.374 605.965 188.029 605.424 185.031C605.224 183.947 604.57 182.959 603.46 182.067C602.327 181.165 601.124 180.643 599.85 180.503C598.353 180.291 597.087 180.452 596.053 180.987C594.371 181.829 593.259 183.623 592.72 186.367C592.4 188.044 592.65 189.492 593.472 190.71C594.27 191.919 595.479 192.812 597.097 193.39Z" fill="white" fill-opacity="0.3"/>
<path opacity="0.88" d="M1167.9 340.277C1165.74 339.261 1164.21 337.366 1163.32 334.592C1162.71 332.687 1162.92 330.806 1163.93 328.949C1162.79 328.468 1162.04 327.592 1161.67 326.321C1160.59 326.883 1159.42 327.188 1158.17 327.236C1157.21 327.26 1156.25 327.096 1155.29 326.742C1154.32 326.366 1153.44 325.834 1152.67 325.146C1151.86 324.445 1151.23 323.645 1150.77 322.746C1150.21 321.661 1149.87 320.559 1149.75 319.439C1149.05 320.602 1148.41 321.812 1147.85 323.067C1147.27 324.332 1146.84 325.47 1146.55 326.481C1146.26 327.47 1146.15 328.203 1146.23 328.68C1146.34 329.474 1146.6 329.999 1147.01 330.255C1147.43 330.512 1147.94 330.445 1148.57 330.053C1148.82 329.87 1149.1 329.814 1149.41 329.885C1149.69 329.945 1149.92 330.101 1150.11 330.354C1150.27 330.616 1150.32 330.897 1150.27 331.198C1150.19 331.487 1150.02 331.713 1149.76 331.875C1148.38 332.765 1147.14 332.897 1146.04 332.272C1144.92 331.626 1144.25 330.524 1144.02 328.967C1143.83 327.549 1144.47 325.217 1145.94 321.972C1147.39 318.736 1149.01 316.177 1150.81 314.296C1150.91 314.176 1151.04 314.084 1151.19 314.02C1151.67 313.41 1152.25 312.859 1152.93 312.366C1155.61 310.413 1158.14 309.784 1160.52 310.478C1162.04 310.929 1163.37 311.862 1164.53 313.278C1165.6 314.53 1166.25 316.071 1166.5 317.902C1166.73 319.711 1166.43 321.261 1165.61 322.553C1165.06 323.369 1164.48 324.088 1163.85 324.71C1163.86 324.731 1163.86 324.768 1163.86 324.82C1163.89 326.081 1164.45 326.772 1165.54 326.893C1167.55 324.972 1170 324.096 1172.9 324.266C1174.25 324.329 1175.51 324.875 1176.68 325.903C1177.87 326.9 1178.73 328.165 1179.25 329.698C1179.83 331.361 1179.89 333.012 1179.44 334.653C1178.99 336.272 1178.03 337.67 1176.57 338.849C1175.62 339.609 1174.62 340.16 1173.57 340.504C1170.03 341.983 1166.65 343.074 1163.44 343.776C1160.22 344.478 1157.99 344.649 1156.75 344.288C1156.2 344.138 1155.71 343.877 1155.27 343.503C1154.83 343.13 1154.51 342.706 1154.31 342.231C1154.08 341.745 1153.96 341.249 1153.94 340.745C1153.9 340.228 1154.03 339.717 1154.32 339.21C1154.62 338.704 1155.04 338.269 1155.6 337.905C1155.72 337.828 1155.86 337.784 1156 337.772C1156.14 337.739 1156.28 337.743 1156.43 337.783C1156.56 337.802 1156.7 337.847 1156.83 337.918C1156.94 337.999 1157.03 338.099 1157.11 338.219C1157.21 338.404 1157.27 338.596 1157.28 338.796C1157.28 338.975 1157.24 339.156 1157.16 339.34C1157.06 339.512 1156.93 339.645 1156.76 339.74C1156.25 340.086 1156.07 340.542 1156.24 341.108C1156.37 341.662 1156.74 342.015 1157.33 342.168C1158.04 342.38 1159.37 342.321 1161.34 341.993C1163.31 341.643 1165.49 341.071 1167.9 340.277ZM1166.72 329.138C1166.16 329.837 1165.77 330.6 1165.56 331.427C1165.35 332.253 1165.37 333.057 1165.63 333.839C1166 335.08 1166.56 336.09 1167.3 336.871C1168.01 337.639 1168.79 338.134 1169.64 338.355C1170.49 338.555 1171.4 338.553 1172.35 338.35C1173.29 338.157 1174.19 337.699 1175.05 336.976C1176.09 336.128 1176.78 335.137 1177.11 334.004C1177.43 332.848 1177.39 331.671 1176.98 330.47C1176.73 329.762 1176.38 329.121 1175.94 328.548C1175.49 327.974 1174.98 327.528 1174.42 327.209C1173.87 326.881 1173.32 326.695 1172.77 326.65C1170.51 326.541 1168.63 327.222 1167.15 328.692C1167.05 328.886 1166.91 329.034 1166.72 329.138ZM1152.93 321.637C1153.41 322.579 1154.15 323.36 1155.15 323.978C1156.14 324.575 1157.12 324.857 1158.1 324.823C1160.26 324.748 1162.08 323.555 1163.56 321.245C1164.1 320.407 1164.28 319.353 1164.09 318.082C1163.9 316.79 1163.43 315.706 1162.67 314.83C1161.82 313.77 1160.88 313.098 1159.87 312.814C1158.24 312.335 1156.41 312.835 1154.36 314.313C1153.12 315.222 1152.4 316.331 1152.19 317.64C1151.97 318.928 1152.22 320.26 1152.93 321.637Z" fill="white" fill-opacity="0.3"/>
</svg>
