<svg width="30" height="37" viewBox="0 0 30 37" fill="none" xmlns="http://www.w3.org/2000/svg">
<path d="M1.17277 16.7457C0.955178 17.0836 0.887204 17.4687 0.968849 17.9012C1.38128 19.7902 2.42878 22.6247 2.85045 24.3567L5.87772 24.3567C5.46909 22.673 4.42708 19.0783 4.02683 17.2391C3.94518 16.8066 3.7213 16.4822 3.35517 16.2657C2.9803 16.0167 2.58524 15.9478 2.16997 16.0591C1.74597 16.1377 1.41357 16.3666 1.17277 16.7457Z" fill="#E41B23"/>
<path d="M18.382 4.69012C19.716 5.83552 20.6932 7.56583 21.3135 9.88106L25.6073 24.3567L29.1788 24.3567L24.2843 9.08505C23.4455 5.9546 22.0205 3.57537 20.0094 1.94735C17.9983 0.319332 15.6351 -0.130911 12.9199 0.596625C10.2047 1.32416 8.35268 2.78153 7.36384 4.96874C6.375 7.15595 6.27377 9.71695 7.06015 12.6517L12.0143 31.1409C12.4075 32.6083 12.9137 33.7309 13.5329 34.5086C14.7889 36.1293 16.4812 36.7593 18.61 36.3986C20.6836 36.0876 22.0698 35.1919 22.7687 33.7115C23.4676 32.2311 23.5244 30.3984 22.939 28.2137L18.5746 11.9256C18.461 11.5017 18.2212 11.1815 17.855 10.965C17.4889 10.7486 17.0982 10.696 16.6829 10.8073C16.2677 10.9185 15.9396 11.1637 15.6988 11.5428C15.49 11.9133 15.4424 12.3105 15.5559 12.7344L19.9203 29.0225C20.1562 29.9029 20.2526 30.646 20.2095 31.2517C20.1896 31.8163 20.0026 32.2683 19.6485 32.6078C19.2944 32.9474 18.7891 33.1701 18.1328 33.2761C17.5403 33.3649 17.0495 33.3217 16.6601 33.1464C16.2708 32.9711 15.9511 32.6724 15.701 32.2501C15.4741 31.7866 15.2514 31.1473 15.033 30.3321L10.0788 11.8429C9.51087 9.72332 9.51683 7.95675 10.0967 6.54317C10.7085 5.12104 11.9248 4.16603 13.7456 3.67816C15.5025 3.2074 17.0479 3.54472 18.382 4.69012Z" fill="#E41B23"/>
</svg>
