<svg width="14" height="20" viewBox="0 0 14 20" fill="none" xmlns="http://www.w3.org/2000/svg">
<path d="M4.14 2.04C3.94 2.05333 3.75333 2.06 3.58 2.06C3.1 2.08667 2.72 2.12 2.44 2.16C2.38667 2.16 2.33333 2.16667 2.28 2.18C2.26667 2.26 2.24667 2.36 2.22 2.48C2.18 2.88 2.14 3.44 2.1 4.16C2.03333 5.54667 2 7.24 2 9.24C2 11.2267 2.03333 12.9933 2.1 14.54C2.18 16.0867 2.26667 16.9933 2.36 17.26V17.24C2.41333 17.2667 2.48667 17.3 2.58 17.34C2.82 17.4467 3.16 17.5333 3.6 17.6C4.45333 17.72 5.50667 17.7733 6.76 17.76C7.86667 17.7333 8.9 17.6467 9.86 17.5C10.8333 17.3667 11.3733 17.2333 11.48 17.1C11.48 17.1133 11.48 17.1 11.48 17.06C11.4933 17.0333 11.5 17.0133 11.5 17C11.54 16.8667 11.5733 16.6867 11.6 16.46C11.6667 16.0067 11.72 15.3933 11.76 14.62C11.8267 13.1933 11.8467 11.44 11.82 9.36C11.8067 7.4 11.7533 5.67333 11.66 4.18C11.62 3.46 11.5733 2.89333 11.52 2.48C11.5067 2.37333 11.4933 2.27333 11.48 2.18C11.44 2.18 11.3933 2.17333 11.34 2.16C11.0733 2.13333 10.7 2.10667 10.22 2.08C10.0333 2.06667 9.82667 2.06 9.6 2.06L9.28 3.16C9.22667 3.33333 9.12667 3.48 8.98 3.6C8.83333 3.70667 8.66667 3.76 8.48 3.76H5.28C5.09333 3.76 4.92667 3.70667 4.78 3.6C4.63333 3.48 4.53333 3.33333 4.48 3.16L4.14 2.04ZM1.42 1.16C1.79333 0.88 3.62667 0.746666 6.92 0.76C10.1867 0.76 11.9933 0.893333 12.34 1.16C12.5133 1.29333 12.6333 1.55333 12.7 1.94C12.7667 2.32667 12.8333 3.05333 12.9 4.12C12.9933 5.62667 13.0533 7.36667 13.08 9.34C13.1333 14.4733 12.92 17.3267 12.44 17.9C12.1733 18.2333 11.5267 18.4933 10.5 18.68C9.47333 18.8667 8.24 18.9733 6.8 19C3.44 19.0667 1.58 18.6467 1.22 17.74C0.913334 16.98 0.76 14.1467 0.76 9.24C0.76 7.21333 0.793333 5.5 0.86 4.1C0.913334 3.07333 0.973334 2.36667 1.04 1.98C1.10667 1.58 1.23333 1.30667 1.42 1.16ZM5.18 8.76C4.95333 8.76 4.75333 8.68 4.58 8.52C4.42 8.34667 4.34 8.14667 4.34 7.92C4.34 7.69333 4.42 7.5 4.58 7.34C4.75333 7.16667 4.95333 7.08 5.18 7.08C5.42 7.08 5.62 7.16667 5.78 7.34C5.95333 7.5 6.04 7.69333 6.04 7.92C6.04 8.06667 6 8.20667 5.92 8.34C5.84 8.46 5.73333 8.56 5.6 8.64C5.48 8.72 5.34 8.76 5.18 8.76ZM8.58 8.76C8.34 8.76 8.13333 8.68 7.96 8.52C7.8 8.34667 7.72 8.14667 7.72 7.92C7.72 7.69333 7.8 7.5 7.96 7.34C8.13333 7.16667 8.33333 7.08 8.56 7.08C8.8 7.08 9 7.16667 9.16 7.34C9.33333 7.5 9.42 7.69333 9.42 7.92C9.42 8.06667 9.38 8.20667 9.3 8.34C9.23333 8.46 9.13333 8.56 9 8.64C8.86667 8.72 8.72667 8.76 8.58 8.76ZM3.86 11.24C3.86 11.12 3.90667 11.0133 4 10.92C4.09333 10.8267 4.2 10.78 4.32 10.78C4.45333 10.78 4.56667 10.8267 4.66 10.92C4.75333 11.0133 4.8 11.12 4.8 11.24C4.8 11.72 4.87333 12.1067 5.02 12.4C5.16667 12.6933 5.39333 12.9133 5.7 13.06C6.00667 13.2067 6.4 13.28 6.88 13.28C8.26667 13.28 8.96 12.6 8.96 11.24C8.96 11.12 9.00667 11.0133 9.1 10.92C9.19333 10.8267 9.3 10.78 9.42 10.78C9.55333 10.78 9.66667 10.8267 9.76 10.92C9.85333 11.0133 9.9 11.12 9.9 11.24C9.9 12.1733 9.64 12.9067 9.12 13.44C8.6 13.96 7.85333 14.22 6.88 14.22C6.22667 14.22 5.67333 14.1067 5.22 13.88C4.78 13.6533 4.44 13.32 4.2 12.88C3.97333 12.44 3.86 11.8933 3.86 11.24Z" fill="#E41B23"/>
</svg>
