<svg width="23" height="31" viewBox="0 0 23 31" fill="none" xmlns="http://www.w3.org/2000/svg">
<path d="M12.9171 4.0547C12.8727 4.12137 12.8283 4.19915 12.7838 4.28804C12.0727 5.64359 11.1171 7.59915 9.91714 10.1547C9.71714 10.5991 9.38381 10.8103 8.91714 10.788C7.53937 10.6991 6.00603 11.1214 4.31714 12.0547C3.69492 12.388 3.16159 12.7436 2.71714 13.1214C2.29492 13.4991 2.08381 13.7769 2.08381 13.9547C1.99492 14.688 2.5727 15.7214 3.81714 17.0547C5.08381 18.388 6.5727 19.4991 8.28381 20.388C9.83937 21.188 11.5171 21.7436 13.3171 22.0547C15.1171 22.3436 16.506 22.3103 17.4838 21.9547C17.5949 21.7991 17.6727 21.4769 17.7171 20.988C17.7838 20.4991 17.7838 19.8991 17.7171 19.188C17.5394 17.2769 17.0171 15.7547 16.1505 14.6214C15.8616 14.2436 15.8505 13.8436 16.1171 13.4214C17.6283 11.0436 18.7394 9.17692 19.4505 7.82137C19.4949 7.71026 19.5505 7.61026 19.6171 7.52137C19.5283 7.52137 19.4394 7.52137 19.3505 7.52137C18.3283 7.47692 17.1838 7.14359 15.9171 6.52137C14.5838 5.8547 13.6394 5.11026 13.0838 4.28804C13.0171 4.19915 12.9616 4.12137 12.9171 4.0547ZM14.2505 2.22137C13.8283 2.59915 13.7949 3.04359 14.1505 3.5547C14.5949 4.19915 15.3727 4.79915 16.4838 5.3547C17.5727 5.88803 18.5505 6.17692 19.4171 6.22137C19.9949 6.24359 20.2838 6.12137 20.2838 5.8547C20.2838 5.81026 20.2838 5.76581 20.2838 5.72137C20.2616 5.58804 20.2505 5.49915 20.2505 5.4547C20.206 5.2547 20.1505 5.06581 20.0838 4.88803C19.7505 4.11026 19.0283 3.42137 17.9171 2.82137C16.8949 2.26581 15.9394 2.02137 15.0505 2.08803C14.7616 2.11026 14.4949 2.1547 14.2505 2.22137ZM18.6171 23.7214C18.5505 23.7658 18.4838 23.7991 18.4171 23.8214C17.106 24.3325 15.3949 24.4436 13.2838 24.1547C11.1949 23.8436 9.21714 23.1991 7.35048 22.2214C5.19492 21.1325 3.39492 19.7658 1.95048 18.1214C0.528254 16.4547 -0.11619 14.9991 0.0171428 13.7547C0.0838093 13.0436 0.550476 12.2991 1.41714 11.5214C2.30603 10.7436 3.38381 10.0991 4.65048 9.58803C5.93937 9.0547 7.16159 8.7547 8.31714 8.68804C9.16159 6.88803 9.86159 5.44359 10.4171 4.3547C10.9727 3.24359 11.4505 2.37692 11.8505 1.7547C12.2505 1.13248 12.5727 0.754701 12.8171 0.621368C13.4171 0.265811 14.106 0.0658114 14.8838 0.0213675C16.1727 -0.0897435 17.5171 0.232479 18.9171 0.988034C20.4505 1.83248 21.4838 2.86581 22.0171 4.08803C22.1283 4.39915 22.2171 4.72137 22.2838 5.0547L22.3838 5.5547C22.4727 6.06581 22.1949 6.96581 21.5505 8.2547C20.9283 9.54359 19.8171 11.4436 18.2171 13.9547C19.1949 15.5547 19.7394 17.4103 19.8505 19.5214C19.9616 21.6325 19.5505 23.0325 18.6171 23.7214ZM6.91714 20.8214C7.05048 20.5547 7.25048 20.388 7.51714 20.3214C7.80603 20.2325 8.0727 20.2547 8.31714 20.388C8.58381 20.5214 8.75048 20.7325 8.81714 21.0214C8.90603 21.288 8.88381 21.5547 8.75048 21.8214C7.46159 24.1325 5.8727 26.7547 3.98381 29.688C3.82825 29.9325 3.60603 30.088 3.31714 30.1547C3.05048 30.2214 2.79492 30.1769 2.55048 30.0214C2.30603 29.8658 2.15048 29.6436 2.08381 29.3547C2.03937 29.088 2.09492 28.8325 2.25048 28.588C4.11714 25.6769 5.6727 23.088 6.91714 20.8214Z" fill="#E41B23"/>
</svg>
