<svg width="39" height="39" viewBox="0 0 39 39" fill="none" xmlns="http://www.w3.org/2000/svg">
<path d="M1.52706 24.5159C0.680553 21.7306 0.4621 18.8497 0.8717 15.8733C1.2813 12.8969 2.27799 10.2618 3.86178 7.96802C5.71863 5.26466 8.2445 3.28492 11.4394 2.02882C14.6616 0.745403 18.4299 0.294843 22.7443 0.677136C25.5569 0.922897 28.1647 1.91959 30.5677 3.66722C32.9707 5.41484 34.8822 7.66764 36.3021 10.4256C37.804 13.3201 38.5276 16.4877 38.473 19.9283C38.4184 23.3417 37.5719 26.7004 35.9335 30.0045C35.0323 31.7794 33.6943 33.3223 31.9194 34.633C30.1444 35.9437 28.0964 36.9131 25.7754 37.5411C23.4816 38.1692 21.1196 38.4013 18.6893 38.2375C14.566 37.9644 10.9752 36.64 7.91682 34.2643C4.85847 31.8887 2.72855 28.6392 1.52706 24.5159ZM3.98466 23.7786C5.04962 27.3831 6.89282 30.2093 9.51426 32.2573C12.1357 34.3053 15.2487 35.4522 18.8531 35.6979C22.0753 35.9164 25.0654 35.3839 27.8234 34.1005C30.6087 32.8171 32.5474 31.0695 33.6397 28.8576C35.1143 25.9085 35.8652 22.9321 35.8925 19.9283C35.9471 16.8973 35.3191 14.112 34.0083 11.5725C32.8069 9.19682 31.1821 7.2717 29.1341 5.79714C27.0861 4.29527 24.8879 3.43511 22.5395 3.21666C18.662 2.86167 15.3306 3.23031 12.5453 4.32258C9.76002 5.38754 7.56183 7.0942 5.95074 9.44258C4.58541 11.4087 3.72525 13.6888 3.37026 16.2829C3.04258 18.8497 3.24738 21.3483 3.98466 23.7786ZM32.2471 16.8154C32.6294 17.2796 32.7113 18.522 32.4928 20.5427C32.2744 22.5634 31.933 23.7376 31.4688 24.0653C31.0046 24.3657 28.6562 24.4339 24.4237 24.2701C24.6148 26.9735 24.6422 28.9259 24.5056 30.1274C24.3964 31.3016 24.0551 31.9979 23.4816 32.2163C22.9355 32.4348 21.6657 32.4894 19.6723 32.3802C17.679 32.2983 16.5184 32.0935 16.1907 31.7658C15.9723 31.5473 15.8084 30.9193 15.6992 29.8816C15.59 28.844 15.4944 26.9598 15.4125 24.2291C11.4803 24.2838 9.20023 24.3111 8.57218 24.3111C7.94413 24.3111 7.50722 24.0107 7.26146 23.4099C7.04301 22.7819 6.90647 21.7579 6.85186 20.3379C6.79725 18.1807 6.94743 16.8563 7.30242 16.3648C7.54818 16.0098 8.23085 15.7777 9.35042 15.6685C10.4973 15.5593 12.518 15.5047 15.4125 15.5047C15.5217 10.726 15.7402 8.07724 16.0679 7.55842C16.2044 7.28535 16.4228 7.0942 16.7232 6.98498C17.0509 6.87575 17.4742 6.80748 17.993 6.78018C18.5118 6.75287 19.1399 6.75287 19.8771 6.78018C21.734 6.83479 22.8672 6.97132 23.2768 7.18978C23.7137 7.40823 23.9595 8.07724 24.0141 9.19682C24.0687 10.2891 24.0141 12.4054 23.8503 15.5456C26.7448 15.7095 28.7928 15.8733 29.9943 16.0371C31.2231 16.201 31.974 16.4604 32.2471 16.8154ZM30.6087 18.0851C30.2264 18.0032 29.6939 17.9213 29.0112 17.8394C27.5913 17.7028 25.516 17.5663 22.7853 17.4298C22.5395 17.4298 22.3211 17.3342 22.1299 17.1431C21.9661 16.9246 21.8842 16.6925 21.8842 16.4467C22.0207 13.7161 22.089 11.6544 22.089 10.2618C22.089 9.66103 22.0753 9.19682 22.048 8.86914C21.9388 8.84183 21.8159 8.82818 21.6794 8.82818C21.0786 8.74626 20.4506 8.7053 19.7952 8.7053C19.0579 8.67799 18.4572 8.67799 17.993 8.7053C17.8838 8.7053 17.7745 8.71895 17.6653 8.74626C17.6653 8.80087 17.6653 8.85548 17.6653 8.9101C17.6107 9.29239 17.5561 9.82487 17.5015 10.5075C17.4195 11.9002 17.3513 13.8936 17.2967 16.4877C17.2967 16.7608 17.2011 16.9929 17.0099 17.184C16.8188 17.3479 16.6003 17.4298 16.3546 17.4298C13.7331 17.4298 11.7398 17.4571 10.3744 17.5117C9.71906 17.5663 9.21389 17.6209 8.8589 17.6755C8.8589 17.8121 8.84525 17.9896 8.81794 18.208C8.76333 18.8634 8.74967 19.5597 8.77698 20.297C8.80429 21.1162 8.87255 21.7579 8.98178 22.2221C8.98178 22.2767 8.99543 22.3313 9.02274 22.3859C10.0604 22.3859 12.5043 22.3586 16.3546 22.304C16.6003 22.304 16.8188 22.3996 17.0099 22.5907C17.2011 22.7546 17.2967 22.973 17.2967 23.2461C17.3786 25.731 17.4605 27.6152 17.5424 28.8986C17.597 29.5266 17.638 30.0045 17.6653 30.3322C17.7745 30.3322 17.8838 30.3458 17.993 30.3731C18.5118 30.4278 19.1399 30.4551 19.8771 30.4551C21.024 30.5097 21.9115 30.5097 22.5395 30.4551C22.5942 30.1547 22.6351 29.7041 22.6624 29.1034C22.6897 27.7927 22.6078 25.8675 22.4167 23.328C22.3894 23.0276 22.4713 22.7819 22.6624 22.5907C22.8809 22.3723 23.1266 22.2767 23.3997 22.304C25.7754 22.4132 27.5776 22.4679 28.8064 22.4679C29.4072 22.4679 29.8714 22.4542 30.1991 22.4269C30.2264 22.4269 30.24 22.4269 30.24 22.4269C30.2673 22.3177 30.2946 22.2084 30.3219 22.0992C30.4312 21.6077 30.5131 21.0206 30.5677 20.3379C30.6496 19.628 30.6906 19.0136 30.6906 18.4947C30.6906 18.3582 30.6769 18.2217 30.6496 18.0851C30.6496 18.0851 30.636 18.0851 30.6087 18.0851Z" fill="#E41B23"/>
</svg>
