<svg width="24" height="24" viewBox="0 0 24 24" fill="none" xmlns="http://www.w3.org/2000/svg">
<path d="M13.98 9.2C14.0333 8.14667 14.1 7.37333 14.18 6.88C14.22 6.6 14.26 6.34 14.3 6.1C14.34 5.91333 14.44 5.78 14.6 5.7C14.76 5.60667 14.9267 5.58667 15.1 5.64C15.4333 5.73333 15.8733 6.1 16.42 6.74C16.9667 7.36667 17.72 8.35333 18.68 9.7C18.8 9.86 18.92 10.0333 19.04 10.22C19.0667 10.26 19.3067 10.6067 19.76 11.26C20.2133 11.9133 20.6533 12.5467 21.08 13.16C21.52 13.7733 21.7867 14.14 21.88 14.26C21.9867 14.4067 22.02 14.5733 21.98 14.76C21.9533 14.9467 21.86 15.0867 21.7 15.18C20.8733 15.7 19.7533 16.6267 18.34 17.96C16.9267 19.28 15.7 20.5533 14.66 21.78C14.4733 22.0067 14.24 22.0667 13.96 21.96C13.6933 21.8667 13.56 21.6733 13.56 21.38V17.46C11.5067 17.7267 9.66667 17.8533 8.04 17.84C6.42667 17.8133 5.23333 17.64 4.46 17.32C3.54 16.9467 2.91333 15.4467 2.58 12.82C2.24667 10.1933 2.20667 6.78 2.46 2.58C2.47333 2.42 2.54 2.28667 2.66 2.18C2.78 2.06 2.92667 2 3.1 2H10.94C11.14 2 11.3 2.07333 11.42 2.22C11.5533 2.36667 11.6 2.54 11.56 2.74C11.08 5.43333 10.78 7.47333 10.66 8.86C10.6067 9.5 10.5933 9.98 10.62 10.3H13.88C13.9067 10.1 13.94 9.73333 13.98 9.2ZM15.22 9.28C15.18 9.89333 15.14 10.32 15.1 10.56C14.9667 11.2133 14.66 11.54 14.18 11.54H10.22C10.02 11.54 9.86 11.4933 9.74 11.4C9.62 11.3067 9.53333 11.1867 9.48 11.04C9.42667 10.88 9.38667 10.68 9.36 10.44C9.33333 10.0533 9.35333 9.49333 9.42 8.76C9.52667 7.46667 9.78667 5.62667 10.2 3.24H3.68C3.49333 6.74667 3.52 9.72667 3.76 12.18C4.01333 14.62 4.4 15.9467 4.92 16.16C5.6 16.4533 6.77333 16.6 8.44 16.6C10.12 16.5867 12.0067 16.4267 14.1 16.12C14.2867 16.0933 14.4533 16.1467 14.6 16.28C14.7467 16.4 14.82 16.5533 14.82 16.74V19.72C15.7533 18.7067 16.74 17.72 17.78 16.76C18.82 15.8 19.7267 15.0467 20.5 14.5C20.2733 14.18 19.9667 13.7467 19.58 13.2C19.1933 12.64 18.84 12.1333 18.52 11.68C18.2133 11.2267 18.0467 10.98 18.02 10.94C17.8867 10.7533 17.7667 10.58 17.66 10.42C16.7 9.07333 15.9333 8.07333 15.36 7.42C15.32 7.74 15.2733 8.36 15.22 9.28Z" fill="#E41B23"/>
</svg>
