<svg width="24" height="25" viewBox="0 0 24 25" fill="none" xmlns="http://www.w3.org/2000/svg">
<path d="M8.425 21.725C7.825 21.9917 7.25833 22.2417 6.725 22.475C6.675 22.4917 6.625 22.5167 6.575 22.55C4.90833 23.25 3.94167 23.6 3.675 23.6C3.425 23.6 3.225 23.525 3.075 23.375C2.94167 23.2417 2.85833 23.0667 2.825 22.85C2.80833 22.7167 2.81667 22.55 2.85 22.35C2.9 22.0833 3.00833 21.7167 3.175 21.25C3.44167 20.4333 3.89167 19.25 4.525 17.7C2.89167 15.9667 2.075 13.7583 2.075 11.075C2.075 9.15833 2.49167 7.425 3.325 5.875C4.15833 4.325 5.33333 3.10833 6.85 2.225C8.36667 1.34167 10.0833 0.899999 12 0.899999C15.5333 0.899999 18.25 1.89167 20.15 3.875C22.05 5.84167 22.9 8.71667 22.7 12.5C22.6167 13.8167 22.35 15.0333 21.9 16.15C21.4667 17.25 20.875 18.2083 20.125 19.025C19.375 19.8417 18.4833 20.5167 17.45 21.05C16.1333 21.7167 14.7083 22.0833 13.175 22.15C11.6583 22.2333 10.2333 22.025 8.9 21.525C8.75 21.5917 8.59167 21.6583 8.425 21.725ZM5.95 21.1C6 21.0833 6.05833 21.0583 6.125 21.025C6.64167 20.8083 7.2 20.5667 7.8 20.3C8 20.2167 8.18333 20.1333 8.35 20.05C8.43333 20.0167 8.5 19.9917 8.55 19.975C8.76667 19.875 8.975 19.8667 9.175 19.95C9.94167 20.2833 10.7583 20.4917 11.625 20.575C12.5083 20.6583 13.3833 20.6167 14.25 20.45C15.1333 20.3 15.9583 20.0333 16.725 19.65C18.0417 18.9833 19.0833 18.0333 19.85 16.8C20.6167 15.5667 21.0417 14.1 21.125 12.4C21.3083 9.08333 20.6 6.6 19 4.95C17.4167 3.28333 15.0833 2.45 12 2.45C9.55 2.45 7.54167 3.26667 5.975 4.9C4.425 6.51667 3.65 8.575 3.65 11.075C3.65 13.4917 4.43333 15.4583 6 16.975C6.25 17.225 6.30833 17.5083 6.175 17.825C5.475 19.4917 4.975 20.7583 4.675 21.625C5.04167 21.4917 5.46667 21.3167 5.95 21.1ZM6.925 10.025C6.74167 9.525 6.725 9.00833 6.875 8.475C7.025 7.925 7.24167 7.43333 7.525 7C7.80833 6.55 8.10833 6.19167 8.425 5.925C8.75833 5.64167 9.01667 5.51667 9.2 5.55C9.55 5.63333 9.95 6.04167 10.4 6.775C10.85 7.49167 11.0667 8.03333 11.05 8.4C11.0333 8.68333 10.8833 9.025 10.6 9.425C10.3333 9.80833 10.0333 10.0917 9.7 10.275C9.96667 10.9417 10.5083 11.65 11.325 12.4C12.1417 13.15 12.9167 13.7833 13.65 14.3C13.85 13.9333 14.1333 13.575 14.5 13.225C14.8833 12.8583 15.225 12.6833 15.525 12.7C15.9583 12.7167 16.4917 13.0667 17.125 13.75C17.7583 14.4333 18.0667 14.9583 18.05 15.325C18.0333 15.625 17.8083 15.95 17.375 16.3C16.9417 16.6333 16.325 16.8667 15.525 17C14.7417 17.1167 13.7917 16.8833 12.675 16.3C11.6917 15.7833 10.5833 14.8833 9.35 13.6C8.11667 12.3 7.30833 11.1083 6.925 10.025Z" fill="#E41B23"/>
</svg>
