<svg width="24" height="24" viewBox="0 0 24 24" fill="none" xmlns="http://www.w3.org/2000/svg">
<path d="M8.25331 18.5772C8.25331 18.69 8.15472 18.7866 7.95755 18.8671C7.77681 18.9316 7.54678 18.9718 7.26746 18.9879C7.00456 19.004 6.73346 19.004 6.45413 18.9879C6.19124 18.9718 5.95299 18.9316 5.73939 18.8671C5.52579 18.7866 5.40256 18.69 5.36969 18.5772C5.27111 18.2873 5.22182 16.7975 5.22182 14.1079C5.22182 11.4182 5.27111 9.88812 5.36969 9.51769C5.41899 9.29221 5.66545 9.16336 6.10908 9.13115C6.56915 9.08283 7.01278 9.10699 7.43998 9.20362C7.88361 9.30026 8.15472 9.40495 8.25331 9.51769C8.28617 9.56601 8.31082 9.89617 8.32725 10.5082C8.34368 11.1041 8.34368 11.8369 8.32725 12.7066C8.32725 13.5603 8.31903 14.3978 8.3026 15.2192C8.3026 16.0406 8.29439 16.7895 8.27795 17.4659C8.26152 18.1424 8.25331 18.5128 8.25331 18.5772ZM6.74989 8.26143C6.27339 8.26143 5.86262 8.09232 5.51757 7.7541C5.17252 7.39977 5 7.02128 5 6.61864C5 6.36094 5.06572 6.1113 5.19717 5.86972C5.32862 5.62813 5.52579 5.4268 5.78868 5.26575C6.06801 5.08858 6.38841 5 6.74989 5C7.25924 5 7.6618 5.16911 7.95755 5.50733C8.25331 5.84556 8.40119 6.21599 8.40119 6.61864C8.40119 7.00518 8.23688 7.37561 7.90826 7.72994C7.57964 8.08427 7.19352 8.26143 6.74989 8.26143ZM18.9991 18.5772C18.9991 18.6739 18.7855 18.7705 18.3583 18.8671C17.9311 18.9477 17.4792 18.9718 17.0027 18.9396C16.5262 18.9074 16.2387 18.7866 16.1401 18.5772C16.0087 18.3195 15.9512 17.2807 15.9676 15.4607C15.984 13.6247 15.9758 12.6583 15.9429 12.5617C15.7293 12.2074 15.4747 11.9738 15.1789 11.8611C14.8832 11.7322 14.6038 11.7081 14.3409 11.7886C14.078 11.853 13.8398 11.9497 13.6262 12.0785C13.429 12.2074 13.2976 12.3443 13.2319 12.4892C13.1497 12.6181 13.0758 13.6408 13.01 15.5574C12.9607 17.4579 12.9279 18.4645 12.9115 18.5772C12.8786 18.7383 12.6239 18.8591 12.1474 18.9396C11.6874 19.004 11.2273 19.004 10.7672 18.9396C10.3072 18.8591 10.0771 18.7383 10.0771 18.5772C10.0771 18.5289 10.0607 18.1424 10.0278 17.4176C10.0114 16.6767 9.99498 15.8956 9.97855 15.0742C9.96212 14.2528 9.96212 13.3106 9.97855 12.2476C9.99498 11.1685 10.0278 10.2586 10.0771 9.51769C10.2907 9.29221 10.6769 9.17946 11.2355 9.17946C11.8106 9.17946 12.3364 9.29221 12.8129 9.51769C12.8786 9.77538 12.8786 10.1861 12.8129 10.7498H12.8622C13.0593 10.3471 13.388 10.017 13.848 9.75928C14.3409 9.43716 14.916 9.2761 15.5733 9.2761C16.9206 9.2761 17.8571 9.6868 18.3829 10.5082C18.8101 11.1685 19.0155 12.1993 18.9991 13.6005V18.5772Z" fill="#E41B23"/>
</svg>
