<svg width="24" height="24" viewBox="0 0 24 24" fill="none" xmlns="http://www.w3.org/2000/svg">
<path d="M4.175 9.9C4.04167 11.35 3.98333 13.1833 4 15.4C4.01667 17.6 4.11667 18.9917 4.3 19.575C4.38333 19.6083 4.49167 19.6417 4.625 19.675C5.04167 19.7917 5.61667 19.8917 6.35 19.975C7.8 20.125 9.575 20.1833 11.675 20.15C13.4917 20.1333 15.2167 20.0417 16.85 19.875C18.4833 19.7083 19.3667 19.5583 19.5 19.425C19.6 19.3417 19.675 18.7667 19.725 17.7C19.775 16.6333 19.7667 15.35 19.7 13.85C19.65 12.4667 19.55 11.0167 19.4 9.5C17.0667 11.3 15.3167 12.5917 14.15 13.375C13 14.1583 12.25 14.5583 11.9 14.575C11.5167 14.575 10.7333 14.2167 9.55 13.5C8.36667 12.7667 6.575 11.5667 4.175 9.9ZM4.425 8.175C4.45833 8.19167 4.48333 8.20833 4.5 8.225C5.86667 9.19167 7.10833 10.05 8.225 10.8C9.35833 11.55 10.225 12.1083 10.825 12.475C11.425 12.825 11.7667 13 11.85 13C11.9333 13 12.2583 12.8083 12.825 12.425C13.4083 12.025 14.2417 11.425 15.325 10.625C16.4083 9.80833 17.625 8.89167 18.975 7.875C18.1917 7.15833 17.0583 6.3 15.575 5.3C14.6917 4.68333 13.825 4.13333 12.975 3.65C12.125 3.15 11.6417 2.9 11.525 2.9C11.425 2.9 11.1917 3 10.825 3.2C10.4583 3.4 9.99167 3.68333 9.425 4.05C8.85833 4.41667 8.3 4.80833 7.75 5.225C7.2 5.625 6.675 6.04167 6.175 6.475C5.675 6.89167 5.26667 7.25 4.95 7.55C4.65 7.85 4.475 8.05833 4.425 8.175ZM2.55 7.6C2.71667 7.06667 3.41667 6.25833 4.65 5.175C5.9 4.09167 7.21667 3.11667 8.6 2.25C10 1.38333 10.975 0.949998 11.525 0.949998C12.025 0.949998 13.025 1.4 14.525 2.3C16.0417 3.18333 17.4833 4.175 18.85 5.275C20.2167 6.35833 20.975 7.14167 21.125 7.625C21.1917 7.875 21.2833 8.65 21.4 9.95C21.5167 11.25 21.6 12.525 21.65 13.775C21.75 15.8583 21.7417 17.4583 21.625 18.575C21.5083 19.6917 21.2583 20.4417 20.875 20.825C20.075 21.6083 17.0167 22.0333 11.7 22.1C9.9 22.1167 8.38333 22.0833 7.15 22C5.93333 21.9333 4.925 21.775 4.125 21.525C3.325 21.2917 2.81667 20.975 2.6 20.575C2.21667 19.7083 2.025 17.5917 2.025 14.225C2.04167 10.8417 2.21667 8.63333 2.55 7.6Z" fill="#E41B23"/>
</svg>
