<svg width="24" height="24" viewBox="0 0 24 24" fill="none" xmlns="http://www.w3.org/2000/svg">
<path d="M16.35 3.025C16.55 3.09167 16.6833 3.29167 16.75 3.625C16.8333 3.95833 16.8333 4.33333 16.75 4.75C16.6833 5.16667 16.55 5.51667 16.35 5.8C16.2333 5.86667 16.0417 5.88333 15.775 5.85C15.525 5.8 15.2417 5.78333 14.925 5.8C14.625 5.81667 14.3333 5.85 14.05 5.9C13.7833 5.95 13.5583 6.09167 13.375 6.325C13.2083 6.55833 13.1417 6.88333 13.175 7.3V9.275C14.825 9.15833 15.85 9.15833 16.25 9.275C16.5333 9.39167 16.6417 9.85833 16.575 10.675C16.525 11.4917 16.3917 11.9917 16.175 12.175C15.8917 12.3917 14.8917 12.4583 13.175 12.375C13.025 14.7917 13.025 17.4417 13.175 20.325C13.025 20.5083 12.6833 20.6417 12.15 20.725C11.6167 20.8083 11.1167 20.8083 10.65 20.725C10.2 20.6417 9.975 20.5083 9.975 20.325V12.375C8.775 12.5083 7.88333 12.5083 7.3 12.375C7.16667 12.175 7.08333 11.65 7.05 10.8C7.01667 9.95 7.1 9.44167 7.3 9.275H9.975V7C9.975 6.43333 10.0333 5.93333 10.15 5.5C10.2833 5.06667 10.4917 4.65833 10.775 4.275C11.0583 3.875 11.4417 3.575 11.925 3.375C12.4083 3.175 13.0167 3.03333 13.75 2.95C14.4833 2.85 15.35 2.875 16.35 3.025Z" fill="#E41B23"/>
</svg>
