<svg width="49" height="58" viewBox="0 0 49 58" fill="none" xmlns="http://www.w3.org/2000/svg">
<path d="M14.4329 30.1558C16.7845 31.4188 18.8492 33.297 20.627 35.7905C22.426 38.2383 23.6388 40.8428 24.2654 43.6039C24.8485 43.1268 25.2342 42.8351 25.4225 42.7287C26.4035 41.9933 27.4392 41.4082 28.5296 40.9735C28.6632 40.9249 28.8029 40.8929 28.9488 40.8777C34.9905 40.1165 39.4966 38.7224 42.4669 36.6953C43.8245 35.7472 44.6307 34.7916 44.8856 33.8285C45.1617 32.8199 44.8728 31.7143 44.0188 30.5116C43.9945 30.4448 43.9474 30.3673 43.8775 30.2793C43.425 30.5953 42.8813 30.8689 42.2465 31.0999C41.9792 31.1972 41.7089 31.1821 41.4354 31.0546C41.1954 30.9149 41.0268 30.7115 40.9295 30.4442C40.8322 30.1769 40.8306 29.9126 40.9247 29.6513C41.0522 29.3779 41.2496 29.1925 41.5169 29.0953C43.4547 28.3899 44.4857 27.2201 44.6097 25.5858C44.5976 25.5524 44.6021 25.5129 44.6234 25.4673C44.5046 24.4133 43.8695 23.6039 42.718 23.0392C42.5813 22.9755 42.4613 22.9056 42.358 22.8297C41.9025 23.4495 41.4045 23.9524 40.8639 24.3384C40.6209 24.5025 40.3582 24.5603 40.0756 24.5118C39.7931 24.4632 39.5698 24.3175 39.4057 24.0745C39.3358 23.9865 39.2826 23.8923 39.2461 23.7921C39.2096 23.6918 39.1899 23.5855 39.1868 23.4731C39.1837 23.3607 39.2034 23.259 39.2459 23.1678C39.2884 23.0767 39.331 22.9855 39.3735 22.8944C39.4494 22.7911 39.5314 22.7045 39.6194 22.6346C40.4698 22.0602 41.1971 21.0955 41.8012 19.7405C42.1775 18.6954 42.1818 17.6155 41.8139 16.5008C41.4338 15.3527 40.7638 14.4992 39.8037 13.9406C38.637 13.2301 37.3292 13.1196 35.8804 13.6091C34.4194 14.0652 32.8082 15.2003 31.0469 17.0143C30.9375 17.1298 30.8054 17.2346 30.6505 17.3288C30.7815 18.4163 30.8668 19.4825 30.9066 20.5275C31.7298 20.19 32.8019 19.4971 34.123 18.4487C34.7273 17.9261 35.1312 17.4764 35.3346 17.0996C35.3559 17.054 35.3938 17.0024 35.4485 16.9447L35.4302 16.8945C35.4302 16.8945 35.3968 16.9067 35.33 16.931C35.2844 16.9098 35.251 16.9219 35.2298 16.9675C35.0961 17.0161 34.9564 17.0481 34.8106 17.0633C34.6982 17.0664 34.5797 17.0528 34.4552 17.0224C34.3185 16.9587 34.1985 16.8888 34.0951 16.8129C33.9797 16.7036 33.8976 16.5821 33.849 16.4485C33.7183 16.1933 33.7 15.9351 33.7941 15.6739C33.8882 15.4126 34.0628 15.2166 34.3179 15.0859C34.8616 14.8124 35.4342 14.7742 36.0357 14.9715C36.6251 15.1354 37.0565 15.4891 37.3301 16.0328C37.8803 17.2325 37.2367 18.583 35.3993 20.0842C32.7905 22.1688 30.836 23.0883 29.5358 22.8426C29.4234 22.8457 29.3277 22.8427 29.2487 22.8336C28.7991 22.8459 28.4072 22.7047 28.073 22.4102C27.76 22.07 27.5913 21.6585 27.5669 21.1755C27.5604 19.7022 27.4338 18.1591 27.1873 16.5461C26.962 14.8876 26.6259 13.2883 26.1789 11.7483C25.7653 10.1962 25.2895 8.83695 24.7515 7.67063C23.7636 5.68425 22.7168 4.41935 21.6109 3.87592C20.4928 3.29909 19.2368 3.43464 17.8427 4.28257C17.4114 4.55306 17.1883 5.03156 17.1733 5.71809C18.446 5.36838 19.5305 5.54121 20.4269 6.23658C21.071 6.75888 21.495 7.45591 21.6988 8.32767C22.0212 9.83732 21.9365 11.06 21.4447 11.9958C20.9863 12.9194 20.1237 13.4604 18.857 13.6187C19.6144 17.0511 19.8143 20.0432 19.4566 22.595L19.4247 22.6633C19.4065 22.8213 19.3656 22.9686 19.3018 23.1054C18.1573 25.6786 16.5344 28.0288 14.4329 30.1558ZM10.9559 28.8673C11.8366 28.1684 12.7871 27.1414 13.8074 25.7862C14.8276 24.4311 15.6247 23.1383 16.1984 21.9079C16.5167 19.5596 16.1421 16.3474 15.0747 12.2711C14.3539 9.35507 13.9523 7.42016 13.87 6.46634C13.7387 4.13038 14.4749 2.46246 16.0785 1.46257C18.4566 -0.00838259 20.6421 -0.293054 22.6351 0.608559C24.6616 1.49801 26.3663 3.37482 27.7493 6.23898C28.6915 8.2041 29.4426 10.5794 30.0023 13.3648C32.034 11.5659 34.0401 10.4763 36.0206 10.096C38.0345 9.7035 39.877 10.0356 41.548 11.0922C42.5658 11.7055 43.3984 12.5376 44.0457 13.5885C44.7265 14.6272 45.1567 15.7571 45.3363 16.9782C45.5158 18.1993 45.419 19.3886 45.0457 20.5461C47.9989 22.4225 48.7486 25.3658 47.2947 29.3761C48.015 30.6274 48.3693 31.8606 48.3575 33.0757C48.3457 34.2908 47.9997 35.4194 47.3196 36.4615C46.6516 37.5371 45.6661 38.5201 44.3632 39.4105C40.9738 41.7414 36.0456 43.327 29.5785 44.1674C28.8101 44.4471 28.0842 44.8437 27.4008 45.3573C27.2915 45.4727 27.0167 45.7052 26.5763 46.0547C26.1359 46.4041 25.8884 46.6077 25.8338 46.6655C25.4481 46.9572 25.0836 47.2034 24.7404 47.404C24.7225 48.3943 24.6073 49.3254 24.3949 50.1972C24.1462 51.3851 23.5997 52.3786 22.7554 53.1777C21.9234 54.0103 20.4777 55.0284 18.4185 56.2319C18.0206 56.4902 17.7442 56.6665 17.5893 56.7607C17.1247 57.0434 16.7207 57.285 16.3775 57.4856C15.9796 57.7439 15.5544 57.823 15.1017 57.7229C14.6612 57.6562 14.3118 57.4239 14.0535 57.026C13.7952 56.6282 13.7161 56.2029 13.8162 55.7503C13.9163 55.2976 14.1486 54.9482 14.513 54.702C14.9231 54.4771 15.3711 54.2006 15.857 53.8724C16.0119 53.7781 16.3111 53.6125 16.7545 53.3754C17.8053 52.7281 18.6117 52.1886 19.1736 51.7571C19.781 51.3469 20.2426 50.9518 20.5584 50.572C20.8864 50.2256 21.0898 49.8489 21.1686 49.4418C21.4811 48.1173 21.4807 46.6607 21.1674 45.072C20.8874 43.4713 20.3675 41.9389 19.6077 40.4749C18.8478 39.011 17.9391 37.6579 16.8816 36.4158C15.8575 35.1615 14.6771 34.1534 13.3403 33.3913C12.0247 32.5837 10.7244 32.1299 9.43945 32.03C8.70735 31.9938 7.9419 32.1778 7.1431 32.5821C6.37771 32.9741 5.1507 33.7613 3.46208 34.9434C3.16445 35.1653 2.92756 35.3461 2.75142 35.4859C2.38696 35.7321 1.96779 35.8279 1.49389 35.7733C1.0534 35.7066 0.710073 35.491 0.463911 35.1266C0.205587 34.7287 0.109775 34.3096 0.176475 33.8691C0.231014 33.3952 0.457217 33.0291 0.855082 32.7707C0.997817 32.6431 1.218 32.4684 1.51563 32.2465C3.58996 30.7726 5.13283 29.8138 6.14426 29.37C7.17694 28.8806 8.3631 28.657 9.70275 28.6991C10.0977 28.7445 10.5154 28.8006 10.9559 28.8673ZM18.3461 11.5912C19.0417 11.5272 19.4851 11.2901 19.6764 10.88C19.9011 10.4576 19.8933 9.76049 19.653 8.78849C19.5861 8.39664 19.3976 8.08685 19.0877 7.85912C18.7201 7.57672 18.1854 7.56321 17.4838 7.81858C17.6298 8.63568 17.9157 9.83702 18.3415 11.4226C18.3324 11.5016 18.3339 11.5578 18.3461 11.5912Z" fill="#E41B23"/>
</svg>
