<svg width="48" height="48" viewBox="0 0 48 48" fill="none" xmlns="http://www.w3.org/2000/svg">
<path d="M22.6 31.0267V23.5067C20.7333 23.9067 18.8667 24.2 17 24.3867C16.3333 24.44 15.7067 24.48 15.12 24.5067C14.9867 24.5067 14.88 24.5067 14.8 24.5067L14.44 33.2267C16.36 32.5867 19.08 31.8533 22.6 31.0267ZM24.2 30.6667C26.9467 30.0533 29.68 29.5067 32.4 29.0267L32.6 20.7867L25.2 16.5467C22.9867 17.0533 20.7467 17.48 18.48 17.8267L23.88 21.8667C24.0933 22.0267 24.2 22.24 24.2 22.5067C24.2 22.5333 24.2 22.5467 24.2 22.5467V30.6667ZM33.96 28.7467C36.4133 28.3467 38.4667 28.0533 40.12 27.8667C40.1467 25.4667 40.24 23.3733 40.4 21.5867C40.4533 20.8933 40.5333 20.2533 40.64 19.6667C40.48 19.72 40.3067 19.7733 40.12 19.8267C39.2933 20.0933 38.48 20.3333 37.68 20.5467C37.04 20.7333 36.4267 20.8933 35.84 21.0267C35.2267 21.1867 34.6667 21.3067 34.16 21.3867L33.96 28.7467ZM34 19.8267C34.4533 19.7467 34.9467 19.64 35.48 19.5067C36.04 19.3733 36.64 19.2267 37.28 19.0667C37.92 18.88 38.5867 18.68 39.28 18.4667C38.4267 18.12 37.5867 17.7467 36.76 17.3467C35.4533 16.7067 34.1867 16 32.96 15.2267C32.64 15.04 32.3333 14.8533 32.04 14.6667C30.52 15.1467 28.9733 15.6 27.4 16.0267L33.8 19.6667C33.88 19.72 33.9467 19.7733 34 19.8267ZM16.28 18.1467C15.9067 18.1733 15.52 18.2133 15.12 18.2667C12.72 18.5333 10.4667 18.6933 8.36 18.7467L14.64 22.9467C14.7467 22.9467 14.88 22.9467 15.04 22.9467C15.6 22.92 16.2133 22.88 16.88 22.8267C18.4267 22.6667 20 22.4267 21.6 22.1067L16.28 18.1467ZM23.56 14.3467C23.7467 14.24 23.9467 14.2 24.16 14.2267C26.8 13.64 29.3733 12.92 31.88 12.0667C32.28 11.9333 32.6533 12 33 12.2667C33.08 12.32 33.1867 12.4 33.32 12.5067C33.6133 12.6933 33.9467 12.9067 34.32 13.1467C35.44 13.8667 36.6133 14.52 37.84 15.1067C39.4133 15.88 40.9733 16.4933 42.52 16.9467C42.8133 17.0533 43.04 17.24 43.2 17.5067C43.3867 17.7733 43.44 18.0667 43.36 18.3867C43.1733 19.3733 43.0133 20.52 42.88 21.8267C42.72 23.6933 42.64 26.0933 42.64 29.0267C42.64 29.3733 42.52 29.6667 42.28 29.9067C42.0667 30.1467 41.7867 30.2667 41.44 30.2667C38.0267 30.5067 32.9067 31.36 26.08 32.8267C19.2533 34.2933 15.12 35.4267 13.68 36.2267C13.1733 36.52 12.7067 36.4667 12.28 36.0667L4.44 29.3067C4.14667 29.0667 4 28.76 4 28.3867C4 25.9067 4 23.3467 4 20.7067C4 19.9067 4.01333 19.1067 4.04 18.3067C4.04 18.0667 4.04 17.8533 4.04 17.6667V17.4667C4.04 17.0933 4.16 16.7867 4.4 16.5467C4.66667 16.3067 4.98667 16.2 5.36 16.2267C5.44 16.2267 5.57333 16.2267 5.76 16.2267C8.42667 16.3067 11.4533 16.16 14.84 15.7867C17.8 15.4667 20.7067 14.9867 23.56 14.3467ZM12.88 33.3067L13.24 23.9067L6.52 19.3867C6.52 19.8667 6.52 20.3067 6.52 20.7067C6.52 23.1333 6.52 25.4933 6.52 27.7867L12.88 33.3067ZM27.6 22.9867C28.1067 22.6667 28.6933 22.5067 29.36 22.5067C29.8133 22.5067 30.2267 22.5733 30.6 22.7067C30.92 22.8133 31 23.0267 30.84 23.3467C30.76 23.5333 30.6267 23.6 30.44 23.5467C29.9333 23.44 29.6 23.3867 29.44 23.3867C29.04 23.3867 28.68 23.48 28.36 23.6667C28.12 23.8267 27.9333 24.04 27.8 24.3067H29.6C29.8667 24.3067 29.9733 24.4267 29.92 24.6667C29.8933 24.9067 29.7867 25.0267 29.6 25.0267H27.56C27.56 25.1067 27.56 25.2 27.56 25.3067C27.56 25.3867 27.56 25.4667 27.56 25.5467H29.6C29.7333 25.5467 29.84 25.6133 29.92 25.7467C30 25.8533 30.0267 25.9733 30 26.1067C30 26.2133 29.9333 26.2667 29.8 26.2667C29.56 26.32 28.88 26.32 27.76 26.2667C27.8933 26.56 28.0933 26.7867 28.36 26.9467C28.6533 27.16 29 27.2667 29.4 27.2667C29.5333 27.2667 29.6667 27.24 29.8 27.1867C29.96 27.1333 30.08 27.0933 30.16 27.0667C30.24 27.04 30.3333 27.04 30.44 27.0667C30.4933 27.0933 30.5333 27.1333 30.56 27.1867C30.6133 27.24 30.6533 27.3067 30.68 27.3867C30.7067 27.44 30.72 27.5067 30.72 27.5867C30.7467 27.6667 30.7467 27.7333 30.72 27.7867C30.6933 27.84 30.6533 27.88 30.6 27.9067C30.28 28.04 29.8533 28.1067 29.32 28.1067C28.6533 28.1067 28.08 27.9333 27.6 27.5867C27.12 27.2667 26.8 26.8267 26.64 26.2667H25.6C25.4133 26.2667 25.3467 26.12 25.4 25.8267C25.4267 25.6667 25.4933 25.5733 25.6 25.5467C25.84 25.52 26.1333 25.52 26.48 25.5467C26.48 25.4667 26.48 25.3867 26.48 25.3067C26.48 25.2 26.48 25.1067 26.48 25.0267H25.6C25.3867 25.0267 25.28 24.9333 25.28 24.7467C25.28 24.56 25.36 24.44 25.52 24.3867C25.7333 24.3067 26.1067 24.28 26.64 24.3067C26.8267 23.7467 27.1467 23.3067 27.6 22.9867Z" fill="white"/>
</svg>
