<svg width="48" height="48" viewBox="0 0 48 48" fill="none" xmlns="http://www.w3.org/2000/svg">
<path d="M13.28 29.7349C13.12 29.9216 13.0267 30.0682 13 30.1749C12.52 31.1082 11.9333 33.1749 11.24 36.3749C11.2133 36.4549 11.1867 36.5349 11.16 36.6149C12.8667 36.7482 13.9867 37.5616 14.52 39.0549C14.7333 38.9749 14.9467 38.8949 15.16 38.8149C17.8533 37.7482 19.84 36.8282 21.12 36.0549C19.6533 32.2682 17.04 30.1616 13.28 29.7349ZM14.36 28.2949C18.0933 28.9882 20.76 31.2149 22.36 34.9749C23.48 33.6149 25.5467 30.7216 28.56 26.2949C29.5467 24.8282 30.6533 23.2016 31.88 21.4149C32.04 21.1749 32.3067 20.7749 32.68 20.2149C33.0533 19.6282 33.4533 19.0282 33.88 18.4149C34.3067 17.7749 34.6267 17.2816 34.84 16.9349C34.04 14.0282 31.8133 12.3349 28.16 11.8549C27.9733 12.0949 27.76 12.3616 27.52 12.6549C27.2267 13.0282 26.4133 14.0016 25.08 15.5749C25.08 15.5749 25.0133 15.6416 24.88 15.7749C24.7733 15.9082 24.6267 16.0949 24.44 16.3349C24.2533 16.5482 24.0267 16.8016 23.76 17.0949C23.52 17.3882 23.2667 17.6949 23 18.0149C22.7333 18.3349 22.4667 18.6416 22.2 18.9349C21.96 19.2282 21.72 19.5082 21.48 19.7749C21.2667 20.0149 21.0933 20.2149 20.96 20.3749C20.6667 20.7482 20.3733 21.0949 20.08 21.4149C17.4667 24.4816 15.56 26.7749 14.36 28.2949ZM29.44 10.4949C32.64 11.1349 34.8 12.7349 35.92 15.2949C36.72 13.7749 36.96 12.4282 36.64 11.2549C36.32 10.0549 35.52 9.22824 34.24 8.7749C33.44 8.48157 32.6667 8.46823 31.92 8.7349C31.1733 9.00157 30.3467 9.58824 29.44 10.4949ZM18.2 19.8149C18.4667 19.4949 18.7467 19.1482 19.04 18.7749C19.1467 18.6416 19.28 18.4816 19.44 18.2949C19.6267 18.1082 19.8 17.9082 19.96 17.6949C20.1467 17.4816 20.3467 17.2549 20.56 17.0149C20.7733 16.7482 20.9733 16.4949 21.16 16.2549C21.3733 16.0149 21.5733 15.7882 21.76 15.5749C21.9733 15.3349 22.16 15.1216 22.32 14.9349C22.5067 14.7216 22.6533 14.5482 22.76 14.4149C22.8933 14.2549 22.9867 14.1349 23.04 14.0549C23.12 13.9749 23.16 13.9349 23.16 13.9349C24.4933 12.4149 25.2933 11.4682 25.56 11.0949C27.3467 8.8549 28.96 7.36157 30.4 6.6149C31.84 5.86824 33.4133 5.80157 35.12 6.4149C36.56 6.92157 37.64 7.7749 38.36 8.9749C39.1067 10.1482 39.3867 11.5216 39.2 13.0949C39.04 14.6416 38.4267 16.1882 37.36 17.7349C37.3067 17.7882 37.0533 18.1482 36.6 18.8149C36.1733 19.4816 35.6667 20.2416 35.08 21.0949C34.52 21.9482 34.1467 22.5082 33.96 22.7749C32.7333 24.5882 31.6267 26.2282 30.64 27.6949C26.6667 33.5082 24.2533 36.7749 23.4 37.4949C22.3867 38.4016 19.9467 39.6149 16.08 41.1349C13.8667 41.9882 12.2 42.5482 11.08 42.8149C9.98667 43.1082 9.22667 43.1082 8.8 42.8149C8.42667 42.5749 8.18667 42.1616 8.08 41.5749C7.97333 40.9882 7.97333 40.2682 8.08 39.4149C8.21333 38.5616 8.45333 37.3749 8.8 35.8549C9.52 32.4416 10.1733 30.1749 10.76 29.0549C11.16 28.2549 13.64 25.1749 18.2 19.8149Z" fill="white"/>
</svg>
