<svg width="48" height="48" viewBox="0 0 48 48" fill="none" xmlns="http://www.w3.org/2000/svg">
<path d="M38.6814 23.1597C35.7748 26.0664 33.0281 28.7464 30.4414 31.1997C27.8548 33.6264 26.3081 35.013 25.8014 35.3597C25.4814 35.5997 24.6814 35.533 23.4014 35.1597C22.1481 34.7864 19.9481 33.9997 16.8014 32.7997C16.6148 32.7197 16.4281 32.653 16.2414 32.5997L8.76142 29.7197C8.68142 29.693 8.60142 29.653 8.52142 29.5997C8.46809 29.5197 8.42809 29.4397 8.40142 29.3597C8.37475 29.2797 8.36142 29.1864 8.36142 29.0797C8.36142 28.973 8.38809 28.8797 8.44142 28.7997C9.18809 27.573 9.05475 26.373 8.04142 25.1997C7.53475 25.2797 7.21475 25.413 7.08142 25.5997C6.97475 26.7464 7.12142 27.9064 7.52142 29.0797C7.94809 30.253 8.52142 31.0264 9.24142 31.3997C10.3081 32.013 13.1881 33.2664 17.8814 35.1597C20.1481 36.0664 22.0148 36.773 23.4814 37.2797C24.2814 37.5464 24.9214 37.733 25.4014 37.8397C25.6148 37.893 25.7881 37.933 25.9214 37.9597C26.2681 37.7197 27.2281 36.8264 28.8014 35.2797C30.4014 33.7064 32.1081 31.973 33.9214 30.0797C35.9214 27.9997 37.5881 26.1997 38.9214 24.6797C39.2681 24.3064 39.5748 23.973 39.8414 23.6797L38.7614 23.1997C38.7348 23.1997 38.7081 23.1864 38.6814 23.1597ZM38.0014 22.0797L37.8014 16.6797L24.9614 28.7197C24.7214 28.9597 24.4548 29.013 24.1614 28.8797C24.0281 28.853 23.8548 28.7997 23.6414 28.7197C23.1881 28.5597 22.7214 28.3997 22.2414 28.2397C20.6681 27.7064 19.1348 27.2397 17.6414 26.8397C16.6814 26.5464 15.7614 26.293 14.8814 26.0797C12.7748 25.573 11.0014 25.2797 9.56142 25.1997C10.2814 26.373 10.3748 27.573 9.84142 28.7997L16.7214 31.4397C16.8814 31.493 17.0548 31.5597 17.2414 31.6397C19.6148 32.5464 21.4548 33.213 22.7614 33.6397C23.5614 33.9064 24.1881 34.093 24.6414 34.1997C24.8814 34.253 25.0548 34.2797 25.1614 34.2797H25.2014C25.5748 33.9597 26.4014 33.213 27.6814 32.0397C28.9881 30.8397 30.5748 29.3464 32.4414 27.5597C34.3081 25.7464 36.1614 23.9197 38.0014 22.0797ZM38.5214 13.8797C30.4681 12.1997 25.9214 11.4264 24.8814 11.5597C24.6148 11.613 23.5881 12.2264 21.8014 13.3997C20.2548 14.413 18.2548 15.7864 15.8014 17.5197C14.0681 18.773 12.1881 20.1464 10.1614 21.6397C9.54809 22.093 8.94809 22.5464 8.36142 22.9997C8.17475 23.133 8.00142 23.253 7.84142 23.3597L7.80142 23.3997C7.72142 23.5064 7.65475 23.613 7.60142 23.7197C9.12142 23.4264 11.6681 23.7064 15.2414 24.5597C16.1481 24.773 17.0948 25.0264 18.0814 25.3197C19.5748 25.7464 21.1214 26.2264 22.7214 26.7597C23.2281 26.9197 23.7081 27.0797 24.1614 27.2397C24.1881 27.2397 24.2148 27.253 24.2414 27.2797L38.5214 13.8797ZM43.0014 23.3597C42.9748 23.5464 42.9081 23.733 42.8014 23.9197C42.6948 24.0797 42.5481 24.2797 42.3614 24.5197C42.0148 24.973 41.4948 25.5864 40.8014 26.3597C39.4414 27.8797 37.7481 29.693 35.7214 31.7997C30.5481 37.2397 27.5081 40.093 26.6014 40.3597C26.0948 40.5464 25.0814 40.3997 23.5614 39.9197C22.0681 39.4664 19.8548 38.6397 16.9214 37.4397C12.1481 35.5197 9.18809 34.2397 8.04142 33.5997C7.34809 33.253 6.73475 32.7064 6.20142 31.9597C5.69475 31.213 5.30809 30.3864 5.04142 29.4797C4.77475 28.5464 4.61475 27.5997 4.56142 26.6397C4.50809 25.6797 4.60142 24.7597 4.84142 23.8797C5.10809 22.973 5.49475 22.2397 6.00142 21.6797C6.05475 21.5997 6.10809 21.533 6.16142 21.4797H6.20142L6.24142 21.4397L6.36142 21.3597C6.52142 21.2264 6.69475 21.093 6.88142 20.9597C7.46809 20.533 8.06809 20.093 8.68142 19.6397C10.7081 18.1464 12.6014 16.773 14.3614 15.5197C20.1214 11.3864 23.5081 9.2397 24.5214 9.0797C25.9881 8.89303 31.5748 9.8397 41.2814 11.9197C41.7614 11.9997 42.0681 12.2797 42.2014 12.7597C42.3614 13.213 42.2681 13.613 41.9214 13.9597L40.2814 15.7597L40.4814 21.2397L42.1214 21.9197C42.3081 21.973 42.4814 22.0797 42.6414 22.2397C42.8014 22.373 42.9081 22.5464 42.9614 22.7597C43.0414 22.9464 43.0548 23.1464 43.0014 23.3597ZM41.5614 24.3597H41.6014C41.7081 24.3864 41.8148 24.3864 41.9214 24.3597C41.8148 24.3864 41.6948 24.3864 41.5614 24.3597Z" fill="white"/>
</svg>
