<svg width="48" height="48" viewBox="0 0 48 48" fill="none" xmlns="http://www.w3.org/2000/svg">
<path d="M12.9085 22.3437C12.9085 22.2885 12.9085 22.2471 12.9085 22.2195C12.9649 20.4803 14.0235 19.1553 16.0842 18.2443C18.1732 17.3057 20.8408 16.8226 24.0871 16.795C27.3052 16.795 29.9587 17.2229 32.0476 18.0787C34.1648 18.9344 35.2657 20.1491 35.3504 21.7226C35.3504 21.8882 35.3504 22.0676 35.3504 22.2609C36.282 21.9848 37.2276 21.9158 38.1874 22.0538C39.4013 22.2195 40.3469 22.7164 41.0244 23.5445C41.7019 24.3451 42.0265 25.3941 41.9983 26.6915C41.8572 30.5286 40.5869 33.2478 38.1874 34.8489C37.03 35.6494 35.7174 36.1049 34.2495 36.2153C34.1083 37.3471 33.9531 38.4375 33.7837 39.4865C33.5861 40.8668 32.584 41.9434 30.7773 42.7164C28.9989 43.5169 26.8394 43.9448 24.2988 44C22.5769 44 21.0102 43.8206 19.5987 43.4617C18.1873 43.1028 16.9875 42.5369 15.9995 41.764C15.0115 41.0186 14.3764 40.0939 14.0941 38.9896C14.0659 38.9068 14.0517 38.8102 14.0517 38.6998C14.0235 38.5894 13.9388 37.7612 13.7977 36.2153C12.3015 36.1049 10.9607 35.6494 9.77507 34.8489C7.40384 33.2478 6.14766 30.5286 6.00651 26.6915C5.95006 25.3941 6.26057 24.3451 6.93807 23.5445C7.64379 22.7164 8.58945 22.2195 9.77507 22.0538C10.8478 21.8882 11.8922 21.9848 12.9085 22.3437ZM12.9085 25.2836C12.6826 25.2008 12.485 25.0628 12.3157 24.8696H12.2733C12.1322 24.8144 11.9487 24.7591 11.7229 24.7039C11.1865 24.5659 10.6784 24.5383 10.1985 24.6211C9.1258 24.7867 8.60357 25.4493 8.6318 26.6087C8.74471 29.5625 9.61981 31.6052 11.2571 32.7371C11.9346 33.1787 12.6826 33.4548 13.5013 33.5652C13.5013 33.3444 13.4872 33.1649 13.4589 33.0269C13.2896 31.3706 13.1625 29.8799 13.0778 28.5549C12.9932 27.3678 12.9367 26.2774 12.9085 25.2836ZM35.3081 25.1594C35.1952 27.5335 34.9552 30.3354 34.5882 33.5652C35.3786 33.4272 36.0844 33.1511 36.7054 32.7371C38.3427 31.6052 39.2178 29.5625 39.3307 26.6087C39.3871 25.4493 38.879 24.7867 37.8063 24.6211C37.2982 24.5383 36.776 24.5659 36.2396 24.7039C36.0138 24.7591 35.8303 24.8144 35.6892 24.8696H35.6468C35.5621 24.98 35.4492 25.0766 35.3081 25.1594ZM15.5338 22.7578C15.5055 24.2484 15.562 26.1118 15.7031 28.3478C15.816 29.6729 15.9431 31.1498 16.0842 32.7785C16.1124 32.9717 16.2112 33.8689 16.3806 35.47C16.55 37.0711 16.6488 38.0511 16.677 38.4099C16.8746 39.0173 17.3122 39.5418 17.9897 39.9834C18.6954 40.4527 19.5846 40.8116 20.6573 41.06C21.7582 41.3085 22.9579 41.4189 24.2565 41.3913C26.0349 41.3637 27.6016 41.1153 28.9566 40.646C30.3398 40.1767 31.0737 39.666 31.1584 39.1139C32.2311 32.1297 32.7534 26.6501 32.7251 22.6749C32.3299 22.8682 31.8641 23.0476 31.3278 23.2133C29.4647 23.7378 27.0935 24.0276 24.2141 24.0828C21.2783 24.138 18.8789 23.8896 17.0158 23.3375C16.4512 23.1718 15.9572 22.9786 15.5338 22.7578ZM16.1689 21.2257C16.4512 21.4189 16.9029 21.6121 17.5239 21.8054C19.1894 22.2747 21.4054 22.4955 24.1718 22.4679C26.91 22.4403 29.1401 22.1643 30.862 21.6398C31.4548 21.4741 31.9065 21.2947 32.217 21.1014C31.596 20.6046 30.5374 20.2043 29.0413 19.9006C27.5734 19.5694 25.922 19.4037 24.0871 19.4037C22.2805 19.4037 20.6573 19.5832 19.2176 19.942C17.8062 20.2733 16.7899 20.7012 16.1689 21.2257ZM22.097 29.176C21.8429 29.176 21.6312 29.0932 21.4618 28.9275C21.2924 28.7619 21.2078 28.5549 21.2078 28.3064C21.2078 28.1684 21.236 28.0304 21.2924 27.8923C21.3771 27.7543 21.49 27.6439 21.6312 27.5611C21.7723 27.4783 21.9276 27.4369 22.097 27.4369C22.3228 27.4369 22.5204 27.5335 22.6898 27.7267C22.8874 27.8923 22.9862 28.0856 22.9862 28.3064C22.9862 28.472 22.9438 28.6239 22.8591 28.7619C22.7745 28.8999 22.6615 29.0104 22.5204 29.0932C22.3793 29.1484 22.2381 29.176 22.097 29.176ZM19.2176 31.3292C19.2176 31.1636 19.2741 31.0255 19.387 30.9151C19.5281 30.7771 19.6834 30.7081 19.8528 30.7081C20.0504 30.7081 20.2056 30.7771 20.3185 30.9151C20.4597 31.0255 20.5303 31.1636 20.5303 31.3292C20.5303 32.323 20.8125 33.1097 21.3771 33.6894C21.9699 34.2692 22.7886 34.559 23.833 34.559C24.9622 34.559 25.8796 34.2553 26.5854 33.648C27.2911 33.0407 27.6439 32.2678 27.6439 31.3292C27.6439 31.1636 27.7004 31.0255 27.8133 30.9151C27.9545 30.7771 28.1238 30.7081 28.3214 30.7081C28.4343 30.7081 28.5331 30.7357 28.6178 30.7909C28.7307 30.8461 28.8154 30.9289 28.8719 31.0393C28.9283 31.1222 28.9566 31.2188 28.9566 31.3292C28.9566 32.6266 28.4626 33.717 27.4746 34.6004C26.5148 35.4562 25.3009 35.8841 23.833 35.8841C22.4216 35.8841 21.2924 35.47 20.4456 34.6418C19.6269 33.7861 19.2176 32.6819 19.2176 31.3292ZM26.67 28.9275C26.5007 29.0932 26.2889 29.176 26.0349 29.176C25.8091 29.176 25.6115 29.0932 25.4421 28.9275C25.2727 28.7619 25.188 28.5687 25.188 28.3478C25.188 28.0994 25.2727 27.8923 25.4421 27.7267C25.6115 27.5335 25.8091 27.4369 26.0349 27.4369C26.2889 27.4369 26.5007 27.5335 26.67 27.7267C26.8394 27.8923 26.9241 28.0994 26.9241 28.3478C26.9241 28.5687 26.8394 28.7619 26.67 28.9275ZM14.1364 7.85093C14.2776 7.6853 14.4611 7.58868 14.6869 7.56108C14.9127 7.50587 15.1103 7.54727 15.2797 7.6853C15.4773 7.82333 15.5902 8.00276 15.6184 8.2236C15.6467 8.44444 15.5902 8.65148 15.4491 8.84472C15.1103 9.2588 15.5055 9.94893 16.6347 10.9151C18.5825 12.5438 18.9777 14.0897 17.8203 15.5528C17.6791 15.746 17.4957 15.8565 17.2698 15.8841C17.044 15.9117 16.8464 15.8565 16.677 15.7184C16.5076 15.5804 16.3947 15.401 16.3383 15.1801C16.31 14.9593 16.3665 14.766 16.5076 14.6004C17.0158 13.9379 16.7053 13.1235 15.5761 12.1573C13.6283 10.5286 13.1484 9.09317 14.1364 7.85093ZM23.6637 14.559C23.4943 14.6694 23.2967 14.7108 23.0709 14.6832C22.845 14.628 22.6615 14.5038 22.5204 14.3106C22.4357 14.2001 22.3934 14.0759 22.3934 13.9379C22.3934 13.7723 22.4216 13.6342 22.4781 13.5238C22.5345 13.3858 22.6333 13.2754 22.7745 13.1925C23.4237 12.7785 23.3249 11.6467 22.4781 9.7971C21.236 7.147 21.4618 5.25604 23.1555 4.12422C23.2685 4.04141 23.3955 4 23.5366 4C23.706 4 23.8472 4.0276 23.9601 4.08281C24.1012 4.13803 24.2141 4.23464 24.2988 4.37267C24.4117 4.5383 24.44 4.73154 24.3835 4.95238C24.3553 5.17322 24.2565 5.35266 24.0871 5.49068C23.1555 6.098 23.1132 7.31263 23.9601 9.13458C25.2021 11.8123 25.1033 13.6204 23.6637 14.559ZM28.9989 15.5942C28.886 15.7046 28.759 15.7736 28.6178 15.8012C28.4767 15.8012 28.3355 15.7874 28.1944 15.7598C28.0533 15.7046 27.9262 15.6218 27.8133 15.5114C27.7286 15.401 27.6722 15.2767 27.6439 15.1387C27.6439 15.0007 27.658 14.8627 27.6863 14.7246C27.7427 14.5866 27.8274 14.4624 27.9403 14.352C28.8154 13.6342 29.1542 12.5714 28.9566 11.1636C28.7025 9.17598 29.2247 7.57488 30.5233 6.36025C30.6644 6.19462 30.8479 6.1118 31.0737 6.1118C31.3278 6.1118 31.5254 6.19462 31.6665 6.36025C31.8359 6.52588 31.9206 6.71912 31.9206 6.93996C31.9206 7.1608 31.8359 7.35404 31.6665 7.51967C30.7632 8.34783 30.4104 9.49344 30.608 10.9565C30.862 12.9717 30.3257 14.5176 28.9989 15.5942Z" fill="white"/>
</svg>
