<svg width="15" height="8" viewBox="0 0 15 8" fill="none" xmlns="http://www.w3.org/2000/svg">
<path d="M6.716 5.96182C6.82267 6.04182 6.90933 6.10182 6.976 6.14182C7.056 6.10182 7.14933 6.04182 7.256 5.96182C7.576 5.73515 7.98267 5.38182 8.476 4.90182C9.516 3.92848 10.9227 2.45515 12.696 0.481818C12.8427 0.321818 13.0227 0.241818 13.236 0.241818C13.4627 0.228485 13.656 0.295151 13.816 0.441818C13.976 0.575151 14.056 0.755151 14.056 0.981818C14.0693 1.19515 14.0027 1.38182 13.856 1.54182C11.856 3.75515 10.3293 5.34182 9.276 6.30182C8.22267 7.26182 7.456 7.74182 6.976 7.74182C6.48267 7.74182 5.716 7.24849 4.676 6.26182C3.64933 5.26182 2.156 3.60182 0.196 1.28182C0.102667 1.17515 0.0426668 1.05515 0.0160001 0.921818C-0.0106667 0.775151 -0.00400005 0.641818 0.036 0.521818C0.0893335 0.388484 0.169333 0.275152 0.276 0.181818C0.449333 0.0484852 0.642667 -0.011515 0.856 0.00181813C1.06933 0.0151513 1.24267 0.108484 1.376 0.281818C3.12267 2.32182 4.50267 3.84849 5.516 4.86182C6.00933 5.35515 6.40933 5.72182 6.716 5.96182Z" fill="#E41B23"/>
</svg>
