<svg width="48" height="36" viewBox="0 0 48 36" fill="none" xmlns="http://www.w3.org/2000/svg">
<path d="M39.4237 21.1169C35.0772 23.1437 30.9967 24.9858 27.1819 26.6433C23.3779 28.2715 21.1289 29.1746 20.4351 29.3525C19.9886 29.4879 19.1381 29.0956 17.8838 28.1756C16.6587 27.2662 14.5608 25.5259 11.5899 22.9547C11.4171 22.7925 11.2391 22.645 11.0557 22.512L4.00454 16.3699C3.92748 16.3088 3.85574 16.233 3.78931 16.1426C3.76276 16.0336 3.75083 15.93 3.75352 15.8316C3.75621 15.7333 3.77883 15.6256 3.8214 15.5087C3.86396 15.3918 3.93044 15.3001 4.02083 15.2336C5.32887 14.1868 5.66153 12.818 5.01879 11.1273C4.4314 11.0129 4.02738 11.0313 3.80672 11.1828C3.23224 12.3973 2.93016 13.7276 2.9005 15.1735C2.90007 16.6301 3.22004 17.7067 3.86041 18.4033C4.78507 19.5013 7.44233 22.0245 11.8322 25.973C13.9554 27.8714 15.7198 29.391 17.1256 30.5317C17.8962 31.1432 18.5234 31.6032 19.007 31.9117C19.2196 32.0553 19.3937 32.1683 19.5292 32.2508C20.0051 32.126 21.414 31.5297 23.756 30.4618C26.1379 29.3754 28.7006 28.1562 31.444 26.804C34.4666 25.3218 37.012 24.0135 39.0803 22.8791C39.6093 22.6081 40.0785 22.3651 40.4879 22.1499L39.4954 21.1927C39.4662 21.1821 39.4423 21.1568 39.4237 21.1169ZM39.1091 19.6616L41.0446 13.6617L22.1638 21.7378C21.8049 21.9052 21.4913 21.8572 21.2229 21.594C21.0873 21.5116 20.9186 21.3839 20.7166 21.2111C20.2835 20.8548 19.8357 20.4932 19.3733 20.1262C17.8613 18.9137 16.3665 17.7903 14.8889 16.7559C13.9535 16.0513 13.046 15.4064 12.1664 14.8214C10.059 13.4253 8.23194 12.3961 6.68518 11.7338C7.00633 13.3075 6.62982 14.6603 5.55566 15.7923L12.0448 21.4318C12.199 21.5541 12.3624 21.6964 12.5351 21.8586C14.7752 23.7996 16.5264 25.2646 17.7887 26.2538C18.5593 26.8654 19.1719 27.3201 19.6263 27.6179C19.8681 27.7721 20.0475 27.8705 20.1645 27.9131L20.2083 27.9291C20.7453 27.7272 21.9495 27.2385 23.821 26.4629C25.7323 25.6687 28.0677 24.6647 30.827 23.4508C33.597 22.2077 36.3577 20.9446 39.1091 19.6616ZM42.9512 10.8794C34.7926 5.82409 30.1167 3.16205 28.9233 2.89324C28.6097 2.84531 27.2394 3.10805 24.8125 3.68146C22.7125 4.17523 19.9719 4.88278 16.5906 5.80411C14.1903 6.48651 11.5812 7.24194 8.76349 8.0704C7.91019 8.32266 7.07152 8.58024 6.24746 8.84314C5.98961 8.91483 5.7517 8.97722 5.53373 9.03032L5.47392 9.05821C5.34365 9.14323 5.228 9.23357 5.12697 9.32922C6.9104 9.61416 9.59061 10.9373 13.1676 13.2987C14.0764 13.8943 15.0132 14.5498 15.9778 15.2651C17.4447 16.3287 18.9488 17.4721 20.4901 18.6952C20.9817 19.0728 21.4441 19.4398 21.8773 19.7961C21.9065 19.8067 21.9304 19.832 21.949 19.8718L42.9512 10.8794ZM44.0799 23.06C43.9762 23.254 43.8286 23.432 43.6372 23.5941C43.4564 23.727 43.2158 23.8877 42.9154 24.0763C42.3545 24.435 41.5397 24.8999 40.471 25.4711C38.3735 26.5948 35.7935 27.9071 32.731 29.4079C24.8888 33.3076 20.4175 35.2227 19.3171 35.1532C18.6871 35.1557 17.6347 34.5906 16.1599 33.4578C14.7036 32.365 12.607 30.5755 9.86996 28.0895C5.40304 24.0799 2.66872 21.4955 1.66699 20.3363C1.04521 19.6796 0.590943 18.8356 0.304183 17.8042C0.0466575 16.7834 -0.0473893 15.7228 0.0220431 14.6225C0.102116 13.4928 0.304449 12.3911 0.629042 11.3174C0.953635 10.2437 1.42306 9.27231 2.03731 8.40333C2.69144 7.51575 3.40797 6.86608 4.18688 6.45432C4.27727 6.38789 4.36235 6.33609 4.4421 6.2989L4.48595 6.31486L4.54576 6.28697L4.70924 6.24715C4.93785 6.16482 5.18108 6.08781 5.43893 6.01612C6.25235 5.78245 7.0857 5.53949 7.939 5.28723C10.7567 4.45877 13.3804 3.70865 15.81 3.0369C23.774 0.803863 28.3434 -0.198185 29.5182 0.0307498C31.2006 0.411341 36.9476 3.67839 46.7591 9.8319C47.2534 10.1111 47.4779 10.5405 47.4325 11.1199C47.427 11.6807 47.1651 12.082 46.6467 12.3237L44.1305 13.6427L42.1632 19.7303L43.6898 21.1302C43.8731 21.2631 44.0206 21.4492 44.1322 21.6885C44.2544 21.8985 44.3021 22.1311 44.2755 22.3862C44.2887 22.6228 44.2235 22.8474 44.0799 23.06ZM42.1022 23.5817L42.1461 23.5977C42.2524 23.6695 42.3693 23.712 42.4969 23.7254C42.3693 23.712 42.2377 23.6641 42.1022 23.5817Z" fill="#E41B23"/>
</svg>
