<svg width="23" height="29" viewBox="0 0 23 29" fill="none" xmlns="http://www.w3.org/2000/svg">
<path d="M0.189827 13.1877C0.0157536 13.4581 -0.038625 13.7662 0.0266906 14.1122C0.356636 15.6234 1.19463 17.891 1.53197 19.2766L3.95379 19.2766C3.62689 17.9296 2.79328 15.0539 2.47308 13.5825C2.40776 13.2365 2.22865 12.977 1.93575 12.8038C1.63585 12.6046 1.3198 12.5494 0.987587 12.6385C0.648384 12.7014 0.382465 12.8845 0.189827 13.1877Z" fill="#E41B23"/>
<path d="M13.9572 3.54331C15.0244 4.45963 15.8061 5.84388 16.3024 7.69606L19.7375 19.2766L22.5946 19.2766L18.679 7.05925C18.008 4.55489 16.868 2.65151 15.2591 1.34909C13.6502 0.0466766 11.7597 -0.313518 9.58752 0.26851C7.41536 0.850539 5.93376 2.01643 5.14269 3.7662C4.35161 5.51597 4.27063 7.56477 4.89973 9.9126L8.86306 24.7039C9.17761 25.8779 9.58258 26.7759 10.078 27.3981C11.0827 28.6946 12.4366 29.1986 14.1396 28.9101C15.7985 28.6613 16.9075 27.9447 17.4666 26.7604C18.0257 25.5761 18.0711 24.11 17.6028 22.3621L14.1113 9.33167C14.0204 8.99254 13.8285 8.73639 13.5356 8.56324C13.2427 8.39008 12.9302 8.34801 12.598 8.43703C12.2657 8.52604 12.0033 8.72218 11.8107 9.02544C11.6436 9.32185 11.6055 9.63962 11.6964 9.97875L15.1879 23.0092C15.3766 23.7136 15.4537 24.308 15.4192 24.7926C15.4033 25.2442 15.2537 25.6058 14.9704 25.8775C14.6871 26.1491 14.2829 26.3273 13.7579 26.4121C13.2839 26.4831 12.8912 26.4486 12.5797 26.3084C12.2682 26.1681 12.0125 25.9291 11.8124 25.5913C11.6309 25.2205 11.4527 24.709 11.278 24.0569L7.31466 9.26552C6.86031 7.56987 6.86508 6.15661 7.32897 5.02575C7.81842 3.88804 8.79145 3.12404 10.2481 2.73374C11.6536 2.35713 12.89 2.62699 13.9572 3.54331Z" fill="#E41B23"/>
</svg>
