<svg width="32" height="32" viewBox="0 0 32 32" fill="none" xmlns="http://www.w3.org/2000/svg">
<path d="M21.5333 30.5546C19.2667 31.4658 16.8667 31.8658 14.3333 31.7546C11.8222 31.6435 9.54445 31.0102 7.5 29.8546C5.1 28.4769 3.24444 26.4991 1.93333 23.9213C0.644445 21.3213 0 18.2102 0 14.588C0 12.2324 0.644445 9.98798 1.93333 7.85465C3.22222 5.69909 4.97778 3.93242 7.2 2.55465C9.55556 1.08798 12.1444 0.254645 14.9667 0.0546447C17.7889 -0.167577 20.6667 0.287978 23.6 1.42131C25.9556 2.35464 27.8889 4.1102 29.4 6.68798C30.9111 9.26576 31.7 12.1213 31.7667 15.2546C31.8556 18.6991 31.0111 21.788 29.2333 24.5213C27.4556 27.2324 24.8889 29.2435 21.5333 30.5546ZM20.7667 28.6213C23.7 27.488 25.9333 25.7435 27.4667 23.388C29.0222 21.0102 29.7667 18.3102 29.7 15.288C29.6333 12.5769 28.9556 10.1102 27.6667 7.88798C26.4 5.64353 24.7889 4.13242 22.8333 3.35465C21.1222 2.68798 19.4 2.28798 17.6667 2.15465C15.9556 1.99909 14.3111 2.1102 12.7333 2.48798C11.1556 2.86576 9.67778 3.47687 8.3 4.32131C6.38889 5.52131 4.87778 7.03242 3.76667 8.85465C2.65556 10.6769 2.1 12.588 2.1 14.588C2.07778 17.8546 2.62222 20.6213 3.73333 22.888C4.84444 25.1324 6.44444 26.8435 8.53333 28.0213C10.2889 29.0213 12.2667 29.5658 14.4667 29.6546C16.6667 29.7658 18.7667 29.4213 20.7667 28.6213ZM11.1 23.9213C10.8556 24.0991 10.6 24.0991 10.3333 23.9213C10.0889 23.7435 10.0111 23.5102 10.1 23.2213C11.7889 17.6658 12.8444 14.588 13.2667 13.988C13.5778 13.5658 16.0667 11.4991 20.7333 7.78798C20.9778 7.58798 21.2333 7.57687 21.5 7.75464C21.7667 7.93242 21.8556 8.17687 21.7667 8.48798C19.9667 14.5102 18.9333 17.7102 18.6667 18.088C18.4 18.4435 15.8778 20.388 11.1 23.9213ZM15.7333 18.8546C16.9111 17.9435 17.5333 17.4324 17.6 17.3213C17.6667 17.2324 17.9444 16.4324 18.4333 14.9213C18.8111 13.7213 19.3111 12.1102 19.9333 10.088C16.4 12.9324 14.5333 14.488 14.3333 14.7546C14.0444 15.1769 13.2444 17.488 11.9333 21.688C13.5111 20.5102 14.7778 19.5658 15.7333 18.8546ZM16.6667 16.8546C16.4667 17.0546 16.2222 17.1546 15.9333 17.1546C15.6444 17.1546 15.4 17.0546 15.2 16.8546C15 16.6324 14.9 16.388 14.9 16.1213C14.9 15.8324 15 15.588 15.2 15.388C15.4 15.1658 15.6444 15.0546 15.9333 15.0546C16.2222 15.0546 16.4667 15.1658 16.6667 15.388C16.8667 15.588 16.9667 15.8324 16.9667 16.1213C16.9667 16.388 16.8667 16.6324 16.6667 16.8546ZM9.03333 26.5546C7.47778 25.488 6.2 24.1102 5.2 22.4213C4.22222 20.7324 3.65556 18.9546 3.5 17.088C3.32222 14.888 3.75556 12.7769 4.8 10.7546C5.86667 8.73242 7.52222 6.92131 9.76667 5.32131C11.2556 4.25465 12.9444 3.6102 14.8333 3.38798C16.7444 3.14354 18.5889 3.36576 20.3667 4.05465C22.3667 4.83242 24.0333 6.12131 25.3667 7.92131C26.7 9.69909 27.6 11.8769 28.0667 14.4546C28.2889 15.7435 28.2111 17.0991 27.8333 18.5213C27.4778 19.9213 26.8667 21.2769 26 22.588C25.1333 23.8991 24.0889 25.0324 22.8667 25.988C20.7556 27.6546 18.5 28.5435 16.1 28.6546C13.7222 28.788 11.3667 28.088 9.03333 26.5546ZM9.76667 25.488C11.8556 26.8658 13.9556 27.4991 16.0667 27.388C18.1778 27.2769 20.1667 26.4769 22.0333 24.988C23.7222 23.6546 25.0111 22.0324 25.9 20.1213C26.7889 18.188 27.0889 16.3769 26.8 14.688C26.5111 13.1102 26.0444 11.688 25.4 10.4213C24.7556 9.15464 23.9667 8.09909 23.0333 7.25464C22.1222 6.38798 21.0778 5.73242 19.9 5.28798C18.3222 4.66576 16.6889 4.45464 15 4.65464C13.3333 4.85464 11.8444 5.43242 10.5333 6.38798C8.46667 7.85465 6.95556 9.49909 6 11.3213C5.04444 13.1213 4.64444 15.0102 4.8 16.988C4.93333 18.6546 5.44444 20.2546 6.33333 21.788C7.22222 23.2991 8.36667 24.5324 9.76667 25.488Z" fill="#E41B23"/>
</svg>
