<svg preserveAspectRatio="none" width="100%" height="100%" overflow="visible" style="display: block;" viewBox="0 0 41.7416 38.3373" fill="none" xmlns="http://www.w3.org/2000/svg">
<path id="Doodle Icon_" d="M5.76696 12.357C4.23807 11.8237 2.97585 11.1126 1.98029 10.2237C1.02029 9.29926 0.398067 8.26815 0.113623 7.13037C-0.135266 5.99259 0.0247351 4.7837 0.593624 3.5037C1.37585 1.76148 2.67362 0.677036 4.48696 0.250371C6.30029 -0.211852 8.18473 -0.0340743 10.1403 0.783704C13.4825 2.09926 18.4247 4.1437 24.967 6.91704C31.5447 9.69037 35.6158 11.4859 37.1803 12.3037C39.0292 13.2993 40.3447 14.7215 41.127 16.5704C41.9092 18.4193 41.9447 20.2859 41.2336 22.1704C40.5581 24.0548 39.1714 25.4948 37.0736 26.4904C34.9047 27.4859 31.0114 29.1215 25.3936 31.397C25.1092 31.5037 24.7892 31.6282 24.4336 31.7704C22.1936 32.6593 19.5803 33.6904 16.5936 34.8637C16.5225 34.8993 15.6514 35.237 13.9803 35.877C12.3447 36.517 11.3847 36.8904 11.1003 36.997C8.18473 38.2059 5.87362 38.597 4.16696 38.1704C2.49585 37.7793 1.28696 36.4637 0.540291 34.2237C-0.810821 30.2059 1.2514 27.3793 6.72696 25.7437C9.67807 24.8548 15.0825 22.7393 22.9403 19.397C13.6958 15.4504 7.9714 13.1037 5.76696 12.357ZM35.5803 15.237C34.1225 14.4548 30.1225 12.6948 23.5803 9.95704C17.0736 7.1837 12.1847 5.15704 8.91362 3.87704C7.66918 3.37926 6.56696 3.21926 5.60696 3.39704C4.64696 3.57482 3.98918 4.05482 3.63362 4.83704C2.78029 6.72148 3.86473 8.17926 6.88696 9.21037C9.4114 10.0993 16.3981 12.9793 27.847 17.8504C28.5225 18.1348 28.8603 18.6504 28.8603 19.397C28.8603 20.1081 28.5225 20.6059 27.847 20.8904C17.8914 25.1926 11.1714 27.877 7.68696 28.9437C6.01585 29.4415 4.84251 30.0281 4.16696 30.7037C3.52696 31.3793 3.36696 32.197 3.68696 33.157C4.07807 34.2948 4.66474 34.917 5.44696 35.0237C6.26474 35.1304 7.74029 34.757 9.87362 33.9037C10.1581 33.797 11.1358 33.4237 12.807 32.7837C14.4781 32.1081 15.3314 31.7704 15.367 31.7704C18.3536 30.597 20.967 29.5659 23.207 28.677C23.527 28.5348 23.847 28.4104 24.167 28.3037C29.7136 26.0637 33.5536 24.4459 35.687 23.4504C36.8958 22.8815 37.6958 22.0637 38.087 20.997C38.5136 19.8948 38.4781 18.8104 37.9803 17.7437C37.5181 16.677 36.7181 15.8415 35.5803 15.237Z" fill="var(--fill-0, #E41B23)"/>
</svg>
