<svg width="21" height="26" viewBox="0 0 21 26" fill="none" xmlns="http://www.w3.org/2000/svg">
<path d="M17.0933 5.79487C17.3778 5.70598 17.6711 5.67043 17.9733 5.6882C18.7022 5.74154 19.2711 6.08821 19.68 6.72821C20.0889 7.35043 20.2667 8.16821 20.2133 9.18154C20.1956 9.27043 20.1956 9.66154 20.2133 10.3549C20.2489 11.7593 20.24 12.9238 20.1867 13.8482C20.0622 16.0349 19.6711 17.5638 19.0133 18.4349C18.64 18.9504 18.3378 19.7327 18.1067 20.7815C18 21.2082 17.9022 21.7149 17.8133 22.3015C17.8133 22.3193 17.7867 22.5238 17.7333 22.9149C17.68 23.306 17.6444 23.546 17.6267 23.6349C17.5556 24.1149 17.4756 24.4349 17.3867 24.5949C17.3156 24.7727 17.1644 24.9149 16.9333 25.0215C15.44 25.7149 13.2622 25.9815 10.4 25.8215C8.83556 25.7504 7.64444 25.5638 6.82667 25.2615C6.00889 24.9593 5.6 24.506 5.6 23.9015C5.6 23.6527 5.6 23.386 5.6 23.1015C5.58222 22.586 5.55556 22.0793 5.52 21.5815C5.41333 20.3015 5.25333 19.2971 5.04 18.5682C3.52889 17.9104 2.35556 16.9949 1.52 15.8215C1.30667 15.5015 1.08444 15.1371 0.853333 14.7282C0.782222 14.586 0.702223 14.4082 0.613334 14.1949C0.595556 14.1771 0.56 14.106 0.506667 13.9815C0.453333 13.8749 0.417778 13.7949 0.4 13.7415C0.382222 13.706 0.364444 13.6704 0.346667 13.6349C0.133333 13.2082 0.0177777 12.7727 0 12.3282C0 11.8838 0.0800002 11.4838 0.24 11.1282C0.4 10.7727 0.622222 10.4615 0.906667 10.1949C1.19111 9.92821 1.50222 9.75043 1.84 9.66154C2.19556 9.55487 2.56 9.55487 2.93333 9.66154C3.32444 9.76821 3.68889 9.99932 4.02667 10.3549C4.22222 10.5504 4.56 10.9504 5.04 11.5549C5.04 11.4838 5.04 11.4126 5.04 11.3415C5.05778 10.6304 5.06667 9.48376 5.06667 7.90154C5.04889 7.72376 5.04 7.45709 5.04 7.10154C5.04 5.98154 5.04 5.19932 5.04 4.75487C5.04 4.02598 5.27111 3.42154 5.73333 2.94154C6.21333 2.44376 6.8 2.17709 7.49333 2.14154C7.79556 2.14154 8.08 2.17709 8.34667 2.2482C8.41778 1.64376 8.70222 1.12821 9.2 0.701539C9.71556 0.274872 10.3111 0.0437611 10.9867 0.00820495C11.5022 -0.0273502 11.9644 0.0526499 12.3733 0.248205C12.7822 0.425983 13.1111 0.719316 13.36 1.1282C13.6089 1.53709 13.7422 2.01709 13.76 2.56821C14.0444 2.46154 14.3467 2.41709 14.6667 2.43487C15.3422 2.43487 15.9111 2.64821 16.3733 3.07487C16.8533 3.50154 17.0933 4.04376 17.0933 4.70154V5.79487ZM15.44 7.95487V4.70154C15.44 4.52376 15.36 4.38154 15.2 4.27487C15.0578 4.16821 14.8711 4.10598 14.64 4.08821C14.0889 4.08821 13.7956 4.34598 13.76 4.86154V8.88821C13.76 9.11932 13.68 9.32376 13.52 9.50154C13.36 9.66154 13.1644 9.74154 12.9333 9.74154C12.7022 9.74154 12.5067 9.66154 12.3467 9.50154C12.1867 9.32376 12.1067 9.11932 12.1067 8.88821V2.64821C12.1067 1.95487 11.7778 1.62598 11.12 1.66154C10.8 1.67932 10.5333 1.77709 10.32 1.95487C10.1067 2.11487 10 2.29265 10 2.4882V5.60821C10 5.60821 10 5.6171 10 5.63487V9.68821C10 9.91932 9.92 10.1149 9.76 10.2749C9.6 10.4349 9.40444 10.5149 9.17333 10.5149C8.94222 10.5149 8.74667 10.4349 8.58667 10.2749C8.42667 10.1149 8.34667 9.91932 8.34667 9.68821V4.75487C8.34667 4.0971 8.08 3.78598 7.54667 3.82154C7.29778 3.82154 7.09333 3.91043 6.93333 4.08821C6.77333 4.26598 6.69333 4.48821 6.69333 4.75487C6.69333 5.19932 6.70222 5.98154 6.72 7.10154C6.72 7.43932 6.72 7.70598 6.72 7.90154C6.73778 9.48376 6.73778 10.6482 6.72 11.3949C6.70222 11.9104 6.67556 12.3104 6.64 12.5949C6.62222 12.7727 6.59556 12.9238 6.56 13.0482C6.54222 13.1549 6.49778 13.2527 6.42667 13.3415C6.24889 13.6438 5.98222 13.786 5.62667 13.7682C5.00445 13.7149 4.43556 13.3949 3.92 12.8082C3.90222 12.7904 3.84889 12.7282 3.76 12.6215C3.67111 12.4971 3.57333 12.3727 3.46667 12.2482C3.36 12.106 3.24444 11.9638 3.12 11.8215C2.99556 11.6793 2.89778 11.5727 2.82667 11.5015C2.54222 11.1993 2.24889 11.2082 1.94667 11.5282C1.59111 11.8838 1.55556 12.3371 1.84 12.8882C1.85778 12.9238 1.87556 12.9682 1.89333 13.0215C1.92889 13.0749 1.96444 13.1549 2 13.2615C2.05333 13.3682 2.08889 13.4393 2.10667 13.4749C2.19556 13.6704 2.27556 13.8304 2.34667 13.9549C2.52444 14.3104 2.71111 14.6127 2.90667 14.8615C3.58222 15.8393 4.61333 16.6038 6 17.1549C6.23111 17.2615 6.39111 17.4215 6.48 17.6349C6.81778 18.5415 7.04889 19.8127 7.17333 21.4482C7.20889 21.9638 7.23556 22.506 7.25333 23.0749C7.27111 23.2704 7.28 23.4571 7.28 23.6349C7.40444 23.6882 7.59111 23.7504 7.84 23.8215C8.53333 23.9993 9.41333 24.1149 10.48 24.1682C12.8267 24.2927 14.6489 24.1149 15.9467 23.6349C15.9644 23.5638 15.9822 23.4749 16 23.3682C16 23.2971 16.0267 23.066 16.08 22.6749C16.1333 22.3015 16.1689 22.0971 16.1867 22.0615C16.2756 21.4215 16.3733 20.8704 16.48 20.4082C16.7644 19.1282 17.1644 18.1415 17.68 17.4482C18.1244 16.826 18.4089 15.5904 18.5333 13.7415C18.5867 12.8704 18.5956 11.7593 18.56 10.4082C18.5422 9.66154 18.5333 9.22598 18.5333 9.10154C18.6044 7.96376 18.3733 7.37709 17.84 7.34154C17.6444 7.32376 17.4667 7.38598 17.3067 7.5282C17.1644 7.65265 17.0933 7.80376 17.0933 7.98154V10.5149C17.0933 10.6749 17.0578 10.8171 16.9867 10.9415C16.9156 11.066 16.8089 11.1638 16.6667 11.2349C16.5422 11.306 16.4089 11.3415 16.2667 11.3415C16.0356 11.3415 15.84 11.2615 15.68 11.1015C15.52 10.9415 15.44 10.746 15.44 10.5149V7.98154C15.4222 7.98154 15.4133 7.98154 15.4133 7.98154C15.4133 7.98154 15.4222 7.97265 15.44 7.95487ZM13.3333 12.8615C13.92 12.8082 14.4 13.0038 14.7733 13.4482C15.1644 13.8749 15.3778 14.4793 15.4133 15.2615C15.4311 15.9904 15.1467 16.7993 14.56 17.6882C13.9911 18.5771 13.3067 19.306 12.5067 19.8749C12.3289 20.0171 12.1422 20.026 11.9467 19.9015C11.8756 19.866 11.8044 19.8304 11.7333 19.7949C11.2889 19.546 10.9867 19.3682 10.8267 19.2615C9.99111 18.7638 9.35111 18.2393 8.90667 17.6882C8.48 17.1371 8.21333 16.4704 8.10667 15.6882C8 14.9771 8.11556 14.3549 8.45333 13.8215C8.80889 13.2882 9.28889 12.9593 9.89333 12.8349C10.7467 12.6749 11.4044 12.9238 11.8667 13.5815C12.2756 13.1549 12.7644 12.9149 13.3333 12.8615ZM14.3733 15.2882C14.3378 14.3104 14.0178 13.8482 13.4133 13.9015C13.1467 13.9193 12.8978 14.0349 12.6667 14.2482C12.4533 14.4615 12.3289 14.7015 12.2933 14.9682C12.2756 15.1638 12.1778 15.306 12 15.3949C11.84 15.466 11.68 15.4571 11.52 15.3682C11.36 15.2793 11.2711 15.1371 11.2533 14.9415C11.2356 14.5326 11.12 14.2393 10.9067 14.0615C10.6933 13.866 10.4267 13.8038 10.1067 13.8749C9.76889 13.946 9.50222 14.1327 9.30667 14.4349C9.12889 14.7371 9.06667 15.1104 9.12 15.5549C9.20889 16.1415 9.43111 16.6571 9.78667 17.1015C10.1422 17.5282 10.6667 17.9549 11.36 18.3815C11.52 18.4704 11.7867 18.6215 12.16 18.8349C12.7644 18.3549 13.28 17.7682 13.7067 17.0749C14.1511 16.3815 14.3733 15.786 14.3733 15.2882Z" fill="white"/>
</svg>
