<svg preserveAspectRatio="none" width="100%" height="100%" overflow="visible" style="display: block;" viewBox="0 0 26.5087 26.0033" fill="none" xmlns="http://www.w3.org/2000/svg">
<path id="Doodle Icon_" d="M1.77143 16.1195C2.64254 15.835 3.50476 15.9239 4.35809 16.3862C4.39365 16.1551 4.45587 15.9328 4.54476 15.7195C4.63365 15.5062 4.74032 15.3195 4.86476 15.1595C4.98921 14.9817 5.13143 14.8217 5.29143 14.6795C5.45143 14.5373 5.62921 14.4217 5.82476 14.3328C6.0381 14.2262 6.26032 14.1551 6.49143 14.1195C7.32698 13.9417 8.09143 14.1195 8.78476 14.6528C9.4781 15.1684 9.93143 15.9328 10.1448 16.9462C10.4648 18.5284 10.4292 20.1017 10.0381 21.6662C9.64698 23.2306 8.97143 24.5995 8.01143 25.7728C7.83365 25.9684 7.62032 26.0395 7.37143 25.9862C6.05587 25.6662 4.63365 24.9195 3.10476 23.7462C1.57587 22.5906 0.64254 21.4973 0.304762 20.4662C-0.0507935 19.3817 -0.0952382 18.4573 0.171428 17.6928C0.455873 16.9106 0.989206 16.3862 1.77143 16.1195ZM1.4781 20.0662C1.74476 20.8306 2.50032 21.6928 3.74476 22.6528C4.98921 23.6306 6.17143 24.2973 7.29143 24.6528C8.05587 23.6395 8.58032 22.4751 8.86476 21.1595C9.16698 19.8439 9.18476 18.5284 8.91809 17.2128C8.77587 16.5195 8.50032 16.0128 8.09143 15.6928C7.68254 15.3551 7.22921 15.2395 6.73143 15.3462C6.26921 15.4351 5.93143 15.7017 5.71809 16.1462C5.52254 16.5728 5.52254 17.0973 5.71809 17.7195C5.77143 17.9506 5.72698 18.1462 5.58476 18.3062C5.46032 18.4662 5.29143 18.5462 5.07809 18.5462C4.86476 18.5284 4.69587 18.4217 4.57143 18.2262C4.32254 17.835 3.96698 17.5506 3.50476 17.3728C3.04254 17.1951 2.5981 17.1684 2.17143 17.2928C1.72698 17.4528 1.44254 17.7639 1.3181 18.2262C1.19365 18.6706 1.24698 19.2839 1.4781 20.0662ZM14.0914 0.0661603C14.927 0.190605 15.6914 0.519494 16.3848 1.05283C17.0781 1.58616 17.6203 2.25283 18.0114 3.05283C18.7403 2.21727 19.5759 1.64838 20.5181 1.34616C21.4781 1.04394 22.4203 1.05283 23.3448 1.37283C24.607 1.81727 25.5048 2.71505 26.0381 4.06616C26.5714 5.39949 26.6514 7.00838 26.2781 8.89283C25.8514 11.0262 24.9537 12.9017 23.5848 14.5195C22.2336 16.1373 19.9937 17.9862 16.8648 20.0662C16.687 20.1728 16.5003 20.2173 16.3048 20.1995C16.1092 20.1817 15.9403 20.1017 15.7981 19.9595C13.1314 17.3106 11.1848 14.9106 9.95809 12.7595C8.73143 10.5906 8.18921 8.46616 8.33143 6.38616C8.49143 4.21727 9.10476 2.56394 10.1714 1.42616C11.2381 0.270605 12.5448 -0.182729 14.0914 0.0661603ZM22.8114 2.94616C22.0648 2.67949 21.3003 2.74172 20.5181 3.13283C19.7359 3.52394 19.1048 4.17283 18.6248 5.07949C18.6781 5.59505 18.6781 6.11061 18.6248 6.62616C18.607 6.85727 18.5092 7.04394 18.3314 7.18616C18.1537 7.32838 17.9492 7.39061 17.7181 7.37283C17.5581 7.35505 17.4159 7.30172 17.2914 7.21283C17.1848 7.12394 17.0959 7.01727 17.0248 6.89283C16.9714 6.75061 16.9537 6.59949 16.9714 6.43949C17.0959 5.24838 16.847 4.19949 16.2248 3.29283C15.6203 2.38616 14.8203 1.85283 13.8248 1.69283C12.8114 1.53283 11.9492 1.87061 11.2381 2.70616C10.527 3.54172 10.1092 4.80394 9.98476 6.49283C9.8781 8.21727 10.3581 10.0306 11.4248 11.9328C12.4914 13.8351 14.1803 15.9595 16.4914 18.3062C19.2292 16.4573 21.1759 14.8306 22.3314 13.4262C23.5048 12.0217 24.2781 10.4039 24.6514 8.57283C24.9359 7.07949 24.9003 5.84394 24.5448 4.86616C24.207 3.8706 23.6292 3.23061 22.8114 2.94616ZM3.10476 4.83949C3.54921 5.01727 3.90476 5.33727 4.17143 5.79949C4.7581 5.37283 5.38921 5.33727 6.06476 5.69283C6.58032 5.94172 6.91809 6.34172 7.07809 6.89283C7.25587 7.44394 7.21143 8.03061 6.94476 8.65283C6.64254 9.29283 6.23365 9.79949 5.71809 10.1728C5.20254 10.5462 4.5181 10.8484 3.66476 11.0795C3.48698 11.1328 3.18476 11.2128 2.7581 11.3195C2.66921 11.3373 2.58921 11.3551 2.5181 11.3728C2.30476 11.4084 2.13587 11.3462 2.01143 11.1862C1.44254 10.4928 1.01587 9.68394 0.731429 8.75949C0.464762 7.83505 0.429207 7.06172 0.624762 6.43949C0.855873 5.74616 1.19365 5.25727 1.6381 4.97283C2.08254 4.68838 2.57143 4.64394 3.10476 4.83949ZM1.61143 6.75949C1.48698 7.16838 1.52254 7.71949 1.7181 8.41283C1.93143 9.08838 2.23365 9.71061 2.62476 10.2795C2.98032 10.1906 3.2381 10.1195 3.3981 10.0662C4.09143 9.88838 4.64254 9.65727 5.05143 9.37283C5.46032 9.08838 5.77143 8.70616 5.98476 8.22616C6.14476 7.85283 6.18032 7.52394 6.09143 7.23949C6.02032 6.95505 5.85143 6.74172 5.58476 6.5995C5.42476 6.52838 5.26476 6.50172 5.10476 6.51949C4.96254 6.51949 4.82921 6.58172 4.70476 6.70616C4.58032 6.83061 4.47365 6.99949 4.38476 7.21283C4.29587 7.51505 4.09143 7.63061 3.77143 7.55949C3.46921 7.4706 3.34476 7.26616 3.3981 6.94616C3.43365 6.73283 3.38032 6.51949 3.2381 6.30616C3.11365 6.07505 2.94476 5.91505 2.73143 5.82616C2.25143 5.64838 1.8781 5.95949 1.61143 6.75949Z" fill="var(--fill-0, white)"/>
</svg>
