<svg width="53" height="49" viewBox="0 0 53 49" fill="none" xmlns="http://www.w3.org/2000/svg">
<path d="M43.52 18.24L42.0267 17.3333C40.1067 20.4622 37.9556 23.6267 35.5733 26.8267C33.2267 30.0267 31.4489 32.2667 30.24 33.5467C29.6711 33.0844 28.7467 32.32 27.4667 31.2533C26.1867 30.1867 24.8711 29.1022 23.52 28C22.2044 26.8622 21.1556 26.0089 20.3733 25.44C24.2844 21.8489 27.3067 18.9689 29.44 16.8C31.5733 14.5956 33.1911 12.7289 34.2933 11.2L32.9067 10.1867L31.4667 9.22667C29.5467 11.9644 24.5689 16.9956 16.5333 24.32L14.9333 25.76L16.6933 26.9867C17.7244 27.6978 18.9867 28.7111 20.48 30.0267C21.9733 31.3067 23.2711 32.4622 24.3733 33.4933C25.4756 34.4889 26.5956 35.3778 27.7333 36.16C28.8711 36.9422 29.7422 37.3333 30.3467 37.3333C30.9156 37.3689 31.6444 37.0133 32.5333 36.2667C33.4578 35.4844 34.3822 34.5244 35.3067 33.3867C36.2667 32.2489 37.3333 30.8267 38.5067 29.12C39.7156 27.4133 40.8 25.7956 41.76 24.2667C42.7556 22.7378 43.84 21.0311 45.0133 19.1467L43.52 18.24ZM18.9867 27.4667L17.6533 26.3467C12.64 32.1778 6.75556 38.88 0 46.4533L1.28 47.5733L2.56 48.7467C9.31555 41.1733 15.2178 34.4533 20.2667 28.5867L18.9867 27.4667ZM19.5733 33.44L18.72 32.8C15.5911 36.9244 13.4578 41.5289 12.32 46.6133L11.9467 48.4267L13.7067 47.8933C19.36 46.1156 23.5378 43.0044 26.24 38.56L25.3333 37.9733L24.4267 37.44C23.3244 39.2178 22.0267 40.7289 20.5333 41.9733C19.04 43.2178 17.1733 44.2844 14.9333 45.1733C16.1067 41.0844 17.9378 37.3867 20.4267 34.08L19.5733 33.44ZM28.8 3.73333L25.28 4.48L28.1067 6.77333C31.0578 9.15555 37.6711 14.6667 47.9467 23.3067L50.0267 25.0667L50.72 22.4533C51.6089 19.0044 52.16 15.3422 52.3733 11.4667C52.5867 7.55556 52.4978 4.30222 52.1067 1.70667L51.8933 0L50.1867 0.213334C40.9778 1.45778 33.8489 2.63111 28.8 3.73333ZM33.0667 6.34667C37.12 5.56445 42.3822 4.74667 48.8533 3.89333C49.2444 8.90667 48.96 13.9022 48 18.88C41.2444 13.1911 36.2667 9.01333 33.0667 6.34667Z" fill="white"/>
</svg>
