<svg width="81" height="59" viewBox="0 0 81 59" fill="none" xmlns="http://www.w3.org/2000/svg">
<path d="M69.4638 51.8543L70.5471 50.6043C72.7693 52.4932 74.4915 54.5765 75.7138 56.8543L74.2971 57.6043L72.8804 58.3543C71.936 56.5765 70.4638 54.8265 68.4638 53.1043L69.4638 51.8543ZM71.1304 12.2709L70.3804 10.8543C71.6027 10.2432 72.686 9.60428 73.6304 8.93762C74.6304 8.2154 75.2971 7.63206 75.6304 7.18762L76.2138 6.60428L77.3804 7.68761L78.6304 8.68762C77.0749 10.521 74.8249 12.1876 71.8804 13.6876L71.1304 12.2709ZM80.7971 31.1876L80.9638 32.771C77.9082 33.1043 75.4082 33.0487 73.4638 32.6043L73.7971 31.021L74.2138 29.4376C75.7693 29.8265 77.9082 29.8821 80.6304 29.6043L80.7971 31.1876ZM12.6304 25.1043L11.1304 24.4376C10.2415 26.1043 9.82488 28.8265 9.88043 32.6043C9.93599 36.3821 10.5471 39.271 11.7138 41.271L13.1304 40.521L14.4638 39.6876C13.9638 38.7987 13.6027 37.3821 13.3804 35.4376C13.2138 33.4932 13.186 31.6043 13.2971 29.7709C13.4082 27.8821 13.6582 26.5487 14.0471 25.771L12.6304 25.1043ZM37.0471 50.6876L39.4638 51.521C38.5749 54.1321 37.0471 56.0487 34.8804 57.271C32.7693 58.5487 30.4915 59.0487 28.0471 58.7709C25.1582 58.4376 22.686 57.1598 20.6304 54.9376C18.6304 52.6598 17.8249 49.8543 18.2138 46.521L20.7971 46.8543L23.2971 47.1876C23.0749 49.021 23.4915 50.521 24.5471 51.6876C25.6027 52.8543 26.9638 53.521 28.6304 53.6876C30.0193 53.8543 31.2415 53.6321 32.2971 53.021C33.3527 52.3543 34.1027 51.3265 34.5471 49.9376L37.0471 50.6876ZM54.7971 10.1043L55.1304 8.52095C56.686 8.79873 57.9915 10.2987 59.0471 13.021C60.1027 15.6876 60.7415 18.8821 60.9638 22.6043C61.2415 26.271 61.2693 29.9932 61.0471 33.771C60.8804 37.4932 60.3804 40.7987 59.5471 43.6876C58.7138 46.5765 57.686 48.3265 56.4638 48.9376L55.7138 47.521L54.9638 46.1043C55.9638 45.6043 56.7138 42.4376 57.2138 36.6043C57.7138 30.7154 57.7415 24.8821 57.2971 19.1043C56.9082 13.3265 56.0749 10.3265 54.7971 10.1043ZM46.9638 9.02095L47.9638 11.3543C31.186 18.521 19.9638 23.4376 14.2971 26.1043C13.686 26.3821 12.936 26.521 12.0471 26.521C11.1582 26.521 10.3527 26.4654 9.63043 26.3543C8.96377 26.1876 8.26932 26.021 7.5471 25.8543C6.82488 25.6321 6.46377 25.521 6.46377 25.521C5.96377 26.7987 5.65821 28.2709 5.5471 29.9376C5.43599 31.6043 5.46377 33.1598 5.63044 34.6043C5.85266 36.0487 6.10266 37.3265 6.38043 38.4376C6.71377 39.5487 7.0471 40.3821 7.38043 40.9376C7.99155 40.771 8.71377 40.521 9.5471 40.1876C10.436 39.8543 11.0749 39.6321 11.4638 39.521C11.8527 39.3543 12.436 39.2154 13.2138 39.1043C13.9915 38.9932 14.6304 39.0765 15.1304 39.3543C21.1304 40.9654 33.0193 44.2987 50.7971 49.3543L50.0471 51.8543L49.3804 54.271C32.1027 49.3265 20.3249 46.021 14.0471 44.3543C13.9915 44.3543 13.6027 44.4932 12.8804 44.771C12.1582 45.0487 11.436 45.2987 10.7138 45.521C9.99155 45.7432 9.13043 45.9376 8.13043 46.1043C7.18599 46.271 6.43599 46.271 5.88043 46.1043L5.63044 46.021L5.46377 45.9376C3.51932 45.0487 2.0471 43.0487 1.0471 39.9376C0.102657 36.8265 -0.202899 33.4932 0.130435 29.9376C0.463768 26.3265 1.38044 23.4932 2.88043 21.4376L3.2971 20.9376L3.88043 20.6043C4.38043 20.3265 4.93599 20.1598 5.5471 20.1043C6.21377 20.0487 6.85266 20.0765 7.46377 20.1876C8.07488 20.2987 8.65821 20.4376 9.21377 20.6043C9.76932 20.7154 10.3249 20.8543 10.8804 21.021C11.4915 21.1876 11.9915 21.2987 12.3804 21.3543C18.3249 18.5765 29.5193 13.6876 45.9638 6.68762L46.9638 9.02095ZM53.8804 51.6876C54.436 52.2987 54.936 52.6876 55.3804 52.8543C55.8804 53.0209 56.3527 53.0209 56.7971 52.8543C57.2971 52.6876 57.7971 52.2987 58.2971 51.6876C59.686 50.1876 60.8249 47.3543 61.7138 43.1876C62.6582 38.9654 63.0749 33.4932 62.9638 26.771C62.7971 17.8265 61.186 11.521 58.1304 7.85429C56.0193 5.35428 53.9638 5.02095 51.9638 6.85428C51.8527 6.96539 51.7415 7.0765 51.6304 7.18762C50.4638 8.40984 49.5193 11.0487 48.7971 15.1043C48.1304 19.1598 47.7693 23.521 47.7138 28.1876C47.7138 32.8543 48.2415 37.4654 49.2971 42.021C50.3527 46.5765 51.8804 49.7987 53.8804 51.6876ZM50.2971 55.4376C47.686 52.8821 45.686 49.0487 44.2971 43.9376C42.9082 38.771 42.2138 33.5765 42.2138 28.3543C42.2138 23.0765 42.7138 18.1043 43.7138 13.4376C44.7693 8.77095 46.186 5.52095 47.9638 3.68762C52.6304 -1.20127 56.9638 -1.22905 60.9638 3.60429C64.186 7.54873 66.3804 13.271 67.5471 20.771C67.8804 22.8265 68.0471 24.7987 68.0471 26.6876C68.3249 40.9098 66.3527 50.3821 62.1304 55.1043C60.2971 57.0487 58.2971 57.9932 56.1304 57.9376C53.9638 57.9376 52.0193 57.1043 50.2971 55.4376Z" fill="#E41B23"/>
</svg>
