<svg width="52" height="53" viewBox="0 0 52 53" fill="none" xmlns="http://www.w3.org/2000/svg">
<path d="M32.8567 40.8543C35.0611 40.4987 37.1944 39.6276 39.2567 38.241C41.3189 36.8187 43.0789 35.1121 44.5367 33.121C46.03 31.0943 47.1144 28.7654 47.79 26.1343C48.5011 23.4676 48.6256 20.8365 48.1633 18.241C47.6656 15.4676 46.5456 12.8543 44.8033 10.401C43.0967 7.94762 40.6789 6.09873 37.55 4.85429C34.4211 3.57429 31.0256 3.11206 27.3633 3.46762C23.7367 3.82318 20.4656 5.04984 17.55 7.14762C15.4878 8.6054 13.7456 10.4187 12.3233 12.5876C11.1856 14.3298 10.4922 16.4098 10.2433 18.8276C9.99444 21.2454 10.1544 23.6632 10.7233 26.081C11.3278 28.4632 12.3944 30.7921 13.9233 33.0676C15.4522 35.3432 17.3011 37.1565 19.47 38.5076C23.3456 40.9254 27.8078 41.7076 32.8567 40.8543ZM33.4433 44.161C27.5411 45.121 22.2967 44.1787 17.71 41.3343C15.15 39.7343 12.9811 37.6365 11.2033 35.041C9.42556 32.4098 8.18111 29.6898 7.47 26.881C6.79444 24.0721 6.61667 21.2276 6.93667 18.3476C7.25667 15.4676 8.11 12.9432 9.49667 10.7743C11.1678 8.24984 13.1944 6.13429 15.5767 4.42762C18.99 2.00984 22.7944 0.58762 26.99 0.160952C31.2211 -0.30127 35.1678 0.232064 38.83 1.76095C42.5278 3.25429 45.4256 5.49429 47.5233 8.48095C49.55 11.361 50.8478 14.401 51.4167 17.601C51.8433 20.1965 51.8611 22.7032 51.47 25.121C51.0789 27.5387 50.2967 29.8321 49.1233 32.0009C47.9856 34.1343 46.6167 36.0543 45.0167 37.761C43.4522 39.4321 41.6567 40.8365 39.63 41.9743C37.6033 43.0765 35.5411 43.8054 33.4433 44.161ZM40.6433 29.3343C41.1411 27.8054 41.4611 26.2765 41.6033 24.7476C41.7811 23.2187 41.71 21.6543 41.39 20.0543C41.07 18.4543 40.4833 17.0321 39.63 15.7876C38.8122 14.5432 37.5678 13.4765 35.8967 12.5876C34.2256 11.6632 32.1989 11.0765 29.8167 10.8276C27.4344 10.5787 25.1589 11.1298 22.99 12.481C20.8567 13.7965 19.2744 15.7876 18.2433 18.4543C17.2122 21.0854 17.2478 24.3387 18.35 28.2143C18.7767 29.6365 19.5767 30.9343 20.75 32.1076C21.9233 33.2454 23.2744 34.0987 24.8033 34.6676C26.3322 35.2365 27.9678 35.5921 29.71 35.7343C31.4522 35.8765 33.0878 35.681 34.6167 35.1476C37.71 34.1521 39.7189 32.2143 40.6433 29.3343ZM43.0433 30.1343C42.4389 31.9832 41.4611 33.5298 40.11 34.7743C38.7589 36.0187 37.1944 36.9254 35.4167 37.4943C33.9944 37.9565 32.4656 38.2232 30.83 38.2943C29.23 38.3298 27.6478 38.1521 26.0833 37.761C24.5544 37.3343 23.0967 36.7476 21.71 36.0009C20.3589 35.2187 19.1678 34.2232 18.1367 33.0143C17.1056 31.7698 16.3767 30.401 15.95 28.9076C14.7411 24.4987 14.7233 20.7298 15.8967 17.601C17.1056 14.4365 19.0256 12.0187 21.6567 10.3476C24.3233 8.67651 27.1322 8.00095 30.0833 8.32095C32.43 8.56984 34.4922 9.10318 36.27 9.92095C38.0478 10.7387 39.4522 11.7521 40.4833 12.961C41.5144 14.1343 42.3322 15.4321 42.9367 16.8543C43.5767 18.2765 43.95 19.7698 44.0567 21.3343C44.1633 22.8987 44.1278 24.4098 43.95 25.8676C43.7722 27.3254 43.47 28.7476 43.0433 30.1343ZM32.6967 24.6943C33.23 24.3743 33.6211 23.9298 33.87 23.361C34.1189 22.7565 34.2256 22.2054 34.19 21.7076C34.1544 21.2098 34.1367 20.7654 34.1367 20.3743C34.1367 19.9832 34.2256 19.7876 34.4033 19.7876C36.2167 19.8232 37.4611 20.2676 38.1367 21.121C38.8478 21.9743 39.2033 23.2898 39.2033 25.0676C39.2033 26.8098 38.6522 28.3209 37.55 29.601C36.4833 30.8454 35.0967 31.4676 33.39 31.4676C31.79 31.4676 30.3144 30.7032 28.9633 29.1743C27.6122 27.6454 27.1856 26.3298 27.6833 25.2276C27.9322 25.0143 28.1989 24.9965 28.4833 25.1743C28.7678 25.3165 29.3189 25.3876 30.1367 25.3876C30.99 25.3876 31.8433 25.1565 32.6967 24.6943ZM17.4967 41.1743L16.0567 40.321C16.0211 40.3565 14.7056 41.5654 12.11 43.9476C9.55 46.3298 8.09222 47.6632 7.73667 47.9476C7.23889 48.3743 6.86556 48.641 6.61667 48.7476C6.36778 48.8898 6.10111 48.9432 5.81667 48.9076C5.53222 48.8721 5.19444 48.7121 4.80333 48.4276C4.02111 47.8943 3.54111 47.3076 3.36333 46.6676C3.22111 46.0276 3.36333 45.5298 3.79 45.1743C3.86111 45.1032 4.59 44.3387 5.97667 42.881C7.36333 41.4587 8.67889 40.1076 9.92333 38.8276C11.2033 37.5121 11.8611 36.8543 11.8967 36.8543L11.2567 35.3076L10.5633 33.761C10.0656 34.0098 9.30111 34.6143 8.27 35.5743C7.27444 36.4987 6.31444 37.4587 5.39 38.4543C4.50111 39.4143 3.61222 40.3743 2.72333 41.3343C1.87 42.2943 1.42556 42.7921 1.39 42.8276C0.536667 43.7165 0.0744445 44.7121 0.00333333 45.8143C-0.0322222 46.9521 0.216667 47.9654 0.750001 48.8543C1.28333 49.7787 1.99444 50.561 2.88333 51.201C5.12333 52.7654 7.45222 52.5343 9.87 50.5076C11.1144 49.4765 12.8211 47.9654 14.99 45.9743C17.1944 44.0187 18.4922 42.721 18.8833 42.081L17.4967 41.1743Z" fill="#E41B23"/>
</svg>
