<svg width="34" height="25" viewBox="0 0 34 25" fill="none" xmlns="http://www.w3.org/2000/svg">
<path d="M23.6343 21.6185L24.2228 21.3161C24.7659 22.3486 25.0943 23.3787 25.2082 24.4064L24.5705 24.4735L23.9329 24.5405C23.8475 23.7399 23.5621 22.8708 23.0767 21.9332L23.6343 21.6185ZM30.157 7.17571L30.09 6.53804C30.6347 6.49353 31.1321 6.418 31.5821 6.31143C32.061 6.19254 32.3954 6.07547 32.5854 5.96024L32.8889 5.83074L33.1603 6.40684L33.4751 6.96443C32.6243 7.41285 31.5406 7.69583 30.2241 7.81337L30.157 7.17571ZM30.9232 15.6385L30.7489 16.251C29.5651 15.9189 28.6456 15.5254 27.9902 15.0705L28.3501 14.5325L28.7409 14.007C29.2602 14.3834 30.0458 14.723 31.0975 15.026L30.9232 15.6385ZM6.53057 3.21309L6.07329 2.74192C5.49478 3.22792 4.9341 4.17612 4.39123 5.58653C3.84837 6.99694 3.64428 8.1603 3.77898 9.07661L4.41664 9.00956L5.0358 8.89914C4.98281 8.49466 5.06009 7.915 5.26764 7.16017C5.49581 6.41363 5.76725 5.70843 6.08194 5.04456C6.40492 4.36007 6.69658 3.9025 6.95693 3.67183L6.53057 3.21309ZM11.7769 16.3503L12.5495 17.02C11.8301 17.8565 10.9772 18.34 9.99076 18.4705C9.01663 18.6298 8.09666 18.4757 7.23084 18.008C6.20834 17.4534 5.48137 16.6104 5.04991 15.479C4.64736 14.3353 4.76685 13.1738 5.40837 11.9947L6.31746 12.5037L7.19561 13.0003C6.83968 13.6476 6.77059 14.2665 6.98834 14.8569C7.20609 15.4474 7.61183 15.8978 8.20556 16.2083C8.69618 16.4773 9.18296 16.5772 9.66588 16.5078C10.1571 16.4178 10.5887 16.1482 10.9609 15.699L11.7769 16.3503ZM24.4181 3.93531L24.778 3.39738C25.3139 3.7325 25.5747 4.48395 25.5604 5.65175C25.5544 6.79893 25.3151 8.07984 24.8424 9.49449C24.3986 10.8968 23.8537 12.2824 23.2077 13.6514C22.5907 15.0081 21.912 16.1603 21.1718 17.1083C20.4316 18.0562 19.7892 18.5524 19.2444 18.5969L19.1773 17.9592L19.1103 17.3216C19.556 17.2851 20.3067 16.2217 21.3624 14.1312C22.4263 12.0202 23.3067 9.85927 24.0035 7.64855C24.721 5.44613 24.8592 4.20838 24.4181 3.93531ZM21.6723 2.36483L21.6954 3.38001C14.3994 3.53738 9.50094 3.68833 7 3.83283C6.73175 3.84478 6.43268 3.78446 6.10276 3.65188C5.77285 3.51929 5.48216 3.37852 5.23068 3.22956C5.0081 3.06826 4.77522 2.90282 4.53203 2.73323C4.29712 2.54303 4.17967 2.44793 4.17967 2.44793C3.8035 2.8476 3.4705 3.34844 3.18067 3.95045C2.89084 4.55246 2.66912 5.13395 2.51553 5.69491C2.38256 6.26416 2.28476 6.7757 2.22212 7.22952C2.18011 7.69163 2.17953 8.05064 2.22038 8.30655C2.47205 8.33584 2.7774 8.35078 3.13641 8.35136C3.51604 8.36023 3.78631 8.37305 3.94721 8.38981C4.11641 8.38596 4.35363 8.42142 4.65888 8.49619C4.96412 8.57097 5.18881 8.69719 5.33296 8.87487C7.31955 10.3678 11.2349 13.3783 17.0791 17.9063L16.4278 18.7223L15.8199 19.5198C10.1448 15.1076 6.26649 12.124 4.18509 10.569C4.16447 10.5607 3.99942 10.5543 3.68993 10.5497C3.38045 10.545 3.07511 10.5301 2.77391 10.5048C2.47271 10.4796 2.12411 10.4233 1.7281 10.336C1.35271 10.257 1.07434 10.1451 0.893009 10.0004L0.812652 9.9322L0.763223 9.87641C0.174127 9.25648 -0.0739728 8.29458 0.0189226 6.99074C0.132437 5.69518 0.516222 4.41244 1.17028 3.14251C1.83262 1.85197 2.59545 0.937106 3.45877 0.397923L3.688 0.274496L3.95422 0.237788C4.18123 0.209269 4.41228 0.230276 4.64738 0.300809C4.9031 0.379628 5.13608 0.485232 5.34632 0.617622C5.55657 0.750013 5.75235 0.88857 5.93369 1.03329C6.12331 1.1574 6.30879 1.29181 6.49012 1.43654C6.69208 1.58955 6.86108 1.70536 6.99713 1.78399C9.61773 1.63967 14.5018 1.4949 21.6492 1.34966L21.6723 2.36483ZM17.8754 19.2322C17.9904 19.5419 18.118 19.7608 18.2581 19.889C18.4188 20.0254 18.5941 20.0958 18.7839 20.1003C18.9943 20.113 19.2379 20.0432 19.5146 19.891C20.2539 19.5414 21.0992 18.6597 22.0506 17.2459C23.0309 15.8196 24.0018 13.8508 24.9632 11.3393C26.2355 7.99467 26.578 5.41406 25.9909 3.59742C25.5802 2.35465 24.867 1.92434 23.8513 2.30646C23.7934 2.33113 23.7356 2.35579 23.6778 2.38046C23.0625 2.66007 22.3184 3.49862 21.4454 4.89612C20.593 6.3019 19.8085 7.86666 19.0918 9.59041C18.3958 11.3224 17.9039 13.1126 17.6162 14.9608C17.3284 16.809 17.4148 18.2329 17.8754 19.2322ZM15.9861 20.0896C15.3982 18.7516 15.2276 17.0305 15.4745 14.9264C15.7297 12.8016 16.2467 10.7701 17.0257 8.8319C17.8129 6.87305 18.7401 5.10219 19.8073 3.51932C20.8952 1.94473 21.9057 0.949798 22.839 0.534526C25.3002 -0.583916 26.9127 0.0521221 27.6764 2.44264C28.2839 4.38724 28.2449 6.83836 27.5592 9.796C27.3763 10.6086 27.144 11.3655 26.8623 12.0665C24.844 17.3866 22.6992 20.608 20.4278 21.7309C19.4573 22.1791 18.5741 22.2313 17.7783 21.8875C16.9741 21.5643 16.3767 20.965 15.9861 20.0896Z" fill="#E41B23"/>
</svg>
