<svg width="26" height="19" viewBox="0 0 26 19" fill="none" xmlns="http://www.w3.org/2000/svg">
<path d="M22.2284 16.5934L22.5751 16.1934C23.2862 16.7978 23.8373 17.4645 24.2284 18.1934L23.7751 18.4334L23.3217 18.6734C23.0195 18.1045 22.5484 17.5445 21.9084 16.9934L22.2284 16.5934ZM22.7617 3.9267L22.5217 3.47337C22.9129 3.27782 23.2595 3.07337 23.5617 2.86004C23.8817 2.62893 24.0951 2.44226 24.2017 2.30004L24.3884 2.11337L24.7617 2.46004L25.1617 2.78004C24.664 3.3667 23.944 3.90004 23.0017 4.38004L22.7617 3.9267ZM25.8551 9.98004L25.9084 10.4867C24.9306 10.5934 24.1306 10.5756 23.5084 10.4334L23.6151 9.9267L23.7484 9.42004C24.2462 9.54448 24.9306 9.56226 25.8017 9.47337L25.8551 9.98004ZM4.04174 8.03337L3.56174 7.82004C3.2773 8.35337 3.14396 9.22448 3.16174 10.4334C3.17952 11.6423 3.37507 12.5667 3.74841 13.2067L4.20174 12.9667L4.62841 12.7C4.46841 12.4156 4.35285 11.9623 4.28174 11.34C4.22841 10.7178 4.21952 10.1134 4.25507 9.5267C4.29063 8.92226 4.37063 8.49559 4.49507 8.24671L4.04174 8.03337ZM11.8551 16.22L12.6284 16.4867C12.344 17.3223 11.8551 17.9356 11.1617 18.3267C10.4862 18.7356 9.7573 18.8956 8.97507 18.8067C8.05063 18.7 7.25952 18.2911 6.60174 17.58C5.96174 16.8511 5.70396 15.9534 5.82841 14.8867L6.65507 14.9934L7.45507 15.1C7.38396 15.6867 7.5173 16.1667 7.85507 16.54C8.19285 16.9134 8.62841 17.1267 9.16174 17.18C9.60618 17.2334 9.9973 17.1623 10.3351 16.9667C10.6729 16.7534 10.9129 16.4245 11.0551 15.98L11.8551 16.22ZM17.5351 3.23337L17.6417 2.7267C18.1395 2.81559 18.5573 3.29559 18.8951 4.1667C19.2329 5.02004 19.4373 6.04226 19.5084 7.23337C19.5973 8.40671 19.6062 9.59782 19.5351 10.8067C19.4817 11.9978 19.3217 13.0556 19.0551 13.98C18.7884 14.9045 18.4595 15.4645 18.0684 15.66L17.8284 15.2067L17.5884 14.7534C17.9084 14.5934 18.1484 13.58 18.3084 11.7134C18.4684 9.82893 18.4773 7.96226 18.3351 6.11337C18.2106 4.26448 17.944 3.30448 17.5351 3.23337ZM15.0284 2.8867L15.3484 3.63337C9.97952 5.9267 6.38841 7.50004 4.57507 8.35337C4.37952 8.44226 4.13952 8.4867 3.85507 8.4867C3.57063 8.4867 3.31285 8.46893 3.08174 8.43337C2.86841 8.38004 2.64618 8.3267 2.41507 8.27337C2.18396 8.20226 2.06841 8.16671 2.06841 8.16671C1.90841 8.57559 1.81063 9.0467 1.77507 9.58004C1.73952 10.1134 1.74841 10.6112 1.80174 11.0734C1.87285 11.5356 1.95285 11.9445 2.04174 12.3C2.14841 12.6556 2.25507 12.9223 2.36174 13.1C2.55729 13.0467 2.78841 12.9667 3.05507 12.86C3.33952 12.7534 3.54396 12.6823 3.66841 12.6467C3.79285 12.5934 3.97952 12.5489 4.22841 12.5134C4.47729 12.4778 4.68174 12.5045 4.84174 12.5934C6.76174 13.1089 10.5662 14.1756 16.2551 15.7934L16.0151 16.5934L15.8017 17.3667C10.2729 15.7845 6.50396 14.7267 4.49507 14.1934C4.4773 14.1934 4.35285 14.2378 4.12174 14.3267C3.89063 14.4156 3.65952 14.4956 3.42841 14.5667C3.19729 14.6378 2.92174 14.7 2.60174 14.7534C2.29952 14.8067 2.05952 14.8067 1.88174 14.7534L1.80174 14.7267L1.74841 14.7C1.12618 14.4156 0.655073 13.7756 0.335073 12.78C0.0328503 11.7845 -0.0649275 10.7178 0.0417391 9.58004C0.148406 8.42448 0.441739 7.51782 0.921739 6.86004L1.05507 6.70004L1.24174 6.59337C1.40174 6.50448 1.57952 6.45115 1.77507 6.43337C1.98841 6.41559 2.19285 6.42448 2.38841 6.46004C2.58396 6.49559 2.77063 6.54004 2.94841 6.59337C3.12618 6.62893 3.30396 6.67337 3.48174 6.72671C3.67729 6.78004 3.83729 6.81559 3.96174 6.83337C5.86396 5.94448 9.44618 4.38004 14.7084 2.14004L15.0284 2.8867ZM17.2417 16.54C17.4195 16.7356 17.5795 16.86 17.7217 16.9134C17.8817 16.9667 18.0328 16.9667 18.1751 16.9134C18.3351 16.86 18.4951 16.7356 18.6551 16.54C19.0995 16.06 19.464 15.1534 19.7484 13.82C20.0506 12.4689 20.184 10.7178 20.1484 8.56671C20.0951 5.70448 19.5795 3.6867 18.6017 2.51337C17.9262 1.71337 17.2684 1.6067 16.6284 2.19337C16.5929 2.22893 16.5573 2.26448 16.5217 2.30004C16.1484 2.69115 15.8462 3.53559 15.6151 4.83337C15.4017 6.13115 15.2862 7.52671 15.2684 9.02004C15.2684 10.5134 15.4373 11.9889 15.7751 13.4467C16.1129 14.9045 16.6017 15.9356 17.2417 16.54ZM16.0951 17.74C15.2595 16.9223 14.6195 15.6956 14.1751 14.06C13.7306 12.4067 13.5084 10.7445 13.5084 9.07337C13.5084 7.38448 13.6684 5.79337 13.9884 4.30004C14.3262 2.8067 14.7795 1.7667 15.3484 1.18004C16.8417 -0.384406 18.2284 -0.393295 19.5084 1.15337C20.5395 2.41559 21.2417 4.24671 21.6151 6.64671C21.7217 7.30448 21.7751 7.93559 21.7751 8.54004C21.864 13.0911 21.2329 16.1223 19.8817 17.6334C19.2951 18.2556 18.6551 18.5578 17.9617 18.54C17.2684 18.54 16.6462 18.2734 16.0951 17.74Z" fill="white"/>
</svg>
