<svg preserveAspectRatio="none" width="100%" height="100%" overflow="visible" style="display: block;" viewBox="0 0 50 50" fill="none" xmlns="http://www.w3.org/2000/svg">
<g id="paper clip_Doodle">
<g id="Doodle Icon_">
<path d="M12.1729 22.7474C11.9553 23.0853 11.8873 23.4705 11.969 23.9029C12.3814 25.7919 13.4289 28.6264 13.8506 30.3584L16.8778 30.3584C16.4692 28.6747 15.4272 25.08 15.027 23.2408C14.9453 22.8083 14.7214 22.4839 14.3553 22.2674C13.9804 22.0184 13.5854 21.9495 13.1701 22.0608C12.7461 22.1394 12.4137 22.3683 12.1729 22.7474Z" fill="var(--fill-0, #E41B23)"/>
<path d="M29.3821 10.6918C30.7161 11.8372 31.6933 13.5675 32.3136 15.8828L36.6074 30.3584L40.1789 30.3584L35.2844 15.0868C34.4456 11.9563 33.0206 9.57708 31.0095 7.94906C28.9984 6.32104 26.6352 5.8708 23.92 6.59833C21.2048 7.32587 19.3528 8.78324 18.364 10.9704C17.3751 13.1577 17.2739 15.7187 18.0603 18.6534L23.0144 37.1426C23.4076 38.61 23.9138 39.7326 24.5331 40.5103C25.789 42.131 27.4814 42.761 29.6101 42.4003C31.6837 42.0893 33.07 41.1936 33.7689 39.7132C34.4678 38.2328 34.5245 36.4002 33.9391 34.2154L29.5747 17.9273C29.4611 17.5034 29.2213 17.1832 28.8551 16.9667C28.489 16.7503 28.0983 16.6977 27.6831 16.809C27.2678 16.9202 26.9398 17.1654 26.699 17.5445C26.4901 17.915 26.4425 18.3122 26.5561 18.7361L30.9204 35.0242C31.1564 35.9047 31.2527 36.6477 31.2096 37.2534C31.1897 37.818 31.0027 38.27 30.6486 38.6095C30.2945 38.9491 29.7893 39.1718 29.1329 39.2778C28.5405 39.3666 28.0496 39.3234 27.6602 39.1481C27.2709 38.9729 26.9512 38.6741 26.7011 38.2518C26.4742 37.7883 26.2515 37.149 26.0331 36.3338L21.0789 17.8446C20.511 15.725 20.517 13.9585 21.0968 12.5449C21.7086 11.1227 22.9249 10.1677 24.7457 9.67986C26.5026 9.20911 28.0481 9.54643 29.3821 10.6918Z" fill="var(--fill-0, #E41B23)"/>
</g>
</g>
</svg>
