<svg width="23" height="27" viewBox="0 0 23 27" fill="none" xmlns="http://www.w3.org/2000/svg">
<path d="M3.752 16.9678C3.64 17.0985 3.57467 17.2012 3.556 17.2758C3.22 17.9292 2.80933 19.3758 2.324 21.6158C2.30533 21.6718 2.28667 21.7278 2.268 21.7838C3.46267 21.8772 4.24667 22.4465 4.62 23.4918C4.76933 23.4358 4.91867 23.3798 5.068 23.3238C6.95333 22.5772 8.344 21.9332 9.24 21.3918C8.21333 18.7412 6.384 17.2665 3.752 16.9678ZM4.508 15.9598C7.12133 16.4452 8.988 18.0038 10.108 20.6358C10.892 19.6838 12.3387 17.6585 14.448 14.5598C15.1387 13.5332 15.9133 12.3945 16.772 11.1438C16.9027 10.9572 17.2293 10.4625 17.752 9.65984C18.2933 8.85718 18.6573 8.30651 18.844 8.00784C18.284 5.97318 16.7253 4.78784 14.168 4.45184C14.0373 4.61984 13.888 4.80651 13.72 5.01184C13.5147 5.27318 12.9453 5.95451 12.012 7.05584C12.0307 7.03718 11.844 7.25184 11.452 7.69984C11.06 8.14784 10.6213 8.65184 10.136 9.21184C9.66934 9.77184 9.33334 10.1825 9.128 10.4438C8.92267 10.6865 8.71733 10.9198 8.512 11.1438C6.68267 13.2905 5.348 14.8958 4.508 15.9598ZM15.064 3.49984C17.304 3.94784 18.816 5.06784 19.6 6.85984C20.16 5.79584 20.328 4.85318 20.104 4.03184C19.88 3.19184 19.32 2.61318 18.424 2.29584C17.864 2.09051 17.3227 2.08118 16.8 2.26784C16.2773 2.45451 15.6987 2.86518 15.064 3.49984ZM7.196 10.0238C7.38267 9.79984 7.57867 9.55718 7.784 9.29584C7.85867 9.20251 7.952 9.09051 8.064 8.95984C8.19467 8.82918 8.316 8.68918 8.428 8.53984C8.55867 8.39051 8.69867 8.23184 8.848 8.06384C8.99733 7.87718 9.13733 7.69984 9.268 7.53184C9.41734 7.36384 9.55734 7.20518 9.688 7.05584C9.83733 6.88784 9.968 6.73851 10.08 6.60784C10.2107 6.45851 10.3133 6.33718 10.388 6.24384C10.4813 6.13184 10.5467 6.04784 10.584 5.99184C10.64 5.93584 10.668 5.90784 10.668 5.90784C11.6013 4.84384 12.1613 4.18118 12.348 3.91984C13.5987 2.35184 14.728 1.30651 15.736 0.783843C16.744 0.261176 17.8453 0.21451 19.04 0.643843C20.048 0.998509 20.804 1.59584 21.308 2.43584C21.8307 3.25718 22.0267 4.21851 21.896 5.31984C21.784 6.40251 21.3547 7.48518 20.608 8.56784C20.5707 8.60518 20.3933 8.85718 20.076 9.32384C19.7773 9.79051 19.4227 10.3225 19.012 10.9198C18.62 11.5172 18.3587 11.9092 18.228 12.0958C17.3693 13.3652 16.5947 14.5132 15.904 15.5398C13.1227 19.6092 11.4333 21.8958 10.836 22.3998C10.1267 23.0345 8.41867 23.8838 5.712 24.9478C4.16267 25.5452 2.996 25.9372 2.212 26.1238C1.44667 26.3292 0.914668 26.3292 0.616001 26.1238C0.354668 25.9558 0.186668 25.6665 0.112001 25.2558C0.0373344 24.8452 0.0373344 24.3412 0.112001 23.7438C0.205334 23.1465 0.373334 22.3158 0.616001 21.2518C1.12 18.8625 1.57733 17.2758 1.988 16.4918C2.268 15.9318 4.004 13.7758 7.196 10.0238Z" fill="white"/>
</svg>
