<svg width="33" height="33" viewBox="0 0 33 33" fill="none" xmlns="http://www.w3.org/2000/svg">
<path d="M6.93565 7.32589C6.36665 7.42622 5.83952 7.31608 5.35425 6.99548C4.89087 6.67101 4.60901 6.22428 4.50868 5.65528C4.41993 5.15193 4.37236 4.75415 4.36596 4.46193C4.35956 4.16971 4.4008 3.89166 4.48966 3.62778C4.57466 3.34201 4.74976 3.11933 5.01497 2.95975C5.28017 2.80016 5.64256 2.67985 6.10214 2.59881C7.87479 2.28624 8.91933 3.02723 9.23576 4.82177C9.3168 5.28135 9.11333 5.79109 8.62537 6.35099C8.15543 6.88516 7.59219 7.21012 6.93565 7.32589ZM3.92699 9.07491C4.97861 9.79208 6.12814 10.0407 7.37556 9.82073C8.64487 9.59692 9.74045 8.96372 10.6623 7.92114C11.5803 6.85667 11.9255 5.67884 11.6978 4.38765C11.5897 3.77488 11.3871 3.20136 11.0898 2.66709C10.8105 2.10707 10.4295 1.61012 9.94686 1.17624C9.46032 0.720465 8.8489 0.388257 8.1126 0.179612C7.37629 -0.0290327 6.5595 -0.0542486 5.66223 0.103964C4.91816 0.235165 4.28284 0.471296 3.75629 0.812356C3.25162 1.14956 2.86795 1.53312 2.60528 1.96304C2.36064 2.36722 2.18228 2.8274 2.07022 3.3436C1.95815 3.85979 1.90595 4.33157 1.91361 4.75896C1.92128 5.18634 1.96563 5.62982 2.04666 6.0894C2.26662 7.33682 2.89339 8.33199 3.92699 9.07491ZM15.8545 22.7786L17.2989 22.5239L18.3493 22.3387L18.3282 21.2593C18.3066 19.7287 18.0133 18.0654 17.4484 16.2696C17.1924 15.4573 16.7632 14.6867 16.1608 13.958C15.5765 13.2036 14.8634 12.5509 14.0216 11.9998C13.1759 11.4268 12.1893 11.0141 11.0616 10.7616C9.95586 10.5053 8.82304 10.4794 7.66315 10.6839C5.43092 11.0775 3.58801 12.0794 2.13443 13.6896C0.702729 15.296 -0.0087349 16.9558 3.75309e-05 18.6692C0.0268358 20.3569 0.163691 22.0928 0.410604 23.8771L0.553328 25.0704L1.78529 24.9547L3.44979 24.7966C3.46908 24.906 3.48515 25.0612 3.498 25.262C3.548 26.6973 3.7055 28.1024 3.97049 29.4773C4.23934 30.8741 4.66081 31.7926 5.23488 32.233C5.80895 32.6733 6.92309 32.8492 8.57728 32.7606C10.2534 32.6681 11.8838 32.3806 13.4685 31.8981C15.0751 31.4117 16.1095 30.8796 16.5717 30.3017C17.088 29.6465 17.2883 28.7988 17.1726 27.7587C17.0569 26.7185 16.6986 25.3263 16.0977 23.5819C15.9922 23.2395 15.9111 22.9717 15.8545 22.7786ZM13.0045 22.1641C13.3841 23.2932 13.6993 24.3771 13.9502 25.416C14.2011 26.4549 14.36 27.2279 14.4268 27.7351C14.5194 28.2604 14.5574 28.6034 14.5406 28.7643C13.5944 29.1568 12.2658 29.4926 10.555 29.7717C8.86601 30.047 7.61409 30.1775 6.79924 30.1632C6.42091 29.1693 6.10906 26.8889 5.86368 23.3217L5.80207 22.0125L4.50446 22.1398L2.74726 22.3481C2.61099 21.0633 2.53907 19.8237 2.53152 18.629C2.51106 17.6172 3.01969 16.5347 4.05742 15.3814C5.11317 14.2024 6.46171 13.4682 8.10306 13.1788C9.70064 12.8971 11.1739 13.1901 12.5229 14.058C13.8718 14.9258 14.7104 15.9062 15.0385 16.9991C15.1929 17.4909 15.3447 18.096 15.4939 18.8143C15.6432 19.5326 15.7261 20.0031 15.7428 20.2258L14.003 20.5326L12.5586 20.7873L13.0045 22.1641ZM24.7495 15.253C24.2899 15.334 23.869 15.2503 23.4867 15.0018C23.1005 14.7314 22.8669 14.3664 22.7859 13.9068C22.7203 13.5348 22.73 13.2059 22.815 12.9201C22.8961 12.6125 23.0436 12.3608 23.2573 12.1652C23.489 11.9438 23.78 11.8022 24.1301 11.7405C24.6772 11.644 25.1606 11.7619 25.5802 12.0941C26.0179 12.4005 26.2791 12.7945 26.364 13.2759C26.4335 13.6698 26.3021 14.0766 25.9699 14.4962C25.6378 14.9158 25.2309 15.1681 24.7495 15.253ZM25.1894 17.7478C26.3055 17.551 27.2427 16.9796 28.0011 16.0335C28.7813 15.0836 29.0673 14.0178 28.8589 12.836C28.6544 11.6761 28.0501 10.7447 27.0461 10.0417C26.0601 9.31292 24.9434 9.05853 23.696 9.27848C22.4048 9.50615 21.4644 10.1233 20.8746 11.1299C20.3068 12.1326 20.1232 13.203 20.3239 14.341C20.5245 15.479 21.0902 16.3834 22.0208 17.0542C22.9733 17.7211 24.0295 17.9523 25.1894 17.7478ZM29.5718 23.4061C29.5911 23.5155 29.6709 23.8399 29.8112 24.3793C29.9514 24.9187 30.0382 25.4111 30.0716 25.8566C29.5695 26.0805 28.5377 26.3075 26.9762 26.5378C25.4186 26.7898 24.2175 26.8888 23.373 26.8346L22.9736 24.5696C22.8772 24.0224 23.0774 23.3666 23.5744 22.602C24.0895 21.8117 24.8033 21.3812 25.716 21.3105C26.7858 21.2347 27.6701 21.4511 28.3691 21.9597C29.0899 22.4644 29.4908 22.9465 29.5718 23.4061ZM32.0667 22.9662C31.8583 21.7844 31.1382 20.7719 29.9064 19.9285C28.6707 19.0633 27.2168 18.6878 25.5445 18.8022C24.6099 18.8767 23.7777 19.1476 23.0477 19.6148C22.3358 20.0562 21.7892 20.6039 21.4081 21.2578C21.0231 21.8898 20.7443 22.5482 20.5717 23.233C20.4172 23.8921 20.3862 24.4842 20.4788 25.0095L21.0171 28.0624C21.1329 28.7189 21.8074 29.1528 23.0406 29.3641C24.2995 29.5934 25.6331 29.6065 27.0415 29.4033C28.4756 29.2181 29.7616 28.8334 30.8997 28.2491C32.0596 27.661 32.6268 26.9743 32.6011 26.189C32.6012 25.8054 32.5645 25.4057 32.4912 24.9899C32.4437 24.5921 32.3877 24.2748 32.3234 24.0379C32.259 23.801 32.1966 23.5751 32.1362 23.3601C32.0976 23.1413 32.0744 23.01 32.0667 22.9662Z" fill="#E41B23"/>
</svg>
