<svg width="26" height="27" viewBox="0 0 26 27" fill="none" xmlns="http://www.w3.org/2000/svg">
<path d="M7.49333 5.86667C7.03111 5.86667 6.63111 5.70667 6.29333 5.38667C5.97333 5.06667 5.81333 4.67556 5.81333 4.21333C5.81333 3.80444 5.83111 3.48444 5.86667 3.25333C5.90222 3.02222 5.97333 2.80889 6.08 2.61333C6.18667 2.4 6.35556 2.24889 6.58667 2.16C6.81778 2.07111 7.12 2.02667 7.49333 2.02667C8.93333 2.02667 9.65333 2.75556 9.65333 4.21333C9.65333 4.58667 9.42222 4.96 8.96 5.33333C8.51556 5.68889 8.02667 5.86667 7.49333 5.86667ZM4.88 6.82667C5.60889 7.53778 6.48 7.89333 7.49333 7.89333C8.52444 7.89333 9.47556 7.54667 10.3467 6.85333C11.2178 6.14222 11.6533 5.26222 11.6533 4.21333C11.6533 3.71556 11.5733 3.23556 11.4133 2.77333C11.2711 2.29333 11.04 1.84889 10.72 1.44C10.4 1.01333 9.96445 0.666666 9.41333 0.4C8.86222 0.133333 8.22222 0 7.49333 0C6.88889 0 6.35556 0.0977776 5.89333 0.293333C5.44889 0.488889 5.09333 0.737778 4.82667 1.04C4.57778 1.32444 4.37333 1.66222 4.21333 2.05333C4.05333 2.44444 3.94667 2.80889 3.89333 3.14667C3.84 3.48444 3.81333 3.84 3.81333 4.21333C3.81333 5.22667 4.16889 6.09778 4.88 6.82667ZM12.3733 19.28H13.5467H14.4L14.5333 18.4267C14.7289 17.2178 14.7289 15.8667 14.5333 14.3733C14.4444 13.6978 14.2133 13.0311 13.84 12.3733C13.4844 11.6978 13.0133 11.0844 12.4267 10.5333C11.84 9.96444 11.12 9.50222 10.2667 9.14667C9.43111 8.79111 8.54222 8.61333 7.6 8.61333C5.78667 8.61333 4.19556 9.14667 2.82667 10.2133C1.47556 11.28 0.684444 12.4889 0.453333 13.84C0.24 15.1733 0.106667 16.56 0.0533333 18L0 18.96L0.986667 19.04L2.32 19.1467C2.32 19.2356 2.31111 19.36 2.29333 19.52C2.13333 20.6578 2.06222 21.7867 2.08 22.9067C2.09778 24.0444 2.30222 24.8267 2.69333 25.2533C3.08444 25.68 3.93778 25.9733 5.25333 26.1333C6.58667 26.2933 7.91111 26.2933 9.22667 26.1333C10.56 25.9733 11.4489 25.6978 11.8933 25.3067C12.3911 24.8622 12.6667 24.2222 12.72 23.3867C12.7733 22.5511 12.6844 21.4044 12.4533 19.9467C12.4178 19.6622 12.3911 19.44 12.3733 19.28ZM10.2133 18.4C10.3556 19.3422 10.4533 20.24 10.5067 21.0933C10.56 21.9467 10.5778 22.5778 10.56 22.9867C10.56 23.4133 10.5422 23.6889 10.5067 23.8133C9.70667 23.9911 8.61333 24.0711 7.22667 24.0533C5.85778 24.0356 4.85333 23.9644 4.21333 23.84C4.05333 23.0044 4.12444 21.1644 4.42667 18.32L4.56 17.28L3.52 17.2L2.10667 17.12C2.17778 16.0889 2.29333 15.1022 2.45333 14.16C2.57778 13.36 3.12889 12.5778 4.10667 11.8133C5.10222 11.0311 6.26667 10.64 7.6 10.64C8.89778 10.64 10.0178 11.0756 10.96 11.9467C11.9022 12.8178 12.4267 13.7067 12.5333 14.6133C12.5867 15.0222 12.6222 15.52 12.64 16.1067C12.6578 16.6933 12.6578 17.0756 12.64 17.2533H11.2267H10.0533L10.2133 18.4ZM20.4267 14.5867C20.0533 14.5867 19.7333 14.4622 19.4667 14.2133C19.2 13.9467 19.0667 13.6267 19.0667 13.2533C19.0667 12.9511 19.12 12.6933 19.2267 12.48C19.3333 12.2489 19.4844 12.0711 19.68 11.9467C19.8933 11.8044 20.1422 11.7333 20.4267 11.7333C20.8711 11.7333 21.2356 11.8933 21.52 12.2133C21.8222 12.5156 21.9733 12.8622 21.9733 13.2533C21.9733 13.5733 21.8133 13.8756 21.4933 14.16C21.1733 14.4444 20.8178 14.5867 20.4267 14.5867ZM20.4267 16.6133C21.3333 16.6133 22.1511 16.2933 22.88 15.6533C23.6267 15.0133 24 14.2133 24 13.2533C24 12.3111 23.6533 11.4933 22.96 10.8C22.2844 10.0889 21.44 9.73333 20.4267 9.73333C19.3778 9.73333 18.5511 10.0889 17.9467 10.8C17.36 11.5111 17.0667 12.3289 17.0667 13.2533C17.0667 14.1778 17.3867 14.9689 18.0267 15.6267C18.6844 16.2844 19.4844 16.6133 20.4267 16.6133ZM23.0933 21.68C23.0933 21.7689 23.1111 22.0356 23.1467 22.48C23.1822 22.9244 23.1822 23.3244 23.1467 23.68C22.72 23.7867 21.8756 23.8222 20.6133 23.7867C19.3511 23.7689 18.3911 23.68 17.7333 23.52V21.68C17.7333 21.2356 17.9822 20.7467 18.48 20.2133C18.9956 19.6622 19.6178 19.4222 20.3467 19.4933C21.2 19.5822 21.8667 19.8756 22.3467 20.3733C22.8444 20.8711 23.0933 21.3067 23.0933 21.68ZM25.12 21.68C25.12 20.72 24.6933 19.8222 23.84 18.9867C22.9867 18.1333 21.8933 17.6356 20.56 17.4933C19.8133 17.4222 19.12 17.52 18.48 17.7867C17.8578 18.0356 17.3511 18.3911 16.96 18.8533C16.5689 19.2978 16.2578 19.7778 16.0267 20.2933C15.8133 20.7911 15.7067 21.2533 15.7067 21.68V24.16C15.7067 24.6933 16.1778 25.1289 17.12 25.4667C18.08 25.8222 19.1289 26.0178 20.2667 26.0533C21.4222 26.1067 22.4889 25.9822 23.4667 25.68C24.4622 25.3778 25.0044 24.9156 25.0933 24.2933C25.1467 23.9911 25.1733 23.6711 25.1733 23.3333C25.1911 23.0133 25.1911 22.7556 25.1733 22.56C25.1556 22.3644 25.1378 22.1778 25.12 22C25.12 21.8222 25.12 21.7156 25.12 21.68Z" fill="white"/>
</svg>
