<svg width="36" height="29" viewBox="0 0 36 29" fill="none" xmlns="http://www.w3.org/2000/svg">
<path d="M4.32132 2.85568C5.01655 2.19153 5.83659 1.97924 6.78143 2.21881C7.72628 2.45838 8.70582 3.08672 9.72007 4.10383C10.3469 4.71538 10.8463 5.37197 11.2182 6.0736C11.612 6.77137 11.7954 7.23547 11.7683 7.4659C11.6408 8.27816 11.2745 8.95201 10.6694 9.48745C10.0823 9.99713 9.17982 10.3819 7.962 10.6418L6.32644 10.964L7.33615 12.2753C10.2436 16.0951 13.1449 18.4718 16.0399 19.4055C16.4466 19.5369 16.838 19.3889 17.2139 18.9616C17.586 18.5124 17.8751 17.9763 18.0812 17.3532C18.3091 16.7263 18.53 16.1233 18.7437 15.544C18.9794 14.9609 19.1571 14.6249 19.2768 14.5361C19.7132 14.3238 20.373 14.3541 21.256 14.6272C22.1571 14.8745 23.0195 15.2865 23.8433 15.8633C24.6671 16.4402 25.3383 17.1116 25.857 17.8776C26.3718 18.6217 26.4683 19.3607 26.1464 20.0944C25.7961 20.9233 25.0584 21.7304 23.9332 22.5155C22.8041 23.2787 21.4375 23.8468 19.8335 24.2199C18.2256 24.5711 16.5348 24.4518 14.761 23.862C12.9833 23.2503 11.3035 22.3618 9.72156 21.1966C8.13963 20.0314 6.76433 18.6943 5.59568 17.1854C4.42702 15.6766 3.53515 14.0737 2.92005 12.377C2.51857 11.2518 2.24002 10.184 2.0844 9.17344C1.92492 8.141 2.01904 7.07513 2.36676 5.97582C2.73637 4.87266 3.38789 3.83261 4.32132 2.85568ZM2.81152 1.39568C-0.154856 4.53627 -0.773948 8.44764 0.954242 13.1298C2.0223 15.9877 3.7289 18.5639 6.07404 20.8582C8.41918 23.1525 11.0927 24.8134 14.0945 25.8411C16.2236 26.5263 18.2472 26.6772 20.1653 26.2938C22.0835 25.9105 23.7448 25.2226 25.1494 24.2303C26.5759 23.2342 27.5428 22.1272 28.0502 20.9095C28.4674 19.8205 28.5345 18.7932 28.2514 17.8277C27.9645 16.8403 27.3917 15.9597 26.5332 15.186C25.6966 14.4083 24.7737 13.7813 23.7645 13.3048C22.7734 12.8026 21.7712 12.4942 20.7582 12.3795C19.7451 12.2648 18.9295 12.3747 18.3116 12.7093C16.8903 13.4789 16.0656 14.9444 15.8374 17.1058C14.9055 16.6834 13.9111 16.0351 12.8544 15.1609C11.8157 14.2609 10.8529 13.2799 9.96611 12.2177C12.2267 11.3452 13.5097 9.85536 13.8151 7.7481C14.0277 6.26645 13.1513 4.55937 11.1859 2.62686C10.6363 2.06938 10.0326 1.58913 9.37484 1.18612C8.71323 0.761215 8.0014 0.435429 7.23935 0.208759C6.49532 -0.0436561 5.72424 -0.0656474 4.92608 0.142784C4.14595 0.325472 3.4411 0.743102 2.81152 1.39568ZM5.4276 3.94682L4.97389 3.48526C4.63399 3.86111 4.51613 4.34447 4.62032 4.93535C4.7464 5.52238 5.02566 6.0824 5.45812 6.6154C5.89058 7.1484 6.39578 7.64601 6.97371 8.10823C7.54778 8.54857 8.12381 8.80804 8.7018 8.88664C9.30167 8.96139 9.81918 8.82501 10.2543 8.4775L9.80063 8.01594L9.37975 7.54859C9.33984 7.57819 9.16027 7.5196 8.84104 7.3728C8.52181 7.226 8.14916 7.03221 7.7231 6.79143C7.31892 6.54679 6.90896 6.26932 6.4932 5.95902C6.09547 5.62298 5.78914 5.29339 5.57421 4.97025C5.3773 4.62136 5.32843 4.28022 5.4276 3.94682ZM19.7632 16.1428L19.1955 15.8028C19.041 16.0783 18.9708 16.384 18.9849 16.72C18.9952 17.0341 19.084 17.3456 19.2513 17.6546C19.4147 17.9417 19.6348 18.2301 19.9115 18.5198C20.1883 18.8095 20.5049 19.0695 20.8615 19.3C21.218 19.5305 21.5926 19.7352 21.9852 19.9142C22.3739 20.0713 22.755 20.1846 23.1283 20.2542C23.5196 20.298 23.9013 20.2872 24.2733 20.2215C24.6454 20.1559 24.9601 20.0215 25.2176 19.8181L24.818 19.2793L24.4241 18.7734C24.025 19.0694 23.4605 19.0674 22.7307 18.7673C22.0189 18.4415 21.4158 18.0289 20.9216 17.5293C20.4235 17.0079 20.2246 16.6481 20.3251 16.4499L19.7632 16.1428ZM25.5956 23.3055L25.0452 23.6394C25.7248 24.8058 26.4854 25.6646 27.3272 26.2156C28.1948 26.7847 29.0779 27.0578 29.9764 27.0347C31.3433 28.2604 33.215 28.5735 35.5915 27.974L35.2672 26.7111C33.864 27.0713 32.6617 27.0351 31.6602 26.6024C32.282 26.2897 32.7764 25.8302 33.1434 25.2239C33.5361 24.6357 33.6437 24.03 33.4661 23.407C33.3104 22.78 32.822 22.3133 32.0007 22.0068C31.0958 21.7376 30.38 21.7736 29.8535 22.1147C29.3231 22.4338 28.9697 22.9249 28.7932 23.5878C28.6386 24.2469 28.6868 24.9041 28.9377 25.5593C27.8784 25.182 26.9497 24.3303 26.1517 23.0043L25.5956 23.3055ZM30.4786 25.66C29.9162 24.9017 29.7547 24.2419 29.9942 23.6807C30.2556 23.1156 30.7822 22.9663 31.5738 23.2329C32.2007 23.4609 32.4214 23.8168 32.236 24.3008C32.1291 24.5905 31.907 24.8665 31.5697 25.1291C31.2543 25.3878 30.8906 25.5648 30.4786 25.66Z" fill="#E41B23"/>
</svg>
