<svg width="22" height="29" viewBox="0 0 22 29" fill="none" xmlns="http://www.w3.org/2000/svg">
<path d="M11.4333 0C14.7 0 17.2556 0.922222 19.1 2.76667C20.9444 4.61111 21.8667 7.21111 21.8667 10.5667C21.8667 13.5222 21.0556 16.4 19.4333 19.2C17.8333 21.9778 15.4 24.8667 12.1333 27.8667C11.9333 28.0444 11.6889 28.1333 11.4 28.1333C11.1333 28.1333 10.9 28.0333 10.7 27.8333C10.6333 27.7667 10.1778 27.3222 9.33333 26.5C8.48889 25.6778 7.95556 25.1556 7.73333 24.9333C6.64444 23.8444 5.74445 22.9111 5.03333 22.1333C3.3 20.2222 2.02222 18.4222 1.2 16.7333C0.4 15.0222 0 13.2333 0 11.3667C0 7.83334 0.977778 5.05556 2.93333 3.03333C4.91111 1.01111 7.74445 0 11.4333 0ZM9.2 23.4667C9.42222 23.6667 10.1778 24.3889 11.4667 25.6333C14.2444 22.9889 16.3222 20.4444 17.7 18C19.1 15.5556 19.8 13.0778 19.8 10.5667C19.8 7.78889 19.0778 5.68889 17.6333 4.26667C16.1889 2.82222 14.1222 2.1 11.4333 2.1C8.34445 2.1 6.01111 2.9 4.43333 4.5C2.87778 6.1 2.1 8.38889 2.1 11.3667C2.1 12.9444 2.45556 14.4667 3.16667 15.9333C3.87778 17.4 5.01111 19 6.56667 20.7333C7.25556 21.4889 8.13333 22.4 9.2 23.4667ZM12.9667 11.4333C12.3667 12.0333 11.6333 12.3333 10.7667 12.3333C9.9 12.3333 9.15556 12.0333 8.53333 11.4333C7.93333 10.8111 7.63333 10.0667 7.63333 9.2C7.63333 8.33334 7.93333 7.6 8.53333 7C9.15556 6.37778 9.9 6.06667 10.7667 6.06667C11.6333 6.06667 12.3667 6.37778 12.9667 7C13.5889 7.6 13.9 8.33334 13.9 9.2C13.9 10.0667 13.5889 10.8111 12.9667 11.4333Z" fill="white"/>
</svg>
