<svg preserveAspectRatio="none" width="100%" height="100%" overflow="visible" style="display: block;" viewBox="0 0 61.4967 61.3923" fill="none" xmlns="http://www.w3.org/2000/svg">
<path id="Doodle Icon_" d="M5.34667 37.8123C4.63556 35.3234 4.23556 32.7678 4.14667 30.1456C4.05778 27.4789 4.34667 24.8567 5.01333 22.2789C5.72444 19.7012 6.76889 17.3012 8.14667 15.0789C9.52444 12.8567 11.3911 10.8789 13.7467 9.14562C16.1022 7.41228 18.8133 6.12339 21.88 5.27895C25.88 4.21228 30.4356 3.90117 35.5467 4.34561C38.5689 4.61228 41.48 5.59006 44.28 7.27895C47.08 8.96784 49.48 11.1234 51.48 13.7456C53.5244 16.3234 55.08 19.4123 56.1467 23.0123C57.2133 26.5678 57.5467 30.2345 57.1467 34.0123C56.7911 38.1012 55.6133 42.1234 53.6133 46.079C52.4133 48.479 50.5022 50.5678 47.88 52.3456C45.2578 54.1678 42.3467 55.479 39.1467 56.279C35.9467 57.1234 32.5022 57.3901 28.8133 57.079C25.1244 56.8123 21.7244 55.879 18.6133 54.279C12.0356 50.9901 7.61333 45.5012 5.34667 37.8123ZM1.34667 39.0123C2.68 43.5012 4.68 47.3456 7.34667 50.5456C10.0133 53.7456 13.1467 56.2345 16.7467 58.0123C20.3022 59.7901 24.1689 60.8567 28.3467 61.2123C32.5244 61.6123 36.4578 61.3456 40.1467 60.4123C43.88 59.5234 47.3022 57.9901 50.4133 55.8123C53.5244 53.6345 55.8356 51.0123 57.3467 47.9456C59.5689 43.5456 60.9022 39.0345 61.3467 34.4123C61.7467 30.1012 61.3467 25.9012 60.1467 21.8123C58.9467 17.7234 57.1689 14.1678 54.8133 11.1456C52.5022 8.12339 49.68 5.6345 46.3467 3.67895C43.0578 1.67895 39.5689 0.523392 35.88 0.212282C30.3244 -0.276609 25.28 0.0789462 20.7467 1.27895C17.1467 2.25673 13.9467 3.76784 11.1467 5.81228C8.39111 7.85673 6.21333 10.1901 4.61333 12.8123C3.05778 15.3901 1.88 18.1901 1.08 21.2123C0.280001 24.2345 -0.0755556 27.2567 0.0133333 30.2789C0.102222 33.2567 0.546667 36.1678 1.34667 39.0123ZM26.0133 17.4789C25.4356 17.1234 24.8133 16.9456 24.1467 16.9456C23.1244 16.9456 22.2578 17.3012 21.5467 18.0123C20.8356 18.7234 20.48 19.5901 20.48 20.6123V40.3456C20.48 41.0123 20.6356 41.6123 20.9467 42.1456C21.4356 43.0345 22.1689 43.6123 23.1467 43.8789C24.1244 44.1456 25.0578 44.0345 25.9467 43.5456L42.68 33.9456C43.2133 33.6345 43.6356 33.2123 43.9467 32.6789C44.48 31.8345 44.6356 30.9234 44.4133 29.9456C44.1911 28.9678 43.6356 28.2123 42.7467 27.6789L26.0133 17.4789ZM24.4133 20.1456L41.1467 30.3456C41.4133 30.5234 41.4578 30.7678 41.28 31.0789C41.2356 31.1678 41.1911 31.2345 41.1467 31.2789L24.4133 40.8123C24.1022 40.9901 23.8578 40.9234 23.68 40.6123C23.6356 40.5234 23.6133 40.4345 23.6133 40.3456V20.6123C23.6133 20.2567 23.7911 20.0789 24.1467 20.0789C24.2356 20.0789 24.3244 20.1012 24.4133 20.1456Z" fill="var(--fill-0, #E41B23)"/>
</svg>
