<svg width="20" height="20" viewBox="0 0 20 20" fill="none" xmlns="http://www.w3.org/2000/svg">
<path d="M11.9343 14.4349C12.6232 14.3238 13.2899 14.0516 13.9343 13.6183C14.5788 13.1738 15.1288 12.6405 15.5843 12.0183C16.051 11.3849 16.3899 10.6572 16.601 9.83493C16.8232 9.0016 16.8621 8.17938 16.7177 7.36827C16.5621 6.5016 16.2121 5.68493 15.6677 4.91827C15.1343 4.1516 14.3788 3.57382 13.401 3.18493C12.4232 2.78493 11.3621 2.64049 10.2177 2.7516C9.08433 2.86271 8.06211 3.24604 7.151 3.9016C6.50656 4.35715 5.96211 4.92382 5.51767 5.6016C5.16211 6.14604 4.94545 6.79604 4.86767 7.5516C4.78989 8.30716 4.83989 9.06271 5.01767 9.81827C5.20656 10.5627 5.53989 11.2905 6.01767 12.0016C6.49545 12.7127 7.07322 13.2794 7.751 13.7016C8.96211 14.4572 10.3566 14.7016 11.9343 14.4349ZM12.1177 15.4683C10.2732 15.7683 8.63433 15.4738 7.201 14.5849C6.401 14.0849 5.72322 13.4294 5.16767 12.6183C4.61211 11.796 4.22322 10.946 4.001 10.0683C3.78989 9.19049 3.73433 8.3016 3.83433 7.4016C3.93433 6.5016 4.201 5.71271 4.63433 5.03493C5.15656 4.24604 5.78989 3.58493 6.53433 3.0516C7.601 2.29604 8.78989 1.8516 10.101 1.71827C11.4232 1.57382 12.6566 1.74049 13.801 2.21827C14.9566 2.68493 15.8621 3.38493 16.5177 4.31827C17.151 5.21827 17.5566 6.16827 17.7343 7.16827C17.8677 7.97938 17.8732 8.76271 17.751 9.51827C17.6288 10.2738 17.3843 10.9905 17.0177 11.6683C16.6621 12.3349 16.2343 12.9349 15.7343 13.4683C15.2454 13.9905 14.6843 14.4294 14.051 14.7849C13.4177 15.1294 12.7732 15.3572 12.1177 15.4683ZM14.3677 10.8349C14.5232 10.3572 14.6232 9.87938 14.6677 9.4016C14.7232 8.92382 14.701 8.43493 14.601 7.93493C14.501 7.43493 14.3177 6.99049 14.051 6.6016C13.7954 6.21271 13.4066 5.87938 12.8843 5.6016C12.3621 5.31271 11.7288 5.12938 10.9843 5.0516C10.2399 4.97382 9.52878 5.14604 8.851 5.56827C8.18433 5.97938 7.68989 6.6016 7.36767 7.43493C7.04545 8.25716 7.05656 9.27382 7.401 10.4849C7.53433 10.9294 7.78433 11.3349 8.151 11.7016C8.51767 12.0572 8.93989 12.3238 9.41767 12.5016C9.89545 12.6794 10.4066 12.7905 10.951 12.8349C11.4954 12.8794 12.0066 12.8183 12.4843 12.6516C13.451 12.3405 14.0788 11.7349 14.3677 10.8349ZM15.1177 11.0849C14.9288 11.6627 14.6232 12.146 14.201 12.5349C13.7788 12.9238 13.2899 13.2072 12.7343 13.3849C12.2899 13.5294 11.8121 13.6127 11.301 13.6349C10.801 13.646 10.3066 13.5905 9.81767 13.4683C9.33989 13.3349 8.88433 13.1516 8.451 12.9183C8.02878 12.6738 7.65656 12.3627 7.33433 11.9849C7.01211 11.596 6.78433 11.1683 6.651 10.7016C6.27322 9.32382 6.26767 8.14604 6.63433 7.16827C7.01211 6.17938 7.61211 5.42382 8.43433 4.9016C9.26767 4.37938 10.1454 4.16827 11.0677 4.26827C11.801 4.34604 12.4454 4.51271 13.001 4.76827C13.5566 5.02382 13.9954 5.34049 14.3177 5.71827C14.6399 6.08493 14.8954 6.49049 15.0843 6.93493C15.2843 7.37938 15.401 7.84604 15.4343 8.33493C15.4677 8.82382 15.4566 9.29604 15.401 9.7516C15.3454 10.2072 15.251 10.6516 15.1177 11.0849ZM11.8843 9.38493C12.051 9.28493 12.1732 9.14604 12.251 8.96827C12.3288 8.77938 12.3621 8.60715 12.351 8.4516C12.3399 8.29604 12.3343 8.15716 12.3343 8.03493C12.3343 7.91271 12.3621 7.8516 12.4177 7.8516C12.9843 7.86271 13.3732 8.0016 13.5843 8.26827C13.8066 8.53493 13.9177 8.94604 13.9177 9.5016C13.9177 10.046 13.7454 10.5183 13.401 10.9183C13.0677 11.3072 12.6343 11.5016 12.101 11.5016C11.601 11.5016 11.1399 11.2627 10.7177 10.7849C10.2954 10.3072 10.1621 9.89604 10.3177 9.5516C10.3954 9.48493 10.4788 9.47938 10.5677 9.53493C10.6566 9.57938 10.8288 9.6016 11.0843 9.6016C11.351 9.6016 11.6177 9.52938 11.8843 9.38493ZM7.13433 14.5349L6.68433 14.2683C6.67322 14.2794 6.26211 14.6572 5.451 15.4016C4.651 16.146 4.19545 16.5627 4.08433 16.6516C3.92878 16.7849 3.81211 16.8683 3.73433 16.9016C3.65656 16.946 3.57322 16.9627 3.48433 16.9516C3.39545 16.9405 3.28989 16.8905 3.16767 16.8016C2.92322 16.6349 2.77322 16.4516 2.71767 16.2516C2.67322 16.0516 2.71767 15.896 2.851 15.7849C2.87322 15.7627 3.101 15.5238 3.53433 15.0683C3.96767 14.6238 4.37878 14.2016 4.76767 13.8016C5.16767 13.3905 5.37322 13.1849 5.38433 13.1849L5.18433 12.7016L4.96767 12.2183C4.81211 12.296 4.57322 12.4849 4.251 12.7849C3.93989 13.0738 3.63989 13.3738 3.351 13.6849C3.07322 13.9849 2.79545 14.2849 2.51767 14.5849C2.251 14.8849 2.11211 15.0405 2.101 15.0516C1.83433 15.3294 1.68989 15.6405 1.66767 15.9849C1.65656 16.3405 1.73433 16.6572 1.901 16.9349C2.06767 17.2238 2.28989 17.4683 2.56767 17.6683C3.26767 18.1572 3.99545 18.0849 4.751 17.4516C5.13989 17.1294 5.67322 16.6572 6.351 16.0349C7.03989 15.4238 7.44545 15.0183 7.56767 14.8183L7.13433 14.5349Z" fill="white"/>
</svg>
