<svg width="33" height="33" viewBox="0 0 33 33" fill="none" xmlns="http://www.w3.org/2000/svg">
<path d="M20.5354 25.5339C21.9132 25.3117 23.2465 24.7673 24.5354 23.9006C25.8243 23.0117 26.9243 21.945 27.8354 20.7006C28.7687 19.4339 29.4465 17.9784 29.8687 16.3339C30.3132 14.6673 30.391 13.0228 30.1021 11.4006C29.791 9.66726 29.091 8.03393 28.0021 6.5006C26.9354 4.96726 25.4243 3.81171 23.4688 3.03393C21.5132 2.23393 19.391 1.94504 17.1021 2.16726C14.8354 2.38949 12.791 3.15615 10.9688 4.46726C9.67986 5.37837 8.59097 6.51171 7.70208 7.86726C6.99097 8.95615 6.55764 10.2562 6.40208 11.7673C6.24653 13.2784 6.34653 14.7895 6.70208 16.3006C7.07986 17.7895 7.74653 19.245 8.70208 20.6673C9.65764 22.0895 10.8132 23.2228 12.1688 24.0673C14.591 25.5784 17.3799 26.0673 20.5354 25.5339ZM20.9021 27.6006C17.2132 28.2006 13.9354 27.6117 11.0688 25.8339C9.46875 24.8339 8.11319 23.5228 7.00208 21.9006C5.89097 20.2561 5.11319 18.5562 4.66875 16.8006C4.24653 15.045 4.13542 13.2673 4.33542 11.4673C4.53542 9.66726 5.06875 8.08948 5.93542 6.73393C6.97986 5.15615 8.24653 3.83393 9.73542 2.76726C11.8688 1.25615 14.2465 0.367263 16.8687 0.100595C19.5132 -0.188294 21.9799 0.14504 24.2688 1.1006C26.5799 2.03393 28.391 3.43393 29.7021 5.3006C30.9688 7.10059 31.7799 9.0006 32.1354 11.0006C32.4021 12.6228 32.4132 14.1895 32.1688 15.7006C31.9243 17.2117 31.4354 18.645 30.7021 20.0006C29.991 21.3339 29.1354 22.5339 28.1354 23.6006C27.1576 24.645 26.0354 25.5228 24.7687 26.2339C23.5021 26.9228 22.2132 27.3784 20.9021 27.6006ZM25.4021 18.3339C25.7132 17.3784 25.9132 16.4228 26.0021 15.4673C26.1132 14.5117 26.0687 13.5339 25.8687 12.5339C25.6687 11.5339 25.3021 10.645 24.7687 9.86726C24.2576 9.08949 23.4799 8.42282 22.4354 7.86726C21.391 7.28949 20.1243 6.92282 18.6354 6.76726C17.1465 6.61171 15.7243 6.95615 14.3687 7.8006C13.0354 8.62282 12.0465 9.86726 11.4021 11.5339C10.7576 13.1784 10.7799 15.2117 11.4688 17.6339C11.7354 18.5228 12.2354 19.3339 12.9688 20.0673C13.7021 20.7784 14.5465 21.3117 15.5021 21.6673C16.4576 22.0228 17.4799 22.245 18.5688 22.3339C19.6576 22.4228 20.6799 22.3006 21.6354 21.9673C23.5688 21.345 24.8243 20.1339 25.4021 18.3339ZM26.9021 18.8339C26.5243 19.9895 25.9132 20.9562 25.0688 21.7339C24.2243 22.5117 23.2465 23.0784 22.1354 23.4339C21.2465 23.7228 20.291 23.8895 19.2687 23.9339C18.2687 23.9562 17.2799 23.845 16.3021 23.6006C15.3465 23.3339 14.4354 22.9673 13.5688 22.5006C12.7243 22.0117 11.9799 21.3895 11.3354 20.6339C10.691 19.8562 10.2354 19.0006 9.96875 18.0673C9.21319 15.3117 9.20208 12.9562 9.93542 11.0006C10.691 9.02282 11.891 7.51171 13.5354 6.46726C15.2021 5.42282 16.9576 5.00059 18.8021 5.20059C20.2688 5.35615 21.5576 5.68948 22.6687 6.2006C23.7799 6.71171 24.6576 7.34504 25.3021 8.1006C25.9465 8.83393 26.4576 9.64504 26.8354 10.5339C27.2354 11.4228 27.4687 12.3562 27.5354 13.3339C27.6021 14.3117 27.5799 15.2562 27.4688 16.1673C27.3576 17.0784 27.1688 17.9673 26.9021 18.8339ZM20.4354 15.4339C20.7687 15.2339 21.0132 14.9562 21.1688 14.6006C21.3243 14.2228 21.391 13.8784 21.3688 13.5673C21.3465 13.2562 21.3354 12.9784 21.3354 12.7339C21.3354 12.4895 21.391 12.3673 21.5021 12.3673C22.6354 12.3895 23.4132 12.6673 23.8354 13.2006C24.2799 13.7339 24.5021 14.5562 24.5021 15.6673C24.5021 16.7562 24.1576 17.7006 23.4688 18.5006C22.8021 19.2784 21.9354 19.6673 20.8688 19.6673C19.8687 19.6673 18.9465 19.1895 18.1021 18.2339C17.2576 17.2784 16.991 16.4562 17.3021 15.7673C17.4576 15.6339 17.6243 15.6228 17.8021 15.7339C17.9799 15.8228 18.3243 15.8673 18.8354 15.8673C19.3687 15.8673 19.9021 15.7228 20.4354 15.4339ZM10.9354 25.7339L10.0354 25.2006C10.0132 25.2228 9.19097 25.9784 7.56875 27.4673C5.96875 28.9562 5.05764 29.7895 4.83542 29.9673C4.52431 30.2339 4.29097 30.4006 4.13542 30.4673C3.97986 30.5562 3.81319 30.5895 3.63542 30.5673C3.45764 30.545 3.24653 30.445 3.00208 30.2673C2.51319 29.9339 2.21319 29.5673 2.10208 29.1673C2.01319 28.7673 2.10208 28.4562 2.36875 28.2339C2.41319 28.1895 2.86875 27.7117 3.73542 26.8006C4.60208 25.9117 5.42431 25.0673 6.20208 24.2673C7.00208 23.445 7.41319 23.0339 7.43542 23.0339L7.03542 22.0673L6.60208 21.1006C6.29097 21.2562 5.81319 21.6339 5.16875 22.2339C4.54653 22.8117 3.94653 23.4117 3.36875 24.0339C2.81319 24.6339 2.25764 25.2339 1.70208 25.8339C1.16875 26.4339 0.890972 26.745 0.86875 26.7673C0.335417 27.3228 0.0465278 27.945 0.00208333 28.6339C-0.0201389 29.345 0.135417 29.9784 0.46875 30.5339C0.802084 31.1117 1.24653 31.6006 1.80208 32.0006C3.20208 32.9784 4.65764 32.8339 6.16875 31.5673C6.94653 30.9228 8.01319 29.9784 9.36875 28.7339C10.7465 27.5117 11.5576 26.7006 11.8021 26.3006L10.9354 25.7339Z" fill="#E41B23"/>
</svg>
