<svg preserveAspectRatio="none" width="100%" height="100%" overflow="visible" style="display: block;" viewBox="0 0 19.4065 19.5837" fill="none" xmlns="http://www.w3.org/2000/svg">
<path id="Doodle Icon_" d="M12.3213 15.3204C13.1479 15.187 13.9479 14.8604 14.7213 14.3404C15.4946 13.807 16.1546 13.167 16.7013 12.4204C17.2613 11.6604 17.6679 10.787 17.9212 9.80036C18.1879 8.80036 18.2346 7.81369 18.0613 6.84036C17.8746 5.80036 17.4546 4.82036 16.8013 3.90036C16.1613 2.98036 15.2546 2.28702 14.0813 1.82036C12.9079 1.34036 11.6346 1.16702 10.2612 1.30036C8.90125 1.43369 7.67458 1.89369 6.58125 2.68036C5.80792 3.22702 5.15458 3.90702 4.62125 4.72036C4.19458 5.37369 3.93458 6.15369 3.84125 7.06036C3.74792 7.96702 3.80792 8.87369 4.02125 9.78036C4.24792 10.6737 4.64792 11.547 5.22125 12.4004C5.79458 13.2537 6.48792 13.9337 7.30125 14.4404C8.75458 15.347 10.4279 15.6404 12.3213 15.3204ZM12.5413 16.5604C10.3279 16.9204 8.36125 16.567 6.64125 15.5004C5.68125 14.9004 4.86792 14.1137 4.20125 13.1404C3.53458 12.1537 3.06792 11.1337 2.80125 10.0804C2.54792 9.02702 2.48125 7.96036 2.60125 6.88036C2.72125 5.80036 3.04125 4.85369 3.56125 4.04036C4.18792 3.09369 4.94792 2.30036 5.84125 1.66036C7.12125 0.753691 8.54792 0.220358 10.1213 0.0603572C11.7079 -0.112976 13.1879 0.0870239 14.5613 0.660358C15.9479 1.22036 17.0346 2.06036 17.8213 3.18036C18.5813 4.26036 19.0679 5.40036 19.2813 6.60036C19.4413 7.57369 19.4479 8.51369 19.3013 9.42036C19.1546 10.327 18.8613 11.187 18.4213 12.0004C17.9946 12.8004 17.4813 13.5204 16.8813 14.1604C16.2946 14.787 15.6213 15.3137 14.8612 15.7404C14.1013 16.1537 13.3279 16.427 12.5413 16.5604ZM15.2413 11.0004C15.4279 10.427 15.5479 9.85369 15.6012 9.28036C15.6679 8.70702 15.6412 8.12036 15.5212 7.52036C15.4012 6.92036 15.1812 6.38702 14.8612 5.92036C14.5546 5.45369 14.0879 5.05369 13.4613 4.72036C12.8346 4.37369 12.0746 4.15369 11.1812 4.06036C10.2879 3.96702 9.43458 4.17369 8.62125 4.68036C7.82125 5.17369 7.22792 5.92036 6.84125 6.92036C6.45458 7.90702 6.46792 9.12702 6.88125 10.5804C7.04125 11.1137 7.34125 11.6004 7.78125 12.0404C8.22125 12.467 8.72792 12.787 9.30125 13.0004C9.87458 13.2137 10.4879 13.347 11.1413 13.4004C11.7946 13.4537 12.4079 13.3804 12.9813 13.1804C14.1413 12.807 14.8946 12.0804 15.2413 11.0004ZM16.1413 11.3004C15.9146 11.9937 15.5479 12.5737 15.0413 13.0404C14.5346 13.507 13.9479 13.847 13.2813 14.0604C12.7479 14.2337 12.1746 14.3337 11.5612 14.3604C10.9613 14.3737 10.3679 14.307 9.78125 14.1604C9.20792 14.0004 8.66125 13.7804 8.14125 13.5004C7.63458 13.207 7.18792 12.8337 6.80125 12.3804C6.41458 11.9137 6.14125 11.4004 5.98125 10.8404C5.52792 9.18702 5.52125 7.77369 5.96125 6.60036C6.41458 5.41369 7.13458 4.50702 8.12125 3.88036C9.12125 3.25369 10.1746 3.00036 11.2813 3.12036C12.1613 3.21369 12.9346 3.41369 13.6012 3.72036C14.2679 4.02702 14.7946 4.40702 15.1813 4.86036C15.5679 5.30036 15.8746 5.78702 16.1013 6.32036C16.3413 6.85369 16.4812 7.41369 16.5212 8.00036C16.5613 8.58702 16.5479 9.15369 16.4813 9.70036C16.4146 10.247 16.3013 10.7804 16.1413 11.3004ZM12.2613 9.26036C12.4613 9.14036 12.6079 8.97369 12.7013 8.76036C12.7946 8.53369 12.8346 8.32702 12.8213 8.14036C12.8079 7.95369 12.8013 7.78702 12.8013 7.64036C12.8013 7.49369 12.8346 7.42036 12.9013 7.42036C13.5813 7.43369 14.0479 7.60036 14.3013 7.92036C14.5679 8.24036 14.7013 8.73369 14.7013 9.40036C14.7013 10.0537 14.4946 10.6204 14.0813 11.1004C13.6813 11.567 13.1613 11.8004 12.5213 11.8004C11.9213 11.8004 11.3679 11.5137 10.8613 10.9404C10.3546 10.367 10.1946 9.87369 10.3813 9.46036C10.4746 9.38036 10.5746 9.37369 10.6813 9.44036C10.7879 9.49369 10.9946 9.52036 11.3013 9.52036C11.6213 9.52036 11.9413 9.43369 12.2613 9.26036ZM6.56125 15.4404L6.02125 15.1204C6.00792 15.1337 5.51458 15.587 4.54125 16.4804C3.58125 17.3737 3.03458 17.8737 2.90125 17.9804C2.71458 18.1404 2.57458 18.2404 2.48125 18.2804C2.38792 18.3337 2.28792 18.3537 2.18125 18.3404C2.07458 18.327 1.94792 18.267 1.80125 18.1604C1.50792 17.9604 1.32792 17.7404 1.26125 17.5004C1.20792 17.2604 1.26125 17.0737 1.42125 16.9404C1.44792 16.9137 1.72125 16.627 2.24125 16.0804C2.76125 15.547 3.25458 15.0404 3.72125 14.5604C4.20125 14.067 4.44792 13.8204 4.46125 13.8204L4.22125 13.2404L3.96125 12.6604C3.77458 12.7537 3.48792 12.9804 3.10125 13.3404C2.72792 13.687 2.36792 14.047 2.02125 14.4204C1.68792 14.7804 1.35458 15.1404 1.02125 15.5004C0.70125 15.8604 0.534583 16.047 0.52125 16.0604C0.20125 16.3937 0.0279167 16.767 0.00125 17.1804C-0.0120833 17.607 0.0812502 17.987 0.28125 18.3204C0.48125 18.667 0.747917 18.9604 1.08125 19.2004C1.92125 19.787 2.79458 19.7004 3.70125 18.9404C4.16792 18.5537 4.80792 17.987 5.62125 17.2404C6.44792 16.507 6.93458 16.0204 7.08125 15.7804L6.56125 15.4404Z" fill="var(--fill-0, #E41B23)"/>
</svg>
