<svg preserveAspectRatio="none" width="100%" height="100%" overflow="visible" style="display: block;" viewBox="0 0 18 20" fill="none" xmlns="http://www.w3.org/2000/svg">
<path id="Doodle Icon_" d="M3.45424 9.17184C3.45424 9.14424 3.45424 9.12353 3.45424 9.10973C3.48246 8.24016 4.01175 7.57764 5.04211 7.12215C6.08658 6.65286 7.42039 6.41132 9.04355 6.39752C10.6526 6.39752 11.9793 6.61146 13.0238 7.03934C14.0824 7.46722 14.6329 8.07453 14.6752 8.86128C14.6752 8.9441 14.6752 9.03382 14.6752 9.13043C15.141 8.99241 15.6138 8.9579 16.0937 9.02691C16.7006 9.10973 17.1735 9.35818 17.5122 9.77226C17.851 10.1725 18.0133 10.697 17.9992 11.3458C17.9286 13.2643 17.2934 14.6239 16.0937 15.4244C15.515 15.8247 14.8587 16.0524 14.1247 16.1077C14.0542 16.6736 13.9765 17.2188 13.8919 17.7433C13.7931 18.4334 13.292 18.9717 12.3887 19.3582C11.4995 19.7585 10.4197 19.9724 9.14941 20C8.28843 20 7.50508 19.9103 6.79935 19.7308C6.09363 19.5514 5.49377 19.2685 4.99976 18.882C4.50576 18.5093 4.18818 18.0469 4.04704 17.4948C4.03293 17.4534 4.02587 17.4051 4.02587 17.3499C4.01175 17.2947 3.96941 16.8806 3.89884 16.1077C3.15077 16.0524 2.48034 15.8247 1.88753 15.4244C0.701921 14.6239 0.0738293 13.2643 0.00325716 11.3458C-0.0249716 10.697 0.130287 10.1725 0.469033 9.77226C0.821894 9.35818 1.29473 9.10973 1.88753 9.02691C2.42388 8.9441 2.94612 8.99241 3.45424 9.17184ZM3.45424 10.6418C3.34132 10.6004 3.24252 10.5314 3.15783 10.4348H3.13666C3.06609 10.4072 2.97434 10.3796 2.86143 10.352C2.59325 10.283 2.33919 10.2692 2.09925 10.3106C1.5629 10.3934 1.30178 10.7246 1.3159 11.3043C1.37236 12.7812 1.8099 13.8026 2.62854 14.3685C2.96729 14.5894 3.34132 14.7274 3.75064 14.7826C3.75064 14.6722 3.74358 14.5825 3.72947 14.5135C3.64478 13.6853 3.58126 12.94 3.53892 12.2774C3.49658 11.6839 3.46835 11.1387 3.45424 10.6418ZM14.654 10.5797C14.5976 11.7667 14.4776 13.1677 14.2941 14.7826C14.6893 14.7136 15.0422 14.5756 15.3527 14.3685C16.1713 13.8026 16.6089 12.7812 16.6653 11.3043C16.6936 10.7246 16.4395 10.3934 15.9032 10.3106C15.6491 10.2692 15.388 10.283 15.1198 10.352C15.0069 10.3796 14.9152 10.4072 14.8446 10.4348H14.8234C14.7811 10.49 14.7246 10.5383 14.654 10.5797ZM4.76688 9.37888C4.75276 10.1242 4.78099 11.0559 4.85156 12.1739C4.90802 12.8364 4.97154 13.5749 5.04211 14.3892C5.05622 14.4859 5.10562 14.9344 5.19031 15.735C5.275 16.5355 5.3244 17.0255 5.33851 17.205C5.43731 17.5086 5.65609 17.7709 5.99483 17.9917C6.34769 18.2264 6.7923 18.4058 7.32865 18.53C7.87911 18.6542 8.47897 18.7095 9.12824 18.6957C10.0174 18.6818 10.8008 18.5576 11.4783 18.323C12.1699 18.0883 12.5369 17.833 12.5792 17.5569C13.1156 14.0649 13.3767 11.3251 13.3626 9.33747C13.165 9.43409 12.9321 9.52381 12.6639 9.60663C11.7323 9.86888 10.5467 10.0138 9.10706 10.0414C7.63916 10.069 6.43944 9.94479 5.50788 9.66874C5.2256 9.58592 4.97859 9.4893 4.76688 9.37888ZM5.08445 8.61284C5.2256 8.70945 5.45143 8.80607 5.76194 8.90269C6.59469 9.13734 7.70268 9.24776 9.08589 9.23395C10.455 9.22015 11.57 9.08213 12.431 8.81988C12.7274 8.73706 12.9532 8.64734 13.1085 8.55072C12.798 8.30228 12.2687 8.10214 11.5206 7.95031C10.7867 7.78468 9.96099 7.70186 9.04355 7.70186C8.14023 7.70186 7.32865 7.79158 6.60881 7.97101C5.90309 8.13665 5.39497 8.35059 5.08445 8.61284ZM8.04848 12.588C7.92145 12.588 7.81559 12.5466 7.73091 12.4638C7.64622 12.381 7.60388 12.2774 7.60388 12.1532C7.60388 12.0842 7.61799 12.0152 7.64622 11.9462C7.68856 11.8772 7.74502 11.8219 7.81559 11.7805C7.88617 11.7391 7.96379 11.7184 8.04848 11.7184C8.1614 11.7184 8.2602 11.7667 8.34488 11.8634C8.44369 11.9462 8.49309 12.0428 8.49309 12.1532C8.49309 12.236 8.47191 12.3119 8.42957 12.381C8.38723 12.45 8.33077 12.5052 8.2602 12.5466C8.18963 12.5742 8.11905 12.588 8.04848 12.588ZM6.60881 13.6646C6.60881 13.5818 6.63704 13.5128 6.6935 13.4576C6.76407 13.3885 6.8417 13.354 6.92638 13.354C7.02518 13.354 7.10281 13.3885 7.15927 13.4576C7.22984 13.5128 7.26513 13.5818 7.26513 13.6646C7.26513 14.1615 7.40627 14.5549 7.68856 14.8447C7.98497 15.1346 8.39429 15.2795 8.91652 15.2795C9.4811 15.2795 9.93982 15.1277 10.2927 14.824C10.6455 14.5204 10.822 14.1339 10.822 13.6646C10.822 13.5818 10.8502 13.5128 10.9067 13.4576C10.9772 13.3885 11.0619 13.354 11.1607 13.354C11.2172 13.354 11.2666 13.3678 11.3089 13.3954C11.3654 13.4231 11.4077 13.4645 11.4359 13.5197C11.4642 13.5611 11.4783 13.6094 11.4783 13.6646C11.4783 14.3133 11.2313 14.8585 10.7373 15.3002C10.2574 15.7281 9.65047 15.942 8.91652 15.942C8.2108 15.942 7.64622 15.735 7.22279 15.3209C6.81347 14.893 6.60881 14.3409 6.60881 13.6646ZM10.335 12.4638C10.2503 12.5466 10.1445 12.588 10.0174 12.588C9.90453 12.588 9.80573 12.5466 9.72104 12.4638C9.63636 12.381 9.59401 12.2843 9.59401 12.1739C9.59401 12.0497 9.63636 11.9462 9.72104 11.8634C9.80573 11.7667 9.90453 11.7184 10.0174 11.7184C10.1445 11.7184 10.2503 11.7667 10.335 11.8634C10.4197 11.9462 10.462 12.0497 10.462 12.1739C10.462 12.2843 10.4197 12.381 10.335 12.4638ZM4.06821 1.92547C4.13878 1.84265 4.23053 1.79434 4.34344 1.78054C4.45636 1.75293 4.55516 1.77364 4.63985 1.84265C4.73865 1.91166 4.79511 2.00138 4.80922 2.1118C4.82333 2.22222 4.79511 2.32574 4.72453 2.42236C4.55516 2.6294 4.75276 2.97446 5.31734 3.45756C6.29124 4.27191 6.48884 5.04486 5.91015 5.7764C5.83957 5.87302 5.74783 5.92823 5.63491 5.94203C5.522 5.95583 5.4232 5.92823 5.33851 5.85921C5.25382 5.7902 5.19737 5.70048 5.16914 5.59006C5.15502 5.47964 5.18325 5.38302 5.25382 5.30021C5.50788 4.96894 5.35263 4.56177 4.78805 4.07867C3.81415 3.26432 3.57421 2.54658 4.06821 1.92547ZM8.83183 5.2795C8.74715 5.33471 8.64835 5.35542 8.53543 5.34162C8.42251 5.31401 8.33077 5.2519 8.2602 5.15528C8.21785 5.10007 8.19668 5.03796 8.19668 4.96894C8.19668 4.88613 8.2108 4.81711 8.23903 4.76191C8.26726 4.69289 8.31666 4.63768 8.38723 4.59627C8.71186 4.38923 8.66246 3.82333 8.23903 2.89855C7.61799 1.5735 7.73091 0.628019 8.57777 0.062111C8.63423 0.0207037 8.69775 0 8.76832 0C8.853 0 8.92358 0.0138024 8.98003 0.0414073C9.05061 0.069013 9.10706 0.117322 9.14941 0.186335C9.20586 0.269151 9.21998 0.365769 9.19175 0.476191C9.17764 0.586611 9.12824 0.676328 9.04355 0.745342C8.57777 1.049 8.5566 1.65631 8.98003 2.56729C9.60107 3.90614 9.55167 4.81021 8.83183 5.2795ZM11.4995 5.7971C11.443 5.85231 11.3795 5.88682 11.3089 5.90062C11.2383 5.90062 11.1678 5.89372 11.0972 5.87992C11.0266 5.85231 10.9631 5.8109 10.9067 5.75569C10.8643 5.70048 10.8361 5.63837 10.822 5.56936C10.822 5.50034 10.829 5.43133 10.8431 5.36232C10.8714 5.29331 10.9137 5.23119 10.9702 5.17598C11.4077 4.81711 11.5771 4.28571 11.4783 3.58178C11.3513 2.58799 11.6124 1.78744 12.2616 1.18012C12.3322 1.09731 12.424 1.0559 12.5369 1.0559C12.6639 1.0559 12.7627 1.09731 12.8333 1.18012C12.918 1.26294 12.9603 1.35956 12.9603 1.46998C12.9603 1.5804 12.918 1.67702 12.8333 1.75983C12.3816 2.17391 12.2052 2.74672 12.304 3.47826C12.431 4.48585 12.1628 5.2588 11.4995 5.7971Z" fill="var(--fill-0, #E41B23)"/>
</svg>
