<svg preserveAspectRatio="none" width="100%" height="100%" overflow="visible" style="display: block;" viewBox="0 0 19.5646 18.4299" fill="none" xmlns="http://www.w3.org/2000/svg">
<path id="Doodle Icon_" d="M1.39778 10.1156C2.41111 9.20893 3.74444 8.82893 5.39778 8.9756C6.53111 9.08227 7.47111 9.60893 8.21778 10.5556C8.72444 10.0623 9.35111 9.86227 10.0978 9.9556C10.0444 9.26227 10.1444 8.58227 10.3978 7.9156C10.5978 7.40893 10.8978 6.94227 11.2978 6.5156C11.7111 6.08893 12.1844 5.74893 12.7178 5.4956C13.2644 5.22893 13.8244 5.0756 14.3978 5.0356C15.0911 4.98227 15.7444 5.04893 16.3578 5.2356C15.9044 4.60893 15.4111 4.00893 14.8778 3.4356C14.3444 2.84893 13.8444 2.36893 13.3778 1.9956C12.9244 1.62227 12.5644 1.40227 12.2978 1.3356C11.8578 1.2156 11.5244 1.2356 11.2978 1.3956C11.0711 1.5556 10.9911 1.84227 11.0578 2.2556C11.0978 2.42893 11.0644 2.58893 10.9578 2.7356C10.8644 2.86893 10.7311 2.9556 10.5578 2.9956C10.3844 3.02227 10.2244 2.98893 10.0778 2.8956C9.94444 2.78893 9.86445 2.64893 9.83778 2.4756C9.67778 1.5556 9.88444 0.8756 10.4578 0.4356C11.0444 -0.00440022 11.7711 -0.111067 12.6378 0.1156C13.4244 0.328933 14.5044 1.18227 15.8778 2.6756C17.2511 4.1556 18.2311 5.5756 18.8178 6.9356C18.8578 7.0156 18.8778 7.10227 18.8778 7.1956C19.0911 7.58227 19.2511 8.00893 19.3578 8.4756C19.7844 10.3156 19.5511 11.7823 18.6578 12.8756C18.0844 13.5689 17.2978 14.0623 16.2978 14.3556C15.4044 14.6356 14.4511 14.6356 13.4378 14.3556C12.4378 14.0756 11.6911 13.5756 11.1978 12.8556C10.8911 12.3889 10.6444 11.9223 10.4578 11.4556C10.4444 11.4556 10.4244 11.4489 10.3978 11.4356C9.73111 11.1689 9.24444 11.3089 8.93778 11.8556C9.49778 13.3356 9.41111 14.8156 8.67778 16.2956C8.34444 16.9889 7.77778 17.5289 6.97778 17.9156C6.19111 18.3156 5.33778 18.4823 4.41778 18.4156C3.41778 18.3489 2.53778 18.0156 1.77778 17.4156C1.03111 16.8156 0.511111 16.0023 0.217778 14.9756C0.0311112 14.3089 -0.0355556 13.6623 0.0177778 13.0356C0.0311111 10.8489 0.211111 8.8356 0.557778 6.9956C0.904444 5.1556 1.31111 3.94893 1.77778 3.3756C1.97778 3.12227 2.22444 2.92227 2.51778 2.7756C2.81111 2.62893 3.10444 2.5556 3.39778 2.5556C3.70444 2.54227 3.99111 2.58893 4.25778 2.6956C4.53778 2.78893 4.77778 2.96893 4.97778 3.2356C5.17778 3.50227 5.31111 3.82227 5.37778 4.1956C5.39111 4.2756 5.38444 4.3556 5.35778 4.4356C5.34444 4.5156 5.31111 4.58893 5.25778 4.6556C5.21778 4.72227 5.16444 4.78227 5.09778 4.8356C5.03111 4.8756 4.95778 4.90227 4.87778 4.9156C4.75778 4.92893 4.64444 4.9156 4.53778 4.8756C4.44444 4.8356 4.35778 4.7756 4.27778 4.6956C4.21111 4.60227 4.17111 4.50227 4.15778 4.3956C4.09111 4.04893 3.89111 3.8556 3.55778 3.8156C3.23778 3.76227 2.97111 3.8756 2.75778 4.1556C2.49111 4.4756 2.22444 5.18893 1.95778 6.2956C1.70444 7.40227 1.51778 8.6756 1.39778 10.1156ZM7.49778 11.9756C7.25778 11.5223 6.94444 11.1489 6.55778 10.8556C6.17111 10.5623 5.74444 10.3956 5.27778 10.3556C4.54444 10.2756 3.89111 10.3423 3.31778 10.5556C2.75778 10.7556 2.32444 11.0556 2.01778 11.4556C1.72444 11.8556 1.52444 12.3289 1.41778 12.8756C1.31111 13.4089 1.35111 13.9823 1.53778 14.5956C1.75111 15.3289 2.11778 15.9089 2.63778 16.3356C3.17111 16.7623 3.79778 17.0023 4.51778 17.0556C4.94444 17.0823 5.35778 17.0423 5.75778 16.9356C6.15778 16.8289 6.50444 16.6623 6.79778 16.4356C7.09111 16.2223 7.31111 15.9756 7.45778 15.6956C8.01778 14.5356 8.07778 13.4023 7.63778 12.2956C7.55778 12.2023 7.51111 12.0956 7.49778 11.9756ZM14.4978 6.4156C13.8978 6.4556 13.3244 6.66893 12.7778 7.0556C12.2444 7.44227 11.8778 7.8956 11.6778 8.4156C11.2378 9.56227 11.4578 10.7823 12.3378 12.0756C12.6578 12.5423 13.1711 12.8689 13.8778 13.0556C14.5978 13.2423 15.2711 13.2356 15.8978 13.0356C16.6444 12.8223 17.2044 12.4823 17.5778 12.0156C18.1911 11.2689 18.3378 10.1956 18.0178 8.7956C17.8178 7.94227 17.3978 7.3156 16.7578 6.9156C16.1311 6.5156 15.3778 6.34893 14.4978 6.4156Z" fill="var(--fill-0, #E41B23)"/>
</svg>
