<svg preserveAspectRatio="none" width="100%" height="100%" overflow="visible" style="display: block;" viewBox="0 0 21.3 20.04" fill="none" xmlns="http://www.w3.org/2000/svg">
<path id="Doodle Icon_" d="M3.3 1.64L3.52 1.24C5.26667 2.2 6.88 3.36667 8.36 4.74C9.84 6.1 11.0867 7.53333 12.1 9.04C13.1133 10.5333 13.9467 12.0467 14.6 13.58C15.2667 15.1133 15.74 16.6133 16.02 18.08L15.54 18.16L15.08 18.24C14.8267 16.8533 14.38 15.4267 13.74 13.96C13.1133 12.48 12.3067 11.02 11.32 9.58C10.3467 8.12667 9.14667 6.74 7.72 5.42C6.29333 4.1 4.74667 2.98 3.08 2.06L3.3 1.64ZM14.84 16.1L14.88 16.72C11.7867 16.9467 9.44667 15.9867 7.86 13.84L7.58 13.46L7.86 13.08L8.66 12C8.62 11.9867 8.49333 11.9933 8.28 12.02C8.06667 12.0333 7.80667 11.9867 7.5 11.88C7.20667 11.76 7.02 11.58 6.94 11.34C6.58 10.1667 6.15333 8.99333 5.66 7.82C5.16667 6.64667 4.55333 5.44 3.82 4.2C3.08667 2.94667 2.35333 2.00667 1.62 1.38L0 0L2.1 0.3C6.7 0.926666 9.82667 1.84 11.48 3.04L11.68 3.2L11.72 3.44L12.02 5C12.4467 4.77333 12.8667 4.55333 13.28 4.34L13.56 4.2L13.86 4.36C16.1133 5.54667 17.5867 6.97333 18.28 8.64L18.46 9.1L18.06 9.38L16.88 10.22L18.38 10.6L18.98 10.76L18.84 11.36C18.5467 12.5067 18.08 13.4267 17.44 14.12C16.8 14.8 15.9733 15.2667 14.96 15.52L14.84 14.9L14.72 14.28C15.3867 14.1467 15.94 13.8733 16.38 13.46C16.82 13.0333 17.1733 12.4333 17.44 11.66L15.24 11.08L13.94 10.74L15.04 9.96L16.9 8.66C16.58 8.1 16.1667 7.58 15.66 7.1C15.1533 6.62 14.4533 6.12667 13.56 5.62C13.1067 5.84667 12.54 6.14 11.86 6.5L11.1 6.88L10.96 6.06L10.54 3.92C9.18 3.05333 6.90667 2.34667 3.72 1.8C4.58667 2.92 5.39333 4.28 6.14 5.88C6.88667 7.48 7.52667 9.08667 8.06 10.7C8.48667 10.7533 9.1 10.7667 9.9 10.74L11.2 10.7L10.42 11.74L9.14 13.44C9.79333 14.1867 10.5533 14.7333 11.42 15.08C12.3 15.4133 13.4267 15.54 14.8 15.46L14.84 16.1ZM15.8 19.56L15.94 19.2C16.2067 19.3067 16.5 19.3 16.82 19.18C17.1533 19.0733 17.5667 18.8133 18.06 18.4C18.5267 18.0267 19.02 17.8333 19.54 17.82C20.06 17.82 20.48 17.96 20.8 18.24C21.1333 18.5333 21.3 18.8867 21.3 19.3H20.9H20.52C20.52 19.22 20.4867 19.1267 20.42 19.02C20.3667 18.9267 20.2733 18.84 20.14 18.76C20.02 18.6933 19.88 18.64 19.72 18.6C19.5733 18.5733 19.3933 18.5933 19.18 18.66C18.98 18.7267 18.7733 18.8467 18.56 19.02C17.9867 19.4733 17.48 19.7733 17.04 19.92C16.6133 20.08 16.1533 20.08 15.66 19.92L15.8 19.56Z" fill="var(--fill-0, #E41B23)"/>
</svg>
