<svg width="17" height="16" viewBox="0 0 17 16" fill="none" xmlns="http://www.w3.org/2000/svg">
<path d="M16.064 5.048C16.1387 5.368 15.9787 5.688 15.584 6.008C15.1893 6.31733 14.4853 6.70667 13.472 7.176C13.6853 8.264 13.7653 9.112 13.712 9.72C13.6693 10.328 13.4773 10.7227 13.136 10.904C12.9973 10.9787 12.8533 10.984 12.704 10.92C12.1493 10.6853 11.312 10.072 10.192 9.08C9.57333 9.44267 9.05067 9.71467 8.624 9.896C8.19733 10.0667 7.81867 10.1627 7.488 10.184C7.168 10.1947 6.92267 10.0987 6.752 9.896L6.72 9.864C6.57067 9.71467 6.51733 9.47467 6.56 9.144C6.60267 8.81333 6.71467 8.42933 6.896 7.992C7.07733 7.55467 7.35467 6.99467 7.728 6.312C6.87467 5.512 6.29867 4.904 6 4.488C5.70133 4.072 5.62133 3.73067 5.76 3.464C5.888 3.15467 6.224 2.984 6.768 2.952C7.312 2.90933 8.128 2.97333 9.216 3.144C9.64267 2.23733 10.0267 1.56533 10.368 1.128C10.72 0.690666 11.0667 0.461333 11.408 0.44C11.44 0.44 11.4773 0.445333 11.52 0.455999C11.904 0.509333 12.1973 0.797333 12.4 1.32C12.6133 1.84267 12.7733 2.64267 12.88 3.72C13.968 3.90133 14.752 4.09333 15.232 4.296C15.7227 4.488 16 4.73867 16.064 5.048ZM14.592 5.128C14.0907 4.968 13.3387 4.808 12.336 4.648C12.2187 4.62667 12.1227 4.57333 12.048 4.488C11.9733 4.40267 11.9307 4.30667 11.92 4.2C11.8347 3.19733 11.7173 2.44533 11.568 1.944C11.504 1.74133 11.44 1.592 11.376 1.496C11.0453 1.76267 10.5813 2.56267 9.984 3.896C9.87733 4.13067 9.696 4.22667 9.44 4.184C8.42667 4.024 7.65867 3.944 7.136 3.944C7.02933 3.944 6.93333 3.944 6.848 3.944C6.90133 4.01867 6.96 4.09867 7.024 4.184C7.376 4.58933 7.93067 5.144 8.688 5.848C8.88 6.02933 8.912 6.232 8.784 6.456C8.26133 7.39467 7.904 8.13067 7.712 8.664C7.63733 8.86667 7.584 9.032 7.552 9.16C7.66933 9.14933 7.81333 9.11733 7.984 9.064C8.47467 8.89333 9.14133 8.54667 9.984 8.024C10.1973 7.896 10.4 7.91733 10.592 8.088C11.488 8.90933 12.192 9.48 12.704 9.8C12.7253 9.68267 12.736 9.54933 12.736 9.4C12.736 8.83467 12.6293 8.02933 12.416 6.984C12.384 6.86667 12.3947 6.76 12.448 6.664C12.5013 6.55733 12.5813 6.47733 12.688 6.424C13.5947 6.01867 14.2613 5.67733 14.688 5.4C14.7733 5.336 14.848 5.28267 14.912 5.24C14.8267 5.19733 14.72 5.16 14.592 5.128ZM7.504 11C7.6 11.224 7.54133 11.464 7.328 11.72C7.11467 11.9653 6.688 12.3173 6.048 12.776C6.41067 13.4587 6.62933 13.9813 6.704 14.344C6.78933 14.7067 6.73067 14.9893 6.528 15.192C6.432 15.2773 6.32533 15.3093 6.208 15.288C5.824 15.2133 5.216 14.92 4.384 14.408C3.904 14.9307 3.504 15.2773 3.184 15.448C2.87467 15.6293 2.608 15.64 2.384 15.48L2.352 15.464C2.192 15.336 2.096 15.0747 2.064 14.68C2.04267 14.296 2.08 13.7413 2.176 13.016C1.49333 12.6213 1.024 12.312 0.768 12.088C0.522667 11.8533 0.421333 11.6347 0.464 11.432C0.517333 11.1973 0.709333 11.032 1.04 10.936C1.37067 10.84 1.92 10.7707 2.688 10.728C2.912 10.0987 3.11467 9.62933 3.296 9.32C3.488 9 3.69067 8.808 3.904 8.744C3.936 8.744 3.96267 8.73867 3.984 8.728C4.25067 8.71733 4.48533 8.86133 4.688 9.16C4.90133 9.448 5.12 9.928 5.344 10.6C6.048 10.5573 6.56 10.568 6.88 10.632C7.21067 10.6853 7.41867 10.808 7.504 11ZM6.544 11.352C6.21333 11.32 5.73333 11.3253 5.104 11.368C4.90133 11.3787 4.77333 11.2933 4.72 11.112C4.528 10.4933 4.352 10.04 4.192 9.752C4.13867 9.66667 4.09067 9.59733 4.048 9.544C3.856 9.8 3.61067 10.3547 3.312 11.208C3.25867 11.368 3.14667 11.4533 2.976 11.464C2.304 11.496 1.80267 11.544 1.472 11.608C1.45067 11.608 1.42933 11.6133 1.408 11.624C1.42933 11.6347 1.45067 11.6507 1.472 11.672C1.74933 11.8853 2.18133 12.1573 2.768 12.488C2.91733 12.5733 2.98133 12.7013 2.96 12.872C2.864 13.5653 2.816 14.0987 2.816 14.472C2.816 14.6 2.82133 14.7067 2.832 14.792C2.88533 14.76 2.93867 14.7227 2.992 14.68C3.25867 14.488 3.61067 14.152 4.048 13.672C4.18667 13.5227 4.34667 13.5013 4.528 13.608C5.12533 13.992 5.6 14.2587 5.952 14.408C5.94133 14.376 5.93067 14.344 5.92 14.312C5.81333 13.96 5.584 13.4747 5.232 12.856C5.18933 12.7707 5.17867 12.68 5.2 12.584C5.22133 12.488 5.26933 12.4133 5.344 12.36C5.90933 11.9653 6.32 11.6507 6.576 11.416C6.59733 11.3947 6.61333 11.3733 6.624 11.352C6.60267 11.352 6.576 11.352 6.544 11.352ZM5.072 4.84C5.11467 4.98933 5.05067 5.13333 4.88 5.272C4.72 5.41067 4.42133 5.59733 3.984 5.832C4.176 6.65333 4.12267 7.13867 3.824 7.288C3.76 7.32 3.696 7.32 3.632 7.288C3.38667 7.192 3.02933 6.888 2.56 6.376C2.176 6.664 1.872 6.84533 1.648 6.92C1.43467 6.99467 1.248 6.968 1.088 6.84C1.00267 6.70133 0.986667 6.52533 1.04 6.312C1.104 6.09867 1.248 5.784 1.472 5.368C1.10933 5.03733 0.869333 4.78667 0.752 4.616C0.634667 4.44533 0.602667 4.296 0.656 4.168C0.72 4.04 0.864 3.96533 1.088 3.944C1.32267 3.92267 1.67467 3.94933 2.144 4.024C2.48533 3.32 2.79467 2.95733 3.072 2.936H3.12C3.29067 2.968 3.424 3.09067 3.52 3.304C3.616 3.51733 3.68533 3.84267 3.728 4.28C4.19733 4.35467 4.53333 4.43467 4.736 4.52C4.93867 4.60533 5.05067 4.712 5.072 4.84ZM4.4 4.936C4.19733 4.872 3.88267 4.808 3.456 4.744C3.328 4.72267 3.25867 4.648 3.248 4.52C3.216 4.11467 3.168 3.81067 3.104 3.608C3.08267 3.55467 3.06667 3.512 3.056 3.48C3.01333 3.52267 2.976 3.57067 2.944 3.624C2.816 3.79467 2.672 4.056 2.512 4.408C2.45867 4.52533 2.368 4.57333 2.24 4.552C1.81333 4.47733 1.49333 4.44 1.28 4.44C1.26933 4.44 1.25867 4.44 1.248 4.44C1.25867 4.44 1.264 4.44533 1.264 4.456C1.41333 4.62667 1.648 4.856 1.968 5.144C2.064 5.22933 2.08 5.33067 2.016 5.448C1.80267 5.82133 1.65333 6.11467 1.568 6.328C1.55733 6.36 1.54667 6.392 1.536 6.424C1.55733 6.41333 1.57867 6.40267 1.6 6.392C1.80267 6.296 2.08 6.11467 2.432 5.848C2.56 5.752 2.672 5.75733 2.768 5.864C3.12 6.25867 3.39733 6.536 3.6 6.696C3.6 6.68533 3.6 6.66933 3.6 6.648C3.6 6.44533 3.552 6.14667 3.456 5.752C3.424 5.624 3.46667 5.528 3.584 5.464C3.968 5.272 4.25067 5.112 4.432 4.984C4.44267 4.97333 4.45867 4.96267 4.48 4.952C4.45867 4.952 4.432 4.94667 4.4 4.936Z" fill="#E41B23"/>
</svg>
