<svg width="31" height="34" viewBox="0 0 31 34" fill="none" xmlns="http://www.w3.org/2000/svg">
<path d="M9.3 16.6446C10.4111 17.8891 11.2222 19.4335 11.7333 21.278C12.2667 23.1002 12.4222 24.8891 12.2 26.6446C12.6444 26.4891 12.9333 26.4002 13.0667 26.378C13.8 26.1557 14.5333 26.0335 15.2667 26.0113C15.3556 26.0113 15.4444 26.0224 15.5333 26.0446C19.2444 26.8891 22.1889 27.0335 24.3667 26.478C25.3667 26.2113 26.0444 25.8224 26.4 25.3113C26.7778 24.778 26.8444 24.0669 26.6 23.178C26.6 23.1335 26.5889 23.078 26.5667 23.0113C26.2333 23.1002 25.8556 23.1446 25.4333 23.1446C25.2556 23.1446 25.1 23.078 24.9667 22.9446C24.8556 22.8113 24.8 22.6557 24.8 22.478C24.8 22.3002 24.8556 22.1446 24.9667 22.0113C25.1 21.878 25.2556 21.8113 25.4333 21.8113C26.7222 21.8113 27.5778 21.3446 28 20.4113C28 20.3891 28.0111 20.3669 28.0333 20.3446C28.1889 19.7002 27.9889 19.0891 27.4333 18.5113C27.3667 18.4446 27.3111 18.378 27.2667 18.3113C26.8667 18.578 26.4667 18.7669 26.0667 18.878C25.8889 18.9224 25.7222 18.9002 25.5667 18.8113C25.4111 18.7224 25.3111 18.5891 25.2667 18.4113C25.2444 18.3446 25.2333 18.278 25.2333 18.2113C25.2333 18.1446 25.2444 18.078 25.2667 18.0113C25.2889 17.9446 25.3222 17.8891 25.3667 17.8446C25.4111 17.8002 25.4556 17.7557 25.5 17.7113C25.5667 17.6669 25.6333 17.6335 25.7 17.6113C26.3222 17.4557 26.9556 17.0446 27.6 16.378C28.0444 15.8446 28.2778 15.2113 28.3 14.478C28.3222 13.7224 28.1111 13.078 27.6667 12.5446C27.1333 11.878 26.3889 11.5335 25.4333 11.5113C24.4778 11.4669 23.2889 11.7891 21.8667 12.478C21.7778 12.5224 21.6778 12.5557 21.5667 12.578C21.4111 13.2446 21.2333 13.8891 21.0333 14.5113C21.5889 14.4891 22.3667 14.3113 23.3667 13.978C23.8333 13.8002 24.1667 13.6224 24.3667 13.4446C24.3889 13.4224 24.4222 13.4002 24.4667 13.378V13.3446C24.4667 13.3446 24.4444 13.3446 24.4 13.3446C24.3778 13.3224 24.3556 13.3224 24.3333 13.3446C24.2444 13.3446 24.1556 13.3335 24.0667 13.3113C24 13.2891 23.9333 13.2557 23.8667 13.2113C23.8 13.1446 23.7444 13.078 23.7 13.0113C23.6556 12.9224 23.6333 12.8335 23.6333 12.7446C23.6111 12.5669 23.6556 12.4113 23.7667 12.278C23.8778 12.1446 24.0222 12.0669 24.2 12.0446C24.5778 12.0002 24.9222 12.1002 25.2333 12.3446C25.5444 12.5669 25.7222 12.8669 25.7667 13.2446C25.8333 14.0669 25.1667 14.7224 23.7667 15.2113C21.7889 15.878 20.4444 16.0002 19.7333 15.578C19.6667 15.5557 19.6111 15.5335 19.5667 15.5113C19.3 15.4224 19.1 15.2557 18.9667 15.0113C18.8556 14.7446 18.8444 14.4669 18.9333 14.178C19.2444 13.3113 19.5 12.378 19.7 11.378C19.9222 10.3557 20.0667 9.34463 20.1333 8.34463C20.2222 7.34463 20.2333 6.44463 20.1667 5.64463C20.0111 4.26685 19.6667 3.30019 19.1333 2.74463C18.6 2.16685 17.8333 1.97797 16.8333 2.17797C16.5222 2.24463 16.2889 2.47796 16.1333 2.87797C16.9556 2.94463 17.5556 3.27797 17.9333 3.87797C18.2 4.32241 18.3 4.82241 18.2333 5.37797C18.1 6.33352 17.7889 7.03352 17.3 7.47797C16.8333 7.92241 16.2111 8.05574 15.4333 7.87797C15.1444 10.0557 14.6222 11.8557 13.8667 13.278L13.8333 13.3113C13.7889 13.4002 13.7333 13.478 13.6667 13.5446C12.4444 14.8113 10.9889 15.8446 9.3 16.6446ZM7.53333 15.1446C8.2 14.9224 8.97778 14.5224 9.86667 13.9446C10.7556 13.3669 11.5 12.778 12.1 12.178C12.7889 10.8669 13.2556 8.90019 13.5 6.27796C13.7 4.4113 13.8778 3.18908 14.0333 2.6113C14.4556 1.2113 15.2444 0.389077 16.4 0.144633C18.1111 -0.210923 19.4556 0.0890766 20.4333 1.04463C21.4333 2.00019 22.0333 3.46686 22.2333 5.44463C22.3667 6.80019 22.3 8.35574 22.0333 10.1113C23.6111 9.48908 25.0222 9.27797 26.2667 9.47797C27.5333 9.67797 28.5444 10.2669 29.3 11.2446C29.7667 11.8224 30.0778 12.4891 30.2333 13.2446C30.4111 14.0002 30.4222 14.7557 30.2667 15.5113C30.1111 16.2669 29.8 16.9446 29.3333 17.5446C30.6667 19.278 30.4778 21.1669 28.7667 23.2113C28.9222 24.1002 28.8667 24.9002 28.6 25.6113C28.3333 26.3224 27.8889 26.9113 27.2667 27.378C26.6444 27.8669 25.8556 28.2335 24.9 28.478C22.4111 29.1224 19.1778 29.0002 15.2 28.1113C14.6889 28.1113 14.1778 28.1891 13.6667 28.3446C13.5778 28.3891 13.3667 28.4669 13.0333 28.578C12.7 28.6891 12.5111 28.7557 12.4667 28.778C12.1778 28.8669 11.9111 28.9335 11.6667 28.978C11.4444 29.5557 11.1778 30.078 10.8667 30.5446C10.4667 31.1891 9.93333 31.6557 9.26667 31.9446C8.6 32.2557 7.53333 32.5446 6.06667 32.8113C5.77778 32.878 5.57778 32.9224 5.46667 32.9446C5.13333 33.0113 4.84444 33.0669 4.6 33.1113C4.31111 33.178 4.04444 33.1335 3.8 32.978C3.55556 32.8446 3.4 32.6335 3.33333 32.3446C3.26667 32.0557 3.31111 31.7891 3.46667 31.5446C3.62222 31.3002 3.83333 31.1446 4.1 31.078C4.38889 31.0335 4.71111 30.9669 5.06667 30.878C5.17778 30.8557 5.38889 30.8224 5.7 30.778C6.45556 30.6224 7.04445 30.478 7.46667 30.3446C7.91111 30.2335 8.26667 30.1002 8.53333 29.9446C8.8 29.8113 9 29.6335 9.13333 29.4113C9.6 28.7002 9.91111 27.8446 10.0667 26.8446C10.2444 25.8446 10.2667 24.8335 10.1333 23.8113C10 22.7891 9.75556 21.8002 9.4 20.8446C9.06667 19.8891 8.58889 19.0446 7.96667 18.3113C7.36667 17.5557 6.7 17.0113 5.96667 16.678C5.54444 16.5002 5.05556 16.4446 4.5 16.5113C3.96667 16.578 3.07778 16.778 1.83333 17.1113C1.61111 17.178 1.43333 17.2335 1.3 17.278C1.03333 17.3446 0.766667 17.3113 0.5 17.178C0.255556 17.0446 0.1 16.8446 0.0333334 16.578C-0.0333333 16.2891 -6.20882e-08 16.0224 0.133333 15.778C0.266667 15.5113 0.477778 15.3446 0.766667 15.278C0.877778 15.2335 1.04444 15.178 1.26667 15.1113C2.8 14.6891 3.91111 14.4557 4.6 14.4113C5.31111 14.3446 6.05556 14.4669 6.83333 14.778C7.05556 14.8891 7.28889 15.0113 7.53333 15.1446ZM15.5667 6.57797C15.9889 6.68908 16.3 6.64463 16.5 6.44463C16.7222 6.24463 16.8667 5.83352 16.9333 5.2113C16.9778 4.96685 16.9333 4.74463 16.8 4.54463C16.6444 4.30019 16.3333 4.17797 15.8667 4.17797C15.7778 4.68908 15.6889 5.45574 15.6 6.47797C15.5778 6.52241 15.5667 6.55574 15.5667 6.57797Z" fill="white"/>
</svg>
