<svg width="34" height="30" viewBox="0 0 34 30" fill="none" xmlns="http://www.w3.org/2000/svg">
<path d="M13.2411 10.6672C13.5547 12.3058 13.4567 14.0475 12.9473 15.8924C12.4683 17.7297 11.6824 19.3442 10.5895 20.736C11.0507 20.8309 11.3442 20.9031 11.47 20.9526C12.2133 21.1389 12.9052 21.4109 13.5457 21.7687C13.6219 21.8144 13.6925 21.8696 13.7573 21.9343C16.5068 24.566 18.9585 26.2031 21.1121 26.8458C22.107 27.1309 22.8883 27.1457 23.456 26.89C24.0542 26.6266 24.4768 26.0508 24.7239 25.1627C24.7468 25.1246 24.7658 25.0712 24.781 25.0026C24.4494 24.9075 24.1025 24.7515 23.7403 24.5345C23.5878 24.4432 23.4886 24.306 23.4427 24.1231C23.4159 23.9516 23.4482 23.7896 23.5396 23.6371C23.6309 23.4846 23.7585 23.3798 23.9224 23.3225C24.1053 23.2766 24.273 23.2994 24.4255 23.3907C25.5311 24.0531 26.5049 24.0925 27.3468 23.5089C27.3582 23.4898 27.3791 23.4764 27.4096 23.4688C27.8743 22.9959 28.0168 22.3689 27.8371 21.5878C27.8142 21.4963 27.8008 21.4106 27.7969 21.3305C27.3168 21.3537 26.8766 21.3102 26.4763 21.1999C26.301 21.1467 26.1694 21.042 26.0817 20.8858C25.9939 20.7296 25.9766 20.5638 26.0299 20.3885C26.0451 20.3198 26.0698 20.2569 26.1041 20.1998C26.1383 20.1426 26.1821 20.0911 26.2355 20.0453C26.2888 19.9996 26.3459 19.969 26.4069 19.9537C26.4679 19.9385 26.5288 19.9232 26.5898 19.9079C26.6698 19.904 26.7441 19.9097 26.8128 19.9249C27.4265 20.1112 28.181 20.0841 29.0765 19.8434C29.7318 19.6143 30.2575 19.1909 30.6534 18.5732C31.0608 17.9365 31.2109 17.2752 31.1037 16.5893C30.9888 15.7433 30.5272 15.0652 29.719 14.5551C28.9221 14.0259 27.7366 13.6913 26.1626 13.5513C26.0635 13.5437 25.9606 13.5209 25.8538 13.4829C25.3778 13.9748 24.8941 14.4363 24.4027 14.8673C24.8907 15.1337 25.6493 15.3809 26.6784 15.6089C27.1701 15.6963 27.5474 15.7151 27.8103 15.6654C27.8408 15.6577 27.8808 15.6558 27.9304 15.6596L27.9475 15.631C27.9475 15.631 27.9285 15.6195 27.8903 15.5967C27.8827 15.5662 27.8636 15.5548 27.8331 15.5624C27.7569 15.5168 27.6863 15.4615 27.6215 15.3968C27.5757 15.3435 27.5357 15.2806 27.5013 15.2082C27.4784 15.1168 27.465 15.031 27.4612 14.951C27.4687 14.8519 27.4953 14.7642 27.541 14.688C27.6133 14.5241 27.7314 14.4135 27.8952 14.3562C28.0591 14.2989 28.2229 14.3064 28.3869 14.3787C28.7338 14.5348 28.9779 14.7976 29.1191 15.1671C29.2718 15.5177 29.2701 15.8664 29.1141 16.2133C28.7487 16.9529 27.8399 17.1726 26.3877 16.8725C24.3485 16.428 23.1324 15.8418 22.7393 15.1142C22.6936 15.0609 22.6573 15.0133 22.6306 14.9713C22.4476 14.7581 22.3616 14.5123 22.3729 14.2341C22.4146 13.9482 22.5478 13.7042 22.7726 13.5021C23.4849 12.9185 24.1837 12.2492 24.8692 11.4942C25.5852 10.7315 26.2288 9.93834 26.7999 9.11477C27.3901 8.30262 27.8621 7.53628 28.2161 6.81575C28.7907 5.5539 28.992 4.54765 28.8201 3.79698C28.6595 3.02724 28.0989 2.4712 27.1383 2.12884C26.8371 2.02614 26.517 2.10638 26.178 2.36957C26.8491 2.84932 27.1925 3.44362 27.2082 4.15247C27.2085 4.67078 27.0374 5.15109 26.6947 5.5934C26.0892 6.34459 25.4626 6.78518 24.8148 6.91518C24.186 7.05661 23.5837 6.85121 23.0079 6.29898C21.6409 8.01869 20.2678 9.2944 18.8887 10.1261L18.843 10.1376C18.7592 10.191 18.6716 10.2292 18.5801 10.2521C16.8807 10.7106 15.101 10.8489 13.2411 10.6672ZM12.4965 8.47254C13.1826 8.62453 14.0553 8.68112 15.1148 8.64231C16.1743 8.60349 17.1155 8.48092 17.9386 8.27457C19.2033 7.5039 20.6144 6.05666 22.1717 3.93286C23.3026 2.43435 24.0832 1.47726 24.5136 1.06156C25.5953 0.0775894 26.6946 -0.222308 27.8115 0.161873C29.4621 0.736254 30.4612 1.68455 30.8089 3.00677C31.1757 4.3404 30.9366 5.90692 30.0917 7.7063C29.5094 8.93767 28.6528 10.2378 27.5218 11.6067C29.1951 11.8838 30.5141 12.428 31.4788 13.2391C32.4626 14.0616 33.0273 15.0864 33.173 16.3135C33.2763 17.049 33.2006 17.7807 32.9457 18.5088C32.71 19.2483 32.3312 19.9022 31.8094 20.4704C31.2877 21.0386 30.6725 21.4601 29.9638 21.735C30.2168 23.9071 29.084 25.4304 26.5654 26.3048C26.2421 27.1473 25.7833 27.805 25.189 28.2779C24.5948 28.7509 23.9109 29.0277 23.1373 29.1082C22.3523 29.2078 21.4871 29.1169 20.5418 28.8355C18.0755 28.1093 15.3647 26.3427 12.4093 23.5359C11.9708 23.2732 11.4924 23.0773 10.974 22.948C10.8749 22.9405 10.6538 22.8987 10.3108 22.8227C9.96773 22.7467 9.77144 22.7068 9.72189 22.703C9.42839 22.6308 9.16537 22.551 8.93284 22.4635C8.44527 22.8449 7.94813 23.1558 7.44142 23.3963C6.76709 23.7435 6.06974 23.8697 5.34938 23.7749C4.61761 23.6992 3.55412 23.3988 2.15891 22.8738C1.87683 22.7826 1.68242 22.7179 1.57569 22.6799C1.25548 22.5657 0.979112 22.4649 0.746578 22.3774C0.464498 22.2861 0.258583 22.111 0.128835 21.8519C-0.0123337 21.6119 -0.0372771 21.3509 0.0540022 21.0688C0.145282 20.7867 0.320455 20.5808 0.579522 20.451C0.83859 20.3213 1.09963 20.2963 1.36265 20.3762C1.63331 20.4865 1.94398 20.5949 2.29467 20.7014C2.40141 20.7395 2.59964 20.8194 2.88936 20.9411C3.61745 21.196 4.19685 21.3747 4.62757 21.4773C5.06593 21.6104 5.43946 21.6788 5.74816 21.6824C6.04544 21.7051 6.30838 21.6554 6.53696 21.5332C7.30274 21.1631 8.00932 20.589 8.65668 19.8111C9.32312 19.0447 9.86182 18.1887 10.2728 17.2433C10.6838 16.2979 10.9823 15.324 11.1684 14.3215C11.3735 13.3305 11.3976 12.3606 11.2408 11.4117C11.1144 10.4552 10.8223 9.64555 10.3645 8.98273C10.0937 8.61323 9.70284 8.31432 9.19201 8.08599C8.70023 7.86909 7.83493 7.58383 6.59609 7.23022C6.3712 7.1732 6.19015 7.12949 6.05293 7.0991C5.78991 7.01924 5.57829 6.85359 5.41805 6.60217C5.27689 6.36216 5.24623 6.11065 5.32609 5.84764C5.41737 5.56556 5.58301 5.35393 5.82302 5.21276C6.07444 5.05253 6.34119 5.01805 6.62327 5.10933C6.74143 5.12831 6.91295 5.16631 7.13785 5.22333C8.67018 5.64915 9.74325 6.02002 10.357 6.33594C11.0013 6.64421 11.5771 7.13165 12.0844 7.79825C12.218 8.00777 12.3553 8.23253 12.4965 8.47254ZM23.7904 5.25233C24.0955 5.56463 24.3852 5.6864 24.6596 5.61761C24.953 5.56026 25.2882 5.28182 25.6651 4.78232C25.8289 4.59547 25.905 4.382 25.8934 4.14191C25.8856 3.85227 25.6815 3.58754 25.2812 3.3477C24.9422 3.74047 24.472 4.35246 23.8704 5.18367C23.8285 5.21038 23.8018 5.23326 23.7904 5.25233Z" fill="#E41B23"/>
</svg>
