<svg width="20" height="20" viewBox="0 0 20 20" fill="none" xmlns="http://www.w3.org/2000/svg">
<path d="M11.6508 7.66797C11.6953 6.79019 11.7508 6.14575 11.8175 5.73463C11.8508 5.5013 11.8841 5.28464 11.9175 5.08464C11.9508 4.92908 12.0341 4.81797 12.1675 4.7513C12.3008 4.67352 12.4397 4.65686 12.5841 4.7013C12.8619 4.77908 13.2286 5.08464 13.6841 5.61797C14.1397 6.14019 14.7675 6.96241 15.5675 8.08464C15.6675 8.21797 15.7675 8.36241 15.8675 8.51797C15.8897 8.5513 16.0897 8.84019 16.4675 9.38464C16.8453 9.92908 17.2119 10.4569 17.5675 10.968C17.9341 11.4791 18.1564 11.7846 18.2341 11.8846C18.323 12.0069 18.3508 12.1457 18.3175 12.3013C18.2952 12.4569 18.2175 12.5735 18.0841 12.6513C17.3952 13.0846 16.4619 13.8569 15.2841 14.968C14.1064 16.068 13.0841 17.1291 12.2175 18.1513C12.0619 18.3402 11.8675 18.3902 11.6341 18.3013C11.4119 18.2235 11.3008 18.0624 11.3008 17.818V14.5513C9.58969 14.7735 8.05636 14.8791 6.70081 14.868C5.35636 14.8457 4.36192 14.7013 3.71747 14.4346C2.9508 14.1235 2.42858 12.8735 2.1508 10.6846C1.87303 8.49575 1.83969 5.6513 2.0508 2.1513C2.06192 2.01797 2.11747 1.90686 2.21747 1.81797C2.31747 1.71797 2.43969 1.66797 2.58414 1.66797H9.11747C9.28414 1.66797 9.41747 1.72908 9.51747 1.8513C9.62858 1.97352 9.66747 2.11797 9.63414 2.28464C9.23414 4.52908 8.98414 6.22908 8.88414 7.38464C8.83969 7.91797 8.82858 8.31797 8.85081 8.58464H11.5675C11.5897 8.41797 11.6175 8.11241 11.6508 7.66797ZM12.6841 7.73464C12.6508 8.24575 12.6175 8.6013 12.5841 8.8013C12.473 9.34575 12.2175 9.61797 11.8175 9.61797H8.51747C8.35081 9.61797 8.21747 9.57908 8.11747 9.5013C8.01747 9.42352 7.94525 9.32352 7.90081 9.2013C7.85636 9.06797 7.82303 8.9013 7.80081 8.7013C7.77858 8.37908 7.79525 7.91241 7.85081 7.3013C7.93969 6.22352 8.15636 4.69019 8.50081 2.7013H3.06747C2.91192 5.62352 2.93414 8.10686 3.13414 10.1513C3.34525 12.1846 3.66747 13.2902 4.10081 13.468C4.66747 13.7124 5.64525 13.8346 7.03414 13.8346C8.43414 13.8235 10.0064 13.6902 11.7508 13.4346C11.9064 13.4124 12.0453 13.4569 12.1675 13.568C12.2897 13.668 12.3508 13.7957 12.3508 13.9513V16.4346C13.1286 15.5902 13.9508 14.768 14.8175 13.968C15.6841 13.168 16.4397 12.5402 17.0841 12.0846C16.8953 11.818 16.6397 11.4569 16.3175 11.0013C15.9953 10.5346 15.7008 10.1124 15.4341 9.73464C15.1786 9.35686 15.0397 9.1513 15.0175 9.11797C14.9064 8.96241 14.8064 8.81797 14.7175 8.68464C13.9175 7.56241 13.2786 6.72908 12.8008 6.18463C12.7675 6.4513 12.7286 6.96797 12.6841 7.73464Z" fill="#E41B23"/>
</svg>
