<svg width="20" height="21" viewBox="0 0 20 21" fill="none" xmlns="http://www.w3.org/2000/svg">
<path d="M11.6841 7.2C11.7374 6.14667 11.8041 5.37333 11.8841 4.88C11.9241 4.6 11.9641 4.34 12.0041 4.1C12.0441 3.91333 12.1441 3.78 12.3041 3.7C12.4641 3.60667 12.6308 3.58667 12.8041 3.64C13.1374 3.73333 13.5774 4.1 14.1241 4.74C14.6708 5.36667 15.4241 6.35333 16.3841 7.7C16.5041 7.86 16.6241 8.03333 16.7441 8.22C16.7708 8.26 17.0108 8.60667 17.4641 9.26C17.9174 9.91333 18.3574 10.5467 18.7841 11.16C19.2241 11.7733 19.4908 12.14 19.5841 12.26C19.6908 12.4067 19.7241 12.5733 19.6841 12.76C19.6574 12.9467 19.5641 13.0867 19.4041 13.18C18.5774 13.7 17.4574 14.6267 16.0441 15.96C14.6308 17.28 13.4041 18.5533 12.3641 19.78C12.1774 20.0067 11.9441 20.0667 11.6641 19.96C11.3974 19.8667 11.2641 19.6733 11.2641 19.38V15.46C9.21076 15.7267 7.37076 15.8533 5.74409 15.84C4.13076 15.8133 2.93742 15.64 2.16409 15.32C1.24409 14.9467 0.617424 13.4467 0.284091 10.82C-0.0492425 8.19333 -0.0892424 4.78 0.164091 0.58C0.177424 0.419999 0.244091 0.286666 0.364091 0.18C0.484091 0.06 0.630758 0 0.804091 0H8.64409C8.84409 0 9.00409 0.0733332 9.12409 0.22C9.25742 0.366666 9.30409 0.539999 9.26409 0.74C8.78409 3.43333 8.48409 5.47333 8.36409 6.86C8.31076 7.5 8.29743 7.98 8.32409 8.3H11.5841C11.6108 8.1 11.6441 7.73333 11.6841 7.2ZM12.9241 7.28C12.8841 7.89333 12.8441 8.32 12.8041 8.56C12.6708 9.21333 12.3641 9.54 11.8841 9.54H7.92409C7.72409 9.54 7.56409 9.49333 7.44409 9.4C7.32409 9.30667 7.23742 9.18667 7.18409 9.04C7.13076 8.88 7.09076 8.68 7.06409 8.44C7.03743 8.05333 7.05742 7.49333 7.12409 6.76C7.23076 5.46667 7.49076 3.62667 7.90409 1.24H1.38409C1.19742 4.74667 1.22409 7.72667 1.46409 10.18C1.71742 12.62 2.10409 13.9467 2.62409 14.16C3.30409 14.4533 4.47742 14.6 6.14409 14.6C7.82409 14.5867 9.71076 14.4267 11.8041 14.12C11.9908 14.0933 12.1574 14.1467 12.3041 14.28C12.4508 14.4 12.5241 14.5533 12.5241 14.74V17.72C13.4574 16.7067 14.4441 15.72 15.4841 14.76C16.5241 13.8 17.4308 13.0467 18.2041 12.5C17.9774 12.18 17.6708 11.7467 17.2841 11.2C16.8974 10.64 16.5441 10.1333 16.2241 9.68C15.9174 9.22667 15.7508 8.98 15.7241 8.94C15.5908 8.75333 15.4708 8.58 15.3641 8.42C14.4041 7.07333 13.6374 6.07333 13.0641 5.42C13.0241 5.74 12.9774 6.36 12.9241 7.28Z" fill="white"/>
</svg>
