<svg width="32" height="60" viewBox="0 0 32 60" fill="none" xmlns="http://www.w3.org/2000/svg">
<path d="M18.2078 0C18.2078 0 23.2347 6.37701 19.5623 10.7408C20.5659 12.0719 21.4643 13.5143 22.2484 15.0399C21.279 9.27642 25.5432 6.61781 25.5432 6.61781C25.5492 6.63732 27.897 14.1913 23.1832 17.0215C23.8803 18.6415 24.4527 20.3362 24.8913 22.0764C24.4421 16.3691 28.8118 14.0803 28.8118 14.0803C28.8159 14.098 30.6711 22.1135 25.3949 24.4155C25.6509 25.8497 25.815 27.3052 25.8829 28.767C26.6373 23.2501 31.2547 21.9044 31.2547 21.9044C31.2547 21.9044 31.5238 30.1446 25.901 31.3608C25.8637 32.4773 25.7682 33.5923 25.6114 34.6987C25.5221 35.3293 25.4125 35.9571 25.2829 36.5812C27.488 32.3916 31.6373 32.2092 31.6373 32.2092C31.6373 32.2092 29.9944 40.2122 24.3065 40.13C23.5565 42.2941 22.5342 44.3777 21.2165 46.3231C25.1855 42.1589 29.8055 43.9901 29.8055 43.9901C29.8055 43.9901 25.0335 50.715 19.8298 48.1834C19.3894 48.7216 18.9238 49.2469 18.4315 49.7571C17.9457 50.2607 17.4341 50.7493 16.8971 51.2225C21.283 49.4951 24.5489 52.1 24.5489 52.1C24.5489 52.1 18.3037 56.9397 14.0518 53.4118C12.2989 54.5872 10.3349 55.6194 8.14887 56.4791C13.8699 54.8434 16.9408 58.9897 16.9408 58.9897C16.9408 58.9897 9.33176 62.188 6.24565 57.2036C6.35028 57.1541 6.45416 57.1064 6.55734 57.0606C4.63778 57.7107 2.56078 58.2352 0.319478 58.6156C0.17115 58.6408 0.0298796 58.5405 0.0040525 58.3917C-0.0216788 58.2428 0.0778132 58.1017 0.22616 58.0765C2.34266 57.7173 4.30828 57.2289 6.1294 56.6271C6.4584 50.0127 11.7892 49.0337 11.7892 49.0337C11.7892 49.0337 11.5138 53.1032 9.26793 55.4177C10.8205 54.7276 12.2482 53.9453 13.5564 53.0836C11.4215 46.6787 16.1329 43.8098 16.1329 43.8098C16.1376 43.8253 17.6164 48.7663 15.4058 51.7523C16.357 51.0044 17.2337 50.2102 18.0385 49.376C18.6507 48.7415 19.2215 48.0836 19.7522 47.4051C19.7156 47.4387 19.6785 47.4725 19.6405 47.5056C15.8311 41.7654 19.7503 37.7317 19.7503 37.7317C19.7503 37.7317 22.4734 42.2501 20.9611 45.7202C22.146 43.9168 23.0773 41.9956 23.7727 40.0026C18.157 36.2072 20.202 31.004 20.202 31.004C20.202 31.004 24.5451 34.1752 24.3798 38.026C24.679 36.905 24.9089 35.7668 25.0715 34.6193C25.2157 33.6012 25.3073 32.5762 25.3485 31.5495C25.324 31.6764 25.2948 31.8046 25.26 31.934C18.9212 29.3339 19.9314 23.7751 19.9314 23.7751C19.9577 23.7873 24.7151 25.9976 25.3683 29.7324C25.3329 27.6699 25.0993 25.6141 24.6843 23.6087C17.9503 22.8445 17.4038 17.2662 17.4029 17.2564C17.4318 17.2609 22.2558 18.0079 24.0708 21.1261C23.5639 19.3662 22.916 17.6625 22.1401 16.0465C15.4738 17.3286 13.3208 12.1605 13.3133 12.1424C13.3438 12.1379 18.7116 11.3374 21.2253 14.2872C20.509 13.0127 19.7093 11.8059 18.8323 10.685C12.5123 13.2467 9.41671 8.56316 9.41671 8.56316C9.41671 8.56316 14.3219 6.80668 17.3773 8.98071C16.522 8.06392 15.6084 7.22333 14.6414 6.47197C8.06807 5.99992 7.22074 0.579486 7.21886 0.567394C7.25336 0.570661 14.0318 1.21875 14.8509 5.94563C15.9847 6.81398 17.0469 7.80046 18.03 8.88579C15.2416 3.93783 18.2078 0 18.2078 0Z" fill="white"/>
</svg>
