<svg width="32" height="60" viewBox="0 0 32 60" fill="none" xmlns="http://www.w3.org/2000/svg">
<path d="M13.4295 0C13.4295 0 8.40263 6.37701 12.075 10.7408C11.0714 12.0719 10.1731 13.5143 9.38894 15.0399C10.3583 9.27642 6.09417 6.61781 6.09417 6.61781C6.08809 6.63732 3.74036 14.1913 8.45413 17.0215C7.75706 18.6415 7.18464 20.3362 6.74608 22.0764C7.19524 16.3691 2.82552 14.0803 2.82552 14.0803C2.82142 14.098 0.966232 22.1135 6.24241 24.4155C5.98639 25.8497 5.82228 27.3052 5.75447 28.767C5.00005 23.2501 0.382639 21.9044 0.382639 21.9044C0.382639 21.9044 0.113565 30.1446 5.73634 31.3608C5.77362 32.4773 5.86911 33.5923 6.0259 34.6987C6.11525 35.3293 6.22488 35.9571 6.35439 36.5812C4.14931 32.3916 1.71661e-05 32.2092 1.71661e-05 32.2092C1.71661e-05 32.2092 1.64291 40.2122 7.3308 40.13C8.0808 42.2941 9.1031 44.3777 10.4208 46.3231C6.45185 42.1589 1.83178 43.9901 1.83178 43.9901C1.83178 43.9901 6.60384 50.715 11.8076 48.1834C12.248 48.7216 12.7136 49.2469 13.2058 49.7571C13.6916 50.2607 14.2032 50.7493 14.7403 51.2225C10.3544 49.4951 7.08843 52.1 7.08843 52.1C7.08843 52.1 13.3336 56.9397 17.5855 53.4118C19.3384 54.5872 21.3024 55.6194 23.4885 56.4791C17.7674 54.8434 14.6965 58.9897 14.6965 58.9897C14.6965 58.9897 22.3056 62.188 25.3917 57.2036C25.287 57.1541 25.1832 57.1064 25.08 57.0606C26.9995 57.7107 29.0765 58.2352 31.3179 58.6156C31.4662 58.6408 31.6074 58.5405 31.6333 58.3917C31.659 58.2428 31.5595 58.1017 31.4112 58.0765C29.2947 57.7173 27.3291 57.2289 25.5079 56.6271C25.1789 50.0127 19.8481 49.0337 19.8481 49.0337C19.8481 49.0337 20.1236 53.1032 22.3694 55.4177C20.8168 54.7276 19.3891 53.9453 18.0809 53.0836C20.2159 46.6787 15.5044 43.8098 15.5044 43.8098C15.4998 43.8253 14.0209 48.7663 16.2315 51.7523C15.2803 51.0044 14.4036 50.2102 13.5988 49.376C12.9866 48.7415 12.4158 48.0836 11.8852 47.4051C11.9217 47.4387 11.9588 47.4725 11.9969 47.5056C15.8062 41.7654 11.887 37.7317 11.887 37.7317C11.887 37.7317 9.16395 42.2501 10.6762 45.7202C9.49135 43.9168 8.56001 41.9956 7.86461 40.0026C13.4804 36.2072 11.4353 31.004 11.4353 31.004C11.4353 31.004 7.09225 34.1752 7.25748 38.026C6.95829 36.905 6.72845 35.7668 6.56584 34.6193C6.42159 33.6012 6.33 32.5762 6.28881 31.5495C6.3133 31.6764 6.34257 31.8046 6.37733 31.934C12.7161 29.3339 11.706 23.7751 11.706 23.7751C11.6796 23.7873 6.92223 25.9976 6.26907 29.7324C6.30438 27.6699 6.53799 25.6141 6.95299 23.6087C13.687 22.8445 14.2335 17.2662 14.2345 17.2564C14.2056 17.2609 9.38153 18.0079 7.56651 21.1261C8.0734 19.3662 8.72131 17.6625 9.49719 16.0465C16.1636 17.3286 18.3166 12.1605 18.3241 12.1424C18.2936 12.1379 12.9258 11.3374 10.412 14.2872C11.1284 13.0127 11.9281 11.8059 12.805 10.685C19.125 13.2467 22.2206 8.56316 22.2206 8.56316C22.2206 8.56316 17.3154 6.80668 14.26 8.98071C15.1153 8.06392 16.0289 7.22333 16.996 6.47197C23.5693 5.99992 24.4166 0.579486 24.4185 0.567394C24.384 0.570661 17.6056 1.21875 16.7864 5.94563C15.6526 6.81398 14.5904 7.80046 13.6073 8.88579C16.3957 3.93783 13.4295 0 13.4295 0Z" fill="white"/>
</svg>
