<svg width="22" height="30" viewBox="0 0 22 30" fill="none" xmlns="http://www.w3.org/2000/svg">
<path d="M6.5 9.46133C5.54444 8.23911 5.15556 6.86133 5.33333 5.328C5.53333 3.79467 6.23333 2.56133 7.43333 1.628C8.36667 0.894666 9.32222 0.405777 10.3 0.161333C11.2778 -0.0831111 12.2556 -0.0497776 13.2333 0.261334C14.2111 0.550221 15.1 1.13911 15.9 2.028C17.1 3.47244 17.5667 5.06133 17.3 6.79467C17.0556 8.528 16.2222 9.95022 14.8 11.0613C13.6 11.9724 12.1667 12.2613 10.5 11.928C8.83333 11.5724 7.5 10.7502 6.5 9.46133ZM8.13333 8.16133C8.8 9.00578 9.68889 9.56133 10.8 9.828C11.9333 10.0947 12.8444 9.96133 13.5333 9.428C14.4889 8.67245 15.0556 7.71689 15.2333 6.56133C15.4111 5.38355 15.1111 4.33911 14.3333 3.428C13.5556 2.53911 12.6667 2.09467 11.6667 2.09467C10.6889 2.07244 9.71111 2.46133 8.73333 3.26133C7.95556 3.86133 7.51111 4.63911 7.4 5.59467C7.28889 6.55022 7.53333 7.40578 8.13333 8.16133ZM1.3 28.6947C1.03333 28.6947 0.800001 28.6058 0.600001 28.428C0.422223 28.2724 0.311111 28.0724 0.266667 27.828C-0.0888889 25.4947 -0.0888889 23.2613 0.266667 21.128C0.6 19.128 1.82222 17.3724 3.93333 15.8613C6.04445 14.3502 8.38889 13.5947 10.9667 13.5947C12.2556 13.5947 13.5333 13.8391 14.8 14.328C16.0667 14.7947 17.1778 15.428 18.1333 16.228C19.1111 17.0058 19.9222 17.9058 20.5667 18.928C21.2111 19.9502 21.6 20.9836 21.7333 22.028C22.0222 24.3169 22.0222 26.3613 21.7333 28.1613C21.6889 28.428 21.5667 28.6391 21.3667 28.7947C21.1667 28.9724 20.9444 29.0613 20.7 29.0613L1.3 28.6947ZM19.8 26.9613C19.9333 25.5613 19.8889 23.9947 19.6667 22.2613C19.4667 20.6391 18.4778 19.1391 16.7 17.7613C14.9444 16.3613 13.0333 15.6613 10.9667 15.6613C8.9 15.6613 7 16.2613 5.26667 17.4613C3.55556 18.6613 2.57778 19.9947 2.33333 21.4613C2.06667 23.1058 2.03333 24.828 2.23333 26.628L19.8 26.9613Z" fill="white"/>
</svg>
