<svg width="26" height="26" viewBox="0 0 26 26" fill="none" xmlns="http://www.w3.org/2000/svg">
<path d="M10.7344 12.9796C10.4167 12.9796 10.1424 12.8677 9.91137 12.6438C9.68035 12.4199 9.56483 12.1491 9.56483 11.8313C9.56483 11.5135 9.68035 11.2391 9.91137 11.008C10.1424 10.7769 10.4167 10.6613 10.7344 10.6613C11.0521 10.6613 11.3264 10.7769 11.5574 11.008C11.7885 11.2391 11.904 11.5135 11.904 11.8313C11.904 12.1491 11.7885 12.4199 11.5574 12.6438C11.3264 12.8677 11.0521 12.9796 10.7344 12.9796ZM15.4235 12.9796C15.0987 12.9796 14.8207 12.8677 14.5897 12.6438C14.3586 12.4199 14.2431 12.1491 14.2431 11.8313C14.2431 11.5135 14.3586 11.2391 14.5897 11.008C14.8207 10.7769 15.0987 10.6613 15.4235 10.6613C15.7484 10.6613 16.0228 10.7769 16.2466 11.008C16.4704 11.2391 16.5823 11.5135 16.5823 11.8313C16.5823 12.1491 16.4704 12.4199 16.2466 12.6438C16.0228 12.8677 15.7484 12.9796 15.4235 12.9796ZM13.5067 20.563C13.3479 20.563 13.1746 20.5485 12.9869 20.5196C12.5393 20.4619 12.1386 20.386 11.7849 20.2921C11.4311 20.1982 11.0665 20.0538 10.6911 19.8588C10.3157 19.6638 10.0052 19.4255 9.75976 19.1438C9.51429 18.8621 9.31215 18.4902 9.15331 18.028C8.99448 17.5657 8.91507 17.0313 8.91507 16.4246C8.91507 16.2513 8.98004 16.0996 9.11 15.9696C9.23995 15.8396 9.39156 15.7746 9.56483 15.7746C9.7381 15.7746 9.88971 15.8396 10.0197 15.9696C10.1496 16.0996 10.2146 16.2513 10.2146 16.4246C10.2146 17.3202 10.4312 17.9738 10.8644 18.3855C11.2975 18.7971 12.0628 19.0824 13.1602 19.2413C13.81 19.328 14.3803 19.1691 14.8712 18.7646C15.5354 18.2157 15.8964 17.4285 15.9542 16.403C15.9542 16.2152 16.0228 16.0635 16.1599 15.948C16.2971 15.8324 16.4523 15.7782 16.6256 15.7855C16.7989 15.7927 16.9469 15.8613 17.0696 15.9913C17.1923 16.1213 17.2465 16.2802 17.2321 16.468C17.2032 17.1324 17.0516 17.7571 16.7772 18.3421C16.5029 18.9271 16.1419 19.4002 15.6943 19.7613C15.059 20.2957 14.3298 20.563 13.5067 20.563ZM13.615 23.8346H10.4745H6.51094C6.4243 23.8346 6.31601 23.813 6.18606 23.7696C5.20419 23.4374 4.71326 22.7585 4.71326 21.733V14.9513H4.19345C3.34153 14.9513 2.7423 14.5902 2.39576 13.868C2.02034 13.1169 2.10698 12.4091 2.65567 11.7446C2.78562 11.5713 2.95889 11.3835 3.17548 11.1813C6.29435 8.04686 8.9656 5.37464 11.1892 3.16464C11.4636 2.89019 11.6946 2.68075 11.8823 2.5363C12.2289 2.29075 12.6043 2.16797 13.0086 2.16797C13.4129 2.16797 13.7883 2.29075 14.1348 2.5363C14.2937 2.65186 14.4597 2.7963 14.633 2.96964C14.9218 3.25852 15.4777 3.80741 16.3007 4.6163C16.4451 4.26964 16.6798 3.98797 17.0046 3.7713C17.3295 3.55464 17.6869 3.4463 18.0767 3.4463H18.9214H19.2463C19.8528 3.4463 20.3437 3.63408 20.7191 4.00964C21.0945 4.38519 21.2823 4.88352 21.2823 5.50464V6.52297C21.2823 7.89519 21.2895 8.92797 21.3039 9.6213L22.6251 10.943L22.9283 11.2463C23.3904 11.7085 23.6792 12.1563 23.7947 12.5896L23.8163 12.6763C23.8452 12.893 23.838 13.1169 23.7947 13.348V13.3913C23.7802 13.4202 23.773 13.4491 23.773 13.478C23.4554 14.4602 22.7839 14.9513 21.7587 14.9513H21.2823V16.5113V21.8413C21.2823 22.2891 21.1595 22.6827 20.9141 23.0221C20.6686 23.3616 20.3365 23.6035 19.9177 23.748L19.7228 23.8346H19.5712H17.9035H13.615ZM10.4745 22.4696H17.9035H19.4413C19.4557 22.4552 19.4701 22.448 19.4846 22.448C19.7878 22.3613 19.9394 22.1591 19.9394 21.8413V16.5113V13.5863H21.7587C21.9753 13.5863 22.1306 13.5538 22.2244 13.4888C22.3183 13.4238 22.4013 13.283 22.4735 13.0663V12.9146C22.4157 12.7269 22.2497 12.4957 21.9753 12.2213L21.6721 11.918L20.2426 10.488C20.0405 10.2713 19.9394 10.0185 19.9394 9.72964V6.52297V5.50464C19.9394 5.04241 19.7084 4.8113 19.2463 4.8113H18.9214H18.0984C17.9251 4.8113 17.7807 4.86908 17.6652 4.98464C17.5497 5.10019 17.492 5.24464 17.492 5.41797V5.8513V7.62797L16.2791 6.52297L16.1491 6.39297L15.3911 5.63464L13.68 3.92297C13.5645 3.80741 13.4562 3.71352 13.3551 3.6413C13.1241 3.48241 12.9003 3.48241 12.6837 3.6413C12.5537 3.74241 12.3733 3.9013 12.1422 4.11797L4.12847 12.1346C3.9552 12.308 3.81803 12.4596 3.71695 12.5896C3.52924 12.8063 3.49314 13.0374 3.60866 13.283C3.70973 13.4852 3.90466 13.5863 4.19345 13.5863H5.01648H6.07776V21.733C6.07776 21.9641 6.11025 22.1266 6.17523 22.2205C6.2402 22.3144 6.38099 22.3974 6.59757 22.4696H10.4745Z" fill="#E41B23"/>
</svg>
