<svg width="25" height="25" viewBox="0 0 25 25" fill="none" xmlns="http://www.w3.org/2000/svg">
<path d="M1.725 15.725C1.20833 14.025 1.075 12.2667 1.325 10.45C1.575 8.63333 2.18333 7.025 3.15 5.625C4.28333 3.975 5.825 2.76667 7.775 2C9.74167 1.21667 12.0417 0.941666 14.675 1.175C16.3917 1.325 17.9833 1.93333 19.45 3C20.9167 4.06667 22.0833 5.44167 22.95 7.125C23.8667 8.89167 24.3083 10.825 24.275 12.925C24.2417 15.0083 23.725 17.0583 22.725 19.075C22.175 20.1583 21.3583 21.1 20.275 21.9C19.1917 22.7 17.9417 23.2917 16.525 23.675C15.125 24.0583 13.6833 24.2 12.2 24.1C9.68333 23.9333 7.49167 23.125 5.625 21.675C3.75833 20.225 2.45833 18.2417 1.725 15.725ZM3.225 15.275C3.875 17.475 5 19.2 6.6 20.45C8.2 21.7 10.1 22.4 12.3 22.55C14.2667 22.6833 16.0917 22.3583 17.775 21.575C19.475 20.7917 20.6583 19.725 21.325 18.375C22.225 16.575 22.6833 14.7583 22.7 12.925C22.7333 11.075 22.35 9.375 21.55 7.825C20.8167 6.375 19.825 5.2 18.575 4.3C17.325 3.38333 15.9833 2.85833 14.55 2.725C12.1833 2.50833 10.15 2.73333 8.45 3.4C6.75 4.05 5.40833 5.09167 4.425 6.525C3.59167 7.725 3.06667 9.11667 2.85 10.7C2.65 12.2667 2.775 13.7917 3.225 15.275ZM20.475 11.025C20.7083 11.3083 20.7583 12.0667 20.625 13.3C20.4917 14.5333 20.2833 15.25 20 15.45C19.7167 15.6333 18.2833 15.675 15.7 15.575C15.8167 17.225 15.8333 18.4167 15.75 19.15C15.6833 19.8667 15.475 20.2917 15.125 20.425C14.7917 20.5583 14.0167 20.5917 12.8 20.525C11.5833 20.475 10.875 20.35 10.675 20.15C10.5417 20.0167 10.4417 19.6333 10.375 19C10.3083 18.3667 10.25 17.2167 10.2 15.55C7.8 15.5833 6.40833 15.6 6.025 15.6C5.64167 15.6 5.375 15.4167 5.225 15.05C5.09167 14.6667 5.00833 14.0417 4.975 13.175C4.94167 11.8583 5.03333 11.05 5.25 10.75C5.4 10.5333 5.81667 10.3917 6.5 10.325C7.2 10.2583 8.43333 10.225 10.2 10.225C10.2667 7.30833 10.4 5.69167 10.6 5.375C10.6833 5.20833 10.8167 5.09167 11 5.025C11.2 4.95833 11.4583 4.91667 11.775 4.9C12.0917 4.88333 12.475 4.88333 12.925 4.9C14.0583 4.93333 14.75 5.01667 15 5.15C15.2667 5.28333 15.4167 5.69167 15.45 6.375C15.4833 7.04167 15.45 8.33333 15.35 10.25C17.1167 10.35 18.3667 10.45 19.1 10.55C19.85 10.65 20.3083 10.8083 20.475 11.025ZM19.475 11.8C19.2417 11.75 18.9167 11.7 18.5 11.65C17.6333 11.5667 16.3667 11.4833 14.7 11.4C14.55 11.4 14.4167 11.3417 14.3 11.225C14.2 11.0917 14.15 10.95 14.15 10.8C14.2333 9.13333 14.275 7.875 14.275 7.025C14.275 6.65833 14.2667 6.375 14.25 6.175C14.1833 6.15833 14.1083 6.15 14.025 6.15C13.6583 6.1 13.275 6.075 12.875 6.075C12.425 6.05833 12.0583 6.05833 11.775 6.075C11.7083 6.075 11.6417 6.08333 11.575 6.1C11.575 6.13333 11.575 6.16667 11.575 6.2C11.5417 6.43333 11.5083 6.75833 11.475 7.175C11.425 8.025 11.3833 9.24167 11.35 10.825C11.35 10.9917 11.2917 11.1333 11.175 11.25C11.0583 11.35 10.925 11.4 10.775 11.4C9.175 11.4 7.95833 11.4167 7.125 11.45C6.725 11.4833 6.41667 11.5167 6.2 11.55C6.2 11.6333 6.19167 11.7417 6.175 11.875C6.14167 12.275 6.13333 12.7 6.15 13.15C6.16667 13.65 6.20833 14.0417 6.275 14.325C6.275 14.3583 6.28333 14.3917 6.3 14.425C6.93333 14.425 8.425 14.4083 10.775 14.375C10.925 14.375 11.0583 14.4333 11.175 14.55C11.2917 14.65 11.35 14.7833 11.35 14.95C11.4 16.4667 11.45 17.6167 11.5 18.4C11.5333 18.7833 11.5583 19.075 11.575 19.275C11.6417 19.275 11.7083 19.2833 11.775 19.3C12.0917 19.3333 12.475 19.35 12.925 19.35C13.625 19.3833 14.1667 19.3833 14.55 19.35C14.5833 19.1667 14.6083 18.8917 14.625 18.525C14.6417 17.725 14.5917 16.55 14.475 15C14.4583 14.8167 14.5083 14.6667 14.625 14.55C14.7583 14.4167 14.9083 14.3583 15.075 14.375C16.525 14.4417 17.625 14.475 18.375 14.475C18.7417 14.475 19.025 14.4667 19.225 14.45C19.2417 14.45 19.25 14.45 19.25 14.45C19.2667 14.3833 19.2833 14.3167 19.3 14.25C19.3667 13.95 19.4167 13.5917 19.45 13.175C19.5 12.7417 19.525 12.3667 19.525 12.05C19.525 11.9667 19.5167 11.8833 19.5 11.8C19.5 11.8 19.4917 11.8 19.475 11.8Z" fill="#E41B23"/>
</svg>
