<svg width="23" height="25" viewBox="0 0 23 25" fill="none" xmlns="http://www.w3.org/2000/svg">
<path d="M14.675 19.05C14.675 19.0167 14.675 18.9833 14.675 18.95C14.6917 18.1167 14.8083 17.4167 15.025 16.85C15.2417 16.2667 15.6 15.6583 16.1 15.025C16.1333 14.9917 16.1833 14.9333 16.25 14.85C16.3167 14.7667 16.3583 14.7083 16.375 14.675C16.8917 14.0583 17.2583 13.4917 17.475 12.975C17.6917 12.4583 17.8333 11.7833 17.9 10.95C17.9833 9.41667 17.525 8.175 16.525 7.225C15.525 6.25833 14.2167 5.75 12.6 5.7C11 5.65 9.66667 6.075 8.6 6.975C7.53333 7.875 6.99167 9.08333 6.975 10.6C6.975 11.45 7.05833 12.1 7.225 12.55C7.39167 12.9833 7.725 13.475 8.225 14.025L8.25 14.05C8.88333 14.7333 9.325 15.4 9.575 16.05C9.825 16.7 9.95 17.5667 9.95 18.65C9.95 18.7167 9.94167 18.775 9.925 18.825C9.90833 18.9083 9.9 18.9667 9.9 19C10.3167 19.3 11.0333 19.4583 12.05 19.475C12.2667 15.8417 11.6083 13.7917 10.075 13.325C9.94167 13.275 9.84167 13.1917 9.775 13.075C9.725 12.9583 9.71667 12.8417 9.75 12.725C9.8 12.5917 9.88333 12.4917 10 12.425C10.1167 12.3583 10.2417 12.35 10.375 12.4C11.1083 12.6167 11.6917 13.0667 12.125 13.75C12.5917 12.8333 13.2417 12.25 14.075 12C14.2083 11.9667 14.3333 11.9833 14.45 12.05C14.5667 12.1 14.6417 12.1917 14.675 12.325C14.725 12.4583 14.7167 12.5833 14.65 12.7C14.5833 12.8167 14.4833 12.8917 14.35 12.925C13.9833 13.0417 13.6417 13.2917 13.325 13.675C13.025 14.0417 12.8167 14.4667 12.7 14.95C12.7 14.9833 12.6917 15.0083 12.675 15.025C13.0083 16.1583 13.125 17.625 13.025 19.425C13.525 19.375 13.9667 19.2917 14.35 19.175C14.4667 19.1417 14.575 19.1 14.675 19.05ZM13.975 20.475C13.475 20.575 12.9167 20.625 12.3 20.625C11.7 20.6417 11.1583 20.6083 10.675 20.525C10.6417 20.9417 10.6583 21.3833 10.725 21.85C10.7583 22.0833 10.8083 22.2833 10.875 22.45C10.875 22.4667 10.875 22.4833 10.875 22.5C11.175 22.6667 11.6167 22.7583 12.2 22.775C12.7833 22.7917 13.2833 22.7 13.7 22.5C13.8 22.4 13.875 22.1167 13.925 21.65C13.9417 21.4167 13.9583 21.15 13.975 20.85C13.975 20.7667 13.975 20.6667 13.975 20.55V20.475ZM21.9 3.2C20.9 3.78333 20.1 4.36667 19.5 4.95C19.4 5.05 19.2833 5.1 19.15 5.1C19.0167 5.08333 18.9 5.03333 18.8 4.95C18.7167 4.85 18.675 4.73333 18.675 4.6C18.675 4.46667 18.725 4.35 18.825 4.25C19.475 3.61667 20.3417 2.98333 21.425 2.35C21.5417 2.28333 21.6583 2.26667 21.775 2.3C21.9083 2.33333 22.0083 2.40833 22.075 2.525C22.1583 2.64167 22.175 2.76667 22.125 2.9C22.0917 3.03333 22.0167 3.13333 21.9 3.2ZM0.675 13.125C1.30833 12.8083 1.875 12.5083 2.375 12.225C2.49167 12.1583 2.60833 12.15 2.725 12.2C2.85833 12.2333 2.95833 12.3083 3.025 12.425C3.09167 12.5417 3.1 12.6667 3.05 12.8C3.01667 12.9333 2.94167 13.025 2.825 13.075C2.325 13.3583 1.75 13.6667 1.1 14C0.983333 14.0667 0.858333 14.0833 0.725 14.05C0.608333 14 0.516667 13.9167 0.45 13.8C0.383333 13.6833 0.366667 13.5583 0.4 13.425C0.45 13.2917 0.541667 13.1917 0.675 13.125ZM20.7 13.05C21.2833 13.1167 21.9417 13.4583 22.675 14.075C22.775 14.1583 22.825 14.275 22.825 14.425C22.8417 14.5583 22.8083 14.675 22.725 14.775C22.6417 14.875 22.525 14.9333 22.375 14.95C22.2417 14.95 22.125 14.9083 22.025 14.825C21.4583 14.3417 20.975 14.075 20.575 14.025C20.4417 14.0083 20.3333 13.95 20.25 13.85C20.1667 13.75 20.1333 13.6333 20.15 13.5C20.1667 13.35 20.225 13.2333 20.325 13.15C20.4417 13.0667 20.5667 13.0333 20.7 13.05ZM1.725 4.325C1.59167 4.29167 1.49167 4.21667 1.425 4.1C1.35833 3.98333 1.34167 3.85833 1.375 3.725C1.40833 3.59167 1.48333 3.49167 1.6 3.425C1.71667 3.35833 1.84167 3.34167 1.975 3.375C3.175 3.675 4.19167 4.16667 5.025 4.85C5.14167 4.93333 5.20833 5.04167 5.225 5.175C5.24167 5.30833 5.20833 5.425 5.125 5.525C5.04167 5.625 4.925 5.68333 4.775 5.7C4.64167 5.71667 4.525 5.68333 4.425 5.6C3.69167 5.01667 2.79167 4.59167 1.725 4.325ZM17.45 16.1C17.05 16.6 16.775 17.05 16.625 17.45C16.475 17.8333 16.4 18.3417 16.4 18.975C16.4 19.6583 16.1583 20.225 15.675 20.675C15.675 20.7417 15.675 20.8083 15.675 20.875C15.675 21.2417 15.6583 21.5583 15.625 21.825C15.5083 22.9083 15.1667 23.625 14.6 23.975L14.55 24C13.8 24.3833 12.925 24.5417 11.925 24.475C10.9417 24.425 10.1917 24.175 9.675 23.725C9.425 23.525 9.23333 23.1 9.1 22.45C8.96667 21.8167 8.91667 21.1667 8.95 20.5C8.31667 20.0333 8.075 19.3917 8.225 18.575C8.225 17.7417 8.13333 17.1083 7.95 16.675C7.78333 16.225 7.45833 15.7333 6.975 15.2L6.95 15.175C6.31667 14.475 5.875 13.8083 5.625 13.175C5.39167 12.5417 5.275 11.6833 5.275 10.6C5.29167 8.56667 6 6.94167 7.4 5.725C8.81667 4.50833 10.5667 3.925 12.65 3.975C14.7333 4.04167 16.4417 4.725 17.775 6.025C19.1083 7.325 19.725 9.00833 19.625 11.075C19.525 12.1083 19.3333 12.9667 19.05 13.65C18.7667 14.3167 18.325 15.025 17.725 15.775C17.6917 15.7917 17.6417 15.85 17.575 15.95C17.525 16.0167 17.4833 16.0667 17.45 16.1ZM12.875 0.475C12.8917 1.375 12.8917 2.03333 12.875 2.45C12.875 2.58333 12.825 2.7 12.725 2.8C12.625 2.88333 12.5083 2.925 12.375 2.925C12.2417 2.925 12.125 2.875 12.025 2.775C11.9417 2.675 11.9 2.55833 11.9 2.425C11.9167 2.00833 11.9167 1.36667 11.9 0.499999C11.9 0.366666 11.9417 0.258332 12.025 0.174999C12.125 0.0749992 12.2417 0.0249994 12.375 0.0249994C12.5083 0.00833293 12.625 0.0499996 12.725 0.149999C12.825 0.233333 12.875 0.341666 12.875 0.475Z" fill="#E41B23"/>
</svg>
