<svg width="26" height="26" viewBox="0 0 26 26" fill="none" xmlns="http://www.w3.org/2000/svg">
<path d="M10.7343 12.9796C10.4166 12.9796 10.1423 12.8677 9.91125 12.6438C9.68022 12.4199 9.56471 12.1491 9.56471 11.8313C9.56471 11.5135 9.68022 11.2391 9.91125 11.008C10.1423 10.7769 10.4166 10.6613 10.7343 10.6613C11.0519 10.6613 11.3263 10.7769 11.5573 11.008C11.7883 11.2391 11.9039 11.5135 11.9039 11.8313C11.9039 12.1491 11.7883 12.4199 11.5573 12.6438C11.3263 12.8677 11.0519 12.9796 10.7343 12.9796ZM15.4234 12.9796C15.0985 12.9796 14.8206 12.8677 14.5896 12.6438C14.3585 12.4199 14.243 12.1491 14.243 11.8313C14.243 11.5135 14.3585 11.2391 14.5896 11.008C14.8206 10.7769 15.0985 10.6613 15.4234 10.6613C15.7483 10.6613 16.0226 10.7769 16.2465 11.008C16.4703 11.2391 16.5822 11.5135 16.5822 11.8313C16.5822 12.1491 16.4703 12.4199 16.2465 12.6438C16.0226 12.8677 15.7483 12.9796 15.4234 12.9796ZM13.5066 20.563C13.3478 20.563 13.1745 20.5485 12.9868 20.5196C12.5392 20.4619 12.1385 20.386 11.7847 20.2921C11.431 20.1982 11.0664 20.0538 10.691 19.8588C10.3155 19.6638 10.0051 19.4255 9.75964 19.1438C9.51417 18.8621 9.31202 18.4902 9.15319 18.028C8.99436 17.5657 8.91494 17.0313 8.91494 16.4246C8.91494 16.2513 8.97992 16.0996 9.10987 15.9696C9.23983 15.8396 9.39144 15.7746 9.56471 15.7746C9.73798 15.7746 9.88959 15.8396 10.0195 15.9696C10.1495 16.0996 10.2145 16.2513 10.2145 16.4246C10.2145 17.3202 10.4311 17.9738 10.8642 18.3855C11.2974 18.7971 12.0627 19.0824 13.1601 19.2413C13.8098 19.328 14.3802 19.1691 14.8711 18.7646C15.5353 18.2157 15.8963 17.4285 15.9541 16.403C15.9541 16.2152 16.0226 16.0635 16.1598 15.948C16.297 15.8324 16.4522 15.7782 16.6255 15.7855C16.7988 15.7927 16.9468 15.8613 17.0695 15.9913C17.1922 16.1213 17.2464 16.2802 17.2319 16.468C17.2031 17.1324 17.0514 17.7571 16.7771 18.3421C16.5027 18.9271 16.1418 19.4002 15.6942 19.7613C15.0588 20.2957 14.3296 20.563 13.5066 20.563ZM13.6149 23.8346H10.4744H6.51082C6.42418 23.8346 6.31589 23.813 6.18593 23.7696C5.20407 23.4374 4.71313 22.7585 4.71313 21.733V14.9513H4.19332C3.34141 14.9513 2.74218 14.5902 2.39564 13.868C2.02022 13.1169 2.10686 12.4091 2.65555 11.7446C2.7855 11.5713 2.95877 11.3835 3.17536 11.1813C6.29423 8.04686 8.96548 5.37464 11.1891 3.16464C11.4635 2.89019 11.6945 2.68075 11.8822 2.5363C12.2287 2.29075 12.6042 2.16797 13.0085 2.16797C13.4128 2.16797 13.7882 2.29075 14.1347 2.5363C14.2936 2.65186 14.4596 2.7963 14.6329 2.96964C14.9217 3.25852 15.4776 3.80741 16.3006 4.6163C16.445 4.26964 16.6796 3.98797 17.0045 3.7713C17.3294 3.55464 17.6868 3.4463 18.0766 3.4463H18.9213H19.2462C19.8526 3.4463 20.3436 3.63408 20.719 4.00964C21.0944 4.38519 21.2821 4.88352 21.2821 5.50464V6.52297C21.2821 7.89519 21.2893 8.92797 21.3038 9.6213L22.625 10.943L22.9282 11.2463C23.3903 11.7085 23.679 12.1563 23.7946 12.5896L23.8162 12.6763C23.8451 12.893 23.8379 13.1169 23.7946 13.348V13.3913C23.7801 13.4202 23.7729 13.4491 23.7729 13.478C23.4552 14.4602 22.7838 14.9513 21.7586 14.9513H21.2821V16.5113V21.8413C21.2821 22.2891 21.1594 22.6827 20.9139 23.0221C20.6685 23.3616 20.3364 23.6035 19.9176 23.748L19.7227 23.8346H19.5711H17.9034H13.6149ZM10.4744 22.4696H17.9034H19.4411C19.4556 22.4552 19.47 22.448 19.4844 22.448C19.7877 22.3613 19.9393 22.1591 19.9393 21.8413V16.5113V13.5863H21.7586C21.9752 13.5863 22.1304 13.5538 22.2243 13.4888C22.3181 13.4238 22.4012 13.283 22.4734 13.0663V12.9146C22.4156 12.7269 22.2496 12.4957 21.9752 12.2213L21.672 11.918L20.2425 10.488C20.0404 10.2713 19.9393 10.0185 19.9393 9.72964V6.52297V5.50464C19.9393 5.04241 19.7083 4.8113 19.2462 4.8113H18.9213H18.0983C17.925 4.8113 17.7806 4.86908 17.6651 4.98464C17.5496 5.10019 17.4918 5.24464 17.4918 5.41797V5.8513V7.62797L16.2789 6.52297L16.149 6.39297L15.3909 5.63464L13.6799 3.92297C13.5644 3.80741 13.4561 3.71352 13.355 3.6413C13.124 3.48241 12.9002 3.48241 12.6836 3.6413C12.5536 3.74241 12.3731 3.9013 12.1421 4.11797L4.12835 12.1346C3.95508 12.308 3.8179 12.4596 3.71683 12.5896C3.52912 12.8063 3.49302 13.0374 3.60854 13.283C3.70961 13.4852 3.90454 13.5863 4.19332 13.5863H5.01636H6.07764V21.733C6.07764 21.9641 6.11013 22.1266 6.1751 22.2205C6.24008 22.3144 6.38086 22.3974 6.59745 22.4696H10.4744Z" fill="#E41B23"/>
</svg>
