<svg width="32" height="32" viewBox="0 0 32 32" fill="none" xmlns="http://www.w3.org/2000/svg">
<path d="M21.5718 25.3131H19.7304H17.4065C17.3557 25.3131 17.2922 25.3003 17.216 25.2749C16.6403 25.0801 16.3524 24.6821 16.3524 24.0808V20.1045H16.0477C15.5482 20.1045 15.1968 19.8928 14.9936 19.4694C14.7735 19.029 14.8243 18.614 15.146 18.2244C15.2222 18.1228 15.3238 18.0127 15.4508 17.8941C17.2795 16.0563 18.8457 14.4895 20.1495 13.1937C20.3103 13.0328 20.4458 12.91 20.5558 12.8253C20.759 12.6814 20.9791 12.6094 21.2162 12.6094C21.4532 12.6094 21.6733 12.6814 21.8765 12.8253C21.9697 12.8931 22.067 12.9778 22.1686 13.0794C22.3379 13.2488 22.6639 13.5706 23.1464 14.0449C23.2311 13.8416 23.3687 13.6765 23.5592 13.5494C23.7496 13.4224 23.9592 13.3589 24.1878 13.3589H24.683H24.8735C25.2291 13.3589 25.5169 13.469 25.737 13.6892C25.9572 13.9094 26.0672 14.2016 26.0672 14.5657V15.1628C26.0672 15.9674 26.0715 16.5729 26.0799 16.9794L26.8546 17.7544L27.0324 17.9322C27.3033 18.2032 27.4726 18.4658 27.5403 18.7198L27.553 18.7707C27.5699 18.8977 27.5657 19.029 27.5403 19.1645V19.1899C27.5318 19.2068 27.5276 19.2238 27.5276 19.2407C27.3414 19.8166 26.9477 20.1045 26.3466 20.1045H26.0672V21.0192V24.1443C26.0672 24.4069 25.9953 24.6376 25.8513 24.8367C25.7074 25.0357 25.5127 25.1775 25.2672 25.2622L25.1529 25.3131H25.064H24.0862H21.5718ZM19.7304 24.5127H24.0862H24.9878C24.9963 24.5042 25.0047 24.5 25.0132 24.5C25.191 24.4492 25.2799 24.3306 25.2799 24.1443V21.0192V19.3042H26.3466C26.4736 19.3042 26.5646 19.2852 26.6196 19.247C26.6747 19.2089 26.7233 19.1264 26.7657 18.9993V18.9104C26.7318 18.8003 26.6344 18.6648 26.4736 18.5039L26.2958 18.326L25.4577 17.4876C25.3391 17.3605 25.2799 17.2123 25.2799 17.043V15.1628V14.5657C25.2799 14.2947 25.1444 14.1592 24.8735 14.1592H24.683H24.2005C24.0989 14.1592 24.0142 14.1931 23.9465 14.2609C23.8787 14.3286 23.8449 14.4133 23.8449 14.5149V14.769V15.8107L23.1337 15.1628L23.0575 15.0866L22.6131 14.642L21.6098 13.6384C21.5421 13.5706 21.4786 13.5156 21.4194 13.4732C21.2839 13.3801 21.1527 13.3801 21.0257 13.4732C20.9495 13.5325 20.8437 13.6257 20.7082 13.7527L16.0096 18.4531C15.908 18.5547 15.8275 18.6436 15.7683 18.7198C15.6582 18.8469 15.6371 18.9824 15.7048 19.1264C15.764 19.2449 15.8783 19.3042 16.0477 19.3042H16.5302H17.1525V24.0808C17.1525 24.2163 17.1715 24.3116 17.2096 24.3666C17.2477 24.4217 17.3303 24.4704 17.4573 24.5127H19.7304Z" fill="#E41B23"/>
<path d="M5.66678 4.00152C5.4052 4.00112 5.4052 4.00112 5.20004 4.03467C5.01963 4.30528 5.01963 4.30528 5 4.51L5.00418 4.75512L5.00763 5.03782L5.01428 5.34894C5.01847 5.63515 5.02249 5.92136 5.0277 6.20755C5.03495 6.58827 5.04159 6.96898 5.04745 7.34972C5.05583 7.8972 5.06469 8.44468 5.0742 8.99215C5.09693 10.2936 5.11759 11.5952 5.13793 12.8967C5.14251 13.1901 5.1471 13.4834 5.15175 13.7768C5.18307 15.7423 5.2093 17.7077 5.22389 19.6734L5.22647 20.0271L5.22682 20.0735C5.23496 21.1514 5.2431 22.2294 5.24833 23.3073C5.25025 23.7068 5.25257 24.1062 5.2554 24.5056C5.25677 24.689 5.25805 24.8723 5.25924 25.0556L5.25932 25.0847C5.25998 25.3284 5.26064 25.5721 5.26247 25.8159L5.26435 26.0428C5.26385 26.4343 5.24528 26.6985 5.47065 27.0366C6.02522 27.1166 6.02522 27.1166 7.64118 26.952C9.35661 26.7591 11.0803 26.7533 12.8045 26.751C13.2065 26.7505 13.6084 26.7495 14.0103 26.7479L14.4276 26.7462L14.6384 26.7453C15.578 26.7415 16.5175 26.738 17.4571 26.7368C18.1021 26.7361 18.747 26.7346 19.392 26.7314L19.4835 26.7309C19.7925 26.7292 20.1014 26.7276 20.4103 26.7276C20.733 26.728 21.0557 26.7281 21.3784 26.726L21.7346 26.7236L22.0718 26.7254L22.3802 26.722C22.6478 26.7213 22.6478 26.7213 22.8799 26.6758C23.13 26.4746 23.2269 26.3786 23.2957 26.0627L23.3084 25.7963L23.3239 25.5271L23.331 25.3227H22.3387C22.3129 25.4739 22.283 25.6243 22.2485 25.7737C20.1794 25.8252 18.1104 25.8627 16.0408 25.884L15.7676 25.8868C14.8471 25.8964 13.9266 25.9058 13.0061 25.9139C12.6497 25.9171 12.2933 25.9203 11.9369 25.9238C11.7671 25.9255 11.5974 25.9272 11.4276 25.9288C10.3773 25.9369 9.33119 25.9611 8.28248 26.0219C8.06152 26.0351 7.84058 26.048 7.61956 26.0602C7.47249 26.0681 7.32542 26.0761 7.17835 26.0843L6.9872 26.0951L6.57741 26.118L6.28248 26.1346C6.27358 25.3866 6.2644 24.6387 6.25482 23.8907L6.25353 23.7903C6.24901 23.4397 6.24449 23.0891 6.24029 22.7384C6.22352 21.3185 6.21853 19.8977 6.14612 18.4792C6.11685 17.9182 6.09538 17.3583 6.08664 16.7966L6.08305 16.5279C6.0806 16.345 6.07819 16.162 6.0758 15.9791C6.0457 13.6201 5.96134 11.266 5.85178 8.9095C5.83933 8.64289 5.82699 8.37627 5.81477 8.10965C5.80898 7.9834 5.80316 7.85715 5.79729 7.73091C5.75169 6.79839 5.73441 5.87005 5.74126 4.93671C7.32315 4.93468 8.90503 4.9331 10.4869 4.93217C11.2581 4.93172 12.0293 4.93123 12.8005 4.93021C13.4761 4.9293 14.1517 4.92856 14.8272 4.92829L14.9442 4.92825C15.2646 4.92816 15.5849 4.92808 15.9053 4.92756C17.7814 4.92402 19.6522 4.95015 21.5269 5.02691C21.5316 6.66515 21.5198 8.30187 21.4884 9.93988C21.4839 10.172 21.4795 10.4041 21.4752 10.6362C21.4627 11.3222 21.4499 12.0082 21.4367 12.6942L22.6913 13.7426C22.4727 13.3398 22.4727 13.3398 22.4695 12.8725L22.4713 12.6136C22.4688 12.3257 22.4668 12.0379 22.467 11.75C22.4672 11.5441 22.4668 11.3382 22.4657 11.1323C22.4619 10.593 22.4592 10.0536 22.4583 9.51425C22.4569 8.63134 22.4526 7.74844 22.4479 6.86554C22.4462 6.5551 22.4448 6.24468 22.4441 5.93424C22.4438 5.73795 22.4433 5.54166 22.4427 5.34537L22.4417 5.07248L22.4419 4.81191L22.4408 4.57622C22.4406 4.45577 22.4378 4.33519 22.4289 4.21508C22.3283 4.11442 22.3283 4.11442 21.7942 4.10148L21.5537 4.09713C21.2827 4.09126 21.0117 4.0857 20.7407 4.08079L20.442 4.07554C17.7835 4.02599 15.1249 4.01484 12.4659 4.01325C11.7499 4.01283 11.0339 4.01185 10.3179 4.0093C9.74798 4.00727 9.17809 4.00592 8.60818 4.00559C8.27168 4.00551 7.93518 4.00563 7.59868 4.00426C7.28137 4.00273 6.96408 4.00149 6.64677 4.00196L6.29849 4.00252L5.96708 4L5.66678 4.00152Z" fill="#E41B23"/>
<path d="M8.96653 7.72007C9.04307 7.71991 9.11961 7.71975 9.19847 7.71959C9.45103 7.71919 9.70357 7.71945 9.95612 7.71976C10.1346 7.7197 10.313 7.71961 10.4915 7.7195C10.8667 7.71936 11.2419 7.71956 11.617 7.71998C12.0892 7.72048 12.5613 7.72019 13.0334 7.71967C17.6536 7.7153 17.6536 7.7153 19.9058 7.85889C19.9986 7.86472 20.0913 7.87055 20.1869 7.87655C20.4487 7.91264 20.6562 7.98387 20.8961 8.09255C20.9074 8.35189 20.9074 8.35189 20.8961 8.63377C20.7157 8.81418 20.7157 8.81418 20.5151 8.83609C20.4328 8.83572 20.3505 8.83535 20.2658 8.83497C20.174 8.8348 20.0822 8.83462 19.9876 8.83444C19.8911 8.83334 19.7947 8.83223 19.6953 8.83109C19.5564 8.83101 19.5564 8.83101 19.4146 8.83092C18.9624 8.82838 18.5164 8.81333 18.0663 8.76952C17.2056 8.7015 16.3434 8.70716 15.4805 8.70325C15.1628 8.70175 14.845 8.69966 14.5273 8.69739C13.6248 8.69105 12.7222 8.68557 11.8197 8.68097C11.2656 8.6781 10.7116 8.67438 10.1575 8.67013C9.94693 8.66868 9.73633 8.66757 9.52572 8.6668C9.23213 8.6657 8.93858 8.66352 8.645 8.6611C8.55821 8.66105 8.47142 8.661 8.38201 8.66094C7.61776 8.65258 7.61776 8.65258 7.27538 8.45337C7.20209 8.26168 7.20209 8.26168 7.18518 8.09255C7.67019 7.64635 8.34512 7.71847 8.96653 7.72007Z" fill="#E41B23"/>
<path d="M14.1289 10.3367C14.3187 10.337 14.5085 10.3372 14.6983 10.3373C16.2513 10.3387 17.804 10.3474 19.3566 10.3877C19.4639 10.3904 19.4639 10.3904 19.5734 10.3931C19.7688 10.3981 19.9642 10.4038 20.1596 10.4099C20.3192 10.4149 20.3192 10.4149 20.482 10.42C20.7152 10.4385 20.7152 10.4385 20.8055 10.5287C20.8224 10.7937 20.8224 10.7937 20.8055 11.0699C20.5215 11.3538 20.2376 11.3519 19.8488 11.3525C19.7673 11.3526 19.6859 11.3527 19.602 11.3528C19.5173 11.3525 19.4326 11.3521 19.3453 11.3518C19.2651 11.3521 19.1849 11.3525 19.1023 11.3528C18.6058 11.3521 18.1147 11.3303 17.6194 11.2954C16.5312 11.2235 15.4403 11.2367 14.3502 11.2385C14.0416 11.2391 13.7331 11.2388 13.4246 11.2382C12.07 11.2363 10.7207 11.2566 9.36817 11.3309C7.99556 11.3975 7.99556 11.3975 7.36511 11.1601C7.39488 11.041 7.42465 10.922 7.45532 10.7993C9.57191 10.1606 11.9431 10.3323 14.1289 10.3367Z" fill="#E41B23"/>
<path d="M11.454 12.6691C11.6433 12.6689 11.8326 12.6688 12.0218 12.6685C12.415 12.6683 12.8081 12.6687 13.2012 12.6695C13.7054 12.6705 14.2096 12.6699 14.7139 12.6689C15.1031 12.6682 15.4923 12.6684 15.8815 12.6689C16.0676 12.669 16.2537 12.6689 16.4398 12.6684C16.6984 12.668 16.9569 12.6687 17.2155 12.6697C17.2923 12.6693 17.369 12.6689 17.4481 12.6686C17.8015 12.6711 17.9784 12.6729 18.2792 12.8734C18.2002 13.4936 18.2002 13.4936 18.0987 13.5951C17.9629 13.6026 17.8267 13.6038 17.6907 13.6025C17.6025 13.6018 17.5143 13.6012 17.4235 13.6006C17.326 13.5994 17.2284 13.5982 17.128 13.597C17.0259 13.5962 16.9238 13.5953 16.8187 13.5944C16.4794 13.5914 16.1402 13.5878 15.801 13.5841C15.5666 13.5819 15.3321 13.5798 15.0976 13.5777C14.5424 13.5726 13.9872 13.5671 13.4319 13.5614C12.8 13.5549 12.168 13.549 11.5361 13.5431C10.2357 13.5309 8.93543 13.5181 7.63513 13.5049C7.60536 13.3858 7.57559 13.2667 7.54492 13.144C7.85584 12.856 8.1617 12.8085 8.56909 12.7678C8.636 12.7606 8.70291 12.7534 8.77185 12.746C9.664 12.6595 10.5586 12.667 11.454 12.6691Z" fill="#E41B23"/>
<path d="M12.9969 14.7529C13.1582 14.7523 13.3196 14.7513 13.4809 14.75C13.7068 14.7484 13.9327 14.7481 14.1587 14.748C14.2264 14.7474 14.2941 14.7468 14.3638 14.7461C14.8307 14.7482 14.8307 14.7482 15.0318 14.9492C15.0544 15.2199 15.0544 15.2199 15.0318 15.4905C14.8514 15.6709 14.8514 15.6709 14.6777 15.6932C14.6068 15.693 14.5359 15.6929 14.4629 15.6928C14.3423 15.6932 14.3423 15.6932 14.2192 15.6936C14.1319 15.693 14.0446 15.6923 13.9547 15.6917C13.8647 15.6916 13.7748 15.6916 13.6822 15.6915C13.4913 15.6913 13.3005 15.6905 13.1096 15.6894C12.8196 15.6878 12.5296 15.6876 12.2396 15.6876C12.0539 15.6872 11.8683 15.6866 11.6827 15.686C11.5967 15.6859 11.5106 15.6858 11.422 15.6857C10.9646 15.6825 10.5189 15.6579 10.0649 15.6016C9.85504 15.5764 9.64653 15.5652 9.43532 15.5585C9.35899 15.5555 9.28265 15.5525 9.204 15.5495C9.0478 15.5439 8.89159 15.5388 8.73536 15.534C8.30667 15.5166 7.94814 15.4731 7.54492 15.3101C7.54492 15.191 7.54492 15.0719 7.54492 14.9492C7.9069 14.8651 8.25233 14.8416 8.62349 14.8305C8.6852 14.8286 8.74692 14.8267 8.8105 14.8248C9.01442 14.8188 9.21834 14.8135 9.42228 14.8083C9.49229 14.8064 9.56229 14.8046 9.63442 14.8027C10.7551 14.7736 11.8759 14.7573 12.9969 14.7529Z" fill="#E41B23"/>
</svg>
