<svg width="21" height="25" viewBox="0 0 21 25" fill="none" xmlns="http://www.w3.org/2000/svg">
<path d="M4.175 15.65C4.075 15.7667 4.01667 15.8583 4 15.925C3.7 16.5083 3.33333 17.8 2.9 19.8C2.88333 19.85 2.86667 19.9 2.85 19.95C3.91667 20.0333 4.61667 20.5417 4.95 21.475C5.08333 21.425 5.21667 21.375 5.35 21.325C7.03333 20.6583 8.275 20.0833 9.075 19.6C8.15833 17.2333 6.525 15.9167 4.175 15.65ZM4.85 14.75C7.18333 15.1833 8.85 16.575 9.85 18.925C10.55 18.075 11.8417 16.2667 13.725 13.5C14.3417 12.5833 15.0333 11.5667 15.8 10.45C15.9167 10.2833 16.2083 9.84167 16.675 9.125C17.1583 8.40833 17.4833 7.91667 17.65 7.65C17.15 5.83333 15.7583 4.775 13.475 4.475C13.3583 4.625 13.225 4.79167 13.075 4.975C12.8917 5.20833 12.3833 5.81667 11.55 6.8C11.5667 6.78333 11.4 6.975 11.05 7.375C10.7 7.775 10.3083 8.225 9.875 8.725C9.45833 9.225 9.15833 9.59167 8.975 9.825C8.79167 10.0417 8.60833 10.25 8.425 10.45C6.79167 12.3667 5.6 13.8 4.85 14.75ZM14.275 3.625C16.275 4.025 17.625 5.025 18.325 6.625C18.825 5.675 18.975 4.83333 18.775 4.1C18.575 3.35 18.075 2.83333 17.275 2.55C16.775 2.36667 16.2917 2.35833 15.825 2.525C15.3583 2.69167 14.8417 3.05833 14.275 3.625ZM7.25 9.45C7.41667 9.25 7.59167 9.03333 7.775 8.8C7.84167 8.71667 7.925 8.61667 8.025 8.5C8.14167 8.38333 8.25 8.25833 8.35 8.125C8.46667 7.99167 8.59167 7.85 8.725 7.7C8.85833 7.53333 8.98333 7.375 9.1 7.225C9.23333 7.075 9.35833 6.93333 9.475 6.8C9.60833 6.65 9.725 6.51667 9.825 6.4C9.94167 6.26667 10.0333 6.15833 10.1 6.075C10.1833 5.975 10.2417 5.9 10.275 5.85C10.325 5.8 10.35 5.775 10.35 5.775C11.1833 4.825 11.6833 4.23333 11.85 4C12.9667 2.6 13.975 1.66667 14.875 1.2C15.775 0.733333 16.7583 0.691666 17.825 1.075C18.725 1.39167 19.4 1.925 19.85 2.675C20.3167 3.40833 20.4917 4.26667 20.375 5.25C20.275 6.21667 19.8917 7.18333 19.225 8.15C19.1917 8.18333 19.0333 8.40833 18.75 8.825C18.4833 9.24167 18.1667 9.71667 17.8 10.25C17.45 10.7833 17.2167 11.1333 17.1 11.3C16.3333 12.4333 15.6417 13.4583 15.025 14.375C12.5417 18.0083 11.0333 20.05 10.5 20.5C9.86667 21.0667 8.34167 21.825 5.925 22.775C4.54167 23.3083 3.5 23.6583 2.8 23.825C2.11667 24.0083 1.64167 24.0083 1.375 23.825C1.14167 23.675 0.991667 23.4167 0.925 23.05C0.858333 22.6833 0.858333 22.2333 0.925 21.7C1.00833 21.1667 1.15833 20.425 1.375 19.475C1.825 17.3417 2.23333 15.925 2.6 15.225C2.85 14.725 4.4 12.8 7.25 9.45Z" fill="#E41B23"/>
</svg>
