<svg width="26" height="23" viewBox="0 0 26 23" fill="none" xmlns="http://www.w3.org/2000/svg">
<path d="M21.1 8.625L21.8 9.05C21.1 10.1667 20.4583 11.175 19.875 12.075C19.2917 12.9583 18.6667 13.85 18 14.75C17.35 15.65 16.7583 16.35 16.225 16.85C15.6917 17.35 15.2583 17.5917 14.925 17.575C14.5583 17.575 14.025 17.3 13.325 16.75C12.625 16.2 11.7917 15.4917 10.825 14.625C9.875 13.7583 9.10833 13.125 8.525 12.725L7.7 12.15L8.45 11.475C12.2167 8.04167 14.55 5.68333 15.45 4.4L16.125 4.85L16.775 5.325C16.2583 6.04167 15.5 6.91667 14.5 7.95C13.5 8.96667 12.0833 10.3167 10.25 12C10.7333 12.35 11.55 13.0167 12.7 14C13.8667 14.9833 14.5917 15.5833 14.875 15.8C15.4417 15.2 16.275 14.15 17.375 12.65C18.4917 11.15 19.5 9.66667 20.4 8.2L21.1 8.625ZM9.6 12.95L10.2 13.475C7.83333 16.225 5.06667 19.375 1.9 22.925L1.3 22.375L0.7 21.85C3.86667 18.3 6.625 15.1583 8.975 12.425L9.6 12.95ZM9.875 15.75L10.275 16.05C9.10833 17.6 8.25 19.3333 7.7 21.25C8.75 20.8333 9.625 20.3333 10.325 19.75C11.025 19.1667 11.6333 18.4583 12.15 17.625L12.575 17.875L13 18.15C11.7333 20.2333 9.775 21.6917 7.125 22.525L6.3 22.775L6.475 21.925C7.00833 19.5417 8.00833 17.3833 9.475 15.45L9.875 15.75ZM14.2 1.825C16.5667 1.30833 19.9083 0.758333 24.225 0.174999L25.025 0.0749987L25.125 0.874999C25.3083 2.09167 25.35 3.61667 25.25 5.45C25.15 7.26667 24.8917 8.98333 24.475 10.6L24.15 11.825L23.175 11C18.3583 6.95 15.2583 4.36667 13.875 3.25L12.55 2.175L14.2 1.825ZM16.2 3.05C17.7 4.3 20.0333 6.25833 23.2 8.925C23.65 6.59167 23.7833 4.25 23.6 1.9C20.5667 2.3 18.1 2.68333 16.2 3.05Z" fill="#E41B23"/>
</svg>
