<svg width="26" height="25" viewBox="0 0 26 25" fill="none" xmlns="http://www.w3.org/2000/svg">
<path d="M2.4 15.5C3.21667 15.2333 4.025 15.3167 4.825 15.75C4.90833 15.2 5.125 14.7333 5.475 14.35C5.84167 13.9667 6.29167 13.725 6.825 13.625C7.60833 13.4583 8.325 13.625 8.975 14.125C9.625 14.6083 10.05 15.325 10.25 16.275C10.55 17.7583 10.5167 19.2333 10.15 20.7C9.78333 22.1667 9.15 23.45 8.25 24.55C8.08333 24.7333 7.88333 24.8 7.65 24.75C6.41667 24.45 5.08333 23.75 3.65 22.65C2.21667 21.5667 1.34167 20.5417 1.025 19.575C0.691667 18.5583 0.65 17.6917 0.9 16.975C1.16667 16.2417 1.66667 15.75 2.4 15.5ZM2.125 19.2C2.375 19.9167 3.08333 20.725 4.25 21.625C5.41667 22.5417 6.525 23.1667 7.575 23.5C8.29167 22.55 8.78333 21.4583 9.05 20.225C9.33333 18.9917 9.35 17.7583 9.1 16.525C8.96667 15.875 8.70833 15.4 8.325 15.1C7.94167 14.7833 7.51667 14.675 7.05 14.775C6.61667 14.8583 6.3 15.1083 6.1 15.525C5.91667 15.925 5.91667 16.4167 6.1 17C6.2 17.3333 6.09167 17.575 5.775 17.725C5.45833 17.8583 5.20833 17.775 5.025 17.475C4.79167 17.1083 4.45833 16.8417 4.025 16.675C3.59167 16.5083 3.175 16.4833 2.775 16.6C2.35833 16.75 2.09167 17.0417 1.975 17.475C1.85833 17.8917 1.90833 18.4667 2.125 19.2ZM13.95 0.449998C14.7333 0.566666 15.45 0.874999 16.1 1.375C16.75 1.875 17.2583 2.5 17.625 3.25C18.3083 2.46667 19.0917 1.93333 19.975 1.65C20.875 1.36667 21.7583 1.375 22.625 1.675C23.8083 2.09167 24.65 2.93333 25.15 4.2C25.65 5.45 25.725 6.95833 25.375 8.725C24.975 10.725 24.1333 12.4833 22.85 14C21.5833 15.5167 19.4833 17.25 16.55 19.2C16.3833 19.3 16.2083 19.3417 16.025 19.325C15.8417 19.3083 15.6833 19.2333 15.55 19.1C13.05 16.6167 11.225 14.3667 10.075 12.35C8.925 10.3167 8.41667 8.325 8.55 6.375C8.7 4.34167 9.275 2.79167 10.275 1.725C11.275 0.641666 12.5 0.216665 13.95 0.449998ZM22.125 3.15C21.425 2.9 20.7083 2.95833 19.975 3.325C19.2417 3.69167 18.65 4.3 18.2 5.15C18.25 5.63333 18.25 6.11667 18.2 6.6C18.1833 6.81667 18.0917 6.99167 17.925 7.125C17.7583 7.25833 17.5667 7.31667 17.35 7.3C17.1333 7.26667 16.9583 7.16667 16.825 7C16.6917 6.83333 16.6333 6.64167 16.65 6.425C16.7667 5.30833 16.5333 4.325 15.95 3.475C15.3833 2.625 14.6333 2.125 13.7 1.975C12.75 1.825 11.9417 2.14167 11.275 2.925C10.6083 3.70833 10.2167 4.89167 10.1 6.475C10 8.09167 10.45 9.79167 11.45 11.575C12.45 13.3583 14.0333 15.35 16.2 17.55C18.7667 15.8167 20.5917 14.2917 21.675 12.975C22.775 11.6583 23.5 10.1417 23.85 8.425C24.1167 7.025 24.0833 5.86667 23.75 4.95C23.4333 4.01667 22.8917 3.41667 22.125 3.15ZM3.65 4.925C4.06667 5.09167 4.4 5.39167 4.65 5.825C5.2 5.425 5.79167 5.39167 6.425 5.725C6.90833 5.95833 7.225 6.33333 7.375 6.85C7.54167 7.36667 7.5 7.91667 7.25 8.5C6.96667 9.1 6.58333 9.575 6.1 9.925C5.61667 10.275 4.975 10.5583 4.175 10.775C4.00833 10.825 3.725 10.9 3.325 11C3.24167 11.0167 3.16667 11.0333 3.1 11.05C2.9 11.0833 2.74167 11.025 2.625 10.875C2.09167 10.225 1.69167 9.46667 1.425 8.6C1.175 7.73333 1.14167 7.00833 1.325 6.425C1.54167 5.775 1.85833 5.31667 2.275 5.05C2.69167 4.78333 3.15 4.74167 3.65 4.925ZM2.25 6.725C2.13333 7.10833 2.16667 7.625 2.35 8.275C2.55 8.90833 2.83333 9.49167 3.2 10.025C3.53333 9.94167 3.775 9.875 3.925 9.825C4.575 9.65833 5.09167 9.44167 5.475 9.175C5.85833 8.90833 6.15 8.55 6.35 8.1C6.5 7.75 6.53333 7.44167 6.45 7.175C6.38333 6.90833 6.225 6.70833 5.975 6.575C5.75833 6.45833 5.54167 6.45 5.325 6.55C5.125 6.65 4.96667 6.85 4.85 7.15C4.76667 7.43333 4.575 7.54167 4.275 7.475C3.99167 7.39167 3.875 7.2 3.925 6.9C3.95833 6.7 3.90833 6.5 3.775 6.3C3.65833 6.08333 3.5 5.93333 3.3 5.85C2.85 5.68333 2.5 5.975 2.25 6.725Z" fill="#E41B23"/>
</svg>
