<svg width="25" height="25" viewBox="0 0 25 25" fill="none" xmlns="http://www.w3.org/2000/svg">
<path d="M7.725 5.65C8.225 5.65 8.68333 5.48333 9.1 5.15C9.53333 4.8 9.75 4.45 9.75 4.1C9.75 2.73333 9.075 2.05 7.725 2.05C7.05833 2.05 6.625 2.20833 6.425 2.525C6.24167 2.825 6.15 3.35 6.15 4.1C6.15 4.53333 6.3 4.9 6.6 5.2C6.91667 5.5 7.29167 5.65 7.725 5.65ZM7.725 7.55C6.775 7.55 5.95833 7.21667 5.275 6.55C4.60833 5.86667 4.275 5.05 4.275 4.1C4.275 3.75 4.3 3.41667 4.35 3.1C4.4 2.78333 4.5 2.44167 4.65 2.075C4.8 1.70833 4.99167 1.39167 5.225 1.125C5.475 0.841666 5.80833 0.608333 6.225 0.424999C6.65833 0.241666 7.15833 0.149999 7.725 0.149999C8.40833 0.149999 9.00833 0.274999 9.525 0.524999C10.0417 0.774999 10.45 1.1 10.75 1.5C11.05 1.88333 11.2667 2.3 11.4 2.75C11.55 3.18333 11.625 3.63333 11.625 4.1C11.625 5.08333 11.2167 5.90833 10.4 6.575C9.58333 7.225 8.69167 7.55 7.725 7.55ZM12.3 18.225C12.3167 18.375 12.3417 18.5833 12.375 18.85C12.5917 20.2167 12.675 21.2917 12.625 22.075C12.575 22.8583 12.3167 23.4583 11.85 23.875C11.4333 24.2417 10.6 24.5 9.35 24.65C8.11667 24.8 6.875 24.8 5.625 24.65C4.39167 24.5 3.59167 24.225 3.225 23.825C2.85833 23.425 2.66667 22.6917 2.65 21.625C2.63333 20.575 2.7 19.5167 2.85 18.45C2.86667 18.3 2.875 18.1833 2.875 18.1L1.625 18L0.7 17.925L0.75 17.025C0.8 15.675 0.925 14.375 1.125 13.125C1.34167 11.8583 2.08333 10.725 3.35 9.725C4.63333 8.725 6.125 8.225 7.825 8.225C8.70833 8.225 9.54167 8.39167 10.325 8.725C11.125 9.05833 11.8 9.49167 12.35 10.025C12.9 10.5417 13.3417 11.1167 13.675 11.75C14.025 12.3667 14.2417 12.9917 14.325 13.625C14.5083 15.025 14.5083 16.2917 14.325 17.425L14.2 18.225H13.4H12.3ZM10.275 17.4L10.125 16.325H11.225H12.55C12.5667 16.1583 12.5667 15.8 12.55 15.25C12.5333 14.7 12.5 14.2333 12.45 13.85C12.35 13 11.8583 12.1667 10.975 11.35C10.0917 10.5333 9.04167 10.125 7.825 10.125C6.575 10.125 5.48333 10.4917 4.55 11.225C3.63333 11.9417 3.11667 12.675 3 13.425C2.85 14.3083 2.74167 15.2333 2.675 16.2L4 16.275L4.975 16.35L4.85 17.325C4.56667 19.9917 4.5 21.7167 4.65 22.5C5.25 22.6167 6.19167 22.6833 7.475 22.7C8.775 22.7167 9.8 22.6417 10.55 22.475C10.5833 22.3583 10.6 22.1 10.6 21.7C10.6167 21.3167 10.6 20.725 10.55 19.925C10.5 19.125 10.4083 18.2833 10.275 17.4ZM19.85 13.825C20.2167 13.825 20.55 13.6917 20.85 13.425C21.15 13.1583 21.3 12.875 21.3 12.575C21.3 12.2083 21.1583 11.8833 20.875 11.6C20.6083 11.3 20.2667 11.15 19.85 11.15C19.45 11.15 19.1333 11.2833 18.9 11.55C18.6833 11.8 18.575 12.1417 18.575 12.575C18.575 12.925 18.7 13.225 18.95 13.475C19.2 13.7083 19.5 13.825 19.85 13.825ZM19.85 15.725C18.9667 15.725 18.2167 15.4167 17.6 14.8C17 14.1833 16.7 13.4417 16.7 12.575C16.7 11.7083 16.975 10.9417 17.525 10.275C18.0917 9.60833 18.8667 9.275 19.85 9.275C20.8 9.275 21.5917 9.60833 22.225 10.275C22.875 10.925 23.2 11.6917 23.2 12.575C23.2 13.475 22.85 14.225 22.15 14.825C21.4667 15.425 20.7 15.725 19.85 15.725ZM22.35 20.475C22.35 20.125 22.1167 19.7167 21.65 19.25C21.2 18.7833 20.575 18.5083 19.775 18.425C19.0917 18.3583 18.5083 18.5833 18.025 19.1C17.5583 19.6 17.325 20.0583 17.325 20.475V22.2C17.9417 22.35 18.8417 22.4333 20.025 22.45C21.2083 22.4833 22 22.45 22.4 22.35C22.4333 22.0167 22.4333 21.6417 22.4 21.225C22.3667 20.8083 22.35 20.5583 22.35 20.475ZM24.25 20.475C24.25 20.5083 24.25 20.6083 24.25 20.775C24.2667 20.9417 24.2833 21.1167 24.3 21.3C24.3167 21.4833 24.3167 21.725 24.3 22.025C24.3 22.3417 24.275 22.6417 24.225 22.925C24.1417 23.5083 23.6333 23.9417 22.7 24.225C21.7833 24.5083 20.7833 24.625 19.7 24.575C18.6333 24.5417 17.65 24.3583 16.75 24.025C15.8667 23.7083 15.425 23.3 15.425 22.8V20.475C15.425 20.075 15.525 19.6417 15.725 19.175C15.9417 18.6917 16.2333 18.2417 16.6 17.825C16.9667 17.3917 17.4417 17.0583 18.025 16.825C18.625 16.575 19.275 16.4833 19.975 16.55C21.225 16.6833 22.25 17.15 23.05 17.95C23.85 18.7333 24.25 19.575 24.25 20.475Z" fill="#E41B23"/>
</svg>
