<svg width="25" height="27" viewBox="0 0 25 27" fill="none" xmlns="http://www.w3.org/2000/svg">
<path d="M15.6 20.25C16.6333 20.0833 17.6333 19.675 18.6 19.025C19.5667 18.3583 20.3917 17.5583 21.075 16.625C21.775 15.675 22.2833 14.5833 22.6 13.35C22.9333 12.1 22.9917 10.8667 22.775 9.65C22.5417 8.35 22.0167 7.125 21.2 5.975C20.4 4.825 19.2667 3.95833 17.8 3.375C16.3333 2.775 14.7417 2.55833 13.025 2.725C11.325 2.89167 9.79167 3.46667 8.425 4.45C7.45833 5.13333 6.64167 5.98333 5.975 7C5.44167 7.81667 5.11667 8.79167 5 9.925C4.88333 11.0583 4.95833 12.1917 5.225 13.325C5.50833 14.4417 6.00833 15.5333 6.725 16.6C7.44167 17.6667 8.30833 18.5167 9.325 19.15C11.1417 20.2833 13.2333 20.65 15.6 20.25ZM15.875 21.8C13.1083 22.25 10.65 21.8083 8.5 20.475C7.3 19.725 6.28333 18.7417 5.45 17.525C4.61667 16.2917 4.03333 15.0167 3.7 13.7C3.38333 12.3833 3.3 11.05 3.45 9.7C3.6 8.35 4 7.16667 4.65 6.15C5.43333 4.96667 6.38333 3.975 7.5 3.175C9.1 2.04167 10.8833 1.375 12.85 1.175C14.8333 0.958332 16.6833 1.20833 18.4 1.925C20.1333 2.625 21.4917 3.675 22.475 5.075C23.425 6.425 24.0333 7.85 24.3 9.35C24.5667 10.8 24.5167 12.25 24.15 13.7C23.7833 15.15 23.1917 16.425 22.375 17.525C21.5583 18.625 20.575 19.5583 19.425 20.325C18.2917 21.0917 17.1083 21.5833 15.875 21.8ZM19.25 14.85C19.4833 14.1333 19.6333 13.4167 19.7 12.7C19.7833 11.9833 19.75 11.25 19.6 10.5C19.45 9.75 19.175 9.08333 18.775 8.5C18.3917 7.91667 17.8083 7.41667 17.025 7C16.2417 6.56667 15.2917 6.29167 14.175 6.175C13.0583 6.05833 11.9917 6.31667 10.975 6.95C9.975 7.56667 9.23333 8.5 8.75 9.75C8.26667 10.9833 8.28333 12.5083 8.8 14.325C9 14.9917 9.375 15.6 9.925 16.15C10.475 16.6833 11.1083 17.0833 11.825 17.35C12.5417 17.6167 13.3083 17.7833 14.125 17.85C14.9417 17.9167 15.7083 17.825 16.425 17.575C17.875 17.1083 18.8167 16.2 19.25 14.85ZM20.375 15.225C20.0917 16.0917 19.6333 16.8167 19 17.4C18.3667 17.9833 17.6333 18.4083 16.8 18.675C16.1333 18.8917 15.4167 19.0167 14.65 19.05C13.9 19.0667 13.1583 18.9833 12.425 18.8C11.7083 18.6 11.025 18.325 10.375 17.975C9.74167 17.6083 9.18333 17.1417 8.7 16.575C8.21667 15.9917 7.875 15.35 7.675 14.65C7.10833 12.5833 7.1 10.8167 7.65 9.35C8.21667 7.86667 9.11667 6.73333 10.35 5.95C11.6 5.16667 12.9167 4.85 14.3 5C15.4 5.11667 16.3667 5.36667 17.2 5.75C18.0333 6.13333 18.6917 6.60833 19.175 7.175C19.6583 7.725 20.0417 8.33333 20.325 9C20.625 9.66667 20.8 10.3667 20.85 11.1C20.9 11.8333 20.8833 12.5417 20.8 13.225C20.7167 13.9083 20.575 14.575 20.375 15.225ZM15.525 12.675C15.775 12.525 15.9583 12.3167 16.075 12.05C16.1917 11.7667 16.2417 11.5083 16.225 11.275C16.2083 11.0417 16.2 10.8333 16.2 10.65C16.2 10.4667 16.2417 10.375 16.325 10.375C17.175 10.3917 17.7583 10.6 18.075 11C18.4083 11.4 18.575 12.0167 18.575 12.85C18.575 13.6667 18.3167 14.375 17.8 14.975C17.3 15.5583 16.65 15.85 15.85 15.85C15.1 15.85 14.4083 15.4917 13.775 14.775C13.1417 14.0583 12.9417 13.4417 13.175 12.925C13.2917 12.825 13.4167 12.8167 13.55 12.9C13.6833 12.9667 13.9417 13 14.325 13C14.725 13 15.125 12.8917 15.525 12.675ZM8.4 20.4L7.725 20C7.70833 20.0167 7.09167 20.5833 5.875 21.7C4.675 22.8167 3.99167 23.4417 3.825 23.575C3.49167 23.8583 3.25 24.0083 3.1 24.025C2.96667 24.0583 2.75 23.9833 2.45 23.8C2.08333 23.55 1.85833 23.275 1.775 22.975C1.70833 22.675 1.775 22.4417 1.975 22.275C2.00833 22.2417 2.35 21.8833 3 21.2C3.65 20.5333 4.26667 19.9 4.85 19.3C5.45 18.6833 5.75833 18.375 5.775 18.375L5.475 17.65L5.15 16.925C4.91667 17.0417 4.55833 17.325 4.075 17.775C3.60833 18.2083 3.15833 18.6583 2.725 19.125C2.30833 19.575 1.89167 20.025 1.475 20.475C1.075 20.925 0.866667 21.1583 0.85 21.175C0.45 21.5917 0.233333 22.0583 0.2 22.575C0.183333 23.1083 0.3 23.5833 0.55 24C0.8 24.4333 1.13333 24.8 1.55 25.1C2.6 25.8333 3.69167 25.725 4.825 24.775C5.40833 24.2917 6.20833 23.5833 7.225 22.65C8.25833 21.7333 8.86667 21.125 9.05 20.825L8.4 20.4Z" fill="#E41B23"/>
</svg>
