<svg width="21" height="23" viewBox="0 0 21 23" fill="none" xmlns="http://www.w3.org/2000/svg">
<path d="M6.625 20.7C6.125 20.9833 5.64167 21.2417 5.175 21.475C4.95833 21.575 4.75 21.675 4.55 21.775C3.93333 22.0583 3.44167 22.2667 3.075 22.4C2.70833 22.5333 2.35 22.6167 2 22.65C1.66667 22.6833 1.41667 22.625 1.25 22.475C0.916667 22.275 0.733334 21.9417 0.7 21.475C0.683333 21.0083 0.791667 20.4167 1.025 19.7C1.275 19 1.675 18.0583 2.225 16.875C0.791667 15.2917 0.0750002 13.025 0.0750002 10.075C0.0750002 7.19167 0.991667 4.84167 2.825 3.025C4.675 1.20833 7.06667 0.299999 10 0.299999C13.5333 0.299999 16.1917 1.23333 17.975 3.1C19.775 4.95 20.5667 7.76667 20.35 11.55C20.25 13.5333 19.7583 15.2583 18.875 16.725C17.9917 18.175 16.7917 19.2917 15.275 20.075C14.0083 20.725 12.6333 21.0917 11.15 21.175C9.66667 21.2583 8.25833 21.05 6.925 20.55C6.84167 20.6 6.74167 20.65 6.625 20.7ZM2.4 20.975C2.78333 20.8417 3.28333 20.6333 3.9 20.35C4.08333 20.2667 4.275 20.175 4.475 20.075C4.925 19.8417 5.39167 19.5917 5.875 19.325C6.04167 19.2417 6.19167 19.1667 6.325 19.1C6.39167 19.05 6.44167 19.0167 6.475 19C6.70833 18.8667 6.94167 18.85 7.175 18.95C8.34167 19.45 9.58333 19.675 10.9 19.625C12.2167 19.575 13.4333 19.2583 14.55 18.675C15.8167 18.025 16.8167 17.0917 17.55 15.875C18.2833 14.6417 18.7 13.1667 18.8 11.45C18.9833 8.13333 18.3333 5.70833 16.85 4.175C15.3833 2.64167 13.1 1.875 10 1.875C7.5 1.875 5.48333 2.63333 3.95 4.15C2.41667 5.65 1.65 7.625 1.65 10.075C1.65 11.475 1.80833 12.6667 2.125 13.65C2.45833 14.6333 2.98333 15.4667 3.7 16.15C3.96667 16.4167 4.01667 16.7167 3.85 17.05C3.15 18.5667 2.68333 19.7333 2.45 20.55C2.4 20.7167 2.35833 20.8667 2.325 21C2.35833 20.9833 2.38333 20.975 2.4 20.975ZM13.225 7.7C13.0417 7.88333 12.8083 7.975 12.525 7.975C12.2583 7.975 12.025 7.88333 11.825 7.7C11.6417 7.5 11.55 7.26667 11.55 7C11.55 6.73333 11.6417 6.50833 11.825 6.325C12.025 6.125 12.2583 6.025 12.525 6.025C12.8083 6.025 13.0417 6.125 13.225 6.325C13.425 6.50833 13.525 6.73333 13.525 7C13.525 7.26667 13.425 7.5 13.225 7.7ZM8.925 7.7C8.74167 7.88333 8.51667 7.975 8.25 7.975C7.98333 7.975 7.75 7.88333 7.55 7.7C7.36667 7.5 7.275 7.26667 7.275 7C7.275 6.73333 7.36667 6.50833 7.55 6.325C7.75 6.125 7.98333 6.025 8.25 6.025C8.51667 6.025 8.74167 6.125 8.925 6.325C9.125 6.50833 9.225 6.73333 9.225 7C9.225 7.26667 9.125 7.5 8.925 7.7ZM4.725 10.725C4.725 10.5583 4.78333 10.4167 4.9 10.3C5.01667 10.1833 5.15 10.125 5.3 10.125C5.46667 10.125 5.60833 10.1833 5.725 10.3C5.84167 10.4167 5.9 10.5583 5.9 10.725C5.9 11.975 6.25833 12.975 6.975 13.725C7.70833 14.4583 8.71667 14.825 10 14.825C11.35 14.825 12.4667 14.4333 13.35 13.65C14.2333 12.8667 14.675 11.8917 14.675 10.725C14.675 10.5583 14.7333 10.4167 14.85 10.3C14.9667 10.1833 15.1 10.125 15.25 10.125C15.4167 10.125 15.5583 10.1833 15.675 10.3C15.7917 10.4167 15.85 10.5583 15.85 10.725C15.85 12.225 15.2917 13.4833 14.175 14.5C13.075 15.5 11.6833 16 10 16C8.38333 16 7.1 15.5167 6.15 14.55C5.2 13.5667 4.725 12.2917 4.725 10.725Z" fill="#E41B23"/>
</svg>
