<svg width="28" height="26" viewBox="0 0 28 26" fill="none" xmlns="http://www.w3.org/2000/svg">
<path d="M4.9 2.725L5.175 2.225C7.35833 3.425 9.375 4.88333 11.225 6.6C13.075 8.3 14.6333 10.0917 15.9 11.975C17.1667 13.8417 18.2083 15.7333 19.025 17.65C19.8583 19.5667 20.45 21.4417 20.8 23.275L20.2 23.375L19.625 23.475C19.3083 21.7417 18.75 19.9583 17.95 18.125C17.1667 16.275 16.1583 14.45 14.925 12.65C13.7083 10.8333 12.2083 9.1 10.425 7.45C8.64167 5.8 6.70833 4.4 4.625 3.25L4.9 2.725ZM19.325 20.8L19.375 21.575C15.5083 21.8583 12.5833 20.6583 10.6 17.975L10.25 17.5L10.6 17.025L11.6 15.675C11.55 15.6583 11.3917 15.6667 11.125 15.7C10.8583 15.7167 10.5333 15.6583 10.15 15.525C9.78333 15.375 9.55 15.15 9.45 14.85C9 13.3833 8.46667 11.9167 7.85 10.45C7.23333 8.98333 6.46667 7.475 5.55 5.925C4.63333 4.35833 3.71667 3.18333 2.8 2.4L0.775 0.674999L3.4 1.05C9.15 1.83333 13.0583 2.975 15.125 4.475L15.375 4.675L15.425 4.975L15.8 6.925C16.3333 6.64167 16.8583 6.36667 17.375 6.1L17.725 5.925L18.1 6.125C20.9167 7.60833 22.7583 9.39167 23.625 11.475L23.85 12.05L23.35 12.4L21.875 13.45L23.75 13.925L24.5 14.125L24.325 14.875C23.6083 17.7083 21.9917 19.4417 19.475 20.075L19.325 19.3L19.175 18.525C20.0083 18.3583 20.7 18.0167 21.25 17.5C21.8 16.9667 22.2417 16.2167 22.575 15.25L19.825 14.525L18.2 14.1L19.575 13.125L21.9 11.5C21.5 10.8 20.9833 10.15 20.35 9.55C19.7167 8.95 18.8417 8.33333 17.725 7.7C17.1583 7.98333 16.45 8.35 15.6 8.8L14.65 9.275L14.475 8.25L13.95 5.575C12.25 4.49167 9.40833 3.60833 5.425 2.925C6.50833 4.325 7.51667 6.025 8.45 8.025C9.38333 10.025 10.1833 12.0333 10.85 14.05C11.3833 14.1167 12.15 14.1333 13.15 14.1L14.775 14.05L13.8 15.35L12.2 17.475C13.0167 18.4083 13.9667 19.0917 15.05 19.525C16.15 19.9417 17.5583 20.1 19.275 20L19.325 20.8ZM20.525 25.125L20.7 24.675C21.0333 24.8083 21.4 24.8 21.8 24.65C22.2167 24.5167 22.7333 24.1917 23.35 23.675C23.9333 23.2083 24.55 22.9667 25.2 22.95C25.85 22.95 26.375 23.125 26.775 23.475C27.1917 23.8417 27.4 24.2833 27.4 24.8H26.9H26.425C26.425 24.7 26.3833 24.5833 26.3 24.45C26.2333 24.3333 26.1167 24.225 25.95 24.125C25.8 24.0417 25.625 23.975 25.425 23.925C25.2417 23.8917 25.0167 23.9167 24.75 24C24.5 24.0833 24.2417 24.2333 23.975 24.45C23.2583 25.0167 22.625 25.3917 22.075 25.575C21.5417 25.775 20.9667 25.775 20.35 25.575L20.525 25.125Z" fill="#E41B23"/>
</svg>
