<svg width="25" height="25" viewBox="0 0 25 25" fill="none" xmlns="http://www.w3.org/2000/svg">
<path d="M24.6 7.575C24.7167 8.075 24.4667 8.575 23.85 9.075C23.2333 9.55833 22.1333 10.1667 20.55 10.9C20.8833 12.6 21.0083 13.925 20.925 14.875C20.8583 15.825 20.5583 16.4417 20.025 16.725C19.8083 16.8417 19.5833 16.85 19.35 16.75C18.4833 16.3833 17.175 15.425 15.425 13.875C14.4583 14.4417 13.6417 14.8667 12.975 15.15C12.3083 15.4167 11.7167 15.5667 11.2 15.6C10.7 15.6167 10.3167 15.4667 10.05 15.15L10 15.1C9.76667 14.8667 9.68333 14.4917 9.75 13.975C9.81667 13.4583 9.99167 12.8583 10.275 12.175C10.5583 11.4917 10.9917 10.6167 11.575 9.55C10.2417 8.3 9.34167 7.35 8.875 6.7C8.40833 6.05 8.28333 5.51667 8.5 5.1C8.7 4.61667 9.225 4.35 10.075 4.3C10.925 4.23333 12.2 4.33333 13.9 4.6C14.5667 3.18333 15.1667 2.13333 15.7 1.45C16.25 0.766665 16.7917 0.408332 17.325 0.374999C17.375 0.374999 17.4333 0.383333 17.5 0.399999C18.1 0.483332 18.5583 0.933332 18.875 1.75C19.2083 2.56667 19.4583 3.81667 19.625 5.5C21.325 5.78333 22.55 6.08333 23.3 6.4C24.0667 6.7 24.5 7.09167 24.6 7.575ZM22.3 7.7C21.5167 7.45 20.3417 7.2 18.775 6.95C18.5917 6.91667 18.4417 6.83333 18.325 6.7C18.2083 6.56667 18.1417 6.41667 18.125 6.25C17.9917 4.68333 17.8083 3.50833 17.575 2.725C17.475 2.40833 17.375 2.175 17.275 2.025C16.7583 2.44167 16.0333 3.69167 15.1 5.775C14.9333 6.14167 14.65 6.29167 14.25 6.225C12.6667 5.975 11.4667 5.85 10.65 5.85C10.4833 5.85 10.3333 5.85 10.2 5.85C10.2833 5.96667 10.375 6.09167 10.475 6.225C11.025 6.85833 11.8917 7.725 13.075 8.825C13.375 9.10833 13.425 9.425 13.225 9.775C12.4083 11.2417 11.85 12.3917 11.55 13.225C11.4333 13.5417 11.35 13.8 11.3 14C11.4833 13.9833 11.7083 13.9333 11.975 13.85C12.7417 13.5833 13.7833 13.0417 15.1 12.225C15.4333 12.025 15.75 12.0583 16.05 12.325C17.45 13.6083 18.55 14.5 19.35 15C19.3833 14.8167 19.4 14.6083 19.4 14.375C19.4 13.4917 19.2333 12.2333 18.9 10.6C18.85 10.4167 18.8667 10.25 18.95 10.1C19.0333 9.93333 19.1583 9.80833 19.325 9.725C20.7417 9.09167 21.7833 8.55833 22.45 8.125C22.5833 8.025 22.7 7.94167 22.8 7.875C22.6667 7.80833 22.5 7.75 22.3 7.7ZM11.225 16.875C11.375 17.225 11.2833 17.6 10.95 18C10.6167 18.3833 9.95 18.9333 8.95 19.65C9.51667 20.7167 9.85833 21.5333 9.975 22.1C10.1083 22.6667 10.0167 23.1083 9.7 23.425C9.55 23.5583 9.38333 23.6083 9.2 23.575C8.6 23.4583 7.65 23 6.35 22.2C5.6 23.0167 4.975 23.5583 4.475 23.825C3.99167 24.1083 3.575 24.125 3.225 23.875L3.175 23.85C2.925 23.65 2.775 23.2417 2.725 22.625C2.69167 22.025 2.75 21.1583 2.9 20.025C1.83333 19.4083 1.1 18.925 0.7 18.575C0.316667 18.2083 0.158333 17.8667 0.225 17.55C0.308333 17.1833 0.608333 16.925 1.125 16.775C1.64167 16.625 2.5 16.5167 3.7 16.45C4.05 15.4667 4.36667 14.7333 4.65 14.25C4.95 13.75 5.26667 13.45 5.6 13.35C5.65 13.35 5.69167 13.3417 5.725 13.325C6.14167 13.3083 6.50833 13.5333 6.825 14C7.15833 14.45 7.5 15.2 7.85 16.25C8.95 16.1833 9.75 16.2 10.25 16.3C10.7667 16.3833 11.0917 16.575 11.225 16.875ZM9.725 17.425C9.20833 17.375 8.45833 17.3833 7.475 17.45C7.15833 17.4667 6.95833 17.3333 6.875 17.05C6.575 16.0833 6.3 15.375 6.05 14.925C5.96667 14.7917 5.89167 14.6833 5.825 14.6C5.525 15 5.14167 15.8667 4.675 17.2C4.59167 17.45 4.41667 17.5833 4.15 17.6C3.1 17.65 2.31667 17.725 1.8 17.825C1.76667 17.825 1.73333 17.8333 1.7 17.85C1.73333 17.8667 1.76667 17.8917 1.8 17.925C2.23333 18.2583 2.90833 18.6833 3.825 19.2C4.05833 19.3333 4.15833 19.5333 4.125 19.8C3.975 20.8833 3.9 21.7167 3.9 22.3C3.9 22.5 3.90833 22.6667 3.925 22.8C4.00833 22.75 4.09167 22.6917 4.175 22.625C4.59167 22.325 5.14167 21.8 5.825 21.05C6.04167 20.8167 6.29167 20.7833 6.575 20.95C7.50833 21.55 8.25 21.9667 8.8 22.2C8.78333 22.15 8.76667 22.1 8.75 22.05C8.58333 21.5 8.225 20.7417 7.675 19.775C7.60833 19.6417 7.59167 19.5 7.625 19.35C7.65833 19.2 7.73333 19.0833 7.85 19C8.73333 18.3833 9.375 17.8917 9.775 17.525C9.80833 17.4917 9.83333 17.4583 9.85 17.425C9.81667 17.425 9.775 17.425 9.725 17.425ZM7.425 7.25C7.49167 7.48333 7.39167 7.70833 7.125 7.925C6.875 8.14167 6.40833 8.43333 5.725 8.8C6.025 10.0833 5.94167 10.8417 5.475 11.075C5.375 11.125 5.275 11.125 5.175 11.075C4.79167 10.925 4.23333 10.45 3.5 9.65C2.9 10.1 2.425 10.3833 2.075 10.5C1.74167 10.6167 1.45 10.575 1.2 10.375C1.06667 10.1583 1.04167 9.88333 1.125 9.55C1.225 9.21667 1.45 8.725 1.8 8.075C1.23333 7.55833 0.858333 7.16667 0.675 6.9C0.491667 6.63333 0.441667 6.4 0.525 6.2C0.625 6 0.85 5.88333 1.2 5.85C1.56667 5.81667 2.11667 5.85833 2.85 5.975C3.38333 4.875 3.86667 4.30833 4.3 4.275H4.375C4.64167 4.325 4.85 4.51667 5 4.85C5.15 5.18333 5.25833 5.69167 5.325 6.375C6.05833 6.49167 6.58333 6.61667 6.9 6.75C7.21667 6.88333 7.39167 7.05 7.425 7.25ZM6.375 7.4C6.05833 7.3 5.56667 7.2 4.9 7.1C4.7 7.06667 4.59167 6.95 4.575 6.75C4.525 6.11667 4.45 5.64167 4.35 5.325C4.31667 5.24167 4.29167 5.175 4.275 5.125C4.20833 5.19167 4.15 5.26667 4.1 5.35C3.9 5.61667 3.675 6.025 3.425 6.575C3.34167 6.75833 3.2 6.83333 3 6.8C2.33333 6.68333 1.83333 6.625 1.5 6.625C1.48333 6.625 1.46667 6.625 1.45 6.625C1.46667 6.625 1.475 6.63333 1.475 6.65C1.70833 6.91667 2.075 7.275 2.575 7.725C2.725 7.85833 2.75 8.01667 2.65 8.2C2.31667 8.78333 2.08333 9.24167 1.95 9.575C1.93333 9.625 1.91667 9.675 1.9 9.725C1.93333 9.70833 1.96667 9.69167 2 9.675C2.31667 9.525 2.75 9.24167 3.3 8.825C3.5 8.675 3.675 8.68333 3.825 8.85C4.375 9.46667 4.80833 9.9 5.125 10.15C5.125 10.1333 5.125 10.1083 5.125 10.075C5.125 9.75833 5.05 9.29167 4.9 8.675C4.85 8.475 4.91667 8.325 5.1 8.225C5.7 7.925 6.14167 7.675 6.425 7.475C6.44167 7.45833 6.46667 7.44167 6.5 7.425C6.46667 7.425 6.425 7.41667 6.375 7.4Z" fill="#E41B23"/>
</svg>
