<svg width="21" height="19" viewBox="0 0 21 19" fill="none" xmlns="http://www.w3.org/2000/svg">
<path d="M3.8 6.275C2.7 5.89167 1.91667 5.325 1.45 4.575C1 3.825 0.975 3.00833 1.375 2.125C1.74167 1.30833 2.35 0.799999 3.2 0.6C4.05 0.383333 4.93333 0.466666 5.85 0.849999C7.41667 1.46667 9.73333 2.425 12.8 3.725C15.8833 5.025 17.7917 5.86667 18.525 6.25C19.3917 6.71667 20.0083 7.38333 20.375 8.25C20.7417 9.11667 20.7583 9.99167 20.425 10.875C20.1083 11.7583 19.4583 12.4333 18.475 12.9C17.4583 13.3667 15.6333 14.1333 13 15.2C12.8667 15.25 12.7167 15.3083 12.55 15.375C11.5 15.7917 10.275 16.275 8.875 16.825C8.84167 16.8417 8.43333 17 7.65 17.3C6.88333 17.6 6.43333 17.775 6.3 17.825C4.93333 18.3917 3.85 18.575 3.05 18.375C2.26667 18.1917 1.7 17.575 1.35 16.525C0.716667 14.6417 1.68333 13.3167 4.25 12.55C5.63333 12.1333 8.16667 11.1417 11.85 9.575C7.51667 7.725 4.83333 6.625 3.8 6.275ZM17.775 7.625C17.0917 7.25833 15.2167 6.43333 12.15 5.15C9.1 3.85 6.80833 2.9 5.275 2.3C4.69167 2.06667 4.175 1.99167 3.725 2.075C3.275 2.15833 2.96667 2.38333 2.8 2.75C2.4 3.63333 2.90833 4.31667 4.325 4.8C5.50833 5.21667 8.78333 6.56667 14.15 8.85C14.4667 8.98333 14.625 9.225 14.625 9.575C14.625 9.90833 14.4667 10.1417 14.15 10.275C9.48333 12.2917 6.33333 13.55 4.7 14.05C3.91667 14.2833 3.36667 14.5583 3.05 14.875C2.75 15.1917 2.675 15.575 2.825 16.025C3.00833 16.5583 3.28333 16.85 3.65 16.9C4.03333 16.95 4.725 16.775 5.725 16.375C5.85833 16.325 6.31667 16.15 7.1 15.85C7.88333 15.5333 8.28333 15.375 8.3 15.375C9.7 14.825 10.925 14.3417 11.975 13.925C12.125 13.8583 12.275 13.8 12.425 13.75C15.025 12.7 16.825 11.9417 17.825 11.475C18.3917 11.2083 18.7667 10.825 18.95 10.325C19.15 9.80833 19.1333 9.3 18.9 8.8C18.6833 8.3 18.3083 7.90833 17.775 7.625Z" fill="#E41B23"/>
</svg>
