<svg width="32" height="32" viewBox="0 0 32 32" fill="none" xmlns="http://www.w3.org/2000/svg">
<path d="M5.4 18.5C6.21667 18.2333 7.025 18.3167 7.825 18.75C7.90833 18.2 8.125 17.7333 8.475 17.35C8.84167 16.9667 9.29167 16.725 9.825 16.625C10.6083 16.4583 11.325 16.625 11.975 17.125C12.625 17.6083 13.05 18.325 13.25 19.275C13.55 20.7583 13.5167 22.2333 13.15 23.7C12.7833 25.1667 12.15 26.45 11.25 27.55C11.0833 27.7333 10.8833 27.8 10.65 27.75C9.41667 27.45 8.08333 26.75 6.65 25.65C5.21667 24.5667 4.34167 23.5417 4.025 22.575C3.69167 21.5583 3.65 20.6917 3.9 19.975C4.16667 19.2417 4.66667 18.75 5.4 18.5ZM5.125 22.2C5.375 22.9167 6.08333 23.725 7.25 24.625C8.41667 25.5417 9.525 26.1667 10.575 26.5C11.2917 25.55 11.7833 24.4583 12.05 23.225C12.3333 21.9917 12.35 20.7583 12.1 19.525C11.9667 18.875 11.7083 18.4 11.325 18.1C10.9417 17.7833 10.5167 17.675 10.05 17.775C9.61667 17.8583 9.3 18.1083 9.1 18.525C8.91667 18.925 8.91667 19.4167 9.1 20C9.2 20.3333 9.09167 20.575 8.775 20.725C8.45833 20.8583 8.20833 20.775 8.025 20.475C7.79167 20.1083 7.45833 19.8417 7.025 19.675C6.59167 19.5083 6.175 19.4833 5.775 19.6C5.35833 19.75 5.09167 20.0417 4.975 20.475C4.85833 20.8917 4.90833 21.4667 5.125 22.2ZM16.95 3.45C17.7333 3.56667 18.45 3.875 19.1 4.375C19.75 4.875 20.2583 5.5 20.625 6.25C21.3083 5.46667 22.0917 4.93333 22.975 4.65C23.875 4.36667 24.7583 4.375 25.625 4.675C26.8083 5.09167 27.65 5.93333 28.15 7.2C28.65 8.45 28.725 9.95833 28.375 11.725C27.975 13.725 27.1333 15.4833 25.85 17C24.5833 18.5167 22.4833 20.25 19.55 22.2C19.3833 22.3 19.2083 22.3417 19.025 22.325C18.8417 22.3083 18.6833 22.2333 18.55 22.1C16.05 19.6167 14.225 17.3667 13.075 15.35C11.925 13.3167 11.4167 11.325 11.55 9.375C11.7 7.34167 12.275 5.79167 13.275 4.725C14.275 3.64167 15.5 3.21667 16.95 3.45ZM25.125 6.15C24.425 5.9 23.7083 5.95833 22.975 6.325C22.2417 6.69167 21.65 7.3 21.2 8.15C21.25 8.63333 21.25 9.11667 21.2 9.6C21.1833 9.81667 21.0917 9.99167 20.925 10.125C20.7583 10.2583 20.5667 10.3167 20.35 10.3C20.1333 10.2667 19.9583 10.1667 19.825 10C19.6917 9.83333 19.6333 9.64167 19.65 9.425C19.7667 8.30833 19.5333 7.325 18.95 6.475C18.3833 5.625 17.6333 5.125 16.7 4.975C15.75 4.825 14.9417 5.14167 14.275 5.925C13.6083 6.70833 13.2167 7.89167 13.1 9.475C13 11.0917 13.45 12.7917 14.45 14.575C15.45 16.3583 17.0333 18.35 19.2 20.55C21.7667 18.8167 23.5917 17.2917 24.675 15.975C25.775 14.6583 26.5 13.1417 26.85 11.425C27.1167 10.025 27.0833 8.86667 26.75 7.95C26.4333 7.01667 25.8917 6.41667 25.125 6.15ZM6.65 7.925C7.06667 8.09167 7.4 8.39167 7.65 8.825C8.2 8.425 8.79167 8.39167 9.425 8.725C9.90833 8.95833 10.225 9.33333 10.375 9.85C10.5417 10.3667 10.5 10.9167 10.25 11.5C9.96667 12.1 9.58333 12.575 9.1 12.925C8.61667 13.275 7.975 13.5583 7.175 13.775C7.00833 13.825 6.725 13.9 6.325 14C6.24167 14.0167 6.16667 14.0333 6.1 14.05C5.9 14.0833 5.74167 14.025 5.625 13.875C5.09167 13.225 4.69167 12.4667 4.425 11.6C4.175 10.7333 4.14167 10.0083 4.325 9.425C4.54167 8.775 4.85833 8.31667 5.275 8.05C5.69167 7.78333 6.15 7.74167 6.65 7.925ZM5.25 9.725C5.13333 10.1083 5.16667 10.625 5.35 11.275C5.55 11.9083 5.83333 12.4917 6.2 13.025C6.53333 12.9417 6.775 12.875 6.925 12.825C7.575 12.6583 8.09167 12.4417 8.475 12.175C8.85833 11.9083 9.15 11.55 9.35 11.1C9.5 10.75 9.53333 10.4417 9.45 10.175C9.38333 9.90833 9.225 9.70833 8.975 9.575C8.75833 9.45833 8.54167 9.45 8.325 9.55C8.125 9.65 7.96667 9.85 7.85 10.15C7.76667 10.4333 7.575 10.5417 7.275 10.475C6.99167 10.3917 6.875 10.2 6.925 9.9C6.95833 9.7 6.90833 9.5 6.775 9.3C6.65833 9.08333 6.5 8.93333 6.3 8.85C5.85 8.68333 5.5 8.975 5.25 9.725Z" fill="#E41B23"/>
</svg>
