<svg width="25" height="20" viewBox="0 0 25 20" fill="none" xmlns="http://www.w3.org/2000/svg">
<path d="M22.175 8.975C20.3583 10.7917 18.6417 12.4667 17.025 14C15.4083 15.5167 14.4417 16.3833 14.125 16.6C13.925 16.75 13.425 16.7083 12.625 16.475C11.8417 16.2417 10.4667 15.75 8.5 15C8.38333 14.95 8.26667 14.9083 8.15 14.875L3.475 13.075C3.35833 13.0417 3.275 12.9667 3.225 12.85C3.19167 12.7333 3.20833 12.6167 3.275 12.5C3.74167 11.7333 3.65833 10.9833 3.025 10.25C2.70833 10.3 2.50833 10.3833 2.425 10.5C2.35833 11.2167 2.45 11.9417 2.7 12.675C2.96667 13.4083 3.325 13.8917 3.775 14.125C4.44167 14.5083 6.24167 15.2917 9.175 16.475C10.5917 17.0417 11.7583 17.4833 12.675 17.8C13.175 17.9667 13.575 18.0833 13.875 18.15C14.0083 18.1833 14.1167 18.2083 14.2 18.225C14.4167 18.075 15.0167 17.5167 16 16.55C17 15.5667 18.0667 14.4833 19.2 13.3C20.45 12 21.4917 10.875 22.325 9.925C22.5417 9.69167 22.7333 9.48333 22.9 9.3L22.225 9C22.2083 9 22.1917 8.99167 22.175 8.975ZM21.75 8.3L21.625 4.925L13.6 12.45C13.45 12.6 13.2833 12.6333 13.1 12.55C13.0167 12.5333 12.9083 12.5 12.775 12.45C12.4917 12.35 12.2 12.25 11.9 12.15C10.9167 11.8167 9.95833 11.525 9.025 11.275C8.425 11.0917 7.85 10.9333 7.3 10.8C5.98333 10.4833 4.875 10.3 3.975 10.25C4.425 10.9833 4.48333 11.7333 4.15 12.5L8.45 14.15C8.55 14.1833 8.65833 14.225 8.775 14.275C10.2583 14.8417 11.4083 15.2583 12.225 15.525C12.725 15.6917 13.1167 15.8083 13.4 15.875C13.55 15.9083 13.6583 15.925 13.725 15.925H13.75C14.1167 15.625 15.1 14.7167 16.7 13.2C18.3167 11.6667 20 10.0333 21.75 8.3ZM22.075 3.175C17.0417 2.125 14.2 1.64167 13.55 1.725C13.3833 1.75833 12.7417 2.14167 11.625 2.875C10.6583 3.50833 9.40833 4.36667 7.875 5.45C6.79167 6.23333 5.61667 7.09167 4.35 8.025C3.96667 8.30833 3.59167 8.59167 3.225 8.875C3.10833 8.95833 3 9.03333 2.9 9.1L2.875 9.125C2.825 9.19167 2.78333 9.25833 2.75 9.325C3.7 9.14167 5.29167 9.31667 7.525 9.85C8.09167 9.98333 8.68333 10.1417 9.3 10.325C10.2333 10.5917 11.2 10.8917 12.2 11.225C12.5167 11.325 12.8167 11.425 13.1 11.525C13.1167 11.525 13.1333 11.5333 13.15 11.55L22.075 3.175ZM24.875 9.1C24.8583 9.21667 24.8167 9.33333 24.75 9.45C24.6833 9.55 24.5917 9.675 24.475 9.825C24.2583 10.1083 23.9333 10.4917 23.5 10.975C22.65 11.925 21.5917 13.0583 20.325 14.375C17.0917 17.775 15.1917 19.5583 14.625 19.725C14.3083 19.8417 13.675 19.75 12.725 19.45C11.7917 19.1667 10.4083 18.65 8.575 17.9C5.59167 16.7 3.74167 15.9 3.025 15.5C2.30833 15.1333 1.75 14.475 1.35 13.525C0.95 12.5583 0.783333 11.5583 0.85 10.525C0.916667 9.475 1.21667 8.65 1.75 8.05C1.78333 8 1.81667 7.95833 1.85 7.925H1.875L1.9 7.9L1.975 7.85C2.075 7.76667 2.18333 7.68333 2.3 7.6C2.66667 7.33333 3.04167 7.05833 3.425 6.775C4.69167 5.84167 5.875 4.98333 6.975 4.2C10.575 1.61667 12.6917 0.274999 13.325 0.174999C14.2417 0.0583329 17.7333 0.649999 23.8 1.95C24.1 2 24.2917 2.175 24.375 2.475C24.475 2.75833 24.4167 3.00833 24.2 3.225L23.175 4.35L23.3 7.775L24.325 8.2C24.5083 8.25 24.65 8.36667 24.75 8.55C24.8667 8.71667 24.9083 8.9 24.875 9.1ZM23.975 9.725H24C24.0667 9.74167 24.1333 9.74167 24.2 9.725C24.1333 9.74167 24.0583 9.74167 23.975 9.725Z" fill="#E41B23"/>
</svg>
