<svg width="24" height="25" viewBox="0 0 24 25" fill="none" xmlns="http://www.w3.org/2000/svg">
<path d="M16.175 23.425C14.475 24.1083 12.675 24.4083 10.775 24.325C8.89167 24.2417 7.18333 23.7667 5.65 22.9C3.85 21.8667 2.45833 20.3833 1.475 18.45C0.508333 16.5 0.025 14.1667 0.025 11.45C0.025 9.68333 0.508333 8 1.475 6.4C2.44167 4.78333 3.75833 3.45833 5.425 2.425C7.19167 1.325 9.13333 0.699999 11.25 0.549999C13.3667 0.383332 15.525 0.724999 17.725 1.575C19.4917 2.275 20.9417 3.59167 22.075 5.525C23.2083 7.45833 23.8 9.6 23.85 11.95C23.9167 14.5333 23.2833 16.85 21.95 18.9C20.6167 20.9333 18.6917 22.4417 16.175 23.425ZM15.6 21.975C17.8 21.125 19.475 19.8167 20.625 18.05C21.7917 16.2667 22.35 14.2417 22.3 11.975C22.25 9.94167 21.7417 8.09167 20.775 6.425C19.825 4.74167 18.6167 3.60833 17.15 3.025C15.1833 2.275 13.2667 1.96667 11.4 2.1C9.53333 2.23333 7.81667 2.78333 6.25 3.75C4.81667 4.65 3.68333 5.78333 2.85 7.15C2.01667 8.51667 1.6 9.95 1.6 11.45C1.58333 13.9 1.99167 15.975 2.825 17.675C3.65833 19.3583 4.85833 20.6417 6.425 21.525C7.74167 22.275 9.225 22.6833 10.875 22.75C12.525 22.8333 14.1 22.575 15.6 21.975ZM8.35 18.45C8.16667 18.5833 7.975 18.5833 7.775 18.45C7.59167 18.3167 7.53333 18.1417 7.6 17.925C8.86667 13.7583 9.65833 11.45 9.975 11C10.2083 10.6833 12.075 9.13333 15.575 6.35C15.7583 6.2 15.95 6.19167 16.15 6.325C16.35 6.45833 16.4167 6.64167 16.35 6.875C15 11.3917 14.225 13.7917 14.025 14.075C13.825 14.3417 11.9333 15.8 8.35 18.45ZM11.825 14.65C12.7083 13.9667 13.175 13.5833 13.225 13.5C13.275 13.4333 13.4833 12.8333 13.85 11.7C14.1333 10.8 14.5083 9.59167 14.975 8.075C12.325 10.2083 10.925 11.375 10.775 11.575C10.5583 11.8917 9.95833 13.625 8.975 16.775C10.1583 15.8917 11.1083 15.1833 11.825 14.65ZM12.525 13.15C12.375 13.3 12.1917 13.375 11.975 13.375C11.7583 13.375 11.575 13.3 11.425 13.15C11.275 12.9833 11.2 12.8 11.2 12.6C11.2 12.3833 11.275 12.2 11.425 12.05C11.575 11.8833 11.7583 11.8 11.975 11.8C12.1917 11.8 12.375 11.8833 12.525 12.05C12.675 12.2 12.75 12.3833 12.75 12.6C12.75 12.8 12.675 12.9833 12.525 13.15ZM6.8 20.425C5.63333 19.625 4.675 18.5917 3.925 17.325C3.19167 16.0583 2.76667 14.725 2.65 13.325C2.51667 11.675 2.84167 10.0917 3.625 8.575C4.425 7.05833 5.66667 5.7 7.35 4.5C8.46667 3.7 9.73333 3.21667 11.15 3.05C12.5833 2.86667 13.9667 3.03333 15.3 3.55C16.8 4.13333 18.05 5.1 19.05 6.45C20.05 7.78333 20.725 9.41667 21.075 11.35C21.325 12.8 21.0833 14.3333 20.35 15.95C19.6333 17.55 18.575 18.9 17.175 20C15.5917 21.25 13.9 21.9167 12.1 22C10.3167 22.1 8.55 21.575 6.8 20.425ZM7.35 19.625C8.91667 20.6583 10.4917 21.1333 12.075 21.05C13.6583 20.9667 15.15 20.3667 16.55 19.25C17.8167 18.25 18.7833 17.0333 19.45 15.6C20.1167 14.15 20.3417 12.7917 20.125 11.525C19.8083 9.75833 19.2 8.275 18.3 7.075C17.4 5.85833 16.2833 4.99167 14.95 4.475C13.7667 4.00833 12.5417 3.85 11.275 4C10.025 4.15 8.90833 4.58333 7.925 5.3C6.375 6.4 5.24167 7.63333 4.525 9C3.80833 10.35 3.50833 11.7667 3.625 13.25C3.725 14.5 4.10833 15.7 4.775 16.85C5.44167 17.9833 6.3 18.9083 7.35 19.625Z" fill="#E41B23"/>
</svg>
