<svg width="18" height="23" viewBox="0 0 18 23" fill="none" xmlns="http://www.w3.org/2000/svg">
<path d="M5.475 7.525C4.75833 6.60833 4.46667 5.575 4.6 4.425C4.75 3.275 5.275 2.35 6.175 1.65C6.875 1.1 7.59167 0.733332 8.325 0.549999C9.05833 0.366666 9.79167 0.391666 10.525 0.625C11.2583 0.841666 11.925 1.28333 12.525 1.95C13.425 3.03333 13.775 4.225 13.575 5.525C13.3917 6.825 12.7667 7.89167 11.7 8.725C10.8 9.40833 9.725 9.625 8.475 9.375C7.225 9.10833 6.225 8.49167 5.475 7.525ZM6.7 6.55C7.2 7.18333 7.86667 7.6 8.7 7.8C9.55 8 10.2333 7.9 10.75 7.5C11.4667 6.93333 11.8917 6.21667 12.025 5.35C12.1583 4.46667 11.9333 3.68333 11.35 3C10.7667 2.33333 10.1 2 9.35 2C8.61667 1.98333 7.88333 2.275 7.15 2.875C6.56667 3.325 6.23333 3.90833 6.15 4.625C6.06667 5.34167 6.25 5.98333 6.7 6.55ZM1.575 21.95C1.375 21.95 1.2 21.8833 1.05 21.75C0.916667 21.6333 0.833334 21.4833 0.8 21.3C0.533333 19.55 0.533333 17.875 0.8 16.275C1.05 14.775 1.96667 13.4583 3.55 12.325C5.13333 11.1917 6.89167 10.625 8.825 10.625C10.1083 10.625 11.35 10.9333 12.55 11.55C13.7667 12.15 14.7583 12.9417 15.525 13.925C16.3083 14.8917 16.7667 15.9 16.9 16.95C17.1167 18.6667 17.1167 20.2 16.9 21.55C16.8667 21.75 16.775 21.9083 16.625 22.025C16.475 22.1583 16.3083 22.225 16.125 22.225L1.575 21.95ZM15.45 20.65C15.55 19.6 15.5167 18.425 15.35 17.125C15.2 15.9083 14.4583 14.7833 13.125 13.75C11.8083 12.7 10.375 12.175 8.825 12.175C7.275 12.175 5.85 12.625 4.55 13.525C3.26667 14.425 2.53333 15.425 2.35 16.525C2.15 17.7583 2.125 19.05 2.275 20.4L15.45 20.65Z" fill="#E41B23"/>
</svg>
