<svg width="24" height="24" viewBox="0 0 24 24" fill="none" xmlns="http://www.w3.org/2000/svg">
<path d="M11.15 23.225C9.03333 23.225 7.16667 22.7167 5.55 21.7C3.95 20.6833 2.725 19.2917 1.875 17.525C1.025 15.7417 0.6 13.7333 0.6 11.5C0.6 9.36667 1.08333 7.43333 2.05 5.7C3.03333 3.96667 4.39167 2.6 6.125 1.6C7.875 0.599999 9.83333 0.099999 12 0.099999C15.5 0.099999 18.275 1.11667 20.325 3.15C22.375 5.16667 23.4 7.95 23.4 11.5C23.4 13.8167 22.8667 15.8667 21.8 17.65C20.75 19.4333 19.3 20.8083 17.45 21.775C15.6 22.7417 13.5 23.225 11.15 23.225ZM11.15 21.275C14.2 21.275 16.675 20.3833 18.575 18.6C20.4917 16.8 21.45 14.4333 21.45 11.5C21.45 8.5 20.6167 6.175 18.95 4.525C17.2833 2.875 14.9667 2.05 12 2.05C10.1833 2.05 8.55 2.46667 7.1 3.3C5.66667 4.11667 4.55 5.24167 3.75 6.675C2.95 8.10833 2.55 9.71667 2.55 11.5C2.55 14.4 3.325 16.7583 4.875 18.575C6.44167 20.375 8.53333 21.275 11.15 21.275ZM11.2 11.875C11.3833 11.8917 11.5417 11.9 11.675 11.9V6.525C11.675 6.25833 11.7667 6.03333 11.95 5.85C12.15 5.65 12.3833 5.55 12.65 5.55C12.9333 5.55 13.1667 5.65 13.35 5.85C13.5333 6.03333 13.625 6.25833 13.625 6.525V12.425C13.625 13.025 13.4 13.425 12.95 13.625C12.5167 13.825 11.8667 13.8833 11 13.8C9.9 13.7 8.28333 13.3583 6.15 12.775C5.88333 12.7083 5.68333 12.5583 5.55 12.325C5.41667 12.075 5.38333 11.825 5.45 11.575C5.53333 11.3083 5.69167 11.1083 5.925 10.975C6.15833 10.8417 6.40833 10.8167 6.675 10.9C8.69167 11.45 10.2 11.775 11.2 11.875Z" fill="#E41B23"/>
</svg>
