<svg width="26" height="25" viewBox="0 0 26 25" fill="none" xmlns="http://www.w3.org/2000/svg">
<path d="M2.575 13.75C3.84167 12.6167 5.50833 12.1417 7.575 12.325C8.99167 12.4583 10.1667 13.1167 11.1 14.3C11.7333 13.6833 12.5167 13.4333 13.45 13.55C13.3833 12.6833 13.5083 11.8333 13.825 11C14.1917 10.0333 14.8417 9.21667 15.775 8.55C16.725 7.86667 17.7417 7.48333 18.825 7.4C19.6917 7.33333 20.5083 7.41667 21.275 7.65C20.425 6.46667 19.4917 5.39167 18.475 4.425C17.4583 3.45833 16.7 2.90833 16.2 2.775C15.65 2.625 15.2333 2.65 14.95 2.85C14.6667 3.05 14.5667 3.40833 14.65 3.925C14.7 4.14167 14.6583 4.34167 14.525 4.525C14.4083 4.69167 14.2417 4.8 14.025 4.85C13.8083 4.88333 13.6083 4.84167 13.425 4.725C13.2583 4.59167 13.1583 4.41667 13.125 4.2C12.925 3.05 13.1833 2.2 13.9 1.65C14.6333 1.1 15.5417 0.966666 16.625 1.25C17.6083 1.51667 18.9583 2.58333 20.675 4.45C22.3917 6.3 23.6167 8.075 24.35 9.775C24.4 9.875 24.425 9.98333 24.425 10.1C24.6917 10.5833 24.8917 11.1167 25.025 11.7C25.5583 14 25.2667 15.8333 24.15 17.2C23.4333 18.0667 22.45 18.6833 21.2 19.05C20.0833 19.4 18.8917 19.4 17.625 19.05C16.375 18.7 15.4417 18.075 14.825 17.175C14.4417 16.5917 14.1333 16.0083 13.9 15.425C13.8833 15.425 13.8583 15.4167 13.825 15.4C12.9917 15.0667 12.3833 15.2417 12 15.925C12.7 17.775 12.5917 19.625 11.675 21.475C11.2583 22.3417 10.55 23.0167 9.55 23.5C8.56667 24 7.5 24.2083 6.35 24.125C5.1 24.0417 4 23.625 3.05 22.875C2.11667 22.125 1.46667 21.1083 1.1 19.825C0.866667 18.9917 0.783333 18.1833 0.85 17.4C0.866667 14.6667 1.09167 12.15 1.525 9.85C1.95833 7.55 2.46667 6.04167 3.05 5.325C3.48333 4.79167 4.025 4.45833 4.675 4.325C5.34167 4.19167 5.95 4.30833 6.5 4.675C7.06667 5.025 7.41667 5.58333 7.55 6.35C7.58333 6.55 7.53333 6.74167 7.4 6.925C7.28333 7.09167 7.11667 7.2 6.9 7.25C6.7 7.28333 6.50833 7.24167 6.325 7.125C6.15833 6.99167 6.05833 6.81667 6.025 6.6C5.94167 6.16667 5.69167 5.925 5.275 5.875C4.875 5.80833 4.54167 5.95 4.275 6.3C3.94167 6.7 3.60833 7.59167 3.275 8.975C2.95833 10.3583 2.725 11.95 2.575 13.75ZM10.2 16.075C9.9 15.5083 9.50833 15.0417 9.025 14.675C8.54167 14.3083 8.00833 14.1 7.425 14.05C6.50833 13.95 5.69167 14.0333 4.975 14.3C4.275 14.55 3.73333 14.925 3.35 15.425C2.98333 15.925 2.73333 16.5167 2.6 17.2C2.46667 17.8667 2.51667 18.5833 2.75 19.35C3.01667 20.2667 3.475 20.9917 4.125 21.525C4.79167 22.0583 5.575 22.3583 6.475 22.425C7.275 22.475 8.01667 22.3333 8.7 22C9.4 21.6833 9.88333 21.2583 10.15 20.725C10.85 19.275 10.925 17.8583 10.375 16.475C10.275 16.3583 10.2167 16.225 10.2 16.075ZM18.95 9.125C18.2 9.175 17.4833 9.44167 16.8 9.925C16.1333 10.4083 15.675 10.975 15.425 11.625C14.875 13.0583 15.15 14.5833 16.25 16.2C16.65 16.7833 17.2917 17.1917 18.175 17.425C19.075 17.6583 19.9167 17.65 20.7 17.4C21.6333 17.1333 22.3333 16.7083 22.8 16.125C23.5667 15.1917 23.75 13.85 23.35 12.1C23.1 11.0333 22.575 10.25 21.775 9.75C20.9917 9.25 20.05 9.04167 18.95 9.125Z" fill="#E41B23"/>
</svg>
