<svg width="25" height="26" viewBox="0 0 25 26" fill="none" xmlns="http://www.w3.org/2000/svg">
<path d="M5.1 2.2C4.28333 2.8 3.66667 3.48333 3.25 4.25C2.85 5.01667 2.64167 5.79167 2.625 6.575C2.60833 7.34167 2.675 8.16667 2.825 9.05C3.19167 11.0833 4.025 13.0083 5.325 14.825C6.625 16.625 8.20833 18.0417 10.075 19.075C11.3083 19.7417 12.5417 20.05 13.775 20C15.0083 19.9333 16.0917 19.6917 17.025 19.275C17.9583 18.8417 18.6083 18.3417 18.975 17.775C19.3083 17.275 19.3333 16.7167 19.05 16.1C18.7667 15.4667 18.3583 14.8833 17.825 14.35C17.2917 13.8167 16.7083 13.4 16.075 13.1C15.4583 12.7833 14.975 12.675 14.625 12.775C14.525 12.825 14.35 13.05 14.1 13.45C13.8667 13.85 13.625 14.2667 13.375 14.7C13.1417 15.1333 12.8583 15.4917 12.525 15.775C12.1917 16.0417 11.8833 16.1 11.6 15.95C9.58333 14.8833 7.75 12.75 6.1 9.55L5.525 8.45L6.775 8.425C7.70833 8.39167 8.425 8.225 8.925 7.925C9.44167 7.60833 9.8 7.15833 10 6.575C10.05 6.40833 9.975 6.04167 9.775 5.475C9.59167 4.90833 9.30833 4.35833 8.925 3.825C8.30833 2.94167 7.66667 2.35 7 2.05C6.33333 1.75 5.7 1.8 5.1 2.2ZM4.175 0.925C4.725 0.524999 5.3 0.308332 5.9 0.274999C6.51667 0.224999 7.08333 0.341665 7.6 0.624999C8.13333 0.891665 8.61667 1.225 9.05 1.625C9.48333 2.00833 9.86667 2.44167 10.2 2.925C11.4 4.60833 11.825 5.98333 11.475 7.05C10.975 8.56667 9.83333 9.5 8.05 9.85C8.56667 10.75 9.15 11.6 9.8 12.4C10.4667 13.1833 11.1167 13.7917 11.75 14.225C12.2 12.6583 13 11.6833 14.15 11.3C14.65 11.1333 15.2667 11.1583 16 11.375C16.7333 11.5917 17.4333 11.95 18.1 12.45C18.7833 12.9333 19.3833 13.5167 19.9 14.2C20.4333 14.8833 20.7417 15.6083 20.825 16.375C20.9083 17.125 20.725 17.875 20.275 18.625C19.7417 19.4583 18.8833 20.15 17.7 20.7C16.5333 21.25 15.2167 21.5417 13.75 21.575C12.2833 21.6083 10.8083 21.2333 9.325 20.45C7.24167 19.3 5.48333 17.725 4.05 15.725C2.61667 13.725 1.69167 11.6 1.275 9.35C0.608333 5.66667 1.575 2.85833 4.175 0.925ZM5.775 3.15C5.65833 3.38333 5.65 3.64167 5.75 3.925C5.86667 4.19167 6.05 4.475 6.3 4.775C6.56667 5.05833 6.83333 5.31667 7.1 5.55C7.38333 5.78333 7.63333 5.975 7.85 6.125C8.06667 6.275 8.19167 6.34167 8.225 6.325L8.475 6.725L8.75 7.125C8.38333 7.325 7.98333 7.35833 7.55 7.225C7.13333 7.09167 6.74167 6.825 6.375 6.425C6.00833 6.00833 5.7 5.575 5.45 5.125C5.2 4.675 5.06667 4.225 5.05 3.775C5.05 3.325 5.2 2.98333 5.5 2.75L5.775 3.15ZM14.775 14.025L15.15 14.325C15.05 14.4583 15.15 14.75 15.45 15.2C15.75 15.6333 16.1417 16.0167 16.625 16.35C17.125 16.6667 17.5417 16.7417 17.875 16.575L18.1 17L18.325 17.45C17.9417 17.6 17.525 17.6417 17.075 17.575C16.625 17.4917 16.1833 17.3 15.75 17C15.3333 16.6833 14.975 16.3417 14.675 15.975C14.3917 15.5917 14.2083 15.1917 14.125 14.775C14.0583 14.3583 14.15 14 14.4 13.7L14.775 14.025ZM18.15 20.075L18.6 19.925C19.0167 21.0083 19.5917 21.7583 20.325 22.175C20.225 21.6583 20.275 21.1667 20.475 20.7C20.6917 20.2333 21.0167 19.9167 21.45 19.75C21.8833 19.5667 22.4167 19.6333 23.05 19.95C23.6167 20.2833 23.9167 20.6917 23.95 21.175C24 21.6583 23.8417 22.0917 23.475 22.475C23.125 22.875 22.7 23.15 22.2 23.3C22.8833 23.75 23.7667 23.9333 24.85 23.85L24.925 24.825C23.0917 24.9583 21.75 24.4833 20.9 23.4C20.2333 23.3 19.6167 22.9833 19.05 22.45C18.5 21.9333 18.05 21.2 17.7 20.25L18.15 20.075ZM21.45 22.45C21.7667 22.4333 22.0583 22.35 22.325 22.2C22.6083 22.05 22.8083 21.875 22.925 21.675C23.125 21.3417 23.0083 21.05 22.575 20.8C22.025 20.5 21.6167 20.5417 21.35 20.925C21.1 21.3083 21.1333 21.8167 21.45 22.45Z" fill="#E41B23"/>
</svg>
