<svg width="23" height="24" viewBox="0 0 23 24" fill="none" xmlns="http://www.w3.org/2000/svg">
<path d="M16.5716 21.3131H14.7303H12.4063C12.3555 21.3131 12.292 21.3003 12.2158 21.2749C11.6402 21.0801 11.3523 20.6821 11.3523 20.0808V16.1045H11.0475C10.548 16.1045 10.1967 15.8928 9.99351 15.4694C9.77339 15.029 9.82419 14.614 10.1459 14.2244C10.2221 14.1228 10.3237 14.0127 10.4507 13.8941C12.2793 12.0563 13.8456 10.4895 15.1493 9.19374C15.3102 9.03283 15.4456 8.91003 15.5557 8.82534C15.7589 8.68136 15.979 8.60938 16.2161 8.60938C16.4531 8.60938 16.6732 8.68136 16.8764 8.82534C16.9695 8.89309 17.0669 8.97778 17.1685 9.07941C17.3378 9.24879 17.6637 9.57062 18.1463 10.0449C18.231 9.84163 18.3685 9.67648 18.559 9.54945C18.7495 9.42241 18.9591 9.35889 19.1876 9.35889H19.6829H19.8734C20.229 9.35889 20.5168 9.46899 20.7369 9.68919C20.957 9.90938 21.0671 10.2016 21.0671 10.5657V11.1628C21.0671 11.9674 21.0713 12.5729 21.0798 12.9794L21.8544 13.7544L22.0322 13.9322C22.3031 14.2032 22.4725 14.4658 22.5402 14.7198L22.5529 14.7707C22.5698 14.8977 22.5656 15.029 22.5402 15.1645V15.1899C22.5317 15.2068 22.5275 15.2238 22.5275 15.2407C22.3412 15.8166 21.9476 16.1045 21.3465 16.1045H21.0671V17.0192V20.1443C21.0671 20.4069 20.9951 20.6376 20.8512 20.8367C20.7073 21.0357 20.5126 21.1775 20.2671 21.2622L20.1528 21.3131H20.0639H19.086H16.5716ZM14.7303 20.5127H19.086H19.9877C19.9961 20.5042 20.0046 20.5 20.0131 20.5C20.1909 20.4492 20.2798 20.3306 20.2798 20.1443V17.0192V15.3042H21.3465C21.4735 15.3042 21.5645 15.2852 21.6195 15.247C21.6745 15.2089 21.7232 15.1264 21.7655 14.9993V14.9104C21.7317 14.8003 21.6343 14.6648 21.4735 14.5039L21.2957 14.326L20.4575 13.4876C20.339 13.3605 20.2798 13.2123 20.2798 13.043V11.1628V10.5657C20.2798 10.2947 20.1443 10.1592 19.8734 10.1592H19.6829H19.2003C19.0987 10.1592 19.0141 10.1931 18.9464 10.2609C18.8786 10.3286 18.8448 10.4133 18.8448 10.5149V10.769V11.8107L18.1336 11.1628L18.0574 11.0866L17.613 10.642L16.6097 9.63837C16.542 9.57062 16.4785 9.51557 16.4192 9.47322C16.2838 9.38006 16.1526 9.38006 16.0256 9.47322C15.9494 9.53251 15.8435 9.62567 15.7081 9.75271L11.0094 14.4531C10.9078 14.5547 10.8274 14.6436 10.7682 14.7198C10.6581 14.8469 10.6369 14.9824 10.7047 15.1264C10.7639 15.2449 10.8782 15.3042 11.0475 15.3042H11.5301H12.1524V20.0808C12.1524 20.2163 12.1714 20.3116 12.2095 20.3666C12.2476 20.4217 12.3301 20.4704 12.4571 20.5127H14.7303Z" fill="#E41B23"/>
<path d="M0.666781 0.0015223C0.405204 0.00112142 0.405204 0.00112142 0.20004 0.0346715C0.0196332 0.305282 0.0196332 0.305282 0 0.510001L0.00418038 0.755121L0.00763307 1.03782L0.0142818 1.34894C0.0184721 1.63515 0.0224872 1.92136 0.0276991 2.20755C0.0349485 2.58827 0.0415913 2.96898 0.0474534 3.34972C0.0558322 3.8972 0.0646941 4.44468 0.074205 4.99215C0.0969255 6.29365 0.117594 7.59518 0.137933 8.89672C0.142514 9.19007 0.147096 9.48343 0.151754 9.77678C0.18307 11.7423 0.209302 13.7077 0.223886 15.6734L0.226467 16.0271L0.226817 16.0735C0.234957 17.1514 0.243097 18.2294 0.248327 19.3073C0.250249 19.7068 0.252568 20.1062 0.255401 20.5056C0.256766 20.689 0.258047 20.8723 0.259237 21.0556L0.259316 21.0847C0.259978 21.3284 0.260641 21.5721 0.262468 21.8159L0.264346 22.0428C0.263854 22.4343 0.245279 22.6985 0.470651 23.0366C1.02522 23.1166 1.02522 23.1166 2.64118 22.952C4.35661 22.7591 6.08034 22.7533 7.80454 22.751C8.20646 22.7505 8.60837 22.7495 9.01029 22.7479L9.42756 22.7462L9.6384 22.7453C10.578 22.7415 11.5175 22.738 12.4571 22.7368C13.1021 22.7361 13.747 22.7346 14.392 22.7314L14.4835 22.7309C14.7925 22.7292 15.1014 22.7276 15.4103 22.7276C15.733 22.728 16.0557 22.7281 16.3784 22.726L16.7346 22.7236L17.0718 22.7254L17.3802 22.722C17.6478 22.7213 17.6478 22.7213 17.8799 22.6758C18.13 22.4746 18.2269 22.3786 18.2957 22.0627L18.3084 21.7963L18.3239 21.5271L18.331 21.3227H17.3387C17.3129 21.4739 17.283 21.6243 17.2485 21.7737C15.1794 21.8252 13.1104 21.8627 11.0408 21.884L10.7676 21.8868C9.84711 21.8964 8.92662 21.9058 8.00612 21.9139C7.6497 21.9171 7.29329 21.9203 6.93688 21.9238C6.76713 21.9255 6.59737 21.9272 6.42761 21.9288C5.37729 21.9369 4.33119 21.9611 3.28248 22.0219C3.06152 22.0351 2.84058 22.048 2.61956 22.0602C2.47249 22.0681 2.32542 22.0761 2.17835 22.0843L1.9872 22.0951L1.57741 22.118L1.28248 22.1346C1.27358 21.3866 1.2644 20.6387 1.25482 19.8907L1.25353 19.7903C1.24901 19.4397 1.24449 19.0891 1.24029 18.7384C1.22352 17.3185 1.21853 15.8977 1.14612 14.4792C1.11685 13.9182 1.09538 13.3583 1.08664 12.7966L1.08305 12.5279C1.0806 12.345 1.07819 12.162 1.0758 11.9791C1.0457 9.62009 0.961344 7.26596 0.851776 4.9095C0.839333 4.64289 0.826991 4.37627 0.814766 4.10965C0.808983 3.9834 0.803158 3.85715 0.797287 3.73091C0.751689 2.79839 0.734408 1.87005 0.741262 0.936707C2.32315 0.934681 3.90503 0.933102 5.48691 0.932168C6.25811 0.931718 7.02931 0.931231 7.8005 0.930211C8.47608 0.929297 9.15166 0.928562 9.82724 0.928285L9.94419 0.928252C10.2646 0.928164 10.5849 0.928076 10.9053 0.927561C12.7814 0.924019 14.6522 0.950148 16.5269 1.02691C16.5316 2.66515 16.5198 4.30187 16.4884 5.93988C16.4839 6.17199 16.4795 6.40411 16.4752 6.63623C16.4627 7.32223 16.4499 8.00823 16.4367 8.69422L17.6913 9.74259C17.4727 9.33982 17.4727 9.33982 17.4695 8.87254L17.4713 8.61364C17.4688 8.32574 17.4668 8.03792 17.467 7.75001C17.4672 7.54411 17.4668 7.33821 17.4657 7.13231C17.4619 6.59296 17.4592 6.05362 17.4583 5.51425C17.4569 4.63134 17.4526 3.74844 17.4479 2.86554C17.4462 2.5551 17.4448 2.24468 17.4441 1.93424C17.4438 1.73795 17.4433 1.54166 17.4427 1.34537L17.4417 1.07248L17.4419 0.811911L17.4408 0.576219C17.4406 0.455775 17.4378 0.335194 17.4289 0.215079C17.3283 0.114425 17.3283 0.114425 16.7942 0.10148L16.5537 0.0971269C16.2827 0.0912638 16.0117 0.0857011 15.7407 0.0807884L15.442 0.075545C12.7835 0.025991 10.1249 0.0148381 7.46594 0.013254C6.74992 0.0128292 6.03391 0.0118487 5.31788 0.0093017C4.74798 0.00727123 4.17809 0.00591976 3.60818 0.00558542C3.27168 0.00551332 2.93518 0.00562678 2.59868 0.00426262C2.28137 0.00272528 1.96408 0.00149454 1.64677 0.00195999L1.29849 0.00251881L0.967081 0L0.666781 0.0015223Z" fill="#E41B23"/>
<path d="M3.9664 3.72007C4.04295 3.71991 4.11949 3.71975 4.19835 3.71959C4.4509 3.71919 4.70345 3.71945 4.956 3.71976C5.13446 3.7197 5.31292 3.71961 5.49138 3.7195C5.86656 3.71936 6.24174 3.71956 6.61693 3.71998C7.08906 3.72048 7.56118 3.72019 8.03331 3.71967C12.6535 3.7153 12.6535 3.7153 14.9057 3.85889C14.9984 3.86472 15.0912 3.87055 15.1867 3.87655C15.4486 3.91264 15.6561 3.98387 15.896 4.09255C15.9073 4.35189 15.9073 4.35189 15.896 4.63377C15.7156 4.81418 15.7156 4.81418 15.515 4.83609C15.4327 4.83572 15.3504 4.83535 15.2656 4.83497C15.1738 4.8348 15.082 4.83462 14.9875 4.83444C14.891 4.83334 14.7945 4.83223 14.6952 4.83109C14.5562 4.83101 14.5562 4.83101 14.4145 4.83092C13.9623 4.82838 13.5163 4.81333 13.0662 4.76952C12.2055 4.7015 11.3433 4.70716 10.4804 4.70325C10.1626 4.70175 9.84491 4.69966 9.52716 4.69739C8.62464 4.69105 7.72211 4.68557 6.81958 4.68097C6.26552 4.6781 5.71147 4.67438 5.15742 4.67013C4.94681 4.66868 4.7362 4.66757 4.5256 4.6668C4.23201 4.6657 3.93845 4.66352 3.64488 4.6611C3.55809 4.66105 3.4713 4.661 3.38188 4.66094C2.61763 4.65258 2.61763 4.65258 2.27526 4.45337C2.20197 4.26168 2.20197 4.26168 2.18506 4.09255C2.67006 3.64635 3.345 3.71847 3.9664 3.72007Z" fill="#E41B23"/>
<path d="M9.12902 6.33666C9.31882 6.337 9.50861 6.33719 9.6984 6.33733C11.2514 6.33874 12.8041 6.34737 14.3567 6.38774C14.464 6.39038 14.464 6.39038 14.5735 6.39308C14.7689 6.39811 14.9643 6.40383 15.1597 6.40994C15.3193 6.4149 15.3193 6.4149 15.4821 6.41996C15.7154 6.43848 15.7154 6.43848 15.8056 6.52868C15.8225 6.79365 15.8225 6.79365 15.8056 7.0699C15.5216 7.35385 15.2378 7.35194 14.8489 7.35249C14.7675 7.35261 14.686 7.35273 14.6021 7.35285C14.5174 7.3525 14.4327 7.35215 14.3454 7.35179C14.2652 7.35214 14.1851 7.35249 14.1025 7.35285C13.606 7.35215 13.1148 7.33035 12.6196 7.29541C11.5313 7.2235 10.4404 7.23672 9.35031 7.23855C9.04176 7.23906 8.73322 7.23876 8.42468 7.23824C7.07017 7.23631 5.72084 7.25656 4.36829 7.33086C2.99568 7.39746 2.99568 7.39746 2.36523 7.16011C2.395 7.04104 2.42477 6.92197 2.45544 6.79929C4.57203 6.16057 6.94326 6.33233 9.12902 6.33666Z" fill="#E41B23"/>
<path d="M6.45398 8.66906C6.64327 8.66894 6.83255 8.66876 7.02184 8.66854C7.41497 8.66827 7.8081 8.66865 8.20123 8.6695C8.70545 8.67054 9.20964 8.66993 9.71386 8.66886C10.1031 8.66821 10.4923 8.66841 10.8815 8.66888C11.0676 8.669 11.2537 8.66885 11.4398 8.66843C11.6984 8.66798 11.9569 8.66867 12.2155 8.66968C12.2923 8.66931 12.369 8.66895 12.4481 8.66857C12.8015 8.67113 12.9784 8.67294 13.2792 8.87343C13.2002 9.49358 13.2002 9.49358 13.0987 9.59506C12.9629 9.6026 12.8267 9.6038 12.6907 9.60248C12.6025 9.60185 12.5143 9.60121 12.4235 9.60056C12.326 9.59939 12.2284 9.59822 12.128 9.59702C12.0259 9.59615 11.9238 9.59528 11.8187 9.59439C11.4794 9.5914 11.1402 9.58777 10.801 9.58413C10.5666 9.58194 10.3321 9.57979 10.0976 9.57768C9.54238 9.57258 8.98716 9.56708 8.43193 9.56138C7.79998 9.55492 7.16802 9.54897 6.53605 9.54306C5.23574 9.5309 3.93543 9.51809 2.63513 9.50485C2.60536 9.38579 2.57559 9.26672 2.54492 9.14404C2.85584 8.85604 3.1617 8.80849 3.56909 8.76781C3.636 8.76062 3.70291 8.75343 3.77185 8.74602C4.664 8.65952 5.55857 8.66701 6.45398 8.66906Z" fill="#E41B23"/>
<path d="M7.99692 10.7529C8.15824 10.7523 8.31957 10.7513 8.48089 10.75C8.70683 10.7484 8.93273 10.7481 9.15868 10.748C9.22637 10.7474 9.29406 10.7468 9.3638 10.7461C9.83074 10.7482 9.83074 10.7482 10.0318 10.9492C10.0544 11.2199 10.0544 11.2199 10.0318 11.4905C9.85141 11.6709 9.85141 11.6709 9.67766 11.6932C9.60679 11.693 9.53593 11.6929 9.46292 11.6928C9.34226 11.6932 9.34226 11.6932 9.21916 11.6936C9.13188 11.693 9.04459 11.6923 8.95466 11.6917C8.86475 11.6916 8.77483 11.6916 8.68218 11.6915C8.49132 11.6913 8.30046 11.6905 8.1096 11.6894C7.81958 11.6878 7.52959 11.6876 7.23956 11.6876C7.05393 11.6872 6.86829 11.6866 6.68266 11.686C6.59665 11.6859 6.51065 11.6858 6.42204 11.6857C5.96462 11.6825 5.51886 11.6579 5.0649 11.6016C4.85504 11.5764 4.64653 11.5652 4.43532 11.5585C4.35899 11.5555 4.28265 11.5525 4.204 11.5495C4.0478 11.5439 3.89159 11.5388 3.73536 11.534C3.30667 11.5166 2.94814 11.4731 2.54492 11.3101C2.54492 11.191 2.54492 11.0719 2.54492 10.9492C2.9069 10.8651 3.25233 10.8416 3.62349 10.8305C3.6852 10.8286 3.74692 10.8267 3.8105 10.8248C4.01442 10.8188 4.21834 10.8135 4.42228 10.8083C4.49229 10.8064 4.56229 10.8046 4.63442 10.8027C5.7551 10.7736 6.87588 10.7573 7.99692 10.7529Z" fill="#E41B23"/>
</svg>
