<svg width="21" height="23" viewBox="0 0 21 23" fill="none" xmlns="http://www.w3.org/2000/svg">
<path d="M12.15 5.275C16.5833 5.34167 18.9167 5.43333 19.15 5.55C19.3333 5.63333 19.4417 5.71667 19.475 5.8C19.525 5.86667 19.5667 6.03333 19.6 6.3C19.6333 6.43333 19.6583 6.61667 19.675 6.85C19.7083 7.28333 19.7417 7.875 19.775 8.625C19.8417 10.1583 19.9 11.9083 19.95 13.875C20.0167 17.3583 20.0083 19.6 19.925 20.6C19.8583 21.6167 19.6333 22.1917 19.25 22.325C18.8333 22.4917 15.1417 22.5167 8.175 22.4C7.94167 22.3333 7.8 22.2833 7.75 22.25C7.7 22.2167 7.63333 22.15 7.55 22.05C7.5 21.9667 7.46667 21.8917 7.45 21.825C7.43333 21.775 7.41667 21.7167 7.4 21.65C7.4 21.6 7.39167 21.525 7.375 21.425C7.375 21.2917 7.375 21.0917 7.375 20.825C7.375 20.4917 7.38333 19.9083 7.4 19.075V19.05C7.43333 18.2167 7.45 17.65 7.45 17.35C7.45 17.3 7.45 17.25 7.45 17.2C6.61667 17.1 5.73333 17.1083 4.8 17.225C4.8 17.2583 4.8 17.3 4.8 17.35C4.8 17.6833 4.81667 18.25 4.85 19.05V19.125C4.86667 19.9583 4.875 20.5333 4.875 20.85C4.875 21.1167 4.86667 21.325 4.85 21.475C4.85 21.575 4.84167 21.6667 4.825 21.75C4.79167 21.85 4.75 21.9333 4.7 22C4.55 22.2667 4.31667 22.4 4 22.4C3.96667 22.4 3.925 22.4 3.875 22.4C2.34167 22.3667 1.43333 22.3333 1.15 22.3C0.883334 22.2833 0.691667 22.2083 0.575 22.075C0.558334 22.0583 0.541667 22.0417 0.525 22.025C0.358334 21.8583 0.258334 21.3083 0.225 20.375C0.191667 19.4417 0.191667 16.4333 0.225 11.35C0.241667 10.1333 0.25 8.775 0.25 7.275C0.283333 3.40833 0.3 1.43333 0.3 1.35C0.3 1.15 0.358333 0.983332 0.475 0.85C0.608333 0.7 0.766667 0.608333 0.95 0.574999C1.61667 0.474999 3.05 0.424999 5.25 0.424999C7.46667 0.424999 9.50833 0.474999 11.375 0.574999C11.5083 0.574999 11.6333 0.616665 11.75 0.699999C11.8667 0.766665 11.95 0.858332 12 0.975C12.0667 1.09167 12.1 1.21667 12.1 1.35C12.1 1.75 12.1083 2.225 12.125 2.775C12.125 2.94167 12.125 3.21667 12.125 3.6C12.1417 4.31667 12.15 4.875 12.15 5.275ZM18.325 20.825C18.3583 20.425 18.3833 19.8583 18.4 19.125C18.4333 17.7583 18.425 16.025 18.375 13.925C18.3417 11.9583 18.2917 10.2167 18.225 8.7C18.175 7.96667 18.1333 7.4 18.1 7V6.975C18.0667 6.975 18.0333 6.975 18 6.975C17.5833 6.95833 17 6.94167 16.25 6.925C14.8167 6.89167 13.1833 6.85833 11.35 6.825C11.1333 6.825 10.95 6.75 10.8 6.6C10.65 6.45 10.575 6.26667 10.575 6.05C10.575 5.43333 10.575 4.625 10.575 3.625C10.5583 3.225 10.55 2.94167 10.55 2.775C10.55 2.525 10.55 2.3 10.55 2.1C6.86667 1.95 3.96667 1.93333 1.85 2.05L1.825 7.3C1.80833 8.8 1.8 10.15 1.8 11.35C1.78333 14.3 1.775 16.6 1.775 18.25C1.775 19.25 1.78333 20.0167 1.8 20.55C1.8 20.6167 1.8 20.6917 1.8 20.775C1.85 20.775 1.90833 20.775 1.975 20.775C2.30833 20.7917 2.75833 20.8083 3.325 20.825C3.30833 20.525 3.29167 19.975 3.275 19.175V19.1C3.25833 18.2667 3.25 17.6833 3.25 17.35C3.25 17.0833 3.25833 16.875 3.275 16.725C3.275 16.6083 3.28333 16.5083 3.3 16.425C3.33333 16.3417 3.36667 16.2667 3.4 16.2C3.51667 15.9833 3.7 15.85 3.95 15.8C4.56667 15.65 5.29167 15.575 6.125 15.575C6.95833 15.575 7.70833 15.65 8.375 15.8C8.675 15.8667 8.86667 16.05 8.95 16.35C8.96667 16.4 8.975 16.4583 8.975 16.525C8.99167 16.575 9 16.65 9 16.75C9 16.8833 9 17.0833 9 17.35C9 17.6667 8.99167 18.2417 8.975 19.075C8.95833 19.925 8.95 20.5083 8.95 20.825C8.95 20.8417 8.95 20.85 8.95 20.85C13.0333 20.9 16.1583 20.9083 18.325 20.875C18.325 20.8583 18.325 20.8417 18.325 20.825ZM7.6 3.2C7.8 3.25 7.925 3.375 7.975 3.575C8.09167 4.025 8.15 4.61667 8.15 5.35C8.15 6.08333 8.08333 6.625 7.95 6.975C7.88333 7.14167 7.75833 7.24167 7.575 7.275C7.225 7.325 6.875 7.35833 6.525 7.375C6.175 7.39167 5.84167 7.4 5.525 7.4C5.225 7.4 4.95833 7.38333 4.725 7.35C4.49167 7.3 4.325 7.24167 4.225 7.175C4.125 7.10833 4.06667 7.00833 4.05 6.875C3.88333 5.925 3.88333 4.84167 4.05 3.625C4.08333 3.375 4.225 3.23333 4.475 3.2C5.70833 3.03333 6.75 3.03333 7.6 3.2ZM4.975 4.125C4.875 4.95833 4.875 5.71667 4.975 6.4C5.15833 6.41667 5.38333 6.425 5.65 6.425C6.13333 6.425 6.625 6.4 7.125 6.35C7.20833 5.71667 7.19167 4.975 7.075 4.125C6.475 4.04167 5.775 4.04167 4.975 4.125ZM13.525 13.025C13.3917 13.025 13.275 12.9833 13.175 12.9C13.0917 12.8 13.0417 12.6917 13.025 12.575C12.925 11.2417 12.8833 10.3167 12.9 9.8C12.9333 9.26667 13.0583 8.93333 13.275 8.8C13.3417 8.75 13.425 8.725 13.525 8.725C14.525 8.725 15.3167 8.75833 15.9 8.825C16.15 8.84167 16.375 8.86667 16.575 8.9C16.8417 8.95 16.975 9.11667 16.975 9.4V12.525C16.975 12.6583 16.925 12.775 16.825 12.875C16.7417 12.975 16.6333 13.025 16.5 13.025H13.525ZM16 12.05V9.825C15.9333 9.80833 15.8667 9.8 15.8 9.8C15.2833 9.73333 14.65 9.7 13.9 9.7C13.9 9.81667 13.9 9.95833 13.9 10.125C13.9 10.575 13.925 11.2167 13.975 12.05H16ZM4.45 9.075C4.88333 8.99167 5.45833 8.95 6.175 8.95C6.90833 8.95 7.50833 8.99167 7.975 9.075C8.24167 9.125 8.375 9.28333 8.375 9.55V12.65C8.375 12.7333 8.35833 12.8083 8.325 12.875C8.29167 12.9417 8.24167 13 8.175 13.05C8.10833 13.1 8.04167 13.125 7.975 13.125C7.125 13.2583 6.00833 13.2583 4.625 13.125C4.375 13.1083 4.23333 12.9667 4.2 12.7C4.01667 11.1 3.96667 10.025 4.05 9.475C4.08333 9.24167 4.21667 9.10833 4.45 9.075ZM7.4 9.975C6.58333 9.89167 5.775 9.89167 4.975 9.975C4.95833 10.4583 5.00833 11.2 5.125 12.2C6.025 12.2667 6.78333 12.275 7.4 12.225V9.975ZM13.425 14.925C13.8083 14.8583 14.3167 14.825 14.95 14.825C15.5833 14.825 16.125 14.8583 16.575 14.925C16.8083 14.9583 16.9417 15.1 16.975 15.35C17.0583 16.0333 17.0583 17.1 16.975 18.55C16.975 18.6333 16.95 18.7083 16.9 18.775C16.85 18.8417 16.7917 18.9 16.725 18.95C16.6583 18.9833 16.575 19 16.475 19H13.675C13.5417 19 13.425 18.9583 13.325 18.875C13.2417 18.775 13.1917 18.6667 13.175 18.55C13.075 16.85 13.025 15.8 13.025 15.4C13.025 15.1333 13.1583 14.975 13.425 14.925ZM16.05 15.85C15.35 15.7833 14.675 15.775 14.025 15.825C14.0417 16.2917 14.075 17.025 14.125 18.025H16.025C16.075 17.1083 16.0833 16.3833 16.05 15.85ZM10.6 6.05C10.6 5.95 10.6333 5.85833 10.7 5.775C10.7833 5.69167 10.875 5.65 10.975 5.65C11.0917 5.65 11.1833 5.69167 11.25 5.775C11.3333 5.85833 11.375 5.95 11.375 6.05C11.375 10.5167 11.4083 15.7167 11.475 21.65C11.475 21.7667 11.4333 21.8583 11.35 21.925C11.2833 22.0083 11.1917 22.05 11.075 22.05C10.975 22.05 10.8833 22.0083 10.8 21.925C10.7333 21.8583 10.7 21.7667 10.7 21.65C10.6333 15.7167 10.6 10.5167 10.6 6.05Z" fill="#E41B23"/>
</svg>
