<svg width="17" height="23" viewBox="0 0 17 23" fill="none" xmlns="http://www.w3.org/2000/svg">
<path d="M8.975 0.949998C11.425 0.949998 13.3417 1.64167 14.725 3.025C16.1083 4.40833 16.8 6.35833 16.8 8.875C16.8 11.0917 16.1917 13.25 14.975 15.35C13.775 17.4333 11.95 19.6 9.5 21.85C9.35 21.9833 9.16667 22.05 8.95 22.05C8.75 22.05 8.575 21.975 8.425 21.825C8.375 21.775 8.03333 21.4417 7.4 20.825C6.76667 20.2083 6.36667 19.8167 6.2 19.65C5.38333 18.8333 4.70833 18.1333 4.175 17.55C2.875 16.1167 1.91667 14.7667 1.3 13.5C0.7 12.2167 0.4 10.875 0.4 9.475C0.4 6.825 1.13333 4.74167 2.6 3.225C4.08333 1.70833 6.20833 0.949998 8.975 0.949998ZM7.3 18.55C7.46667 18.7 8.03333 19.2417 9 20.175C11.0833 18.1917 12.6417 16.2833 13.675 14.45C14.725 12.6167 15.25 10.7583 15.25 8.875C15.25 6.79167 14.7083 5.21667 13.625 4.15C12.5417 3.06667 10.9917 2.525 8.975 2.525C6.65833 2.525 4.90833 3.125 3.725 4.325C2.55833 5.525 1.975 7.24167 1.975 9.475C1.975 10.6583 2.24167 11.8 2.775 12.9C3.30833 14 4.15833 15.2 5.325 16.5C5.84167 17.0667 6.5 17.75 7.3 18.55ZM10.125 9.525C9.675 9.975 9.125 10.2 8.475 10.2C7.825 10.2 7.26667 9.975 6.8 9.525C6.35 9.05833 6.125 8.5 6.125 7.85C6.125 7.2 6.35 6.65 6.8 6.2C7.26667 5.73333 7.825 5.5 8.475 5.5C9.125 5.5 9.675 5.73333 10.125 6.2C10.5917 6.65 10.825 7.2 10.825 7.85C10.825 8.5 10.5917 9.05833 10.125 9.525Z" fill="#E41B23"/>
</svg>
