<svg width="23" height="20" viewBox="0 0 23 20" fill="none" xmlns="http://www.w3.org/2000/svg">
<path d="M11 2.05C11 1.66667 11.0083 1.28333 11.025 0.899999C11.025 0.683333 11.1 0.5 11.25 0.35C11.4167 0.2 11.6 0.125 11.8 0.125C12.0167 0.125 12.2 0.208333 12.35 0.374999C12.5 0.525 12.575 0.708333 12.575 0.925C12.5583 1.30833 12.55 1.68333 12.55 2.05C14.9833 2.03333 17.3833 1.925 19.75 1.725C19.9667 1.70833 20.1583 1.76667 20.325 1.9C20.4917 2.03333 20.5833 2.20833 20.6 2.425C20.6167 2.64167 20.55 2.83333 20.4 3C20.2667 3.16667 20.0917 3.25833 19.875 3.275C19.7583 3.29167 19.6333 3.3 19.5 3.3C19.9667 4.11667 20.6 5.775 21.4 8.275L21.8 8.3C22.0167 8.3 22.1917 8.375 22.325 8.525C22.475 8.675 22.55 8.85833 22.55 9.075C22.55 10.3083 22.2 11.275 21.5 11.975C20.8 12.675 19.7833 13.025 18.45 13.025C17.1167 13.0083 16.0333 12.5917 15.2 11.775C14.3667 10.9583 13.95 9.94167 13.95 8.725C13.95 8.49167 14.0333 8.3 14.2 8.15C14.3667 8 14.5583 7.93333 14.775 7.95L15.6 7.975C16.3 5.775 16.8667 4.26667 17.3 3.45C15.7167 3.55 14.125 3.6 12.525 3.6C12.425 9.73333 12.4833 14.2833 12.7 17.25C12.7 17.3833 12.675 17.5083 12.625 17.625C13.6917 17.5917 14.7583 17.5167 15.825 17.4C16.025 17.3667 16.2083 17.4167 16.375 17.55C16.5583 17.6833 16.6583 17.8583 16.675 18.075C16.7083 18.2917 16.6583 18.4833 16.525 18.65C16.3917 18.8167 16.2167 18.9167 16 18.95C13.1167 19.2833 10.1917 19.2833 7.225 18.95C7.00833 18.9167 6.83333 18.8167 6.7 18.65C6.56667 18.4833 6.50833 18.2917 6.525 18.075C6.55833 17.8583 6.65833 17.6833 6.825 17.55C6.99167 17.4167 7.18333 17.3667 7.4 17.4C8.68333 17.5333 9.95 17.6083 11.2 17.625C11.1667 17.5417 11.1417 17.4583 11.125 17.375C10.9083 14.3583 10.85 9.76667 10.95 3.6C9.41667 3.6 7.9 3.55833 6.4 3.475C6.46667 3.625 6.53333 3.79167 6.6 3.975C6.91667 4.79167 7.25 5.99167 7.6 7.575L8.05 7.55C8.28333 7.53333 8.475 7.60833 8.625 7.775C8.79167 7.925 8.875 8.10833 8.875 8.325C8.875 9.69167 8.51667 10.775 7.8 11.575C7.08333 12.3583 6.05833 12.7 4.725 12.6C2.025 12.4 0.675 11.0917 0.675 8.675C0.675 8.475 0.741667 8.3 0.875 8.15C1.025 8 1.2 7.91667 1.4 7.9L2 7.875C2.86667 5.65833 3.56667 4.13333 4.1 3.3C4.01667 3.3 3.94167 3.3 3.875 3.3C3.80833 3.28333 3.75833 3.275 3.725 3.275C3.50833 3.25833 3.325 3.16667 3.175 3C3.04167 2.83333 2.98333 2.64167 3 2.425C3.03333 2.20833 3.13333 2.03333 3.3 1.9C3.46667 1.76667 3.65833 1.70833 3.875 1.725C3.90833 1.725 3.95833 1.725 4.025 1.725C4.14167 1.74167 4.275 1.75833 4.425 1.775C4.90833 1.80833 5.44167 1.84167 6.025 1.875C7.65833 1.975 9.31667 2.03333 11 2.05ZM6.55 7.625C6.21667 6.175 5.90833 5.075 5.625 4.325C5.49167 3.94167 5.36667 3.65833 5.25 3.475C5.03333 3.725 4.775 4.15 4.475 4.75C4.10833 5.51667 3.66667 6.53333 3.15 7.8L6.55 7.625ZM7.225 9.225C7.15833 9.225 7.1 9.20833 7.05 9.175L2.3 9.425C2.4 9.94167 2.64167 10.325 3.025 10.575C3.425 10.825 4.025 10.9833 4.825 11.05C6.19167 11.15 6.99167 10.5417 7.225 9.225ZM20.275 8.225C19.7583 6.60833 19.3167 5.375 18.95 4.525C18.75 4.09167 18.5833 3.76667 18.45 3.55C18.3 3.76667 18.1333 4.09167 17.95 4.525C17.5833 5.34167 17.1583 6.50833 16.675 8.025L20.275 8.225ZM20.925 9.8L15.625 9.55C15.7917 10.1167 16.1167 10.575 16.6 10.925C17.1 11.275 17.7167 11.45 18.45 11.45C19.8833 11.4667 20.7083 10.9167 20.925 9.8Z" fill="#E41B23"/>
</svg>
