<svg width="80" height="79" viewBox="0 0 80 79" fill="none" xmlns="http://www.w3.org/2000/svg">
<path d="M35.4028 58.9206C30.9805 61.0994 28.1793 61.9788 26.9993 61.5588C25.0379 60.8328 23.6713 59.5794 22.8997 57.7984C22.1531 55.9739 22.4731 54.4894 23.8597 53.3449C24.9329 52.542 25.6632 51.3524 26.0507 49.7762C26.4382 48.2 26.3473 46.8992 25.7781 45.8738L22.728 40.6726C21.1718 37.8872 20.4264 35.1053 20.4918 32.327C20.5915 29.5396 21.499 27.0878 23.2142 24.9718C23.1063 24.7062 22.9719 24.411 22.8112 24.0859C22.5149 23.3923 22.3183 22.7272 22.2213 22.0906C21.7004 19.3222 22.6257 17.4178 24.9973 16.3775C27.5405 15.2911 29.7337 15.4396 31.5768 16.8231C32.4066 17.4473 33.0672 18.2642 33.5586 19.2737C36.7734 18.6331 39.6676 18.9251 42.2411 20.1496C44.8398 21.3306 46.9356 23.3825 48.5286 26.3054L51.438 31.5995C52.363 33.2657 54.2097 33.8384 56.978 33.3174C57.9581 33.1285 58.9443 33.3059 59.9367 33.8498C60.9542 34.3502 61.7681 35.0524 62.3784 35.9563C63.0138 36.8167 63.4399 37.7885 63.6564 38.8715C63.8982 39.9111 63.8271 40.8135 63.4432 41.579C62.8012 42.8921 57.112 46.6619 46.3755 52.8885C42.8393 54.9403 39.8616 56.6032 37.4422 57.8772C37.5385 57.9618 37.6223 58.0682 37.6934 58.1964C37.7989 58.3154 37.94 58.4984 38.1166 58.7456C38.5478 59.2558 39.0121 59.6835 39.5096 60.0288C40.8963 60.9456 42.3909 61.0972 43.9934 60.4838C46.024 59.682 47.2318 58.4197 47.6168 56.697C47.7216 56.264 47.7612 55.7932 47.7353 55.2848C47.6985 55.1474 47.6743 54.9883 47.6626 54.8074C47.6534 54.773 47.635 54.7043 47.6074 54.6013C47.5497 54.2487 47.6135 53.9371 47.7987 53.6666C48.0182 53.3869 48.2871 53.2229 48.6054 53.1744C48.9489 53.0824 49.2558 53.1289 49.5263 53.3141C49.8404 53.5245 50.0216 53.7888 50.0701 54.1071C50.0977 54.2101 50.1081 54.3177 50.1014 54.43C50.1658 54.6704 50.2084 54.8982 50.2293 55.1135C50.276 55.8372 50.2276 56.5495 50.0842 57.2506C49.5238 59.8301 47.7911 61.6748 44.886 62.7845C42.4525 63.731 40.1974 63.4887 38.1206 62.0574C37.0043 61.3258 36.1444 60.452 35.5408 59.4358C35.4605 59.2732 35.4145 59.1015 35.4028 58.9206ZM25.0843 23.0903C26.1735 22.2095 27.4071 21.4557 28.7851 20.8288C29.5474 20.5141 30.3143 20.2166 31.0858 19.9362C30.7853 19.5014 30.4424 19.1148 30.0572 18.7763C29.0004 17.9919 27.6456 17.95 25.9928 18.6506C24.846 19.1787 24.3926 20.1653 24.6325 21.6102C24.727 22.1002 24.8776 22.5936 25.0843 23.0903ZM60.456 40.1156C60.6639 39.655 60.3928 38.9178 59.6426 37.9041C58.9268 36.8812 58.2552 36.4354 57.6278 36.5667C53.2955 37.433 50.2709 36.3109 48.554 33.2004L45.5932 27.9202C44.0186 25.066 41.9231 23.29 39.3067 22.5923C36.7247 21.8854 33.6744 22.3162 30.1561 23.8847C26.9719 25.3269 24.9807 27.4432 24.1825 30.2338C23.4093 32.9809 23.8812 35.9096 25.5981 39.0202L28.6997 44.2075C29.6615 46.0111 29.8564 48.1123 29.2844 50.5109C28.7375 52.8661 27.5911 54.7008 25.8452 56.0153C25.8385 56.1275 25.8719 56.321 25.9455 56.5958C26.0443 56.827 26.2954 57.1462 26.699 57.5534C27.1278 57.917 27.5896 58.1982 28.0846 58.3969C28.0067 58.3809 28.0192 58.3591 28.1223 58.3315C28.397 58.2579 28.7874 58.1349 29.2933 57.9625C30.296 57.5834 31.6443 56.9829 33.3382 56.1609C36.4009 54.6777 40.1958 52.6302 44.723 50.0184C48.7969 47.6384 52.468 45.4032 55.7361 43.3128C57.2717 42.3124 58.4869 41.4899 59.3816 40.8452C59.8164 40.5446 60.1528 40.2889 60.3907 40.0779L60.456 40.1156Z" fill="#E41B23"/>
</svg>
