<svg width="16" height="9" viewBox="0 0 16 9" fill="none" xmlns="http://www.w3.org/2000/svg">
<path d="M7.68 6.24C7.78667 6.32 7.87333 6.38 7.94 6.42C8.02 6.38 8.11333 6.32 8.22 6.24C8.54 6.01333 8.94667 5.66 9.44 5.18C10.48 4.20667 11.8867 2.73333 13.66 0.759999C13.8067 0.599999 13.9867 0.52 14.2 0.52C14.4267 0.506666 14.62 0.573333 14.78 0.719999C14.94 0.853333 15.02 1.03333 15.02 1.26C15.0333 1.47333 14.9667 1.66 14.82 1.82C12.82 4.03333 11.2933 5.62 10.24 6.58C9.18667 7.54 8.42 8.02 7.94 8.02C7.44667 8.02 6.68 7.52667 5.64 6.54C4.61333 5.54 3.12 3.88 1.16 1.56C1.06667 1.45333 1.00667 1.33333 0.98 1.2C0.953333 1.05333 0.96 0.92 1 0.799999C1.05333 0.666666 1.13333 0.553333 1.24 0.46C1.41333 0.326666 1.60667 0.266666 1.82 0.28C2.03333 0.293333 2.20667 0.386666 2.34 0.56C4.08667 2.6 5.46667 4.12667 6.48 5.14C6.97333 5.63333 7.37333 6 7.68 6.24Z" fill="#E41B23"/>
</svg>
