<svg width="18" height="20" viewBox="0 0 18 20" fill="none" xmlns="http://www.w3.org/2000/svg">
<path d="M11.76 3.056C11.76 3.264 11.68 3.44 11.52 3.584C11.376 3.728 11.2 3.8 10.992 3.8C10.864 3.8 10.736 3.768 10.608 3.704C10.496 3.64 10.408 3.552 10.344 3.44C10.28 3.312 10.248 3.184 10.248 3.056C10.248 2.736 10.208 2.464 10.128 2.24C9.968 1.808 9.616 1.616 9.072 1.664C8.48 1.712 8.088 1.936 7.896 2.336C7.8 2.528 7.752 2.768 7.752 3.056C7.752 3.184 7.72 3.312 7.656 3.44C7.592 3.552 7.496 3.64 7.368 3.704C7.256 3.768 7.136 3.8 7.008 3.8C6.8 3.8 6.616 3.728 6.456 3.584C6.312 3.44 6.24 3.264 6.24 3.056C6.24 2.544 6.344 2.08 6.552 1.664C6.984 0.767999 7.776 0.271999 8.928 0.175999C9.584 0.111999 10.128 0.223999 10.56 0.511999C11.008 0.783999 11.336 1.192 11.544 1.736C11.688 2.12 11.76 2.56 11.76 3.056ZM15.96 5.024C15.8 7.92 15.624 10.28 15.432 12.104C15.256 13.928 15.04 15.368 14.784 16.424C14.544 17.48 14.256 18.152 13.92 18.44C13.488 18.824 12.544 19.096 11.088 19.256C9.632 19.416 8.176 19.416 6.72 19.256C5.264 19.112 4.304 18.84 3.84 18.44C3.328 18.008 2.936 16.752 2.664 14.672C2.392 12.576 2.176 9.36 2.016 5.024C1.872 5.024 1.72 5.032 1.56 5.048C1.288 5.064 1.048 4.984 0.84 4.808C0.632 4.632 0.52 4.408 0.504 4.136C0.488 3.848 0.568 3.6 0.744 3.392C0.92 3.184 1.152 3.072 1.44 3.056C3.952 2.88 6.472 2.792 9 2.792C11.528 2.792 14.048 2.88 16.56 3.056C16.752 3.072 16.92 3.128 17.064 3.224C17.208 3.32 17.32 3.448 17.4 3.608C17.48 3.768 17.512 3.936 17.496 4.112C17.48 4.4 17.368 4.632 17.16 4.808C16.952 4.984 16.712 5.064 16.44 5.048C16.28 5.032 16.12 5.024 15.96 5.024ZM13.968 4.904C10.656 4.744 7.336 4.744 4.008 4.904C4.104 7.24 4.216 9.328 4.344 11.168C4.472 12.992 4.6 14.384 4.728 15.344C4.872 16.288 5.008 16.816 5.136 16.928C5.264 17.024 5.696 17.12 6.432 17.216C7.184 17.312 8.008 17.36 8.904 17.36C9.768 17.36 10.568 17.312 11.304 17.216C12.056 17.12 12.488 17.024 12.6 16.928C12.728 16.832 12.864 16.304 13.008 15.344C13.168 14.384 13.328 12.992 13.488 11.168C13.664 9.328 13.824 7.24 13.968 4.904Z" fill="#E41B23"/>
</svg>
