<svg width="24" height="24" viewBox="0 0 24 24" fill="none" xmlns="http://www.w3.org/2000/svg">
<path d="M17.533 17.9533C17.4841 18.1191 17.4493 18.2599 17.4015 18.3958C17.0983 19.2594 16.4532 19.6804 15.6244 19.85C14.9635 19.9867 14.2774 19.8503 13.7121 19.4697C13.1579 19.1148 12.8908 18.5792 12.8366 17.8835C12.7272 17.8738 12.6174 17.8562 12.5074 17.8553C10.1143 17.836 7.72119 17.8225 5.3282 17.7975C4.80495 17.792 4.2814 17.7554 3.75949 17.7135C3.61926 17.7049 3.48536 17.65 3.37736 17.5569C3.2882 17.4517 3.23667 17.3179 3.23145 17.178C3.22209 17.015 3.34773 16.9219 3.49895 16.8874C3.57344 16.8701 3.64936 16.8603 3.72567 16.8581C4.67154 16.8388 5.61733 16.8163 6.56327 16.8054C8.3676 16.7847 10.1719 16.7679 11.9762 16.755C12.3591 16.7518 12.7422 16.7546 13.0791 16.7546C13.3466 16.4308 13.5644 16.1161 13.831 15.8548C14.4842 15.2147 15.2724 15.0781 16.1147 15.3259C16.7036 15.4993 17.1288 15.8797 17.252 16.5433C17.264 16.6077 17.2904 16.6693 17.3279 16.7893C17.4483 16.7893 17.5843 16.7877 17.7202 16.7893C18.5264 16.8003 19.3326 16.807 20.1386 16.8278C20.317 16.8333 20.4935 16.8666 20.6623 16.9263C20.7672 16.9616 20.8575 17.0327 20.9185 17.1279C20.9797 17.223 21.008 17.3368 20.9991 17.4508C21.0014 17.5585 20.9697 17.6641 20.9088 17.7514C20.8479 17.8387 20.7612 17.903 20.6618 17.9344C20.4916 17.9885 20.3142 18.0143 20.1362 18.0109C19.4068 18 18.6777 17.9731 17.9484 17.9535C17.8214 17.9504 17.694 17.9533 17.533 17.9533ZM16.3748 17.41C16.3729 17.0219 16.285 16.6356 16.1123 16.3979C16.0456 16.3068 15.9513 16.2416 15.8446 16.2126C15.0897 16.0552 14.2828 16.6496 14.0893 17.3437C13.9213 17.9464 14.1056 18.3277 14.673 18.5425C15.6058 18.8958 16.3796 18.3812 16.3748 17.4102V17.41Z" fill="white"/>
<path d="M9.76363 11.1649C10.1323 11.1649 10.4635 11.1733 10.7942 11.1635C12.3555 11.1173 13.9171 11.068 15.4787 11.0156C16.9122 10.9656 18.3452 10.9048 19.7787 10.8516C19.9573 10.8383 20.1368 10.842 20.3149 10.8627C20.4438 10.877 20.5636 10.9384 20.653 11.0359C20.7423 11.1334 20.7954 11.2606 20.8026 11.3949C20.8052 11.6373 20.639 11.8446 20.3582 11.9227C20.2342 11.9544 20.1071 11.9708 19.9795 11.9713C17.6623 12.0249 15.3452 12.0769 13.0282 12.1276C11.9912 12.1518 10.9544 12.1852 9.91755 12.2156C9.85499 12.2175 9.79266 12.2301 9.69801 12.2415C9.45333 13.4716 8.60953 13.9879 7.50353 13.9956C6.51584 14.0029 5.76707 13.4972 5.45079 12.4542C4.95207 12.431 4.46742 12.4148 3.98375 12.3824C3.80568 12.3686 3.62949 12.3356 3.45803 12.2838C3.38204 12.2645 3.31522 12.2176 3.26968 12.1516C3.22414 12.0856 3.20289 12.0049 3.20976 11.924C3.20937 11.8429 3.2379 11.7643 3.2899 11.7036C3.34189 11.6428 3.41367 11.6041 3.49148 11.5949C3.62975 11.5695 3.77011 11.5584 3.9105 11.5617C4.40846 11.5581 4.9065 11.5603 5.4094 11.5603C5.46178 11.4016 5.5039 11.2931 5.53361 11.1811C5.64793 10.7419 5.88298 10.3466 6.2101 10.0436C6.42144 9.85299 6.67693 9.72269 6.95147 9.66548C7.35448 9.59355 7.7639 9.56786 8.17232 9.58889C8.94347 9.61699 9.41442 10.079 9.66823 10.8075C9.70684 10.9192 9.72981 11.0367 9.76363 11.1649ZM7.41936 10.7019C7.26798 10.7371 7.00108 10.7346 6.80766 10.8571C6.34232 11.1521 6.35452 12.2603 6.81297 12.575C7.2308 12.8622 7.68139 12.8493 8.12563 12.6331C8.52527 12.4387 8.56868 12.0277 8.57571 11.6575C8.58566 11.1338 8.45996 10.7942 7.81362 10.7403C7.71238 10.7317 7.61061 10.7204 7.41936 10.7019Z" fill="white"/>
<path d="M14.203 6.78426C14.0862 6.78426 13.9976 6.78356 13.9091 6.78426C10.7988 6.81013 7.68851 6.83573 4.57842 6.86108C4.3097 6.86325 4.04098 6.85872 3.77225 6.84743C3.63156 6.84243 3.49163 6.82361 3.35436 6.79123C3.13198 6.7369 2.99385 6.57221 3.00021 6.38151C2.99924 6.28714 3.03039 6.19544 3.08818 6.12255C3.14596 6.04966 3.22668 6.00024 3.31612 5.983C3.46419 5.94343 3.6155 5.91828 3.76807 5.90782C7.06562 5.68816 10.3684 5.68115 13.6705 5.64855C13.8614 5.64668 14.0521 5.64855 14.251 5.64855C14.3218 5.49448 14.3843 5.36643 14.4402 5.23534C14.573 4.89942 14.819 4.62495 15.1323 4.46297C15.593 4.23252 16.0734 4.04479 16.5914 4.00754C17.4828 3.94335 18.025 4.31598 18.3231 5.18675C18.3605 5.29712 18.3946 5.40897 18.4409 5.55396C18.9024 5.53137 19.3597 5.50452 19.8172 5.48892C19.9826 5.47784 20.1486 5.48799 20.3115 5.51917C20.42 5.54056 20.5186 5.5987 20.5918 5.68447C20.665 5.77026 20.7087 5.87881 20.716 5.99312C20.7234 6.10744 20.6939 6.22106 20.6322 6.31613C20.5707 6.41121 20.4803 6.48237 20.3755 6.51848C20.2188 6.57493 20.0557 6.60987 19.8903 6.62235C19.3946 6.66807 18.8976 6.70034 18.3788 6.73962C18.072 7.88834 17.2682 8.35675 16.1893 8.32624C15.2252 8.29892 14.4922 7.85808 14.203 6.78426ZM15.1441 6.18584C15.0629 6.71922 15.5654 7.29162 16.1037 7.27315C16.907 7.2456 17.3859 6.7774 17.3856 6.15468C17.3856 5.45458 17.067 5.07701 16.321 5.04107C15.6128 5.007 15.1499 5.48108 15.1441 6.18584Z" fill="white"/>
</svg>
