<svg width="72" height="72" viewBox="0 0 72 72" fill="none" xmlns="http://www.w3.org/2000/svg">
<path d="M30.936 27.6C30.776 24.44 30.576 22.12 30.336 20.64C30.216 19.8 30.096 19.02 29.976 18.3C29.856 17.74 29.556 17.34 29.076 17.1C28.596 16.82 28.096 16.76 27.576 16.92C26.576 17.2 25.256 18.3 23.616 20.22C21.976 22.1 19.716 25.06 16.836 29.1C16.476 29.58 16.116 30.1 15.756 30.66C15.676 30.78 14.956 31.82 13.596 33.78C12.236 35.74 10.916 37.64 9.636 39.48C8.316 41.32 7.516 42.42 7.236 42.78C6.916 43.22 6.816 43.72 6.936 44.28C7.016 44.84 7.296 45.26 7.776 45.54C10.256 47.1 13.616 49.88 17.856 53.88C22.096 57.84 25.776 61.66 28.896 65.34C29.456 66.02 30.156 66.2 30.996 65.88C31.796 65.6 32.196 65.02 32.196 64.14V52.38C38.356 53.18 43.876 53.56 48.756 53.52C53.596 53.44 57.176 52.92 59.496 51.96C62.256 50.84 64.136 46.34 65.136 38.46C66.136 30.58 66.256 20.34 65.496 7.74C65.456 7.26 65.256 6.86 64.896 6.54C64.536 6.18 64.096 6 63.576 6H40.056C39.456 6 38.976 6.22 38.616 6.66C38.216 7.1 38.076 7.62 38.196 8.22C39.636 16.3 40.536 22.42 40.896 26.58C41.056 28.5 41.096 29.94 41.016 30.9H31.236C31.156 30.3 31.056 29.2 30.936 27.6ZM27.216 27.84C27.336 29.68 27.456 30.96 27.576 31.68C27.976 33.64 28.896 34.62 30.336 34.62H42.216C42.816 34.62 43.296 34.48 43.656 34.2C44.016 33.92 44.276 33.56 44.436 33.12C44.596 32.64 44.716 32.04 44.796 31.32C44.876 30.16 44.816 28.48 44.616 26.28C44.296 22.4 43.516 16.88 42.276 9.72H61.836C62.396 20.24 62.316 29.18 61.596 36.54C60.836 43.86 59.676 47.84 58.116 48.48C56.076 49.36 52.556 49.8 47.556 49.8C42.516 49.76 36.856 49.28 30.576 48.36C30.016 48.28 29.516 48.44 29.076 48.84C28.636 49.2 28.416 49.66 28.416 50.22V59.16C25.616 56.12 22.656 53.16 19.536 50.28C16.416 47.4 13.696 45.14 11.376 43.5C12.056 42.54 12.976 41.24 14.136 39.6C15.296 37.92 16.356 36.4 17.316 35.04C18.236 33.68 18.736 32.94 18.816 32.82C19.216 32.26 19.576 31.74 19.896 31.26C22.776 27.22 25.076 24.22 26.796 22.26C26.916 23.22 27.056 25.08 27.216 27.84Z" fill="white"/>
</svg>
