<svg width="17" height="21" viewBox="0 0 17 21" fill="none" xmlns="http://www.w3.org/2000/svg">
<path d="M8.976 0.671999C11.328 0.671999 13.168 1.336 14.496 2.664C15.824 3.992 16.488 5.864 16.488 8.28C16.488 10.408 15.904 12.48 14.736 14.496C13.584 16.496 11.832 18.576 9.48 20.736C9.336 20.864 9.16 20.928 8.952 20.928C8.76 20.928 8.592 20.856 8.448 20.712C8.4 20.664 8.072 20.344 7.464 19.752C6.856 19.16 6.472 18.784 6.312 18.624C5.528 17.84 4.88 17.168 4.368 16.608C3.12 15.232 2.2 13.936 1.608 12.72C1.032 11.488 0.744 10.2 0.744 8.856C0.744 6.312 1.448 4.312 2.856 2.856C4.28 1.4 6.32 0.671999 8.976 0.671999ZM7.368 17.568C7.528 17.712 8.072 18.232 9 19.128C11 17.224 12.496 15.392 13.488 13.632C14.496 11.872 15 10.088 15 8.28C15 6.28 14.48 4.768 13.44 3.744C12.4 2.704 10.912 2.184 8.976 2.184C6.752 2.184 5.072 2.76 3.936 3.912C2.816 5.064 2.256 6.712 2.256 8.856C2.256 9.992 2.512 11.088 3.024 12.144C3.536 13.2 4.352 14.352 5.472 15.6C5.968 16.144 6.6 16.8 7.368 17.568ZM10.08 8.904C9.648 9.336 9.12 9.552 8.496 9.552C7.872 9.552 7.336 9.336 6.888 8.904C6.456 8.456 6.24 7.92 6.24 7.296C6.24 6.672 6.456 6.144 6.888 5.712C7.336 5.264 7.872 5.04 8.496 5.04C9.12 5.04 9.648 5.264 10.08 5.712C10.528 6.144 10.752 6.672 10.752 7.296C10.752 7.92 10.528 8.456 10.08 8.904Z" fill="#8F8B86"/>
</svg>
