<svg width="32" height="32" viewBox="0 0 32 32" fill="none" xmlns="http://www.w3.org/2000/svg">
<path fill-rule="evenodd" clip-rule="evenodd" d="M14.0266 24.1066C14.2044 24.2666 14.8088 24.8444 15.84 25.8399C18.0622 23.7244 19.7244 21.6888 20.8266 19.7333C21.9466 17.7777 22.5066 15.7955 22.5066 13.7866C22.5066 11.5644 21.9289 9.88436 20.7733 8.74659C19.6177 7.59103 17.9644 7.01325 15.8133 7.01325C13.3422 7.01325 11.4755 7.65325 10.2133 8.93325C8.96885 10.2133 8.34663 12.0444 8.34663 14.4266C8.34663 15.6888 8.63107 16.9066 9.19996 18.0799C9.76885 19.2533 10.6755 20.5333 11.92 21.9199C12.4711 22.5244 13.1733 23.2533 14.0266 24.1066ZM15.28 15.1999C15.9733 15.1999 16.56 14.9599 17.04 14.4799C17.5377 13.9821 17.7866 13.3866 17.7866 12.6933C17.7866 11.9999 17.5377 11.4133 17.04 10.9333C16.56 10.4355 15.9733 10.1866 15.28 10.1866C14.5866 10.1866 13.9911 10.4355 13.4933 10.9333C13.0133 11.4133 12.7733 11.9999 12.7733 12.6933C12.7733 13.3866 13.0133 13.9821 13.4933 14.4799C13.9911 14.9599 14.5866 15.1999 15.28 15.1999Z" fill="#E41B23"/>
<path fill-rule="evenodd" clip-rule="evenodd" d="M21.9466 7.54659C20.4711 6.07103 18.4266 5.33325 15.8133 5.33325C12.8622 5.33325 10.5955 6.14214 9.01329 7.75992C7.44885 9.3777 6.66663 11.5999 6.66663 14.4266C6.66663 15.9199 6.98663 17.351 7.62663 18.7199C8.2844 20.071 9.30663 21.511 10.6933 23.0399C11.2622 23.6621 11.9822 24.4088 12.8533 25.2799C13.0311 25.4577 13.4577 25.8755 14.1333 26.5333C14.8088 27.191 15.1733 27.5466 15.2266 27.5999C15.3866 27.7599 15.5733 27.8399 15.7866 27.8399C16.0177 27.8399 16.2133 27.7688 16.3733 27.6266C18.9866 25.2266 20.9333 22.9155 22.2133 20.6933C23.5111 18.4533 24.16 16.151 24.16 13.7866C24.16 11.1021 23.4222 9.02214 21.9466 7.54659ZM15.84 25.8399C14.8088 24.8444 14.2044 24.2666 14.0266 24.1066C13.1733 23.2533 12.4711 22.5244 11.92 21.9199C10.6755 20.5333 9.76885 19.2533 9.19996 18.0799C8.63107 16.9066 8.34663 15.6888 8.34663 14.4266C8.34663 12.0444 8.96885 10.2133 10.2133 8.93325C11.4755 7.65325 13.3422 7.01325 15.8133 7.01325C17.9644 7.01325 19.6177 7.59103 20.7733 8.74659C21.9289 9.88436 22.5066 11.5644 22.5066 13.7866C22.5066 15.7955 21.9466 17.7777 20.8266 19.7333C19.7244 21.6888 18.0622 23.7244 15.84 25.8399Z" fill="#E41B23"/>
</svg>
