<svg width="32" height="32" viewBox="0 0 32 32" fill="none" xmlns="http://www.w3.org/2000/svg">
<path d="M15.8133 5.33325C18.4266 5.33325 20.4711 6.07103 21.9466 7.54659C23.4222 9.02214 24.16 11.1021 24.16 13.7866C24.16 16.151 23.5111 18.4533 22.2133 20.6933C20.9333 22.9155 18.9866 25.2266 16.3733 27.6266C16.2133 27.7688 16.0177 27.8399 15.7866 27.8399C15.5733 27.8399 15.3866 27.7599 15.2266 27.5999C15.1733 27.5466 14.8088 27.191 14.1333 26.5333C13.4577 25.8755 13.0311 25.4577 12.8533 25.2799C11.9822 24.4088 11.2622 23.6621 10.6933 23.0399C9.30663 21.511 8.2844 20.071 7.62663 18.7199C6.98663 17.351 6.66663 15.9199 6.66663 14.4266C6.66663 11.5999 7.44885 9.3777 9.01329 7.75992C10.5955 6.14214 12.8622 5.33325 15.8133 5.33325ZM14.0266 24.1066C14.2044 24.2666 14.8088 24.8444 15.84 25.8399C18.0622 23.7244 19.7244 21.6888 20.8266 19.7333C21.9466 17.7777 22.5066 15.7955 22.5066 13.7866C22.5066 11.5644 21.9289 9.88436 20.7733 8.74659C19.6177 7.59103 17.9644 7.01325 15.8133 7.01325C13.3422 7.01325 11.4755 7.65325 10.2133 8.93325C8.96885 10.2133 8.34663 12.0444 8.34663 14.4266C8.34663 15.6888 8.63107 16.9066 9.19996 18.0799C9.76885 19.2533 10.6755 20.5333 11.92 21.9199C12.4711 22.5244 13.1733 23.2533 14.0266 24.1066ZM17.04 14.4799C16.56 14.9599 15.9733 15.1999 15.28 15.1999C14.5866 15.1999 13.9911 14.9599 13.4933 14.4799C13.0133 13.9821 12.7733 13.3866 12.7733 12.6933C12.7733 11.9999 13.0133 11.4133 13.4933 10.9333C13.9911 10.4355 14.5866 10.1866 15.28 10.1866C15.9733 10.1866 16.56 10.4355 17.04 10.9333C17.5377 11.4133 17.7866 11.9999 17.7866 12.6933C17.7866 13.3866 17.5377 13.9821 17.04 14.4799Z" fill="#E41B23"/>
</svg>
