<svg width="40" height="40" viewBox="0 0 40 40" fill="none" xmlns="http://www.w3.org/2000/svg">
<path d="M24.0348 25.8663C22.0348 27.1774 19.8681 27.8329 17.5348 27.8329C14.8015 27.8329 12.4792 27.0996 10.5681 25.6329C8.65703 24.144 7.50147 21.9774 7.10147 19.1329C6.85703 17.5329 6.97925 15.9329 7.46814 14.3329C7.97925 12.7329 8.71258 11.344 9.66814 10.1663C10.6459 8.98848 11.8348 8.03292 13.2348 7.29959C14.6348 6.56625 16.0681 6.19958 17.5348 6.19958C20.8904 6.19958 23.6126 7.15514 25.7015 9.06625C27.7904 10.9774 28.8459 13.6329 28.8681 17.0329C28.8681 19.7885 27.9237 22.1774 26.0348 24.1996L31.9681 30.0996C32.2126 30.3663 32.3348 30.6774 32.3348 31.0329C32.3348 31.3885 32.2015 31.6885 31.9348 31.9329C31.6904 32.1996 31.3904 32.3329 31.0348 32.3329C30.6793 32.3329 30.3681 32.2107 30.1015 31.9663L24.0348 25.8663ZM23.6015 22.8663C25.3792 21.2663 26.2681 19.3218 26.2681 17.0329C26.2459 14.3885 25.4459 12.3551 23.8681 10.9329C22.3126 9.5107 20.2015 8.79959 17.5348 8.79959C16.0904 8.79959 14.7126 9.27736 13.4015 10.2329C12.0904 11.1663 11.0792 12.4107 10.3681 13.9663C9.67925 15.5218 9.44591 17.1218 9.66814 18.7663C9.97925 20.9218 10.8348 22.544 12.2348 23.6329C13.657 24.6996 15.4237 25.2329 17.5348 25.2329C19.5348 25.2329 21.357 24.6218 23.0015 23.3996C23.0459 23.3107 23.1015 23.2329 23.1681 23.1663C23.3015 23.0329 23.4459 22.9329 23.6015 22.8663Z" fill="white"/>
</svg>
