<svg xmlns="http://www.w3.org/2000/svg" width="36.782" height="43.32"><g data-name="_icon/explanation/arrow/r"><path data-name="Combined Shape" d="M6.698 31.233a75.949 75.949 0 001.743 1.483 75.862 75.862 0 004.1 3.166 43.75 43.75 0 003.322 2.175c2.621 1.528 4.702 2.253 6.374 1.888 1.761-.383 3.59-2.48 5.954-6.123q.645-.993 1.313-2.113c.927-1.54 1.844-3.165 2.703-4.774.303-.565.577-1.087.818-1.553.146-.283.25-.481.304-.6a1.655 1.655 0 00-.71-2.208 1.607 1.607 0 00-2.173.729 103.915 103.915 0 01-1.08 2.07 112.826 112.826 0 01-2.622 4.638c-.431.71-.846 1.383-1.255 2.012a35.688 35.688 0 01-2.297 3.176c-3.74-8.674-4.748-23.466-2.18-30.917a1.651 1.651 0 00-.996-2.093 1.612 1.612 0 00-2.063 1.01c-2.846 8.267-1.782 23.913 2.277 33.323a15.68 15.68 0 01-2.752-1.316 37.846 37.846 0 01-3.07-2.01 72.773 72.773 0 01-3.92-3.03 82.606 82.606 0 01-1.21-1.021c-.213-.184-.362-.317-.436-.382a1.6 1.6 0 00-2.29.15 1.661 1.661 0 00-.35 1.51 1.641 1.641 0 00.496.81z" fill="#e41b23"/></g></svg>