<svg xmlns="http://www.w3.org/2000/svg" width="29.728" height="37.39"><defs><clipPath id="a"><path data-name="Rectangle 9" transform="translate(-5 -5)" fill="#fff" d="M0 0h29.728v37.39H0z"/></clipPath></defs><g data-name="Group 56" transform="translate(5 5)" clip-path="url(#a)" fill="#fff"><path data-name="Path 73" d="M19.248 17.933c-.056.048-.156.136-.3.256a47.63 47.63 0 01-3.351 2.605 26.94 26.94 0 01-2.075 1.338c-1.636.941-2.936 1.388-3.982 1.168-1.1-.238-2.242-1.529-3.719-3.772q-.408-.612-.821-1.3a62.617 62.617 0 01-1.689-2.939c-.184-.347-.36-.67-.511-.957l-.19-.365a1.012 1.012 0 011.8-.919c.031.061.091.18.178.345.146.279.313.592.5.929a62.997 62.997 0 001.639 2.848c.266.436.529.852.784 1.239a21.975 21.975 0 001.433 1.964c2.342-5.341 2.966-14.442 1.364-19.028a1.012 1.012 0 011.91-.667c1.778 5.085 1.113 14.722-1.422 20.512a9.854 9.854 0 001.72-.811c.594-.34 1.238-.757 1.918-1.237a45.333 45.333 0 002.449-1.864 34.491 34.491 0 001.029-.863 1.012 1.012 0 111.336 1.52z"/><path data-name="Path 74" d="M1.054 28.39a1.055 1.055 0 01-.1-2.105l1.073-.106c1.837-.184 3.288-.329 5.57-.416 3.69-.14 7.434-.122 11.128.054a1.055 1.055 0 01-.1 2.108 128.102 128.102 0 00-10.947-.053c-2.217.084-3.639.227-5.44.407l-1.078.107h-.1"/></g></svg>