<svg data-name="Group 31" xmlns="http://www.w3.org/2000/svg" width="173.657" height="78.047"><defs><clipPath id="a"><path data-name="Rectangle 7" fill="none" d="M0 0h173.657v78.047H0z"/></clipPath></defs><g data-name="Group 30" clip-path="url(#a)"><path data-name="Path 48" d="M51.731 19.288a16.091 16.091 0 01-7.706 1.841 10.887 10.887 0 01-3.958-.7 8.878 8.878 0 01-5.142-5.037 10.334 10.334 0 01-.737-3.971 10.787 10.787 0 01.737-4.064 9.131 9.131 0 012.039-3.117 8.943 8.943 0 013.1-1.985 10.887 10.887 0 013.958-.7 15.043 15.043 0 014 .513 8.234 8.234 0 013.34 1.828l-2.446 2.479a6.13 6.13 0 00-2.17-1.341 7.68 7.68 0 00-2.7-.474 6.451 6.451 0 00-2.617.513 6 6 0 00-2.012 1.42 6.449 6.449 0 00-1.3 2.117 7.261 7.261 0 00-.46 2.6 8 8 0 00.463 2.77 6.478 6.478 0 001.3 2.183 6.052 6.052 0 002.012 1.446 6.305 6.305 0 002.617.526 11.5 11.5 0 002.38-.236 6.771 6.771 0 001.985-.737v-4.396h-3.811v-3h7.128z" fill="#d9000d"/><path data-name="Path 49" d="M57.885 15.448a3.206 3.206 0 001.1 2.209 3.46 3.46 0 002.289.789 3.765 3.765 0 001.985-.486 5.5 5.5 0 001.407-1.223l2.262 1.709a6.406 6.406 0 01-2.473 1.947 7.3 7.3 0 01-2.866.578 7.581 7.581 0 01-2.683-.473 6.434 6.434 0 01-2.183-1.341 6.359 6.359 0 01-1.46-2.091 7.144 7.144 0 010-5.444 6.357 6.357 0 011.46-2.091 6.427 6.427 0 012.183-1.341 7.572 7.572 0 012.683-.474 6.148 6.148 0 012.407.46 5.179 5.179 0 011.867 1.328 6.141 6.141 0 011.209 2.144 9.086 9.086 0 01.434 2.933v.868zm6.47-2.367a2.971 2.971 0 00-.868-2.2 3.255 3.255 0 00-2.34-.8 3.069 3.069 0 00-2.249.815 3.638 3.638 0 00-1.012 2.183z" fill="#d9000d"/><path data-name="Path 50" d="M70.325 8.032h3v1.972h.053a4.272 4.272 0 011.355-1.591 4.106 4.106 0 012.511-.7 3.84 3.84 0 013.945 2.341 4.461 4.461 0 011.709-1.775 5 5 0 012.446-.566 4.864 4.864 0 012.13.421 3.732 3.732 0 011.407 1.157 4.763 4.763 0 01.776 1.722 9.054 9.054 0 01.237 2.118v7.522h-3.156v-7.151a5.828 5.828 0 00-.106-1.118 2.683 2.683 0 00-.368-.946 1.874 1.874 0 00-.71-.645 2.476 2.476 0 00-1.157-.236 2.606 2.606 0 00-1.249.276 2.444 2.444 0 00-.842.737 3.009 3.009 0 00-.473 1.052 5.006 5.006 0 00-.145 1.2v6.838h-3.156v-7.526a3.171 3.171 0 00-.5-1.881 1.9 1.9 0 00-1.657-.7 3.018 3.018 0 00-1.328.263 2.553 2.553 0 00-.894.71 2.831 2.831 0 00-.512 1.026 4.55 4.55 0 00-.158 1.21v6.891h-3.158z" fill="#d9000d"/><path data-name="Path 51" d="M95.863 15.448a3.206 3.206 0 001.1 2.209 3.459 3.459 0 002.289.789 3.765 3.765 0 001.985-.486 5.5 5.5 0 001.407-1.223l2.262 1.709a6.406 6.406 0 01-2.473 1.947 7.3 7.3 0 01-2.866.578 7.581 7.581 0 01-2.683-.473 6.434 6.434 0 01-2.183-1.341 6.358 6.358 0 01-1.46-2.091 7.144 7.144 0 010-5.444 6.357 6.357 0 011.46-2.091 6.427 6.427 0 012.183-1.341 7.572 7.572 0 012.683-.474 6.148 6.148 0 012.407.46 5.178 5.178 0 011.867 1.328 6.141 6.141 0 011.209 2.144 9.087 9.087 0 01.434 2.933v.868zm6.47-2.367a2.971 2.971 0 00-.868-2.2 3.256 3.256 0 00-2.34-.8 3.069 3.069 0 00-2.249.815 3.638 3.638 0 00-1.012 2.183z" fill="#d9000d"/><path data-name="Path 52" d="M110.958 15.448a3.206 3.206 0 001.1 2.209 3.46 3.46 0 002.289.789 3.765 3.765 0 001.985-.486 5.5 5.5 0 001.407-1.223l2.262 1.709a6.406 6.406 0 01-2.473 1.947 7.3 7.3 0 01-2.866.578 7.581 7.581 0 01-2.683-.473 6.434 6.434 0 01-2.183-1.341 6.359 6.359 0 01-1.46-2.091 7.144 7.144 0 010-5.444 6.357 6.357 0 011.46-2.091 6.428 6.428 0 012.183-1.341 7.572 7.572 0 012.683-.474 6.148 6.148 0 012.407.46 5.178 5.178 0 011.867 1.328 6.141 6.141 0 011.209 2.144 9.087 9.087 0 01.444 2.933v.868zm6.47-2.367a2.971 2.971 0 00-.868-2.2 3.255 3.255 0 00-2.34-.8 3.068 3.068 0 00-2.249.815 3.637 3.637 0 00-1.012 2.183z" fill="#d9000d"/><path data-name="Path 53" d="M123.53 8.032h3v2.025h.053a4.427 4.427 0 011.368-1.644 4.049 4.049 0 012.5-.7 4.953 4.953 0 012.144.421 4.055 4.055 0 011.433 1.1 4.18 4.18 0 01.789 1.578 7.268 7.268 0 01.237 1.867v7.969h-3.156v-6.383q0-.526-.052-1.17a4.228 4.228 0 00-.276-1.21 2.268 2.268 0 00-.7-.946 2 2 0 00-1.289-.382 3.021 3.021 0 00-1.33.265 2.551 2.551 0 00-.894.71 2.832 2.832 0 00-.513 1.026 4.569 4.569 0 00-.158 1.21v6.891h-3.156z" fill="#d9000d"/><path data-name="Path 54" d="M137.153 10.714V8.032h2.6v-3.22l3.156-.872v4.092h3.472v2.683h-3.468v5.523a2.747 2.747 0 00.355 1.5 1.554 1.554 0 001.407.552 5.1 5.1 0 00.921-.092 1.926 1.926 0 00.789-.3v2.657a4.08 4.08 0 01-1.223.328 10.226 10.226 0 01-1.275.092 6.463 6.463 0 01-2.065-.276 2.721 2.721 0 01-1.262-.842 3.188 3.188 0 01-.631-1.407 9.8 9.8 0 01-.171-1.946v-5.79z" fill="#d9000d"/><path data-name="Path 55" d="M151.381 15.448a3.206 3.206 0 001.1 2.209 3.46 3.46 0 002.289.789 3.765 3.765 0 001.985-.486 5.5 5.5 0 001.407-1.223l2.262 1.709a6.407 6.407 0 01-2.473 1.947 7.3 7.3 0 01-2.866.578 7.581 7.581 0 01-2.683-.473 6.434 6.434 0 01-2.183-1.341 6.358 6.358 0 01-1.46-2.091 7.144 7.144 0 010-5.444 6.356 6.356 0 011.46-2.091 6.427 6.427 0 012.183-1.341 7.572 7.572 0 012.683-.474 6.147 6.147 0 012.407.46 5.179 5.179 0 011.867 1.328 6.141 6.141 0 011.209 2.144 9.087 9.087 0 01.434 2.933v.868zm6.47-2.367a2.971 2.971 0 00-.868-2.2 3.255 3.255 0 00-2.34-.8 3.068 3.068 0 00-2.249.815 3.637 3.637 0 00-1.012 2.183z" fill="#d9000d"/><path data-name="Path 56" d="M41.211 29.883h2.871l8.021 18.621h-3.791l-1.736-4.26h-8.074l-1.684 4.26H33.11zm4.208 11.52l-2.867-7.575-2.919 7.575z" fill="#d9000d"/><path data-name="Path 57" d="M53.755 35.879h3v1.972h.053a4.271 4.271 0 011.355-1.591 4.1 4.1 0 012.511-.7 3.84 3.84 0 013.945 2.341 4.461 4.461 0 011.709-1.775 5 5 0 012.446-.566 4.865 4.865 0 012.13.421 3.725 3.725 0 011.407 1.157 4.763 4.763 0 01.776 1.722 9.031 9.031 0 01.237 2.118V48.5h-3.156v-7.151a5.855 5.855 0 00-.105-1.117 2.69 2.69 0 00-.368-.947 1.874 1.874 0 00-.71-.645 2.475 2.475 0 00-1.157-.236 2.606 2.606 0 00-1.249.276 2.443 2.443 0 00-.842.737 3.007 3.007 0 00-.473 1.052 5.022 5.022 0 00-.145 1.2v6.838h-3.156v-7.526a3.169 3.169 0 00-.5-1.881 1.9 1.9 0 00-1.657-.7 3.018 3.018 0 00-1.328.263 2.553 2.553 0 00-.894.71 2.827 2.827 0 00-.512 1.026 4.55 4.55 0 00-.158 1.21V48.5h-3.156z" fill="#d9000d"/><path data-name="Path 58" d="M83.501 39.377a2.889 2.889 0 00-2.472-1.289 2.642 2.642 0 00-1.236.316 1.071 1.071 0 00-.6 1.026.883.883 0 00.5.841 5.472 5.472 0 001.262.447q.763.184 1.644.382a6.441 6.441 0 011.644.6 3.608 3.608 0 011.263 1.118 3.334 3.334 0 01.5 1.946 3.522 3.522 0 01-.486 1.906 3.824 3.824 0 01-1.262 1.249 5.6 5.6 0 01-1.749.684 9.207 9.207 0 01-1.946.21 8.362 8.362 0 01-2.709-.421 5.136 5.136 0 01-2.209-1.525l2.1-1.972a5.887 5.887 0 001.3 1.117 3.145 3.145 0 001.7.434 3.357 3.357 0 00.71-.079 2.3 2.3 0 00.684-.263 1.62 1.62 0 00.513-.46 1.181 1.181 0 00-.3-1.617 4.448 4.448 0 00-1.263-.512q-.763-.2-1.644-.368a6.343 6.343 0 01-1.644-.553 3.435 3.435 0 01-1.262-1.065 3.151 3.151 0 01-.5-1.893 3.687 3.687 0 01.434-1.828 3.821 3.821 0 011.144-1.276 4.951 4.951 0 011.63-.737 7.446 7.446 0 014.366.2 4.084 4.084 0 012 1.486z" fill="#d9000d"/><path data-name="Path 59" d="M86.972 38.561v-2.682h2.6v-3.22l3.156-.872v4.092H96.2v2.683h-3.473v5.523a2.749 2.749 0 00.355 1.5 1.555 1.555 0 001.407.552 5.06 5.06 0 00.921-.092 1.926 1.926 0 00.789-.3v2.657a4.092 4.092 0 01-1.223.329 10.3 10.3 0 01-1.275.092 6.464 6.464 0 01-2.065-.276 2.723 2.723 0 01-1.262-.842 3.186 3.186 0 01-.631-1.407 9.84 9.84 0 01-.171-1.946v-5.791z" fill="#d9000d"/><path data-name="Path 60" d="M101.201 43.296a3.2 3.2 0 001.1 2.209 3.458 3.458 0 002.289.789 3.761 3.761 0 001.985-.487 5.493 5.493 0 001.407-1.223l2.262 1.709a6.41 6.41 0 01-2.473 1.947 7.3 7.3 0 01-2.866.578 7.572 7.572 0 01-2.683-.474 6.275 6.275 0 01-3.643-3.432 7.144 7.144 0 010-5.444 6.359 6.359 0 011.46-2.091 6.434 6.434 0 012.183-1.341 7.581 7.581 0 012.683-.473 6.14 6.14 0 012.407.46 5.168 5.168 0 011.867 1.328 6.142 6.142 0 011.209 2.143 9.087 9.087 0 01.434 2.933v.868zm6.47-2.367a2.971 2.971 0 00-.868-2.2 3.255 3.255 0 00-2.34-.8 3.07 3.07 0 00-2.249.815 3.638 3.638 0 00-1.012 2.183z" fill="#d9000d"/><path data-name="Path 61" d="M113.77 35.879h3.156v2h.052a3.97 3.97 0 011.5-1.709 4.146 4.146 0 012.235-.6 3.033 3.033 0 01.566.053c.184.035.372.079.566.131v3.051q-.4-.105-.776-.171a4.431 4.431 0 00-.75-.066 3.4 3.4 0 00-1.775.407 3.238 3.238 0 00-1.026.934 3.106 3.106 0 00-.473 1.052 3.941 3.941 0 00-.119.789v6.759h-3.156z" fill="#d9000d"/><path data-name="Path 62" d="M133.523 46.609h-.055a4.061 4.061 0 01-1.841 1.683 5.97 5.97 0 01-2.5.526 6.336 6.336 0 01-2.617-.513 5.867 5.867 0 01-1.96-1.407 6.01 6.01 0 01-1.235-2.1 7.852 7.852 0 01-.421-2.6 7.463 7.463 0 01.447-2.6 6.478 6.478 0 011.249-2.1 5.753 5.753 0 011.933-1.407 5.917 5.917 0 012.473-.513 6.1 6.1 0 011.578.184 5.456 5.456 0 011.21.474 4.872 4.872 0 01.894.618 4.464 4.464 0 01.6.645h.079v-8.447l3.156-.872v20.323h-3zm-7.469-4.419a4.1 4.1 0 00.249 1.421 3.544 3.544 0 00.737 1.209 3.73 3.73 0 005.444 0 3.563 3.563 0 00.737-1.209 4.162 4.162 0 000-2.841 3.578 3.578 0 00-.737-1.21 3.73 3.73 0 00-5.444 0 3.558 3.558 0 00-.737 1.21 4.1 4.1 0 00-.249 1.42" fill="#d9000d"/><path data-name="Path 63" d="M147.988 46.767h-.075a4.065 4.065 0 01-1.736 1.565 5.452 5.452 0 01-2.315.486 6.129 6.129 0 01-1.7-.237 4.585 4.585 0 01-1.473-.71 3.631 3.631 0 01-1.039-1.183 3.355 3.355 0 01-.4-1.657 3.818 3.818 0 01.368-1.749 3.6 3.6 0 01.986-1.21 5.007 5.007 0 011.433-.776 9.808 9.808 0 011.7-.434 15.2 15.2 0 011.775-.184q.894-.039 1.683-.039h.789v-.342a2.051 2.051 0 00-.815-1.775 3.448 3.448 0 00-2.078-.592 4.882 4.882 0 00-1.867.355 4.727 4.727 0 00-1.5.96l-1.657-1.657a6.116 6.116 0 012.459-1.552 9.053 9.053 0 012.906-.474 7.324 7.324 0 012.262.3 4.982 4.982 0 011.525.776 3.437 3.437 0 01.934 1.091 5.058 5.058 0 01.473 1.249 6.871 6.871 0 01.171 1.223c.017.395.027.741.027 1.039v7.259h-2.841zm-.184-3.919h-.658q-.657 0-1.473.053a7.755 7.755 0 00-1.538.25 3.526 3.526 0 00-1.222.578 1.263 1.263 0 00-.5 1.065 1.342 1.342 0 00.2.75 1.784 1.784 0 00.513.513 2.136 2.136 0 00.71.3 3.482 3.482 0 00.789.092 3.281 3.281 0 002.407-.776 2.862 2.862 0 00.776-2.117z" fill="#d9000d"/><path data-name="Path 64" d="M154.09 35.879h3v1.972h.053a4.272 4.272 0 011.355-1.591 4.1 4.1 0 012.511-.7 3.84 3.84 0 013.945 2.341 4.461 4.461 0 011.709-1.775 5 5 0 012.446-.566 4.864 4.864 0 012.13.421 3.728 3.728 0 011.407 1.157 4.762 4.762 0 01.776 1.722 9.053 9.053 0 01.237 2.118V48.5h-3.156v-7.151a5.854 5.854 0 00-.105-1.117 2.69 2.69 0 00-.368-.947 1.871 1.871 0 00-.71-.645 2.475 2.475 0 00-1.157-.236 2.606 2.606 0 00-1.249.276 2.443 2.443 0 00-.842.737 3.007 3.007 0 00-.473 1.052 5 5 0 00-.145 1.2v6.838h-3.156v-7.526a3.169 3.169 0 00-.5-1.881 1.9 1.9 0 00-1.657-.7 3.018 3.018 0 00-1.328.263 2.553 2.553 0 00-.894.71 2.827 2.827 0 00-.512 1.026 4.55 4.55 0 00-.158 1.21V48.5h-3.156z" fill="#d9000d"/><path data-name="Path 65" d="M22.97 32.138l-4.6-4.6-6.886 6.886L4.6 27.539 0 32.138l6.886 6.886L0 45.911l4.6 4.6 6.886-6.887 6.886 6.887 4.6-4.6-6.886-6.886z" fill="#d1000e"/><path data-name="Path 66" d="M22.97 59.675l-4.6-4.6-6.886 6.886L4.6 55.075l-4.6 4.6 6.886 6.887L0 73.448l4.6 4.6 6.886-6.887 6.886 6.887 4.6-4.6-6.886-6.886z" fill="#d9000d"/><path d="M22.97 4.6L18.371 0l-6.886 6.887L4.6 0 0 4.6l6.886 6.886L0 18.372l4.6 4.6 6.886-6.887 6.886 6.887 4.6-4.6-6.886-6.886z" fill="#d1000e"/></g></svg>