<svg xmlns="http://www.w3.org/2000/svg" width="63.125" height="59.229"><g data-name="_icon/glasses/xl" fill="none" stroke="#e41b23" stroke-linecap="round" stroke-linejoin="round" stroke-miterlimit="10"><path data-name="Stroke 5 Copy 3" d="M3.093 47.278c3.598 12.573 19.377 11.348 23.008 3.9 4.814-9.87-1.233-19.564-8.735-20.267C4.53 29.71.986 39.915 3.093 47.278z" stroke-width="4.401"/><path data-name="Stroke 3 Copy 3" d="M46.5 18.302a13.252 13.252 0 00-10.88 7.797c-1.889 4.898-.517 9.576 2.333 13.772s9.418 5.242 13.835 3.95c3.429-1.003 11.03-4.268 8.298-16.193-1.844-8.041-8.93-9.67-13.586-9.326z" stroke-width="4.401"/><path data-name="Path 3 Copy 6" d="M26.437 37.941c1.335-3.332 4.096-4.971 7.985-3.362" stroke-width="4.401"/><path data-name="Path 3 Copy 7" d="M33.73 7.565c-.89-5.024 3.21-6.134 6.446-5.266s14.242 10.819 18.492 20.7" stroke-width="4"/><path data-name="Path 3 Copy 8" d="M15.535 13.714c-.807-4.79-6.043-4.12-8-1.7S2.317 25.875 2.317 42.389" stroke-width="4"/></g></svg>