<svg xmlns="http://www.w3.org/2000/svg" width="112.416" height="73.298"><defs><clipPath id="a"><path data-name="Rectangle 4" fill="none" d="M0 0h108.081v65.919H0z"/></clipPath></defs><g data-name="Group 26"><g data-name="Group 25" clip-path="url(#a)" fill="#e41b23" transform="matrix(.998 .07 -.07 .998 4.598 0)"><path data-name="Path 34" d="M77.328 48.436a6.805 6.805 0 01-3.374-.961L57.6 38.6a1.585 1.585 0 011.512-2.787L75.5 44.707a2.841 2.841 0 002.912.276 2.7 2.7 0 001.26-2.339 2.78 2.78 0 00-1.543-2.451c-2-1.149-5.136-2.826-8.451-4.6-15.07-8.07-15.036-8.2-14.631-9.815a1.7 1.7 0 011.708-1.264 1.587 1.587 0 011.5 1.073c1.863 1.29 8.429 4.808 12.918 7.211 3.336 1.787 6.487 3.475 8.531 4.645a5.935 5.935 0 013.138 5.192A5.843 5.843 0 0180 47.723a5.266 5.266 0 01-2.676.713"/><path data-name="Path 35" d="M50.761 16.157a1.573 1.573 0 01-.568-.106c-2.6-1-6.4-.751-10.076-.513a56.129 56.129 0 01-6.157.177c-2.768-.139-5.694-1.422-8.695-3.815l-.134-.1a1.586 1.586 0 011.679-2.693 4.146 4.146 0 01.431.315c2.472 1.969 4.786 3.021 6.878 3.127a53.374 53.374 0 005.794-.175c4.018-.262 8.171-.529 11.416.718a1.585 1.585 0 01-.568 3.065"/><path data-name="Path 36" d="M26.192 45.144a1.576 1.576 0 01-1.154-.5 65.49 65.49 0 00-8.9-7.244c-3.583-2.579-4.546-3.273-4.434-4.571a1.586 1.586 0 013.049-.46c.453.454 1.926 1.514 3.238 2.457a67.907 67.907 0 019.351 7.646 1.585 1.585 0 01-1.154 2.671M14.867 33.1z"/><path data-name="Path 37" d="M51.25 63.591a8.375 8.375 0 01-3.367-.785 1.586 1.586 0 011.277-2.9c1.925.849 3.379.635 3.992-.584a2.276 2.276 0 00-.753-2.985 1.585 1.585 0 111.577-2.75 5.4 5.4 0 012.006 7.164 5.165 5.165 0 01-4.732 2.843"/><path data-name="Path 38" d="M61.228 59.581a6.023 6.023 0 01-1.771-.264c-4.03-1.239-5.393-2.022-11.131-5.316l-1.526-.875a1.585 1.585 0 011.576-2.75l1.527.875c5.624 3.228 6.794 3.9 10.485 5.035a2.89 2.89 0 002.733-.585 2.682 2.682 0 00.6-2.553l-.519-.3c-2.331-1.365-4.958-2.9-8.629-5.006a1.586 1.586 0 111.576-2.752c3.681 2.109 6.317 3.653 8.655 5.022a604.924 604.924 0 005.415 3.147 3.732 3.732 0 005.234-1c.78-1.261.765-3.175-1.618-4.763a1.585 1.585 0 011.765-2.639c3.973 2.649 4.11 6.558 2.556 9.07a6.894 6.894 0 01-9.506 2.079c-.6-.342-1.177-.676-1.748-1.007a5.365 5.365 0 01-1.6 3 5.951 5.951 0 01-4.075 1.579"/><path data-name="Path 39" d="M26.876 54.372a5.233 5.233 0 01-1.508-.22 3.883 3.883 0 01-2.613-2.781 13.845 13.845 0 00-.117-.428A5.942 5.942 0 0123.1 46l1.378-2.435a1.692 1.692 0 01.132-.2 5.317 5.317 0 018.362 6.569l-1.892 2.412a5.363 5.363 0 01-4.2 2.026m.3-9.128l-1.28 2.243a2.85 2.85 0 00-.21 2.591c.047.171.1.343.14.52a.719.719 0 00.447.517 2.169 2.169 0 002.31-.727l1.9-2.413a2.146 2.146 0 00-3.31-2.731"/><path data-name="Path 40" d="M33.707 59.478a5.318 5.318 0 01-4.166-8.6l.657-.837a1.566 1.566 0 01.189-.2c3.684-3.3 6.7-2.236 7.862-1.16 2.282 1.87 2.057 5.706.312 7.929l-.657.837a5.346 5.346 0 01-4.2 2.029m-1.1-7.363l-.568.725a2.146 2.146 0 003.375 2.65l.657-.837c.846-1.076.928-2.925.155-3.53a.985.985 0 01-.1-.091c-.148-.12-1.254-.888-3.514 1.083"/><path data-name="Path 41" d="M39.856 62.939a5.12 5.12 0 01-3.176-1.1 4.421 4.421 0 01-.746-6.194l.658-.838c1.551-1.973 4.134-3.382 6.161-1.827a5.794 5.794 0 011.537 7.456 1.641 1.641 0 01-.176.279l-.2.255a5.15 5.15 0 01-4.058 1.967m.941-7.444a3.285 3.285 0 00-1.712 1.273l-.656.837a1.249 1.249 0 00.209 1.742 1.982 1.982 0 002.783-.334l.09-.115a2.6 2.6 0 00-.633-3.359l-.049-.037h-.032m2.07 4.243z"/><path data-name="Path 42" d="M45.389 65.919a3.844 3.844 0 01-1.591-.344l-.3-.134a3.9 3.9 0 01-1.95-5.149l.338-.75c.783-1.738 3.31-3.634 5.478-2.657l.058.027c1.162.581 3.057 2.549 1.912 5.834a1.853 1.853 0 01-.052.13l-.338.749a3.868 3.868 0 01-2.171 2.039 3.914 3.914 0 01-1.385.255m.675-6.126a2.2 2.2 0 00-1.287 1.052l-.338.75a.73.73 0 00.362.955l.3.134a.729.729 0 00.956-.362l.306-.68c.374-1.129-.019-1.641-.3-1.849m.053 0z"/><path data-name="Path 43" d="M38.816 32.9a5.566 5.566 0 01-3.316-1.1 4.719 4.719 0 01-1.425-5.9l2.725-5.5a9.482 9.482 0 016.5-5.03l8.223-2.67a18.372 18.372 0 0114.9 1.59l9.968 1.718c1.032-.8 3.318-2.565 5.251-4.038a1.586 1.586 0 111.92 2.524c-2.575 1.961-5.78 4.447-5.78 4.447a1.586 1.586 0 01-1.241.31L65.6 17.366a1.614 1.614 0 01-.549-.2 15.214 15.214 0 00-12.551-1.45l-8.308 2.693a1.61 1.61 0 01-.178.047 6.285 6.285 0 00-4.372 3.349l-2.729 5.5a1.555 1.555 0 00.468 1.944 2.419 2.419 0 002.944-.055l4.946-3.956c1.646-1.316 4.412-1.278 6.85-1.24.716.011 1.391.022 1.881-.013a1.533 1.533 0 01.364.016 14.447 14.447 0 004.441-.964A6.125 6.125 0 0060.4 22.1a1.585 1.585 0 012 2.459 9.294 9.294 0 01-2.419 1.426 17.05 17.05 0 01-5.912 1.176c-.591.032-1.277.021-2 .011-1.525-.024-4.069-.058-4.825.546l-4.946 3.956a5.582 5.582 0 01-3.482 1.226"/><path data-name="Path 44" d="M82.157 43.2a1.586 1.586 0 01-.53-3.08A41.487 41.487 0 0093.1 33.788a1.585 1.585 0 111.973 2.482 44.774 44.774 0 01-12.386 6.83 1.565 1.565 0 01-.53.092"/><path data-name="Path 45" d="M94.781 38.67a1.584 1.584 0 01-1.567-1.345c-2.7-17.653-13.456-24.27-13.564-24.335a1.587 1.587 0 01-.235-2.556l9.013-7.884a4.034 4.034 0 015.458.2c3.089 3.132 10.642 12.063 14.083 27.3a4.479 4.479 0 01-2.94 5.243l-9.74 3.3a1.581 1.581 0 01-.508.083M83.008 11.5c3.322 2.646 10.415 9.731 13.022 23.485l7.983-2.7a1.316 1.316 0 00.864-1.54c-3.262-14.438-10.351-22.83-13.248-25.767a.842.842 0 00-1.112-.042z"/><path data-name="Path 46" d="M11.781 37.039a1.574 1.574 0 01-.61-.122l-6.88-2.87a6.988 6.988 0 01-4.032-8.324C1.954 19.65 5.932 8.451 13.524 1.677a6.664 6.664 0 018.709-.114l7.141 6.053a1.585 1.585 0 01-.3 2.616c-.134.071-10.714 5.845-15.762 25.615a1.583 1.583 0 01-1.536 1.192m6.17-33.873a3.467 3.467 0 00-2.311.876C8.646 10.278 4.914 20.837 3.311 26.576a3.816 3.816 0 002.2 4.545l5.208 2.173C14.976 18.2 22.252 11.241 25.708 8.665l-5.526-4.684a3.45 3.45 0 00-2.236-.815"/></g></g></svg>