<svg xmlns="http://www.w3.org/2000/svg" width="89.759" height="86.415"><defs><clipPath id="a"><path data-name="Rectangle 12" fill="none" d="M0 0h83.149v79.47H0z"/></clipPath></defs><g data-name="Group 87"><g data-name="Group 86" clip-path="url(#a)" fill="#e41b23" transform="rotate(5.13 3.652 79.441)"><path data-name="Path 79" d="M52.531 25.278a2 2 0 01-2 1.951h-.049a2.017 2.017 0 01-1.951-2.048c0-9.176.643-9.2.088-18.608C40.544 6.55 11.941 6.7 4.14 6.8c-.336 8.648.014 49.7.135 63.928l.038 4.633c5.459.144 30.411.139 45.4.051h.307a1.49 1.49 0 011.2.58 2.052 2.052 0 01-1.485 3.42c-1.439.01-44.288.206-47.625-.155a2 2 0 01-1.785-1.993c0-.569-.02-2.942-.05-6.506C.2 61.88.059 45.352.014 31.123-.011 23.21 0 16.993.039 12.645c.023-2.5.058-4.434.1-5.749.08-2.3.128-3.7 1.794-4.024.234-.047 27.2-.3 41.644-.3 3.03 0 6.52.039 8.334.061a1.216 1.216 0 011.2 1.255z"/><path data-name="Path 80" d="M39.439 71.526a11.754 11.754 0 01-3.961-.412 1.25 1.25 0 01-.664-1.1V56.528a1.25 1.25 0 011.136-1.245 54.282 54.282 0 015.712-.251 1.25 1.25 0 011.232 1.268 1.232 1.232 0 01-1.267 1.233 47.845 47.845 0 00-4.313.146v11.286a53.033 53.033 0 006.928-.126 27.863 27.863 0 00.186-3.406A1.272 1.272 0 0145.69 64.2a1.251 1.251 0 011.238 1.263c-.043 4.213-.455 4.882-.653 5.205a1.253 1.253 0 01-.944.59 70.598 70.598 0 01-5.892.272"/><path data-name="Path 81" d="M40.116 18.074H11.033a1.046 1.046 0 010-2.092h29.083a1.046 1.046 0 010 2.092"/><path data-name="Path 82" d="M35.149 39.674H11a1 1 0 010-2h24.149a1 1 0 010 2"/><path data-name="Path 83" d="M41.149 28.874H11a1 1 0 110-2h30.149a1 1 0 010 2"/><path data-name="Path 84" d="M36.149 45.074H11a1 1 0 010-2h25.149a1 1 0 010 2"/><path data-name="Path 85" d="M28.649 57.324H11a1.25 1.25 0 010-2.5h17.649a1.25 1.25 0 010 2.5"/><path data-name="Path 86" d="M29.149 63.074H11a1 1 0 010-2h18.149a1 1 0 010 2"/><path data-name="Path 87" d="M40.149 23.474H11a1 1 0 010-2h29.149a1 1 0 010 2"/><path data-name="Path 88" d="M38.149 34.274H11a1.157 1.157 0 010-2.292h27.149a1.157 1.157 0 010 2.292"/><path data-name="Path 89" d="M41.034 52.634a1.838 1.838 0 01-1.189-.345c-1.092-.716-1.788-1.9-.034-9.911a59.562 59.562 0 012.789-9.653c.8-1.6 5.907-7.7 15.667-19.135 2.534-2.967 4.722-5.531 5.4-6.384 2.499-3.14 7.14-8.988 13.563-6.679a8.646 8.646 0 015.489 5.566c1.021 3.208.209 6.943-2.287 10.517-.2.292-.848 1.256-1.786 2.659-7.737 11.575-15.93 23.654-18.028 25.481-2.024 1.763-8.511 4.378-10.45 5.137-5.59 2.188-7.966 2.747-9.134 2.747m1.294-2.652zm3.454-15.664c-1.031 2.057-3.2 11.082-3.47 14.541 3.868-1 14.051-5.116 15.972-6.789 2.024-1.762 13.6-19.084 17.407-24.776a298.491 298.491 0 011.827-2.72c1.848-2.645 2.492-5.274 1.815-7.4a5.173 5.173 0 00-3.305-3.3c-2.966-1.065-5.473.386-9.574 5.546-.718.9-2.819 3.365-5.48 6.481-5.039 5.9-14.418 16.889-15.192 18.42"/><path data-name="Path 90" d="M78.11 16.975a1.112 1.112 0 01-1.083-.868c-1.074-4.8-4.532-7.389-10.572-7.928a1.111 1.111 0 01.2-2.213c7.028.627 11.247 3.876 12.542 9.655a1.111 1.111 0 01-.842 1.327 1.124 1.124 0 01-.243.027"/><path data-name="Path 91" d="M42.336 43.409q4.415 0 5.667 3.554T41.679 49.8z" fill-rule="evenodd"/><path data-name="Path 92" d="M58.391 43.408a1.11 1.11 0 01-1.036-.709c-2.165-5.583-5.929-8.55-11.508-9.07a1.11 1.11 0 01.207-2.211c6.409.6 10.908 4.122 13.372 10.478a1.11 1.11 0 01-1.035 1.512"/><path data-name="Path 93" d="M41.506 66.982a1.713 1.713 0 01-1.47-.832l-2.571-4.286A1.714 1.714 0 1140.4 60.1l1.023 1.705q.6-.961 1.286-1.862a24.367 24.367 0 014.61-4.61A1.715 1.715 0 0149.4 58.06a20.878 20.878 0 00-6.339 7.923 1.714 1.714 0 01-1.464 1h-.094"/></g></g></svg>