<svg xmlns="http://www.w3.org/2000/svg" width="115.462" height="87.5"><defs><clipPath id="a"><path data-name="Rectangle 3" fill="none" d="M0 0h110.149v80.011H0z"/></clipPath></defs><g data-name="Group 24"><g data-name="Group 23" clip-path="url(#a)" fill="#e41b23" transform="matrix(.998 -.07 .07 .998 0 7.684)"><path data-name="Path 32" d="M5.174 70.605a2.73 2.73 0 01-1.66-.435c-2.292-1.45-2.456-4.847 3.436-17.614C2.154 47.4 0 40.61 0 30.8 0 12.665 12.872 0 31.3 0c11.19 0 19.661 2.955 25.176 8.783 5.653 5.973 8.189 14.965 7.54 26.726-.627 11.344-5.59 20.484-13.976 25.737a32.654 32.654 0 01-28.608 2.582C11.5 69.453 7.18 70.605 5.174 70.605M31.3 4C14.972 4 4 14.77 4 30.8c0 9.3 2.076 15.434 6.733 19.9a2 2 0 01.426 2.294C7.045 61.749 6.184 65.236 6.05 66.563c2.524-.55 8.978-3.669 14.238-6.685a2 2 0 011.767-.109 29 29 0 0025.865-1.914c5.131-3.213 11.4-9.738 12.105-22.567.586-10.62-1.584-18.612-6.451-23.756C48.844 6.534 41.351 4 31.3 4"/><path data-name="Path 33" d="M106.911 80.011c-1.905 0-5.638-1.575-11.14-4.7A22.146 22.146 0 0176.2 73.623c-4.016-2.515-8.919-7.586-9.464-17.455-.442-8.006 1.274-14.114 5.1-18.156 3.73-3.943 9.482-5.942 17.093-5.942 12.492 0 21.217 8.582 21.217 20.871 0 6.782-1.507 11.427-4.868 14.936 4.041 8.71 4 11.029 2.62 11.9a1.829 1.829 0 01-.99.23M95.845 73.2a1 1 0 01.5.133c4.058 2.325 9.02 4.678 10.4 4.725.064-.573-.153-2.69-3.572-9.967a1 1 0 01.213-1.147c3.294-3.158 4.763-7.476 4.763-14 0-11.288-7.723-18.871-19.217-18.871-7.04 0-12.3 1.788-15.641 5.316-3.432 3.628-4.964 9.237-4.554 16.673.5 9.012 4.913 13.6 8.529 15.87a20.4 20.4 0 0018.193 1.347 1.011 1.011 0 01.386-.077"/></g></g></svg>