<svg xmlns="http://www.w3.org/2000/svg" width="59.651" height="78.89"><defs><clipPath id="a"><path data-name="Rectangle 1" fill="none" d="M0 0h57v76.948H0z"/></clipPath></defs><g data-name="Group 20"><g data-name="Group 19" clip-path="url(#a)" fill="#e41b23" transform="rotate(-2 56.811 .995)"><path data-name="Path 1" d="M46.153 76.889h-.007c-.431 0-43.14-.1-44.2-.289-1.67-.328-1.718-1.72-1.8-4.025-.045-1.315-.081-3.25-.1-5.75C0 62.478-.01 56.261.015 48.348.059 34.118.2 17.591.275 8.712c.031-3.563.051-5.936.051-6.506A2 2 0 012.111.218c2.2-.238 17.983-.231 27.2-.2 24.485.067 24.846.2 25.164.311 1.684.6 1.786.639 2.264 26.106.222 11.863.381 28.083.159 38.024A4.388 4.388 0 0155.209 68c-1.541 1.184-3.73 1.2-5.539.956.472 3.224.2 5.371-.835 6.659a3.369 3.369 0 01-2.682 1.276M4.14 72.679c6.334.082 29.022.187 41.643.209.134-.539.305-2.09-.533-5.788a2.039 2.039 0 011.419-2.632 2.807 2.807 0 011.5.11c3.381.821 4.346.448 4.6.248.1-.072.118-.291.123-.46.372-16.761-.319-52.45-.855-60.212-7.679-.131-39.524-.238-47.727-.036-.01 1.137-.02 2.711-.036 4.628-.12 14.234-.469 55.292-.134 63.933"/><path data-name="Path 2" d="M45.972 12.751H29a1.25 1.25 0 010-2.5h16.972a1.25 1.25 0 010 2.5"/><path data-name="Path 3" d="M46.972 18.5H29a1 1 0 010-2h17.972a1 1 0 010 2"/><path data-name="Path 4" d="M46.149 30.5H10a1 1 0 010-2h36.149a1 1 0 010 2"/><path data-name="Path 5" d="M46.149 36.5H10a1 1 0 010-2h36.149a1 1 0 010 2"/><path data-name="Path 6" d="M43.149 42.5H10a1 1 0 010-2h33.149a1 1 0 010 2"/><path data-name="Path 7" d="M46.149 48.5H10a1 1 0 010-2h36.149a1 1 0 010 2"/><path data-name="Path 8" d="M46.149 54.751H10a1.25 1.25 0 010-2.5h36.149a1.25 1.25 0 010 2.5"/><path data-name="Path 9" d="M34.149 60.5H10a1 1 0 010-2h24.149a1 1 0 010 2"/><path data-name="Path 10" d="M26.149 66.5H10a1 1 0 010-2h16.149a1 1 0 010 2"/><path data-name="Path 11" d="M41.972 23.5H29a1 1 0 010-2h12.972a1 1 0 010 2"/><path data-name="Path 12" d="M18.192 12.154a1.128 1.128 0 11-1.128 1.128 1.128 1.128 0 011.128-1.128" fill-rule="evenodd"/><path data-name="Path 13" d="M13.23 12.154a1.128 1.128 0 11-1.13 1.128 1.128 1.128 0 011.128-1.128" fill-rule="evenodd"/><path data-name="Path 14" d="M15.4 20.647a4.143 4.143 0 01-4.243-2.986.75.75 0 011.44-.42 2.651 2.651 0 002.8 1.906c1.968 0 3.4-1.237 3.4-2.942a.75.75 0 111.5 0 4.583 4.583 0 01-4.9 4.442"/><path data-name="Path 15" d="M15.636 25.283c-.269 0-.539-.012-.81-.034a9.46 9.46 0 1110.166-8.627 9.432 9.432 0 01-3.307 6.429 9.3 9.3 0 01-6.048 2.232m0-16.823A7.367 7.367 0 0015 23.161a7.2 7.2 0 005.324-1.707 7.378 7.378 0 00-4.068-12.968q-.312-.026-.62-.026m8.312 8.073z"/><path data-name="Path 16" d="M45.9 76.948a9.932 9.932 0 01-1.362-.081 2 2 0 01.573-3.959 7.689 7.689 0 005.548-1.548c1.551-1.385 2.3-3.709 2.236-6.909a2 2 0 114-.084c.094 4.446-1.121 7.815-3.612 10.013a11.2 11.2 0 01-7.383 2.568"/></g></g></svg>