<svg xmlns="http://www.w3.org/2000/svg" width="65.059" height="70.345"><g data-name="_icon/lightbulb/xl" fill="none" stroke="#e41b23" stroke-linecap="round" stroke-linejoin="round" stroke-miterlimit="10"><path d="M23.453 49.463c-.918 5.192 15.549 6.814 16.14 3.653" stroke-width="3.001"/><path data-name="Path Copy" d="M28.913 35.346c6.654 3.409 2.521 19.147 2.521 19.147" stroke-width="2.5"/><path data-name="Path Copy 2" d="M39.163 36.14a8.23 8.23 0 00-6.06 5.105" stroke-width="2.5"/><path data-name="Path Copy 3" d="M62.261 15.022a39.894 39.894 0 00-7.118 3.487" stroke-width="2.501"/><path data-name="Path Copy 5" d="M39.89 5.154s-.511 3.325-.863 4.888" stroke-width="2.5"/><path data-name="Path Copy 6" d="M5.058 32.99s2.634-.818 4.725-1.533" stroke-width="2.502"/><path data-name="Path Copy 7" d="M54.878 41.713a9.079 9.079 0 013.913 3.06" stroke-width="2.502"/><path data-name="Path Copy 4" d="M11.803 8.896a22.965 22.965 0 016.673 4.756" stroke-width="2.502"/><path d="M39.587 53.12c1.83-9.78 8.566-6.996 11.68-18.631 4.59-20.005-27.963-26.532-31.679-6.634-2.13 12.048 6.019 9.396 3.86 21.612a3.185 3.185 0 001.395 3.869c-1.192 3.133-.941 7.265-.496 7.798 1.358 1.628 6.208 3.324 9.84 2.141 1.99-.764 2.671-5.144 3.028-7.164a4.333 4.333 0 002.372-2.991z" stroke-width="4.402"/></g></svg>