<svg width="150" height="35" fill="none" xmlns="http://www.w3.org/2000/svg"><path fill-rule="evenodd" clip-rule="evenodd" d="M72.517 4.672h4.354V0h-4.354v4.672zm-.238 8.506c0-.597-.316-.878-.87-.878h-1.583V7.987h4.79c1.861 0 2.652.84 2.652 2.716v12.5c0 .559.317.878.871.878h1.583v4.275h-4.79c-1.859 0-2.653-.8-2.653-2.716V13.178zM43.316 4.674h-4.393V.003h4.393v4.671zm-4.592 22.093c0 3.317-2.613 3.756-4.037 3.756-.516 0-.873-.08-.873-.08v4.274s.595.119 1.505.119c2.773 0 8.434-.838 8.434-7.668V10.706c0-1.876-.793-2.717-2.694-2.717h-4.79v4.314h1.584c.553 0 .87.28.87.879v13.585zm24.873-8.597c0 3.795-2.731 6.351-6.016 6.351-3.248 0-5.978-2.556-5.978-6.35 0-3.753 2.73-6.35 5.978-6.35 3.285 0 6.016 2.597 6.016 6.35zm5.068 0c0-6.229-4.907-10.662-11.084-10.662-6.139 0-11.047 4.433-11.047 10.662 0 6.273 4.909 10.664 11.047 10.664 6.177 0 11.084-4.391 11.084-10.664zM83.09 12.3c.553 0 .87.28.87.88v15.175h4.99v-9.346c0-.956.117-1.876.394-2.715.713-2.437 2.733-4.153 5.425-4.153 2.531 0 3.166 1.676 3.166 4.153v9.346c0 1.916.791 2.715 2.693 2.715h4.79V24.08h-1.583c-.556 0-.872-.32-.872-.88v-7.944c0-5.392-2.572-7.75-7.047-7.75-4.078 0-6.255 2.516-7.126 4.234h-.08s.08-.439.08-.878v-.6c0-1.436-.87-2.275-2.652-2.275h-4.633V12.3h1.585z" fill="#191919"/><path fill-rule="evenodd" clip-rule="evenodd" d="M140.666 14.176l-9.302 11.463v2.716h15.678c1.859 0 2.652-.798 2.652-2.716v-3.593h-4.555v1.117c0 .599-.316.879-.869.879h-4.435c-1.307 0-1.901.12-1.901.12v-.08s.793-.759 1.704-1.877l9.305-11.462V7.987h-14.808c-1.902 0-2.693.84-2.693 2.716v3.634h4.553v-1.158c0-.559.315-.879.869-.879h3.645c1.267 0 1.858-.079 1.858-.079v.08s-.789.718-1.701 1.875zM107.37 12.3c.553 0 .869.28.869.88v7.907c0 5.551 2.653 7.749 6.97 7.749 3.483 0 6.016-2.118 6.967-4.236h.08s-.04.44-.04.92v.558c0 1.44.91 2.277 2.653 2.277h4.629v-4.273h-1.583c-.555 0-.868-.321-.868-.88V7.988h-5.03v9.344c0 3.635-2.019 6.87-5.66 6.87-2.497 0-3.128-1.678-3.128-4.153v-9.386c0-1.836-.791-2.675-2.654-2.675h-4.789V12.3h1.584zM5.142 29.704c-.13-1.589.548-2.632 2.02-3.184l13.664-4.734v-.367L7.161 16.431c-1.47-.55-2.148-1.592-2.019-3.18l.13-.392c1.144-2.651 5.184-.83 5.184-.83l16.061 6.2V8.067H0v26.758h26.488l.03-10.1-16.062 6.198s-3.772 1.951-5.209-.921l-.105-.298z" fill="#E41B23"/></svg>