<svg xmlns="http://www.w3.org/2000/svg" width="68.885" height="67.422"><g data-name="_icon/love/xl" fill="none" stroke="#e41b23" stroke-linecap="round" stroke-linejoin="round" stroke-miterlimit="10"><path data-name="Stroke 1" d="M16.064 44.131C12.8 38.83 2.667 39.871 5.956 49.799c1.623 4.906 10.774 11.027 15.903 12.235a23.859 23.859 0 004.804-19.873c-1.912-9.196-13.204-6.596-10.599 1.97z" stroke-width="3"/><path data-name="Stroke 3" d="M46.543 16.858c1.584-14.875-19.245-21.282-20.737-.233-.784 11.073 8.208 21.982 17.34 31.073 14.585-9.674 19.883-15.855 21.777-25.541 3.529-18.04-12.616-20.981-18.378-9.306" stroke-width="4.002"/><path data-name="Stroke 1 Copy" d="M13.183 18.041c.567-3.48-4.734-7.033-6.666-1.057-.953 2.954 1.12 7.763 3.074 10.216 3.54-.856 7.81-1.544 9.73-5.8 2.315-5.122-4.367-8.433-6.138-3.359z" stroke-width="2.499"/></g></svg>