<svg data-name="Group 51" xmlns="http://www.w3.org/2000/svg" width="76.059" height="47.064"><defs><clipPath id="a"><path data-name="Rectangle 8" fill="none" d="M0 0h76.059v47.064H0z"/></clipPath></defs><g data-name="Group 50" clip-path="url(#a)" fill="#e41b23"><path data-name="Path 68" d="M17.52 47.064a2.414 2.414 0 01-1.58-.588L.834 33.409A2.414 2.414 0 010 31.584c0-11.461.031-21.077.031-21.077a2.414 2.414 0 012.546-2.4 153.891 153.891 0 0051.2-7.98 2.416 2.416 0 012.208.352 67.2 67.2 0 0018.358 9.052 2.414 2.414 0 011.665 2.8c-1.451 7.048-1.451 16.5-1.451 20.54a2.416 2.416 0 01-2.253 2.41c-13.071.865-48.132 8.371-53.594 11.47a2.41 2.41 0 01-1.191.315M4.827 30.481L17.915 41.8c8.919-3.682 38.268-9.791 51.821-11.149a118.373 118.373 0 011.155-17.163 72.646 72.646 0 01-16.745-8.4A160.4 160.4 0 014.852 13c-.01 3.408-.024 9.987-.025 17.485"/><path data-name="Path 69" d="M20.063 24.166a1.512 1.512 0 01-.844-.257L1.57 12.015a1.508 1.508 0 111.685-2.502L20.512 21.14a87.538 87.538 0 0016.589-2.287 1.509 1.509 0 01.681 2.94 85.937 85.937 0 01-17.719 2.373m37.892-6.034a1.509 1.509 0 01-.269-2.993 109.479 109.479 0 0013.054-3.562 1.509 1.509 0 11.982 2.853 110.216 110.216 0 01-13.5 3.678 1.513 1.513 0 01-.272.024"/><path data-name="Path 70" d="M18.615 43.745h-.058a1.508 1.508 0 01-1.451-1.564l.725-19.311a1.509 1.509 0 013.015.113l-.725 19.311a1.508 1.508 0 01-1.506 1.452"/><path data-name="Path 71" d="M37.442 41.061a1.508 1.508 0 01-1.508-1.508v-18.54L22.054 10.59a1.51 1.51 0 011.812-2.414l14.481 10.877a1.51 1.51 0 01.6 1.207v19.292a1.509 1.509 0 01-1.508 1.508m18.8-4.827h-.042a1.51 1.51 0 01-1.467-1.549l.485-17.733-17.313-9.878a1.508 1.508 0 011.494-2.621l18.1 10.325a1.513 1.513 0 01.761 1.352l-.509 18.637a1.509 1.509 0 01-1.506 1.463"/><path data-name="Path 72" d="M45.59 21.207a5.941 5.941 0 013.381-.964 5.044 5.044 0 012.342.383c1.068.395.574 1.862-.273 1.663a6.575 6.575 0 00-1.9-.352 3.9 3.9 0 00-2.107.551 3.043 3.043 0 00-1.122 1.224h3.535c1.092 0 .643 1.4 0 1.4h-3.94a6.142 6.142 0 00-.027.593 4.26 4.26 0 00.023.454h3.944c.746 0 1.087 1.259.386 1.4a25.034 25.034 0 01-3.97 0 3.026 3.026 0 001.13 1.3 3.727 3.727 0 002.056.572c.84 0 1.552-.617 2-.384s.869 1.4.27 1.663a6.068 6.068 0 01-2.434.4 5.707 5.707 0 01-3.36-1.008 4.815 4.815 0 01-1.861-2.539H41.71c-.478 0-.637-1.262 0-1.4a5.081 5.081 0 011.679 0 6.798 6.798 0 01.007-1.047H41.71a.63.63 0 01-.174-1.248 7.866 7.866 0 012.146-.158 4.8 4.8 0 011.908-2.5" fill-rule="evenodd"/></g></svg>