<svg xmlns="http://www.w3.org/2000/svg" width="77.136" height="77.139"><defs><clipPath id="a"><path data-name="Combined Shape" d="M25.222 77.139L0 77.136V0h77.136v77.136H49.743a90.375 90.375 0 007.377-7.745l1.941-37.016-9.188-.482v.028c-.01 2.323-.174 22.831-2.951 27.483-1.122 1.879-3.585 2.831-7.321 2.832a37.553 37.553 0 01-6.132-.622c-.52-.087-.895-.149-1.082-.159-2.052-.107-3.628-8.477-4.589-15.479-1.043-7.6-1.6-15.248-1.61-15.324l-8.854-.464L15.4 67.2a123.918 123.918 0 009.822 9.932z" fill="none"/></clipPath></defs><g data-name="Group 20" clip-path="url(#a)"><path d="M20.891 26.468s-.774 16 0 27.414 5.713 19.872 16.873 19.872 16.874-11.009 16.874-21.69V22.545c0-6.426-2.762-14.51-11.249-14.51s-11.251 6.588-11.251 13.019v29.141c0 2.219 0 7.379 5.625 7.969s7.109-3.66 7.109-7.969V24.49" fill="none" stroke="#e41b23" stroke-linecap="round" stroke-linejoin="round" stroke-miterlimit="10" stroke-width="4" data-name="_icon/paperclip/l"/></g></svg>