<svg width="144" height="163" fill="none" xmlns="http://www.w3.org/2000/svg"><path clip-rule="evenodd" d="M131.035 13.862s9.224 1.46 9.478 2.98c.329 1.402-8.026 5.206-8.026 5.206s1.782 8.665.294 10.491c-.155.19-.423.195-.642.085-2.6-1.31-7.598-5.859-7.598-5.859s-7.893 4.819-9.417 3.27c-1.081-1.34 3.713-9.985 3.713-9.985s-6.994-6.48-6.42-7.657c.621-1.382 9.936.094 9.936.094s3.549-7.898 5.669-8.249a.41.41 0 01.178.009c2.102.58 2.835 9.615 2.835 9.615z" stroke="#E41B23" stroke-width="3" stroke-linecap="round" stroke-linejoin="round"/><path clip-rule="evenodd" d="M109.018 34.39s5.884-.412 6.259.513c.403.838-4.786 4.504-4.786 4.504s2.686 4.846 2.319 6.395c-.058.244-.331.32-.57.246-1.849-.56-5.475-2.86-5.475-2.86s-4.059 4.488-5.218 3.73c-.857-.69 0-7.066 0-7.066s-5.423-3.117-5.238-3.944c.184-.963 6.358-1.254 6.358-1.254s1.812-5.297 3.086-5.898a.333.333 0 01.18-.031c1.371.156 3.085 5.665 3.085 5.665z" stroke="#E41B23" stroke-width="2" stroke-linecap="round" stroke-linejoin="round"/><path clip-rule="evenodd" d="M104.296 14.882s3.884.615 3.995 1.233c.141.57-3.405 2.357-3.405 2.357s.697 2.848.297 3.82c-.09.22-.36.233-.56.105-1.139-.725-3.071-2.884-3.071-2.884s-3.267 2.536-3.912 1.903c-.457-.547 1.54-4.048 1.54-4.048s-2.958-2.65-2.72-3.126c.259-.56 4.181.06 4.181.06s1.421-3.084 2.315-3.327a.269.269 0 01.173.01c.85.355 1.167 3.897 1.167 3.897z" stroke="#E41B23" stroke-width="1.5" stroke-linecap="round" stroke-linejoin="round"/><path clip-rule="evenodd" d="M18.377 97.658c1.154-21.689 9.922-42.59 14.437-53.617 13.037 6.716 36.952 36.514 37.959 40.553-2.612 2.978-52.001 14.648-52.396 13.064z" stroke="#E41B23" stroke-width="4" stroke-linecap="round" stroke-linejoin="round"/><path clip-rule="evenodd" d="M36.94 70.838a3.5 3.5 0 10-1.693-6.792 3.5 3.5 0 001.693 6.792z" stroke="#E41B23" stroke-width="3" stroke-linecap="round" stroke-linejoin="round"/><path fill-rule="evenodd" clip-rule="evenodd" d="M43.974 70.115a3.5 3.5 0 10-1.693-6.792 3.5 3.5 0 001.693 6.792z" fill="#E41B23"/><path d="M30.287 84.494c2.289-3.328 5.334-5.405 11.292-6.89 5.42-1.352 9.203-1.007 12.965.842" stroke="#E41B23" stroke-width="3" stroke-linecap="round" stroke-linejoin="round"/><path d="M41.452 79.673c.468 1.876 2.496 6.592 5.156 5.93 2.66-.664 2.31-4.923 1.842-6.798" stroke="#E41B23" stroke-width="3" stroke-linecap="round" stroke-linejoin="round"/><path clip-rule="evenodd" d="M90.281 136.312c0-1.034-11.325-4.285-10.68-7.323.644-3.038 22.604-26.611 25.395-26.611 2.791 0-6.286 22.592-6.647 23.176.212.626 14.27 3.402 12.871 5.446-.074.107-27.468 27.321-30.604 27.321-2.868 0 9.665-20.974 9.665-22.009z" stroke="#E41B23" stroke-width="4" stroke-linecap="round" stroke-linejoin="round"/></svg>