<svg xmlns="http://www.w3.org/2000/svg" width="32.282" height="33.134"><g data-name="Group 57"><path data-name="Path 75" d="M2.681 27.784c3.5 5.488 11.284 6.234 17.128 4.557a16.625 16.625 0 003.47-1.411 18.005 18.005 0 008.927-17.024C31.535 7.018 26.281 1.1 19.986.147 15.8-.49 11.159.956 7.249 4.108c-7.523 6.069-9.443 16.026-4.568 23.676" fill="#e41b23"/><path data-name="Path 76" d="M13.782 17.353a4.363 4.363 0 01.252-.551 5.109 5.109 0 01.4-.452c.127-.156.3-.262.444-.4s1.187-1.064 1.338-1.19.306-.269.451-.4a9.842 9.842 0 00.817-.885 2.283 2.283 0 00.248-.551 1.848 1.848 0 00.06-.592 2.72 2.72 0 00-.45-.99 1.8 1.8 0 00-.434-.345 2.235 2.235 0 00-.5-.287 2.615 2.615 0 00-.577.043 5.806 5.806 0 00-1.127.247 4.605 4.605 0 00-.525.261c-.19.107-.4.145-.546.246a.567.567 0 01-.794-.119c-.19-.232-.25-.183-.44-.416s-.938-1.178-1.129-1.411-.233-.2-.425-.434-.268-.209-.375-.491.147-.215.429-.452c.126-.106.335-.157.515-.286.145-.1 1.3-.835 1.491-.916s.351-.158.541-.225.935-.278 1.132-.318.387-.033.585-.059.387 0 .587-.017.975 0 1.173.01.4-.017.593.013.973.181 1.161.239.357.178.54.25.927.357 1.094.459.316.244.474.362a5.8 5.8 0 01.479.353 5.4 5.4 0 01.4.443 5.083 5.083 0 01.363.471 5.01 5.01 0 01.246.543 9.387 9.387 0 01.416 1.1 4.877 4.877 0 01.1.581c.021.191.048.992.03 1.182a5.508 5.508 0 01-.1.584 4.9 4.9 0 01-.211.551 5.01 5.01 0 01-.187.554 5.614 5.614 0 01-.215.555c-.1.17-1.854 2.042-2 2.167s-.34.215-.485.34-.7.7-.822.842a3.776 3.776 0 00-.395.434 2.242 2.242 0 00-.236.534 1.868 1.868 0 00-.136.573c0 .252-.01.252-.01.5a.555.555 0 01-.538.513h-1.155c-.288 0-.288-.024-.576-.024s-.289.035-.578.035-1.526.173-1.712-.05c-.223-.268-.067-.324-.06-.673a20.617 20.617 0 01.378-2.451m.391 5.171c.314 0 .314.014.629.014s1.573-.06 1.888-.06.315.061.631.061a.633.633 0 01.652.539c0 .3-.065.894-.065 1.191s.025 1.5.025 1.8a.749.749 0 01-.407.6 5.245 5.245 0 01-.831.055c-.315 0-.315-.013-.63-.013a10.154 10.154 0 01-2.564 0 4.136 4.136 0 01-.267-1.655 4.779 4.779 0 01.292-1.971c.2-.244.333-.562.646-.562" fill="#fff"/></g></svg>