<svg xmlns="http://www.w3.org/2000/svg" width="16.529" height="17.771"><path data-name="Path 77" d="M1.784 7.517c-.207 2.49-.211 7.106.113 8.121a2.114 2.114 0 00.278.094 9.537 9.537 0 001.449.241 40.4 40.4 0 004.474.156 29.46 29.46 0 006.571-.6 18.185 18.185 0 00.166-4.688 83.27 83.27 0 00-.25-3.66c-3.838 2.959-5.7 4.24-6.309 4.256-.639.017-2.547-1.167-6.492-3.92m.213-1.447a.707.707 0 01.071.043 54.722 54.722 0 006.174 4.004 59.2 59.2 0 005.974-4.313 28.58 28.58 0 00-2.837-2.162 21.765 21.765 0 00-3.408-2 14.106 14.106 0 00-3.177 1.944 14.793 14.793 0 00-2.8 2.482M.423 5.59C.873 4.178 6.503.001 7.966.001c1.315 0 7.681 4.319 8.06 5.606a47.5 47.5 0 01.445 5.162c.142 3.323.031 5.257-.658 5.93s-3.794 1.015-7.7 1.066c-4.36.057-7.114-.232-7.644-1.283C-.215 15.125-.099 7.215.42 5.589" fill="#e41b23"/></svg>