<svg xmlns="http://www.w3.org/2000/svg" width="18.575" height="20.427"><path data-name="Path 78" d="M5.723 18.741c-.514.227-1.034.453-1.528.665l-.157.067a11.025 11.025 0 01-2.605.953.743.743 0 01-.754-.679 1.4 1.4 0 01.02-.445 7.421 7.421 0 01.281-.993q.374-1.1 1.235-3.18a8.323 8.323 0 01-2.21-5.978C.005 3.936 3.68 0 8.93 0c6.207 0 10.007 3.5 9.624 10.436a8.739 8.739 0 01-4.73 7.694 9.765 9.765 0 01-7.689.43l-.41.182m-2.237-.561l.155-.066c.489-.21 1.005-.435 1.515-.66l.491-.217.184-.082a.7.7 0 01.558-.007 8.334 8.334 0 006.8-.272 7.339 7.339 0 003.963-6.518c.336-6.085-2.779-8.953-8.22-8.953-4.451 0-7.519 3.287-7.519 7.746a6.887 6.887 0 002.119 5.309.7.7 0 01.162.779q-.944 2.254-1.345 3.418a70.86 70.86 0 001.14-.476m.882-9.954c-.651-1.807 1.388-4.175 2.045-4.031S8.102 6.139 8.07 6.753a2.529 2.529 0 01-1.2 1.679c.559 1.374 2.682 3.027 3.551 3.634.308-.558 1.11-1.472 1.678-1.443a3.637 3.637 0 012.272 2.371c-.034.652-1.845 2.447-4.82.877-1.661-.877-4.44-3.6-5.176-5.643" fill="#e41b23"/></svg>