<svg xmlns="http://www.w3.org/2000/svg" width="62.612" height="61.547"><g data-name="_icon/experience/xl" fill="none" stroke="#e41b23" stroke-linecap="round" stroke-linejoin="round" stroke-miterlimit="10"><path data-name="Path Copy 2" d="M47.043 16.48l10.41 3.268a1.1 1.1 0 01.268 1.972l-8.741 5.67v12.103a1.1 1.1 0 01-1.764.877l-8.83-6.69-10.353 3.599a1.1 1.1 0 01-1.395-1.423l4.138-11.126-7.026-8.38a1.1 1.1 0 01.853-1.807l10.861.1 6.385-9.148a1.1 1.1 0 011.955.31z" stroke-width="4"/><path data-name="Path Copy 3" d="M17.697 43.85l5.882.48a1.1 1.1 0 01.665 1.898l-4.581 4.313 2.06 6.494a1.1 1.1 0 01-1.545 1.312l-5.481-2.765-5.223 3.737a1.1 1.1 0 01-1.74-.895l-.002-7.29-5.02-3.774a1.1 1.1 0 01.448-1.959l6.063-1.197 3.28-6.141a1.1 1.1 0 011.93-.02z" stroke-width="3.001"/><path data-name="Path Copy" d="M11.392 17.836l3.164.977a1.1 1.1 0 01.298 1.955l-2.677 1.858.047 2.944a1.1 1.1 0 01-1.836.835l-2.659-2.393-2.716 1.326a1.1 1.1 0 01-1.51-1.38l1.066-2.804-2.006-2.31a1.1 1.1 0 01.847-1.822l3.107.042 1.929-2.681a1.1 1.1 0 011.94.307z" stroke-width="2"/></g></svg>